<svg width="20" height="19" viewBox="0 0 20 19" fill="none" xmlns="http://www.w3.org/2000/svg">
<path d="M10.2741 9.77178L12.2162 11.7254C12.2918 11.8014 12.3862 11.8356 12.4845 11.8356C12.5827 11.8356 12.6772 11.7976 12.7528 11.7254C12.9001 11.5771 12.9001 11.3377 12.7528 11.1895L10.9202 9.34609V5.66316C10.9202 5.45412 10.7502 5.28308 10.5424 5.28308C10.3346 5.28308 10.1646 5.45412 10.1646 5.66316V9.50192C10.1646 9.55133 10.1759 9.60074 10.1948 9.65015C10.2137 9.69576 10.2401 9.73757 10.2779 9.77178H10.2741Z" fill="#848484"/>
<path d="M5.45322 14.5911C5.45322 14.5911 5.46078 14.6025 5.46456 14.6101C5.46834 14.6177 5.47589 14.6177 5.48345 14.6215C6.78322 15.9213 8.5704 16.7233 10.5427 16.7233C12.515 16.7233 14.3022 15.9175 15.602 14.6215C15.6058 14.6177 15.6133 14.6139 15.6209 14.6101C15.6284 14.6063 15.6284 14.5987 15.6322 14.5911C16.9244 13.2836 17.7217 11.4858 17.7217 9.50184C17.7217 7.51784 16.9207 5.72008 15.6322 4.41262C15.6284 4.40882 15.6247 4.40122 15.6209 4.39362C15.6171 4.38602 15.6096 4.38602 15.602 4.38222C14.3022 3.08236 12.515 2.2804 10.5427 2.2804C8.5704 2.2804 6.78322 3.08616 5.48345 4.38222C5.47967 4.38602 5.47212 4.38982 5.46456 4.39362C5.457 4.39742 5.457 4.40502 5.45322 4.41262C4.16101 5.72008 3.36377 7.51784 3.36377 9.50184C3.36377 11.4858 4.16479 13.2836 5.45322 14.5911ZM4.8449 9.12176H4.13834C4.22524 7.62807 4.81845 6.27119 5.74794 5.21838L6.24669 5.72008C6.32225 5.7961 6.41671 5.83031 6.51495 5.83031C6.61319 5.83031 6.70765 5.7923 6.78322 5.72008C6.93058 5.57185 6.93058 5.33241 6.78322 5.18418L6.28447 4.68248C7.33109 3.74749 8.67997 3.15077 10.1649 3.06335V3.77409C10.1649 3.98314 10.3349 4.15417 10.5427 4.15417C10.7505 4.15417 10.9206 3.98314 10.9206 3.77409V3.06335C12.4055 3.15077 13.7544 3.74749 14.801 4.68248L14.3022 5.18418C14.1549 5.33241 14.1549 5.57185 14.3022 5.72008C14.3778 5.7961 14.4723 5.83031 14.5705 5.83031C14.6687 5.83031 14.7632 5.7923 14.8388 5.72008L15.3375 5.21838C16.267 6.27119 16.8602 7.62807 16.9471 9.12176H16.2405C16.0327 9.12176 15.8627 9.2928 15.8627 9.50184C15.8627 9.71088 16.0327 9.88192 16.2405 9.88192H16.9471C16.8602 11.3756 16.267 12.7325 15.3375 13.7853L14.8388 13.2836C14.6914 13.1354 14.4534 13.1354 14.306 13.2836C14.1586 13.4318 14.1586 13.6713 14.306 13.8195L14.8048 14.3212C13.7581 15.2562 12.4093 15.8529 10.9243 15.9403V15.2296C10.9243 15.0205 10.7543 14.8495 10.5465 14.8495C10.3387 14.8495 10.1687 15.0205 10.1687 15.2296V15.9403C8.68375 15.8529 7.33486 15.2562 6.28825 14.3212L6.787 13.8195C6.93435 13.6713 6.93435 13.4318 6.787 13.2836C6.63964 13.1354 6.4016 13.1354 6.25424 13.2836L5.75549 13.7853C4.82601 12.7325 4.2328 11.3756 4.1459 9.88192H4.85246C5.06027 9.88192 5.2303 9.71088 5.2303 9.50184C5.2303 9.2928 5.06027 9.12176 4.85246 9.12176H4.8449Z" fill="#848484"/>
<path d="M10.5427 0C8.38899 0 6.28064 0.74875 4.61059 2.10942C4.30832 2.35647 4.0136 2.62633 3.74156 2.91138C3.59798 3.06341 3.60176 3.30286 3.75289 3.44729C3.82468 3.5195 3.91914 3.55371 4.0136 3.55371C4.11184 3.55371 4.21008 3.5157 4.28565 3.43589C4.5388 3.17363 4.80707 2.92659 5.08667 2.69854C6.62447 1.44809 8.56279 0.760152 10.5465 0.760152C15.3375 0.760152 19.2368 4.68254 19.2368 9.5019C19.2368 14.3213 15.3375 18.2436 10.5465 18.2436C6.10306 18.2436 2.43045 14.8724 1.92037 10.5357L2.3171 10.9348C2.39267 11.0108 2.48713 11.045 2.58537 11.045C2.68361 11.045 2.77807 11.007 2.85363 10.9348C3.00099 10.7866 3.00099 10.5471 2.85363 10.3989L1.83347 9.37267C1.78057 9.22824 1.64455 9.12182 1.48208 9.12182C1.31961 9.12182 1.18358 9.22824 1.13069 9.37267L0.110518 10.3989C-0.0368394 10.5471 -0.0368394 10.7866 0.110518 10.9348C0.186086 11.0108 0.280546 11.045 0.378784 11.045C0.477023 11.045 0.571483 11.007 0.647051 10.9348L1.15336 10.4255C1.6181 15.2334 5.6572 19 10.554 19C15.7644 19 20 14.7393 20 9.4981C20 4.25685 15.7531 0 10.5427 0Z" fill="#848484"/>
<path d="M1.64444 7.68522C1.67467 7.69282 1.70489 7.69662 1.73512 7.69662C1.90515 7.69662 2.06006 7.5826 2.10163 7.40776C2.18853 7.05429 2.2981 6.70462 2.42657 6.36635C2.50214 6.16871 2.4039 5.95207 2.2112 5.87605C2.01472 5.80384 1.79935 5.89886 1.72379 6.0927C1.58399 6.46137 1.46308 6.84145 1.36862 7.22533C1.3195 7.43057 1.44418 7.63581 1.64444 7.68522Z" fill="#848484"/>
<path d="M2.40379 5.45786C2.46046 5.48826 2.5247 5.50347 2.58515 5.50347C2.71739 5.50347 2.84964 5.43125 2.91765 5.30583C3.10279 4.96756 3.3106 4.63689 3.54109 4.32523C3.66577 4.1542 3.62799 3.91855 3.46174 3.79312C3.29171 3.6677 3.05745 3.70571 2.93276 3.87294C2.68339 4.21121 2.45669 4.57228 2.25643 4.93715C2.15441 5.11959 2.22243 5.35144 2.40757 5.45406L2.40379 5.45786Z" fill="#848484"/>
</svg>
