<svg width="425" height="363" viewBox="0 0 425 363" fill="none" xmlns="http://www.w3.org/2000/svg">
<path d="M210.4 362.66C317.482 362.66 404.29 357.591 404.29 351.34C404.29 345.088 317.482 340.02 210.4 340.02C103.318 340.02 16.51 345.088 16.51 351.34C16.51 357.591 103.318 362.66 210.4 362.66Z" fill="#F5F5F5"/>
<path d="M198.8 282.8H5.71C4.19643 282.797 2.7456 282.195 1.67534 281.125C0.605082 280.054 0.0026438 278.604 0 277.09V5.66C0.0157842 4.15511 0.62402 2.71708 1.69286 1.65759C2.76171 0.598109 4.20504 0.00254829 5.71 0H198.8C200.313 0.00264913 201.762 0.605407 202.831 1.67595C203.9 2.7465 204.5 4.19735 204.5 5.71V277.09C204.5 278.603 203.9 280.053 202.831 281.124C201.762 282.195 200.313 282.797 198.8 282.8ZM5.71 0.200001C4.26273 0.202644 2.8755 0.77874 1.85212 1.80212C0.828743 2.82549 0.252643 4.21273 0.25 5.66V277.09C0.252643 278.537 0.828743 279.924 1.85212 280.948C2.8755 281.971 4.26273 282.547 5.71 282.55H198.8C200.246 282.547 201.633 281.971 202.654 280.947C203.676 279.924 204.25 278.536 204.25 277.09V5.66C204.25 4.21365 203.676 2.82639 202.654 1.80273C201.633 0.779069 200.246 0.20265 198.8 0.200001H5.71Z" fill="#E6E6E6"/>
<path d="M415.1 282.8H222C220.487 282.797 219.038 282.195 217.969 281.124C216.9 280.053 216.3 278.603 216.3 277.09V5.66C216.313 4.15602 216.919 2.71798 217.987 1.65822C219.054 0.598462 220.496 0.00257639 222 0H415.1C416.604 0.00257639 418.046 0.598462 419.114 1.65822C420.181 2.71798 420.787 4.15602 420.8 5.66V277.09C420.8 278.603 420.2 280.053 419.131 281.124C418.062 282.195 416.613 282.797 415.1 282.8ZM222 0.200001C220.554 0.20265 219.168 0.779069 218.146 1.80273C217.124 2.82639 216.55 4.21365 216.55 5.66V277.09C216.55 278.536 217.124 279.924 218.146 280.947C219.168 281.971 220.554 282.547 222 282.55H415.1C416.548 282.547 417.937 281.972 418.961 280.948C419.986 279.925 420.565 278.538 420.57 277.09V5.66C420.565 4.21181 419.986 2.82459 418.961 1.8015C417.937 0.77841 416.548 0.202634 415.1 0.200001H222Z" fill="#E6E6E6"/>
<path d="M55.3999 333.48H14.1899V333.73H55.3999V333.48Z" fill="#E0E0E0"/>
<path d="M139.4 331.48H98.0701V331.73H139.4V331.48Z" fill="#E0E0E0"/>
<path d="M193.18 331.48H183.18V331.73H193.18V331.48Z" fill="#E0E0E0"/>
<path d="M93.23 340.02H46.98V340.27H93.23V340.02Z" fill="#E0E0E0"/>
<path d="M253.2 333.35H231.6V333.6H253.2V333.35Z" fill="#E0E0E0"/>
<path d="M290.03 333.35H262.1V333.6H290.03V333.35Z" fill="#E0E0E0"/>
<path d="M424.73 337.58H362.29V337.83H424.73V337.58Z" fill="#E0E0E0"/>
<path d="M372.84 55.5H325.23V88.77H372.84V55.5Z" fill="#E6E6E6"/>
<path d="M346.7 55.5H325.23V88.77H346.7V55.5Z" fill="#F0F0F0"/>
<path opacity="0.4" d="M335.95 60.0098C337.352 60.0098 338.723 60.4256 339.889 61.2047C341.055 61.9837 341.964 63.091 342.5 64.3865C343.037 65.6821 343.177 67.1076 342.904 68.483C342.63 69.8583 341.955 71.1216 340.963 72.1132C339.972 73.1047 338.708 73.78 337.333 74.0535C335.958 74.3271 334.532 74.1867 333.237 73.6501C331.941 73.1135 330.834 72.2047 330.055 71.0388C329.276 69.8728 328.86 68.502 328.86 67.0998C328.86 65.2194 329.607 63.416 330.936 62.0864C332.266 60.7567 334.069 60.0098 335.95 60.0098Z" fill="#E0E0E0"/>
<path d="M339.4 80.9297C339.4 81.6141 339.197 82.283 338.817 82.852C338.437 83.421 337.896 83.8645 337.264 84.1264C336.632 84.3883 335.936 84.4568 335.265 84.3233C334.594 84.1898 333.977 83.8602 333.493 83.3763C333.01 82.8924 332.68 82.2759 332.546 81.6048C332.413 80.9336 332.481 80.2379 332.743 79.6057C333.005 78.9734 333.449 78.433 334.018 78.0529C334.587 77.6727 335.256 77.4697 335.94 77.4697C336.395 77.4684 336.845 77.557 337.266 77.7304C337.686 77.9039 338.068 78.1587 338.39 78.4802C338.711 78.8018 338.966 79.1837 339.139 79.6041C339.313 80.0245 339.401 80.475 339.4 80.9297Z" fill="#E0E0E0"/>
<path d="M335.9 69.5996C337.015 69.5996 337.92 68.6952 337.92 67.5796C337.92 66.464 337.015 65.5596 335.9 65.5596C334.784 65.5596 333.88 66.464 333.88 67.5796C333.88 68.6952 334.784 69.5996 335.9 69.5996Z" fill="#FAFAFA"/>
<path d="M271.2 43.5801H250.61V88.7801H271.2V43.5801Z" fill="#F0F0F0"/>
<path d="M297.95 43.5801H270.63V88.7801H297.95V43.5801Z" fill="#E6E6E6"/>
<path d="M260.83 57.9297C261.397 57.9277 261.951 58.094 262.423 58.4075C262.895 58.721 263.263 59.1676 263.48 59.6906C263.698 60.2136 263.756 60.7895 263.646 61.3452C263.535 61.9009 263.263 62.4114 262.862 62.812C262.462 63.2126 261.951 63.4852 261.395 63.5952C260.84 63.7053 260.264 63.6478 259.741 63.4301C259.218 63.2124 258.771 62.8442 258.458 62.3724C258.144 61.9005 257.978 61.3462 257.98 60.7797C257.983 60.0246 258.284 59.3013 258.818 58.7674C259.352 58.2335 260.075 57.9323 260.83 57.9297Z" fill="white"/>
<path d="M260.83 53.4805C261.113 53.4805 261.389 53.5643 261.624 53.7215C261.86 53.8786 262.043 54.1019 262.151 54.3632C262.259 54.6245 262.288 54.9121 262.232 55.1894C262.177 55.4668 262.041 55.7216 261.841 55.9216C261.641 56.1216 261.386 56.2578 261.109 56.313C260.831 56.3682 260.544 56.3399 260.283 56.2316C260.021 56.1234 259.798 55.9401 259.641 55.7049C259.484 55.4698 259.4 55.1933 259.4 54.9105C259.4 54.7227 259.437 54.5367 259.509 54.3632C259.581 54.1897 259.686 54.0321 259.819 53.8993C259.952 53.7665 260.109 53.6612 260.283 53.5893C260.456 53.5175 260.642 53.4805 260.83 53.4805Z" fill="white"/>
<path d="M260.83 49.1602C261.113 49.1602 261.389 49.244 261.624 49.4012C261.86 49.5583 262.043 49.7816 262.151 50.0429C262.259 50.3042 262.288 50.5917 262.232 50.8691C262.177 51.1465 262.041 51.4013 261.841 51.6013C261.641 51.8013 261.386 51.9375 261.109 51.9927C260.831 52.0479 260.544 52.0195 260.283 51.9113C260.021 51.8031 259.798 51.6198 259.641 51.3846C259.484 51.1495 259.4 50.873 259.4 50.5902C259.4 50.4024 259.437 50.2164 259.509 50.0429C259.581 49.8694 259.686 49.7118 259.819 49.579C259.952 49.4462 260.109 49.3409 260.283 49.269C260.456 49.1971 260.642 49.1602 260.83 49.1602Z" fill="white"/>
<path d="M297.47 68.9297H251.07V69.6397H297.47V68.9297Z" fill="#E0E0E0"/>
<path d="M297.47 72.9404H251.07V73.6504H297.47V72.9404Z" fill="#E0E0E0"/>
<path d="M297.47 76.9502H251.07V77.6602H297.47V76.9502Z" fill="#E0E0E0"/>
<path d="M297.47 80.96H251.07V81.67H297.47V80.96Z" fill="#E0E0E0"/>
<path d="M297.47 84.9697H251.07V85.6797H297.47V84.9697Z" fill="#E0E0E0"/>
<path d="M261.32 70.1504H259.36V72.1104H261.32V70.1504Z" fill="#E0E0E0"/>
<path d="M261.32 74.3701H259.36V76.3301H261.32V74.3701Z" fill="#E0E0E0"/>
<path d="M261.32 78.1699H259.36V80.1299H261.32V78.1699Z" fill="#E0E0E0"/>
<path d="M261.32 82.2695H259.36V84.2295H261.32V82.2695Z" fill="#E0E0E0"/>
<path d="M261.32 86.25H259.36V88.21H261.32V86.25Z" fill="#E0E0E0"/>
<path d="M211.27 133.27H210.27V94.9797C210.273 92.9118 211.095 90.9294 212.558 89.4672C214.02 88.005 216.002 87.1823 218.07 87.1797H251.07V88.1797H218.07C216.267 88.1823 214.539 88.8996 213.265 90.1743C211.99 91.449 211.273 93.177 211.27 94.9797V133.27Z" fill="#E0E0E0"/>
<path d="M209.27 133.34H208.27V94.7002C208.273 92.1921 209.27 89.7875 211.044 88.0139C212.817 86.2404 215.222 85.2429 217.73 85.2402H251.07V86.2402H217.73C215.487 86.2429 213.337 87.1351 211.751 88.721C210.165 90.307 209.273 92.4573 209.27 94.7002V133.34Z" fill="#E0E0E0"/>
<path d="M99.77 37.2695H68.46V70.5995H99.77V37.2695Z" fill="#E6E6E6"/>
<path d="M107.79 37.2695H99.77V70.5995H107.79V37.2695Z" fill="#F5F5F5"/>
<path d="M83.77 32.1299H60.25V70.5999H83.77V32.1299Z" fill="#E6E6E6"/>
<path d="M90.56 32.1299H83.76V70.5999H90.56V32.1299Z" fill="#F5F5F5"/>
<path d="M76.84 37.2695H57.01V70.5995H76.84V37.2695Z" fill="#EBEBEB"/>
<path d="M81.3701 37.2695H76.8401V70.5995H81.3701V37.2695Z" fill="#F5F5F5"/>
<path d="M60.6101 42.9102H34.6001V70.6002H60.6101V42.9102Z" fill="#E6E6E6"/>
<path d="M67.2701 42.9102H60.6101V70.6002H67.2701V42.9102Z" fill="#F5F5F5"/>
<path d="M47.32 38.6396H27.78V70.5996H47.32V38.6396Z" fill="#E6E6E6"/>
<path d="M52.9601 38.6396H47.3101V70.5996H52.9601V38.6396Z" fill="#F5F5F5"/>
<path d="M41.5601 42.9102H22.5801V70.6002H41.5601V42.9102Z" fill="#E6E6E6"/>
<path d="M45.3301 42.9102H41.5701V70.6002H45.3301V42.9102Z" fill="#F0F0F0"/>
<path d="M0.399902 80.2305L204.4 80.2305V70.5805L0.399902 70.5805V80.2305Z" fill="#E6E6E6"/>
<path d="M37.01 80.46H48.29L40.07 92.87H37.01V80.46Z" fill="#E0E0E0"/>
<path d="M37.0099 80.46H35.3799V92.87H37.0099V80.46Z" fill="#E0E0E0"/>
<path d="M163.71 80.46H175L166.78 92.87H163.71V80.46Z" fill="#E0E0E0"/>
<path d="M163.72 80.46H162.09V92.87H163.72V80.46Z" fill="#E0E0E0"/>
<path d="M420.63 88.7803H216.63V98.4303H420.63V88.7803Z" fill="#E6E6E6"/>
<path d="M384.03 111.06H380.96L372.74 98.6504H384.03V111.06Z" fill="#E0E0E0"/>
<path d="M385.66 98.6504H384.03V111.06H385.66V98.6504Z" fill="#E0E0E0"/>
<path d="M257.32 111.06H254.25L246.03 98.6504H257.32V111.06Z" fill="#E0E0E0"/>
<path d="M258.95 98.6504H257.32V111.06H258.95V98.6504Z" fill="#E0E0E0"/>
<path d="M157.85 51.1599C157.851 49.7264 157.639 48.3008 157.22 46.9299L160.93 43.6699L158.6 39.6199L153.92 41.2099C151.949 39.1035 149.399 37.6281 146.59 36.9699L145.59 32.1299H140.92L139.92 36.9699C137.114 37.6282 134.567 39.1037 132.6 41.2099L127.91 39.6199L125.58 43.6699L129.29 46.9299C128.45 49.6874 128.45 52.6324 129.29 55.3899L125.58 58.6499L127.91 62.6999L132.6 61.1099C134.567 63.216 137.114 64.6916 139.92 65.3499L140.92 70.1899H145.59L146.59 65.3499C149.399 64.6917 151.949 63.2163 153.92 61.1099L158.6 62.6999L160.93 58.6499L157.22 55.3899C157.639 54.019 157.851 52.5933 157.85 51.1599ZM143.29 59.0199C141.793 59.0199 140.329 58.5759 139.084 57.7441C137.84 56.9123 136.869 55.73 136.296 54.3468C135.723 52.9636 135.573 51.4415 135.866 49.973C136.158 48.5046 136.879 47.1558 137.937 46.0971C138.996 45.0384 140.345 44.3174 141.813 44.0253C143.282 43.7332 144.804 43.8832 146.187 44.4561C147.57 45.0291 148.753 45.9993 149.584 47.2442C150.416 48.4891 150.86 49.9527 150.86 51.4499C150.86 53.4576 150.063 55.383 148.643 56.8027C147.223 58.2223 145.298 59.0199 143.29 59.0199Z" fill="#F0F0F0"/>
<path d="M183.11 53.6101C182.624 52.8025 182.017 52.0741 181.31 51.4501L182.31 48.3401L179.61 46.8701L177.52 49.3701C175.694 48.8617 173.758 48.9104 171.96 49.5101L169.75 47.1301L167.12 48.7301L168.24 51.7801C166.891 53.1169 165.966 54.8211 165.58 56.6801L162.41 57.4001L162.49 60.4701L165.7 61.0301C166.178 62.8644 167.187 64.5167 168.6 65.7801L167.6 68.8901L170.3 70.3601L172.39 67.8601C174.22 68.3586 176.157 68.3099 177.96 67.7201L180.17 70.1001L182.79 68.5001L181.67 65.4401C183.018 64.1072 183.943 62.4062 184.33 60.5501L187.5 59.8301L187.42 56.7501L184.22 56.2001C183.985 55.285 183.61 54.4115 183.11 53.6101ZM177.64 63.0301C176.797 63.5488 175.819 63.8056 174.83 63.7679C173.841 63.7302 172.885 63.3998 172.084 62.8186C171.283 62.2373 170.672 61.4313 170.329 60.5027C169.986 59.5741 169.927 58.5646 170.159 57.6022C170.39 56.6399 170.902 55.7678 171.629 55.0966C172.357 54.4254 173.267 53.9853 174.245 53.8319C175.223 53.6785 176.225 53.8189 177.123 54.2351C178.021 54.6514 178.775 55.3248 179.29 56.1701C179.978 57.2994 180.191 58.6552 179.881 59.9408C179.572 61.2264 178.766 62.3372 177.64 63.0301Z" fill="#F0F0F0"/>
<path d="M414.58 214.39H6.95996V219.52H414.58V214.39Z" fill="#2AB6C5"/>
<path d="M31.24 218.069V340.409H34.42L38.42 218.069H31.24Z" fill="#2AB6C5"/>
<path d="M68.78 222.069V335.409H71.96L75.96 222.069H68.78Z" fill="#2AB6C5"/>
<path opacity="0.5" d="M68.78 222.069V335.409H71.96L75.96 222.069H68.78Z" fill="black"/>
<path d="M391.75 218.069V340.409H388.58L384.57 218.069H391.75Z" fill="#2AB6C5"/>
<path d="M354.21 222.069V335.409H351.03L347.03 222.069H354.21Z" fill="#2AB6C5"/>
<path opacity="0.5" d="M354.21 222.069V335.409H351.03L347.03 222.069H354.21Z" fill="black"/>
<path d="M399 225.01H23.7399L15.4399 219.52H407.3L399 225.01Z" fill="#2AB6C5"/>
<path opacity="0.5" d="M399 225.01H23.7399L15.4399 219.52H407.3L399 225.01Z" fill="black"/>
<path d="M33.75 198.659V202.659C33.7499 203.322 34.0124 203.959 34.48 204.429L37.65 207.599C37.9308 207.878 38.2734 208.087 38.65 208.209C39.3036 209.616 40.3454 210.806 41.6529 211.641C42.9603 212.475 44.479 212.919 46.03 212.919H47.22C48.2961 212.926 49.3628 212.719 50.3582 212.31C51.3536 211.901 52.258 211.299 53.0189 210.538C53.7798 209.777 54.3821 208.873 54.7909 207.877C55.1996 206.882 55.4066 205.815 55.4 204.739V195.409H37.92V196.169H36.25C35.5887 196.169 34.9543 196.431 34.4858 196.898C34.0172 197.365 33.7526 197.998 33.75 198.659ZM35.75 198.659C35.75 198.594 35.763 198.529 35.7882 198.469C35.8135 198.409 35.8505 198.355 35.897 198.309C35.9436 198.263 35.9988 198.228 36.0594 198.204C36.12 198.18 36.1848 198.168 36.25 198.169H37.92V204.739C37.92 204.829 37.92 204.919 37.92 205.009L35.92 203.009C35.872 202.965 35.8338 202.91 35.808 202.85C35.7821 202.79 35.7692 202.725 35.77 202.659L35.75 198.659Z" fill="#2AB6C5"/>
<path opacity="0.5" d="M33.75 198.659V202.659C33.7499 203.322 34.0124 203.959 34.48 204.429L37.65 207.599C37.9308 207.878 38.2734 208.087 38.65 208.209C39.3036 209.616 40.3454 210.806 41.6529 211.641C42.9603 212.475 44.479 212.919 46.03 212.919H47.22C48.2961 212.926 49.3628 212.719 50.3582 212.31C51.3536 211.901 52.258 211.299 53.0189 210.538C53.7798 209.777 54.3821 208.873 54.7909 207.877C55.1996 206.882 55.4066 205.815 55.4 204.739V195.409H37.92V196.169H36.25C35.5887 196.169 34.9543 196.431 34.4858 196.898C34.0172 197.365 33.7526 197.998 33.75 198.659ZM35.75 198.659C35.75 198.594 35.763 198.529 35.7882 198.469C35.8135 198.409 35.8505 198.355 35.897 198.309C35.9436 198.263 35.9988 198.228 36.0594 198.204C36.12 198.18 36.1848 198.168 36.25 198.169H37.92V204.739C37.92 204.829 37.92 204.919 37.92 205.009L35.92 203.009C35.872 202.965 35.8338 202.91 35.808 202.85C35.7821 202.79 35.7692 202.725 35.77 202.659L35.75 198.659Z" fill="white"/>
<path d="M59.5399 214.27H34.3999C33.2504 214.168 32.1805 213.64 31.3999 212.79H62.4999C61.731 213.633 60.676 214.161 59.5399 214.27Z" fill="#2AB6C5"/>
<path opacity="0.5" d="M59.5399 214.27H34.3999C33.2504 214.168 32.1805 213.64 31.3999 212.79H62.4999C61.731 213.633 60.676 214.161 59.5399 214.27Z" fill="white"/>
<path d="M397.76 202.03C397.63 198.03 394.61 197.09 390.67 196.64V195.19C390.665 195.022 390.594 194.862 390.472 194.746C390.35 194.63 390.188 194.567 390.02 194.57H376.4C376.316 194.567 376.232 194.581 376.154 194.611C376.075 194.64 376.003 194.685 375.941 194.743C375.88 194.8 375.831 194.87 375.796 194.946C375.762 195.023 375.743 195.106 375.74 195.19V214.1H390.68V212.03C394.62 211.59 397.64 206.01 397.76 202.03ZM390.67 209.59V199.09C393.57 199.51 395.57 199.91 395.14 202.81C394.8 205.13 392.98 209.27 390.67 209.59Z" fill="#2AB6C5"/>
<g opacity="0.5">
<path d="M397.76 202.03C397.63 198.03 394.61 197.09 390.67 196.64V195.19C390.665 195.022 390.594 194.862 390.472 194.746C390.35 194.63 390.188 194.567 390.02 194.57H376.4C376.316 194.567 376.232 194.581 376.154 194.611C376.075 194.64 376.003 194.685 375.941 194.743C375.88 194.8 375.831 194.87 375.796 194.946C375.762 195.023 375.743 195.106 375.74 195.19V214.1H390.68V212.03C394.62 211.59 397.64 206.01 397.76 202.03ZM390.67 209.59V199.09C393.57 199.51 395.57 199.91 395.14 202.81C394.8 205.13 392.98 209.27 390.67 209.59Z" fill="white"/>
</g>
<path d="M216.29 190H204.5V213.95H216.29V190Z" fill="#2AB6C5"/>
<path opacity="0.5" d="M216.29 190H204.5V213.95H216.29V190Z" fill="white"/>
<path d="M221.62 214.38H199.28L204.73 209.59H216.17L221.62 214.38Z" fill="#2AB6C5"/>
<path opacity="0.5" d="M221.62 214.38H199.28L204.73 209.59H216.17L221.62 214.38Z" fill="white"/>
<path d="M270.73 206.63H214.89L224.98 214.41H280.81L270.73 206.63Z" fill="#2AB6C5"/>
<path opacity="0.4" d="M270.73 206.63H214.89L224.98 214.41H280.81L270.73 206.63Z" fill="white"/>
<path d="M216.18 214.41L214.89 206.63L224.98 214.41H216.18Z" fill="#2AB6C5"/>
<path opacity="0.5" d="M216.18 214.41L214.89 206.63L224.98 214.41H216.18Z" fill="black"/>
<path d="M260.93 133.31H159.3C158.234 133.31 157.37 134.174 157.37 135.24V197.56C157.37 198.625 158.234 199.49 159.3 199.49H260.93C261.996 199.49 262.86 198.625 262.86 197.56V135.24C262.86 134.174 261.996 133.31 260.93 133.31Z" fill="#2AB6C5"/>
<path opacity="0.5" d="M258.92 137.449H161.2V195.119H258.92V137.449Z" fill="black"/>
<path opacity="0.4" d="M255.81 149.31H206.5V183.26H255.81V149.31Z" fill="black"/>
<path d="M255.81 149.31H206.5V152.42H255.81V149.31Z" fill="#2AB6C5"/>
<path d="M215.54 168.09L223.6 172.55C223.907 172.698 224.183 172.905 224.41 173.16C224.547 173.359 224.617 173.598 224.61 173.84C224.61 174.009 224.577 174.177 224.512 174.333C224.447 174.489 224.351 174.631 224.23 174.75C224.118 174.869 223.984 174.964 223.834 175.029C223.685 175.095 223.523 175.129 223.36 175.13C223.002 175.089 222.658 174.962 222.36 174.76L211.96 168.98C211.794 168.897 211.654 168.769 211.556 168.611C211.458 168.453 211.406 168.271 211.406 168.085C211.406 167.899 211.458 167.717 211.556 167.558C211.654 167.4 211.794 167.273 211.96 167.19L222.36 161.41C222.661 161.216 223.004 161.096 223.36 161.06C223.524 161.057 223.687 161.089 223.839 161.153C223.99 161.216 224.127 161.311 224.24 161.43C224.361 161.546 224.458 161.686 224.523 161.84C224.588 161.995 224.621 162.162 224.62 162.33C224.629 162.572 224.558 162.811 224.42 163.01C224.193 163.264 223.917 163.472 223.61 163.62L215.54 168.09Z" fill="white"/>
<path d="M236.28 159.759L228.28 176.949C228.152 177.262 227.965 177.547 227.73 177.789C227.513 177.959 227.245 178.047 226.97 178.039C226.807 178.042 226.644 178.011 226.493 177.949C226.342 177.887 226.205 177.796 226.09 177.679C225.972 177.575 225.878 177.447 225.812 177.304C225.747 177.161 225.712 177.006 225.71 176.849C225.739 176.499 225.841 176.158 226.01 175.849L234.01 158.669C234.135 158.363 234.315 158.082 234.54 157.839C234.76 157.668 235.031 157.576 235.31 157.579C235.472 157.577 235.632 157.608 235.782 157.67C235.932 157.731 236.067 157.823 236.18 157.939C236.293 158.044 236.384 158.171 236.445 158.312C236.507 158.453 236.54 158.605 236.54 158.759C236.525 159.107 236.437 159.448 236.28 159.759Z" fill="white"/>
<path d="M246.31 168.09L238.25 163.62C237.946 163.466 237.672 163.259 237.44 163.01C237.301 162.811 237.231 162.572 237.24 162.33C237.238 162.162 237.271 161.995 237.337 161.84C237.402 161.686 237.499 161.546 237.62 161.43C237.735 161.311 237.874 161.217 238.027 161.153C238.18 161.089 238.344 161.058 238.51 161.06C238.866 161.098 239.208 161.217 239.51 161.41L249.91 167.19C250.076 167.273 250.216 167.4 250.314 167.558C250.412 167.716 250.464 167.899 250.464 168.085C250.464 168.271 250.412 168.453 250.314 168.611C250.216 168.769 250.076 168.897 249.91 168.98L239.51 174.76C239.21 174.96 238.868 175.087 238.51 175.13C238.341 175.132 238.173 175.098 238.018 175.031C237.863 174.964 237.724 174.864 237.61 174.74C237.492 174.622 237.398 174.481 237.335 174.327C237.271 174.172 237.239 174.007 237.24 173.84C237.233 173.598 237.303 173.359 237.44 173.16C237.672 172.91 237.946 172.703 238.25 172.55L246.31 168.09Z" fill="white"/>
<path d="M168.55 142.77H165.21V146.11H168.55V142.77Z" fill="white"/>
<path d="M168.55 151.42H165.21V154.76H168.55V151.42Z" fill="white"/>
<path d="M168.55 160.06H165.21V163.4H168.55V160.06Z" fill="white"/>
<path d="M168.55 168.699H165.21V172.039H168.55V168.699Z" fill="white"/>
<path d="M168.55 177.34H165.21V180.68H168.55V177.34Z" fill="white"/>
<path d="M168.55 185.979H165.21V189.319H168.55V185.979Z" fill="white"/>
<path d="M185.03 143.529H171.72V144.529H185.03V143.529Z" fill="white"/>
<path d="M179.56 152.189H174.82V153.189H179.56V152.189Z" fill="white"/>
<path d="M200.19 161.909H195.45V162.909H200.19V161.909Z" fill="white"/>
<path d="M179.56 169.619H174.82V170.619H179.56V169.619Z" fill="white"/>
<path d="M186.39 169.619H181.65V170.619H186.39V169.619Z" fill="white"/>
<path d="M193.76 161.909H181.65V162.909H193.76V161.909Z" fill="white"/>
<path d="M196.68 169.619H188.71V170.619H196.68V169.619Z" fill="white"/>
<path d="M193.42 188.149H188.68V189.149H193.42V188.149Z" fill="white"/>
<path d="M200.26 188.149H195.52V189.149H200.26V188.149Z" fill="white"/>
<path d="M205.22 188.149H202.57V189.149H205.22V188.149Z" fill="white"/>
<path d="M196.68 152.189H181.93V153.189H196.68V152.189Z" fill="white"/>
<path d="M186.39 178.649H181.65V179.649H186.39V178.649Z" fill="white"/>
<path d="M190.72 178.649H187.98V179.649H190.72V178.649Z" fill="white"/>
<path d="M200.55 178.649H192.81V179.649H200.55V178.649Z" fill="white"/>
<path d="M201.84 105.769C201.59 117.869 189.02 128.019 173.75 128.419C169.061 128.577 164.393 127.714 160.07 125.889C158.53 129.689 155.29 132.949 146 134.409C155.69 126.919 150.39 120.579 148.18 115.009C147.037 112.577 146.465 109.916 146.51 107.229C146.76 95.1192 159.33 84.9892 174.6 84.5792C189.87 84.1692 202.08 93.6692 201.84 105.769Z" fill="#2AB6C5"/>
<path d="M174.5 93.0996H161.19V94.0996H174.5V93.0996Z" fill="white"/>
<path d="M169.03 101.77H164.29V102.77H169.03V101.77Z" fill="white"/>
<path d="M189.66 111.489H184.92V112.489H189.66V111.489Z" fill="white"/>
<path d="M169.03 119.199H164.29V120.199H169.03V119.199Z" fill="white"/>
<path d="M175.87 119.199H171.13V120.199H175.87V119.199Z" fill="white"/>
<path d="M183.24 111.489H171.13V112.489H183.24V111.489Z" fill="white"/>
<path d="M186.15 119.199H178.18V120.199H186.15V119.199Z" fill="white"/>
<path d="M186.16 101.77H171.41V102.77H186.16V101.77Z" fill="white"/>
<path d="M259.57 335.019L252.28 332.839L253.98 314.969L261.27 317.149L259.57 335.019Z" fill="#7F3E3B"/>
<path opacity="0.2" d="M261.87 313.109L254.58 310.939L253.63 320.949L261 322.319L261.87 313.109Z" fill="black"/>
<path d="M302.72 224.649C302.72 224.649 252.59 228.879 253.82 250.649C254.82 268.469 257.47 263.649 252.28 316.649L264.89 317.349C264.89 317.349 277.72 274.009 275.99 256.789C290.12 256.789 322.47 258.029 327.17 245.279C329.502 238.805 330.637 231.96 330.52 225.079L302.72 224.649Z" fill="#2AB6C5"/>
<path d="M266.89 319.749L250.41 316.929L250.68 309.639L267.74 313.429L266.89 319.749Z" fill="#263238"/>
<path d="M251.53 329.839L259.95 331.509C260.103 331.545 260.237 331.636 260.325 331.766C260.414 331.895 260.451 332.053 260.43 332.209L259.73 340.209C259.717 340.397 259.667 340.581 259.583 340.75C259.498 340.919 259.381 341.069 259.237 341.192C259.094 341.315 258.927 341.408 258.747 341.466C258.568 341.524 258.378 341.545 258.19 341.529C255.27 340.889 253.89 340.419 250.19 339.679C247.91 339.229 242.7 338.139 239.53 337.779C236.36 337.419 236.74 333.719 238.11 333.529C244.27 332.719 247.77 331.719 250.16 330.179C250.555 329.891 251.046 329.769 251.53 329.839Z" fill="#263238"/>
<path d="M247.75 331.269C248.413 331.359 249.083 331.38 249.75 331.329C249.784 331.331 249.817 331.32 249.844 331.301C249.871 331.281 249.891 331.252 249.9 331.219C249.915 331.19 249.923 331.157 249.923 331.124C249.923 331.091 249.915 331.059 249.9 331.029C249.69 330.819 247.8 329.029 246.83 329.229C246.718 329.248 246.612 329.297 246.526 329.371C246.44 329.445 246.375 329.541 246.34 329.649C246.261 329.807 246.225 329.982 246.236 330.157C246.246 330.333 246.303 330.503 246.4 330.649C246.754 331.022 247.237 331.244 247.75 331.269ZM249.36 330.999C247.97 330.999 246.99 330.839 246.7 330.429C246.641 330.333 246.609 330.222 246.609 330.109C246.609 329.996 246.641 329.886 246.7 329.789C246.716 329.736 246.745 329.687 246.786 329.649C246.826 329.61 246.876 329.583 246.93 329.569C247.4 329.469 248.58 330.269 249.4 331.009L249.36 330.999Z" fill="#2AB6C5"/>
<path d="M249.76 331.34H249.84C249.869 331.329 249.894 331.311 249.915 331.289C249.936 331.266 249.951 331.239 249.96 331.21C249.96 331.12 250.51 328.99 249.87 328.14C249.792 328.026 249.688 327.933 249.566 327.868C249.444 327.804 249.308 327.77 249.17 327.77C249.02 327.748 248.867 327.778 248.737 327.854C248.606 327.93 248.505 328.049 248.45 328.19C248.14 328.98 249 330.73 249.67 331.3C249.681 331.313 249.695 331.323 249.71 331.33C249.726 331.337 249.743 331.34 249.76 331.34ZM249.24 328.13C249.379 328.158 249.504 328.236 249.59 328.35C249.878 329.14 249.909 330 249.68 330.81C249.07 330.127 248.748 329.235 248.78 328.32C248.78 328.22 248.89 328.11 249.15 328.12L249.24 328.13Z" fill="#2AB6C5"/>
<path d="M227.07 337.8L220.13 334.68L224.93 317.56L231.87 320.68L227.07 337.8Z" fill="#7F3E3B"/>
<path opacity="0.2" d="M233.04 316.269L226.1 313.149L223.63 321.979L230.57 325.099L233.04 316.269Z" fill="black"/>
<path d="M287.8 224.649C287.47 224.649 231.6 230.399 231.53 249.349C231.41 280.689 222.46 316.609 222.46 316.609L233.46 322.079C233.46 322.079 252.69 283.139 252.4 258.709C267.77 254.299 307.53 261.709 312.23 248.969C316.08 238.549 314 224.649 314 224.649H287.8Z" fill="#2AB6C5"/>
<path d="M235.26 323.669L220.46 317.009L221.65 310.949L237.26 316.339L235.26 323.669Z" fill="#263238"/>
<path d="M220.82 328.929L229.26 330.679C229.418 330.732 229.553 330.84 229.639 330.983C229.725 331.126 229.757 331.295 229.73 331.459L229.07 340.209C228.95 341.159 228.27 341.809 227.54 341.659C224.62 340.989 223.24 340.469 219.54 339.659C217.26 339.199 211.05 337.659 207.92 336.869C204.79 336.079 205.49 332.069 206.92 332.039C213.11 331.949 217.12 330.939 219.5 329.209C219.689 329.074 219.903 328.979 220.131 328.931C220.358 328.883 220.592 328.882 220.82 328.929Z" fill="#263238"/>
<path d="M217.4 330.819C217.987 330.496 218.54 330.114 219.05 329.679C219.076 329.655 219.095 329.625 219.105 329.592C219.116 329.558 219.117 329.523 219.11 329.489C219.1 329.456 219.08 329.427 219.053 329.405C219.027 329.384 218.994 329.371 218.96 329.369C218.67 329.369 216.09 328.989 215.42 329.739C215.346 329.824 215.295 329.926 215.27 330.036C215.246 330.146 215.249 330.26 215.28 330.369C215.309 330.542 215.384 330.704 215.497 330.84C215.609 330.975 215.755 331.078 215.92 331.139C216.436 331.221 216.964 331.107 217.4 330.819ZM218.53 329.649C217.44 330.499 216.53 330.909 216.06 330.769C215.955 330.721 215.864 330.648 215.795 330.555C215.727 330.462 215.684 330.353 215.67 330.239C215.653 330.187 215.651 330.132 215.663 330.079C215.676 330.026 215.702 329.978 215.74 329.939C216.04 329.579 217.4 329.549 218.48 329.649H218.53Z" fill="#2AB6C5"/>
<path d="M219 329.679L219.07 329.629C219.087 329.604 219.096 329.574 219.096 329.544C219.096 329.513 219.087 329.484 219.07 329.459C219.02 329.389 218.19 327.339 217.18 327.029C217.049 326.988 216.911 326.977 216.776 326.998C216.64 327.018 216.512 327.07 216.4 327.149C216.265 327.221 216.16 327.336 216.1 327.476C216.04 327.616 216.029 327.772 216.07 327.919C216.28 328.749 218.01 329.639 218.9 329.699L219 329.679ZM216.67 327.399C216.736 327.37 216.807 327.355 216.88 327.355C216.952 327.355 217.024 327.37 217.09 327.399C217.794 327.864 218.333 328.539 218.63 329.329C217.731 329.142 216.939 328.615 216.42 327.859C216.36 327.779 216.42 327.619 216.6 327.479L216.67 327.399Z" fill="#2AB6C5"/>
<path d="M306.78 164.189C308.25 167.349 309.46 170.389 310.67 173.549C311.88 176.709 312.95 179.869 313.94 183.109C314.93 186.349 315.79 189.669 316.48 193.109C317.233 196.684 317.608 200.327 317.6 203.979C317.589 206.124 317.269 208.256 316.65 210.309C316.258 211.567 315.696 212.764 314.98 213.869C314.557 214.491 314.078 215.074 313.55 215.609L313.12 216.029C312.88 216.229 312.62 216.449 312.37 216.619C311.947 216.907 311.498 217.155 311.03 217.359C310.334 217.658 309.61 217.889 308.87 218.049C308.285 218.17 307.694 218.257 307.1 218.309C306.084 218.369 305.066 218.369 304.05 218.309C302.246 218.22 300.449 218.02 298.67 217.709C292.032 216.501 285.53 214.639 279.26 212.149L280.71 206.639C287.06 207.399 293.54 208.209 299.65 208.489C301.17 208.489 302.65 208.559 304.03 208.489C304.644 208.452 305.255 208.375 305.86 208.259C306.36 208.169 306.79 207.989 306.64 207.999C306.539 208.03 306.444 208.077 306.36 208.139C306.258 208.198 306.164 208.268 306.08 208.349C306.113 208.295 306.143 208.238 306.17 208.179C306.298 207.893 306.398 207.595 306.47 207.289C306.689 206.19 306.78 205.069 306.74 203.949C306.588 201.085 306.163 198.243 305.47 195.459C304.79 192.459 303.91 189.539 302.95 186.569C301.99 183.599 300.95 180.629 299.81 177.669C298.67 174.709 297.47 171.739 296.29 168.949L306.78 164.189Z" fill="#7F3E3B"/>
<path d="M283.47 208.139L276.84 204.409L273.51 211.589C273.51 211.589 281.26 214.819 282.89 212.799L283.47 208.139Z" fill="#7F3E3B"/>
<path d="M271.47 205.769L268.44 210.569L273.51 211.539L276.84 204.359L271.47 205.769Z" fill="#7F3E3B"/>
<path d="M291.32 169.889C290.05 173.079 288.72 176.129 287.32 179.219C285.92 182.309 284.52 185.349 283.04 188.389C280.06 194.579 276.721 200.589 273.04 206.389C272.04 207.869 271.04 209.339 269.92 210.809C269.36 211.549 268.74 212.279 268.08 213.029C267.72 213.409 267.43 213.759 267.01 214.149L266.41 214.729L266.07 215.049C265.118 215.863 263.998 216.457 262.79 216.789C262.153 216.97 261.505 217.107 260.85 217.199C259.782 217.327 258.705 217.371 257.63 217.329C255.773 217.271 253.922 217.088 252.09 216.779C245.31 215.581 238.669 213.698 232.27 211.159L233.73 205.639C240.2 206.419 246.81 207.249 253.03 207.509C254.497 207.564 255.965 207.544 257.43 207.449C258.019 207.401 258.604 207.307 259.18 207.169C259.366 207.122 259.547 207.055 259.72 206.969C259.78 206.969 259.72 206.899 259.45 207.069C259.35 207.121 259.258 207.189 259.18 207.269L259.28 207.149L259.56 206.839C259.74 206.659 259.96 206.359 260.17 206.119C260.58 205.599 261 205.039 261.42 204.429C262.25 203.239 263.06 201.919 263.86 200.579C265.46 197.899 266.95 195.049 268.41 192.169C269.87 189.289 271.27 186.349 272.65 183.389C275.4 177.489 278.09 171.389 280.65 165.489L291.32 169.889Z" fill="#7F3E3B"/>
<path d="M236.57 207.08L229.93 203.27L226.6 210.45C226.6 210.45 234.35 213.69 235.99 211.67L236.57 207.08Z" fill="#7F3E3B"/>
<path d="M224.57 204.719L221.53 209.509L226.6 210.479L229.93 203.299L224.57 204.719Z" fill="#7F3E3B"/>
<path d="M308.49 134.409L304.25 139.319L297.78 146.009L298.27 147.219C298.769 148.456 299.06 149.767 299.13 151.099C299.28 153.779 299.02 156.049 294.79 157.869C294.79 157.869 290.35 163.669 300.91 162.059C311.47 160.449 313.06 154.969 313.06 154.969C308.4 151.639 308.12 140.569 308.49 134.409Z" fill="#7F3E3B"/>
<path d="M286.96 128.87C286.96 129.53 286.63 130.09 286.19 130.11C285.75 130.13 285.4 129.61 285.39 128.95C285.38 128.29 285.73 127.73 286.16 127.71C286.59 127.69 286.95 128.21 286.96 128.87Z" fill="#263238"/>
<path d="M289.17 126.409C289.106 126.408 289.043 126.391 288.987 126.36C288.931 126.328 288.884 126.283 288.85 126.229C288.591 125.805 288.238 125.445 287.818 125.178C287.399 124.911 286.924 124.744 286.43 124.689C286.327 124.684 286.231 124.639 286.16 124.565C286.089 124.49 286.05 124.391 286.05 124.289C286.05 124.237 286.06 124.186 286.081 124.139C286.101 124.091 286.131 124.048 286.168 124.013C286.206 123.977 286.25 123.95 286.298 123.932C286.347 123.914 286.398 123.906 286.45 123.909C287.073 123.964 287.674 124.165 288.206 124.495C288.737 124.825 289.184 125.275 289.51 125.809C289.563 125.897 289.581 126.002 289.558 126.103C289.536 126.203 289.476 126.292 289.39 126.349C289.323 126.387 289.247 126.408 289.17 126.409Z" fill="#263238"/>
<path d="M286.72 129.27C286.181 131.07 285.408 132.791 284.42 134.39C284.831 134.621 285.287 134.759 285.758 134.794C286.228 134.828 286.7 134.759 287.14 134.59L286.72 129.27Z" fill="#630F0F"/>
<path d="M309.09 125.539C308.7 133.699 308.88 138.539 304.83 142.859C303.528 144.294 301.858 145.346 300.002 145.901C298.146 146.456 296.173 146.493 294.297 146.008C292.421 145.523 290.714 144.534 289.359 143.149C288.004 141.764 287.053 140.035 286.61 138.149C284.77 130.919 285.73 118.789 293.61 115.149C295.305 114.309 297.193 113.932 299.081 114.056C300.969 114.18 302.791 114.801 304.363 115.856C305.934 116.91 307.198 118.361 308.029 120.062C308.859 121.762 309.225 123.652 309.09 125.539Z" fill="#7F3E3B"/>
<path d="M312.79 128.269C311.612 131.73 309.817 134.949 307.49 137.769L296.87 139.769C296.87 139.769 288.48 136.259 290.72 130.479C289.3 129.279 289.83 125.569 290.83 123.529C291.635 124.19 292.651 124.539 293.693 124.511C294.734 124.484 295.731 124.082 296.5 123.379C296.821 123.882 297.255 124.304 297.766 124.612C298.278 124.921 298.853 125.107 299.449 125.156C300.044 125.205 300.642 125.117 301.197 124.897C301.753 124.677 302.25 124.332 302.65 123.889C303.105 124.329 303.656 124.658 304.259 124.85C304.863 125.042 305.502 125.091 306.128 124.994C306.754 124.897 307.349 124.657 307.866 124.292C308.384 123.926 308.809 123.446 309.11 122.889C309.762 123.297 310.527 123.489 311.295 123.439C312.063 123.389 312.796 123.098 313.39 122.609L313.54 122.469C313.684 124.433 313.428 126.406 312.79 128.269Z" fill="#263238"/>
<path opacity="0.1" d="M312.79 128.269C311.612 131.73 309.817 134.949 307.49 137.769L296.87 139.769C296.87 139.769 288.48 136.259 290.72 130.479C289.3 129.279 289.83 125.569 290.83 123.529C291.635 124.19 292.651 124.539 293.693 124.511C294.734 124.484 295.731 124.082 296.5 123.379C296.821 123.882 297.255 124.304 297.766 124.612C298.278 124.921 298.853 125.107 299.449 125.156C300.044 125.205 300.642 125.117 301.197 124.897C301.753 124.677 302.25 124.332 302.65 123.889C303.105 124.329 303.656 124.658 304.259 124.85C304.863 125.042 305.502 125.091 306.128 124.994C306.754 124.897 307.349 124.657 307.866 124.292C308.384 123.926 308.809 123.446 309.11 122.889C309.762 123.297 310.527 123.489 311.295 123.439C312.063 123.389 312.796 123.098 313.39 122.609L313.54 122.469C313.684 124.433 313.428 126.406 312.79 128.269Z" fill="white"/>
<path d="M314.32 118.369C314.608 119.045 314.688 119.792 314.549 120.513C314.41 121.235 314.059 121.898 313.54 122.419L313.39 122.559C312.796 123.049 312.063 123.339 311.295 123.389C310.527 123.44 309.763 123.247 309.11 122.839C308.809 123.396 308.384 123.877 307.867 124.242C307.349 124.607 306.754 124.848 306.129 124.945C305.503 125.042 304.863 124.992 304.259 124.8C303.656 124.609 303.105 124.279 302.65 123.839C302.25 124.282 301.753 124.627 301.198 124.847C300.642 125.067 300.044 125.156 299.449 125.106C298.854 125.057 298.278 124.871 297.766 124.563C297.255 124.254 296.822 123.832 296.5 123.329C295.731 124.032 294.734 124.434 293.693 124.462C292.652 124.489 291.635 124.14 290.83 123.479C290.405 123.149 290.062 122.725 289.83 122.239C289.775 122.133 289.728 122.023 289.69 121.909C289.604 122.007 289.511 122.097 289.41 122.179C288.911 122.578 288.301 122.812 287.663 122.849C287.026 122.887 286.392 122.726 285.85 122.389C285.421 122.091 285.077 121.686 284.853 121.214C284.628 120.742 284.531 120.22 284.57 119.699C284.581 119.482 284.618 119.267 284.68 119.059C284.601 119.21 284.5 119.348 284.38 119.469C284.142 119.699 283.86 119.879 283.551 120C283.242 120.12 282.912 120.177 282.581 120.169C282.25 120.161 281.924 120.086 281.621 119.951C281.319 119.815 281.047 119.621 280.82 119.379C280.589 119.03 280.432 118.638 280.358 118.227C280.283 117.815 280.293 117.393 280.386 116.985C280.48 116.577 280.655 116.193 280.902 115.855C281.148 115.517 281.46 115.233 281.82 115.019C282.39 114.687 283.04 114.514 283.7 114.519C284.739 114.534 285.746 114.885 286.57 115.519C286.252 114.889 286.167 114.166 286.33 113.479C286.492 112.793 286.891 112.185 287.457 111.763C288.023 111.341 288.72 111.133 289.425 111.174C290.129 111.216 290.797 111.504 291.31 111.989C291.199 111.479 291.243 110.947 291.437 110.462C291.632 109.977 291.967 109.561 292.4 109.269C293.78 108.469 296.08 109.159 297.2 110.499C297.2 110.499 298.74 106.779 301.4 107.199C301.98 107.279 304.71 108.489 304.64 109.469C304.655 109.532 304.655 109.597 304.64 109.659C304.677 109.582 304.721 109.509 304.77 109.439C305.064 109.042 305.452 108.724 305.898 108.513C306.345 108.302 306.837 108.204 307.33 108.229C308.399 108.308 309.443 108.586 310.41 109.049C312.48 109.899 314.68 110.849 315.88 112.739C317.08 114.629 316.47 117.769 314.32 118.369Z" fill="#263238"/>
<path d="M295.4 131.269C295.105 133.283 294.181 135.152 292.76 136.609C290.95 138.339 289.41 136.609 289.39 133.979C289.39 131.599 290.28 127.829 292.39 127.129C294.5 126.429 295.8 128.639 295.4 131.269Z" fill="#7F3E3B"/>
<path d="M327.4 157.809C326.65 155.809 323.15 153.809 321 153.809H319.58C316.715 153.834 313.854 154.017 311.01 154.359C305.294 154.991 299.618 155.946 294.01 157.219C291.43 157.899 288.94 158.759 286.96 159.499C284.44 160.499 282.96 161.169 282.96 161.169C282.96 161.169 285.72 179.549 287.15 197.809C287.94 207.979 287.61 218.069 287.87 225.009H330.53C332 216.669 331.77 209.399 331.89 194.339C331.95 185.269 330.48 166.039 327.4 157.809Z" fill="#263238"/>
<path opacity="0.2" d="M286.22 187.609C286.54 191.439 286.87 195.459 287.22 199.479C292.22 192.179 294.98 172.209 294.98 172.209L286.22 187.609Z" fill="black"/>
<path d="M280.54 162.509C274.43 165.949 268.44 183.509 268.44 183.509L282.44 194.059C287.78 189.009 295.59 176.479 296.44 171.469C297.8 163.829 290.33 157.029 280.54 162.509Z" fill="#263238"/>
<path d="M268.46 341.709C268.46 342.57 268.205 343.411 267.727 344.126C267.249 344.841 266.569 345.399 265.774 345.728C264.98 346.057 264.105 346.144 263.261 345.976C262.417 345.808 261.642 345.394 261.034 344.785C260.426 344.177 260.011 343.402 259.843 342.558C259.676 341.714 259.762 340.84 260.091 340.045C260.42 339.25 260.978 338.57 261.693 338.092C262.408 337.615 263.249 337.359 264.11 337.359C265.263 337.359 266.37 337.818 267.186 338.633C268.001 339.449 268.46 340.556 268.46 341.709Z" fill="#263238"/>
<path d="M333.4 341.709C333.4 342.57 333.655 343.411 334.133 344.126C334.611 344.841 335.29 345.399 336.085 345.728C336.88 346.057 337.755 346.144 338.599 345.976C339.442 345.808 340.217 345.394 340.826 344.785C341.434 344.177 341.848 343.402 342.016 342.558C342.184 341.714 342.098 340.84 341.769 340.045C341.44 339.25 340.882 338.57 340.167 338.092C339.451 337.615 338.61 337.359 337.75 337.359C336.596 337.359 335.49 337.818 334.674 338.633C333.858 339.449 333.4 340.556 333.4 341.709Z" fill="#263238"/>
<path d="M296.67 340.269C296.67 341.129 296.925 341.97 297.403 342.686C297.881 343.401 298.56 343.959 299.355 344.288C300.15 344.617 301.025 344.703 301.869 344.535C302.712 344.368 303.487 343.953 304.096 343.345C304.704 342.737 305.119 341.961 305.286 341.118C305.454 340.274 305.368 339.399 305.039 338.604C304.71 337.809 304.152 337.13 303.437 336.652C302.721 336.174 301.88 335.919 301.02 335.919C299.866 335.919 298.76 336.377 297.944 337.193C297.128 338.009 296.67 339.115 296.67 340.269Z" fill="#263238"/>
<path d="M299.67 334.949V326.539H287.21C284.764 326.536 282.323 326.764 279.92 327.219L256.72 331.719C256.199 331.821 255.736 332.114 255.422 332.542C255.109 332.969 254.967 333.499 255.027 334.026C255.086 334.553 255.341 335.038 255.742 335.385C256.143 335.732 256.66 335.916 257.19 335.899L299.67 334.949Z" fill="#263238"/>
<path d="M299.67 334.949V326.539H312.14C314.578 326.553 317.008 326.798 319.4 327.269L345.48 331.429C346 331.53 346.464 331.824 346.777 332.252C347.091 332.679 347.232 333.209 347.173 333.736C347.114 334.263 346.858 334.748 346.458 335.095C346.057 335.442 345.54 335.626 345.01 335.609L299.67 334.949Z" fill="#263238"/>
<path d="M307.38 288.039H291.95V326.549H307.38V288.039Z" fill="#263238"/>
<path d="M305.17 270.119H294.17V288.029H305.17V270.119Z" fill="#263238"/>
<path opacity="0.5" d="M294.17 275.379L305.17 278.149V270.119H294.17V275.379Z" fill="black"/>
<path d="M264.11 229.599H258.52V253.449H264.11V229.599Z" fill="#263238"/>
<path d="M292.14 270.119V166.429C292.139 164.489 292.553 162.571 293.355 160.805C294.157 159.038 295.328 157.464 296.79 156.189L304.18 149.719C306.669 147.536 309.869 146.337 313.18 146.349H339.87L352.89 160.269V270.119H292.14Z" fill="#2AB6C5"/>
<path d="M252.4 250.059H313.3V270.119H242.47C241.2 270.117 239.953 269.779 238.855 269.14C237.758 268.501 236.848 267.584 236.219 266.481C235.59 265.378 235.263 264.128 235.272 262.858C235.281 261.588 235.625 260.343 236.27 259.249C237.926 256.445 240.285 254.123 243.114 252.511C245.943 250.899 249.144 250.054 252.4 250.059Z" fill="#2AB6C5"/>
<path opacity="0.7" d="M352.89 160.269V270.119H242.47C241.2 270.117 239.953 269.779 238.855 269.14C237.758 268.501 236.848 267.584 236.219 266.481C235.59 265.378 235.263 264.128 235.272 262.858C235.281 261.588 235.625 260.343 236.27 259.249C237.926 256.446 240.286 254.124 243.115 252.512C245.943 250.9 249.144 250.055 252.4 250.059H283.07C285.486 250.059 287.803 249.099 289.512 247.39C291.22 245.682 292.18 243.365 292.18 240.949V166.429C292.178 164.489 292.593 162.571 293.395 160.805C294.197 159.038 295.368 157.464 296.83 156.189L304.22 149.719C306.709 147.536 309.909 146.337 313.22 146.349H339.91L352.89 160.269Z" fill="white"/>
<path d="M301.02 270.119V166.429C301.021 164.489 301.437 162.572 302.239 160.806C303.04 159.04 304.21 157.466 305.67 156.189L313.06 149.719C315.549 147.536 318.749 146.337 322.06 146.349H342.87C344.729 146.347 346.568 146.727 348.275 147.465C349.981 148.203 351.518 149.283 352.79 150.639L358.11 156.289C360.48 158.817 361.8 162.153 361.8 165.619V259.729C361.801 261.094 361.533 262.447 361.011 263.709C360.488 264.97 359.722 266.117 358.756 267.082C357.79 268.047 356.643 268.812 355.38 269.333C354.118 269.854 352.765 270.121 351.4 270.119H301.02Z" fill="#2AB6C5"/>
<path opacity="0.5" d="M301.02 270.119V166.429C301.021 164.489 301.437 162.572 302.239 160.806C303.04 159.04 304.21 157.466 305.67 156.189L313.06 149.719C315.549 147.536 318.749 146.337 322.06 146.349H342.87C344.729 146.347 346.568 146.727 348.275 147.465C349.981 148.203 351.518 149.283 352.79 150.639L358.11 156.289C360.48 158.817 361.8 162.153 361.8 165.619V259.729C361.801 261.094 361.533 262.447 361.011 263.709C360.488 264.97 359.722 266.117 358.756 267.082C357.79 268.047 356.643 268.812 355.38 269.333C354.118 269.854 352.765 270.121 351.4 270.119H301.02Z" fill="white"/>
<path d="M280.3 236.88C267.998 232.579 254.602 232.579 242.3 236.88C241.065 237.34 239.705 237.336 238.474 236.866C237.243 236.397 236.224 235.495 235.61 234.33C234.47 231.92 236 228.8 239.1 227.71C253.467 222.689 269.113 222.689 283.48 227.71C286.58 228.79 288.11 231.92 286.97 234.33C286.356 235.491 285.341 236.389 284.114 236.858C282.887 237.327 281.532 237.335 280.3 236.88Z" fill="#2AB6C5"/>
<path opacity="0.7" d="M280.3 236.88C267.998 232.579 254.602 232.579 242.3 236.88C241.065 237.34 239.705 237.336 238.474 236.866C237.243 236.397 236.224 235.495 235.61 234.33C234.47 231.92 236 228.8 239.1 227.71C253.467 222.689 269.113 222.689 283.48 227.71C286.58 228.79 288.11 231.92 286.97 234.33C286.356 235.491 285.341 236.389 284.114 236.858C282.887 237.327 281.532 237.335 280.3 236.88Z" fill="white"/>
<path d="M124.89 137.66C124.68 138.25 124.83 138.84 125.22 138.97C125.61 139.1 126.09 138.74 126.29 138.15C126.49 137.56 126.35 136.96 125.97 136.83C125.59 136.7 125.1 137.06 124.89 137.66Z" fill="#263238"/>
<path d="M124.78 138.27C124.861 140.329 125.221 142.367 125.85 144.33C125.346 144.472 124.817 144.505 124.3 144.425C123.782 144.346 123.288 144.156 122.85 143.87L124.78 138.27Z" fill="#A02724"/>
<path d="M123.93 133.64C123.966 133.655 124.005 133.663 124.045 133.663C124.084 133.663 124.123 133.655 124.16 133.64C124.6 133.5 125.066 133.463 125.522 133.533C125.978 133.602 126.412 133.776 126.79 134.04C126.829 134.069 126.874 134.09 126.921 134.102C126.969 134.114 127.018 134.116 127.067 134.109C127.115 134.101 127.161 134.084 127.203 134.059C127.245 134.033 127.281 134 127.31 133.96C127.365 133.892 127.395 133.808 127.395 133.72C127.395 133.633 127.365 133.548 127.31 133.48C126.84 133.131 126.294 132.899 125.716 132.803C125.139 132.708 124.547 132.751 123.99 132.93C123.899 132.964 123.824 133.032 123.781 133.119C123.738 133.207 123.731 133.307 123.76 133.4C123.777 133.454 123.806 133.503 123.847 133.543C123.887 133.584 123.936 133.613 123.99 133.63L123.93 133.64Z" fill="#263238"/>
<path d="M102.96 139.84C104.08 145.53 105.19 155.96 101.21 159.76C101.21 159.76 102.77 165.53 113.35 165.53C124.98 165.53 118.91 159.76 118.91 159.76C112.56 158.24 113.58 153.53 114.69 149.11L102.96 139.84Z" fill="#B55B52"/>
<path d="M105.55 129.519C103.47 136.959 101.87 141.209 104.25 146.219C107.82 153.769 120.3 154.749 123.7 146.109C126.29 138.109 128.85 129.739 122.7 124.369C121.355 123.179 119.729 122.351 117.975 121.965C116.22 121.578 114.397 121.646 112.676 122.162C110.956 122.678 109.395 123.624 108.143 124.912C106.891 126.199 105.988 127.785 105.52 129.519H105.55Z" fill="#B55B52"/>
<path d="M97.4898 132C96.9498 129.26 96.8098 126.26 98.1798 123.82C99.5498 121.38 102.86 119.89 105.27 121.31C106.053 119.66 107.211 118.217 108.652 117.095C110.093 115.974 111.776 115.205 113.568 114.851C115.359 114.496 117.208 114.566 118.968 115.054C120.727 115.542 122.348 116.436 123.7 117.662C125.053 118.889 126.099 120.416 126.756 122.119C127.413 123.823 127.662 125.657 127.483 127.474C127.304 129.291 126.702 131.041 125.726 132.584C124.749 134.127 123.425 135.42 121.86 136.36C122.41 134.31 122.97 132.27 123.52 130.22C123.029 133.074 121.514 135.652 119.26 137.47L120.26 131.34C120.103 132.787 119.611 134.177 118.822 135.401C118.034 136.625 116.972 137.648 115.72 138.39L116.89 134.1C116.297 136.073 115.541 137.993 114.63 139.84C113.63 140.99 112.99 148.51 109.55 148.75C97.7298 151.1 98.7498 138.4 97.4898 132Z" fill="#263238"/>
<path d="M113.4 135.559C113.2 137.467 113.629 139.388 114.62 141.029C115.95 143.169 117.9 142.349 118.62 140.159C119.26 138.159 119.33 134.709 117.48 133.319C115.63 131.929 113.68 133.269 113.4 135.559Z" fill="#B55B52"/>
<path d="M85.2099 207.64C83.9399 207.22 77.9899 204.16 77.0399 204.71C79.7899 197.71 81.4999 196.62 82.7499 192.16C83.0979 191.053 83.1584 189.875 82.9257 188.738C82.693 187.601 82.1748 186.542 81.4199 185.66C79.6599 183.3 79.0499 182.11 76.1299 182.4C72.1299 189.12 67.0399 197.4 65.0599 204.99C64.3899 207.54 63.9099 209.48 65.4299 211.64C66.7699 213.54 69.2399 214.3 71.5599 214.51C77.1299 215.01 85.3999 213.99 85.2899 210.68C85.2299 208.59 85.2099 207.64 85.2099 207.64Z" fill="#B55B52"/>
<path d="M84.2698 207.39L88.9898 205.86L88.5698 214.39C88.5698 214.39 84.7898 214.52 82.7698 211.99L84.2698 207.39Z" fill="#B55B52"/>
<path d="M94.8898 205.72L94.2198 212.76L88.5698 214.39L88.9898 205.86L94.8898 205.72Z" fill="#B55B52"/>
<path d="M149.01 213.45C149.01 213.45 142.4 208.27 133.78 191.27C132.5 188.89 131.28 186.48 130.1 184.06C128.92 181.64 127.8 179.22 126.72 176.65L136.94 172.25C139.04 176.83 142.32 181.56 144.64 186.11C146.96 190.66 152.43 201.44 153.12 202.44C153.46 202.96 153.83 203.39 154.18 203.87L154.71 204.57L148.12 212.19L149.01 213.45Z" fill="#B55B52"/>
<path d="M157.66 180.27L155.66 177.83L154.72 174.18L160.89 168.45C161.834 169.65 162.673 170.928 163.4 172.27C163.559 172.579 163.635 172.923 163.62 173.27L163.37 179.7L157.66 180.27Z" fill="#B55B52"/>
<path d="M154.76 170.24L159.37 166.05L160.83 168.5L154.67 174.2L154.76 170.24Z" fill="#B55B52"/>
<path d="M157.75 178.51C157.91 177.82 158.05 179.169 158.51 178.629C159.87 176.989 161.85 176.819 163.03 178.629C164.21 180.439 163.2 198.25 161.32 203.84C160.07 207.55 159.4 210.509 156.2 212.769C154.906 213.767 153.332 214.334 151.7 214.389C150.887 214.399 150.088 214.177 149.397 213.748C148.706 213.319 148.152 212.702 147.8 211.97C146.8 209.64 150.38 201.24 151.64 198.53C155.59 190 155.86 186.57 157.75 178.51Z" fill="#B55B52"/>
<path d="M144.52 177.74L152.69 177.66C153.856 177.735 155.024 177.55 156.11 177.12C157.441 176.343 158.435 175.099 158.9 173.63C160.06 170.63 160.16 167.41 160.61 164.27C161.06 161.13 162.02 157.83 164.4 155.72C160.06 156.3 152.4 154.94 149.05 158.49C147.29 160.38 144.18 177.74 144.52 177.74Z" fill="#2AB6C5"/>
<path opacity="0.5" d="M144.52 177.74L152.69 177.66C153.856 177.735 155.024 177.55 156.11 177.12C157.441 176.343 158.435 175.099 158.9 173.63C160.06 170.63 160.16 167.41 160.61 164.27C161.06 161.13 162.02 157.83 164.4 155.72C160.06 156.3 152.4 154.94 149.05 158.49C147.29 160.38 144.18 177.74 144.52 177.74Z" fill="white"/>
<path d="M158.5 165.6C158.03 165.73 157.72 167.4 157.82 167.88L158.28 168.7L159.21 172.7L162.33 170.98L159.52 165.98C159.412 165.817 159.255 165.692 159.072 165.623C158.889 165.555 158.688 165.547 158.5 165.6Z" fill="#B55B52"/>
<path d="M88.0299 161.19C80.7299 162.86 69.9299 185.61 69.9299 185.61L84.5799 195.61C88.799 189.59 92.6076 183.292 95.9799 176.76C100.31 167.7 95.4899 159.48 88.0299 161.19Z" fill="#2AB6C5"/>
<path d="M98.6898 161.74C97.8498 159.91 96.9398 157.82 98.8298 157.17C100.92 156.45 112.36 155.71 116.3 157.06C116.816 157.2 117.299 157.44 117.722 157.768C118.145 158.095 118.499 158.503 118.764 158.967C119.029 159.432 119.199 159.944 119.265 160.475C119.331 161.006 119.292 161.544 119.15 162.06V162.13L98.6898 161.74Z" fill="#263238"/>
<path opacity="0.2" d="M92.5399 174.33L82.1299 193.93L84.5799 195.61C84.5799 195.61 89.2999 189.04 92.5799 183.36L92.5399 174.33Z" fill="black"/>
<path d="M132.4 171.2C133.98 179.2 130.29 198.2 130.33 229.2H88.7098C88.4398 222.94 92.9998 208.1 87.3298 178.54C87.1498 177.54 87.0698 161.39 88.0298 161.22C92.0601 160.516 96.1263 160.035 100.21 159.78C106.105 159.44 112.015 159.44 117.91 159.78C120.32 160.03 124.11 161.52 126.51 162.38C130.24 163.7 131.64 167.27 132.4 171.2Z" fill="#2AB6C5"/>
<path opacity="0.2" d="M121.4 179.15C122.48 185.72 126.79 194.4 131.08 199.5C131.25 195.77 131.63 191.87 131.62 188.88L121.4 179.15Z" fill="black"/>
<path d="M118.4 169.27C117.4 176.64 131.9 195.45 131.9 195.45L146.49 185.45C146.49 185.45 142.44 175.08 135.63 168.28C127.9 160.5 119.57 161.27 118.4 169.27Z" fill="#2AB6C5"/>
<path d="M166.12 332.4H173.9L175.67 314.37H167.89L166.12 332.4Z" fill="#B55B52"/>
<path opacity="0.2" d="M175.55 315.46L174.65 324.75H166.86L167.77 315.46H175.55Z" fill="black"/>
<path d="M135.43 332.4H143.21L147.12 314.37H139.34L135.43 332.4Z" fill="#B55B52"/>
<g opacity="0.2">
<path d="M139.17 315.33H146.95L144.93 324.62H137.15L139.17 315.33Z" fill="black"/>
</g>
<path d="M174.34 328.9H165.85C165.674 328.921 165.511 329.002 165.389 329.13C165.267 329.258 165.193 329.424 165.18 329.6L163.64 338.5C163.551 338.846 163.587 339.211 163.741 339.533C163.894 339.855 164.156 340.112 164.48 340.26C164.573 340.275 164.667 340.275 164.76 340.26C167.82 340.2 172.25 339.96 176.1 339.96C180.61 339.96 184.5 340.27 189.78 340.27C192.98 340.27 193.87 336.09 192.53 335.72C186.44 334 181.47 333.82 176.21 329.61C175.686 329.167 175.026 328.916 174.34 328.9Z" fill="#263238"/>
<path d="M180.52 331.79C181.52 331.79 182.52 331.65 182.81 331.2C182.892 331.081 182.937 330.939 182.937 330.795C182.937 330.65 182.892 330.508 182.81 330.39C182.677 330.179 182.47 330.026 182.23 329.96C180.93 329.61 178.23 331.16 178.1 331.23C178.066 331.247 178.038 331.275 178.022 331.309C178.006 331.343 178.001 331.382 178.01 331.42C178.015 331.456 178.031 331.49 178.056 331.516C178.081 331.543 178.114 331.562 178.15 331.57C178.931 331.718 179.725 331.791 180.52 331.79ZM181.76 330.28H182.11C182.185 330.295 182.256 330.326 182.318 330.371C182.38 330.416 182.432 330.473 182.47 330.54C182.6 330.77 182.56 330.88 182.47 330.94C182.11 331.45 180.14 331.46 178.69 331.25C179.644 330.736 180.685 330.403 181.76 330.27V330.28Z" fill="#2AB6C5"/>
<path d="M178.17 331.57H178.25C179.19 331.15 181.05 329.47 180.9 328.57C180.9 328.36 180.72 328.11 180.22 328.05C179.858 328.023 179.499 328.137 179.22 328.37C178.22 329.18 178.02 331.28 178.01 331.37C178.005 331.402 178.009 331.434 178.022 331.464C178.034 331.494 178.054 331.52 178.08 331.54C178.106 331.559 178.138 331.569 178.17 331.57ZM180.07 328.42H180.18C180.51 328.42 180.53 328.59 180.54 328.63C180.63 329.16 179.36 330.48 178.4 331.05C178.482 330.17 178.831 329.336 179.4 328.66C179.591 328.508 179.826 328.423 180.07 328.42Z" fill="#2AB6C5"/>
<path d="M143.76 328.9H135.02C134.845 328.921 134.683 329.002 134.563 329.13C134.442 329.258 134.37 329.424 134.36 329.6L132.82 338.5C132.736 338.852 132.78 339.223 132.942 339.547C133.105 339.871 133.377 340.127 133.71 340.27C133.793 340.28 133.877 340.28 133.96 340.27C137.01 340.21 138.5 339.97 142.34 339.97C144.71 339.97 147.74 340.28 151.01 340.28C154.28 340.28 154.7 336.1 153.36 335.73C147.36 334.03 146.95 331.73 145.03 329.45C144.871 329.272 144.675 329.13 144.455 329.035C144.236 328.94 143.999 328.894 143.76 328.9Z" fill="#263238"/>
<path d="M148.33 332.78C148.66 332.825 148.996 332.803 149.317 332.716C149.638 332.628 149.939 332.476 150.2 332.27C150.292 332.143 150.341 331.991 150.341 331.835C150.341 331.678 150.292 331.526 150.2 331.4C150.141 331.29 150.058 331.194 149.958 331.12C149.858 331.046 149.742 330.994 149.62 330.97C148.48 330.7 146.33 332.17 146.24 332.23C146.211 332.252 146.189 332.281 146.175 332.314C146.161 332.347 146.156 332.384 146.16 332.42C146.166 332.455 146.182 332.487 146.207 332.512C146.232 332.537 146.265 332.554 146.3 332.56C146.966 332.707 147.647 332.781 148.33 332.78ZM149.33 331.3H149.55C149.62 331.313 149.687 331.341 149.746 331.383C149.805 331.424 149.854 331.478 149.89 331.54C150.06 331.85 149.96 331.97 149.89 332.02C149.56 332.45 147.97 332.46 146.8 332.27C147.552 331.753 148.409 331.412 149.31 331.27L149.33 331.3Z" fill="#2AB6C5"/>
<path d="M146.4 332.57C147.21 332.13 148.77 330.43 148.6 329.57C148.574 329.432 148.501 329.308 148.393 329.219C148.286 329.129 148.15 329.08 148.01 329.08C147.87 329.067 147.73 329.081 147.596 329.122C147.462 329.163 147.338 329.231 147.23 329.32C146.33 330.06 146.14 332.32 146.13 332.4C146.128 332.434 146.136 332.467 146.152 332.497C146.168 332.527 146.191 332.552 146.22 332.57H146.4ZM147.97 329.42H148.05C148.29 329.42 148.31 329.56 148.32 329.61C148.42 330.12 147.42 331.41 146.62 332.02C146.682 331.134 147.002 330.286 147.54 329.58C147.66 329.478 147.812 329.421 147.97 329.42Z" fill="#2AB6C5"/>
<path d="M117.86 229.18C117.86 229.18 154.71 244.4 162.33 256.09C157.8 285.83 149.67 319.71 149.67 319.71H135.81C135.832 305.05 137.032 290.417 139.4 275.95C141.4 239.6 75.9799 277.21 88.6899 229.18H117.86Z" fill="#263238"/>
<path opacity="0.3" d="M143.34 254.27C140.759 254.422 138.188 254.719 135.64 255.16L127.57 256.4C131.733 259.897 136.126 263.111 140.72 266.02C143.51 267.79 146.55 269.49 149.84 269.5C153.54 269.5 163.58 264.76 161.92 259.83C160.26 254.9 147.54 254.09 143.34 254.27Z" fill="black"/>
<path d="M130.34 229.18C130.34 229.18 164.4 233.58 183.18 244.27C188.96 247.56 188.18 258.13 188 265.09C187.597 283.767 184.012 302.238 177.4 319.71H165.82C165.82 319.71 166.41 300.84 166.02 270.39C165.9 261.26 147.47 258.25 129.46 257.19C121.833 256.71 114.492 254.109 108.265 249.679C102.039 245.249 97.1738 239.167 94.2198 232.12L92.9897 229.18H130.34Z" fill="#263238"/>
<path d="M180.21 316.61C180.27 316.61 179.46 322.08 179.46 322.08H163.46L163.02 317.2L180.21 316.61Z" fill="#2AB6C5"/>
<path d="M151.01 316.61C151.07 316.61 149.54 322.08 149.54 322.08H133.54L133.83 317.2L151.01 316.61Z" fill="#2AB6C5"/>
<path d="M108.02 256.78L96.55 341.29L94.48 341L103.33 256.14L108.02 256.78Z" fill="#2AB6C5"/>
<path opacity="0.4" d="M107.61 259.81L96.55 341.29L94.48 341L102.95 259.79L107.61 259.81Z" fill="black"/>
<path d="M148.34 259.8H83.3398C83.3398 258.825 83.5318 257.861 83.9047 256.96C84.2775 256.06 84.8241 255.242 85.5131 254.553C86.2021 253.864 87.0201 253.318 87.9203 252.945C88.8206 252.572 89.7854 252.38 90.7598 252.38H140.92C141.894 252.38 142.859 252.572 143.759 252.945C144.66 253.318 145.478 253.864 146.167 254.553C146.856 255.242 147.402 256.06 147.775 256.96C148.148 257.861 148.34 258.825 148.34 259.8Z" fill="#2AB6C5"/>
<path opacity="0.7" d="M148.34 259.8H83.3398C83.3398 258.825 83.5318 257.861 83.9047 256.96C84.2775 256.06 84.8241 255.242 85.5131 254.553C86.2021 253.864 87.0201 253.318 87.9203 252.945C88.8206 252.572 89.7854 252.38 90.7598 252.38H140.92C141.894 252.38 142.859 252.572 143.759 252.945C144.66 253.318 145.478 253.864 146.167 254.553C146.856 255.242 147.402 256.06 147.775 256.96C148.148 257.861 148.34 258.825 148.34 259.8Z" fill="white"/>
<path d="M86.3498 259.79L76.5498 341.96H78.6498L91.0798 259.79H86.3498Z" fill="#2AB6C5"/>
<path d="M145.33 259.79L155.13 341.96H153.03L140.61 259.79H145.33Z" fill="#2AB6C5"/>
<path opacity="0.4" d="M145.33 259.79L155.13 341.96H153.03L140.61 259.79H145.33Z" fill="black"/>
<path d="M132.22 259.79L132.41 341.96H130.32L127.49 259.79H132.22Z" fill="#2AB6C5"/>
</svg>
