<svg width="445" height="447" viewBox="0 0 445 447" fill="none" xmlns="http://www.w3.org/2000/svg">
<path d="M108.81 102.481C99.7237 102.481 91.0096 98.8714 84.5846 92.4464C78.1596 86.0214 74.55 77.3073 74.55 68.2209C74.55 59.1346 78.1596 50.4205 84.5846 43.9955C91.0096 37.5705 99.7237 33.9609 108.81 33.9609C117.896 33.9609 126.611 37.5705 133.036 43.9955C139.461 50.4205 143.07 59.1346 143.07 68.2209C143.07 77.3073 139.461 86.0214 133.036 92.4464C126.611 98.8714 117.896 102.481 108.81 102.481Z" fill="#EBEBEB"/>
<path d="M100.36 60.5898H93.27V83.4998H100.36V60.5898Z" fill="white"/>
<path d="M96.78 57.5907C97.6183 57.5986 98.44 57.3573 99.1408 56.8973C99.8417 56.4374 100.39 55.7795 100.716 55.0073C101.043 54.2351 101.132 53.3834 100.974 52.5602C100.815 51.7371 100.415 50.9796 99.8252 50.384C99.2353 49.7885 98.4817 49.3816 97.66 49.2151C96.8384 49.0486 95.9859 49.13 95.2106 49.449C94.4353 49.7679 93.7723 50.31 93.3057 51.0065C92.8391 51.703 92.59 52.5224 92.59 53.3607C92.5873 54.4764 93.0266 55.5479 93.8118 56.3406C94.5971 57.1333 95.6642 57.5827 96.78 57.5907Z" fill="white"/>
<path d="M111.7 71.4693C111.7 68.2493 113.18 66.3293 116.02 66.3293C118.62 66.3293 119.88 68.1693 119.88 71.4693V83.4693H126.93V68.9893C126.93 62.8493 123.46 59.8893 118.6 59.8893C117.222 59.8716 115.862 60.2102 114.653 60.8725C113.444 61.5348 112.427 62.4982 111.7 63.6693V60.5893H104.89V83.4893H111.7V71.4693Z" fill="white"/>
<path d="M154.72 0L159.41 8.57L167.99 13.27L159.41 17.96L154.72 26.53L150.03 17.96L141.45 13.27L150.03 8.57L154.72 0Z" fill="#F5F5F5"/>
<path d="M350.37 232.381L353.89 238.821L360.32 242.331L353.89 245.851L350.37 252.291L346.85 245.851L340.42 242.331L346.85 238.821L350.37 232.381Z" fill="#EBEBEB"/>
<path d="M360.32 200.619L361.91 203.519L364.81 205.109L361.91 206.699L360.32 209.599L358.74 206.699L355.83 205.109L358.74 203.519L360.32 200.619Z" fill="#E0E0E0"/>
<path d="M121.21 3.2207L122.8 6.1307L125.7 7.7107L122.8 9.3007L121.21 12.2007L119.63 9.3007L116.72 7.7107L119.63 6.1307L121.21 3.2207Z" fill="#E0E0E0"/>
<path d="M71.63 272.871C73.4751 272.025 75.0323 270.658 76.1093 268.938C77.1862 267.218 77.7357 265.22 77.69 263.191C77.69 257.461 73.24 252.861 67.87 252.901C62.5 252.941 58.19 257.631 58.24 263.361C58.2255 265.407 58.8183 267.411 59.9433 269.12C61.0683 270.829 62.675 272.165 64.56 272.961C49.62 275.411 50.5 291.671 50.5 291.671L85.89 291.371C85.89 291.371 86.5 274.921 71.63 272.871Z" fill="#E0E0E0"/>
<path d="M381.14 380.05C380.891 378.768 380.193 377.615 379.173 376.799C378.152 375.983 376.875 375.556 375.569 375.594C374.263 375.633 373.013 376.134 372.042 377.009C371.071 377.884 370.443 379.075 370.27 380.37C370.088 379.077 369.453 377.891 368.478 377.022C367.503 376.153 366.251 375.66 364.945 375.628C363.64 375.597 362.365 376.031 361.35 376.852C360.334 377.672 359.643 378.827 359.4 380.11C359.138 382.006 359.618 383.93 360.74 385.48C361.85 387.009 363.155 388.387 364.62 389.58C366.62 391.35 368.43 393 370.41 394.76C372.41 392.98 374.04 391.31 376 389.53C377.459 388.325 378.754 386.933 379.85 385.39C380.944 383.84 381.406 381.93 381.14 380.05Z" fill="#EBEBEB"/>
<path d="M404.19 169.26L407.98 168.51L413.98 155.33L412.48 147.76C412.48 147.76 418.27 146.24 419.55 156.29C420.83 166.34 421.07 163.67 421.07 163.67C421.07 163.67 433.52 161.25 434.77 162.12C435.68 162.76 438.47 175.06 439.93 181.74C440.334 183.341 440.19 185.031 439.521 186.541C438.852 188.051 437.697 189.293 436.24 190.07C435.825 190.274 435.384 190.422 434.93 190.51C431.83 191.13 415.47 191.75 415.47 191.75L408.92 193.05L404.19 169.26Z" fill="#E0E0E0"/>
<path d="M392.92 169.329L400.39 194.809L406.89 193.519L401.85 168.109L392.92 169.329Z" fill="#E0E0E0"/>
<path d="M442.97 445.43C442.97 445.58 343.8 445.69 221.5 445.69C99.2 445.69 0 445.58 0 445.43C0 445.28 99.15 445.17 221.5 445.17C343.85 445.17 442.97 445.29 442.97 445.43Z" fill="#263238"/>
<path d="M365.93 159.26C356.238 163.971 345.073 164.64 334.889 161.12C324.704 157.6 316.334 150.18 311.62 140.49C306.909 130.799 306.24 119.634 309.76 109.449C313.28 99.2646 320.7 90.8949 330.39 86.1803C335.188 83.8465 340.399 82.4807 345.726 82.1609C351.052 81.8411 356.389 82.5737 361.433 84.3166C366.476 86.0596 371.126 88.7789 375.118 92.3193C379.111 95.8596 382.366 100.152 384.7 104.95C387.034 109.749 388.399 114.96 388.719 120.286C389.039 125.613 388.307 130.95 386.564 135.993C384.821 141.036 382.101 145.687 378.561 149.679C375.021 153.671 370.729 156.927 365.93 159.26Z" fill="#2AB6C5"/>
<path d="M338.12 131.801C338.269 131.797 338.415 131.76 338.548 131.693C338.681 131.626 338.797 131.53 338.888 131.412C338.979 131.294 339.043 131.157 339.074 131.012C339.106 130.866 339.104 130.715 339.07 130.571C338.97 130.081 338.7 128.841 338.6 128.331C338.46 127.621 338.29 127.431 337.6 127.111C335.808 126.287 334.383 124.83 333.6 123.021C330.54 116.721 332.51 108.791 340.07 105.121C346.76 101.861 352.43 104.121 355.07 109.621C358.56 116.811 358.33 124.421 353.61 126.721C353.021 127.044 352.365 127.226 351.694 127.25C351.023 127.274 350.355 127.14 349.745 126.858C349.135 126.577 348.6 126.157 348.182 125.631C347.764 125.105 347.476 124.488 347.34 123.831C346.56 120.311 346.34 116.201 345.24 113.921C344.24 111.921 342.32 110.711 340.06 111.811C337.39 113.111 336.59 116.911 338.39 120.601C339.032 121.965 339.955 123.179 341.1 124.161C341.1 124.161 344 137.041 344.5 139.301C345.5 143.791 348.72 148.301 349.03 148.811C349.074 148.867 349.134 148.91 349.201 148.934C349.269 148.959 349.342 148.963 349.412 148.947C349.482 148.932 349.547 148.896 349.598 148.846C349.648 148.795 349.684 148.731 349.7 148.661C349.79 148.221 351.06 142.761 350.23 138.321C350 137.061 348.65 130.611 348.65 130.611C350.32 131.841 353.56 132.071 356.25 130.761C364.25 126.861 366.15 116.911 361.39 107.131C357.8 99.7405 348.18 95.9005 338.67 100.531C326.82 106.291 324.98 117.681 328.42 124.761C330.5 129.051 333.95 132.111 338.12 131.801Z" fill="white"/>
<path d="M406.5 273.871C403.061 272.559 399.914 270.583 397.239 268.054C394.565 265.525 392.415 262.494 390.913 259.134C389.412 255.773 388.587 252.15 388.487 248.47C388.387 244.791 389.013 241.128 390.33 237.691C391.64 234.252 393.616 231.105 396.144 228.431C398.671 225.756 401.701 223.606 405.061 222.103C408.42 220.6 412.043 219.774 415.721 219.673C419.4 219.571 423.063 220.196 426.5 221.511C429.939 222.822 433.086 224.799 435.76 227.328C438.435 229.857 440.585 232.888 442.086 236.248C443.588 239.609 444.413 243.232 444.513 246.911C444.613 250.591 443.987 254.254 442.67 257.691C441.359 261.13 439.384 264.276 436.856 266.951C434.328 269.626 431.298 271.776 427.939 273.279C424.58 274.782 420.957 275.607 417.278 275.709C413.6 275.811 409.937 275.186 406.5 273.871Z" fill="#2AB6C5"/>
<path fill-rule="evenodd" clip-rule="evenodd" d="M431.14 252.451C432.39 248.775 432.174 244.759 430.539 241.238C428.903 237.716 425.974 234.961 422.359 233.544C418.744 232.128 414.722 232.159 411.13 233.631C407.537 235.104 404.65 237.905 403.07 241.451C402.98 241.651 402.9 241.861 402.82 242.061C401.841 244.609 401.585 247.377 402.08 250.061L396.67 256.591L405.43 257.091C407.118 259.087 409.296 260.611 411.751 261.512C414.205 262.413 416.852 262.661 419.431 262.232C422.01 261.802 424.433 260.71 426.463 259.062C428.493 257.414 430.06 255.267 431.01 252.831C431.06 252.707 431.104 252.58 431.14 252.451ZM412.42 259.181C410.102 258.301 408.094 256.756 406.65 254.741L401.54 254.451L404.69 250.651C403.984 248.091 404.113 245.372 405.06 242.891C405.21 242.511 405.38 242.131 405.56 241.771C406.985 238.949 409.411 236.76 412.365 235.634C415.318 234.507 418.586 234.523 421.528 235.679C424.471 236.835 426.876 239.047 428.272 241.883C429.669 244.719 429.957 247.974 429.08 251.011C428.99 251.331 428.89 251.641 428.77 251.951C427.559 255.076 425.156 257.593 422.091 258.949C419.025 260.304 415.547 260.388 412.42 259.181Z" fill="white"/>
<path fill-rule="evenodd" clip-rule="evenodd" d="M422.3 252.711C422.01 252.411 420.64 250.931 420.36 250.711C420.08 250.491 419.88 250.331 419.52 250.591C419.16 250.851 418.19 251.361 417.91 251.511C417.63 251.661 417.41 251.611 417.13 251.311C416.264 250.519 415.544 249.581 415 248.541C414.515 247.563 414.178 246.519 414 245.441C413.94 245.021 414.18 244.901 414.42 244.801C414.66 244.701 414.92 244.531 415.17 244.401L415.36 244.281C415.491 244.18 415.615 244.07 415.73 243.951C415.815 243.877 415.879 243.781 415.916 243.674C415.953 243.567 415.961 243.452 415.94 243.341C415.94 243.141 415.87 241.181 415.84 240.391C415.81 239.601 415.48 239.601 415.28 239.521C415.08 239.441 414.86 239.321 414.63 239.241C414.453 239.178 414.265 239.151 414.078 239.163C413.89 239.175 413.707 239.226 413.54 239.311C413.011 239.533 412.534 239.861 412.138 240.276C411.742 240.691 411.437 241.183 411.24 241.721C411.095 242.117 411.004 242.531 410.97 242.951C410.913 243.913 411.025 244.878 411.3 245.801C411.39 246.091 412.24 250.511 415.22 253.231C418.2 255.951 418.39 255.491 419.05 255.671C419.574 255.773 420.114 255.76 420.632 255.632C421.15 255.505 421.634 255.265 422.05 254.931C422.475 254.509 422.764 253.969 422.88 253.381C422.77 253.191 422.58 253.011 422.3 252.711Z" fill="white"/>
<path d="M62.13 144.349C56.4623 144.349 51.0268 142.098 47.0191 138.09C43.0115 134.083 40.76 128.647 40.76 122.979C40.76 117.312 43.0115 111.876 47.0191 107.868C51.0268 103.861 56.4623 101.609 62.13 101.609C64.9364 101.609 67.7152 102.162 70.308 103.236C72.9007 104.31 75.2565 105.884 77.2409 107.868C79.2253 109.853 80.7994 112.209 81.8733 114.801C82.9473 117.394 83.5 120.173 83.5 122.979C83.5 125.786 82.9473 128.565 81.8733 131.157C80.7994 133.75 79.2253 136.106 77.2409 138.09C75.2565 140.075 72.9007 141.649 70.308 142.723C67.7152 143.797 64.9364 144.349 62.13 144.349Z" fill="#2AB6C5"/>
<path d="M50.75 130.111C52.8024 131.42 55.1747 132.141 57.6085 132.195C60.0423 132.249 62.4442 131.634 64.5525 130.417C66.6608 129.2 68.3946 127.427 69.565 125.292C70.7354 123.158 71.2975 120.743 71.19 118.311C72.0934 117.655 72.8751 116.846 73.5 115.921C72.6439 116.297 71.7378 116.546 70.81 116.661C71.788 116.089 72.5266 115.184 72.89 114.111C71.9644 114.661 70.9488 115.044 69.89 115.241C69.1887 114.474 68.2519 113.962 67.2275 113.786C66.203 113.61 65.1492 113.781 64.2322 114.27C63.3153 114.759 62.5873 115.54 62.1632 116.489C61.7391 117.438 61.643 118.501 61.89 119.511C60.032 119.415 58.2147 118.931 56.5559 118.088C54.897 117.246 53.4335 116.065 52.26 114.621C51.6654 115.651 51.4844 116.869 51.7536 118.027C52.0228 119.186 52.7221 120.199 53.71 120.861C52.9668 120.842 52.2394 120.643 51.59 120.281C51.5776 121.37 51.9453 122.429 52.6298 123.276C53.3143 124.123 54.2727 124.705 55.34 124.921C54.652 125.108 53.9302 125.136 53.23 125.001C53.5294 125.927 54.1103 126.737 54.8918 127.318C55.6733 127.899 56.6165 128.222 57.59 128.241C55.642 129.734 53.1868 130.406 50.75 130.111Z" fill="white"/>
<path d="M100.5 383.72C91.0096 385.974 81.0125 384.368 72.7057 379.254C64.3989 374.141 58.4622 365.939 56.2001 356.45C55.0786 351.746 54.8952 346.867 55.6605 342.092C56.4258 337.317 58.1247 332.74 60.6601 328.622C63.1955 324.504 66.5177 320.926 70.4368 318.093C74.3558 315.26 78.7948 313.227 83.5001 312.11C88.2014 310.99 93.0774 310.806 97.8496 311.57C102.622 312.334 107.197 314.031 111.313 316.563C115.43 319.096 119.007 322.414 121.841 326.329C124.675 330.244 126.71 334.679 127.83 339.38C128.951 344.086 129.133 348.967 128.366 353.744C127.599 358.52 125.897 363.099 123.359 367.217C120.821 371.335 117.495 374.913 113.573 377.744C109.65 380.576 105.208 382.607 100.5 383.72Z" fill="#455A64"/>
<path d="M88.1699 331.831C93.4099 330.581 94.0399 330.451 96.1699 330.051C97.4164 329.771 98.7017 329.706 99.9699 329.861C100.898 329.973 101.79 330.291 102.58 330.791C103.377 331.275 104.06 331.926 104.58 332.701C105.288 333.765 105.809 334.941 106.12 336.181C106.71 338.231 106.88 338.851 108.12 344.091C109.36 349.331 109.49 349.961 109.89 352.091C110.175 353.336 110.239 354.623 110.08 355.891C109.978 356.821 109.659 357.715 109.15 358.501C108.672 359.3 108.023 359.983 107.25 360.501C106.182 361.208 105.002 361.729 103.76 362.041C101.76 362.631 101.1 362.801 95.8599 364.041C90.6199 365.281 89.9899 365.421 87.8599 365.821C86.6107 366.105 85.3213 366.17 84.0499 366.011C83.1209 365.902 82.2287 365.584 81.4399 365.081C80.6506 364.582 79.9867 363.908 79.4999 363.111C78.7859 362.049 78.2614 360.872 77.9499 359.631C77.3699 357.581 77.1999 356.971 75.9499 351.731C74.6999 346.491 74.5699 345.861 74.1699 343.731C73.8953 342.48 73.8311 341.192 73.9799 339.921C74.1029 338.996 74.4194 338.107 74.9087 337.313C75.398 336.519 76.0493 335.836 76.8199 335.311C77.8826 334.599 79.0597 334.074 80.2999 333.761C82.2999 333.181 82.9699 333.011 88.2099 331.761M87.3699 328.221C82.0399 329.491 81.3699 329.671 79.2999 330.271C77.6802 330.673 76.1413 331.349 74.7499 332.271C73.5695 333.087 72.5715 334.139 71.8192 335.362C71.067 336.584 70.5768 337.949 70.3799 339.371C70.1699 341.038 70.2443 342.728 70.5999 344.371C71.0099 346.481 71.1399 347.161 72.4099 352.491C73.6799 357.821 73.8599 358.491 74.4099 360.551C74.81 362.171 75.4866 363.71 76.4099 365.101C77.2237 366.325 78.2997 367.353 79.5599 368.111C80.7727 368.874 82.1381 369.362 83.5599 369.541C85.227 369.752 86.9179 369.678 88.5599 369.321C90.6699 368.921 91.3499 368.781 96.6799 367.511C102.01 366.241 102.68 366.061 104.74 365.511C106.357 365.102 107.895 364.426 109.29 363.511C110.483 362.706 111.486 361.652 112.23 360.421C112.989 359.205 113.48 357.841 113.67 356.421C113.877 354.753 113.799 353.062 113.44 351.421C113.04 349.301 112.9 348.631 111.63 343.301C110.36 337.971 110.18 337.301 109.63 335.231C109.219 333.614 108.543 332.076 107.63 330.681C106.825 329.491 105.771 328.491 104.54 327.751C103.329 326.982 101.963 326.49 100.54 326.311C98.8729 326.099 97.182 326.174 95.5399 326.531C93.4199 326.941 92.7499 327.071 87.4199 328.341" fill="white"/>
<path d="M89.6 337.841C87.607 338.316 85.7995 339.371 84.4061 340.873C83.0127 342.375 82.096 344.256 81.7718 346.28C81.4477 348.303 81.7307 350.376 82.5851 352.239C83.4394 354.101 84.8268 355.668 86.5717 356.742C88.3167 357.816 90.3408 358.348 92.3882 358.271C94.4357 358.195 96.4144 357.513 98.0744 356.312C99.7343 355.111 101.001 353.445 101.714 351.524C102.427 349.603 102.554 347.514 102.08 345.521C101.442 342.848 99.7687 340.539 97.4288 339.099C95.089 337.659 92.2733 337.206 89.6 337.841ZM93.6 354.471C92.3052 354.776 90.9487 354.692 89.7021 354.227C88.4555 353.762 87.3746 352.938 86.596 351.859C85.8174 350.78 85.3761 349.495 85.3278 348.165C85.2795 346.836 85.6264 345.521 86.3246 344.389C87.0229 343.256 88.0411 342.356 89.2508 341.802C90.4604 341.248 91.8071 341.065 93.1207 341.276C94.4344 341.487 95.656 342.083 96.6312 342.988C97.6065 343.893 98.2916 345.066 98.6 346.361C98.8052 347.222 98.8386 348.114 98.6982 348.988C98.5579 349.862 98.2466 350.699 97.7821 351.453C97.3177 352.206 96.7093 352.86 95.9916 353.378C95.274 353.896 94.4613 354.267 93.6 354.471Z" fill="white"/>
<path d="M102.34 334.39C102.449 334.856 102.418 335.343 102.251 335.791C102.084 336.239 101.787 336.627 101.399 336.907C101.011 337.186 100.549 337.345 100.071 337.362C99.5936 337.379 99.1214 337.255 98.7143 337.004C98.3073 336.753 97.9837 336.387 97.7844 335.952C97.5851 335.518 97.5191 335.034 97.5946 334.561C97.6701 334.089 97.8838 333.65 98.2087 333.299C98.5336 332.948 98.9551 332.702 99.4201 332.59C99.7301 332.515 100.052 332.501 100.367 332.551C100.682 332.601 100.985 332.712 101.256 332.88C101.528 333.047 101.764 333.267 101.95 333.526C102.136 333.786 102.268 334.079 102.34 334.39Z" fill="white"/>
<path d="M359.31 351.33C357.056 351.331 354.823 350.888 352.74 350.026C350.657 349.165 348.764 347.901 347.17 346.307C345.575 344.714 344.31 342.822 343.447 340.739C342.584 338.656 342.14 336.424 342.14 334.17C342.14 331.915 342.584 329.683 343.447 327.601C344.31 325.518 345.575 323.626 347.17 322.032C348.764 320.439 350.657 319.175 352.74 318.313C354.823 317.451 357.056 317.008 359.31 317.01C361.566 317.006 363.801 317.447 365.886 318.307C367.972 319.168 369.867 320.431 371.463 322.025C373.06 323.619 374.327 325.512 375.191 327.596C376.055 329.68 376.5 331.914 376.5 334.17C376.5 336.426 376.055 338.66 375.191 340.744C374.327 342.827 373.06 344.721 371.463 346.314C369.867 347.908 367.972 349.172 365.886 350.032C363.801 350.893 361.566 351.334 359.31 351.33Z" fill="#455A64"/>
<path d="M356.69 344.54H360.87V334.11H363.78L364.1 330.61H360.87V328.61C360.87 327.79 361.04 327.46 361.87 327.46H364.14V323.82H361.24C358.13 323.82 356.73 325.19 356.73 327.82V330.62H354.5V334.11H356.67L356.69 344.54Z" fill="white"/>
<path d="M300.77 446.16L162.88 446.11C154.924 446.11 147.293 442.949 141.667 437.323C136.041 431.697 132.88 424.066 132.88 416.11L132.94 70.4297C132.94 66.485 133.718 62.5791 135.229 58.9354C136.741 55.2917 138.956 51.9818 141.748 49.1953C144.54 46.4088 147.854 44.2002 151.501 42.6961C155.148 41.192 159.055 40.4219 163 40.4297L300.88 40.5097C308.837 40.5097 316.467 43.6705 322.093 49.2965C327.719 54.9226 330.88 62.5533 330.88 70.5097L330.82 416.11C330.827 420.058 330.054 423.968 328.546 427.617C327.038 431.266 324.825 434.581 322.033 437.373C319.242 440.165 315.926 442.378 312.277 443.886C308.629 445.394 304.718 446.166 300.77 446.16Z" fill="#263238"/>
<path d="M300.73 52.6306H273.99C272.235 52.6726 270.568 53.4069 269.352 54.6732C268.136 55.9396 267.47 57.6353 267.5 59.3906V64.2406C267.52 65.1122 267.368 65.9791 267.052 66.7917C266.737 67.6044 266.264 68.3469 265.661 68.9766C265.058 69.6064 264.337 70.1111 263.539 70.4618C262.741 70.8125 261.882 71.0024 261.01 71.0206H208.9C208.028 71.0011 207.168 70.81 206.37 70.4582C205.572 70.1064 204.851 69.6008 204.248 68.9702C203.646 68.3397 203.173 67.5965 202.858 66.7833C202.542 65.9701 202.39 65.1026 202.41 64.2306V59.3506C202.445 57.5909 201.782 55.889 200.566 54.6167C199.35 53.3444 197.679 52.6052 195.92 52.5606H186.5H163.11C160.348 52.554 157.612 53.0924 155.058 54.1448C152.505 55.1972 150.184 56.743 148.228 58.6937C146.273 60.6443 144.722 62.9616 143.663 65.5127C142.605 68.0638 142.06 70.7986 142.06 73.5606L141.99 410.971C141.99 416.54 144.202 421.882 148.141 425.82C152.079 429.758 157.42 431.971 162.99 431.971L300.61 432.051C303.368 432.051 306.099 431.507 308.646 430.452C311.194 429.397 313.509 427.85 315.459 425.9C317.409 423.95 318.956 421.635 320.011 419.087C321.067 416.539 321.61 413.808 321.61 411.051L321.68 73.6306C321.68 68.0697 319.474 62.7358 315.547 58.799C311.619 54.8622 306.291 52.6438 300.73 52.6306Z" fill="white"/>
<path d="M302.74 80.0395C302.74 80.1295 299.26 80.2295 294.98 80.2595C290.7 80.2895 287.21 80.2595 287.21 80.1695C287.21 80.0795 290.68 79.9695 294.97 79.9395C299.26 79.9095 302.74 79.9495 302.74 80.0395Z" fill="#263238"/>
<path d="M302.77 84.0104C302.77 84.1004 299.3 84.2004 295.01 84.2404C290.72 84.2804 287.24 84.2404 287.24 84.1404C287.24 84.0404 290.72 83.9504 295.01 83.9104C299.3 83.8704 302.77 83.9204 302.77 84.0104Z" fill="#263238"/>
<path d="M302.81 87.9792C302.81 88.0692 299.33 88.1792 295.04 88.2092C290.75 88.2392 287.28 88.2092 287.27 88.1092C287.26 88.0092 290.75 87.9192 295.04 87.8792C299.33 87.8392 302.81 87.8892 302.81 87.9792Z" fill="#263238"/>
<path d="M156.5 91.8606H156.91H158.04L162.22 91.7606L162.1 91.8706C162.1 90.9506 162.1 89.9406 162.05 88.8706C162.05 88.3106 162.05 87.7806 162.05 87.1306C162.116 86.7947 162.287 86.4885 162.539 86.2565C162.791 86.0245 163.11 85.8789 163.45 85.8406C164.13 85.8406 164.72 85.8406 165.45 85.8406C165.832 85.9024 166.18 86.0984 166.431 86.3934C166.682 86.6884 166.82 87.0632 166.82 87.4506C166.82 88.8706 166.82 90.3406 166.87 91.8706L166.68 91.6806H171.95L171.75 91.8806C171.75 89.7606 171.75 87.5606 171.69 85.3106C171.69 84.7506 171.69 84.2006 171.69 83.6406C171.667 83.3917 171.589 83.1511 171.461 82.9365C171.333 82.7219 171.158 82.5387 170.95 82.4006L168.65 80.1206L166.42 77.9306L165.35 76.8706C164.98 76.5106 164.69 76.1406 164.26 76.0506C164.054 75.9964 163.838 75.9889 163.629 76.0287C163.42 76.0684 163.222 76.1545 163.05 76.2806C162.73 76.5506 162.39 76.9306 162.05 77.2806L160.15 79.1906C158.96 80.4206 157.72 81.5506 156.82 82.6206C156.553 83.2512 156.463 83.9427 156.56 84.6206C156.56 85.2706 156.56 85.8906 156.56 86.4706C156.56 87.6106 156.56 88.6106 156.56 89.4706C156.56 90.3306 156.56 90.8606 156.56 91.3806C156.574 91.6104 156.574 91.8408 156.56 92.0706C156.548 91.8608 156.548 91.6504 156.56 91.4406C156.56 90.9306 156.56 90.3006 156.56 89.5506C156.56 88.8006 156.56 87.6806 156.49 86.5506C156.49 85.9506 156.49 85.3206 156.49 84.6506C156.49 84.3106 156.49 83.9706 156.49 83.6506C156.488 83.2647 156.588 82.8851 156.78 82.5506C157.78 81.3606 158.92 80.3006 160.12 79.0306L162 77.1006C162.34 76.7706 162.61 76.4406 163 76.1006C163.215 75.9367 163.464 75.8237 163.729 75.77C163.994 75.7163 164.268 75.7234 164.53 75.7906C165.028 75.9734 165.467 76.2879 165.8 76.7006L166.88 77.7606L169.11 79.9506L171.42 82.2106C171.636 82.4048 171.834 82.6191 172.01 82.8506C172.183 83.116 172.28 83.4239 172.29 83.7406C172.29 84.3006 172.29 84.8606 172.29 85.4206C172.29 87.6706 172.29 89.8706 172.34 91.9906V92.1906H172.14H166.87H166.5V92.0006C166.5 90.4706 166.5 89.0006 166.5 87.5806C166.507 87.2755 166.403 86.9782 166.208 86.7431C166.014 86.5081 165.741 86.351 165.44 86.3006C164.83 86.3006 164.11 86.3006 163.52 86.3006C163.251 86.3276 162.996 86.4387 162.794 86.6181C162.591 86.7976 162.45 87.0364 162.39 87.3006C162.39 87.8306 162.39 88.4406 162.39 88.9806C162.39 90.0706 162.39 91.0906 162.39 91.9806V92.1006H162.27H158.02H156.91C156.765 92.035 156.628 91.9546 156.5 91.8606Z" fill="#263238"/>
<path d="M247.5 355.52C247.02 355.595 246.535 355.629 246.05 355.62L242.11 355.7C238.79 355.75 234.19 355.78 229.11 355.78C224.03 355.78 219.43 355.78 216.11 355.7L212.17 355.62C211.685 355.628 211.2 355.594 210.72 355.52C211.199 355.439 211.685 355.405 212.17 355.42L216.11 355.33C219.43 355.33 224.03 355.26 229.11 355.26C234.19 355.26 238.78 355.26 242.11 355.33L246.05 355.42C246.535 355.404 247.021 355.438 247.5 355.52Z" fill="#455A64"/>
<path d="M305.27 364.559C305.27 364.709 284.1 364.819 257.99 364.819C231.88 364.819 210.71 364.709 210.71 364.559C210.71 364.409 231.88 364.299 257.99 364.299C284.1 364.299 305.27 364.419 305.27 364.559Z" fill="#455A64"/>
<path d="M275.72 373.11C275.72 373.26 261.17 373.37 243.22 373.37C225.27 373.37 210.71 373.26 210.71 373.11C210.71 372.96 225.26 372.85 243.22 372.85C261.18 372.85 275.72 372.93 275.72 373.11Z" fill="#455A64"/>
<path d="M307.14 389.639L304.2 386.689L301.4 389.479V381.039H307.13L307.14 389.639ZM304.2 386.319L304.29 386.409L306.88 389.009V381.309H301.67V388.859L304.2 386.319Z" fill="#263238"/>
<path d="M228.91 388.54L227.91 388.08C227.313 388.361 226.633 388.409 226.002 388.215C225.371 388.02 224.836 387.598 224.5 387.03C224.165 386.462 224.053 385.789 224.187 385.143C224.322 384.497 224.692 383.924 225.226 383.537C225.761 383.149 226.42 382.975 227.076 383.048C227.732 383.122 228.337 383.437 228.772 383.933C229.208 384.428 229.443 385.069 229.431 385.728C229.42 386.388 229.163 387.02 228.71 387.5L228.91 388.54ZM226.5 382.92C225.816 382.968 225.177 383.274 224.711 383.778C224.246 384.281 223.991 384.943 223.997 385.628C224.004 386.314 224.271 386.971 224.746 387.466C225.22 387.96 225.866 388.255 226.55 388.29C227.007 388.258 227.449 388.118 227.84 387.88L228.61 388.22L228.43 387.47C228.783 387.085 229.015 386.605 229.099 386.09C229.183 385.575 229.114 385.046 228.902 384.569C228.689 384.092 228.342 383.688 227.903 383.406C227.464 383.123 226.952 382.975 226.43 382.98L226.5 382.92Z" fill="#263238"/>
<path d="M235.57 388.109L234.39 385.209L232.16 383.209H237.56L235.57 388.109ZM232.66 383.379L234.56 385.119L235.56 387.589L237.26 383.339L232.66 383.379Z" fill="#263238"/>
<path d="M237.447 383.145L234.497 385.064L234.606 385.232L237.556 383.312L237.447 383.145Z" fill="#263238"/>
<path d="M220.4 383.77C220.32 383.384 220.107 383.039 219.798 382.795C219.488 382.551 219.102 382.425 218.709 382.438C218.315 382.451 217.939 382.603 217.646 382.867C217.354 383.131 217.164 383.489 217.11 383.88C217.056 383.485 216.863 383.122 216.565 382.857C216.267 382.593 215.884 382.443 215.486 382.436C215.087 382.429 214.699 382.564 214.392 382.818C214.085 383.072 213.878 383.427 213.81 383.82C213.733 384.395 213.88 384.979 214.22 385.45C214.558 385.912 214.955 386.329 215.4 386.69C216.01 387.22 216.56 387.69 217.16 388.25C217.76 387.71 218.26 387.2 218.86 386.66C219.3 386.292 219.69 385.868 220.02 385.4C220.355 384.927 220.491 384.342 220.4 383.77Z" fill="#2AB6C5"/>
<path d="M313.16 397.109C313.16 397.109 313.16 396.779 313.16 396.169C313.16 395.559 313.16 394.629 313.16 393.429C313.16 391.019 313.16 387.429 313.11 382.869C313.11 373.679 313.06 360.309 313.02 343.539L313.19 343.709L153.28 343.799L153.54 343.539C153.54 362.159 153.54 380.209 153.54 397.109L153.29 396.859L267.72 396.969L301.12 397.039H310.12H312.44H313.24H312.47H310.18H301.27L267.92 397.109L153.32 397.229H153.06V397.109C153.06 380.209 153.06 362.159 153.06 343.539V343.279H153.34L313.25 343.369H313.42V343.539C313.42 360.349 313.35 373.759 313.33 382.979C313.33 387.559 313.33 391.089 313.33 393.499C313.33 394.679 313.33 395.579 313.33 396.199C313.33 396.819 313.16 397.109 313.16 397.109Z" fill="#263238"/>
<path d="M159.902 352.497L159.698 387.916L203.997 388.171L204.201 352.752L159.902 352.497Z" fill="#EBEBEB"/>
<path d="M204.19 352.73H203.34H200.92H191.83L159.83 352.66L160.07 352.43C160.02 362.98 159.96 375.06 159.9 387.84C159.95 387.91 159.41 387.35 159.64 387.58H162.69H165.69H171.69L183.19 387.65L203.93 387.8L203.72 388.02C203.82 377.38 203.91 368.56 203.98 362.36C203.98 359.28 204.05 356.86 204.07 355.17C204.07 354.36 204.07 353.73 204.07 353.27C204.07 352.81 204.07 352.6 204.07 352.6C204.07 352.6 204.07 352.8 204.07 353.22C204.07 353.64 204.07 354.29 204.07 355.09C204.07 356.76 204.07 359.17 204.07 362.23C204.07 368.46 204.07 377.33 204.07 388.02V388.23H203.85L183.11 388.15L171.61 388.09H165.61H162.61H159.56L159.29 387.82C159.38 375.03 159.45 362.95 159.52 352.41V352.17H159.76L191.86 352.46L200.86 352.58H203.23H203.83L204.19 352.73Z" fill="#263238"/>
<path d="M161.419 354.736L161.241 385.695L202.43 385.933L202.608 354.973L161.419 354.736Z" fill="#E0E0E0"/>
<path d="M161.22 385.67L175.72 366.51L184.56 378.6L190.64 372.2L202.41 385.91L161.22 385.67Z" fill="#F5F5F5"/>
<path d="M188.43 364.229C188.428 364.872 188.235 365.5 187.876 366.034C187.517 366.567 187.007 366.982 186.412 367.226C185.817 367.47 185.163 367.532 184.532 367.404C183.902 367.275 183.324 366.963 182.871 366.506C182.419 366.049 182.112 365.468 181.989 364.837C181.867 364.205 181.935 363.552 182.184 362.959C182.434 362.366 182.853 361.86 183.39 361.506C183.927 361.152 184.557 360.965 185.2 360.969C185.626 360.97 186.048 361.056 186.441 361.22C186.835 361.385 187.192 361.626 187.492 361.928C187.792 362.231 188.029 362.59 188.19 362.985C188.351 363.38 188.433 363.802 188.43 364.229Z" fill="#F5F5F5"/>
<path d="M234.59 122.98C234.431 123.006 234.269 123.006 234.11 122.98L232.76 123.03L227.76 123.12C223.55 123.12 217.76 123.19 211.3 123.19C204.84 123.19 199.05 123.19 194.84 123.12L189.84 123.03L188.48 122.98C188.325 123.007 188.165 123.007 188.01 122.98C188.164 122.942 188.322 122.925 188.48 122.93H189.84L194.84 122.85C199.05 122.8 204.84 122.77 211.3 122.77C217.76 122.77 223.55 122.77 227.76 122.85L232.76 122.93H234.11C234.271 122.925 234.433 122.942 234.59 122.98Z" fill="#263238"/>
<path d="M300.03 318.76L295.67 314.38L291.5 318.53V305.99H300.02L300.03 318.76ZM295.67 313.84L295.8 313.97L299.65 317.83V306.39H291.89V317.61L295.67 313.84Z" fill="#263238"/>
<path d="M189.17 317.439L187.17 316.529C186.005 317.071 184.681 317.158 183.455 316.775C182.229 316.392 181.19 315.565 180.541 314.457C179.892 313.348 179.68 312.038 179.946 310.781C180.212 309.525 180.937 308.413 181.98 307.662C183.022 306.912 184.307 306.577 185.583 306.724C186.859 306.871 188.035 307.488 188.88 308.455C189.725 309.422 190.179 310.67 190.153 311.954C190.127 313.238 189.623 314.467 188.74 315.399L189.17 317.439ZM184.4 306.389C183.707 306.395 183.021 306.537 182.383 306.808C181.745 307.079 181.166 307.473 180.68 307.967C180.194 308.462 179.81 309.047 179.55 309.69C179.29 310.333 179.159 311.021 179.165 311.714C179.171 312.407 179.313 313.093 179.584 313.731C179.855 314.37 180.249 314.948 180.743 315.434C181.238 315.921 181.823 316.304 182.466 316.564C183.109 316.824 183.797 316.955 184.49 316.949C185.389 316.895 186.262 316.62 187.03 316.149L187.12 316.099L188.62 316.769L188.28 315.289L188.35 315.219C189.045 314.461 189.502 313.516 189.667 312.501C189.831 311.486 189.695 310.445 189.275 309.507C188.855 308.568 188.17 307.773 187.304 307.219C186.438 306.665 185.428 306.376 184.4 306.389Z" fill="#263238"/>
<path d="M202.29 316.569L199.95 310.859L195.57 306.859L206.21 306.779L202.29 316.569ZM196.56 307.239L200.3 310.669L202.3 315.529L205.64 307.169L196.56 307.239Z" fill="#263238"/>
<path d="M205.998 306.763L200.198 310.537L200.411 310.864L206.211 307.09L205.998 306.763Z" fill="#263238"/>
<path d="M172.43 308.11C172.279 307.345 171.861 306.658 171.25 306.172C170.639 305.686 169.876 305.434 169.096 305.459C168.316 305.484 167.57 305.786 166.992 306.31C166.414 306.834 166.041 307.547 165.94 308.32C165.825 307.55 165.441 306.845 164.855 306.331C164.27 305.818 163.521 305.528 162.742 305.515C161.963 305.502 161.204 305.766 160.602 306.259C159.999 306.753 159.591 307.444 159.45 308.21C159.3 309.341 159.59 310.487 160.26 311.41C160.931 312.321 161.714 313.144 162.59 313.86C163.78 314.86 164.87 315.86 166.06 316.93C167.22 315.87 168.22 314.87 169.39 313.8C170.254 313.073 171.024 312.24 171.68 311.32C172.331 310.385 172.599 309.237 172.43 308.11Z" fill="#2AB6C5"/>
<path d="M171.46 130.2C175.447 130.2 178.68 126.967 178.68 122.98C178.68 118.992 175.447 115.76 171.46 115.76C167.472 115.76 164.24 118.992 164.24 122.98C164.24 126.967 167.472 130.2 171.46 130.2Z" fill="#EBEBEB"/>
<path d="M297.31 277.36C297.31 277.51 267.05 277.63 229.73 277.63C192.41 277.63 162.14 277.51 162.14 277.36C162.14 277.21 192.4 277.1 229.73 277.1C267.06 277.1 297.31 277.22 297.31 277.36Z" fill="#455A64"/>
<path d="M297.31 266.11C297.31 266.25 267.05 266.37 229.73 266.37C192.41 266.37 162.14 266.25 162.14 266.11C162.14 265.97 192.4 265.85 229.73 265.85C267.06 265.85 297.31 265.97 297.31 266.11Z" fill="#455A64"/>
<path d="M235.71 288.77C235.71 288.91 219.24 289.03 198.93 289.03C178.62 289.03 162.14 288.91 162.14 288.77C162.14 288.63 178.61 288.51 198.93 288.51C219.25 288.51 235.71 288.63 235.71 288.77Z" fill="#455A64"/>
<path d="M226.64 411.399C226.63 411.967 226.452 412.52 226.129 412.987C225.806 413.454 225.351 413.816 224.823 414.025C224.295 414.235 223.717 414.284 223.161 414.166C222.605 414.047 222.096 413.767 221.699 413.36C221.302 412.954 221.035 412.439 220.93 411.88C220.825 411.322 220.888 410.745 221.11 410.222C221.333 409.699 221.705 409.253 222.18 408.941C222.655 408.629 223.212 408.465 223.78 408.469C224.16 408.473 224.536 408.552 224.886 408.701C225.236 408.851 225.553 409.068 225.818 409.34C226.084 409.612 226.293 409.934 226.434 410.288C226.575 410.641 226.645 411.018 226.64 411.399Z" fill="#263238"/>
<path d="M235.5 411.44C235.488 412.005 235.31 412.554 234.987 413.019C234.664 413.483 234.211 413.841 233.685 414.049C233.159 414.257 232.584 414.305 232.031 414.186C231.478 414.068 230.972 413.789 230.577 413.384C230.182 412.98 229.915 412.467 229.81 411.912C229.706 411.356 229.767 410.782 229.988 410.261C230.208 409.74 230.577 409.296 231.049 408.985C231.521 408.673 232.075 408.508 232.64 408.51C233.021 408.512 233.397 408.59 233.748 408.739C234.098 408.888 234.415 409.106 234.681 409.378C234.947 409.65 235.157 409.973 235.297 410.327C235.438 410.681 235.507 411.059 235.5 411.44Z" fill="#263238"/>
<path d="M244.43 411.479C244.418 412.044 244.24 412.593 243.917 413.058C243.594 413.522 243.141 413.88 242.615 414.088C242.089 414.296 241.514 414.344 240.961 414.225C240.408 414.107 239.902 413.828 239.507 413.424C239.112 413.019 238.845 412.507 238.74 411.951C238.636 411.395 238.697 410.821 238.918 410.3C239.138 409.779 239.507 409.335 239.979 409.024C240.451 408.712 241.005 408.547 241.57 408.549C241.95 408.553 242.326 408.632 242.676 408.781C243.026 408.931 243.343 409.148 243.608 409.42C243.874 409.692 244.083 410.014 244.224 410.368C244.365 410.721 244.435 411.098 244.43 411.479Z" fill="#263238"/>
<path d="M314.12 137.26H154.19V235.06H314.12V137.26Z" fill="#E0E0E0"/>
<path d="M168.96 235.09L214.78 173.75L243.2 212.11L262.45 191.59L300.22 235.05L168.96 235.09Z" fill="#F5F5F5"/>
<path d="M255.24 166.221C255.242 168.266 254.637 170.266 253.502 171.968C252.367 173.67 250.753 174.997 248.864 175.781C246.975 176.565 244.895 176.771 242.889 176.373C240.883 175.975 239.039 174.991 237.592 173.546C236.145 172.1 235.159 170.258 234.759 168.252C234.36 166.246 234.564 164.166 235.346 162.276C236.128 160.386 237.454 158.771 239.154 157.634C240.855 156.497 242.855 155.891 244.9 155.891C247.641 155.891 250.269 156.979 252.208 158.916C254.147 160.853 255.237 163.48 255.24 166.221Z" fill="#F5F5F5"/>
<path d="M313.69 325.959C313.69 323.869 313.59 235.519 313.45 104.719L313.69 104.959H153.78L154.04 104.699C154.04 187.439 154.04 264.009 154.04 325.939L153.82 325.729L313.75 325.939L153.82 326.159H153.61V325.939C153.61 264.009 153.61 187.439 153.56 104.699V104.439H153.84H313.75H313.99V104.669C313.94 170.139 313.9 225.469 313.87 264.449C313.87 283.909 313.82 299.279 313.81 309.799C313.81 315.039 313.81 319.069 313.81 321.799C313.81 323.149 313.81 324.179 313.81 324.879C313.81 325.579 313.69 325.959 313.69 325.959Z" fill="#263238"/>
<path d="M238.5 353.409L242.04 341.519C242.66 338.939 243.48 335.899 244.58 332.429C245.58 329.309 248.12 326.029 250.44 323.669C254.05 319.999 255.77 319.979 258.19 318.029C258.41 317.889 258.66 317.679 258.87 317.569C259.328 317.319 259.729 316.979 260.05 316.569C262.14 314.309 260.13 310.799 255.88 311.139C252.69 311.389 247.47 312.299 238.99 321.049C238.88 321.189 238.77 321.299 238.67 321.429C234.22 327.219 230.04 310.699 229.28 304.549C229.133 303.595 228.773 302.688 228.227 301.893C227.681 301.097 226.963 300.435 226.127 299.955C225.29 299.475 224.357 299.189 223.395 299.119C222.433 299.048 221.467 299.195 220.57 299.549L199.91 309.209C197.939 308.637 195.838 308.707 193.91 309.409C192.464 309.916 191.26 310.944 190.531 312.292C189.802 313.64 189.602 315.211 189.97 316.699L198.36 350.109L173.75 432.009H226.8L238.5 353.409Z" fill="#FFBE9D"/>
<path d="M279.3 278.188L262.9 310.328L254.7 308.048L213.5 341.578C211.818 342.954 209.666 343.619 207.502 343.432C205.337 343.246 203.331 342.221 201.91 340.578L186.21 322.348C186.21 322.348 217.86 308.718 223.71 297.438C229.56 286.158 222.8 283.588 222.8 283.588L237.69 266.668L279.3 278.188Z" fill="#2AB6C5"/>
<path d="M258.03 212.549C258.03 212.549 234.03 207.239 200.24 174.759C166.45 142.279 150.59 99.1089 146.5 99.3489C142.41 99.5889 124.31 91.1789 89.97 165.869C55.63 240.559 69.16 257.869 75.97 257.769C82.78 257.669 129.19 244.699 158.17 247.989C187.15 251.279 224.4 266.389 224.4 266.389L258.03 212.549Z" fill="#2AB6C5"/>
<path d="M309.02 253.258L300.83 268.828L297.16 275.828C294.738 280.436 290.639 283.938 285.711 285.613C280.782 287.288 275.398 287.007 270.67 284.828L219.22 266.898L249.22 198.498L300.62 225.888C305.349 228.418 308.885 232.715 310.459 237.842C312.032 242.97 311.515 248.511 309.02 253.258Z" fill="#2AB6C5"/>
<g opacity="0.4">
<path d="M309.02 253.258L300.83 268.828L297.16 275.828C294.738 280.436 290.639 283.938 285.711 285.613C280.782 287.288 275.398 287.007 270.67 284.828L219.22 266.898L249.22 198.498L300.62 225.888C305.349 228.418 308.885 232.715 310.459 237.842C312.032 242.97 311.515 248.511 309.02 253.258Z" fill="black"/>
</g>
<path d="M92.71 167.229C74.44 207.689 66.83 243.749 75.71 247.759C84.59 251.769 106.62 222.229 124.89 181.759C143.16 141.289 150.77 105.249 141.89 101.229C133.01 97.2092 110.98 126.769 92.71 167.229Z" fill="#2AB6C5"/>
<g opacity="0.5">
<path d="M92.71 167.229C74.44 207.689 66.83 243.749 75.71 247.759C84.59 251.769 106.62 222.229 124.89 181.759C143.16 141.289 150.77 105.249 141.89 101.229C133.01 97.2092 110.98 126.769 92.71 167.229Z" fill="black"/>
</g>
<path d="M313.44 275.759L299.49 271.379L308.12 254.979L318.58 261.479L313.44 275.759Z" fill="#2AB6C5"/>
<g opacity="0.6">
<path d="M308.12 254.979L299.49 271.379L302.36 272.279L309.37 255.749L308.12 254.979Z" fill="black"/>
</g>
<path d="M298.5 258.758C298.3 259.208 291.34 256.508 282.96 252.758C274.58 249.008 267.96 245.528 268.15 245.078C268.34 244.628 275.31 247.338 283.7 251.128C292.09 254.918 298.71 258.308 298.5 258.758Z" fill="#2AB6C5"/>
<path d="M302.8 248.988C302.58 249.428 296.28 246.778 288.73 243.058C281.18 239.338 275.24 235.968 275.46 235.518C275.68 235.068 281.97 237.728 289.52 241.448C297.07 245.168 303.02 248.538 302.8 248.988Z" fill="#2AB6C5"/>
<path d="M293.1 269.008C293.03 269.248 291.37 268.868 288.73 268.008C287.41 267.598 285.84 267.078 284.11 266.488C282.38 265.898 280.61 264.958 278.7 264.088C271.07 260.548 265.24 257.088 265.43 256.668C265.62 256.248 271.89 258.958 279.43 262.468C281.33 263.328 283.09 264.268 284.75 264.958C286.41 265.648 287.9 266.258 289.15 266.818C291.65 267.968 293.17 268.768 293.1 269.008Z" fill="#2AB6C5"/>
<path d="M129.96 158.24C129.96 158.24 109.1 145.3 97.69 173.49C86.28 201.68 108.22 206.31 108.22 206.31C117.694 191.39 125.013 175.207 129.96 158.24Z" fill="#2AB6C5"/>
<g opacity="0.5">
<path d="M152.15 124.639C152.28 124.639 151.98 126.579 151.34 130.029C150.7 133.479 149.74 138.469 148.4 144.609L145.5 154.479C144.973 156.245 144.43 158.075 143.87 159.969L143.02 162.839C142.71 163.839 142.3 164.749 141.94 165.719L137.23 177.879C136.82 178.939 136.4 179.999 135.99 181.069C135.58 182.139 134.99 183.159 134.52 184.219L131.42 190.619L128.31 197.009C127.78 198.009 127.31 199.129 126.74 200.109C126.17 201.089 125.57 202.109 125 203.059L118.35 214.289C117.81 215.169 117.35 216.079 116.75 216.919L115.02 219.369L111.7 224.049L105.7 232.419C101.7 237.249 98.36 241.059 96.06 243.709C94.9303 245.144 93.6826 246.482 92.33 247.709C93.2701 246.148 94.3406 244.669 95.53 243.289C97.75 240.459 100.88 236.499 104.72 231.629L110.47 223.199L113.69 218.509C114.25 217.709 114.81 216.889 115.38 216.059C115.95 215.229 116.38 214.319 116.93 213.429L123.5 202.209L125.21 199.269C125.8 198.269 126.21 197.269 126.76 196.189L129.84 189.839C130.84 187.689 131.91 185.579 132.93 183.489C133.41 182.489 133.99 181.429 134.39 180.369L135.64 177.209L140.42 165.209C140.79 164.209 141.21 163.319 141.53 162.359C141.85 161.399 142.12 160.459 142.41 159.519L144.11 154.089L147.18 144.339L150.65 129.939C150.998 128.132 151.5 126.359 152.15 124.639Z" fill="black"/>
</g>
<g opacity="0.4">
<path d="M191.19 320.109C193.1 323.569 195.04 327.109 197.85 329.839C200.66 332.569 204.5 334.509 208.5 334.109C212.5 333.709 216.15 330.449 216.19 326.509C218.07 327.919 220.96 327.159 222.52 325.389C224.08 323.619 224.59 321.169 224.77 318.819C227.33 320.329 230.89 319.139 232.6 316.709C233.385 315.444 233.882 314.02 234.055 312.541C234.227 311.061 234.072 309.562 233.6 308.149C232.626 305.338 231.241 302.686 229.49 300.279C231.49 300.439 233.55 300.579 235.31 299.689C237.07 298.799 238.31 296.459 237.24 294.779C236.537 293.841 235.517 293.191 234.37 292.949C231.28 291.949 229.12 291.209 225.9 291.579C225.16 291.579 227.19 300.059 207.02 311.639C195.05 318.489 191.19 320.109 191.19 320.109Z" fill="black"/>
</g>
<path d="M236.61 332.309C236.61 332.399 235.26 332.139 233.08 332.199C230.247 332.267 227.461 332.935 224.906 334.161C222.351 335.387 220.086 337.142 218.26 339.309C216.85 340.969 216.26 342.179 216.13 342.129C216.213 341.817 216.345 341.52 216.52 341.249C216.948 340.487 217.433 339.758 217.97 339.069C219.768 336.788 222.064 334.949 224.684 333.694C227.303 332.438 230.176 331.801 233.08 331.829C233.952 331.834 234.822 331.915 235.68 332.069C236.002 332.093 236.317 332.175 236.61 332.309Z" fill="#EB996E"/>
<path d="M192.5 314.699C195.75 317.819 197.97 321.269 201.38 324.409C202.93 325.839 205.38 328.539 207.38 328.899C209.38 329.259 210.78 328.989 211.6 327.049C212.27 325.479 211.07 323.329 210.25 322.049C208.08 318.639 206 315.979 204.38 313.329C203.61 312.089 204.6 311.829 204.96 312.409C206.52 314.029 208.86 315.409 210.26 317.199C212.18 319.609 212.52 322.819 217.54 321.799C218.211 321.691 218.848 321.427 219.4 321.029C221.29 319.579 221.4 317.029 220.58 315.029C219.872 313.486 218.927 312.062 217.78 310.809C219.92 313.219 222.25 315.809 225.65 316.029C226.61 316.146 227.583 315.961 228.434 315.501C229.285 315.04 229.972 314.327 230.4 313.459C231.4 311.179 229.97 308.969 228.52 307.189C225.953 304.024 223.098 301.105 219.99 298.469C218.829 297.494 217.366 296.953 215.85 296.939C214.09 296.939 211.85 297.259 210.85 298.779C210.279 299.513 209.863 300.354 209.627 301.254C209.392 302.153 209.342 303.09 209.48 304.009C209.48 304.009 205.08 301.779 201.54 304.109C199.361 305.64 197.795 307.893 197.12 310.469L192.5 314.699Z" fill="#FFBE9D"/>
<path d="M215.95 295.978C215.246 295.161 214.81 294.148 214.699 293.076C214.588 292.003 214.808 290.922 215.33 289.978C216.08 288.508 217.02 287.078 217.98 286.758C222.17 285.348 240.49 288.518 240.32 292.578C240.15 296.638 238.81 298.578 228.88 297.148C227.13 296.898 224.39 296.558 224.39 296.558L221.99 300.158L215.95 295.978Z" fill="#FFBE9D"/>
<path d="M219.23 313C216.826 309.035 213.32 305.856 209.14 303.85C209.822 303.959 210.479 304.19 211.08 304.53C214.09 305.985 216.617 308.276 218.36 311.13C218.763 311.694 219.058 312.328 219.23 313Z" fill="#EB996E"/>
<path d="M222.31 300.508C222.22 300.588 221.01 299.608 219.36 298.598C218.67 298.161 217.955 297.764 217.22 297.408C216.65 297.148 216.27 297.078 216.28 296.998C216.29 296.918 216.71 296.878 217.34 297.068C218.151 297.329 218.925 297.695 219.64 298.158C221.33 299.188 222.44 300.398 222.31 300.508Z" fill="#EB996E"/>
<path d="M225.39 296.729C224.198 296.868 222.99 296.731 221.86 296.329C221.033 296.076 220.265 295.662 219.6 295.109C219.1 294.679 218.89 294.329 218.94 294.279C219.902 294.902 220.932 295.412 222.01 295.799C223.156 296.034 224.285 296.344 225.39 296.729Z" fill="#EB996E"/>
<path d="M207.59 318.029C206.958 317.367 206.399 316.639 205.92 315.859C204.778 314.012 203.335 312.369 201.65 310.999C199.904 309.722 197.739 309.15 195.59 309.399C194.708 309.557 193.851 309.829 193.04 310.209C193.04 310.209 193.22 309.999 193.63 309.749C194.214 309.395 194.858 309.151 195.53 309.029C196.649 308.848 197.794 308.892 198.896 309.158C199.998 309.425 201.036 309.908 201.95 310.579C203.69 311.978 205.143 313.699 206.23 315.649C206.749 316.403 207.204 317.199 207.59 318.029Z" fill="#EB996E"/>
<path d="M221.6 358.529C219.134 359.054 216.635 359.411 214.12 359.599C211.619 359.962 209.097 360.149 206.57 360.159C209.04 359.635 211.542 359.278 214.06 359.089C216.558 358.733 219.077 358.546 221.6 358.529Z" fill="#EB996E"/>
<path d="M379.13 25.9492L380.26 28.0192L382.32 29.1492L380.26 30.2792L379.13 32.3392L378 30.2792L375.94 29.1492L378 28.0192L379.13 25.9492Z" fill="#2AB6C5"/>
<path d="M402.74 77.1191L403.87 79.1891L405.93 80.3191L403.87 81.4491L402.74 83.5091L401.61 81.4491L399.54 80.3191L401.61 79.1891L402.74 77.1191Z" fill="#2AB6C5"/>
<path d="M24.4 213.639L25.53 215.709L27.6 216.839L25.53 217.959L24.4 220.029L23.27 217.959L21.21 216.839L23.27 215.709L24.4 213.639Z" fill="#2AB6C5"/>
<path d="M348.16 38.6699L350.77 43.4399L355.54 46.0499L350.77 48.6499L348.16 53.4199L345.56 48.6499L340.79 46.0499L345.56 43.4399L348.16 38.6699Z" fill="#2AB6C5"/>
<path d="M45.56 181.209L48.16 185.959L52.92 188.559L48.16 191.169L45.56 195.919L42.96 191.169L38.2 188.559L42.96 185.959L45.56 181.209Z" fill="#2AB6C5"/>
<path d="M409.16 294.67L411.76 299.43L416.51 302.03L411.76 304.63L409.16 309.39L406.56 304.63L401.8 302.03L406.56 299.43L409.16 294.67Z" fill="#2AB6C5"/>
</svg>
