<svg width="369" height="380" viewBox="0 0 369 380" fill="none" xmlns="http://www.w3.org/2000/svg">
<path d="M3.04364 158.598C3.04364 158.598 -3.96529 226.236 45.9935 282.324C95.9522 338.412 173.22 357.19 235.548 374.066C297.876 390.941 351.056 365.011 365.699 312.6C380.343 260.19 334.417 234.733 316.73 168.177C299.042 101.622 304.098 81.9309 254.063 33.1389C204.029 -15.6531 114.561 -9.81941 60.451 45.711C6.34098 101.241 3.04364 158.598 3.04364 158.598Z" fill="#2AB6C5"/>
<path opacity="0.7" d="M3.04364 158.598C3.04364 158.598 -3.96529 226.236 45.9935 282.324C95.9522 338.412 173.22 357.19 235.548 374.066C297.876 390.941 351.056 365.011 365.699 312.6C380.343 260.19 334.417 234.733 316.73 168.177C299.042 101.622 304.098 81.9309 254.063 33.1389C204.029 -15.6531 114.561 -9.81941 60.451 45.711C6.34098 101.241 3.04364 158.598 3.04364 158.598Z" fill="white"/>
<path d="M80.1589 39.832L186.519 213.593L315.757 91.1605" stroke="#263238" stroke-linecap="round" stroke-linejoin="round"/>
<path d="M24.2396 221.499L186.519 213.593L68.4154 163.508" stroke="#263238" stroke-linecap="round" stroke-linejoin="round"/>
<path d="M212.568 19.2539L188.421 217.685L336.53 247.074" stroke="#263238" stroke-linecap="round" stroke-linejoin="round"/>
<path d="M70.884 337.257L186.519 213.59L306.474 304.486" stroke="#263238" stroke-linecap="round" stroke-linejoin="round"/>
<path d="M20.6295 199.523C16.5493 199.523 12.5608 200.733 9.16835 203C5.77585 205.267 3.13173 208.489 1.57033 212.258C0.00893836 216.028 -0.399593 220.176 0.396398 224.177C1.19239 228.179 3.15716 231.855 6.04223 234.74C8.92731 237.625 12.6031 239.59 16.6049 240.386C20.6066 241.182 24.7545 240.773 28.524 239.212C32.2935 237.651 35.5154 235.006 37.7822 231.614C40.049 228.222 41.2589 224.233 41.2589 220.153C41.2522 214.684 39.0766 209.44 35.2093 205.573C31.3419 201.706 26.0987 199.53 20.6295 199.523Z" fill="#263238"/>
<path fill-rule="evenodd" clip-rule="evenodd" d="M33.2608 219.621C33.0504 216.652 31.7295 213.872 29.561 211.833C27.3926 209.795 24.5359 208.648 21.5599 208.622C18.5839 208.595 15.707 209.69 13.5024 211.69C11.2978 213.689 9.92727 216.445 9.66377 219.41C9.66377 219.579 9.66377 219.748 9.66377 219.925C9.66176 222.06 10.2467 224.154 11.3547 225.979L9.22412 232.261L15.7681 230.181C17.5608 231.16 19.5765 231.659 21.619 231.628C23.6616 231.598 25.6614 231.039 27.4241 230.006C29.1867 228.974 30.6522 227.503 31.678 225.737C32.7037 223.97 33.2548 221.968 33.2777 219.925C33.2693 219.824 33.2693 219.722 33.2608 219.621ZM21.4242 229.767C19.4833 229.768 17.5844 229.201 15.9625 228.135L12.1494 229.352L13.3923 225.691C12.1602 224.018 11.4965 221.995 11.4984 219.917C11.4982 219.598 11.5152 219.279 11.5492 218.962C11.7633 216.468 12.9109 214.147 14.7625 212.462C16.614 210.778 19.0332 209.855 21.536 209.877C24.0389 209.9 26.4411 210.866 28.2622 212.583C30.0833 214.301 31.1891 216.642 31.3585 219.139C31.3585 219.393 31.3585 219.646 31.3585 219.908C31.3473 222.528 30.2996 225.036 28.4443 226.885C26.5891 228.734 24.0773 229.773 21.4581 229.775L21.4242 229.767Z" fill="white"/>
<path fill-rule="evenodd" clip-rule="evenodd" d="M26.8774 222.286C26.5815 222.142 25.1864 221.44 24.8905 221.356C24.5946 221.271 24.434 221.212 24.2395 221.5C24.0451 221.787 23.4871 222.43 23.3264 222.624C23.1658 222.819 22.9882 222.836 22.6923 222.692C21.839 222.357 21.0518 221.873 20.3673 221.263C19.7343 220.689 19.1925 220.022 18.7609 219.285C18.5918 218.997 18.7609 218.836 18.8877 218.693C19.0145 218.549 19.1752 218.363 19.3189 218.194L19.4288 218.059C19.4964 217.948 19.5558 217.832 19.6063 217.712C19.6485 217.636 19.6707 217.55 19.6707 217.463C19.6707 217.375 19.6485 217.29 19.6063 217.213C19.5303 217.069 18.9553 215.649 18.7102 215.074C18.465 214.499 18.2282 214.601 18.0591 214.601C17.89 214.601 17.6956 214.601 17.5011 214.601C17.3552 214.603 17.2115 214.636 17.079 214.697C16.9465 214.758 16.8282 214.846 16.7318 214.956C16.4043 215.263 16.1448 215.635 15.97 216.049C15.7953 216.462 15.7091 216.908 15.7172 217.357C15.7216 217.689 15.7729 218.019 15.8694 218.338C16.0949 219.055 16.444 219.727 16.9008 220.324C17.0446 220.51 18.9046 223.512 21.8468 224.662C24.7891 225.812 24.7891 225.431 25.3217 225.38C25.7256 225.303 26.1085 225.141 26.4451 224.905C26.7818 224.669 27.0645 224.364 27.2748 224.011C27.459 223.582 27.5177 223.11 27.4438 222.65C27.3508 222.523 27.131 222.43 26.8774 222.286Z" fill="white"/>
<path d="M75.3229 15.9222C69.9228 16.0315 64.7808 18.2534 61.0004 22.1111C57.2201 25.9688 55.1027 31.1547 55.1027 36.5559C55.1027 41.957 57.2201 47.143 61.0004 51.0006C64.7808 54.8583 69.9228 57.0802 75.3229 57.1895C78.0677 57.2451 80.796 56.7525 83.348 55.7405C85.9 54.7285 88.2245 53.2175 90.1853 51.296C92.1461 49.3745 93.7039 47.0811 94.7673 44.55C95.8307 42.019 96.3785 39.3012 96.3785 36.5559C96.3785 33.8105 95.8307 31.0927 94.7673 28.5617C93.7039 26.0307 92.1461 23.7372 90.1853 21.8157C88.2245 19.8942 85.9 18.3832 83.348 17.3712C80.796 16.3593 78.0677 15.8666 75.3229 15.9222Z" fill="#263238"/>
<path d="M88.4108 29.9396C88.2623 29.3559 87.9607 28.8225 87.5371 28.3944C87.1135 27.9664 86.5833 27.6592 86.0012 27.5046C83.8622 26.9297 75.3145 26.9297 75.3145 26.9297C75.3145 26.9297 66.7668 26.9297 64.6362 27.5046C64.055 27.6626 63.5255 27.9708 63.1011 28.3982C62.6766 28.8256 62.3721 29.3572 62.2182 29.9396C61.4629 34.3206 61.4629 38.7986 62.2182 43.1796C62.3737 43.7612 62.6787 44.2919 63.1029 44.7191C63.5271 45.1463 64.0557 45.455 64.6362 45.6146C66.7668 46.1895 75.3145 46.1895 75.3145 46.1895C75.3145 46.1895 83.8622 46.1895 86.0012 45.6146C86.5809 45.4552 87.1086 45.1465 87.5315 44.7191C87.9543 44.2918 88.2576 43.7609 88.4108 43.1796C89.1774 38.7995 89.1774 34.3196 88.4108 29.9396Z" fill="white"/>
<path d="M72.5244 40.6276V32.4941L79.6686 36.5609L72.5244 40.6276Z" fill="#263238"/>
<path d="M72.3891 311.297C67.0381 311.297 61.8073 312.884 57.3582 315.856C52.909 318.829 49.4413 323.055 47.3936 327.998C45.3458 332.942 44.81 338.382 45.854 343.63C46.8979 348.878 49.4746 353.699 53.2583 357.483C57.0421 361.266 61.8628 363.843 67.111 364.887C72.3591 365.931 77.799 365.395 82.7426 363.347C87.6863 361.3 91.9117 357.832 94.8845 353.383C97.8574 348.934 99.4441 343.703 99.4441 338.352C99.4441 331.176 96.5937 324.295 91.5199 319.221C86.4461 314.147 79.5646 311.297 72.3891 311.297Z" fill="#263238"/>
<path d="M67.8321 355.698H74.8326V338.171H79.7109L80.2351 332.304H74.8326V328.922C74.8326 327.535 75.1031 326.994 76.4474 326.994H80.2351V320.898H75.3906C70.1825 320.898 67.8321 323.198 67.8321 327.586V332.262H64.1881V338.18H67.8321V355.698Z" fill="white"/>
<path d="M307.201 284.332C303.119 284.33 299.127 285.54 295.732 287.807C292.337 290.074 289.69 293.297 288.127 297.068C286.564 300.84 286.155 304.99 286.951 308.994C287.747 312.998 289.713 316.676 292.6 319.563C295.486 322.45 299.164 324.416 303.169 325.212C307.173 326.008 311.323 325.598 315.094 324.035C318.866 322.472 322.089 319.826 324.356 316.43C326.623 313.035 327.832 309.044 327.831 304.961C327.824 299.492 325.648 294.249 321.781 290.382C317.914 286.514 312.67 284.339 307.201 284.332Z" fill="#263238"/>
<path d="M307.201 295.114C310.414 295.114 310.794 295.114 312.063 295.181C312.825 295.191 313.58 295.332 314.295 295.596C314.813 295.791 315.283 296.097 315.673 296.492C316.073 296.88 316.38 297.354 316.569 297.878C316.838 298.592 316.978 299.348 316.983 300.11C317.042 301.379 317.059 301.801 317.059 304.963C317.059 308.125 317.059 308.557 316.983 309.825C316.978 310.587 316.838 311.343 316.569 312.057C316.381 312.58 316.075 313.051 315.673 313.435C315.286 313.835 314.815 314.144 314.295 314.34C313.58 314.604 312.825 314.744 312.063 314.754C310.794 314.813 310.414 314.822 307.201 314.822C303.988 314.822 303.608 314.822 302.34 314.754C301.578 314.743 300.823 314.602 300.108 314.34C299.587 314.144 299.116 313.835 298.73 313.435C298.328 313.051 298.021 312.58 297.833 312.057C297.564 311.343 297.424 310.587 297.419 309.825C297.36 308.557 297.343 308.176 297.343 304.963C297.343 301.751 297.343 301.379 297.419 300.11C297.424 299.348 297.564 298.592 297.833 297.878C298.023 297.354 298.329 296.88 298.73 296.492C299.119 296.097 299.589 295.791 300.108 295.596C300.823 295.333 301.578 295.193 302.34 295.181C303.608 295.122 303.988 295.114 307.201 295.114ZM307.201 292.949C303.938 292.949 303.523 292.949 302.247 293.017C301.266 293.031 300.295 293.208 299.372 293.541C298.573 293.849 297.847 294.322 297.241 294.927C296.636 295.533 296.163 296.259 295.855 297.058C295.507 297.992 295.319 298.978 295.297 299.975C295.238 301.26 295.221 301.666 295.221 304.93C295.221 308.193 295.221 308.607 295.297 309.892C295.319 310.889 295.507 311.875 295.855 312.809C296.158 313.616 296.628 314.35 297.234 314.964C297.84 315.577 298.569 316.056 299.372 316.369C300.306 316.718 301.292 316.907 302.289 316.927C303.566 316.986 303.98 316.994 307.244 316.994C310.507 316.994 310.921 316.994 312.198 316.927C313.195 316.907 314.181 316.718 315.115 316.369C315.914 316.06 316.64 315.588 317.246 314.982C317.851 314.377 318.324 313.651 318.632 312.852C318.98 311.917 319.168 310.931 319.19 309.935C319.249 308.65 319.266 308.244 319.266 304.972C319.266 301.7 319.266 301.302 319.19 300.017C319.168 299.021 318.98 298.035 318.632 297.1C318.324 296.301 317.851 295.575 317.246 294.97C316.64 294.364 315.914 293.892 315.115 293.583C314.181 293.234 313.195 293.045 312.198 293.025C310.921 292.966 310.507 292.958 307.244 292.958" fill="white"/>
<path d="M307.201 298.793C305.978 298.791 304.782 299.153 303.764 299.831C302.747 300.509 301.953 301.475 301.485 302.604C301.016 303.734 300.893 304.977 301.131 306.177C301.369 307.377 301.958 308.479 302.823 309.344C303.687 310.208 304.79 310.797 305.989 311.035C307.189 311.274 308.432 311.15 309.562 310.682C310.692 310.213 311.657 309.419 312.335 308.402C313.014 307.384 313.375 306.188 313.373 304.965C313.373 303.328 312.723 301.758 311.565 300.601C310.408 299.443 308.838 298.793 307.201 298.793ZM307.201 308.939C306.409 308.939 305.634 308.704 304.975 308.263C304.316 307.823 303.802 307.197 303.499 306.465C303.195 305.732 303.116 304.927 303.271 304.149C303.425 303.372 303.807 302.658 304.368 302.097C304.928 301.537 305.642 301.155 306.419 301.001C307.197 300.846 308.003 300.925 308.735 301.229C309.467 301.532 310.093 302.046 310.533 302.705C310.974 303.364 311.209 304.138 311.209 304.931C311.209 305.994 310.787 307.013 310.035 307.765C309.283 308.516 308.264 308.939 307.201 308.939Z" fill="white"/>
<path d="M315.064 298.547C315.066 298.833 314.982 299.113 314.824 299.352C314.667 299.591 314.441 299.778 314.177 299.888C313.913 299.999 313.622 300.029 313.341 299.974C313.06 299.919 312.802 299.782 312.599 299.58C312.396 299.379 312.257 299.121 312.201 298.84C312.144 298.56 312.173 298.269 312.282 298.004C312.391 297.739 312.576 297.513 312.814 297.354C313.052 297.194 313.332 297.109 313.618 297.109C314 297.109 314.367 297.261 314.638 297.53C314.908 297.799 315.062 298.165 315.064 298.547Z" fill="white"/>
<path d="M314.743 119.914C306.446 119.914 298.489 116.619 292.623 110.752C286.756 104.885 283.46 96.9286 283.46 88.632C283.46 80.3354 286.756 72.3786 292.623 66.512C298.489 60.6454 306.446 57.3496 314.743 57.3496C323.039 57.3496 330.996 60.6454 336.863 66.512C342.729 72.3786 346.025 80.3354 346.025 88.632C346.025 96.9286 342.729 104.885 336.863 110.752C330.996 116.619 323.039 119.914 314.743 119.914Z" fill="#263238" stroke="#263238" stroke-linecap="round" stroke-linejoin="round"/>
<path d="M298.087 99.1245C301.212 101.131 304.849 102.196 308.562 102.194C321.244 102.194 328.422 91.473 328.008 81.86C329.333 80.888 330.477 79.692 331.39 78.326C330.144 78.8782 328.821 79.2402 327.467 79.3997C328.892 78.5453 329.959 77.2023 330.468 75.6205C329.129 76.4267 327.663 76.9986 326.131 77.3114C325.102 76.2134 323.738 75.4858 322.253 75.2413C320.768 74.9967 319.244 75.249 317.916 75.9588C316.589 76.6687 315.533 77.7967 314.912 79.1678C314.291 80.5389 314.139 82.0766 314.481 83.5425C311.763 83.4085 309.105 82.7038 306.678 81.4744C304.251 80.2449 302.111 78.5183 300.395 76.4068C299.521 77.911 299.253 79.6917 299.646 81.3865C300.039 83.0813 301.062 84.5627 302.509 85.5294C301.425 85.4962 300.365 85.2064 299.414 84.6839C299.402 86.2716 299.942 87.8143 300.941 89.0481C301.94 90.2819 303.337 91.1301 304.893 91.4477C303.89 91.7223 302.836 91.7599 301.816 91.5576C302.25 92.9171 303.099 94.1065 304.244 94.9587C305.389 95.8109 306.772 96.2832 308.199 96.3091C305.332 98.5447 301.697 99.5567 298.087 99.1245Z" fill="white"/>
<path d="M69.5313 146.199C66.309 146.199 63.1591 147.155 60.4799 148.945C57.8006 150.735 55.7124 153.28 54.4793 156.257C53.2462 159.234 52.9236 162.509 53.5522 165.67C54.1808 168.83 55.7325 171.733 58.011 174.012C60.2895 176.29 63.1925 177.842 66.3529 178.471C69.5133 179.099 72.7891 178.777 75.7661 177.543C78.7431 176.31 81.2876 174.222 83.0778 171.543C84.868 168.864 85.8235 165.714 85.8235 162.491C85.819 158.172 84.1011 154.03 81.0467 150.976C77.9923 147.922 73.8509 146.204 69.5313 146.199Z" fill="#808080"/>
<path d="M64.7799 158.223H61.1951V169.797H64.7799V158.223Z" fill="white"/>
<path d="M62.9705 156.71C63.3943 156.713 63.8095 156.59 64.1635 156.357C64.5175 156.124 64.7943 155.792 64.9588 155.401C65.1233 155.01 65.168 154.58 65.0874 154.164C65.0068 153.748 64.8044 153.365 64.506 153.064C64.2075 152.763 63.8264 152.558 63.411 152.474C62.9956 152.39 62.5647 152.431 62.1728 152.593C61.781 152.754 61.4459 153.028 61.2101 153.38C60.9743 153.733 60.8484 154.147 60.8484 154.571C60.8473 154.85 60.9013 155.128 61.0074 155.387C61.1134 155.646 61.2694 155.881 61.4665 156.08C61.6635 156.278 61.8978 156.436 62.1558 156.544C62.4139 156.652 62.6907 156.709 62.9705 156.71Z" fill="white"/>
<path d="M70.5122 163.727C70.5122 162.095 71.2562 161.131 72.6935 161.131C74.1308 161.131 74.6381 162.061 74.6381 163.727V169.797H78.2059V162.492C78.2059 159.398 76.4474 157.893 73.9786 157.893C73.2815 157.884 72.5939 158.056 71.9833 158.392C71.3727 158.729 70.8599 159.218 70.4953 159.812V158.265H67.0542V169.839H70.4953L70.5122 163.727Z" fill="white"/>
<path d="M335.676 261.702C333.456 261.702 331.257 261.264 329.206 260.414C327.154 259.565 325.29 258.319 323.72 256.749C322.15 255.179 320.904 253.315 320.054 251.263C319.204 249.212 318.767 247.013 318.767 244.792C318.767 240.308 320.549 236.007 323.72 232.835C326.891 229.664 331.192 227.883 335.676 227.883C340.161 227.883 344.462 229.664 347.633 232.835C350.804 236.007 352.586 240.308 352.586 244.792C352.586 247.013 352.148 249.212 351.299 251.263C350.449 253.315 349.203 255.179 347.633 256.749C346.063 258.319 344.199 259.565 342.147 260.414C340.096 261.264 337.897 261.702 335.676 261.702Z" fill="#808080"/>
<path d="M333.191 251.203C333.678 251.111 334.138 250.909 334.535 250.611C334.875 250.355 335.162 250.037 335.381 249.673C335.738 249.109 335.923 248.454 335.913 247.787C335.929 247.174 335.768 246.569 335.448 246.046C335.122 245.552 334.64 245.183 334.079 244.997C334.422 244.837 334.73 244.61 334.983 244.329C335.368 243.829 335.563 243.209 335.533 242.579C335.548 241.933 335.356 241.298 334.983 240.77C334.61 240.33 334.136 239.986 333.602 239.767C333.068 239.547 332.489 239.459 331.914 239.51H326.182V251.347H331.5C332.067 251.358 332.634 251.31 333.191 251.203ZM328.541 241.565H331.12C331.594 241.55 332.068 241.613 332.523 241.751C332.732 241.84 332.906 241.994 333.021 242.191C333.135 242.387 333.183 242.615 333.157 242.841C333.178 243.043 333.144 243.247 333.06 243.431C332.975 243.616 332.842 243.774 332.675 243.89C332.292 244.098 331.859 244.197 331.424 244.177H328.541V241.565ZM328.541 249.309V246.147H331.458C331.861 246.13 332.264 246.196 332.641 246.341C332.885 246.449 333.089 246.63 333.225 246.859C333.361 247.087 333.423 247.353 333.402 247.618C333.434 247.915 333.376 248.215 333.236 248.478C333.096 248.742 332.88 248.958 332.616 249.098C332.236 249.254 331.826 249.327 331.415 249.309H328.541Z" fill="white"/>
<path d="M337.866 250.585C338.737 251.295 339.83 251.675 340.952 251.659C341.563 251.698 342.175 251.604 342.746 251.384C343.316 251.163 343.832 250.822 344.258 250.382C344.705 249.961 345.002 249.406 345.104 248.801H342.762C342.648 249.03 342.49 249.234 342.297 249.401C341.933 249.684 341.48 249.827 341.02 249.807C340.575 249.819 340.135 249.705 339.752 249.478C339.453 249.273 339.213 248.996 339.053 248.671C338.893 248.347 338.819 247.987 338.839 247.626H345.222C345.246 247.045 345.223 246.462 345.154 245.884C345.057 245.234 344.818 244.613 344.453 244.067C344.08 243.501 343.555 243.053 342.939 242.773C342.288 242.492 341.585 242.351 340.876 242.359C340.298 242.336 339.721 242.432 339.182 242.642C338.642 242.851 338.151 243.169 337.74 243.576C337.327 244.049 337.011 244.598 336.811 245.193C336.61 245.788 336.53 246.416 336.573 247.043C336.5 247.693 336.578 248.351 336.803 248.966C337.027 249.581 337.391 250.135 337.866 250.585ZM339.507 244.751C339.688 244.579 339.904 244.445 340.14 244.359C340.375 244.274 340.626 244.237 340.876 244.253C341.373 244.239 341.857 244.408 342.238 244.726C342.428 244.904 342.58 245.118 342.684 245.357C342.789 245.595 342.844 245.852 342.846 246.113H338.898C338.949 245.605 339.162 245.128 339.507 244.751Z" fill="white"/>
<path d="M343.303 240.184H338.145V241.384H343.303V240.184Z" fill="white"/>
<path d="M212.568 36.1879C208.083 36.1879 203.782 34.4064 200.611 31.2353C197.44 28.0641 195.658 23.7632 195.658 19.2785C195.658 14.7939 197.44 10.4929 200.611 7.32178C203.782 4.15066 208.083 2.36914 212.568 2.36914C217.052 2.36914 221.353 4.15066 224.525 7.32178C227.696 10.4929 229.477 14.7939 229.477 19.2785C229.477 23.7632 227.696 28.0641 224.525 31.2353C221.353 34.4064 217.052 36.1879 212.568 36.1879Z" fill="#808080"/>
<path fill-rule="evenodd" clip-rule="evenodd" d="M222.384 24.2244C222.185 24.1167 221.971 24.0398 221.75 23.9961C220.707 23.6396 219.796 22.9765 219.137 22.0938C218.745 21.6192 218.432 21.0856 218.207 20.5128C218.156 20.4088 218.13 20.2945 218.13 20.1788C218.13 20.0631 218.156 19.9488 218.207 19.8448C218.443 19.5716 218.755 19.3744 219.103 19.2784C219.543 19.1506 219.954 18.938 220.312 18.6527C220.388 18.5909 220.448 18.5129 220.49 18.4245C220.495 18.3993 220.495 18.3735 220.49 18.3484C220.532 18.2454 220.532 18.13 220.49 18.0271C220.395 17.8509 220.247 17.7089 220.067 17.6213C219.959 17.5564 219.837 17.5166 219.711 17.5049C219.585 17.4932 219.458 17.5098 219.34 17.5536C219.132 17.635 218.917 17.6973 218.697 17.7396C218.455 17.7956 218.204 17.7956 217.962 17.7396C217.962 17.7396 217.962 17.6466 217.962 17.579C217.962 17.1309 217.962 16.6743 217.962 16.2009C218.008 15.468 217.991 14.7326 217.911 14.0027C217.645 12.7541 216.906 11.6572 215.848 10.9421C215.096 10.4264 214.221 10.1173 213.312 10.0459C213.007 10.0459 212.711 10.0459 212.407 10.0459C211.319 9.9993 210.244 10.2893 209.327 10.8764C208.41 11.4634 207.696 12.3189 207.284 13.3263C206.994 14.1852 206.901 15.0984 207.013 15.998C207.065 16.5827 207.079 17.17 207.055 17.7565C206.776 17.805 206.49 17.805 206.21 17.7565C206.007 17.7565 205.787 17.6382 205.542 17.5705C205.429 17.5503 205.313 17.5534 205.201 17.5795C205.089 17.6057 204.983 17.6544 204.891 17.7227C204.792 17.7747 204.707 17.8507 204.645 17.9437C204.583 18.0368 204.546 18.144 204.536 18.2554V18.3061C204.563 18.4475 204.641 18.574 204.756 18.6612L204.984 18.8303C205.414 19.0773 205.871 19.2758 206.345 19.4221C206.483 19.4671 206.609 19.5419 206.714 19.6413C206.819 19.7407 206.901 19.8622 206.954 19.997C206.988 20.3639 206.902 20.732 206.709 21.0454C206.234 21.9755 205.537 22.7741 204.679 23.3705C204.214 23.6841 203.7 23.9184 203.158 24.0637C202.945 24.099 202.753 24.2101 202.617 24.3766V24.4357C202.594 24.5076 202.59 24.5841 202.605 24.6579C202.619 24.7318 202.653 24.8008 202.701 24.8585C202.763 24.9336 202.841 24.9942 202.929 25.036C203.37 25.2627 203.839 25.4278 204.324 25.5264C204.613 25.5703 204.896 25.6439 205.17 25.7462L205.263 25.983C205.347 26.2366 205.381 26.5241 205.474 26.8284C205.489 26.871 205.515 26.9089 205.549 26.9385C205.583 26.9681 205.624 26.9885 205.669 26.9975C205.774 27.0412 205.893 27.0412 205.998 26.9975C206.721 26.8212 207.472 26.7953 208.205 26.9214C208.96 27.2011 209.671 27.5853 210.319 28.0628C210.819 28.4116 211.402 28.6216 212.01 28.6715C212.477 28.7014 212.946 28.7014 213.413 28.6715C213.806 28.6327 214.184 28.5056 214.521 28.2995C215.273 27.8683 215.933 27.3611 216.668 27.0313C216.945 26.9667 217.229 26.9354 217.514 26.9383C218.121 26.9156 218.729 26.9439 219.331 27.0229C219.341 27.0268 219.351 27.0289 219.361 27.0289C219.371 27.0289 219.381 27.0268 219.391 27.0229C219.472 27.0131 219.547 26.974 219.602 26.913C219.631 26.8756 219.651 26.8323 219.661 26.7861C219.661 26.6931 219.661 26.7185 219.661 26.7861C219.665 26.7694 219.665 26.7521 219.661 26.7354C219.726 26.434 219.847 26.1473 220.016 25.89C220.067 25.8458 220.126 25.8125 220.19 25.7922C220.254 25.7718 220.321 25.7648 220.388 25.7716C220.882 25.6937 221.364 25.5575 221.826 25.3658C222.054 25.2912 222.256 25.1534 222.409 24.9684C222.442 24.9223 222.465 24.87 222.477 24.8148C222.488 24.7595 222.489 24.7023 222.478 24.6469C222.467 24.5914 222.444 24.5389 222.412 24.4924C222.38 24.4459 222.339 24.4065 222.291 24.3766L222.384 24.2244Z" fill="white"/>
<path d="M251.781 48.8535H116.463C109.683 48.8535 104.187 54.3498 104.187 61.1297V348.555C104.187 355.335 109.683 360.832 116.463 360.832H251.781C258.561 360.832 264.057 355.335 264.057 348.555V61.1297C264.057 54.3498 258.561 48.8535 251.781 48.8535Z" fill="#263238"/>
<mask id="mask0_1056_257" style="mask-type:luminance" maskUnits="userSpaceOnUse" x="104" y="48" width="161" height="313">
<path d="M251.781 48.8516H116.463C109.684 48.8516 104.187 54.3478 104.187 61.1278V348.553C104.187 355.333 109.684 360.83 116.463 360.83H251.781C258.561 360.83 264.057 355.333 264.057 348.553V61.1278C264.057 54.3478 258.561 48.8516 251.781 48.8516Z" fill="white"/>
</mask>
<g mask="url(#mask0_1056_257)">
<path opacity="0.2" d="M117.96 48.8516C114.307 48.8516 110.804 50.3026 108.221 52.8855C105.638 55.4684 104.187 58.9715 104.187 62.6243V347.048C104.185 349.064 104.626 351.056 105.48 352.882C106.333 354.709 107.577 356.325 109.125 357.617L202.397 48.8516H117.96Z" fill="white"/>
<path d="M189.546 351.804C189.546 350.728 189.227 349.677 188.629 348.782C188.031 347.888 187.182 347.191 186.188 346.78C185.194 346.369 184.1 346.262 183.046 346.472C181.991 346.683 181.022 347.201 180.262 347.962C179.502 348.724 178.985 349.693 178.776 350.748C178.568 351.803 178.676 352.897 179.089 353.89C179.502 354.883 180.2 355.731 181.095 356.328C181.99 356.924 183.042 357.242 184.118 357.24C184.831 357.24 185.538 357.099 186.197 356.826C186.856 356.553 187.455 356.152 187.959 355.647C188.463 355.142 188.863 354.543 189.135 353.883C189.407 353.224 189.547 352.517 189.546 351.804Z" stroke="white" stroke-linecap="round" stroke-linejoin="round"/>
</g>
<path d="M251.781 48.8535H116.463C109.683 48.8535 104.187 54.3498 104.187 61.1297V348.555C104.187 355.335 109.683 360.832 116.463 360.832H251.781C258.561 360.832 264.057 355.335 264.057 348.555V61.1297C264.057 54.3498 258.561 48.8535 251.781 48.8535Z" stroke="#263238" stroke-linecap="round" stroke-linejoin="round"/>
<path d="M256.938 70.041H111.289V342.316H256.938V70.041Z" fill="#2AB6C5" stroke="#263238" stroke-linecap="round" stroke-linejoin="round"/>
<path d="M181.827 287.208C218.71 287.208 248.61 257.308 248.61 220.424C248.61 183.541 218.71 153.641 181.827 153.641C144.943 153.641 115.043 183.541 115.043 220.424C115.043 257.308 144.943 287.208 181.827 287.208Z" fill="#263238"/>
<path d="M252.491 102.719H116.328V133.722H252.491V102.719Z" fill="white"/>
<path d="M252.491 306.281H116.328V337.285H252.491V306.281Z" fill="white"/>
<path d="M252.491 295.5H116.328V296.844H252.491V295.5Z" fill="white"/>
<path d="M252.491 301.562H116.328V302.907H252.491V301.562Z" fill="white"/>
<path d="M251.984 72.8652H239.91V79.4853H251.984V72.8652Z" stroke="#263238" stroke-width="0.82" stroke-linecap="round" stroke-linejoin="round"/>
<path d="M249.329 72.8652H239.91V79.4853H249.329V72.8652Z" fill="#263238" stroke="#263238" stroke-width="0.73" stroke-linecap="round" stroke-linejoin="round"/>
<path d="M253.658 74.7168H251.958V77.6337H253.658V74.7168Z" fill="#263238" stroke="#263238" stroke-width="0.73" stroke-linecap="round" stroke-linejoin="round"/>
<path d="M116.785 74.9199H114.569V78.7161H116.785V74.9199Z" fill="#263238" stroke="#263238" stroke-width="0.88" stroke-linecap="round" stroke-linejoin="round"/>
<path d="M120.268 73.584H118.053V78.716H120.268V73.584Z" fill="#263238" stroke="#263238" stroke-width="0.88" stroke-linecap="round" stroke-linejoin="round"/>
<path d="M123.743 72.0117H121.528V78.7163H123.743V72.0117Z" fill="#263238" stroke="#263238" stroke-width="0.88" stroke-linecap="round" stroke-linejoin="round"/>
<path d="M253.497 83.1621H113.64V93.6797H253.497V83.1621Z" fill="#263238"/>
<mask id="mask1_1056_257" style="mask-type:luminance" maskUnits="userSpaceOnUse" x="117" y="106" width="227" height="179">
<path d="M343.903 106.074H173.659V156.574C163.111 157.927 153.062 161.872 144.411 168.056C135.759 174.241 128.775 182.472 124.081 192.015C119.388 201.558 117.132 212.115 117.515 222.743C117.898 233.371 120.908 243.738 126.276 252.919C131.644 262.099 139.202 269.807 148.276 275.353C157.35 280.899 167.657 284.11 178.275 284.7C188.894 285.29 199.493 283.24 209.125 278.734C218.758 274.228 227.124 267.405 233.476 258.876H343.903V106.074Z" fill="white"/>
</mask>
<g mask="url(#mask1_1056_257)">
<path d="M111.678 283.393C111.678 283.393 129.5 221.335 132.865 208.07C136.23 194.805 141.32 186.172 151.821 184.067C162.322 181.962 181.708 180.009 181.708 180.009C181.708 180.009 198.558 178.318 210.767 179.163C222.976 180.009 234.144 186.536 240.037 191C245.93 195.464 262.992 210.792 262.992 210.792L260.886 175.418L276.257 176.678C276.257 176.678 287.417 225.952 288.888 235.015C290.359 244.079 290.368 248.078 288.888 249.126C287.409 250.174 289.945 250.817 276.468 246.387C262.992 241.956 247.198 235.861 238.566 233.333C229.934 230.805 228.877 230.382 228.877 230.382C228.877 230.382 207.74 262.188 201.019 271.666C196.405 278.396 192.302 285.461 188.742 292.803" fill="white"/>
<mask id="mask2_1056_257" style="mask-type:luminance" maskUnits="userSpaceOnUse" x="111" y="175" width="179" height="118">
<path d="M111.678 283.397C111.678 283.397 129.5 221.339 132.865 208.074C136.23 194.808 141.32 186.176 151.821 184.071C162.322 181.966 181.708 180.013 181.708 180.013C181.708 180.013 198.558 178.322 210.767 179.167C222.976 180.013 234.144 186.54 240.037 191.004C245.93 195.468 262.992 210.796 262.992 210.796L260.886 175.422L276.257 176.682C276.257 176.682 287.417 225.956 288.888 235.019C290.359 244.082 290.368 248.081 288.888 249.13C287.409 250.178 289.945 250.821 276.468 246.391C262.992 241.96 247.198 235.864 238.566 233.337C229.934 230.809 228.877 230.386 228.877 230.386C228.877 230.386 207.74 262.192 201.019 271.67C196.405 278.4 192.302 285.465 188.742 292.807" fill="white"/>
</mask>
<g mask="url(#mask2_1056_257)">
<path opacity="0.2" d="M288.863 249.062C290.343 248.013 290.343 243.989 288.863 234.951C288.018 229.548 283.663 209.84 280.315 194.808C281.643 212.563 282.158 229.912 279.47 233.15C273.552 240.15 264.902 230.952 264.902 230.952L263.254 217.306C263.254 217.306 233.781 195.569 222.722 191.882C211.663 188.196 199.894 187.461 188.455 191.147C177.016 194.833 167.454 198.519 160.453 205.52C153.453 212.52 129.171 268.524 129.171 268.524L126.423 285.155L188.717 292.696C192.276 285.354 196.38 278.289 200.993 271.559C207.757 262.082 228.852 230.275 228.852 230.275C228.852 230.275 229.908 230.698 238.541 233.226C247.173 235.754 262.966 241.858 276.443 246.28C289.92 250.702 287.392 250.118 288.863 249.062Z" fill="black"/>
</g>
<path d="M111.678 283.393C111.678 283.393 129.5 221.335 132.865 208.07C136.23 194.805 141.32 186.172 151.821 184.067C162.322 181.962 181.708 180.009 181.708 180.009C181.708 180.009 198.558 178.318 210.767 179.163C222.976 180.009 234.144 186.536 240.037 191C245.93 195.464 262.992 210.792 262.992 210.792L260.886 175.418L276.257 176.678C276.257 176.678 287.417 225.952 288.888 235.015C290.359 244.079 290.368 248.078 288.888 249.126C287.409 250.174 289.945 250.817 276.468 246.387C262.992 241.956 247.198 235.861 238.566 233.333C229.934 230.805 228.877 230.382 228.877 230.382C228.877 230.382 207.74 262.188 201.019 271.666C196.405 278.396 192.302 285.461 188.742 292.803" stroke="#263238" stroke-linecap="round" stroke-linejoin="round"/>
<path d="M234.863 220.551L228.852 230.324L246.64 220.551" stroke="#263238" stroke-linecap="round" stroke-linejoin="round"/>
<path d="M262.966 210.734C262.966 210.734 263.812 228.21 264.86 230.95C265.909 233.689 270.55 234.949 270.55 234.949" fill="white"/>
<path d="M262.966 210.734C262.966 210.734 263.812 228.21 264.86 230.95C265.909 233.689 270.55 234.949 270.55 234.949" stroke="#263238" stroke-linecap="round" stroke-linejoin="round"/>
<path d="M170.176 210.201C170.176 210.201 167.876 215.655 169.026 215.655C170.176 215.655 177.642 212.788 181.091 212.788C184.541 212.788 188.269 218.817 188.269 218.817C188.269 218.817 198.322 211.351 201.484 212.214C203.032 212.732 204.453 213.574 205.652 214.682C205.852 214.857 206.097 214.971 206.359 215.011C206.62 215.052 206.889 215.018 207.132 214.913C207.375 214.807 207.584 214.635 207.733 214.417C207.883 214.198 207.967 213.941 207.977 213.676C208.036 212.129 208.087 210.015 208.087 207.327C208.087 201.011 202.634 183.78 192.581 182.918C182.528 182.056 180.804 189.234 176.517 197.849C172.231 206.464 170.176 210.201 170.176 210.201Z" fill="#263238"/>
<path d="M191.795 173.045C191.795 173.045 182.106 174.33 177.684 178.557C173.262 182.785 174.733 189.506 172.416 195.611C170.1 201.715 166.101 214.143 168.189 213.932C170.277 213.72 177.667 207.828 179.772 209.299C181.877 210.77 186.722 216.908 187.567 217.297C188.413 217.686 199.15 209.933 200.621 209.087C202.092 208.242 209.254 217.542 209.465 215.006C209.676 212.469 210.099 197.53 208.619 188.475C207.14 179.42 196.639 173.256 191.795 173.045Z" fill="white" stroke="#263238" stroke-linecap="round" stroke-linejoin="round"/>
<path d="M195.16 161.25C195.16 161.25 191.583 172.199 188.616 176.02C185.648 179.842 184.388 180.442 183.357 189.286C182.325 198.129 186.933 218.133 188.43 217.71C189.926 217.288 204.434 194.13 209.279 190.334C214.124 186.538 219.179 182.547 219.179 182.547C219.179 182.547 207.385 178.963 203.386 173.915C200.364 169.882 197.616 165.651 195.16 161.25Z" fill="white"/>
<mask id="mask3_1056_257" style="mask-type:luminance" maskUnits="userSpaceOnUse" x="183" y="161" width="37" height="57">
<path d="M195.16 161.25C195.16 161.25 191.583 172.199 188.616 176.02C185.648 179.842 184.388 180.442 183.357 189.286C182.325 198.129 186.933 218.133 188.43 217.71C189.926 217.288 204.434 194.13 209.279 190.334C214.124 186.538 219.179 182.547 219.179 182.547C219.179 182.547 207.385 178.963 203.386 173.915C200.364 169.882 197.616 165.651 195.16 161.25Z" fill="white"/>
</mask>
<g mask="url(#mask3_1056_257)">
<path opacity="0.2" d="M211.367 188.702C215.468 185.481 219.171 182.555 219.171 182.555C219.171 182.555 207.377 178.97 203.378 173.923C200.359 169.898 197.614 165.675 195.16 161.283C193.933 164.99 192.502 168.625 190.873 172.173C192.657 177.17 197.628 185.32 211.367 188.702Z" fill="black"/>
<path d="M203.378 173.89C200.359 169.865 197.614 165.642 195.16 161.25C195.16 161.25 193.959 164.928 192.378 168.758C193.689 172.554 196.318 178.202 201.027 181.533C204.835 184.073 209.059 185.928 213.506 187.011L219.171 182.547C219.171 182.547 207.377 178.937 203.378 173.89Z" fill="#263238"/>
</g>
<path d="M195.16 161.25C195.16 161.25 191.583 172.199 188.616 176.02C185.648 179.842 184.388 180.442 183.357 189.286C182.325 198.129 186.933 218.133 188.43 217.71C189.926 217.288 204.434 194.13 209.279 190.334C214.124 186.538 219.179 182.547 219.179 182.547C219.179 182.547 207.385 178.963 203.386 173.915C200.364 169.882 197.616 165.651 195.16 161.25Z" stroke="#263238" stroke-linecap="round" stroke-linejoin="round"/>
<path d="M240.012 133.249C240.012 133.249 239.386 147.36 239.8 151.985C240.215 156.61 241.906 164.667 238.109 172.2C234.313 179.733 231.16 184.628 227.583 185.888C224.007 187.148 212.424 184.628 203.158 177.679C193.891 170.729 192.209 156.415 190.729 151.782C189.25 147.149 190.941 131.355 200.418 126.3C208.092 122.35 216.995 121.52 225.267 123.983C230.331 125.665 240.012 133.249 240.012 133.249Z" fill="white"/>
<mask id="mask4_1056_257" style="mask-type:luminance" maskUnits="userSpaceOnUse" x="190" y="122" width="51" height="65">
<path d="M240.012 133.247C240.012 133.247 239.386 147.358 239.8 151.983C240.215 156.608 241.906 164.665 238.109 172.198C234.313 179.731 231.16 184.626 227.583 185.886C224.007 187.146 212.424 184.626 203.158 177.677C193.891 170.727 192.209 156.413 190.729 151.78C189.25 147.147 190.941 131.353 200.418 126.298C208.092 122.348 216.995 121.518 225.267 123.981C230.331 125.663 240.012 133.247 240.012 133.247Z" fill="white"/>
</mask>
<g mask="url(#mask4_1056_257)">
<path opacity="0.2" d="M200.452 126.294C199.101 127.026 197.876 127.971 196.825 129.093L201.704 132.559C201.704 132.559 207.968 126.294 221.995 135.138C229.232 139.704 235.472 140.439 239.826 140.076C239.927 136.322 240.062 133.244 240.062 133.244C240.062 133.244 230.382 125.635 225.326 123.944C217.042 121.484 208.128 122.327 200.452 126.294Z" fill="black"/>
</g>
<path d="M240.012 133.249C240.012 133.249 239.386 147.36 239.8 151.985C240.215 156.61 241.906 164.667 238.109 172.2C234.313 179.733 231.16 184.628 227.583 185.888C224.007 187.148 212.424 184.628 203.158 177.679C193.891 170.729 192.209 156.415 190.729 151.782C189.25 147.149 190.941 131.355 200.418 126.3C208.092 122.35 216.995 121.52 225.267 123.983C230.331 125.665 240.012 133.249 240.012 133.249Z" stroke="#263238" stroke-linecap="round" stroke-linejoin="round"/>
<path d="M220.126 152.279C220.126 153.776 219.543 154.993 218.824 154.993C218.106 154.993 217.522 153.776 217.522 152.279C217.522 150.783 218.106 149.557 218.824 149.557C219.543 149.557 220.126 150.774 220.126 152.279Z" fill="#263238"/>
<path d="M235.505 153.691C235.505 155.195 234.922 156.413 234.203 156.413C233.485 156.413 232.901 155.195 232.901 153.691C232.901 152.186 233.485 150.977 234.203 150.977C234.922 150.977 235.505 152.194 235.505 153.691Z" fill="#263238"/>
<path d="M231.379 149.676C231.379 149.676 227.38 153.675 228.429 155.357C229.477 157.04 231.929 157.987 231.168 160.43C230.407 162.874 224.852 163.812 222.959 160.43" stroke="#263238" stroke-linecap="round" stroke-linejoin="round"/>
<path d="M210.953 162.729C212.523 164.634 214.482 166.183 216.698 167.272C218.914 168.361 221.336 168.965 223.804 169.044C223.804 169.044 215.163 174.726 211.376 174.117C207.588 173.508 210.953 162.729 210.953 162.729Z" fill="#263238" stroke="#263238" stroke-linecap="round" stroke-linejoin="round"/>
<path d="M212.974 144.247C212.974 144.247 216.643 139.174 223.965 142.328" stroke="#263238" stroke-linecap="round" stroke-linejoin="round"/>
<path d="M232.851 144.409C232.851 144.409 237.484 143.343 239.166 147.791" stroke="#263238" stroke-linecap="round" stroke-linejoin="round"/>
<path d="M192.217 157.462C192.217 157.462 194.111 149.252 198.744 146.301C203.377 143.351 207.799 143.985 205.06 139.986C202.321 135.987 200.833 131.979 206.751 130.085C212.669 128.191 224.227 131.353 230.965 133.881C237.704 136.409 250.758 137.263 254.131 127.769C256.211 121.918 250.123 117.259 245.676 114.867C240.747 112.229 235.218 110.918 229.655 111.899C226.273 112.483 223.052 113.81 219.67 114.148C213.946 114.732 208.898 112.077 203.191 113.455C198.401 114.598 194.113 117.269 190.974 121.064C185.69 127.557 184.211 139.352 192.217 157.462Z" fill="#263238"/>
<mask id="mask5_1056_257" style="mask-type:luminance" maskUnits="userSpaceOnUse" x="186" y="111" width="69" height="47">
<path d="M192.217 157.462C192.217 157.462 194.111 149.252 198.744 146.301C203.377 143.351 207.799 143.985 205.06 139.986C202.321 135.987 200.833 131.979 206.751 130.085C212.669 128.191 224.227 131.353 230.965 133.881C237.703 136.409 250.757 137.263 254.131 127.769C256.211 121.918 250.123 117.259 245.676 114.867C240.747 112.229 235.218 110.918 229.655 111.899C226.273 112.483 223.051 113.81 219.67 114.148C213.946 114.732 208.898 112.077 203.191 113.455C198.401 114.598 194.113 117.269 190.974 121.064C185.69 127.557 184.211 139.352 192.217 157.462Z" fill="white"/>
</mask>
<g mask="url(#mask5_1056_257)">
<path d="M240.975 111.502C240.975 111.502 251.916 117.42 244.256 127.253C236.596 137.086 229.384 130.322 211.215 126.822C193.046 123.322 182.334 132.292 182.334 132.292" stroke="#808080" stroke-linecap="round" stroke-linejoin="round"/>
<path d="M183.864 143.046C183.864 143.046 187.364 136.282 198.744 134.295C210.124 132.309 210.784 134.076 210.784 134.076" stroke="#808080" stroke-linecap="round" stroke-linejoin="round"/>
</g>
<path d="M192.217 157.462C192.217 157.462 194.111 149.252 198.744 146.301C203.377 143.351 207.799 143.985 205.06 139.986C202.321 135.987 200.833 131.979 206.751 130.085C212.669 128.191 224.227 131.353 230.965 133.881C237.704 136.409 250.758 137.263 254.131 127.769C256.211 121.918 250.123 117.259 245.676 114.867C240.747 112.229 235.218 110.918 229.655 111.899C226.273 112.483 223.052 113.81 219.67 114.148C213.946 114.732 208.898 112.077 203.191 113.455C198.401 114.598 194.113 117.269 190.974 121.064C185.69 127.557 184.211 139.352 192.217 157.462Z" stroke="#263238" stroke-linecap="round" stroke-linejoin="round"/>
<path d="M196.977 154.47C196.977 154.47 191.516 141.966 186.705 148.476C181.894 154.986 190.611 163.221 197.155 161.623" fill="white"/>
<path d="M196.977 154.47C196.977 154.47 191.516 141.966 186.705 148.476C181.894 154.986 190.611 163.221 197.155 161.623" stroke="#263238" stroke-linecap="round" stroke-linejoin="round"/>
<path d="M256.439 153.041C256.439 153.041 252.863 152.619 252.212 155.578C251.561 158.537 250.944 163.187 252.212 163.187C253.48 163.187 255.788 162.561 256.634 160.651C257.479 158.74 258.325 152.855 258.325 152.855L256.439 153.041Z" fill="white" stroke="#263238" stroke-linecap="round" stroke-linejoin="round"/>
<path d="M262.121 151.984C262.121 151.984 257.048 151.139 256.439 153.041C255.83 154.943 254.968 161.496 255.594 161.673C256.219 161.851 260.016 160.202 260.016 160.202L262.121 151.984Z" fill="white" stroke="#263238" stroke-linecap="round" stroke-linejoin="round"/>
<path d="M268.859 152.407C268.859 152.407 262.941 148.619 261.495 150.513C260.049 152.407 260.016 160.202 260.016 160.202C260.539 160.317 261.083 160.301 261.598 160.153C262.113 160.005 262.584 159.732 262.966 159.356C264.023 158.097 265.283 156.414 265.283 156.414C265.283 156.414 269.51 157.462 270.127 157.26C270.745 157.057 272.233 157.26 271.818 155.154C271.404 153.049 268.859 152.407 268.859 152.407Z" fill="white" stroke="#263238" stroke-linecap="round" stroke-linejoin="round"/>
<path d="M276.866 156.202C274.208 154.365 272.04 151.907 270.55 149.041C268.445 144.619 267.388 144.814 266.323 146.724C265.257 148.635 266.526 150.512 267.371 152.195C268.217 153.877 271.793 157.885 271.793 157.885L276.866 156.202Z" fill="white" stroke="#263238" stroke-linecap="round" stroke-linejoin="round"/>
<path d="M238.989 185.66C238.989 185.66 235.937 211.726 236.41 213.138C236.883 214.55 242.041 216.19 243.216 215.252C244.391 214.313 243.689 212.436 243.216 211.261C242.743 210.086 247.207 188.247 247.207 188.247L238.989 185.66Z" fill="#2AB6C5" stroke="#263238" stroke-linecap="round" stroke-linejoin="round"/>
<path d="M162.093 194.689L177.548 242.957C177.548 242.957 213.058 222.277 221.378 211.488C229.697 200.7 234.499 188.534 237.441 187.393C240.384 186.251 250.766 189.083 252.288 190.774C253.81 192.465 253.455 194.317 251.612 196.059C249.768 197.8 248.72 198.045 248.72 198.045C248.72 198.045 248.627 201.842 247.798 202.501C246.97 203.161 247.164 202.307 246.953 203.152C246.809 204.056 246.478 204.92 245.981 205.688C245.372 206.534 245.135 206.974 244.552 207.202C243.341 207.718 242.08 208.109 240.789 208.369C238.517 208.955 236.206 209.378 233.874 209.637C232.411 209.89 222.882 228.719 213.937 239.938C204.992 251.158 176.737 276.885 172.298 277.021C167.859 277.156 141.785 234.088 136.197 223.511" fill="white"/>
<mask id="mask6_1056_257" style="mask-type:luminance" maskUnits="userSpaceOnUse" x="136" y="187" width="118" height="91">
<path d="M162.093 194.685L177.548 242.953C177.548 242.953 213.058 222.273 221.378 211.485C229.697 200.696 234.499 188.53 237.441 187.389C240.384 186.247 250.766 189.08 252.288 190.771C253.81 192.461 253.455 194.313 251.612 196.055C249.768 197.796 248.72 198.042 248.72 198.042C248.72 198.042 248.627 201.838 247.798 202.497C246.97 203.157 247.164 202.303 246.953 203.148C246.809 204.052 246.478 204.916 245.981 205.685C245.372 206.53 245.135 206.97 244.552 207.198C243.341 207.714 242.08 208.105 240.789 208.365C238.517 208.951 236.206 209.374 233.874 209.633C232.411 209.887 222.882 228.715 213.937 239.935C204.992 251.154 176.737 276.882 172.298 277.017C167.859 277.152 141.785 234.084 136.197 223.507" fill="white"/>
</mask>
<g mask="url(#mask6_1056_257)">
<path opacity="0.2" d="M245.981 205.667C246.478 204.899 246.809 204.035 246.953 203.131C247.139 202.285 246.953 203.131 247.799 202.48C248.644 201.829 248.72 198.024 248.72 198.024C248.72 198.024 249.769 197.779 251.612 196.037C253.455 194.296 253.818 192.393 252.288 190.753C250.758 189.113 240.358 186.272 237.442 187.371C236.681 187.667 235.751 188.724 234.736 190.314C236.283 192.85 238.118 194.397 236.427 198.827C233.891 205.591 227.972 214.046 222.9 221.232C217.827 228.419 175.553 268.156 170.48 267.31C166.338 266.617 154.307 252.092 150.029 246.825C159.193 261.527 169.677 277.059 172.34 276.983C176.762 276.847 205.052 251.128 213.98 239.9C222.908 228.672 232.411 209.835 233.874 209.616C236.206 209.357 238.517 208.933 240.79 208.347C242.08 208.087 243.341 207.696 244.552 207.181C245.178 206.952 245.372 206.53 245.981 205.667Z" fill="black"/>
</g>
<path d="M162.093 194.689L177.548 242.957C177.548 242.957 213.058 222.277 221.378 211.488C229.697 200.7 234.499 188.534 237.441 187.393C240.384 186.251 250.766 189.083 252.288 190.774C253.81 192.465 253.455 194.317 251.612 196.059C249.768 197.8 248.72 198.045 248.72 198.045C248.72 198.045 248.627 201.842 247.798 202.501C246.97 203.161 247.164 202.307 246.953 203.152C246.809 204.056 246.478 204.92 245.981 205.688C245.372 206.534 245.135 206.974 244.552 207.202C243.341 207.718 242.08 208.109 240.789 208.369C238.517 208.955 236.206 209.378 233.874 209.637C232.411 209.89 222.882 228.719 213.937 239.938C204.992 251.158 176.737 276.885 172.298 277.021C167.859 277.156 141.785 234.088 136.197 223.511" stroke="#263238" stroke-linecap="round" stroke-linejoin="round"/>
<path d="M177.548 242.953C177.548 242.953 173.499 243.122 170.066 253.944" stroke="#263238" stroke-linecap="round" stroke-linejoin="round"/>
<path d="M240.79 208.351C242.08 208.091 243.341 207.7 244.552 207.184C245.178 206.956 245.397 206.534 245.981 205.671C246.478 204.903 246.809 204.039 246.953 203.135C247.139 202.289 247.689 202.002 248.509 201.342C249.329 200.683 248.695 198.028 248.695 198.028C248.695 198.028 249.743 197.783 251.586 196.041C253.429 194.3 253.793 192.397 252.263 190.757C250.732 189.117 240.333 186.276 237.416 187.375C234.499 188.474 230.086 199.694 222.434 210.118L229.553 215.952C231.785 212.232 233.375 209.712 233.899 209.619C236.223 209.36 238.526 208.936 240.79 208.351Z" fill="white"/>
<mask id="mask7_1056_257" style="mask-type:luminance" maskUnits="userSpaceOnUse" x="222" y="187" width="32" height="29">
<path d="M240.79 208.347C242.08 208.087 243.341 207.696 244.552 207.181C245.178 206.952 245.397 206.53 245.981 205.667C246.478 204.899 246.809 204.035 246.953 203.131C247.139 202.285 247.689 201.998 248.509 201.338C249.329 200.679 248.695 198.024 248.695 198.024C248.695 198.024 249.743 197.779 251.586 196.037C253.429 194.296 253.793 192.393 252.263 190.753C250.732 189.113 240.333 186.272 237.416 187.371C234.499 188.47 230.086 199.69 222.434 210.114L229.553 215.948C231.785 212.228 233.375 209.709 233.899 209.616C236.223 209.356 238.526 208.932 240.79 208.347Z" fill="white"/>
</mask>
<g mask="url(#mask7_1056_257)">
<path opacity="0.2" d="M245.981 205.667C246.478 204.899 246.809 204.035 246.953 203.131C247.139 202.285 246.953 203.131 247.799 202.48C248.644 201.829 248.72 198.024 248.72 198.024C248.72 198.024 249.769 197.779 251.612 196.037C253.455 194.296 253.818 192.393 252.288 190.753C250.758 189.113 240.358 186.272 237.442 187.371C236.681 187.667 235.751 188.724 234.736 190.314C236.283 192.85 238.118 194.397 236.427 198.827C233.891 205.591 227.972 214.046 222.9 221.232C217.827 228.419 175.553 268.156 170.48 267.31C166.338 266.617 154.307 252.092 150.029 246.825C159.193 261.527 169.677 277.059 172.34 276.983C176.762 276.847 205.052 251.128 213.98 239.9C222.908 228.672 232.411 209.835 233.874 209.616C236.206 209.357 238.517 208.933 240.79 208.347C242.08 208.087 243.341 207.696 244.552 207.181C245.178 206.952 245.372 206.53 245.981 205.667Z" fill="black"/>
</g>
<path d="M240.79 208.351C242.08 208.091 243.341 207.7 244.552 207.184C245.178 206.956 245.397 206.534 245.981 205.671C246.478 204.903 246.809 204.039 246.953 203.135C247.139 202.289 247.689 202.002 248.509 201.342C249.329 200.683 248.695 198.028 248.695 198.028C248.695 198.028 249.743 197.783 251.586 196.041C253.429 194.3 253.793 192.397 252.263 190.757C250.732 189.117 240.333 186.276 237.416 187.375C234.499 188.474 230.086 199.694 222.434 210.118L229.553 215.952C231.785 212.232 233.375 209.712 233.899 209.619C236.223 209.36 238.526 208.936 240.79 208.351Z" stroke="#263238" stroke-linecap="round" stroke-linejoin="round"/>
<path d="M231.591 168.622C229.266 168.622 227.364 172.004 227.364 176.096C227.364 180.188 229.249 183.57 231.591 183.57L283.164 199.152V152.406L231.591 168.622Z" fill="#2AB6C5" stroke="#263238" stroke-linecap="round" stroke-linejoin="round"/>
<path d="M260.607 162.4L240.485 168.192" stroke="#263238" stroke-linecap="round" stroke-linejoin="round"/>
<path d="M267.337 160.465L263.127 161.682" stroke="#263238" stroke-linecap="round" stroke-linejoin="round"/>
<path d="M238.194 166.543L231.591 168.623C229.266 168.623 227.364 172.005 227.364 176.097C227.364 180.189 229.249 183.571 231.591 183.571L237.551 185.372C236.15 182.409 235.478 179.155 235.589 175.879C235.701 172.604 236.594 169.403 238.194 166.543Z" fill="#263238" stroke="#263238" stroke-linecap="round" stroke-linejoin="round"/>
<path d="M287.603 207.488C297.372 207.488 305.29 193.433 305.29 176.095C305.29 158.758 297.372 144.703 287.603 144.703C277.835 144.703 269.916 158.758 269.916 176.095C269.916 193.433 277.835 207.488 287.603 207.488Z" fill="#D6D6D6" stroke="#263238" stroke-linecap="round" stroke-linejoin="round"/>
<path d="M287.603 169.129L270.753 164.623L269.282 176.629L271.176 188.837L287.603 183.063L288.237 169.468" fill="#D6D6D6"/>
<path d="M287.603 169.129L270.753 164.623L269.282 176.629L271.176 188.837L287.603 183.063L288.237 169.468" stroke="#263238" stroke-linecap="round" stroke-linejoin="round"/>
<path d="M287.603 141.881C276.959 141.881 268.327 157.201 268.327 176.097C268.327 194.993 276.959 210.313 287.603 210.313C298.248 210.313 306.88 194.993 306.88 176.097C306.88 157.201 298.248 141.881 287.603 141.881ZM288.077 205.46C279.208 205.46 272.013 192.313 272.013 176.097C272.013 159.881 279.208 146.742 288.077 146.742C296.946 146.742 304.141 159.881 304.141 176.097C304.141 192.313 296.954 205.46 288.077 205.46Z" fill="#263238" stroke="#263238" stroke-linecap="round" stroke-linejoin="round"/>
<path d="M287.603 183.062C289.77 183.062 291.526 179.943 291.526 176.096C291.526 172.248 289.77 169.129 287.603 169.129C285.437 169.129 283.68 172.248 283.68 176.096C283.68 179.943 285.437 183.062 287.603 183.062Z" fill="#2AB6C5" stroke="#263238" stroke-linecap="round" stroke-linejoin="round"/>
<path d="M337.317 140.604L341.231 139.387" stroke="#263238" stroke-linecap="round" stroke-linejoin="round"/>
<path d="M309.289 149.278L332.489 142.092" stroke="#263238" stroke-linecap="round" stroke-linejoin="round"/>
<path d="M312.333 174.371L333.622 175.132" stroke="#263238" stroke-linecap="round" stroke-linejoin="round"/>
<path d="M329.97 205.645L334.383 207.065" stroke="#263238" stroke-linecap="round" stroke-linejoin="round"/>
<path d="M310.811 199.465L326.469 204.521" stroke="#263238" stroke-linecap="round" stroke-linejoin="round"/>
<path d="M311.572 160.686L322.978 159.164" stroke="#263238" stroke-linecap="round" stroke-linejoin="round"/>
<path d="M306.246 207.828L314.616 214.676" stroke="#263238" stroke-linecap="round" stroke-linejoin="round"/>
</g>
</svg>
