<svg width="448" height="301" viewBox="0 0 448 301" fill="none" xmlns="http://www.w3.org/2000/svg">
<path d="M399.094 287.484C385.06 292.886 343.794 281.518 329.577 280.664L72.8178 288.465C12.7164 271.919 -37.2464 178.432 40.1864 136.791C79.2102 115.815 8.00438 43.6313 88.8013 16.4247C145.99 -2.82807 175.982 46.9712 284.86 10.8346C387.029 -23.0811 420.669 34.9372 399.087 92.7833C375.026 157.261 414.506 144.878 431.145 169.948C455.726 206.969 456.561 265.364 399.094 287.484Z" fill="#8BE1E5" fill-opacity="0.43"/>
<path d="M232.227 300.998C333.661 300.998 415.89 294.947 415.89 287.483C415.89 280.019 333.661 273.969 232.227 273.969C130.793 273.969 48.5638 280.019 48.5638 287.483C48.5638 294.947 130.793 300.998 232.227 300.998Z" fill="#ABD4D5"/>
<path d="M169.307 217.089C169.307 217.089 171.129 143.9 46.1587 161.706C46.1587 161.706 111.06 274.363 169.307 217.089Z" fill="#8BE1E5"/>
<path d="M45.9332 161.605L167.944 207.965C163.64 188.98 143.163 147.749 45.9332 161.605Z" fill="#2AB6C5"/>
<path d="M162.891 206.189C162.926 206.168 162.954 206.139 162.973 206.103C162.992 206.068 163 206.027 162.997 205.987C162.995 205.947 162.98 205.908 162.957 205.876C162.933 205.843 162.901 205.818 162.863 205.803L46.0039 161.399C45.9524 161.384 45.8971 161.389 45.8491 161.413C45.8011 161.437 45.7638 161.478 45.7447 161.528C45.7256 161.578 45.7261 161.634 45.746 161.684C45.766 161.733 45.8039 161.774 45.8524 161.797L162.712 206.201C162.741 206.212 162.772 206.216 162.803 206.214C162.834 206.212 162.864 206.203 162.891 206.189Z" fill="#060633"/>
<path d="M107.037 184.969C107.078 184.941 107.109 184.899 107.123 184.85C107.137 184.802 107.133 184.75 107.112 184.704C107.092 184.658 107.056 184.621 107.01 184.599C106.965 184.577 106.913 184.572 106.865 184.585L74.512 197.202C74.4598 197.223 74.4177 197.263 74.3951 197.314C74.3726 197.366 74.3712 197.424 74.3915 197.476C74.4119 197.529 74.4523 197.571 74.504 197.594C74.5556 197.617 74.6142 197.619 74.6669 197.598L107.019 184.981L107.037 184.969Z" fill="#060633"/>
<path d="M132.069 194.482L132.103 194.458C132.125 194.44 132.142 194.418 132.155 194.393C132.168 194.368 132.175 194.341 132.178 194.313C132.18 194.285 132.177 194.257 132.168 194.231C132.159 194.204 132.146 194.179 132.127 194.158L110.015 168.213C109.978 168.171 109.925 168.145 109.869 168.141C109.813 168.137 109.757 168.155 109.714 168.191C109.671 168.228 109.645 168.28 109.64 168.336C109.636 168.392 109.653 168.448 109.69 168.491L131.804 194.434C131.836 194.471 131.879 194.497 131.928 194.505C131.976 194.514 132.026 194.506 132.069 194.482Z" fill="#060633"/>
<path d="M191.564 230.192C191.564 230.192 160.632 155.281 42.0872 229.275C42.0872 229.275 158.248 314.262 191.564 230.192Z" fill="#8BE1E5"/>
<path d="M41.8013 229.275L186.086 221.569C173.236 204.275 134.042 171.704 41.8013 229.275Z" fill="#2AB6C5"/>
<path d="M180.188 222.034C180.215 221.998 180.231 221.955 180.234 221.91C180.238 221.865 180.228 221.821 180.207 221.781C180.186 221.741 180.154 221.709 180.115 221.687C180.076 221.665 180.031 221.654 179.986 221.657L41.8013 229.037C41.7387 229.04 41.68 229.068 41.638 229.115C41.596 229.161 41.5743 229.222 41.5775 229.285C41.5807 229.348 41.6086 229.406 41.6551 229.448C41.7015 229.49 41.7628 229.512 41.8254 229.509L180.012 222.12C180.046 222.119 180.079 222.111 180.109 222.096C180.14 222.081 180.166 222.06 180.188 222.034Z" fill="#060633"/>
<path d="M114.137 225.56C114.171 225.515 114.188 225.459 114.184 225.402C114.18 225.346 114.156 225.292 114.116 225.252C114.071 225.208 114.011 225.184 113.949 225.184C113.886 225.184 113.826 225.208 113.782 225.252L86.6786 252.514C86.6382 252.559 86.6166 252.618 86.6183 252.678C86.6199 252.739 86.6448 252.796 86.6877 252.839C86.7306 252.881 86.7882 252.906 86.8487 252.907C86.9092 252.909 86.9679 252.887 87.0126 252.846L114.109 225.583C114.12 225.577 114.129 225.57 114.137 225.56Z" fill="#060633"/>
<path d="M143.738 223.979C143.748 223.967 143.757 223.954 143.764 223.94C143.777 223.912 143.785 223.881 143.787 223.85C143.788 223.819 143.784 223.788 143.774 223.759C143.764 223.73 143.748 223.703 143.727 223.68C143.706 223.657 143.681 223.638 143.653 223.624L109.646 207.269C109.59 207.242 109.526 207.239 109.467 207.259C109.408 207.28 109.36 207.323 109.333 207.379C109.306 207.436 109.303 207.5 109.323 207.559C109.344 207.618 109.387 207.666 109.443 207.693L143.449 224.048C143.497 224.071 143.553 224.077 143.605 224.065C143.658 224.052 143.705 224.022 143.738 223.979Z" fill="#060633"/>
<path d="M286.701 199.826C286.701 199.826 270.776 134.162 386.984 125.824C386.984 125.824 350.426 240.12 286.701 199.826Z" fill="#8BE1E5"/>
<path d="M387.156 125.68L286.148 191.321C286.325 173.356 296.746 132.167 387.156 125.68Z" fill="#2AB6C5"/>
<path d="M290.362 188.739C290.317 188.727 290.279 188.698 290.254 188.658C290.24 188.637 290.23 188.612 290.225 188.587C290.22 188.562 290.221 188.536 290.226 188.51C290.231 188.485 290.241 188.461 290.256 188.44C290.27 188.419 290.289 188.4 290.311 188.386L387.055 125.516C387.098 125.488 387.152 125.478 387.203 125.489C387.254 125.499 387.298 125.53 387.327 125.573C387.355 125.617 387.365 125.67 387.355 125.721C387.344 125.772 387.314 125.817 387.27 125.845L290.526 188.72C290.502 188.735 290.474 188.745 290.446 188.748C290.418 188.751 290.389 188.748 290.362 188.739Z" fill="#060633"/>
<path d="M336.602 158.69C336.553 158.677 336.511 158.645 336.485 158.601C336.459 158.558 336.451 158.506 336.463 158.457C336.474 158.408 336.504 158.365 336.546 158.337C336.588 158.309 336.64 158.299 336.689 158.308L368.336 163.373C368.362 163.376 368.387 163.385 368.41 163.398C368.433 163.411 368.453 163.429 368.469 163.45C368.484 163.471 368.496 163.495 368.502 163.52C368.509 163.546 368.51 163.573 368.506 163.599C368.501 163.625 368.492 163.65 368.478 163.672C368.464 163.694 368.446 163.714 368.424 163.729C368.402 163.744 368.378 163.754 368.352 163.76C368.326 163.765 368.3 163.765 368.274 163.76L336.627 158.695L336.602 158.69Z" fill="#060633"/>
<path d="M315.882 172.16L315.846 172.145C315.823 172.133 315.802 172.116 315.786 172.096C315.769 172.076 315.757 172.053 315.749 172.028C315.742 172.003 315.739 171.977 315.742 171.952C315.745 171.926 315.752 171.901 315.765 171.878L330.648 144.16C330.675 144.119 330.716 144.089 330.764 144.076C330.812 144.064 330.863 144.07 330.906 144.094C330.949 144.117 330.982 144.156 330.998 144.203C331.014 144.25 331.012 144.301 330.992 144.346L316.109 172.064C316.088 172.104 316.054 172.135 316.012 172.152C315.971 172.17 315.925 172.173 315.882 172.16Z" fill="#060633"/>
<path d="M293.781 215.354C293.781 215.354 330.72 149.949 431.388 231.441C431.388 231.441 314.907 296.463 293.781 215.354Z" fill="#8BE1E5"/>
<path d="M431.646 231.469L299.793 208.038C313.578 193.585 353.322 168.062 431.646 231.469Z" fill="#2AB6C5"/>
<path d="M305.172 209.136C305.147 209.091 305.137 209.039 305.146 208.988C305.157 208.932 305.189 208.882 305.237 208.85C305.284 208.818 305.343 208.806 305.399 208.816L431.684 231.257C431.713 231.261 431.741 231.271 431.766 231.286C431.792 231.302 431.814 231.322 431.831 231.345C431.848 231.369 431.86 231.396 431.867 231.425C431.874 231.453 431.874 231.483 431.869 231.512C431.864 231.541 431.853 231.568 431.837 231.593C431.821 231.618 431.801 231.639 431.776 231.655C431.752 231.672 431.725 231.683 431.696 231.689C431.667 231.694 431.637 231.694 431.609 231.688L305.323 209.245C305.291 209.239 305.261 209.227 305.235 209.208C305.209 209.189 305.187 209.165 305.172 209.136Z" fill="#060633"/>
<path d="M365.531 219.863C365.505 219.815 365.498 219.759 365.511 219.706C365.524 219.653 365.556 219.607 365.601 219.576C365.646 219.546 365.701 219.533 365.755 219.541C365.809 219.55 365.858 219.577 365.893 219.62L387.737 247.773C387.772 247.819 387.788 247.877 387.78 247.935C387.773 247.992 387.743 248.044 387.697 248.08C387.674 248.097 387.649 248.11 387.621 248.118C387.593 248.126 387.565 248.128 387.536 248.124C387.508 248.12 387.48 248.111 387.456 248.097C387.431 248.082 387.409 248.063 387.392 248.04L365.547 219.883L365.531 219.863Z" fill="#060633"/>
<path d="M338.48 215.062C338.472 215.049 338.466 215.036 338.462 215.022C338.444 214.967 338.448 214.907 338.473 214.855C338.499 214.803 338.544 214.764 338.598 214.745L371.734 203.554C371.789 203.536 371.849 203.54 371.901 203.566C371.953 203.592 371.993 203.637 372.011 203.692C372.03 203.747 372.026 203.807 372 203.859C371.974 203.911 371.929 203.951 371.874 203.969L338.738 215.16C338.69 215.175 338.638 215.174 338.591 215.156C338.544 215.138 338.505 215.105 338.48 215.062Z" fill="#060633"/>
<path d="M245.862 245.992H212.878V277.42H245.862V245.992Z" fill="#060633"/>
<path d="M319.402 125.484H141.632C139.954 125.484 138.594 126.845 138.594 128.523V245.36C138.594 247.038 139.954 248.399 141.632 248.399H319.402C321.081 248.399 322.441 247.038 322.441 245.36V128.523C322.441 126.845 321.081 125.484 319.402 125.484Z" fill="#0C0C4C"/>
<path d="M317.576 128.742H143.28V239.142H317.576V128.742Z" fill="#EDFFFF"/>
<path d="M257.531 274.355H201.205V281.566H257.531V274.355Z" fill="#0C0C4C"/>
<path d="M289.13 226.735C284.368 220.365 281.424 216.405 280.425 215.071C279.07 213.26 276.455 207.928 273.516 201.987C269.536 193.933 264.965 184.77 262.154 181.733C261.016 180.511 258.816 179.466 256.262 178.583C254.159 177.855 248.76 186.463 228.155 184.314C228.155 184.314 237.061 189.851 237.406 190.763C238.05 192.463 238.502 193.731 238.633 194.244C238.655 194.317 238.667 194.392 238.669 194.468C238.647 194.692 238.625 194.914 238.602 195.133C238.518 195.98 238.43 196.787 238.365 197.543C238.365 197.569 238.365 197.596 238.365 197.622C238.328 197.998 238.294 198.359 238.261 198.703C238.261 198.767 238.251 198.827 238.244 198.889C238.105 200.346 238.001 201.496 237.939 202.176C237.939 202.229 237.929 202.283 237.926 202.327C237.895 202.672 237.877 202.868 237.877 202.868C237.877 202.868 235.947 202.41 234.276 203.154C233.717 203.395 233.228 203.772 232.852 204.25C232.741 204.392 232.64 204.541 232.549 204.696C232.459 204.851 232.16 205.542 231.773 206.497C231.773 206.516 231.759 206.533 231.75 206.552C230.591 209.424 230.314 214.255 230.963 214.699C230.963 214.699 231.735 215.845 232.067 216.162C233.09 217.138 236.426 220.533 245.07 223.221C246.029 223.519 246.916 223.963 247.808 224.278C254.847 226.771 253.833 227.484 258.482 231.736C258.683 231.984 258.856 232.253 258.998 232.538C259.645 233.707 260.813 236.05 262.379 239.151H298.478C294.823 234.329 291.709 230.18 289.13 226.735Z" fill="#F09684"/>
<path d="M261.708 211.35C262.119 211.462 262.542 211.52 262.968 211.523L262.958 211.242C262.939 211.242 260.981 211.282 258.812 209.572C256.803 207.988 254.193 204.536 253.177 197.094L252.9 197.132C253.468 201.3 254.93 206.883 258.657 209.806C259.555 210.529 260.594 211.055 261.708 211.35Z" fill="#D97D6B"/>
<path d="M248.525 159.379C249.422 159.575 250.612 158.292 250.612 158.292C250.02 156.629 249.426 154.904 248.811 153.234C248.247 153.425 247.508 153.82 247.301 154.581C246.954 155.86 247.627 159.181 248.525 159.379Z" fill="#F3B2A3"/>
<path d="M304.373 239.14C297.278 229.137 290.717 220.223 289.971 220.56C289.288 220.874 288.624 221.23 287.985 221.626C287.059 222.189 286.183 222.831 285.368 223.545C280.358 227.908 278.597 233.56 270.02 234.769C265.79 235.368 262.531 236.6 260.368 238.212C260.211 238.324 260.062 238.446 259.921 238.577C259.708 238.752 259.505 238.937 259.311 239.133L304.373 239.14Z" fill="#2AB6C5"/>
<path d="M242.703 217.032C246.329 217.445 249.564 215.164 249.934 211.937L255.343 164.326C255.71 161.1 253.067 158.151 249.441 157.739C245.816 157.328 242.579 159.609 242.211 162.835L236.803 210.446C236.435 213.671 239.077 216.62 242.703 217.032Z" fill="#060633"/>
<path d="M198.397 87.6719L274.522 146.009L279.06 155.507L270.586 163.478L173.804 169.116L198.397 87.6719Z" fill="#FA7267"/>
<path d="M219.75 138.264C225.964 117.257 221.283 97.3527 209.295 93.8061C197.306 90.2594 182.549 104.414 176.335 125.421C170.12 146.428 174.801 166.332 186.79 169.879C198.778 173.426 213.535 159.271 219.75 138.264Z" fill="#2AB6C5"/>
<path d="M274.522 146.008L288.06 152.87C288.06 152.87 290.679 153.092 288.844 160.321C287.009 167.55 284.519 164.553 270.595 163.477C270.586 163.477 279.965 156.146 274.522 146.008Z" fill="#0C0755"/>
<path d="M189.109 170.346L172.427 169.053L195.775 86.2227L211.792 94.8359L205.384 143.466L189.109 170.346Z" fill="#2AB6C5"/>
<path d="M204.15 133.649C210.911 110.792 206.674 89.3878 194.685 85.8411C182.697 82.2945 167.496 97.9485 160.735 120.805C153.973 143.662 158.21 165.067 170.199 168.613C182.187 172.16 197.388 156.506 204.15 133.649Z" fill="#2AB6C5"/>
<path d="M200.686 132.623C206.652 112.454 203.117 93.6269 192.79 90.5716C182.462 87.5164 169.253 101.39 163.286 121.559C157.32 141.728 160.855 160.555 171.182 163.61C181.51 166.665 194.719 152.792 200.686 132.623Z" fill="#176D77"/>
<path d="M191.161 116.259L171.363 118.886L168.722 131.17L186.244 142.637C188.068 144.118 190.617 143.882 192.189 142.1C195.906 137.889 201.092 129.415 195.632 118.74C194.756 117.001 192.981 116.018 191.161 116.259Z" fill="#FA7267"/>
<path d="M167.465 124.754C166.845 128.295 167.565 131.421 169.075 131.733C170.585 132.045 172.311 129.428 172.933 125.88C173.554 122.331 172.833 119.212 171.323 118.9C169.813 118.589 168.087 121.211 167.465 124.754Z" fill="#F09684"/>
<path d="M221.741 194.9L221.568 193.523C221.212 190.842 224.839 188.966 229.638 188.59L241.344 187.688C246.272 187.303 248.976 188.249 249.953 190.861C250.135 191.398 250.216 191.964 250.192 192.531C250.049 195.263 248.09 197.142 243.163 197.524L230.961 198.534C226.16 198.922 222.097 197.579 221.741 194.9Z" fill="#F1A38D"/>
<path d="M223.765 204.629L223.538 203.229C223.135 200.728 226.542 198.858 231.113 198.325L243.204 196.916C247.895 196.371 251.468 197.261 252.385 199.729C252.563 200.229 252.639 200.76 252.609 201.289C252.47 203.872 249.391 205.655 244.69 206.201L232.599 207.609C228.037 208.143 224.168 207.139 223.765 204.629Z" fill="#F1A38D"/>
<path d="M226.396 211.647L226.413 210.58C226.448 208.5 229.455 207.023 233.195 206.739L240.866 206.426C243.867 206.272 247.678 206.455 247.969 209.149C248.314 212.405 243.19 213.787 241.427 213.825L233.06 214.462C229.326 214.746 226.358 213.727 226.396 211.647Z" fill="#F1A38D"/>
<path d="M248.639 191.889C248.446 189.756 246.678 189.277 244.838 189.468L242.514 189.707C241.636 189.799 241.014 190.467 241.136 191.193L241.563 193.784C241.694 194.59 242.596 195.161 243.574 195.067L246.219 194.793C247.783 194.631 248.723 192.851 248.639 191.889Z" fill="#F3B2A3"/>
<path d="M224.12 186.082C224.087 185.835 223.948 184.255 223.948 184.255C223.788 181.982 226.83 180.793 230.609 180.714L239.064 180.542C242.939 180.461 245.339 180.43 246.203 182.697C246.432 183.296 246.48 184.577 246.375 185.252C245.919 188.127 243.023 188.371 239.144 188.452L231.203 189.156C227.42 189.236 224.42 188.346 224.12 186.082Z" fill="#F1A38D"/>
<path d="M251.055 201.142V200.97C251.055 199.433 249.753 198.303 248.167 198.46L246.082 198.668C245.714 198.706 245.372 198.875 245.119 199.145C244.866 199.416 244.719 199.768 244.705 200.138V202.673C244.706 202.865 244.747 203.054 244.827 203.229C244.907 203.403 245.023 203.559 245.168 203.685C245.312 203.81 245.483 203.904 245.666 203.959C245.85 204.013 246.044 204.028 246.234 204.002L248.596 203.766C249.953 203.633 251.056 202.452 251.055 201.142Z" fill="#F3B2A3"/>
<path d="M246.377 209.309V209.357C246.477 210.6 245.669 211.704 244.585 211.809L242.703 211.991C242.187 212.041 241.723 211.597 241.67 211.005L241.515 209.045C241.462 208.386 241.889 207.802 242.464 207.747L244.53 207.546C245.468 207.456 246.293 208.25 246.377 209.309Z" fill="#F3B2A3"/>
<path d="M245.721 184.368L245.683 183.988C245.552 182.674 244.265 181.646 242.824 181.701L241.179 181.765C240.491 181.793 239.974 182.326 240.041 182.953L240.281 185.353C240.35 186.042 241.031 186.592 241.794 186.558L243.688 186.484C244.919 186.441 245.833 185.487 245.721 184.368Z" fill="#F3B2A3"/>
<path d="M229.298 198.681C229.308 198.683 229.317 198.683 229.326 198.681L246.735 196.911C246.756 196.909 246.775 196.899 246.788 196.883C246.801 196.866 246.807 196.846 246.806 196.825C246.805 196.815 246.802 196.805 246.797 196.795C246.792 196.786 246.785 196.778 246.777 196.771C246.769 196.765 246.76 196.76 246.75 196.757C246.74 196.754 246.73 196.753 246.719 196.754L229.309 198.531C229.29 198.532 229.272 198.54 229.259 198.554C229.246 198.567 229.238 198.584 229.237 198.603C229.235 198.622 229.241 198.64 229.252 198.655C229.264 198.67 229.28 198.681 229.298 198.684V198.681Z" fill="#D97D6B"/>
<path d="M227.778 188.909C227.786 188.911 227.795 188.911 227.803 188.909L244.674 187.704C244.695 187.702 244.714 187.692 244.728 187.676C244.741 187.661 244.748 187.64 244.747 187.619C244.746 187.609 244.743 187.599 244.739 187.59C244.734 187.581 244.728 187.572 244.72 187.566C244.712 187.559 244.703 187.554 244.693 187.551C244.683 187.547 244.673 187.546 244.662 187.547L227.79 188.752C227.772 188.754 227.755 188.762 227.742 188.775C227.729 188.789 227.721 188.806 227.72 188.824C227.718 188.842 227.723 188.861 227.733 188.876C227.744 188.891 227.759 188.902 227.777 188.907L227.778 188.909Z" fill="#D97D6B"/>
<path d="M228.984 207.774C228.992 207.776 229.001 207.776 229.009 207.774L243.209 206.481C243.23 206.479 243.249 206.469 243.262 206.453C243.275 206.437 243.282 206.416 243.28 206.395C243.279 206.385 243.276 206.375 243.271 206.366C243.266 206.356 243.26 206.348 243.252 206.342C243.244 206.335 243.234 206.33 243.224 206.327C243.214 206.324 243.204 206.324 243.194 206.325L228.996 207.616C228.975 207.618 228.956 207.628 228.942 207.644C228.929 207.66 228.922 207.681 228.923 207.702C228.924 207.719 228.931 207.735 228.942 207.748C228.952 207.761 228.967 207.77 228.984 207.774Z" fill="#D97D6B"/>
<path d="M270.722 196.373C270.722 196.373 260.656 165.41 244.521 170.032C242.316 170.664 238.456 170.175 234.269 169.53C232.525 169.261 230.724 168.965 228.965 168.714L228.243 168.61C225.222 168.197 225.031 177.971 238.683 178.725C241.901 178.897 250.113 180.619 253.446 188.366C255.572 193.297 267.114 203.762 270.722 196.373Z" fill="#F09684"/>
<path d="M126.389 90.8033C125.911 88.4481 125.114 86.1694 124.019 84.0305C122.888 81.8233 121.458 79.7833 119.768 77.9687C117.192 75.2052 114.074 73.0034 110.608 71.5011C107.142 69.9989 103.403 69.2285 99.625 69.2384C99.0913 69.2384 98.5628 69.2521 98.0394 69.2831C93.1831 69.543 88.4844 71.0949 84.4287 73.7786C80.373 76.4624 77.1075 80.1805 74.9698 84.5487C73.2259 88.1435 72.3222 92.0879 72.3272 96.0835C72.3272 105.823 77.6005 114.35 85.4889 119.057C88.5145 120.864 91.8605 122.07 95.3434 122.608C96.7617 122.829 98.1949 122.939 99.6302 122.939C111.244 122.939 121.162 115.805 125.11 105.75C125.414 104.972 125.682 104.178 125.914 103.368C126.491 101.349 126.825 99.268 126.907 97.1698C126.921 96.8117 126.93 96.4502 126.93 96.0886C126.927 94.3132 126.746 92.5425 126.389 90.8033ZM114.453 96.674C114.389 98.2727 114.058 99.8495 113.475 101.34C112.372 104.109 110.46 106.482 107.989 108.149C105.518 109.816 102.603 110.701 99.6216 110.688C98.584 110.688 97.5492 110.582 96.533 110.373C94.8425 110.024 93.2258 109.383 91.7555 108.479C89.629 107.185 87.8705 105.367 86.6484 103.199C85.4262 101.031 84.7816 98.5846 84.7761 96.0955C84.7736 93.8756 85.287 91.6855 86.2757 89.698C87.3936 87.4631 89.0578 85.5468 91.114 84.1269C93.1702 82.7069 95.5518 81.8293 98.0377 81.5754C100.928 81.2735 103.844 81.8115 106.436 83.1249C109.117 84.4844 111.318 86.6299 112.747 89.2745C113.877 91.3722 114.469 93.7178 114.469 96.1007C114.469 96.2849 114.465 96.4794 114.453 96.674Z" fill="#F5F5FC"/>
<path d="M96.5348 110.376L95.3435 122.611C91.8635 122.074 88.5198 120.871 85.4958 119.067C77.6074 114.36 72.3341 105.833 72.3341 96.0934C72.3292 92.0978 73.2329 88.1535 74.9768 84.5586L86.2826 89.6993C85.2913 91.6868 84.7756 93.8776 84.7762 96.0986C84.7818 98.5878 85.4268 101.034 86.6492 103.202C87.8716 105.371 89.6305 107.189 91.7573 108.482C93.2276 109.386 94.8443 110.027 96.5348 110.376Z" fill="#2AB6C5"/>
<path d="M125.904 103.365C125.674 104.175 125.406 104.97 125.1 105.748C121.156 115.802 111.237 122.936 99.6199 122.936C94.6446 122.947 89.7597 121.607 85.4855 119.061C87.3035 115.979 89.5605 112.175 91.7539 108.471C93.6077 109.61 95.6874 110.332 97.8483 110.585C100.009 110.839 102.199 110.619 104.267 109.94C106.334 109.261 108.228 108.141 109.818 106.655C111.408 105.17 112.656 103.357 113.474 101.34C113.749 100.644 113.968 99.9266 114.13 99.1953L123.254 102.286L125.904 103.365Z" fill="#7C98F0"/>
<path d="M126.92 96.0944C126.92 96.4559 126.92 96.8175 126.897 97.1756C126.781 100.115 126.173 103.015 125.1 105.754L113.477 101.347C114.061 99.8574 114.392 98.2804 114.455 96.6815C114.465 96.4869 114.469 96.2924 114.469 96.0944C114.47 95.1299 114.373 94.1677 114.18 93.2228L126.389 90.8125C126.742 92.5509 126.92 94.3205 126.92 96.0944Z" fill="#2AB6C5"/>
<path d="M126.92 96.0956C126.92 96.4571 126.92 96.8187 126.897 97.1768L114.453 96.674C114.464 96.4795 114.467 96.285 114.467 96.087C114.469 93.7039 113.878 91.3578 112.746 89.2608C111.317 86.6162 109.115 84.4707 106.434 83.1112L108.34 79.4855L119.766 77.9688C121.456 79.7834 122.887 81.8234 124.017 84.0305C125.93 87.7642 126.925 91.9003 126.92 96.0956Z" fill="#2AB6C5"/>
<path d="M124.019 84.0305L112.747 89.2608C111.466 86.9001 109.569 84.9306 107.258 83.5613C104.948 82.1921 102.309 81.4744 99.6233 81.4843C99.0937 81.484 98.5644 81.5116 98.0377 81.5669V69.2832C98.5542 69.2522 99.0896 69.2385 99.6233 69.2385C104.657 69.2197 109.599 70.5908 113.903 73.2008C118.207 75.8108 121.708 79.5584 124.019 84.0305Z" fill="#8BE1E5" fill-opacity="0.43"/>
<path d="M111.478 81.9537C111.478 81.6214 111.577 81.2965 111.762 81.0202C111.946 80.7439 112.209 80.5285 112.516 80.4013C112.823 80.2742 113.161 80.2409 113.487 80.3057C113.812 80.3706 114.112 80.5306 114.347 80.7656C114.582 81.0006 114.742 81.3 114.807 81.6259C114.872 81.9519 114.838 82.2897 114.711 82.5967C114.584 82.9038 114.369 83.1662 114.092 83.3508C113.816 83.5355 113.491 83.634 113.159 83.634C112.713 83.634 112.286 83.457 111.971 83.1419C111.655 82.8268 111.478 82.3994 111.478 81.9537Z" fill="#0C0755"/>
<path d="M151.909 67.5609C151.909 67.2282 152.007 66.9029 152.192 66.6263C152.377 66.3496 152.64 66.134 152.947 66.0068C153.255 65.8795 153.593 65.8463 153.919 65.9114C154.246 65.9764 154.545 66.1368 154.781 66.3722C155.016 66.6076 155.176 66.9074 155.24 67.2338C155.305 67.5602 155.272 67.8985 155.144 68.2058C155.017 68.5131 154.801 68.7757 154.524 68.9603C154.247 69.1449 153.922 69.2433 153.589 69.2429C153.368 69.2429 153.149 69.1994 152.945 69.1149C152.741 69.0303 152.556 68.9064 152.4 68.7502C152.244 68.594 152.12 68.4085 152.036 68.2045C151.952 68.0004 151.908 67.7817 151.909 67.5609Z" fill="#0C0755"/>
<path d="M113.3 82.042L113.016 81.8698L121.789 67.3945H153.589V67.7251H121.975L113.3 82.042Z" fill="#0C0755"/>
<path d="M150.116 56.8281H121.701V58.4344H150.116V56.8281Z" fill="#0C0755"/>
<path d="M138.661 60.5H121.701V62.1063H138.661V60.5Z" fill="#0C0755"/>
<path d="M260.158 65.7471C260.158 58.1548 266.823 52 275.045 52C283.268 52 289.93 58.1548 289.93 65.7471C289.93 69.4279 288.362 72.773 285.809 75.24C284.661 76.3423 283.748 77.6643 283.122 79.1272C282.497 80.5902 282.172 82.1641 282.168 83.7551C282.167 85.0047 281.67 86.2029 280.787 87.0865C279.903 87.9701 278.705 88.4667 277.455 88.4672H272.635C271.385 88.4672 270.187 87.9707 269.303 87.087C268.419 86.2034 267.923 85.0048 267.923 83.7551C267.918 82.164 267.593 80.59 266.967 79.1271C266.342 77.6642 265.428 76.3422 264.28 75.24C261.727 72.773 260.158 69.4279 260.158 65.7471Z" fill="#E97A6D"/>
<path d="M272.433 90.1795C272.479 90.1795 272.523 90.1613 272.555 90.1291C272.587 90.0968 272.605 90.053 272.605 90.0073C272.686 88.4751 270.367 64.5275 270.266 63.5152C270.264 63.4926 270.257 63.4706 270.246 63.4506C270.235 63.4306 270.221 63.4129 270.203 63.3985C270.168 63.3694 270.122 63.3557 270.076 63.3602C270.031 63.3648 269.989 63.3873 269.96 63.4228C269.931 63.4583 269.917 63.504 269.922 63.5496C269.946 63.7992 272.332 88.482 272.259 89.9884C272.258 90.012 272.261 90.0357 272.269 90.058C272.277 90.0803 272.289 90.1007 272.305 90.118C272.322 90.1353 272.341 90.149 272.363 90.1584C272.385 90.1678 272.408 90.1727 272.432 90.1726L272.433 90.1795Z" fill="#050731"/>
<path d="M277.789 90.1765C277.813 90.1766 277.836 90.1717 277.858 90.1623C277.88 90.153 277.899 90.1392 277.916 90.1219C277.932 90.1046 277.944 90.0842 277.952 90.0619C277.96 90.0396 277.963 90.0159 277.961 89.9923C277.881 88.4859 280.275 63.8032 280.299 63.5535C280.302 63.5309 280.299 63.5081 280.293 63.4863C280.286 63.4646 280.276 63.4443 280.261 63.4267C280.247 63.4092 280.229 63.3946 280.209 63.3838C280.189 63.3731 280.167 63.3664 280.144 63.3641C280.122 63.3619 280.099 63.3641 280.077 63.3707C280.056 63.3772 280.035 63.388 280.018 63.4024C280 63.4168 279.986 63.4345 279.975 63.4545C279.964 63.4745 279.957 63.4965 279.955 63.5191C279.855 64.5383 277.533 88.4824 277.615 90.0112C277.617 90.056 277.636 90.0983 277.669 90.1291C277.701 90.16 277.745 90.177 277.789 90.1765Z" fill="#050731"/>
<path d="M274.883 69.5272C274.607 69.4074 274.365 69.2218 274.177 68.9866C273.818 69.1515 273.411 69.1797 273.032 69.0658C272.832 69.0033 272.644 68.9073 272.476 68.7818C272.391 68.9002 272.282 68.9996 272.156 69.0734C272.03 69.1472 271.89 69.1939 271.745 69.2105C271.525 69.2238 271.307 69.1684 271.12 69.0521C270.876 68.9072 270.68 68.6931 270.557 68.4369C270.435 68.1807 270.391 67.8939 270.431 67.6128C270.437 67.5922 270.45 67.5744 270.468 67.5628C270.486 67.5513 270.508 67.5468 270.529 67.5502C270.551 67.5536 270.57 67.5647 270.583 67.5813C270.597 67.5979 270.604 67.6189 270.603 67.6403C270.569 67.8857 270.607 68.1357 270.712 68.3598C270.818 68.5839 270.986 68.7725 271.197 68.9023C271.353 68.9966 271.532 69.0432 271.714 69.0366C271.834 69.0202 271.951 68.9794 272.055 68.9167C272.16 68.8539 272.25 68.7705 272.321 68.6716C272.005 68.3872 271.764 68.0279 271.622 67.6266C271.371 66.9379 271.388 66.189 271.431 65.6175C271.434 65.2644 271.527 64.9179 271.7 64.6103C271.894 64.3107 272.289 64.0783 272.666 64.2092C272.689 64.218 272.707 64.2353 272.717 64.2574C273.232 65.4825 273.269 66.8556 272.822 68.1069C272.757 68.2942 272.669 68.4732 272.562 68.6406C272.715 68.7541 272.886 68.8414 273.067 68.8988C273.392 68.9967 273.741 68.9778 274.053 68.8455C273.876 68.5845 273.749 68.2925 273.68 67.9847C273.523 67.296 273.625 66.5764 273.731 66.0255C273.763 65.7845 273.848 65.5538 273.981 65.3506C274.056 65.2421 274.161 65.1586 274.284 65.111C274.407 65.0635 274.541 65.0539 274.67 65.0838C274.683 65.0879 274.696 65.0955 274.706 65.1057C274.716 65.1159 274.723 65.1285 274.727 65.1423C274.945 65.9232 275.034 66.7344 274.99 67.5439C274.986 67.8246 274.928 68.1018 274.818 68.36C274.702 68.5882 274.523 68.7778 274.301 68.9057C274.467 69.1056 274.678 69.2636 274.916 69.3671C275.212 69.4774 275.532 69.5095 275.844 69.4603C276.156 69.4112 276.45 69.2824 276.698 69.0865C276.525 68.9371 276.378 68.7596 276.264 68.5614C275.945 68.0036 275.866 67.3442 275.818 66.7692C275.778 66.3078 275.76 65.8206 275.968 65.3919C276.176 64.9632 276.724 64.6292 277.19 64.8221C277.393 64.9154 277.561 65.0702 277.671 65.2645C277.965 65.7345 278.058 66.3457 277.948 67.0825C277.86 67.6696 277.622 68.4925 276.98 69.0796C277.222 69.253 277.517 69.3364 277.813 69.3155C278.056 69.2787 278.287 69.1848 278.486 69.0414C278.685 68.898 278.848 68.7093 278.96 68.4908C279.204 68.0725 279.618 66.5643 279.733 66.0151C279.738 65.9924 279.752 65.9726 279.772 65.9598C279.791 65.947 279.815 65.9421 279.838 65.9463C279.849 65.9487 279.86 65.9534 279.87 65.96C279.879 65.9666 279.887 65.975 279.893 65.9848C279.9 65.9946 279.904 66.0055 279.906 66.0169C279.908 66.0283 279.908 66.04 279.905 66.0513C279.793 66.5816 279.375 68.1172 279.111 68.5786C278.986 68.8217 278.804 69.0313 278.581 69.19C278.358 69.3487 278.1 69.4519 277.829 69.4911C277.475 69.515 277.125 69.4105 276.842 69.1967C276.467 69.4907 276.006 69.6534 275.529 69.6598C275.307 69.6571 275.088 69.6121 274.883 69.5272ZM276.161 65.4694C275.97 65.855 275.988 66.3147 276.028 66.752C276.075 67.3081 276.15 67.9451 276.452 68.4736C276.56 68.6641 276.702 68.8337 276.87 68.9746L276.896 68.9522C277.5 68.3996 277.726 67.618 277.808 67.0584C277.912 66.3698 277.824 65.7862 277.557 65.3592C277.466 65.1958 277.327 65.065 277.157 64.9856C277.086 64.957 277.01 64.9423 276.934 64.9426C276.77 64.9542 276.612 65.0091 276.476 65.1017C276.34 65.1942 276.231 65.3211 276.161 65.4694ZM274.138 65.4539C274.022 65.6364 273.948 65.8421 273.921 66.0565C273.818 66.5919 273.718 67.2891 273.869 67.9502C273.934 68.2454 274.057 68.5249 274.229 68.7732C274.427 68.6613 274.586 68.4928 274.687 68.2894C274.785 68.0518 274.837 67.7975 274.838 67.5405C274.88 66.7669 274.798 65.9916 274.596 65.2439C274.508 65.237 274.419 65.2529 274.339 65.29C274.259 65.3271 274.19 65.3841 274.138 65.4556V65.4539ZM271.863 64.705C271.709 64.9893 271.626 65.3075 271.624 65.6312C271.581 66.1839 271.564 66.9035 271.796 67.5663C271.926 67.9348 272.145 68.2654 272.433 68.5287C272.528 68.3771 272.606 68.2161 272.667 68.0484C273.094 66.8515 273.062 65.5393 272.58 64.3641C272.44 64.3436 272.297 64.365 272.17 64.4257C272.042 64.4864 271.936 64.5836 271.863 64.705Z" fill="#050731"/>
<path d="M279.776 96.0156H270.307C269.975 96.0156 269.657 95.8837 269.422 95.649C269.188 95.4143 269.056 95.0959 269.056 94.764V92.5965H281.035V94.764C281.035 94.9289 281.002 95.0923 280.939 95.2446C280.875 95.3969 280.783 95.5351 280.666 95.6515C280.549 95.7678 280.41 95.8598 280.257 95.9223C280.105 95.9848 279.941 96.0165 279.776 96.0156Z" fill="#2AB6C5"/>
<path d="M274.308 94.2502C276.634 94.2203 278.943 93.8603 281.167 93.1811C281.455 93.0872 281.693 92.883 281.83 92.6135C281.967 92.3439 281.991 92.0309 281.897 91.7435C281.803 91.4561 281.599 91.2177 281.33 91.0808C281.06 90.9439 280.747 90.9197 280.46 91.0135C280.355 91.048 273.85 93.1105 269.786 91.0772C269.515 90.9421 269.202 90.9199 268.915 91.0157C268.628 91.1114 268.391 91.3172 268.256 91.5877C268.121 91.8582 268.099 92.1714 268.194 92.4582C268.29 92.7451 268.496 92.9822 268.766 93.1174C270.469 93.9678 272.444 94.2502 274.308 94.2502Z" fill="#050731"/>
<path d="M274.308 92.3958C276.634 92.3669 278.943 92.0069 281.167 91.3267C281.313 91.2836 281.45 91.2116 281.567 91.1149C281.685 91.0183 281.783 90.8989 281.854 90.764C281.925 90.6291 281.968 90.4812 281.981 90.3293C281.993 90.1774 281.976 90.0244 281.928 89.8795C281.881 89.7346 281.805 89.6006 281.705 89.4856C281.605 89.3705 281.483 89.2767 281.346 89.2097C281.209 89.1427 281.06 89.1039 280.908 89.0955C280.755 89.0871 280.603 89.1093 280.46 89.1609C280.355 89.1936 273.85 91.2578 269.786 89.2246C269.516 89.0963 269.207 89.0788 268.925 89.1759C268.643 89.2731 268.41 89.477 268.276 89.7439C268.143 90.0109 268.119 90.3195 268.211 90.6036C268.303 90.8876 268.502 91.1244 268.766 91.263C270.469 92.1134 272.444 92.3958 274.308 92.3958Z" fill="#2AB6C5"/>
<path d="M274.308 90.546C276.634 90.5169 278.943 90.1563 281.167 89.4751C281.313 89.432 281.45 89.36 281.567 89.2633C281.685 89.1667 281.783 89.0474 281.854 88.9124C281.925 88.7775 281.968 88.6297 281.981 88.4778C281.993 88.3258 281.976 88.1729 281.928 88.0279C281.881 87.883 281.805 87.7491 281.705 87.634C281.605 87.519 281.483 87.4252 281.346 87.3582C281.209 87.2911 281.06 87.2523 280.908 87.2439C280.755 87.2355 280.603 87.2578 280.46 87.3093C280.355 87.3437 273.85 89.4062 269.786 87.373C269.516 87.2447 269.207 87.2273 268.925 87.3244C268.643 87.4215 268.41 87.6254 268.276 87.8924C268.143 88.1593 268.119 88.468 268.211 88.752C268.303 89.036 268.502 89.2728 268.766 89.4114C270.469 90.2636 272.444 90.546 274.308 90.546Z" fill="#050731"/>
<path d="M357.224 46.2617C354.423 46.2617 351.685 47.0923 349.356 48.6484C347.028 50.2046 345.212 52.4164 344.141 55.0041C343.069 57.5919 342.788 60.4394 343.335 63.1866C343.881 65.9337 345.23 68.4571 347.21 70.4377C349.191 72.4183 351.714 73.7671 354.462 74.3135C357.209 74.86 360.056 74.5795 362.644 73.5076C365.232 72.4358 367.444 70.6206 369 68.2917C370.556 65.9627 371.386 63.2247 371.386 60.4237C371.386 56.6677 369.894 53.0656 367.239 50.4097C364.583 47.7538 360.98 46.2617 357.224 46.2617ZM357.545 70.9066C355.471 70.9062 353.445 70.2911 351.721 69.1391C349.998 67.987 348.654 66.3497 347.861 64.4341C347.068 62.5186 346.86 60.4109 347.265 58.3775C347.67 56.3442 348.668 54.4764 350.134 53.0106C351.601 51.5447 353.468 50.5465 355.502 50.1421C357.535 49.7378 359.643 49.9455 361.558 50.7389C363.474 51.5324 365.111 52.876 366.263 54.5999C367.415 56.3238 368.029 58.3504 368.029 60.4237C368.029 61.8005 367.758 63.1638 367.231 64.4357C366.704 65.7077 365.932 66.8634 364.958 67.8368C363.985 68.8103 362.829 69.5824 361.557 70.1091C360.285 70.6358 358.921 70.9068 357.545 70.9066Z" fill="#8BE1E5"/>
<path d="M359.156 42.0273H355.295V47.5451H359.156V42.0273Z" fill="#8BE1E5"/>
<path d="M366.455 44.0043L362.956 42.3711L360.622 47.3711L364.121 49.0043L366.455 44.0043Z" fill="#8BE1E5"/>
<path d="M372.033 48.8034L369.467 45.918L365.344 49.585L367.91 52.4704L372.033 48.8034Z" fill="#8BE1E5"/>
<path d="M375.132 54.8274L373.585 51.2891L368.53 53.499L370.076 57.0373L375.132 54.8274Z" fill="#8BE1E5"/>
<path d="M344.488 62.4436V58.582H338.97V62.4436H344.488Z" fill="#8BE1E5"/>
<path d="M375.387 62.4436V58.582H369.87V62.4436H375.387Z" fill="#8BE1E5"/>
<path d="M350.246 49.0043L353.745 47.3711L351.411 42.3711L347.912 44.0043L350.246 49.0043Z" fill="#8BE1E5"/>
<path d="M346.452 52.4675L349.018 49.582L344.895 45.915L342.329 48.8005L346.452 52.4675Z" fill="#8BE1E5"/>
<path d="M344.338 57.0581L345.884 53.5195L340.828 51.3105L339.282 54.8491L344.338 57.0581Z" fill="#8BE1E5"/>
<path d="M359.201 73.4805H355.339V78.9982H359.201V73.4805Z" fill="#8BE1E5"/>
<path d="M364.159 72.0348L360.66 73.668L362.993 78.668L366.493 77.0348L364.159 72.0348Z" fill="#8BE1E5"/>
<path d="M367.958 68.5716L365.392 71.457L369.515 75.124L372.081 72.2386L367.958 68.5716Z" fill="#8BE1E5"/>
<path d="M370.114 64.0007L368.567 67.5391L373.623 69.749L375.17 66.2107L370.114 64.0007Z" fill="#8BE1E5"/>
<path d="M347.945 77.027L351.444 78.6602L353.778 73.6602L350.279 72.027L347.945 77.027Z" fill="#8BE1E5"/>
<path d="M342.375 72.2239L344.941 75.1094L349.064 71.4424L346.498 68.5569L342.375 72.2239Z" fill="#8BE1E5"/>
<path d="M339.274 66.2L340.821 69.7383L345.877 67.5284L344.33 63.99L339.274 66.2Z" fill="#8BE1E5"/>
<path d="M335.691 82.5726L337.929 77.4078L333.523 75.514C333.57 74.7444 333.533 73.9719 333.411 73.2105L337.848 70.9534L335.295 65.9367L331.082 68.0801C330.635 67.5436 330.134 67.0533 329.589 66.6167L331.395 62.4366L326.23 60.1985L324.426 64.3769C323.734 64.28 323.035 64.2523 322.338 64.2943L321.01 59.7578L315.608 61.3382L317.004 66.1157C316.367 66.5495 315.779 67.0518 315.252 67.6135L310.846 65.7197L308.608 70.8846L312.619 72.6182C312.365 73.7698 312.307 74.956 312.447 76.1269L308.307 78.2273L310.86 83.244L314.604 81.3382C315.107 81.9907 315.685 82.5818 316.326 83.0994L314.752 86.7441L319.917 88.9821L321.491 85.3375C322.308 85.4515 323.136 85.4694 323.958 85.3909L325.137 89.4229L330.54 87.8424L329.233 83.3663C330.183 82.6677 331.008 81.8138 331.674 80.8407L335.691 82.5726ZM320.762 79.9299C319.758 79.4962 318.904 78.7742 318.309 77.8553C317.715 76.9364 317.406 75.8618 317.423 74.7674C317.439 73.6731 317.779 72.6081 318.401 71.7073C319.022 70.8064 319.897 70.1101 320.915 69.7065C321.932 69.3028 323.046 69.21 324.116 69.4396C325.186 69.6692 326.164 70.211 326.926 70.9965C327.689 71.782 328.201 72.7759 328.398 73.8524C328.595 74.929 328.469 76.0398 328.035 77.0445C327.747 77.7115 327.33 78.3153 326.809 78.8213C326.287 79.3273 325.672 79.7256 324.996 79.9935C324.321 80.2615 323.599 80.3938 322.873 80.3829C322.147 80.3719 321.429 80.218 320.762 79.9299Z" fill="#2AB6C5"/>
<path d="M357.249 94.6932V90.8075H353.929C353.753 90.3089 353.522 89.8314 353.241 89.3837L355.436 86.7376L352.444 84.2568L350.361 86.7686C349.93 86.5532 349.479 86.3803 349.014 86.2521V83.1016H345.127V86.2435C344.662 86.3717 344.212 86.5446 343.781 86.76L341.697 84.2482L338.705 86.729L340.893 89.3837C340.607 89.8325 340.372 90.3117 340.193 90.8127H336.885V94.6983H339.903C340.061 95.4978 340.352 96.2649 340.764 96.9674L338.71 99.4431L341.703 101.924L343.555 99.6858C344.054 99.9609 344.583 100.176 345.132 100.328V103.069H349.019V100.328C349.568 100.176 350.098 99.9609 350.596 99.6858L352.449 101.924L355.441 99.4431L353.375 96.9588C353.788 96.2563 354.079 95.4892 354.236 94.6897L357.249 94.6932ZM347.064 97.1034C346.308 97.1038 345.569 96.88 344.941 96.4603C344.312 96.0407 343.822 95.444 343.533 94.7459C343.243 94.0478 343.168 93.2795 343.315 92.5383C343.462 91.7971 343.826 91.1162 344.361 90.5818C344.895 90.0475 345.576 89.6836 346.317 89.5362C347.058 89.3889 347.827 89.4647 348.525 89.754C349.223 90.0434 349.819 90.5333 350.239 91.1618C350.659 91.7903 350.883 92.5292 350.882 93.2849C350.882 94.2978 350.48 95.2692 349.764 95.9856C349.048 96.702 348.077 97.1047 347.064 97.1051V97.1034Z" fill="#0C0755"/>
<path d="M180.55 228.971C190.478 228.831 198.41 220.438 198.265 210.226C198.121 200.013 189.955 191.848 180.027 191.988C170.099 192.128 162.167 200.521 162.311 210.734C162.456 220.947 170.622 229.112 180.55 228.971Z" fill="#ED7066"/>
<path d="M181.331 208.834C179.782 208.192 178.716 207.655 178.039 207.032C177.973 206.983 177.915 206.925 177.867 206.859C177.371 206.35 177.097 205.666 177.104 204.955C177.087 203.578 178.039 201.958 180.62 201.924C182.12 201.881 183.6 202.272 184.883 203.049L185.678 200.746C184.709 200.174 183.323 199.637 181.297 199.603L181.262 196.242H180.811L179.165 196.277L179.2 198.026L179.217 199.775C176.133 200.329 174.176 202.53 174.224 205.405C174.219 206.01 174.331 206.61 174.553 207.173C174.574 207.256 174.603 207.337 174.639 207.415C175.419 209.182 177.273 210.308 179.854 211.311C182.348 212.317 183.681 213.46 183.698 215.366C183.734 217.341 182.149 218.778 179.749 218.809C178.027 218.827 176.339 218.333 174.899 217.389L174.154 219.641L174.119 219.727C175.324 220.575 177.342 221.164 179.284 221.164L179.336 224.664L181.448 224.63L181.396 221.027C182.309 220.876 183.182 220.54 183.96 220.038C184.795 219.514 185.481 218.783 185.948 217.914C186.416 217.046 186.651 216.071 186.628 215.085C186.589 212.004 184.812 210.241 181.331 208.834Z" fill="white"/>
<path d="M145.729 259.18C153.092 259.075 158.972 252.85 158.864 245.277C158.756 237.703 152.699 231.649 145.337 231.755C137.975 231.86 132.094 238.085 132.202 245.658C132.311 253.232 138.367 259.286 145.729 259.18Z" fill="#ED7066"/>
<path d="M146.27 244.273C145.127 243.796 144.33 243.399 143.829 242.937C143.781 242.901 143.738 242.857 143.702 242.808C143.334 242.43 143.131 241.922 143.135 241.395C143.123 240.362 143.824 239.172 145.744 239.146C146.855 239.115 147.952 239.405 148.903 239.981L149.495 238.274C148.775 237.85 147.748 237.452 146.245 237.427L146.219 234.934H145.885L144.664 234.959L144.69 236.256L144.704 237.554C142.418 237.965 140.964 239.597 141.004 241.729C141 242.177 141.083 242.622 141.249 243.039C141.264 243.098 141.286 243.156 141.312 243.211C141.891 244.521 143.265 245.356 145.179 246.1C147.028 246.845 148.018 247.694 148.03 249.106C148.056 250.571 146.875 251.637 145.103 251.662C143.826 251.676 142.574 251.31 141.507 250.609L140.954 252.279L140.928 252.344C141.815 252.973 143.318 253.41 144.755 253.41L144.795 256.004L146.362 255.979L146.324 253.307C146.998 253.194 147.643 252.945 148.218 252.575C148.837 252.186 149.345 251.643 149.692 250.999C150.039 250.355 150.212 249.632 150.196 248.901C150.163 246.623 148.853 245.313 146.27 244.273Z" fill="white"/>
<path d="M207.539 45.6675H204.268V39.814H193.057V45.6675H189.794V39.4697C189.794 37.8566 190.991 36.543 192.459 36.543H204.865C206.336 36.543 207.53 37.8566 207.53 39.4697L207.539 45.6675Z" fill="#2AB6C5"/>
<path d="M223.349 45.0898H175.731C175.541 45.0898 175.388 45.2432 175.388 45.4324V76.4937C175.388 76.683 175.541 76.8363 175.731 76.8363H223.349C223.538 76.8363 223.691 76.683 223.691 76.4937V45.4324C223.691 45.2432 223.538 45.0898 223.349 45.0898Z" fill="#2AB6C5"/>
<path d="M200.911 62.3042C200.883 62.3038 200.855 62.2992 200.828 62.2904L175.431 54.2643C175.397 54.253 175.366 54.2351 175.339 54.2117C175.312 54.1882 175.29 54.1597 175.274 54.1278C175.258 54.0958 175.248 54.061 175.246 54.0253C175.243 53.9897 175.248 53.9538 175.259 53.9199C175.27 53.886 175.288 53.8547 175.311 53.8277C175.335 53.8007 175.363 53.7785 175.395 53.7625C175.427 53.7466 175.462 53.737 175.498 53.7345C175.533 53.732 175.569 53.7365 175.603 53.7478L200.911 61.7395L223.423 53.6875C223.457 53.6755 223.492 53.6704 223.528 53.6723C223.564 53.6742 223.6 53.6831 223.632 53.6986C223.664 53.7141 223.693 53.7359 223.718 53.7626C223.742 53.7894 223.76 53.8206 223.772 53.8545C223.784 53.8884 223.789 53.9244 223.787 53.9603C223.785 53.9962 223.777 54.0314 223.761 54.0638C223.745 54.0963 223.724 54.1254 223.697 54.1494C223.67 54.1735 223.639 54.192 223.605 54.204L201.007 62.2956C200.976 62.3041 200.943 62.307 200.911 62.3042Z" fill="#050731"/>
<path d="M202.402 59.2734H199.511V64.5106H202.402V59.2734Z" fill="white"/>
<path d="M369.897 267.296C367.37 267.802 359.131 265.444 358.986 264.714C358.841 263.984 365.537 258.641 368.064 258.135C369.271 257.908 370.519 258.166 371.538 258.853C372.556 259.54 373.262 260.601 373.504 261.805C373.745 263.01 373.502 264.261 372.827 265.287C372.152 266.313 371.099 267.032 369.897 267.287V267.296Z" fill="#8BE1E5" fill-opacity="0.43"/>
<path d="M347.985 267.292C348.892 269.702 347.895 278.217 347.206 278.482C346.518 278.747 340.156 272.997 339.247 270.585C339.031 270.012 338.931 269.401 338.951 268.788C338.971 268.176 339.111 267.573 339.364 267.015C339.875 265.887 340.813 265.009 341.972 264.573C342.546 264.357 343.156 264.256 343.769 264.276C344.381 264.296 344.984 264.437 345.542 264.69C346.67 265.2 347.549 266.138 347.985 267.297V267.292Z" fill="#8BE1E5" fill-opacity="0.43"/>
<path d="M356.167 285.869C353.609 286.181 345.573 283.202 345.483 282.472C345.393 281.742 352.478 276.917 355.036 276.603C355.646 276.526 356.265 276.57 356.857 276.733C357.45 276.896 358.005 277.174 358.49 277.552C358.974 277.93 359.38 278.399 359.683 278.934C359.985 279.469 360.18 280.058 360.254 280.668C360.328 281.278 360.282 281.897 360.116 282.489C359.951 283.081 359.671 283.634 359.291 284.117C358.911 284.601 358.44 285.004 357.904 285.305C357.368 285.605 356.778 285.797 356.167 285.869Z" fill="#8BE1E5" fill-opacity="0.43"/>
<path d="M342.395 290.501C342.501 290.523 342.608 290.547 342.716 290.568C342.77 290.374 342.834 290.158 342.904 289.921C343.647 287.436 344.539 284.998 345.576 282.621C345.681 282.38 345.788 282.139 345.898 281.895C348.532 276.058 352.784 269.01 359.137 264.902C359.177 264.871 359.222 264.846 359.261 264.818L359.089 264.539C359.065 264.556 359.039 264.573 359.015 264.587C353.936 267.858 350.18 272.989 347.516 277.902C347.41 278.093 347.31 278.284 347.208 278.475C345.307 282.112 343.759 285.922 342.584 289.854C342.51 290.091 342.446 290.306 342.395 290.501Z" fill="#8BE1E5" fill-opacity="0.43"/>
<path d="M339.752 289.99C339.738 289.761 339.73 289.531 339.723 289.302C339.502 283.717 339.779 278.124 340.551 272.588C340.936 269.768 341.424 267.079 341.969 264.566C343.235 258.709 344.988 252.97 347.212 247.406C348.047 245.34 348.711 243.911 349.033 243.247C349.107 243.092 349.161 242.982 349.205 242.902L349.238 242.832L349.248 242.816L349.298 242.842L349.358 242.873L349.479 242.937L349.517 242.956L349.539 242.966C349.539 242.966 349.531 242.983 349.517 243.008L349.453 243.135C349.426 243.188 349.396 243.255 349.358 243.331C349.04 243.985 348.343 245.478 347.465 247.67C345.301 253.108 343.588 258.715 342.341 264.433C341.761 267.086 341.246 269.927 340.845 272.915C340.106 278.358 339.846 283.855 340.067 289.343C340.076 289.572 340.086 289.799 340.096 290.032L339.752 289.99Z" fill="#8BE1E5" fill-opacity="0.43"/>
<path d="M353.144 241.518C352.456 242.195 349.407 243.149 349.212 242.953C349.018 242.756 350.011 239.716 350.696 239.039C351.027 238.723 351.468 238.549 351.926 238.555C352.383 238.561 352.82 238.747 353.142 239.073C353.463 239.398 353.644 239.837 353.644 240.295C353.645 240.753 353.465 241.192 353.144 241.518Z" fill="white"/>
<path d="M348.764 238.698C349.281 239.507 349.591 242.692 349.36 242.841C349.129 242.991 346.356 241.394 345.834 240.584C345.71 240.392 345.625 240.177 345.583 239.952C345.542 239.727 345.545 239.496 345.593 239.272C345.641 239.049 345.733 238.836 345.863 238.648C345.993 238.46 346.159 238.299 346.351 238.174C346.543 238.05 346.758 237.965 346.983 237.923C347.208 237.882 347.439 237.885 347.663 237.933C347.887 237.981 348.099 238.073 348.287 238.203C348.476 238.333 348.637 238.498 348.761 238.691L348.764 238.698Z" fill="white"/>
<path d="M345.106 241.812C346.049 241.622 349.126 242.5 349.179 242.772C349.233 243.044 346.735 245.04 345.791 245.229C345.567 245.274 345.336 245.275 345.111 245.231C344.887 245.187 344.673 245.099 344.482 244.972C344.292 244.845 344.128 244.682 344 244.492C343.872 244.302 343.783 244.089 343.738 243.865C343.693 243.64 343.692 243.409 343.737 243.185C343.781 242.96 343.869 242.746 343.995 242.556C344.122 242.365 344.285 242.201 344.475 242.074C344.665 241.946 344.878 241.857 345.103 241.812H345.106Z" fill="white"/>
<path d="M346.929 246.132C347.088 245.183 348.995 242.62 349.272 242.665C349.549 242.709 350.524 245.764 350.367 246.704C350.291 247.16 350.037 247.568 349.661 247.837C349.284 248.106 348.816 248.215 348.36 248.139C347.903 248.064 347.495 247.809 347.226 247.433C346.957 247.057 346.848 246.589 346.924 246.132H346.929Z" fill="white"/>
<path d="M351.679 246.248C350.86 245.744 349.207 243.005 349.352 242.771C349.496 242.536 352.686 242.771 353.506 243.287C353.706 243.404 353.881 243.56 354.02 243.746C354.16 243.932 354.26 244.144 354.317 244.369C354.373 244.594 354.384 244.828 354.348 245.058C354.313 245.287 354.232 245.507 354.11 245.705C353.988 245.902 353.828 246.074 353.639 246.209C353.451 246.344 353.237 246.439 353.01 246.491C352.784 246.542 352.549 246.547 352.321 246.506C352.092 246.466 351.874 246.38 351.679 246.253V246.248Z" fill="white"/>
<path d="M349.923 242.72C349.913 242.607 349.869 242.5 349.798 242.411C349.726 242.323 349.63 242.258 349.522 242.225C349.413 242.191 349.298 242.191 349.189 242.223C349.08 242.255 348.983 242.319 348.911 242.407C348.839 242.494 348.794 242.601 348.782 242.714C348.77 242.827 348.793 242.94 348.846 243.041C348.899 243.141 348.98 243.223 349.08 243.277C349.18 243.331 349.294 243.354 349.407 243.343C349.558 243.328 349.696 243.255 349.793 243.138C349.89 243.021 349.937 242.871 349.923 242.72Z" fill="#8BE1E5" fill-opacity="0.43"/>
<path d="M312.418 272.189C314.174 272.533 319.9 270.901 319.993 270.4C320.086 269.899 315.441 266.18 313.685 265.829C313.264 265.737 312.829 265.729 312.405 265.807C311.982 265.885 311.578 266.046 311.217 266.282C310.856 266.518 310.546 266.823 310.305 267.18C310.063 267.536 309.895 267.938 309.811 268.36C309.726 268.783 309.726 269.218 309.812 269.64C309.897 270.062 310.066 270.464 310.308 270.82C310.55 271.176 310.861 271.481 311.222 271.716C311.583 271.951 311.987 272.112 312.411 272.189H312.418Z" fill="#8BE1E5" fill-opacity="0.43"/>
<path d="M327.645 272.186C327.014 273.862 327.707 279.778 328.186 279.957C328.665 280.136 333.084 276.147 333.716 274.47C334.002 273.669 333.961 272.788 333.604 272.016C333.246 271.244 332.599 270.644 331.803 270.345C331.007 270.045 330.126 270.07 329.348 270.414C328.57 270.759 327.959 271.395 327.645 272.186Z" fill="#8BE1E5" fill-opacity="0.43"/>
<path d="M321.956 285.1C323.734 285.317 329.319 283.246 329.381 282.739C329.443 282.233 324.521 278.878 322.742 278.661C321.893 278.566 321.04 278.809 320.37 279.339C319.699 279.869 319.265 280.642 319.161 281.491C319.057 282.339 319.293 283.194 319.816 283.87C320.339 284.546 321.108 284.988 321.956 285.1Z" fill="#8BE1E5" fill-opacity="0.43"/>
<path d="M331.531 288.316L331.307 288.363C331.269 288.229 331.225 288.079 331.176 287.914C330.659 286.187 330.039 284.494 329.319 282.842C329.246 282.669 329.171 282.497 329.095 282.336C327.265 278.281 324.305 273.383 319.896 270.529L319.809 270.47L319.931 270.277C319.947 270.29 319.964 270.301 319.982 270.31C323.51 272.584 326.12 276.148 327.971 279.562C328.046 279.696 328.115 279.829 328.186 279.961C329.507 282.488 330.583 285.136 331.4 287.867C331.448 288.032 331.493 288.182 331.531 288.316Z" fill="#8BE1E5" fill-opacity="0.43"/>
<path d="M333.365 287.96C333.365 287.802 333.38 287.642 333.385 287.483C333.538 283.602 333.346 279.716 332.81 275.869C332.542 273.91 332.204 272.046 331.824 270.295C330.945 266.225 329.726 262.237 328.181 258.371C327.601 256.933 327.148 255.942 326.916 255.48C326.864 255.373 326.828 255.296 326.802 255.248L326.778 255.198V255.188L326.743 255.206L326.7 255.227L326.618 255.27L326.592 255.286H326.575C326.575 255.286 326.575 255.296 326.592 255.313C326.605 255.344 326.62 255.374 326.637 255.403L326.7 255.54C326.922 255.995 327.408 257.031 328.021 258.553C329.524 262.333 330.714 266.229 331.581 270.203C331.984 272.046 332.342 274.02 332.614 276.096C333.127 279.879 333.308 283.699 333.155 287.512L333.134 287.989L333.365 287.96Z" fill="#8BE1E5" fill-opacity="0.43"/>
<path d="M324.06 254.284C324.535 254.752 326.657 255.416 326.792 255.28C326.926 255.144 326.236 253.03 325.759 252.56C325.53 252.335 325.222 252.209 324.901 252.211C324.58 252.213 324.273 252.342 324.048 252.571C323.822 252.799 323.696 253.107 323.698 253.428C323.7 253.749 323.83 254.056 324.058 254.282L324.06 254.284Z" fill="white"/>
<path d="M327.107 252.317C326.745 252.879 326.533 255.093 326.694 255.196C326.854 255.299 328.78 254.191 329.143 253.628C329.317 253.358 329.376 253.03 329.308 252.716C329.24 252.402 329.05 252.128 328.78 251.954C328.51 251.78 328.182 251.721 327.868 251.789C327.554 251.857 327.28 252.047 327.107 252.317Z" fill="white"/>
<path d="M329.644 254.487C328.988 254.356 326.852 254.967 326.814 255.155C326.776 255.343 328.513 256.73 329.169 256.861C329.484 256.924 329.811 256.859 330.078 256.681C330.345 256.503 330.531 256.226 330.594 255.912C330.657 255.597 330.592 255.27 330.414 255.003C330.236 254.735 329.959 254.55 329.644 254.487Z" fill="white"/>
<path d="M328.377 257.485C328.267 256.825 326.938 255.044 326.75 255.075C326.563 255.106 325.879 257.221 325.989 257.881C326.042 258.197 326.218 258.48 326.48 258.667C326.741 258.853 327.065 258.929 327.382 258.876C327.699 258.823 327.981 258.647 328.168 258.386C328.355 258.124 328.43 257.8 328.377 257.483V257.485Z" fill="white"/>
<path d="M325.077 257.569C325.647 257.224 326.798 255.315 326.695 255.158C326.592 255.002 324.378 255.158 323.808 255.515C323.534 255.683 323.338 255.953 323.263 256.266C323.189 256.579 323.241 256.908 323.409 257.182C323.578 257.456 323.848 257.652 324.161 257.727C324.473 257.801 324.803 257.749 325.077 257.581V257.569Z" fill="white"/>
<path d="M326.297 255.116C326.305 255.037 326.335 254.963 326.384 254.902C326.433 254.841 326.5 254.795 326.575 254.772C326.65 254.749 326.73 254.748 326.806 254.77C326.881 254.792 326.948 254.836 326.999 254.896C327.049 254.957 327.08 255.031 327.089 255.109C327.097 255.187 327.082 255.266 327.046 255.335C327.01 255.405 326.954 255.462 326.885 255.5C326.816 255.538 326.737 255.555 326.659 255.548C326.607 255.543 326.556 255.529 326.509 255.505C326.463 255.481 326.422 255.447 326.388 255.407C326.354 255.367 326.329 255.321 326.313 255.271C326.298 255.22 326.292 255.168 326.297 255.116Z" fill="#8BE1E5" fill-opacity="0.43"/>
</svg>
