<svg width="371" height="331" viewBox="0 0 371 331" fill="none" xmlns="http://www.w3.org/2000/svg">
<path d="M357.543 196.285C365.484 170.345 369.703 143.408 370.073 116.282C370.515 88.3608 367.484 58.1659 348.999 37.245C330.956 16.7753 301.916 9.77462 274.635 8.59281C263.584 8.11467 252.307 8.43042 241.815 11.9398C220.632 19.0216 205.774 37.7954 186.991 49.8751C150.689 73.1866 101.702 70.4351 66.789 95.7945C57.8627 102.401 50.0948 110.443 43.8022 119.593C18.3707 156.004 16.395 206.452 35.7912 246.399C55.1874 286.346 94.2233 315.323 137.346 325.942C180.469 336.56 227.02 329.604 266.976 310.217C313.581 287.609 342.585 244.342 357.543 196.285Z" fill="#2AB6C5"/>
<path opacity="0.7" d="M357.543 196.285C365.484 170.345 369.703 143.408 370.073 116.282C370.515 88.3608 367.484 58.1659 348.999 37.245C330.956 16.7753 301.916 9.77462 274.635 8.59281C263.584 8.11467 252.307 8.43042 241.815 11.9398C220.632 19.0216 205.774 37.7954 186.991 49.8751C150.689 73.1866 101.702 70.4351 66.789 95.7945C57.8627 102.401 50.0948 110.443 43.8022 119.593C18.3707 156.004 16.395 206.452 35.7912 246.399C55.1874 286.346 94.2233 315.323 137.346 325.942C180.469 336.56 227.02 329.604 266.976 310.217C313.581 287.609 342.585 244.342 357.543 196.285Z" fill="white"/>
<path d="M314.44 11.9766V215.731C314.44 217.172 314.156 218.599 313.605 219.93C313.053 221.261 312.244 222.47 311.225 223.489C310.205 224.507 308.995 225.315 307.664 225.865C306.332 226.416 304.905 226.699 303.464 226.697H31.7277C28.8192 226.697 26.0298 225.542 23.9732 223.485C21.9166 221.429 20.7612 218.639 20.7612 215.731V11.9766C20.7599 10.5356 21.0426 9.10848 21.5931 7.77681C22.1436 6.44514 22.9512 5.23501 23.9697 4.21562C24.9881 3.19623 26.1975 2.38755 27.5287 1.8358C28.8598 1.28406 30.2867 1.00007 31.7277 1.00007H303.434C304.878 0.994773 306.309 1.27485 307.645 1.82422C308.981 2.37359 310.195 3.18143 311.218 4.20135C312.24 5.22127 313.052 6.43319 313.605 7.76749C314.158 9.10179 314.442 10.5322 314.44 11.9766Z" fill="white"/>
<path d="M314.44 18.2754V215.732C314.44 217.173 314.156 218.599 313.605 219.931C313.053 221.262 312.244 222.471 311.225 223.49C310.205 224.508 308.995 225.316 307.664 225.866C306.332 226.417 304.905 226.699 303.464 226.698H31.7278C30.7063 226.696 29.6903 226.55 28.7095 226.265L314.44 18.2754Z" fill="#263238"/>
<path opacity="0.9" d="M314.44 18.2754V215.732C314.44 217.173 314.156 218.599 313.605 219.931C313.053 221.262 312.244 222.471 311.225 223.49C310.205 224.508 308.995 225.316 307.664 225.866C306.332 226.417 304.905 226.699 303.464 226.698H31.7278C30.7063 226.696 29.6903 226.55 28.7095 226.265L314.44 18.2754Z" fill="white"/>
<path d="M239.084 128.573L253.884 121.893L250.724 104.186L234.416 102.868C232.363 97.4018 229.607 92.2271 226.216 87.4744L231.337 78.8019L234.617 73.2382L221.88 60.6117L207.653 69.1534C199.499 63.5259 190.238 59.7016 180.489 57.9355L176.394 41.6367H158.395L154.18 58.0562C148.634 59.1663 143.234 60.9047 138.082 63.2376L125.194 52.1705L110.485 62.2315L116.602 78.1077C112.699 82.1383 109.319 86.6441 106.541 91.5189L89.6386 89.7884L83.5517 106.691L97.5465 116.198C96.8595 120.165 96.5229 124.185 96.5404 128.211C96.4275 129.886 96.4275 131.567 96.5404 133.242L81.7407 141.552L86.4392 158.857H103.16C104.762 162.303 106.64 165.613 108.774 168.757C109.861 170.367 111.015 171.933 112.235 173.455L105.032 188.366L118.835 199.946L132.156 189.965C137.219 192.892 142.626 195.176 148.254 196.766L150.93 212.864L168.858 214.454L174.241 199.262C180.113 198.664 185.894 197.377 191.465 195.428L202.854 206.807L218.449 197.813L214.153 182.299C218.688 178.48 222.721 174.102 226.156 169.27L241.951 172.107L249.557 155.828L237.142 145.768C238.477 140.135 239.129 134.362 239.084 128.573ZM198.075 128.573C198.066 135.625 195.614 142.455 191.136 147.902C186.658 153.35 180.432 157.078 173.516 158.452C166.599 159.826 159.421 158.762 153.201 155.44C146.981 152.118 142.103 146.744 139.399 140.232C136.694 133.72 136.329 126.472 138.366 119.721C140.403 112.97 144.715 107.133 150.57 103.204C156.425 99.2737 163.461 97.4936 170.48 98.1661C177.499 98.8386 184.069 101.922 189.071 106.892C189.624 107.445 190.157 108.009 190.65 108.602C195.408 114.081 198.043 121.086 198.075 128.342V128.573Z" fill="#2AB6C5" stroke="#263238" stroke-miterlimit="10"/>
<path opacity="0.2" d="M237.142 145.827L249.557 155.887L242.001 172.116L226.155 169.269C222.716 174.079 218.684 178.437 214.153 182.237L218.449 197.751L202.854 206.746L191.465 195.427C185.896 197.368 180.119 198.648 174.251 199.24L168.868 214.432L150.94 212.842L148.264 196.745C142.636 195.155 137.229 192.87 132.166 189.944L118.845 199.924L105.032 188.284L112.215 173.373C110.995 171.851 109.841 170.285 108.754 168.675L141.573 144.609C145.061 150.261 150.298 154.62 156.489 157.026C162.68 159.431 169.486 159.751 175.875 157.937C182.264 156.123 187.887 152.274 191.89 146.974C195.893 141.675 198.058 135.214 198.055 128.572V128.381C198.039 121.132 195.427 114.129 190.691 108.641L231.377 78.8105L226.256 87.4831C229.647 92.2358 232.404 97.4105 234.456 102.876L250.765 104.184L253.924 121.892L239.124 128.572C239.16 134.382 238.495 140.176 237.142 145.827Z" fill="black"/>
<path d="M300.768 81.528L301.512 81.186C301.928 81.003 302.27 80.6846 302.482 80.2827C302.693 79.8808 302.763 79.4191 302.679 78.9726L302.528 78.0671C302.454 77.6193 302.231 77.2096 301.895 76.9046C301.559 76.5996 301.13 76.4171 300.677 76.3869L299.782 76.3165C299.427 76.2901 299.085 76.17 298.792 75.9685C298.498 75.767 298.264 75.4913 298.112 75.1695C297.87 74.6564 297.608 74.1634 297.327 73.6805C297.15 73.3746 297.057 73.0276 297.057 72.6744C297.057 72.3212 297.15 71.9742 297.327 71.6683L297.79 70.8836C298.015 70.491 298.105 70.0356 298.047 69.5869C297.989 69.1382 297.785 68.7208 297.468 68.3985L296.824 67.7546C296.504 67.4286 296.083 67.2211 295.629 67.1662C295.176 67.1114 294.717 67.2124 294.329 67.4528L293.534 67.9256C293.228 68.1023 292.881 68.1952 292.528 68.1952C292.175 68.1952 291.828 68.1023 291.522 67.9256C290.238 67.1873 288.861 66.6255 287.427 66.2555C287.075 66.1642 286.755 65.9795 286.5 65.7209C286.245 65.4623 286.064 65.1394 285.978 64.7866L285.747 63.851C285.64 63.4008 285.382 63.0009 285.016 62.7187C284.649 62.4365 284.197 62.2892 283.734 62.3016H282.829C282.368 62.2887 281.917 62.4346 281.55 62.7148C281.184 62.995 280.925 63.3926 280.817 63.8409L280.565 64.847C280.478 65.1924 280.301 65.5086 280.052 65.7631C279.803 66.0177 279.49 66.2015 279.147 66.2958C278.644 66.4366 278.141 66.5875 277.668 66.7686C277.33 66.8922 276.965 66.9229 276.611 66.8574C276.257 66.7919 275.927 66.6327 275.656 66.3964L274.851 65.7022C274.513 65.4058 274.086 65.2309 273.637 65.2054C273.189 65.1798 272.745 65.3051 272.376 65.5613L271.661 66.0442C271.276 66.3001 270.991 66.6809 270.853 67.1225C270.716 67.5641 270.735 68.0396 270.907 68.4689L271.269 69.4147C271.401 69.7475 271.441 70.1094 271.386 70.4631C271.331 70.8168 271.183 71.1495 270.957 71.4269C270.635 71.8105 270.333 72.2101 270.052 72.6241C269.847 72.9237 269.565 73.1623 269.235 73.3146C268.906 73.4669 268.541 73.5273 268.18 73.4894L267.174 73.3988C266.721 73.3484 266.264 73.4533 265.879 73.6964C265.493 73.9395 265.201 74.3064 265.051 74.7369L264.729 75.6223C264.573 76.0406 264.561 76.4989 264.694 76.9251C264.827 77.3513 265.098 77.7212 265.464 77.9765L266.389 78.6305C266.68 78.8352 266.912 79.1135 267.061 79.437C267.209 79.7604 267.269 80.1174 267.234 80.4717C267.177 80.9962 267.15 81.5236 267.154 82.0512C267.144 82.3979 267.046 82.7364 266.87 83.0353C266.694 83.3343 266.446 83.5841 266.148 83.7616L265.202 84.2847C264.794 84.4983 264.471 84.8456 264.288 85.2687C264.105 85.6917 264.072 86.1648 264.196 86.6088L264.428 87.4841C264.542 87.9269 264.803 88.3175 265.169 88.5918C265.534 88.8661 265.983 89.0077 266.44 88.9933H267.446C267.802 88.9901 268.153 89.0815 268.462 89.2583C268.771 89.4351 269.028 89.6908 269.206 89.9994C269.478 90.4823 269.77 90.9451 270.082 91.3978C270.282 91.6903 270.401 92.0303 270.428 92.3836C270.454 92.737 270.387 93.091 270.233 93.41L269.82 94.2652C269.617 94.6742 269.56 95.14 269.657 95.5861C269.754 96.0322 269.999 96.4321 270.353 96.7201L271.048 97.3036C271.393 97.5999 271.829 97.7702 272.284 97.7867C272.739 97.8031 273.187 97.6647 273.553 97.3942L274.267 96.8911C274.556 96.6846 274.894 96.5581 275.247 96.5246C275.601 96.491 275.957 96.5515 276.279 96.6999C276.789 96.9414 277.312 97.1628 277.849 97.364C278.179 97.4877 278.471 97.696 278.695 97.9679C278.919 98.2398 279.068 98.5658 279.127 98.9134L279.277 99.7887C279.351 100.236 279.574 100.646 279.91 100.951C280.247 101.256 280.676 101.439 281.129 101.469L282.054 101.549C282.505 101.591 282.957 101.48 283.337 101.234C283.716 100.987 284.002 100.62 284.147 100.191L284.429 99.4063C284.547 99.0675 284.755 98.7666 285.029 98.5349C285.303 98.3031 285.634 98.1489 285.988 98.0884C286.558 97.9986 287.122 97.8777 287.678 97.7262C288.022 97.6348 288.383 97.6359 288.726 97.7296C289.069 97.8233 289.381 98.0061 289.63 98.2594L290.224 98.8631C290.538 99.1867 290.952 99.3953 291.399 99.4555C291.846 99.5157 292.3 99.424 292.689 99.1951L293.484 98.7423C293.892 98.5288 294.215 98.1815 294.398 97.7584C294.581 97.3354 294.614 96.8623 294.49 96.4182L294.268 95.6335C294.163 95.2831 294.155 94.9106 294.245 94.5561C294.336 94.2015 294.521 93.8784 294.781 93.6213C295.194 93.2088 295.596 92.7762 295.969 92.3234C296.199 92.0485 296.498 91.8401 296.836 91.7198C297.174 91.5995 297.538 91.5717 297.89 91.6393L298.695 91.7902C299.141 91.8781 299.603 91.8126 300.007 91.6043C300.41 91.3961 300.732 91.0574 300.919 90.6433L301.301 89.8183C301.499 89.405 301.551 88.9363 301.446 88.4899C301.342 88.0435 301.088 87.646 300.727 87.3634L300.124 86.8704C299.846 86.6514 299.631 86.3631 299.501 86.0346C299.37 85.7061 299.328 85.3489 299.379 84.9991C299.478 84.3996 299.542 83.7949 299.57 83.1881C299.603 82.8296 299.732 82.4865 299.942 82.1945C300.153 81.9025 300.438 81.6723 300.768 81.528ZM293.544 82.0512C293.544 84.0689 292.946 86.0414 291.825 87.719C290.704 89.3967 289.11 90.7043 287.246 91.4764C285.382 92.2486 283.331 92.4506 281.352 92.057C279.373 91.6633 277.555 90.6917 276.128 89.265C274.702 87.8382 273.73 86.0205 273.336 84.0415C272.943 82.0625 273.145 80.0113 273.917 78.1472C274.689 76.283 275.997 74.6897 277.674 73.5687C279.352 72.4477 281.324 71.8494 283.342 71.8494C284.677 71.8468 285.998 72.107 287.232 72.6152C288.466 73.1234 289.588 73.8697 290.533 74.8114C291.479 75.7532 292.229 76.8719 292.743 78.1037C293.256 79.3356 293.521 80.6564 293.524 81.9908L293.544 82.0512Z" fill="#2AB6C5" stroke="#263238" stroke-miterlimit="10"/>
<path d="M314.441 11.9766V12.5299H20.7212V11.9766C20.7199 10.5322 21.0039 9.10179 21.5569 7.76749C22.1099 6.43319 22.9211 5.22127 23.9438 4.20135C24.9666 3.18143 26.1807 2.37359 27.5165 1.82422C28.8523 1.27485 30.2835 0.994773 31.7279 1.00007H303.444C304.887 0.9961 306.318 1.27716 307.652 1.82712C308.987 2.37709 310.2 3.18514 311.221 4.20493C312.243 5.22472 313.053 6.43618 313.606 7.76982C314.158 9.10346 314.442 10.533 314.441 11.9766Z" fill="#263238"/>
<path d="M314.44 11.9765V215.731C314.44 217.172 314.156 218.599 313.605 219.93C313.053 221.261 312.244 222.47 311.225 223.489C310.205 224.507 308.995 225.315 307.664 225.865C306.332 226.416 304.905 226.699 303.464 226.697H31.7277C28.8192 226.697 26.0298 225.542 23.9732 223.485C21.9166 221.429 20.7612 218.639 20.7612 215.731V11.9765C20.7599 10.5356 21.0426 9.10844 21.5931 7.77677C22.1436 6.4451 22.9512 5.23498 23.9697 4.21559C24.9881 3.1962 26.1975 2.38751 27.5287 1.83577C28.8598 1.28403 30.2867 1.00004 31.7277 1.00004H303.444C304.887 0.996068 306.317 1.27712 307.652 1.82709C308.987 2.37705 310.2 3.18511 311.221 4.2049C312.243 5.22469 313.053 6.43615 313.606 7.76979C314.158 9.10343 314.442 10.533 314.44 11.9765Z" stroke="#263238" stroke-linecap="round" stroke-linejoin="round"/>
<path d="M20.7212 11.9766H314.42" stroke="#263238" stroke-linecap="round" stroke-linejoin="round"/>
<path d="M45.1999 6.76449C45.1999 7.20425 45.0695 7.63413 44.8251 7.99978C44.5808 8.36543 44.2336 8.65042 43.8273 8.81871C43.421 8.987 42.9739 9.03103 42.5426 8.94524C42.1113 8.85944 41.7151 8.64768 41.4042 8.33672C41.0932 8.02576 40.8814 7.62958 40.7957 7.19826C40.7099 6.76695 40.7539 6.31989 40.9222 5.9136C41.0905 5.50732 41.3755 5.16006 41.7411 4.91574C42.1067 4.67142 42.5366 4.54102 42.9764 4.54102C43.5661 4.54102 44.1316 4.77528 44.5486 5.19226C44.9656 5.60924 45.1999 6.17479 45.1999 6.76449Z" fill="#2AB6C5"/>
<path d="M55.7433 6.76449C55.7433 7.20425 55.6129 7.63413 55.3686 7.99978C55.1243 8.36543 54.777 8.65042 54.3707 8.81871C53.9645 8.987 53.5174 9.03103 53.0861 8.94524C52.6548 8.85944 52.2586 8.64768 51.9476 8.33672C51.6367 8.02576 51.4249 7.62958 51.3391 7.19826C51.2533 6.76695 51.2974 6.31989 51.4656 5.9136C51.6339 5.50732 51.9189 5.16006 52.2846 4.91574C52.6502 4.67142 53.0801 4.54102 53.5199 4.54102C54.1096 4.54102 54.6751 4.77528 55.0921 5.19226C55.5091 5.60924 55.7433 6.17479 55.7433 6.76449Z" fill="#2AB6C5"/>
<path d="M66.2873 6.76449C66.2873 7.20425 66.1569 7.63413 65.9126 7.99978C65.6682 8.36543 65.321 8.65042 64.9147 8.81871C64.5084 8.987 64.0613 9.03103 63.63 8.94524C63.1987 8.85944 62.8025 8.64768 62.4916 8.33672C62.1806 8.02576 61.9688 7.62958 61.8831 7.19826C61.7973 6.76695 61.8413 6.31989 62.0096 5.9136C62.1779 5.50732 62.4629 5.16006 62.8285 4.91574C63.1942 4.67142 63.624 4.54102 64.0638 4.54102C64.6535 4.54102 65.2191 4.77528 65.636 5.19226C66.053 5.60924 66.2873 6.17479 66.2873 6.76449Z" fill="#2AB6C5"/>
<path d="M214.475 128.582C214.475 137.809 211.739 146.829 206.612 154.501C201.486 162.173 194.2 168.153 185.675 171.684C177.151 175.215 167.77 176.139 158.721 174.339C149.671 172.538 141.358 168.095 134.834 161.571C128.309 155.046 123.866 146.733 122.066 137.684C120.266 128.634 121.19 119.254 124.721 110.729C128.252 102.204 134.231 94.9183 141.903 89.7921C149.575 84.6658 158.595 81.9297 167.822 81.9297C180.143 81.9294 191.964 86.8031 200.704 95.487C209.445 104.171 214.395 115.96 214.475 128.28V128.582Z" stroke="#263238" stroke-width="4" stroke-miterlimit="10"/>
<path d="M337.339 23.4141H171.293C165.236 23.4141 160.327 28.3239 160.327 34.3805V71.2438C160.327 77.3004 165.236 82.2102 171.293 82.2102H337.339C343.396 82.2102 348.305 77.3004 348.305 71.2438V34.3805C348.305 28.3239 343.396 23.4141 337.339 23.4141Z" fill="white" stroke="#263238" stroke-miterlimit="10"/>
<path d="M193.226 52.5391H321.332" stroke="#263238" stroke-miterlimit="10"/>
<path d="M189.232 52.5396L209.465 38.2832H260.987L282.014 52.5396" stroke="#263238" stroke-miterlimit="10"/>
<path d="M286.008 52.5615C286.008 53.3574 285.772 54.1355 285.33 54.7973C284.888 55.4591 284.259 55.9749 283.524 56.2795C282.789 56.5841 281.979 56.6638 281.199 56.5085C280.418 56.3533 279.701 55.97 279.138 55.4072C278.575 54.8443 278.192 54.1273 278.037 53.3466C277.882 52.566 277.961 51.7568 278.266 51.0214C278.57 50.2861 279.086 49.6575 279.748 49.2153C280.41 48.7731 281.188 48.5371 281.984 48.5371C283.051 48.5371 284.075 48.9611 284.83 49.7158C285.584 50.4705 286.008 51.4942 286.008 52.5615Z" fill="#2AB6C5" stroke="#263238" stroke-miterlimit="10"/>
<path d="M209.464 42.2794C211.67 42.2794 213.459 40.4911 213.459 38.2852C213.459 36.0793 211.67 34.291 209.464 34.291C207.258 34.291 205.47 36.0793 205.47 38.2852C205.47 40.4911 207.258 42.2794 209.464 42.2794Z" fill="#2AB6C5" stroke="#263238" stroke-miterlimit="10"/>
<path d="M264.981 38.2841C264.981 39.0801 264.745 39.8582 264.303 40.52C263.86 41.1818 263.232 41.6976 262.497 42.0022C261.761 42.3068 260.952 42.3865 260.171 42.2312C259.391 42.0759 258.674 41.6926 258.111 41.1298C257.548 40.567 257.165 39.8499 257.009 39.0693C256.854 38.2886 256.934 37.4794 257.238 36.7441C257.543 36.0087 258.059 35.3802 258.721 34.938C259.382 34.4958 260.161 34.2598 260.957 34.2598C262.024 34.2598 263.047 34.6838 263.802 35.4385C264.557 36.1932 264.981 37.2168 264.981 38.2841Z" fill="#2AB6C5" stroke="#263238" stroke-miterlimit="10"/>
<path d="M189.232 52.5391L209.465 66.8055H304.43L321.332 52.5391" stroke="#263238" stroke-miterlimit="10"/>
<path d="M244.396 66.8076C244.396 67.6035 244.16 68.3816 243.718 69.0434C243.275 69.7052 242.647 70.221 241.912 70.5256C241.176 70.8302 240.367 70.9099 239.586 70.7546C238.806 70.5994 238.089 70.2161 237.526 69.6533C236.963 69.0904 236.58 68.3734 236.424 67.5927C236.269 66.8121 236.349 66.0029 236.654 65.2675C236.958 64.5322 237.474 63.9036 238.136 63.4614C238.798 63.0192 239.576 62.7832 240.372 62.7832C241.439 62.7832 242.463 63.2072 243.217 63.9619C243.972 64.7166 244.396 65.7403 244.396 66.8076Z" fill="#2AB6C5" stroke="#263238" stroke-miterlimit="10"/>
<path d="M213.459 66.8076C213.459 67.6035 213.223 68.3816 212.781 69.0434C212.338 69.7052 211.71 70.221 210.975 70.5256C210.239 70.8302 209.43 70.9099 208.649 70.7546C207.869 70.5994 207.152 70.2161 206.589 69.6533C206.026 69.0904 205.643 68.3734 205.487 67.5927C205.332 66.8121 205.412 66.0029 205.717 65.2675C206.021 64.5322 206.537 63.9036 207.199 63.4614C207.861 63.0192 208.639 62.7832 209.435 62.7832C210.502 62.7832 211.526 63.2072 212.28 63.9619C213.035 64.7166 213.459 65.7403 213.459 66.8076Z" fill="#2AB6C5" stroke="#263238" stroke-miterlimit="10"/>
<path d="M308.404 66.8076C308.404 67.6035 308.168 68.3816 307.726 69.0434C307.284 69.7052 306.655 70.221 305.92 70.5256C305.185 70.8302 304.375 70.9099 303.595 70.7546C302.814 70.5994 302.097 70.2161 301.534 69.6533C300.971 69.0904 300.588 68.3734 300.433 67.5927C300.278 66.8121 300.357 66.0029 300.662 65.2675C300.966 64.5322 301.482 63.9036 302.144 63.4614C302.806 63.0192 303.584 62.7832 304.38 62.7832C305.447 62.7832 306.471 63.2072 307.226 63.9619C307.98 64.7166 308.404 65.7403 308.404 66.8076Z" fill="#2AB6C5" stroke="#263238" stroke-miterlimit="10"/>
<path d="M321.332 56.5353C323.538 56.5353 325.326 54.747 325.326 52.5411C325.326 50.3351 323.538 48.5469 321.332 48.5469C319.126 48.5469 317.338 50.3351 317.338 52.5411C317.338 54.747 319.126 56.5353 321.332 56.5353Z" fill="#2AB6C5" stroke="#263238" stroke-miterlimit="10"/>
<path d="M193.226 52.5615C193.226 53.3574 192.99 54.1355 192.548 54.7973C192.106 55.4591 191.477 55.9749 190.742 56.2795C190.006 56.5841 189.197 56.6638 188.416 56.5085C187.636 56.3533 186.919 55.97 186.356 55.4072C185.793 54.8443 185.41 54.1273 185.255 53.3466C185.099 52.566 185.179 51.7568 185.484 51.0214C185.788 50.2861 186.304 49.6575 186.966 49.2153C187.628 48.7731 188.406 48.5371 189.202 48.5371C190.269 48.5371 191.293 48.9611 192.047 49.7158C192.802 50.4705 193.226 51.4942 193.226 52.5615Z" fill="#2AB6C5" stroke="#263238" stroke-miterlimit="10"/>
<path d="M123.02 147.244H27.361C21.3044 147.244 16.3945 152.154 16.3945 158.211V253.87C16.3945 259.927 21.3044 264.836 27.361 264.836H123.02C129.077 264.836 133.987 259.927 133.987 253.87V158.211C133.987 152.154 129.077 147.244 123.02 147.244Z" fill="white" stroke="#263238" stroke-miterlimit="10"/>
<path d="M60.492 214.381L45.2598 243.98H114.288" stroke="#263238" stroke-linecap="round" stroke-linejoin="round"/>
<path d="M114.288 169.66L82.0728 191.07L114.288 200.769" stroke="#263238" stroke-linecap="round" stroke-linejoin="round"/>
<path d="M121.904 162.043H106.672V177.275H121.904V162.043Z" fill="#2AB6C5" stroke="#263238" stroke-miterlimit="10"/>
<path d="M121.904 193.152H106.672V208.385H121.904V193.152Z" fill="#2AB6C5" stroke="#263238" stroke-miterlimit="10"/>
<path d="M89.6888 183.453H74.4565V198.685H89.6888V183.453Z" fill="#2AB6C5" stroke="#263238" stroke-miterlimit="10"/>
<path d="M68.1083 206.766H52.876V221.998H68.1083V206.766Z" fill="#2AB6C5" stroke="#263238" stroke-miterlimit="10"/>
<path d="M52.8758 236.363H37.6436V251.596H52.8758V236.363Z" fill="#2AB6C5" stroke="#263238" stroke-miterlimit="10"/>
<path d="M121.904 236.363H106.672V251.596H121.904V236.363Z" fill="#2AB6C5" stroke="#263238" stroke-miterlimit="10"/>
<path d="M107.507 101.164H11.8473C5.7907 101.164 0.880859 106.074 0.880859 112.131V207.79C0.880859 213.847 5.7907 218.756 11.8473 218.756H107.507C113.563 218.756 118.473 213.847 118.473 207.79V112.131C118.473 106.074 113.563 101.164 107.507 101.164Z" fill="white" stroke="#263238" stroke-miterlimit="10"/>
<path d="M91.5398 112.533H13.3159V118.59H91.5398V112.533Z" fill="#2AB6C5"/>
<path d="M58.5097 122.514H13.3159V128.57H58.5097V122.514Z" fill="#2AB6C5"/>
<path d="M39.6354 132.494H13.3159V138.551H39.6354V132.494Z" fill="#2AB6C5"/>
<path d="M56.6384 142.465H13.3159V148.522H56.6384V142.465Z" fill="#2AB6C5"/>
<path d="M80.845 152.445H13.3159V158.502H80.845V152.445Z" fill="#2AB6C5"/>
<path d="M58.5097 162.416H13.3159V168.473H58.5097V162.416Z" fill="#2AB6C5"/>
<path d="M44.8469 172.396H13.3159V178.453H44.8469V172.396Z" fill="#2AB6C5"/>
<path d="M64.3652 182.367H13.3159V188.424H64.3652V182.367Z" fill="#2AB6C5"/>
<path d="M75.2008 192.348H13.3159V198.404H75.2008V192.348Z" fill="#2AB6C5"/>
<path d="M91.5398 202.318H13.3159V208.375H91.5398V202.318Z" fill="#2AB6C5"/>
<path opacity="0.3" d="M91.5398 112.533H13.3159V118.59H91.5398V112.533Z" fill="black"/>
<path opacity="0.3" d="M58.5097 122.514H13.3159V128.57H58.5097V122.514Z" fill="black"/>
<path opacity="0.3" d="M39.6354 132.494H13.3159V138.551H39.6354V132.494Z" fill="black"/>
<path opacity="0.3" d="M56.6384 142.465H13.3159V148.522H56.6384V142.465Z" fill="black"/>
<path opacity="0.3" d="M80.845 152.445H13.3159V158.502H80.845V152.445Z" fill="black"/>
<path opacity="0.3" d="M58.5097 162.416H13.3159V168.473H58.5097V162.416Z" fill="black"/>
<path opacity="0.3" d="M44.8469 172.396H13.3159V178.453H44.8469V172.396Z" fill="black"/>
<path opacity="0.3" d="M64.3652 182.367H13.3159V188.424H64.3652V182.367Z" fill="black"/>
<path opacity="0.3" d="M75.2008 192.348H13.3159V198.404H75.2008V192.348Z" fill="black"/>
<path opacity="0.3" d="M91.5398 202.318H13.3159V208.375H91.5398V202.318Z" fill="black"/>
<path d="M63.6911 90.793H92.1536C93.5278 90.793 94.8457 91.3389 95.8174 92.3106C96.7891 93.2823 97.335 94.6002 97.335 95.9744V101.126H58.5098V95.9744C58.5098 94.6002 59.0557 93.2823 60.0274 92.3106C60.9991 91.3389 62.317 90.793 63.6911 90.793Z" fill="white" stroke="#263238" stroke-miterlimit="10"/>
<path d="M44.4447 90.793H72.6154C74.0349 90.793 75.3963 91.3569 76.4001 92.3607C77.4039 93.3644 77.9678 94.7258 77.9678 96.1454V101.176H39.0923V96.1454C39.0923 94.7258 39.6562 93.3644 40.66 92.3607C41.6637 91.3569 43.0252 90.793 44.4447 90.793Z" fill="#2AB6C5" stroke="#263238" stroke-miterlimit="10"/>
<path d="M22.8136 90.793H51.6281C52.9623 90.793 54.2418 91.323 55.1852 92.2664C56.1286 93.2098 56.6586 94.4893 56.6586 95.8234V101.146H17.8032V95.8234C17.8032 94.4928 18.3304 93.2163 19.2695 92.2734C20.2085 91.3306 21.4829 90.7983 22.8136 90.793Z" fill="white" stroke="#263238" stroke-miterlimit="10"/>
<path d="M348.919 306.408H370.289" stroke="#263238" stroke-linecap="round" stroke-linejoin="round"/>
<path d="M12.1895 306.408H337.671" stroke="#263238" stroke-linecap="round" stroke-linejoin="round"/>
<path d="M343.044 293.883C343.044 293.883 346.837 290.784 348.638 294.174C350.198 297.102 346.465 300.382 342.219 300.372V302.847C342.219 302.847 351.324 303.088 352.029 295.422C352.733 287.756 343.044 289.868 343.044 289.868V293.883Z" fill="#2AB6C5" stroke="#263238" stroke-linecap="round" stroke-linejoin="round"/>
<path d="M342.733 306.356H324.502L321.766 283.457H345.479L342.733 306.356Z" fill="#2AB6C5" stroke="#263238" stroke-linecap="round" stroke-linejoin="round"/>
<path d="M345.439 282.361H321.795C321.106 282.361 320.548 282.92 320.548 283.609V283.73C320.548 284.419 321.106 284.977 321.795 284.977H345.439C346.128 284.977 346.686 284.419 346.686 283.73V283.609C346.686 282.92 346.128 282.361 345.439 282.361Z" fill="white" stroke="#263238" stroke-linecap="round" stroke-linejoin="round"/>
<path d="M330.538 279.868C330.538 279.868 338.929 274.837 336.192 269.062C333.456 263.287 324.2 259.484 324.2 250.5C324.2 242.763 332.43 239.896 337.802 236.797" stroke="#263238" stroke-linecap="round" stroke-linejoin="round"/>
<path d="M333.275 242.27C331.07 243.771 329.552 246.086 329.053 248.707C328.555 251.328 329.118 254.039 330.619 256.244" stroke="#263238" stroke-linecap="round" stroke-linejoin="round"/>
<path d="M337.842 265.1C339.512 268.305 339.977 272.004 339.15 275.523" stroke="#263238" stroke-linecap="round" stroke-linejoin="round"/>
<path d="M113.222 304.509C113.222 304.509 112.839 297.939 107.044 295.625C101.249 293.311 98.1504 294.266 85.212 297.748C77.0587 299.883 68.7081 301.177 60.291 301.611V304.509H113.222Z" fill="white" stroke="#263238" stroke-linecap="round" stroke-linejoin="round"/>
<path d="M112.99 304.509C112.99 304.509 113.373 297.939 119.168 295.625C124.963 293.311 128.051 294.266 141 297.748C149.15 299.882 157.497 301.177 165.911 301.611V304.509H112.99Z" fill="white" stroke="#263238" stroke-linecap="round" stroke-linejoin="round"/>
<path d="M168.064 303.35H58.9229V305.472H168.064V303.35Z" fill="#263238" stroke="#263238" stroke-linecap="round" stroke-linejoin="round"/>
<path d="M115.808 304.386C116.332 302.839 117.174 301.419 118.282 300.218C119.389 299.017 120.737 298.062 122.237 297.414" stroke="#263238" stroke-linecap="round" stroke-linejoin="round"/>
<path d="M119.117 303.924C119.885 302.592 120.932 301.441 122.185 300.55C123.439 299.659 124.87 299.05 126.381 298.763C129.983 298.099 133.655 299.336 137.066 300.715C140.477 302.093 146.372 303.914 150.045 303.924" stroke="#263238" stroke-linecap="round" stroke-linejoin="round"/>
<path d="M81.3184 303.32C84.9356 302.938 88.4814 302.05 91.8522 300.684C93.8778 299.728 95.9731 298.927 98.1202 298.289C100.292 297.644 102.63 297.879 104.63 298.943C105.493 299.501 106.252 300.206 106.873 301.026C107.732 302.114 108.442 303.312 108.986 304.587" stroke="#263238" stroke-linecap="round" stroke-linejoin="round"/>
<path d="M101.279 300.371C102.46 300.543 103.544 301.119 104.347 302.001C105.149 302.875 105.845 303.841 106.42 304.878" stroke="#263238" stroke-linecap="round" stroke-linejoin="round"/>
<path d="M195.872 303.463C191.874 305.3 187.544 306.303 183.145 306.411C176.384 306.411 162.611 292.437 162.611 292.437C162.611 292.437 162.118 290.928 163.184 285.293C164.251 279.659 174.362 228.006 174.362 228.006C174.362 228.006 175.559 215.984 182.411 208.609C189.262 201.234 202.653 198.548 202.653 198.548C202.653 198.548 232.313 185.63 248.934 189.624C265.585 196.224 283.704 202.934 289.761 208.126C295.818 213.317 310.718 255.02 315.92 276.47C315.92 276.47 304.551 300.616 293.946 307.407C283.342 314.198 257.727 311.975 257.727 311.975L195.872 303.463Z" fill="#2AB6C5"/>
<path opacity="0.3" d="M192.109 261.478L187.823 204.543C185.017 205.681 182.529 207.485 180.575 209.798C178.62 212.112 177.258 214.866 176.605 217.823C174.372 228.005 160.981 290.685 162.621 292.435C164.261 294.186 173.034 301.661 173.034 301.661C173.034 301.661 182.461 309.71 192.15 304.911C201.838 300.112 192.109 261.478 192.109 261.478Z" fill="black"/>
<path opacity="0.3" d="M234.687 209.814C234.184 211.524 232.041 212.068 230.271 212.088C225.158 212.143 220.201 210.333 216.326 206.997C215.612 206.383 203.036 214.15 201.587 214.935C199.303 216.163 197.059 217.511 194.735 218.648C192.562 219.714 190.52 220.247 189.091 222.4C188.156 223.986 187.451 225.697 186.998 227.481C183.98 237.472 180.73 247.432 177.944 257.493C175.549 266.196 172.309 275.834 172.44 284.979C172.44 285.649 172.487 286.318 172.581 286.982C174.493 298.652 195.862 303.512 195.862 303.512C195.862 303.512 188.316 308.13 183.135 306.46C177.954 304.789 165.921 297.868 162.118 291.368L172.581 236.586C172.581 236.586 172.45 210.227 191.465 202.379C210.481 194.532 217.956 193.324 217.956 193.324L234.687 209.814Z" fill="black"/>
<path opacity="0.3" d="M304.872 295.917C304.872 295.917 313.173 286.742 315.869 276.52C315.869 276.52 303.132 234.546 299.852 226.698C296.572 218.851 291.21 209.876 287.457 206.043L281.42 292.436L280.143 310.606C280.143 310.606 286.944 310.898 291.733 308.655C296.522 306.411 304.872 295.917 304.872 295.917Z" fill="black"/>
<path d="M280.102 310.605L287.457 206.042C287.457 206.042 251.831 189.391 242.535 187.842C233.239 186.292 187.934 204.11 187.934 204.11L194.514 304.408" stroke="#263238" stroke-linecap="round" stroke-linejoin="round"/>
<path d="M215.843 136.772L212.181 154.319C212.181 154.319 207.493 151.009 206.497 154.751C205.501 158.494 208.509 163.645 214.445 163.927C214.445 163.927 216.044 171.875 221.266 177.278C223.724 179.906 226.323 182.398 229.053 184.743C229.053 184.743 231.065 198.064 237.836 198.577C244.607 199.09 245.885 193.013 247.243 184.602C247.243 184.602 253.059 174.541 254.759 169.058C254.759 169.058 261.892 164.078 257.133 156.814C257.133 156.814 259.488 139.449 255.393 136.511C251.298 133.573 223.017 135.062 215.843 136.772Z" fill="white"/>
<path d="M237.595 199.966C237.595 199.966 235.331 211.345 233.932 211.627C232.534 211.908 226.96 206.596 222.091 199.966C217.221 193.336 217.966 193.326 217.966 193.326C217.966 193.326 220.229 184.633 222.091 183.355C223.952 182.078 230.632 182.249 230.632 182.249L245.301 181.685C245.301 181.685 250.231 180.991 253.199 182.933C256.167 184.874 257.686 193.326 257.686 193.326C257.686 193.326 248.923 209.514 241.73 211.627C240.127 207.823 238.746 203.93 237.595 199.966Z" fill="white"/>
<path d="M189.543 285.393L191.475 258.107" stroke="#263238" stroke-miterlimit="10"/>
<path d="M257.687 141.812C257.687 141.812 249.366 145.042 242.002 144.418C242.002 144.418 234.235 152.255 224.284 147.597C224.284 147.597 215.31 171.894 235.885 187.841C230.682 185.841 226.028 182.635 222.306 178.487C218.584 174.338 215.9 169.365 214.475 163.976C214.475 163.976 208.629 164.892 206.527 156.139C206.527 156.139 204.836 152.769 212.563 152.748L212.231 135.836L232.051 139.81L246.267 137.737L257.687 141.812Z" fill="#2AB6C5"/>
<path opacity="0.4" d="M257.687 141.814C257.687 141.814 249.366 145.043 242.002 144.419C242.002 144.419 234.235 152.257 224.284 147.599C224.284 147.599 217.03 173.616 235.039 187.349C235.039 187.349 218.711 181.685 214.475 163.928C214.475 163.928 208.66 163.314 206.527 156.09C206.527 156.09 204.836 152.72 212.563 152.7L212.231 135.787L232.051 139.761L246.267 137.689L257.687 141.814Z" fill="white"/>
<path d="M235.04 175.496C235.685 176.014 236.357 176.497 237.052 176.945C237.515 177.227 238.199 177.468 238.531 177.046C238.634 176.865 238.69 176.661 238.692 176.452C238.983 171.653 237.867 166.804 238.551 162.045" stroke="#263238" stroke-linecap="round" stroke-linejoin="round"/>
<path d="M241.72 159.319C241.72 159.319 244.105 154.058 250.252 158.786" stroke="#263238" stroke-width="2" stroke-linecap="round" stroke-linejoin="round"/>
<path d="M233.953 160.283C233.953 160.283 229.455 154.689 223.892 160.464" stroke="#263238" stroke-width="2" stroke-linecap="round" stroke-linejoin="round"/>
<path d="M227.916 183.908C227.916 183.908 230.311 198.244 238.762 198.687C245.613 199.039 246.951 187.177 247.213 182.932" stroke="#263238" stroke-linecap="round" stroke-linejoin="round"/>
<path d="M213.368 155.919C213.368 155.919 209.645 151.472 207.12 153.645C204.595 155.818 208.378 165.376 214.474 163.927" stroke="#263238" stroke-linecap="round" stroke-linejoin="round"/>
<path d="M229.486 177.318C231.324 179.531 233.837 181.079 236.639 181.725" stroke="#263238" stroke-linecap="round" stroke-linejoin="round"/>
<path d="M229.084 168.947C229.617 168.947 230.049 168.028 230.049 166.894C230.049 165.761 229.617 164.842 229.084 164.842C228.55 164.842 228.118 165.761 228.118 166.894C228.118 168.028 228.55 168.947 229.084 168.947Z" fill="#263238"/>
<path d="M245.734 166.895C245.734 168.032 245.301 168.907 244.728 168.907C244.154 168.907 243.722 167.992 243.722 166.895C243.722 165.798 244.154 164.883 244.728 164.883C245.301 164.883 245.734 165.768 245.734 166.895Z" fill="#263238"/>
<path d="M237.866 198.577C237.866 198.577 235.522 211.345 233.933 211.657C232.343 211.969 220.33 201.032 217.966 193.356C217.966 193.356 220.511 183.295 222.825 182.963C223.932 182.792 225.2 182.631 226.216 182.5" stroke="#263238" stroke-linecap="round" stroke-linejoin="round"/>
<path d="M237.867 198.576C237.867 198.576 240.14 211.344 241.73 211.655C243.32 211.967 255.322 201.031 257.687 193.355C257.687 193.355 254.819 183.404 252.656 182.569C251.269 182.039 249.838 181.628 248.38 181.342" stroke="#263238" stroke-linecap="round" stroke-linejoin="round"/>
<path d="M215.622 167.146C217.161 169.822 219.083 160.385 218.268 157.417C217.725 155.405 216.658 153.554 216.568 151.501C216.467 149.207 217.574 147.075 218.379 144.932C219.184 142.789 219.667 140.233 218.379 138.322C222.822 141.468 228.04 143.339 233.47 143.734C234.854 143.925 236.262 143.808 237.595 143.392C238.26 143.177 238.858 142.791 239.329 142.274C239.8 141.758 240.128 141.127 240.281 140.444C245.312 141.098 250.342 141.762 255.463 141.068C259.709 140.495 266.309 139.418 268.492 135.082C271.692 128.743 263.462 122.164 258.602 119.99C246.831 114.618 231.025 113.712 220.421 122.133C219.342 123.08 218.206 123.96 217.021 124.769C214.676 126.238 209.354 127.375 207.493 129.418C204.988 132.164 208.127 153.373 208.127 153.373C208.127 153.373 212.211 151.481 213.902 157.8C215.049 162.035 214.063 164.44 215.622 167.146Z" fill="#263238"/>
<path d="M254.075 139.7C254.013 139.965 253.969 140.234 253.944 140.505C253.832 142.91 254.118 145.316 254.789 147.628C255.051 148.634 255.433 149.64 255.604 150.717C255.996 153.242 255.986 155.667 257.848 157.709C257.848 157.709 261.409 145.264 259.971 136.37C259.81 135.364 259.478 132.748 257.958 133.231C256.811 133.583 255.946 135.555 255.493 136.511C254.91 137.521 254.435 138.59 254.075 139.7Z" fill="#263238"/>
<path d="M204.947 128.019C206.518 126.931 208.325 126.231 210.219 125.978C212.113 125.724 214.041 125.924 215.843 126.56C218.682 121.503 222.635 117.157 227.403 113.854" stroke="#263238" stroke-linecap="round" stroke-linejoin="round"/>
<path opacity="0.47" d="M220.24 125.001C220.24 125.001 239.356 138.624 250.996 135.253C262.637 131.883 259.357 121.902 259.357 121.902" stroke="white" stroke-linecap="round" stroke-linejoin="round"/>
<path opacity="0.47" d="M222.091 122.707C222.091 122.707 246.136 133.774 250.181 118.119" stroke="white" stroke-linecap="round" stroke-linejoin="round"/>
<path d="M227.916 183.908C227.916 183.908 232.494 192.791 236.086 192.64C239.677 192.49 246.247 182.932 246.247 182.932C246.247 182.932 242.696 187.509 237.313 187.962C233.761 188.304 227.916 183.908 227.916 183.908Z" fill="#263238"/>
<path d="M255.604 248.751L256.349 248.409C256.764 248.226 257.106 247.907 257.318 247.505C257.53 247.103 257.6 246.642 257.516 246.195L257.365 245.29C257.291 244.842 257.068 244.432 256.732 244.127C256.396 243.822 255.966 243.64 255.514 243.61L254.618 243.539C254.263 243.513 253.922 243.393 253.628 243.191C253.335 242.99 253.1 242.714 252.948 242.392C252.707 241.879 252.445 241.386 252.163 240.903C251.987 240.597 251.894 240.25 251.894 239.897C251.894 239.544 251.987 239.197 252.163 238.891L252.626 238.106C252.849 237.713 252.939 237.258 252.881 236.81C252.823 236.362 252.62 235.944 252.304 235.621L251.66 234.977C251.34 234.651 250.919 234.444 250.466 234.389C250.012 234.334 249.553 234.435 249.165 234.675L248.37 235.148C248.064 235.325 247.717 235.418 247.364 235.418C247.011 235.418 246.664 235.325 246.358 235.148C245.076 234.406 243.699 233.844 242.263 233.478C241.912 233.387 241.591 233.202 241.336 232.944C241.081 232.685 240.901 232.362 240.814 232.009L240.583 231.074C240.477 230.623 240.219 230.224 239.852 229.941C239.486 229.659 239.033 229.512 238.571 229.524H237.665C237.204 229.511 236.753 229.657 236.387 229.937C236.02 230.218 235.761 230.615 235.653 231.064L235.402 232.07C235.315 232.415 235.137 232.731 234.888 232.986C234.639 233.24 234.327 233.424 233.983 233.518C233.48 233.659 232.977 233.81 232.504 233.991C232.166 234.115 231.801 234.145 231.447 234.08C231.093 234.015 230.763 233.855 230.492 233.619L229.687 232.925C229.349 232.628 228.922 232.454 228.474 232.428C228.025 232.402 227.581 232.528 227.212 232.784L226.498 233.267C226.112 233.523 225.827 233.904 225.69 234.345C225.552 234.787 225.571 235.262 225.743 235.692L226.105 236.637C226.237 236.97 226.278 237.332 226.223 237.686C226.168 238.039 226.02 238.372 225.793 238.649C225.469 239.031 225.167 239.431 224.888 239.847C224.683 240.146 224.401 240.385 224.072 240.537C223.742 240.69 223.378 240.75 223.017 240.712L222.011 240.621C221.557 240.571 221.101 240.676 220.715 240.919C220.329 241.162 220.038 241.529 219.888 241.96L219.566 242.845C219.41 243.263 219.397 243.722 219.53 244.148C219.663 244.574 219.934 244.944 220.3 245.199L221.226 245.853C221.517 246.058 221.748 246.336 221.897 246.66C222.045 246.983 222.105 247.34 222.071 247.694C222.009 248.218 221.982 248.746 221.99 249.274C221.973 249.619 221.872 249.955 221.697 250.252C221.522 250.55 221.277 250.801 220.984 250.984L220.039 251.507C219.63 251.721 219.307 252.068 219.124 252.491C218.941 252.914 218.909 253.387 219.033 253.831L219.264 254.707C219.378 255.149 219.639 255.54 220.005 255.814C220.371 256.089 220.819 256.23 221.276 256.216H222.282C222.638 256.213 222.989 256.304 223.299 256.481C223.608 256.658 223.865 256.913 224.043 257.222C224.315 257.705 224.606 258.168 224.918 258.62C225.118 258.913 225.238 259.253 225.264 259.606C225.291 259.96 225.223 260.314 225.069 260.633L224.657 261.488C224.454 261.897 224.396 262.363 224.493 262.809C224.59 263.255 224.836 263.655 225.19 263.943L225.884 264.526C226.23 264.823 226.666 264.993 227.121 265.009C227.576 265.026 228.023 264.887 228.389 264.617L229.104 264.114C229.392 263.907 229.73 263.781 230.084 263.747C230.437 263.714 230.793 263.774 231.116 263.923C231.619 264.164 232.142 264.385 232.685 264.587C233.015 264.71 233.307 264.919 233.531 265.191C233.755 265.462 233.904 265.788 233.963 266.136L234.114 267.011C234.188 267.459 234.411 267.869 234.747 268.174C235.083 268.479 235.512 268.661 235.965 268.691L236.891 268.772C237.341 268.814 237.793 268.703 238.173 268.456C238.553 268.21 238.838 267.843 238.983 267.414L239.265 266.629C239.384 266.29 239.591 265.989 239.865 265.758C240.139 265.526 240.471 265.372 240.825 265.311C241.394 265.219 241.958 265.098 242.515 264.949C242.858 264.857 243.22 264.859 243.563 264.952C243.905 265.046 244.217 265.229 244.467 265.482L245.06 266.086C245.374 266.409 245.788 266.618 246.235 266.678C246.682 266.738 247.136 266.647 247.525 266.418L248.32 265.965C248.728 265.751 249.051 265.404 249.234 264.981C249.418 264.558 249.45 264.085 249.326 263.641L249.105 262.856C248.999 262.506 248.991 262.133 249.082 261.779C249.172 261.424 249.357 261.101 249.618 260.844C250.03 260.431 250.433 259.999 250.805 259.546C251.035 259.271 251.335 259.063 251.673 258.942C252.011 258.822 252.374 258.794 252.727 258.862L253.531 259.013C253.977 259.101 254.439 259.035 254.843 258.827C255.247 258.619 255.568 258.28 255.755 257.866L256.137 257.041C256.336 256.628 256.387 256.159 256.283 255.713C256.178 255.266 255.925 254.869 255.564 254.586L254.96 254.093C254.683 253.874 254.468 253.586 254.337 253.257C254.206 252.929 254.164 252.572 254.216 252.222C254.306 251.618 254.377 251.014 254.407 250.411C254.44 250.052 254.568 249.709 254.779 249.417C254.989 249.125 255.274 248.895 255.604 248.751ZM243.531 249.274C243.531 250.327 243.219 251.356 242.633 252.232C242.048 253.107 241.216 253.789 240.243 254.192C239.27 254.594 238.199 254.699 237.167 254.493C236.134 254.287 235.186 253.779 234.442 253.034C233.698 252.288 233.192 251.339 232.987 250.306C232.783 249.273 232.89 248.202 233.294 247.23C233.699 246.258 234.383 245.427 235.259 244.844C236.136 244.26 237.166 243.95 238.219 243.952C239.621 243.952 240.967 244.507 241.961 245.497C242.955 246.487 243.516 247.831 243.521 249.234L243.531 249.274Z" fill="#263238"/>
<path d="M189.745 281.711C188.948 282.593 188.076 283.405 187.139 284.136C184.589 286.595 182.678 289.642 181.575 293.009C181.027 294.565 181.027 296.262 181.575 297.818C182.753 300.706 186.505 303.704 189.513 301.843" stroke="#263238" stroke-linecap="round" stroke-linejoin="round"/>
<path d="M189.503 276.568C186.646 276.125 183.829 277.785 181.877 279.908C179.925 282.031 178.557 284.647 176.776 286.951" stroke="#263238" stroke-linecap="round" stroke-linejoin="round"/>
<path d="M189.292 305.948C185.48 306.692 181.531 306.268 177.964 304.731C175.698 303.52 173.587 302.04 171.676 300.324L164.251 294.177C163.063 293.171 161.735 291.792 162.238 290.324C162.238 290.324 174.654 224.927 176.605 217.824C178.849 209.665 187.944 204.111 187.944 204.111" stroke="#263238" stroke-linecap="round" stroke-linejoin="round"/>
<path d="M282.416 282.445C285.608 284.855 288.05 288.12 289.459 291.862C290.568 295.337 291.313 298.918 291.682 302.547C289.751 303.624 285.797 306.41 282.406 306.41" stroke="#263238" stroke-linecap="round" stroke-linejoin="round"/>
<path d="M282.839 276.981C285.857 276.177 288.875 278.229 291.109 280.362C293.342 282.495 295.727 284.97 298.826 285.292" stroke="#263238" stroke-linecap="round" stroke-linejoin="round"/>
<path d="M283.422 310.969C289.248 310.355 294.57 307.166 298.775 303.091C302.981 299.016 306.251 294.036 309.47 289.167C312.076 285.192 314.722 281.118 315.869 276.52C315.869 276.52 305.577 242.494 299.852 226.698C293.896 210.248 287.457 206.043 287.457 206.043" stroke="#263238" stroke-linecap="round" stroke-linejoin="round"/>
<path d="M282.839 276.982C288.141 272.514 296.29 276.126 301.955 279.114" stroke="#263238" stroke-linecap="round" stroke-linejoin="round"/>
<path d="M282.417 258.76H189.745V312.022H282.417V258.76Z" fill="white"/>
<path d="M282.839 312.025H189.282V314.812H282.839V312.025Z" fill="#263238"/>
<path d="M189.282 312.022L282.416 258.76L282.839 312.022H189.282Z" fill="#263238"/>
<path opacity="0.9" d="M189.282 312.022L282.416 258.76L282.839 312.022H189.282Z" fill="white"/>
<path d="M242.914 290.116C245.999 287.032 245.999 282.031 242.914 278.947C239.83 275.862 234.83 275.862 231.745 278.947C228.661 282.031 228.661 287.032 231.745 290.116C234.83 293.2 239.83 293.2 242.914 290.116Z" fill="#263238"/>
<path d="M282.417 258.76H189.745V312.022H282.417V258.76Z" stroke="#263238" stroke-linecap="round" stroke-linejoin="round"/>
<path d="M212.946 150.525C212.946 150.525 214.958 169.138 217.544 172.448C220.129 175.758 228.42 187.932 237.444 187.751C246.469 187.57 252.375 175.949 253.844 170.979C255.688 164.679 256.802 158.187 257.164 151.632" stroke="#263238" stroke-linecap="round" stroke-linejoin="round"/>
<path d="M254.789 169.057C254.789 169.057 261.49 165.596 257.163 156.812" stroke="#263238" stroke-linecap="round" stroke-linejoin="round"/>
</svg>
