<svg width="371" height="425" viewBox="0 0 371 425" fill="none" xmlns="http://www.w3.org/2000/svg">
<path d="M5.60655 303.086C18.8163 357.547 58.9295 397.713 101.74 391.841C159.43 388.07 214.937 315.188 272.856 350.977C315.558 382.68 362.524 368.934 369.268 296.051C378.807 236.458 343.816 152.504 307.042 120.926C264.703 86.0922 213.624 72.5457 164.541 71.8314C75.4961 66.5074 -24.9864 173.335 5.60655 303.086Z" fill="#EEFEFF"/>
<path d="M165.872 198.379V227.959C165.872 232.191 140.453 235.615 109.109 235.615C77.7651 235.615 52.314 232.172 52.314 227.959V198.379C52.314 202.611 77.7263 206.042 109.077 206.042C140.427 206.042 165.872 202.611 165.872 198.379Z" fill="#95BFCE"/>
<path d="M109.077 206.039C140.426 206.039 165.839 202.608 165.839 198.376C165.839 194.144 140.426 190.713 109.077 190.713C77.7275 190.713 52.314 194.144 52.314 198.376C52.314 202.608 77.7275 206.039 109.077 206.039Z" fill="white"/>
<path d="M154.81 183.593V197.84C154.81 199.876 134.334 201.53 109.077 201.53C83.8197 201.53 63.3438 199.876 63.3438 197.84V183.593C63.3438 181.558 83.8197 179.91 109.077 179.91C134.334 179.91 154.81 181.558 154.81 183.593Z" fill="#2AB6C5"/>
<path d="M165.872 157.451V187.031C165.872 191.263 140.453 194.694 109.109 194.694C77.7655 194.694 52.3467 191.263 52.3467 187.031V157.451C52.3467 161.683 77.759 165.114 109.109 165.114C140.46 165.114 165.872 161.683 165.872 157.451Z" fill="#95BFCE"/>
<path d="M109.077 165.115C140.426 165.115 165.839 161.684 165.839 157.452C165.839 153.22 140.426 149.789 109.077 149.789C77.7275 149.789 52.314 153.22 52.314 157.452C52.314 161.684 77.7275 165.115 109.077 165.115Z" fill="white"/>
<path d="M154.81 142.674V156.889C154.81 158.924 134.334 160.578 109.077 160.578C83.8197 160.578 63.3438 158.924 63.3438 156.889V142.674C63.3438 140.632 83.8197 138.984 109.077 138.984C134.334 138.984 154.81 140.632 154.81 142.674Z" fill="#2AB6C5"/>
<path d="M165.872 111.451V141.063C165.872 145.296 140.453 148.726 109.109 148.726C77.7651 148.726 52.314 145.263 52.314 141.063V111.451C52.314 115.683 77.7263 119.114 109.077 119.114C140.427 119.114 165.872 115.683 165.872 111.451Z" fill="#95BFCE"/>
<path d="M109.077 119.115C140.426 119.115 165.839 115.684 165.839 111.452C165.839 107.22 140.426 103.789 109.077 103.789C77.7275 103.789 52.314 107.22 52.314 111.452C52.314 115.684 77.7275 119.115 109.077 119.115Z" fill="white"/>
<path d="M63.5439 136.8C62.1062 136.8 60.7008 136.373 59.5055 135.575C58.3101 134.776 57.3784 133.641 56.8282 132.312C56.2781 130.984 56.1341 129.523 56.4146 128.113C56.6951 126.703 57.3874 125.407 58.4039 124.391C59.4205 123.374 60.7157 122.682 62.1258 122.401C63.5358 122.121 64.9974 122.265 66.3256 122.815C67.6538 123.365 68.7891 124.297 69.5878 125.492C70.3865 126.688 70.8129 128.093 70.8129 129.531C70.8094 131.457 70.0425 133.304 68.6801 134.667C67.3176 136.029 65.4707 136.796 63.5439 136.8ZM63.5439 122.908C62.234 122.908 60.9535 123.296 59.8644 124.024C58.7753 124.752 57.9264 125.786 57.4252 126.996C56.9239 128.206 56.7927 129.538 57.0483 130.823C57.3038 132.107 57.9346 133.288 58.8608 134.214C59.787 135.14 60.9671 135.771 62.2518 136.026C63.5365 136.282 64.8682 136.151 66.0783 135.649C67.2885 135.148 68.3229 134.299 69.0506 133.21C69.7783 132.121 70.1667 130.841 70.1667 129.531C70.1633 127.775 69.4645 126.093 68.2232 124.851C66.9819 123.61 65.2993 122.911 63.5439 122.908Z" fill="#25292B"/>
<path d="M63.3439 183.017C67.18 183.017 70.2898 179.907 70.2898 176.071C70.2898 172.235 67.18 169.125 63.3439 169.125C59.5077 169.125 56.3979 172.235 56.3979 176.071C56.3979 179.907 59.5077 183.017 63.3439 183.017Z" fill="#4888A3"/>
<path d="M63.3437 224.266C61.906 224.266 60.5006 223.84 59.3053 223.041C58.1099 222.243 57.1782 221.107 56.628 219.779C56.0779 218.451 55.9339 216.989 56.2144 215.579C56.4949 214.169 57.1872 212.874 58.2037 211.858C59.2203 210.841 60.5155 210.149 61.9256 209.868C63.3356 209.588 64.7972 209.732 66.1254 210.282C67.4536 210.832 68.5889 211.764 69.3876 212.959C70.1864 214.154 70.6127 215.56 70.6127 216.997C70.6093 218.924 69.8423 220.771 68.4799 222.134C67.1174 223.496 65.2705 224.263 63.3437 224.266ZM63.3437 210.375C62.0338 210.375 60.7534 210.763 59.6642 211.491C58.5751 212.219 57.7262 213.253 57.225 214.463C56.7237 215.673 56.5926 217.005 56.8481 218.29C57.1036 219.574 57.7344 220.754 58.6606 221.681C59.5869 222.607 60.7669 223.238 62.0516 223.493C63.3363 223.749 64.668 223.617 65.8781 223.116C67.0883 222.615 68.1227 221.766 68.8504 220.677C69.5781 219.588 69.9665 218.307 69.9665 216.997C69.9631 215.242 69.2643 213.559 68.023 212.318C66.7817 211.077 65.0991 210.378 63.3437 210.375Z" fill="#25292B"/>
<path d="M145.035 127.787H83.859C83.2274 127.787 82.7153 128.299 82.7153 128.931C82.7153 129.562 83.2274 130.074 83.859 130.074H145.035C145.666 130.074 146.178 129.562 146.178 128.931C146.178 128.299 145.666 127.787 145.035 127.787Z" fill="white"/>
<path d="M145.035 134.191H83.859C83.2274 134.191 82.7153 134.703 82.7153 135.335C82.7153 135.967 83.2274 136.479 83.859 136.479H145.035C145.666 136.479 146.178 135.967 146.178 135.335C146.178 134.703 145.666 134.191 145.035 134.191Z" fill="white"/>
<path d="M144.227 174.328H83.0509C82.4193 174.328 81.9072 174.84 81.9072 175.472C81.9072 176.103 82.4193 176.615 83.0509 176.615H144.227C144.858 176.615 145.37 176.103 145.37 175.472C145.37 174.84 144.858 174.328 144.227 174.328Z" fill="white"/>
<path d="M144.227 180.73H83.0509C82.4193 180.73 81.9072 181.242 81.9072 181.874C81.9072 182.506 82.4193 183.018 83.0509 183.018H144.227C144.858 183.018 145.37 182.506 145.37 181.874C145.37 181.242 144.858 180.73 144.227 180.73Z" fill="white"/>
<path d="M144.227 214.828H83.0509C82.4193 214.828 81.9072 215.34 81.9072 215.972C81.9072 216.603 82.4193 217.115 83.0509 217.115H144.227C144.858 217.115 145.37 216.603 145.37 215.972C145.37 215.34 144.858 214.828 144.227 214.828Z" fill="white"/>
<path d="M144.227 221.225H83.0509C82.4193 221.225 81.9072 221.737 81.9072 222.368C81.9072 223 82.4193 223.512 83.0509 223.512H144.227C144.858 223.512 145.37 223 145.37 222.368C145.37 221.737 144.858 221.225 144.227 221.225Z" fill="white"/>
<path d="M340.069 370.33V390.728C340.069 393.649 322.552 396.007 300.952 396.007C279.352 396.007 261.835 393.63 261.835 390.728V370.33C261.835 373.244 279.346 375.609 300.952 375.609C322.559 375.609 340.069 373.244 340.069 370.33Z" fill="#95BFCE"/>
<path d="M300.952 375.611C322.556 375.611 340.069 373.247 340.069 370.332C340.069 367.416 322.556 365.053 300.952 365.053C279.349 365.053 261.835 367.416 261.835 370.332C261.835 373.247 279.349 375.611 300.952 375.611Z" fill="white"/>
<path d="M332.471 360.141V369.956C332.471 371.358 318.359 372.495 300.952 372.495C283.546 372.495 269.434 371.358 269.434 369.956V360.141C269.434 358.739 283.546 357.602 300.952 357.602C318.359 357.602 332.471 358.739 332.471 360.141Z" fill="#2AB6C5"/>
<path d="M340.069 342.127V362.506C340.069 365.426 322.552 367.785 300.952 367.785C279.352 367.785 261.835 365.426 261.835 362.506V342.127C261.835 345.041 279.346 347.406 300.952 347.406C322.559 347.406 340.069 345.041 340.069 342.127Z" fill="#95BFCE"/>
<path d="M300.952 347.407C322.556 347.407 340.069 345.044 340.069 342.129C340.069 339.213 322.556 336.85 300.952 336.85C279.349 336.85 261.835 339.213 261.835 342.129C261.835 345.044 279.349 347.407 300.952 347.407Z" fill="white"/>
<path d="M332.471 331.934V341.755C332.471 343.157 318.359 344.301 300.952 344.301C283.546 344.301 269.434 343.157 269.434 341.755V331.934C269.434 330.532 283.546 329.395 300.952 329.395C318.359 329.395 332.471 330.538 332.471 331.934Z" fill="#2AB6C5"/>
<path d="M340.069 310.428V330.807C340.069 333.727 322.552 336.092 300.952 336.092C279.352 336.092 261.835 333.727 261.835 330.807V310.428C261.835 313.342 279.346 315.707 300.952 315.707C322.559 315.707 340.069 313.342 340.069 310.428Z" fill="#95BFCE"/>
<path d="M300.952 315.708C322.556 315.708 340.069 313.345 340.069 310.429C340.069 307.514 322.556 305.15 300.952 305.15C279.349 305.15 261.835 307.514 261.835 310.429C261.835 313.345 279.349 315.708 300.952 315.708Z" fill="white"/>
<path d="M269.588 327.997C268.578 327.997 267.589 327.697 266.749 327.136C265.909 326.574 265.253 325.776 264.867 324.842C264.48 323.908 264.379 322.881 264.576 321.889C264.773 320.898 265.26 319.987 265.975 319.272C266.689 318.558 267.6 318.071 268.591 317.874C269.583 317.676 270.61 317.778 271.544 318.164C272.478 318.551 273.276 319.206 273.838 320.047C274.4 320.887 274.699 321.875 274.699 322.886C274.698 324.241 274.159 325.54 273.201 326.498C272.242 327.456 270.943 327.995 269.588 327.997ZM269.588 318.422C268.705 318.422 267.842 318.683 267.108 319.174C266.374 319.665 265.801 320.362 265.464 321.178C265.126 321.994 265.037 322.891 265.209 323.757C265.382 324.623 265.807 325.419 266.431 326.043C267.056 326.668 267.851 327.093 268.717 327.265C269.583 327.438 270.481 327.349 271.297 327.011C272.113 326.673 272.81 326.101 273.301 325.367C273.791 324.633 274.053 323.769 274.053 322.886C274.052 321.703 273.581 320.568 272.744 319.731C271.907 318.894 270.772 318.423 269.588 318.422Z" fill="#25292B"/>
<path d="M269.434 359.746C272.078 359.746 274.222 357.602 274.222 354.958C274.222 352.314 272.078 350.17 269.434 350.17C266.79 350.17 264.646 352.314 264.646 354.958C264.646 357.602 266.79 359.746 269.434 359.746Z" fill="#4888A3"/>
<path d="M269.434 388.267C268.423 388.267 267.435 387.967 266.594 387.405C265.753 386.843 265.098 386.044 264.712 385.11C264.325 384.176 264.224 383.148 264.422 382.156C264.62 381.165 265.107 380.254 265.822 379.54C266.538 378.825 267.449 378.339 268.441 378.142C269.433 377.946 270.461 378.048 271.394 378.436C272.328 378.824 273.126 379.48 273.687 380.321C274.248 381.162 274.546 382.151 274.545 383.162C274.543 384.517 274.004 385.815 273.046 386.772C272.088 387.729 270.789 388.267 269.434 388.267ZM269.434 378.698C268.551 378.698 267.688 378.959 266.954 379.45C266.219 379.941 265.647 380.638 265.309 381.454C264.971 382.27 264.883 383.167 265.055 384.033C265.227 384.899 265.653 385.695 266.277 386.319C266.901 386.944 267.697 387.369 268.563 387.541C269.429 387.714 270.327 387.625 271.143 387.287C271.959 386.949 272.656 386.377 273.146 385.643C273.637 384.909 273.899 384.045 273.899 383.162C273.899 381.978 273.429 380.843 272.591 380.005C271.754 379.168 270.618 378.698 269.434 378.698Z" fill="#25292B"/>
<path d="M178.291 181.437C178.238 181.436 178.186 181.422 178.14 181.396C178.094 181.37 178.055 181.333 178.026 181.288L173.419 173.302C173.391 173.256 173.375 173.204 173.375 173.15C173.375 173.096 173.391 173.044 173.419 172.998L178.026 165.018C178.053 164.971 178.091 164.932 178.138 164.905C178.184 164.878 178.237 164.863 178.291 164.863C178.344 164.864 178.396 164.878 178.442 164.906C178.487 164.933 178.524 164.972 178.55 165.018L183.176 172.985C183.201 173.032 183.215 173.084 183.215 173.137C183.215 173.19 183.201 173.242 183.176 173.289L178.55 181.275C178.525 181.322 178.488 181.362 178.442 181.391C178.397 181.419 178.345 181.435 178.291 181.437ZM174.027 173.153L178.291 180.532L182.562 173.153L178.291 165.768L174.027 173.153Z" fill="white"/>
<path d="M167.81 170.968C167.299 170.968 166.799 170.816 166.374 170.532C165.949 170.248 165.618 169.845 165.422 169.372C165.227 168.9 165.176 168.38 165.275 167.879C165.375 167.378 165.621 166.917 165.983 166.556C166.344 166.194 166.805 165.948 167.306 165.848C167.807 165.749 168.327 165.8 168.799 165.996C169.271 166.191 169.675 166.522 169.959 166.947C170.243 167.372 170.395 167.872 170.395 168.383C170.395 169.069 170.122 169.726 169.638 170.211C169.153 170.696 168.496 170.968 167.81 170.968ZM167.81 166.374C167.415 166.374 167.029 166.491 166.701 166.71C166.373 166.93 166.117 167.242 165.966 167.606C165.814 167.971 165.775 168.373 165.852 168.76C165.929 169.147 166.119 169.503 166.398 169.782C166.678 170.061 167.033 170.252 167.421 170.329C167.808 170.406 168.209 170.366 168.574 170.215C168.939 170.064 169.251 169.808 169.47 169.48C169.69 169.151 169.807 168.765 169.807 168.37C169.807 167.841 169.596 167.333 169.222 166.959C168.847 166.584 168.34 166.374 167.81 166.374Z" fill="white"/>
<path d="M176.048 160.71C175.603 160.71 175.168 160.578 174.798 160.331C174.428 160.083 174.14 159.732 173.97 159.32C173.8 158.909 173.756 158.457 173.843 158.02C173.93 157.584 174.145 157.183 174.46 156.869C174.775 156.555 175.177 156.341 175.613 156.255C176.05 156.169 176.502 156.215 176.913 156.386C177.324 156.557 177.674 156.846 177.921 157.217C178.167 157.588 178.298 158.023 178.296 158.468C178.296 158.763 178.238 159.055 178.125 159.327C178.012 159.6 177.846 159.847 177.637 160.056C177.429 160.264 177.181 160.429 176.908 160.541C176.635 160.653 176.343 160.711 176.048 160.71ZM176.048 156.833C175.722 156.832 175.403 156.927 175.131 157.108C174.859 157.288 174.647 157.545 174.521 157.846C174.395 158.147 174.362 158.478 174.425 158.798C174.487 159.118 174.644 159.412 174.874 159.644C175.104 159.875 175.398 160.032 175.718 160.096C176.037 160.16 176.369 160.128 176.67 160.004C176.972 159.879 177.23 159.668 177.411 159.397C177.592 159.126 177.689 158.807 177.689 158.481C177.689 158.045 177.516 157.627 177.209 157.318C176.901 157.009 176.484 156.835 176.048 156.833Z" fill="white"/>
<path d="M165.535 161.838C165.215 161.838 164.903 161.743 164.637 161.565C164.371 161.388 164.164 161.135 164.042 160.839C163.92 160.544 163.889 160.219 163.951 159.905C164.014 159.592 164.169 159.304 164.395 159.078C164.622 158.853 164.91 158.699 165.224 158.638C165.538 158.576 165.863 158.609 166.158 158.732C166.453 158.855 166.705 159.064 166.881 159.33C167.058 159.597 167.152 159.909 167.151 160.229C167.149 160.657 166.978 161.066 166.675 161.367C166.372 161.669 165.963 161.838 165.535 161.838ZM165.535 159.215C165.335 159.215 165.138 159.274 164.972 159.386C164.805 159.497 164.675 159.656 164.598 159.841C164.521 160.026 164.501 160.23 164.54 160.427C164.579 160.624 164.676 160.805 164.818 160.947C164.96 161.088 165.141 161.185 165.337 161.224C165.534 161.263 165.738 161.243 165.923 161.166C166.109 161.09 166.267 160.96 166.379 160.793C166.49 160.626 166.55 160.43 166.55 160.229C166.551 160.096 166.525 159.963 166.474 159.84C166.424 159.717 166.349 159.604 166.254 159.51C166.16 159.416 166.048 159.341 165.924 159.29C165.801 159.24 165.669 159.214 165.535 159.215Z" fill="white"/>
<path d="M225.458 195.806C225.404 195.806 225.351 195.792 225.305 195.765C225.258 195.737 225.22 195.698 225.193 195.651L221.665 189.545C221.64 189.499 221.626 189.446 221.626 189.393C221.626 189.34 221.64 189.288 221.665 189.241L225.193 183.136C225.22 183.088 225.258 183.049 225.305 183.022C225.351 182.995 225.404 182.98 225.458 182.98C225.51 182.981 225.562 182.995 225.607 183.021C225.652 183.047 225.69 183.084 225.717 183.129L229.257 189.241C229.283 189.288 229.296 189.34 229.296 189.393C229.296 189.446 229.283 189.499 229.257 189.545L225.717 195.651C225.691 195.698 225.654 195.737 225.608 195.764C225.563 195.791 225.511 195.806 225.458 195.806ZM222.279 189.39L225.458 194.902L228.643 189.39L225.458 183.885L222.279 189.39Z" fill="white"/>
<path d="M217.11 186.628C216.599 186.628 216.1 186.476 215.675 186.192C215.249 185.908 214.918 185.505 214.723 185.033C214.527 184.56 214.476 184.041 214.576 183.539C214.675 183.038 214.921 182.577 215.283 182.216C215.644 181.855 216.105 181.608 216.606 181.509C217.108 181.409 217.627 181.46 218.099 181.656C218.572 181.851 218.975 182.183 219.259 182.608C219.543 183.033 219.695 183.532 219.695 184.044C219.695 184.729 219.423 185.386 218.938 185.871C218.453 186.356 217.796 186.628 217.11 186.628ZM217.11 182.034C216.715 182.033 216.329 182.149 215.999 182.367C215.67 182.586 215.413 182.897 215.261 183.262C215.109 183.627 215.069 184.028 215.145 184.416C215.221 184.804 215.411 185.16 215.69 185.44C215.969 185.72 216.325 185.911 216.712 185.988C217.1 186.066 217.501 186.027 217.866 185.876C218.232 185.725 218.544 185.469 218.764 185.14C218.983 184.812 219.1 184.426 219.1 184.031C219.101 183.768 219.051 183.509 218.951 183.266C218.851 183.023 218.705 182.803 218.52 182.617C218.335 182.431 218.116 182.283 217.874 182.182C217.632 182.081 217.373 182.028 217.11 182.028V182.034Z" fill="white"/>
<path d="M225.323 179.743C224.878 179.739 224.445 179.604 224.078 179.354C223.71 179.104 223.425 178.751 223.258 178.339C223.091 177.927 223.05 177.475 223.14 177.039C223.23 176.604 223.447 176.205 223.764 175.893C224.08 175.581 224.482 175.37 224.919 175.286C225.355 175.203 225.807 175.25 226.216 175.423C226.626 175.596 226.975 175.886 227.219 176.257C227.464 176.628 227.593 177.063 227.591 177.507C227.589 177.803 227.529 178.096 227.414 178.368C227.299 178.641 227.131 178.888 226.921 179.096C226.71 179.304 226.461 179.468 226.186 179.579C225.912 179.69 225.619 179.746 225.323 179.743ZM225.323 175.866C224.996 175.861 224.674 175.954 224.4 176.132C224.125 176.31 223.91 176.566 223.782 176.867C223.653 177.168 223.617 177.5 223.678 177.822C223.74 178.143 223.895 178.439 224.125 178.672C224.355 178.905 224.649 179.064 224.97 179.129C225.291 179.194 225.623 179.162 225.926 179.037C226.228 178.912 226.487 178.7 226.668 178.427C226.85 178.155 226.946 177.835 226.945 177.507C226.948 177.073 226.779 176.655 226.475 176.345C226.171 176.035 225.757 175.858 225.323 175.853V175.866Z" fill="white"/>
<path d="M217.111 177.164C216.791 177.166 216.478 177.072 216.211 176.895C215.945 176.718 215.737 176.467 215.614 176.172C215.49 175.877 215.457 175.552 215.519 175.238C215.581 174.924 215.734 174.636 215.96 174.409C216.185 174.182 216.473 174.028 216.787 173.965C217.1 173.902 217.425 173.934 217.721 174.056C218.016 174.178 218.269 174.385 218.447 174.651C218.625 174.917 218.719 175.229 218.719 175.549C218.719 175.976 218.55 176.386 218.249 176.689C217.947 176.992 217.538 177.163 217.111 177.164ZM217.111 174.541C216.909 174.54 216.712 174.598 216.545 174.709C216.377 174.82 216.246 174.979 216.168 175.164C216.091 175.35 216.07 175.554 216.109 175.752C216.148 175.949 216.245 176.13 216.387 176.273C216.529 176.415 216.71 176.512 216.908 176.551C217.105 176.59 217.31 176.569 217.495 176.491C217.681 176.414 217.839 176.283 217.95 176.115C218.061 175.947 218.12 175.75 218.119 175.549C218.119 175.282 218.012 175.025 217.823 174.836C217.634 174.647 217.378 174.541 217.111 174.541Z" fill="white"/>
<path d="M225.18 256.043C225.128 256.043 225.077 256.029 225.031 256.003C224.986 255.977 224.948 255.939 224.922 255.894L220.308 247.934C220.283 247.889 220.27 247.837 220.27 247.785C220.27 247.733 220.283 247.682 220.308 247.637L224.922 239.651C224.947 239.605 224.985 239.567 225.03 239.541C225.076 239.514 225.128 239.501 225.18 239.502C225.234 239.501 225.286 239.515 225.333 239.541C225.379 239.567 225.418 239.605 225.445 239.651L230.065 247.637C230.093 247.681 230.108 247.733 230.108 247.785C230.108 247.838 230.093 247.89 230.065 247.934L225.445 255.92C225.414 255.96 225.374 255.993 225.328 256.014C225.282 256.035 225.231 256.045 225.18 256.043ZM220.916 247.76L225.18 255.138L229.458 247.76L225.18 240.374L220.916 247.76Z" fill="white"/>
<path d="M223.546 236.235C223.101 236.237 222.665 236.106 222.294 235.859C221.924 235.613 221.634 235.261 221.463 234.85C221.292 234.439 221.247 233.987 221.334 233.55C221.42 233.113 221.635 232.712 221.95 232.397C222.264 232.082 222.666 231.868 223.102 231.781C223.539 231.695 223.992 231.74 224.403 231.911C224.814 232.082 225.165 232.371 225.412 232.742C225.658 233.112 225.789 233.548 225.788 233.993C225.786 234.587 225.55 235.157 225.13 235.577C224.709 235.997 224.14 236.234 223.546 236.235ZM223.546 232.359C223.22 232.357 222.901 232.453 222.629 232.633C222.357 232.813 222.145 233.07 222.019 233.371C221.893 233.672 221.86 234.004 221.923 234.324C221.986 234.644 222.142 234.938 222.372 235.169C222.602 235.4 222.896 235.558 223.216 235.622C223.535 235.686 223.867 235.654 224.169 235.529C224.47 235.405 224.728 235.193 224.909 234.922C225.09 234.651 225.187 234.332 225.187 234.006C225.189 233.789 225.148 233.574 225.066 233.373C224.984 233.172 224.864 232.989 224.711 232.835C224.559 232.681 224.378 232.558 224.178 232.474C223.978 232.39 223.763 232.346 223.546 232.346V232.359Z" fill="white"/>
<path d="M234.194 245.408C233.874 245.41 233.561 245.316 233.295 245.139C233.028 244.963 232.82 244.711 232.697 244.416C232.574 244.121 232.541 243.796 232.603 243.482C232.664 243.168 232.817 242.88 233.043 242.653C233.269 242.427 233.557 242.272 233.87 242.209C234.184 242.146 234.509 242.178 234.804 242.3C235.1 242.422 235.352 242.629 235.53 242.895C235.708 243.161 235.803 243.473 235.803 243.793C235.803 244.22 235.634 244.63 235.332 244.933C235.031 245.236 234.621 245.407 234.194 245.408ZM234.194 242.785C233.993 242.784 233.796 242.842 233.628 242.953C233.46 243.064 233.329 243.223 233.252 243.408C233.174 243.594 233.153 243.798 233.192 243.996C233.231 244.193 233.328 244.375 233.47 244.517C233.613 244.659 233.794 244.756 233.991 244.795C234.189 244.834 234.393 244.813 234.579 244.735C234.764 244.658 234.923 244.527 235.034 244.359C235.145 244.191 235.203 243.994 235.202 243.793C235.205 243.659 235.18 243.526 235.131 243.401C235.081 243.277 235.008 243.163 234.914 243.068C234.82 242.972 234.708 242.896 234.584 242.844C234.461 242.792 234.328 242.766 234.194 242.766V242.785Z" fill="white"/>
<path d="M234.769 237.059C234.716 237.059 234.664 237.044 234.619 237.017C234.573 236.99 234.536 236.951 234.51 236.904L231.616 231.89C231.588 231.846 231.573 231.794 231.573 231.741C231.573 231.689 231.588 231.637 231.616 231.593L234.51 226.579C234.536 226.532 234.573 226.493 234.619 226.466C234.664 226.439 234.716 226.424 234.769 226.424C234.823 226.424 234.876 226.438 234.922 226.465C234.969 226.493 235.007 226.532 235.034 226.579L237.935 231.593C237.96 231.638 237.974 231.689 237.974 231.741C237.974 231.794 237.96 231.845 237.935 231.89L235.034 236.904C235.007 236.951 234.969 236.99 234.922 237.018C234.876 237.045 234.823 237.059 234.769 237.059ZM232.223 231.741L234.769 236.155L237.353 231.741L234.769 227.328L232.223 231.741Z" fill="white"/>
<path d="M216.257 242.701C215.937 242.701 215.625 242.607 215.36 242.429C215.094 242.252 214.887 241.999 214.765 241.704C214.642 241.409 214.61 241.084 214.673 240.771C214.735 240.458 214.889 240.17 215.115 239.944C215.341 239.718 215.628 239.564 215.942 239.502C216.255 239.439 216.58 239.471 216.875 239.594C217.17 239.716 217.423 239.923 217.6 240.189C217.778 240.454 217.872 240.767 217.872 241.086C217.872 241.514 217.702 241.925 217.399 242.228C217.096 242.531 216.685 242.701 216.257 242.701ZM216.257 240.078C216.055 240.074 215.857 240.131 215.688 240.24C215.518 240.349 215.385 240.507 215.305 240.692C215.226 240.878 215.203 241.082 215.241 241.281C215.278 241.479 215.374 241.661 215.516 241.805C215.657 241.949 215.839 242.047 216.036 242.087C216.234 242.127 216.439 242.107 216.626 242.03C216.812 241.952 216.971 241.821 217.083 241.653C217.194 241.485 217.253 241.288 217.252 241.086C217.25 240.821 217.145 240.568 216.959 240.38C216.774 240.191 216.521 240.083 216.257 240.078Z" fill="white"/>
<path d="M54.0909 70.6376C54.0378 70.637 53.9857 70.6231 53.9394 70.5971C53.8931 70.5712 53.8541 70.534 53.8259 70.489L50.2981 64.3831C50.2726 64.3365 50.2593 64.2843 50.2593 64.2312C50.2593 64.1782 50.2726 64.1259 50.2981 64.0794L53.8259 57.967C53.8541 57.922 53.8931 57.8848 53.9394 57.8588C53.9857 57.8329 54.0378 57.8189 54.0909 57.8184C54.1432 57.8182 54.1947 57.8318 54.2401 57.8579C54.2855 57.884 54.3231 57.9216 54.3493 57.967L57.8901 64.0794C57.9156 64.1259 57.9289 64.1782 57.9289 64.2312C57.9289 64.2843 57.9156 64.3365 57.8901 64.3831L54.3493 70.489C54.3242 70.5353 54.2868 70.5737 54.2411 70.5999C54.1955 70.6261 54.1435 70.6392 54.0909 70.6376ZM50.9119 64.228L54.0909 69.7266L57.3215 64.2151L54.0909 58.71L50.9119 64.228Z" fill="white"/>
<path d="M45.7691 61.4562C45.2579 61.4562 44.7582 61.3046 44.3332 61.0206C43.9082 60.7366 43.5769 60.333 43.3813 59.8607C43.1857 59.3884 43.1345 58.8688 43.2342 58.3674C43.334 57.8661 43.5801 57.4056 43.9416 57.0441C44.303 56.6827 44.7635 56.4365 45.2649 56.3368C45.7662 56.237 46.2859 56.2882 46.7582 56.4838C47.2304 56.6795 47.6341 57.0107 47.9181 57.4358C48.202 57.8608 48.3536 58.3605 48.3536 58.8716C48.3536 59.5571 48.0813 60.2145 47.5966 60.6992C47.1119 61.1839 46.4546 61.4562 45.7691 61.4562ZM45.7691 56.8622C45.3739 56.8609 44.9873 56.9769 44.6581 57.1955C44.3289 57.4141 44.072 57.7255 43.9199 58.0902C43.7678 58.4549 43.7274 58.8565 43.8037 59.2442C43.88 59.632 44.0696 59.9883 44.3486 60.2682C44.6275 60.5481 44.9833 60.7389 45.3707 60.8164C45.7582 60.894 46.16 60.8548 46.5252 60.7039C46.8904 60.553 47.2026 60.2971 47.4222 59.9686C47.6419 59.6401 47.7592 59.2539 47.7592 58.8587C47.7592 58.3303 47.5497 57.8235 47.1767 57.4492C46.8037 57.075 46.2975 56.8639 45.7691 56.8622Z" fill="white"/>
<path d="M53.9811 54.5674C53.5361 54.5687 53.1007 54.4379 52.7301 54.1916C52.3595 53.9453 52.0703 53.5946 51.8991 53.1838C51.7279 52.7731 51.6825 52.3207 51.7685 51.8841C51.8545 51.4476 52.0682 51.0463 52.3824 50.7312C52.6966 50.4161 53.0972 50.2013 53.5336 50.114C53.9699 50.0267 54.4224 50.0709 54.8336 50.2409C55.2448 50.4109 55.5964 50.699 55.8438 51.069C56.0911 51.4389 56.2232 51.8738 56.2232 52.3188C56.2232 52.9141 55.9871 53.485 55.5669 53.9065C55.1466 54.328 54.5763 54.5657 53.9811 54.5674ZM53.9811 50.6906C53.6565 50.6906 53.3392 50.7868 53.0693 50.9672C52.7994 51.1475 52.589 51.4038 52.4648 51.7037C52.3406 52.0036 52.3081 52.3336 52.3714 52.6519C52.4348 52.9703 52.5911 53.2627 52.8206 53.4923C53.0501 53.7218 53.3425 53.8781 53.6609 53.9414C53.9793 54.0047 54.3092 53.9722 54.6091 53.848C54.909 53.7238 55.1653 53.5134 55.3457 53.2436C55.526 52.9737 55.6222 52.6564 55.6222 52.3318C55.624 52.1152 55.5828 51.9004 55.5011 51.6997C55.4193 51.4991 55.2987 51.3167 55.1461 51.1629C54.9936 51.0092 54.8121 50.8871 54.6121 50.8038C54.4122 50.7205 54.1977 50.6777 53.9811 50.6777V50.6906Z" fill="white"/>
<path d="M45.7693 51.9904C45.4495 51.9917 45.1366 51.898 44.8701 51.7213C44.6036 51.5446 44.3955 51.2928 44.2723 50.9977C44.149 50.7027 44.1161 50.3777 44.1777 50.0639C44.2393 49.7502 44.3926 49.4617 44.6183 49.2352C44.8439 49.0086 45.1318 48.8541 45.4453 48.7913C45.7588 48.7284 46.0839 48.76 46.3794 48.8821C46.675 49.0042 46.9277 49.2112 47.1054 49.477C47.2832 49.7428 47.3781 50.0553 47.3781 50.3751C47.3781 50.8024 47.2088 51.2123 46.9073 51.515C46.6058 51.8178 46.1965 51.9887 45.7693 51.9904ZM45.7693 49.3671C45.5681 49.3658 45.3711 49.4244 45.2032 49.5354C45.0354 49.6464 44.9044 49.8047 44.8268 49.9903C44.7493 50.176 44.7286 50.3805 44.7676 50.5778C44.8065 50.7752 44.9032 50.9566 45.0455 51.0988C45.1878 51.2411 45.3691 51.3378 45.5665 51.3768C45.7639 51.4157 45.9684 51.3951 46.154 51.3175C46.3396 51.2399 46.498 51.1089 46.609 50.9411C46.7199 50.7733 46.7785 50.5763 46.7772 50.3751C46.7772 50.1078 46.671 49.8514 46.482 49.6623C46.293 49.4733 46.0366 49.3671 45.7693 49.3671Z" fill="white"/>
<path d="M337.388 303.982H333.511C333.425 303.982 333.343 303.948 333.283 303.887C333.222 303.826 333.188 303.744 333.188 303.659C333.19 303.573 333.224 303.492 333.285 303.432C333.345 303.372 333.426 303.337 333.511 303.335H337.388C337.474 303.335 337.556 303.369 337.616 303.43C337.677 303.491 337.711 303.573 337.711 303.659C337.711 303.744 337.677 303.826 337.616 303.887C337.556 303.948 337.474 303.982 337.388 303.982ZM329.634 303.982H325.758C325.672 303.982 325.59 303.948 325.529 303.887C325.469 303.826 325.435 303.744 325.435 303.659C325.436 303.573 325.471 303.492 325.531 303.432C325.591 303.372 325.672 303.337 325.758 303.335H329.634C329.72 303.335 329.802 303.369 329.863 303.43C329.923 303.491 329.957 303.573 329.957 303.659C329.957 303.744 329.923 303.826 329.863 303.887C329.802 303.948 329.72 303.982 329.634 303.982ZM321.881 303.923H321.842C320.503 303.758 319.221 303.28 318.101 302.528C318.066 302.504 318.035 302.474 318.012 302.439C317.989 302.404 317.973 302.364 317.965 302.323C317.957 302.281 317.958 302.238 317.967 302.197C317.975 302.156 317.993 302.117 318.017 302.082C318.064 302.011 318.138 301.962 318.221 301.945C318.305 301.928 318.392 301.945 318.463 301.992C319.499 302.685 320.683 303.127 321.92 303.284C322.005 303.289 322.085 303.328 322.142 303.392C322.199 303.456 322.228 303.541 322.223 303.626C322.218 303.712 322.179 303.792 322.115 303.849C322.051 303.906 321.966 303.935 321.881 303.93V303.923ZM341.265 303.885C341.222 303.888 341.18 303.883 341.139 303.87C341.099 303.857 341.061 303.836 341.029 303.808C340.996 303.781 340.97 303.747 340.95 303.709C340.931 303.671 340.919 303.63 340.916 303.587C340.912 303.545 340.917 303.502 340.931 303.462C340.944 303.421 340.965 303.384 340.992 303.351C341.02 303.319 341.053 303.292 341.091 303.273C341.129 303.254 341.171 303.242 341.213 303.239C342.438 303.031 343.583 302.495 344.528 301.688C344.593 301.632 344.677 301.605 344.763 301.611C344.848 301.618 344.928 301.658 344.983 301.723C345.039 301.788 345.066 301.873 345.06 301.958C345.053 302.044 345.013 302.123 344.948 302.179C343.917 303.064 342.663 303.649 341.323 303.872L341.265 303.885ZM299.835 303.077C299.749 303.077 299.667 303.043 299.606 302.982C299.546 302.922 299.512 302.84 299.512 302.754V298.877C299.513 298.792 299.548 298.711 299.608 298.651C299.668 298.59 299.75 298.556 299.835 298.554C299.92 298.554 300.003 298.588 300.063 298.649C300.124 298.709 300.158 298.791 300.158 298.877V302.754C300.158 302.797 300.149 302.839 300.133 302.879C300.116 302.919 300.092 302.955 300.061 302.985C300.03 303.015 299.994 303.038 299.954 303.054C299.914 303.07 299.871 303.078 299.828 303.077H299.835ZM315.684 299.756C315.628 299.756 315.573 299.74 315.524 299.712C315.475 299.684 315.435 299.643 315.407 299.594C314.745 298.418 314.367 297.104 314.302 295.756C314.3 295.714 314.307 295.672 314.321 295.632C314.336 295.592 314.358 295.555 314.387 295.524C314.416 295.493 314.451 295.468 314.489 295.45C314.528 295.432 314.569 295.422 314.612 295.42C314.655 295.416 314.698 295.42 314.74 295.434C314.781 295.448 314.818 295.47 314.85 295.499C314.882 295.529 314.907 295.564 314.924 295.604C314.941 295.644 314.949 295.687 314.948 295.73C315.001 296.977 315.351 298.193 315.969 299.278C316.009 299.353 316.019 299.44 315.996 299.522C315.973 299.604 315.919 299.674 315.846 299.717C315.794 299.744 315.736 299.757 315.678 299.756H315.684ZM346.886 299.11C346.852 299.116 346.817 299.116 346.783 299.11C346.702 299.082 346.636 299.024 346.597 298.948C346.559 298.872 346.551 298.784 346.576 298.703C346.816 297.995 346.939 297.253 346.938 296.506V294.968C346.938 294.882 346.972 294.8 347.032 294.74C347.093 294.679 347.175 294.645 347.261 294.645C347.347 294.645 347.429 294.679 347.489 294.74C347.55 294.8 347.584 294.882 347.584 294.968V296.506C347.584 297.323 347.451 298.135 347.19 298.909C347.162 298.968 347.118 299.016 347.063 299.05C347.008 299.083 346.944 299.099 346.88 299.097L346.886 299.11ZM299.848 295.336C299.806 295.335 299.764 295.325 299.726 295.307C299.688 295.289 299.653 295.264 299.625 295.232C299.597 295.201 299.575 295.164 299.561 295.125C299.547 295.085 299.541 295.042 299.544 295C299.61 293.647 300.028 292.335 300.759 291.195C300.807 291.128 300.879 291.082 300.961 291.066C301.042 291.051 301.126 291.067 301.196 291.112C301.265 291.156 301.315 291.226 301.335 291.307C301.354 291.387 301.343 291.472 301.302 291.544C300.63 292.588 300.246 293.792 300.19 295.033C300.182 295.117 300.141 295.195 300.075 295.25C300.01 295.304 299.926 295.331 299.841 295.323L299.848 295.336ZM313.811 292.332C313.751 292.332 313.692 292.316 313.641 292.285C313.59 292.254 313.548 292.21 313.52 292.157C312.957 291.049 312.11 290.11 311.065 289.437C310.994 289.39 310.944 289.316 310.928 289.233C310.911 289.149 310.927 289.063 310.974 288.991C310.996 288.955 311.026 288.924 311.061 288.899C311.095 288.874 311.135 288.857 311.176 288.848C311.218 288.839 311.261 288.838 311.303 288.846C311.345 288.854 311.385 288.871 311.42 288.894C312.556 289.633 313.481 290.655 314.101 291.86C314.138 291.938 314.144 292.026 314.118 292.108C314.091 292.19 314.035 292.258 313.959 292.3C313.909 292.316 313.857 292.322 313.804 292.319L313.811 292.332ZM347.261 291.395C347.175 291.395 347.093 291.361 347.032 291.3C346.972 291.24 346.938 291.158 346.938 291.072V287.195C346.938 287.109 346.972 287.027 347.032 286.967C347.093 286.906 347.175 286.872 347.261 286.872C347.347 286.872 347.429 286.906 347.489 286.967C347.55 287.027 347.584 287.109 347.584 287.195V291.072C347.581 291.156 347.544 291.236 347.483 291.294C347.421 291.352 347.339 291.384 347.254 291.382L347.261 291.395ZM303.834 289.101C303.774 289.103 303.715 289.087 303.664 289.056C303.612 289.025 303.571 288.98 303.544 288.927C303.505 288.85 303.499 288.762 303.525 288.681C303.552 288.6 303.61 288.533 303.686 288.494C304.891 287.871 306.24 287.581 307.595 287.654C307.637 287.655 307.678 287.666 307.717 287.683C307.755 287.701 307.789 287.727 307.817 287.758C307.846 287.789 307.867 287.826 307.881 287.866C307.895 287.906 307.901 287.948 307.898 287.99C307.9 288.033 307.892 288.076 307.875 288.116C307.858 288.156 307.833 288.192 307.801 288.221C307.769 288.251 307.731 288.273 307.69 288.286C307.649 288.3 307.606 288.305 307.563 288.3C306.322 288.234 305.087 288.499 303.983 289.069C303.937 289.091 303.886 289.102 303.834 289.101ZM347.241 283.628C347.156 283.628 347.074 283.594 347.013 283.534C346.952 283.473 346.918 283.391 346.918 283.305V279.429C346.918 279.343 346.952 279.261 347.013 279.2C347.074 279.14 347.156 279.106 347.241 279.106C347.327 279.106 347.409 279.14 347.47 279.2C347.53 279.261 347.565 279.343 347.565 279.429V283.305C347.565 283.389 347.532 283.469 347.475 283.529C347.417 283.59 347.338 283.625 347.254 283.628H347.241ZM347.241 275.875C347.156 275.875 347.074 275.841 347.013 275.78C346.952 275.72 346.918 275.637 346.918 275.552V271.675C346.918 271.589 346.952 271.507 347.013 271.447C347.074 271.386 347.156 271.352 347.241 271.352C347.327 271.352 347.409 271.386 347.47 271.447C347.53 271.507 347.565 271.589 347.565 271.675V275.552C347.565 275.635 347.532 275.716 347.475 275.776C347.417 275.836 347.338 275.872 347.254 275.875H347.241ZM347.241 268.121C347.156 268.121 347.074 268.087 347.013 268.027C346.952 267.966 346.918 267.884 346.918 267.798V263.921C346.918 263.836 346.952 263.754 347.013 263.693C347.074 263.632 347.156 263.598 347.241 263.598C347.327 263.598 347.409 263.632 347.47 263.693C347.53 263.754 347.565 263.836 347.565 263.921V267.798C347.565 267.882 347.532 267.962 347.475 268.022C347.417 268.082 347.338 268.118 347.254 268.121H347.241ZM347.241 260.368C347.156 260.368 347.074 260.334 347.013 260.273C346.952 260.212 346.918 260.13 346.918 260.045V256.168C346.918 256.082 346.952 256 347.013 255.939C347.074 255.879 347.156 255.845 347.241 255.845C347.327 255.845 347.409 255.879 347.47 255.939C347.53 256 347.565 256.082 347.565 256.168V260.045C347.565 260.128 347.532 260.208 347.475 260.269C347.417 260.329 347.338 260.364 347.254 260.368H347.241ZM347.125 252.614C347.048 252.615 346.974 252.588 346.916 252.538C346.858 252.488 346.82 252.419 346.809 252.343C346.604 251.113 346.113 249.949 345.374 248.944C345.348 248.911 345.329 248.873 345.318 248.832C345.307 248.792 345.304 248.749 345.311 248.707C345.317 248.666 345.331 248.626 345.353 248.59C345.375 248.554 345.404 248.523 345.439 248.498C345.473 248.473 345.511 248.454 345.552 248.444C345.594 248.433 345.636 248.431 345.678 248.437C345.72 248.443 345.761 248.457 345.797 248.479C345.834 248.5 345.866 248.529 345.891 248.563C346.693 249.648 347.227 250.908 347.448 252.239C347.461 252.323 347.441 252.409 347.391 252.478C347.342 252.547 347.267 252.593 347.183 252.608L347.125 252.614ZM342.699 246.599C342.648 246.601 342.596 246.59 342.551 246.566C341.446 246.011 340.227 245.723 338.99 245.726C338.904 245.725 338.821 245.691 338.759 245.631C338.697 245.571 338.659 245.49 338.654 245.403C338.652 245.362 338.658 245.32 338.672 245.281C338.686 245.242 338.708 245.206 338.736 245.176C338.765 245.146 338.799 245.122 338.837 245.105C338.875 245.089 338.916 245.08 338.958 245.08C340.304 245.072 341.633 245.384 342.835 245.991C342.873 246.01 342.907 246.036 342.935 246.068C342.963 246.1 342.985 246.137 342.998 246.178C343.011 246.218 343.016 246.261 343.013 246.303C343.009 246.345 342.997 246.387 342.977 246.424C342.952 246.475 342.915 246.518 342.869 246.55C342.822 246.582 342.768 246.601 342.712 246.605L342.699 246.599Z" fill="#25292B"/>
<path d="M32.3356 181.054C32.0642 181.054 31.7993 181.054 31.5279 181.015C31.4428 181.005 31.3648 180.962 31.3105 180.896C31.2562 180.83 31.2299 180.745 31.2372 180.659C31.2499 180.576 31.2933 180.499 31.3589 180.446C31.4246 180.392 31.5078 180.364 31.5926 180.369C31.8394 180.394 32.0874 180.407 32.3356 180.407C33.3283 180.408 34.3116 180.215 35.2303 179.839C35.2692 179.822 35.3111 179.813 35.3536 179.813C35.396 179.813 35.438 179.821 35.4772 179.837C35.5164 179.853 35.5519 179.877 35.5816 179.908C35.6113 179.938 35.6347 179.974 35.6503 180.013C35.6824 180.092 35.6821 180.181 35.6495 180.259C35.6168 180.338 35.5544 180.4 35.4758 180.433C34.4804 180.846 33.4131 181.056 32.3356 181.054ZM27.9419 179.729C27.8781 179.728 27.8158 179.71 27.761 179.677C26.6381 178.927 25.7136 177.916 25.0666 176.731C25.045 176.694 25.031 176.654 25.0255 176.611C25.02 176.569 25.0231 176.526 25.0345 176.485C25.046 176.444 25.0656 176.406 25.0922 176.373C25.1188 176.339 25.1519 176.312 25.1894 176.292C25.2267 176.271 25.2677 176.258 25.31 176.254C25.3523 176.249 25.3951 176.253 25.4359 176.265C25.4768 176.277 25.5148 176.297 25.5479 176.324C25.581 176.35 25.6085 176.383 25.6288 176.421C26.2249 177.514 27.0788 178.446 28.1164 179.135C28.1523 179.158 28.1832 179.188 28.2073 179.224C28.2314 179.26 28.2481 179.3 28.2565 179.342C28.265 179.384 28.2649 179.427 28.2564 179.469C28.2478 179.511 28.231 179.551 28.2068 179.587C28.1779 179.631 28.1386 179.667 28.0923 179.691C28.0461 179.716 27.9944 179.729 27.9419 179.729ZM38.4415 178.185C38.3658 178.183 38.2927 178.156 38.2348 178.107C38.202 178.08 38.175 178.047 38.1553 178.01C38.1355 177.972 38.1235 177.931 38.1199 177.889C38.1163 177.847 38.1211 177.805 38.1342 177.764C38.1473 177.724 38.1683 177.687 38.196 177.655C38.9927 176.697 39.5428 175.559 39.7984 174.34C39.8061 174.298 39.8222 174.258 39.8457 174.223C39.8692 174.187 39.8997 174.156 39.9353 174.133C39.9709 174.109 40.0109 174.093 40.0529 174.086C40.0949 174.078 40.138 174.079 40.1796 174.088C40.2628 174.107 40.3355 174.157 40.3825 174.228C40.4294 174.299 40.4471 174.386 40.4316 174.469C40.1522 175.792 39.5558 177.027 38.6935 178.068C38.6628 178.105 38.6243 178.135 38.5807 178.155C38.5371 178.175 38.4896 178.185 38.4415 178.185ZM24.3688 173.184C24.2847 173.182 24.2044 173.148 24.1444 173.09C24.0843 173.031 24.049 172.951 24.0457 172.867V168.99C24.0474 168.905 24.082 168.824 24.1422 168.764C24.2024 168.703 24.2836 168.669 24.3688 168.667C24.4545 168.667 24.5367 168.701 24.5972 168.762C24.6578 168.822 24.6919 168.905 24.6919 168.99V172.867C24.6927 172.909 24.6852 172.951 24.6696 172.99C24.6541 173.029 24.6309 173.065 24.6015 173.095C24.572 173.125 24.5368 173.149 24.4979 173.165C24.4591 173.182 24.4174 173.19 24.3753 173.19L24.3688 173.184ZM40.2701 170.864C40.1844 170.864 40.1022 170.83 40.0417 170.769C39.9811 170.709 39.947 170.627 39.947 170.541V166.664C39.947 166.579 39.9811 166.496 40.0417 166.436C40.1022 166.375 40.1844 166.341 40.2701 166.341C40.3558 166.341 40.438 166.375 40.4985 166.436C40.5591 166.496 40.5932 166.579 40.5932 166.664V170.541C40.5932 170.624 40.561 170.705 40.5032 170.765C40.4453 170.825 40.3664 170.861 40.283 170.864H40.2701ZM24.3688 165.43C24.2831 165.43 24.2009 165.396 24.1404 165.335C24.0798 165.275 24.0457 165.193 24.0457 165.107V161.23C24.0474 161.145 24.082 161.064 24.1422 161.004C24.2024 160.943 24.2836 160.909 24.3688 160.907C24.4545 160.907 24.5367 160.941 24.5972 161.002C24.6578 161.062 24.6919 161.145 24.6919 161.23V165.107C24.6919 165.193 24.6578 165.275 24.5972 165.335C24.5367 165.396 24.4545 165.43 24.3688 165.43ZM40.2701 163.11C40.1844 163.11 40.1022 163.076 40.0417 163.016C39.9811 162.955 39.947 162.873 39.947 162.787V158.911C39.947 158.825 39.9811 158.743 40.0417 158.682C40.1022 158.622 40.1844 158.588 40.2701 158.588C40.3558 158.588 40.438 158.622 40.4985 158.682C40.5591 158.743 40.5932 158.825 40.5932 158.911V162.787C40.5932 162.871 40.561 162.951 40.5032 163.011C40.4453 163.072 40.3664 163.107 40.283 163.11H40.2701ZM24.3688 157.676C24.2831 157.676 24.2009 157.642 24.1404 157.582C24.0798 157.521 24.0457 157.439 24.0457 157.353V153.477C24.0474 153.391 24.082 153.31 24.1422 153.25C24.2024 153.19 24.2836 153.155 24.3688 153.154C24.4545 153.154 24.5367 153.188 24.5972 153.248C24.6578 153.309 24.6919 153.391 24.6919 153.477V157.353C24.6919 157.439 24.6578 157.521 24.5972 157.582C24.5367 157.642 24.4545 157.676 24.3688 157.676ZM40.2701 155.357C40.1844 155.357 40.1022 155.323 40.0417 155.262C39.9811 155.202 39.947 155.119 39.947 155.034V151.157C39.947 151.071 39.9811 150.989 40.0417 150.929C40.1022 150.868 40.1844 150.834 40.2701 150.834C40.3558 150.834 40.438 150.868 40.4985 150.929C40.5591 150.989 40.5932 151.071 40.5932 151.157V155.034C40.5932 155.117 40.561 155.198 40.5032 155.258C40.4453 155.318 40.3664 155.354 40.283 155.357H40.2701ZM24.3688 149.923C24.2831 149.923 24.2009 149.889 24.1404 149.828C24.0798 149.768 24.0457 149.686 24.0457 149.6V145.723C24.0474 145.638 24.082 145.557 24.1422 145.496C24.2024 145.436 24.2836 145.402 24.3688 145.4C24.4545 145.4 24.5367 145.434 24.5972 145.495C24.6578 145.555 24.6919 145.637 24.6919 145.723V149.6C24.6919 149.686 24.6578 149.768 24.5972 149.828C24.5367 149.889 24.4545 149.923 24.3688 149.923ZM40.2701 147.603C40.1844 147.603 40.1022 147.569 40.0417 147.509C39.9811 147.448 39.947 147.366 39.947 147.28V143.403C39.947 143.318 39.9811 143.236 40.0417 143.175C40.1022 143.114 40.1844 143.08 40.2701 143.08C40.3558 143.08 40.438 143.114 40.4985 143.175C40.5591 143.236 40.5932 143.318 40.5932 143.403V147.28C40.5932 147.364 40.561 147.444 40.5032 147.504C40.4453 147.564 40.3664 147.6 40.283 147.603H40.2701ZM24.3688 142.169C24.2831 142.169 24.2009 142.135 24.1404 142.075C24.0798 142.014 24.0457 141.932 24.0457 141.846V137.969C24.0474 137.884 24.082 137.803 24.1422 137.743C24.2024 137.683 24.2836 137.648 24.3688 137.646C24.4545 137.646 24.5367 137.68 24.5972 137.741C24.6578 137.802 24.6919 137.884 24.6919 137.969V141.846C24.6919 141.932 24.6578 142.014 24.5972 142.075C24.5367 142.135 24.4545 142.169 24.3688 142.169ZM40.2701 139.85C40.1844 139.85 40.1022 139.816 40.0417 139.755C39.9811 139.695 39.947 139.612 39.947 139.527V135.65C39.947 135.564 39.9811 135.482 40.0417 135.421C40.1022 135.361 40.1844 135.327 40.2701 135.327C40.3558 135.327 40.438 135.361 40.4985 135.421C40.5591 135.482 40.5932 135.564 40.5932 135.65V139.527C40.5932 139.61 40.561 139.69 40.5032 139.751C40.4453 139.811 40.3664 139.846 40.283 139.85H40.2701ZM24.3688 134.416C24.2831 134.416 24.2009 134.382 24.1404 134.321C24.0798 134.261 24.0457 134.178 24.0457 134.093V130.216C24.0474 130.131 24.082 130.05 24.1422 129.989C24.2024 129.929 24.2836 129.894 24.3688 129.893C24.4545 129.893 24.5367 129.927 24.5972 129.987C24.6578 130.048 24.6919 130.13 24.6919 130.216V134.093C24.6919 134.178 24.6578 134.261 24.5972 134.321C24.5367 134.382 24.4545 134.416 24.3688 134.416ZM40.2701 132.096C40.1844 132.096 40.1022 132.062 40.0417 132.002C39.9811 131.941 39.947 131.859 39.947 131.773V127.896C39.947 127.811 39.9811 127.728 40.0417 127.668C40.1022 127.607 40.1844 127.573 40.2701 127.573C40.3558 127.573 40.438 127.607 40.4985 127.668C40.5591 127.728 40.5932 127.811 40.5932 127.896V131.773C40.5932 131.857 40.561 131.937 40.5032 131.997C40.4453 132.057 40.3664 132.093 40.283 132.096H40.2701ZM24.3688 126.662C24.2831 126.662 24.2009 126.628 24.1404 126.568C24.0798 126.507 24.0457 126.425 24.0457 126.339V122.462C24.0474 122.377 24.082 122.296 24.1422 122.236C24.2024 122.175 24.2836 122.141 24.3688 122.139C24.4545 122.139 24.5367 122.173 24.5972 122.234C24.6578 122.294 24.6919 122.377 24.6919 122.462V126.339C24.6919 126.425 24.6578 126.507 24.5972 126.568C24.5367 126.628 24.4545 126.662 24.3688 126.662ZM40.2701 124.343C40.1844 124.343 40.1022 124.309 40.0417 124.248C39.9811 124.187 39.947 124.105 39.947 124.019V120.143C39.947 120.057 39.9811 119.975 40.0417 119.914C40.1022 119.854 40.1844 119.82 40.2701 119.82C40.3558 119.82 40.438 119.854 40.4985 119.914C40.5591 119.975 40.5932 120.057 40.5932 120.143V124.019C40.5932 124.103 40.561 124.183 40.5032 124.243C40.4453 124.304 40.3664 124.339 40.283 124.343H40.2701ZM24.3688 118.909C24.2831 118.909 24.2009 118.875 24.1404 118.814C24.0798 118.753 24.0457 118.671 24.0457 118.586V114.709C24.0474 114.624 24.082 114.542 24.1422 114.482C24.2024 114.422 24.2836 114.387 24.3688 114.386C24.4545 114.386 24.5367 114.42 24.5972 114.48C24.6578 114.541 24.6919 114.623 24.6919 114.709V118.586C24.6919 118.671 24.6578 118.753 24.5972 118.814C24.5367 118.875 24.4545 118.909 24.3688 118.909ZM40.2701 116.589C40.1844 116.589 40.1022 116.555 40.0417 116.494C39.9811 116.434 39.947 116.352 39.947 116.266V112.389C39.947 112.303 39.9811 112.221 40.0417 112.161C40.1022 112.1 40.1844 112.066 40.2701 112.066C40.3558 112.066 40.438 112.1 40.4985 112.161C40.5591 112.221 40.5932 112.303 40.5932 112.389V116.266C40.5932 116.349 40.561 116.43 40.5032 116.49C40.4453 116.55 40.3664 116.586 40.283 116.589H40.2701ZM24.3688 111.155C24.2831 111.155 24.2009 111.121 24.1404 111.06C24.0798 111 24.0457 110.918 24.0457 110.832V110.283C24.0497 109.215 23.8296 108.159 23.3996 107.181C23.3769 107.142 23.3628 107.098 23.3581 107.053C23.3534 107.008 23.3583 106.962 23.3724 106.919C23.3865 106.876 23.4096 106.836 23.4401 106.803C23.4706 106.769 23.5078 106.742 23.5494 106.724C23.591 106.706 23.6359 106.696 23.6813 106.697C23.7267 106.697 23.7715 106.707 23.8129 106.726C23.8542 106.744 23.8912 106.772 23.9213 106.806C23.9514 106.84 23.974 106.88 23.9876 106.923C24.4586 107.98 24.7009 109.125 24.6983 110.283V110.832C24.6983 110.875 24.6898 110.917 24.6731 110.957C24.6565 110.997 24.6321 111.033 24.6014 111.063C24.5707 111.093 24.5344 111.116 24.4944 111.132C24.4545 111.148 24.4118 111.156 24.3688 111.155ZM40.4123 108.848H40.3541C40.2698 108.831 40.1955 108.782 40.1472 108.71C40.0989 108.639 40.0804 108.552 40.0956 108.467C40.3555 107.141 40.9368 105.898 41.7885 104.849C41.8425 104.782 41.9208 104.739 42.0062 104.73C42.0917 104.721 42.1772 104.746 42.244 104.8C42.3109 104.854 42.3535 104.933 42.3626 105.018C42.3717 105.103 42.3465 105.189 42.2925 105.256C41.5069 106.223 40.9701 107.368 40.7289 108.59C40.7155 108.661 40.6781 108.726 40.6228 108.773C40.5675 108.82 40.4978 108.847 40.4252 108.848H40.4123ZM21.3255 104.325C21.2549 104.324 21.1868 104.299 21.1317 104.254C20.1517 103.485 18.998 102.968 17.7718 102.749C17.7294 102.742 17.6888 102.726 17.6523 102.703C17.6159 102.68 17.5843 102.65 17.5594 102.615C17.5345 102.58 17.5168 102.541 17.5072 102.499C17.4977 102.457 17.4964 102.413 17.5037 102.371C17.5109 102.328 17.5264 102.288 17.5493 102.251C17.5722 102.215 17.602 102.183 17.6371 102.159C17.6722 102.134 17.7119 102.116 17.7538 102.106C17.7958 102.097 17.8392 102.096 17.8816 102.103C19.2114 102.342 20.4625 102.904 21.5258 103.737C21.5938 103.791 21.638 103.869 21.6489 103.955C21.6598 104.041 21.6364 104.127 21.584 104.196C21.5569 104.238 21.5209 104.274 21.4785 104.301C21.436 104.328 21.3882 104.345 21.3384 104.351L21.3255 104.325ZM45.1032 103.033C45.0396 103.032 44.9777 103.012 44.9249 102.977C44.8722 102.941 44.8309 102.891 44.8059 102.833C44.7734 102.755 44.7728 102.667 44.8042 102.589C44.8356 102.51 44.8965 102.447 44.9739 102.413C45.996 101.981 47.0951 101.761 48.2046 101.767C48.4243 101.767 48.6375 101.767 48.8507 101.767C48.8934 101.762 48.9364 101.767 48.9774 101.779C49.0183 101.792 49.0562 101.813 49.0888 101.841C49.1215 101.868 49.1481 101.903 49.1671 101.941C49.1862 101.979 49.1972 102.021 49.1996 102.064C49.2032 102.106 49.1983 102.149 49.1852 102.19C49.1722 102.23 49.1512 102.268 49.1236 102.3C49.096 102.333 49.0622 102.359 49.0243 102.379C48.9863 102.398 48.9449 102.41 48.9024 102.413C48.6763 102.413 48.4372 102.413 48.2046 102.413C47.1787 102.411 46.1632 102.618 45.2195 103.02C45.1876 103.039 45.1526 103.052 45.1161 103.059L45.1032 103.033ZM13.9596 102.626H10.0828C9.99715 102.626 9.91498 102.592 9.85439 102.531C9.7938 102.471 9.75977 102.389 9.75977 102.303C9.75977 102.217 9.7938 102.135 9.85439 102.075C9.91498 102.014 9.99715 101.98 10.0828 101.98H13.9596C14.0448 101.982 14.126 102.016 14.1862 102.076C14.2465 102.137 14.281 102.218 14.2827 102.303C14.2862 102.346 14.2809 102.39 14.267 102.432C14.2532 102.473 14.2311 102.511 14.2021 102.544C14.1732 102.576 14.1379 102.603 14.0984 102.621C14.059 102.64 14.0161 102.65 13.9725 102.652L13.9596 102.626ZM52.5466 101.192C52.4908 101.192 52.436 101.178 52.3873 101.151C52.3386 101.124 52.2978 101.084 52.2688 101.037C52.2255 100.963 52.2127 100.875 52.2333 100.791C52.2538 100.708 52.3059 100.636 52.3786 100.591C53.4454 99.9447 54.3478 99.06 55.0148 98.0062C55.0613 97.9346 55.1337 97.8838 55.2169 97.8645C55.3 97.8452 55.3874 97.859 55.4607 97.9029C55.4974 97.9247 55.5294 97.9537 55.5547 97.9882C55.58 98.0227 55.598 98.062 55.6076 98.1037C55.6173 98.1453 55.6184 98.1885 55.6109 98.2306C55.6034 98.2728 55.5875 98.3129 55.564 98.3487C54.8413 99.4874 53.8664 100.445 52.7146 101.146C52.6706 101.184 52.6168 101.209 52.5595 101.218L52.5466 101.192ZM56.5397 94.8725C56.4975 94.8693 56.4563 94.8576 56.4187 94.8382C56.381 94.8188 56.3477 94.792 56.3206 94.7595C56.2935 94.727 56.2732 94.6893 56.2608 94.6488C56.2485 94.6083 56.2445 94.5657 56.2489 94.5236C56.2489 94.2587 56.2877 93.9873 56.2877 93.7159V90.6791C56.2877 90.5934 56.3217 90.5112 56.3823 90.4507C56.4429 90.3901 56.5251 90.356 56.6108 90.356C56.6965 90.356 56.7786 90.3901 56.8392 90.4507C56.8998 90.5112 56.9338 90.5934 56.9338 90.6791V93.7159C56.9338 94.0131 56.9338 94.2974 56.8951 94.5817C56.8901 94.6686 56.8516 94.7501 56.7877 94.8091C56.7239 94.8682 56.6396 94.9002 56.5526 94.8983L56.5397 94.8725ZM56.5785 87.1189C56.4933 87.1173 56.4121 87.0827 56.3519 87.0225C56.2916 86.9622 56.2571 86.881 56.2554 86.7959V83.3584C56.2554 83.2034 56.2554 83.0548 56.2554 82.8997C56.2554 82.814 56.2894 82.7318 56.35 82.6712C56.4106 82.6107 56.4928 82.5766 56.5785 82.5766C56.6641 82.5766 56.7463 82.6107 56.8069 82.6712C56.8675 82.7318 56.9015 82.814 56.9015 82.8997C56.9015 83.0418 56.9015 83.184 56.9015 83.3261V86.7636C56.91 86.8095 56.9083 86.8567 56.8967 86.902C56.8851 86.9472 56.8638 86.9894 56.8344 87.0257C56.8049 87.0619 56.7679 87.0913 56.7259 87.1119C56.684 87.1324 56.6381 87.1437 56.5914 87.1448L56.5785 87.1189ZM57.6704 79.5527C57.6142 79.553 57.5588 79.5397 57.5089 79.514C57.4357 79.4707 57.3821 79.4008 57.3592 79.3189C57.3363 79.2371 57.346 79.1495 57.3861 79.0746C58.0542 77.9037 58.9828 76.9022 60.0999 76.1476C60.1345 76.1233 60.1736 76.1062 60.2149 76.0972C60.2563 76.0883 60.299 76.0877 60.3405 76.0955C60.3821 76.1034 60.4216 76.1194 60.4569 76.1428C60.4921 76.1662 60.5223 76.1964 60.5457 76.2316C60.5702 76.2667 60.5874 76.3063 60.5965 76.3482C60.6055 76.39 60.6061 76.4332 60.5983 76.4753C60.5905 76.5174 60.5744 76.5575 60.5509 76.5933C60.5275 76.6291 60.4972 76.6599 60.4617 76.6839C59.4257 77.3797 58.5653 78.3064 57.9483 79.3912C57.9246 79.443 57.8876 79.4876 57.841 79.5206C57.7945 79.5535 57.7401 79.5735 57.6833 79.5786L57.6704 79.5527ZM63.8733 75.3852C63.7946 75.3856 63.7186 75.3567 63.6601 75.3041C63.6016 75.2516 63.5647 75.1791 63.5567 75.1009C63.5457 75.0161 63.5687 74.9304 63.6208 74.8625C63.6729 74.7947 63.7498 74.7503 63.8345 74.739C64.2032 74.6929 64.5743 74.6691 64.9459 74.668H67.7501C67.8352 74.6696 67.9165 74.7042 67.9767 74.7644C68.0369 74.8247 68.0715 74.9059 68.0731 74.991C68.0731 75.0767 68.0391 75.1589 67.9785 75.2195C67.9179 75.2801 67.8358 75.3141 67.7501 75.3141H64.9459C64.6022 75.315 64.259 75.3387 63.9185 75.3852H63.8733Z" fill="#25292B"/>
<path d="M219.553 360.053H162.163V385.11H219.553V360.053Z" fill="#25292B"/>
<path d="M159.294 254.286L133.449 257.575C128.735 258.175 124.315 260.194 120.775 263.364C117.235 266.534 114.741 270.705 113.626 275.324L109.82 306.674H136.583L132.68 348.085L156.955 361.731H214.558L207.967 315.778L211.682 301.169H233.115L227.661 276.364C226.685 271.916 224.433 267.849 221.182 264.661C217.932 261.472 213.822 259.299 209.356 258.408L188.68 254.279L159.294 254.286Z" fill="#2AB6C5"/>
<path d="M167.979 328.231V346.432H118C116.761 346.435 115.534 346.183 114.396 345.691C113.258 345.2 112.233 344.48 111.384 343.576C110.536 342.672 109.883 341.604 109.465 340.436C109.047 339.269 108.873 338.029 108.955 336.792L110.951 306.676H138.037L136.099 322.002L167.979 328.231Z" fill="white"/>
<path d="M142.676 306.998H127.143V306.352H142.139L144.963 290.754L145.603 290.87L142.676 306.998Z" fill="#25292B"/>
<path d="M213.941 289.662L207.664 315.711L208.292 315.862L214.57 289.813L213.941 289.662Z" fill="#25292B"/>
<path d="M280.772 248.995C281.348 247.037 280.228 244.982 278.27 244.405C276.312 243.829 274.258 244.949 273.681 246.907L267.369 268.34C266.792 270.298 267.912 272.353 269.87 272.929C271.828 273.506 273.883 272.386 274.459 270.428L280.772 248.995Z" fill="white"/>
<path d="M282.615 263.998C283.339 262.089 282.379 259.955 280.471 259.231C278.562 258.507 276.428 259.467 275.704 261.375L271.864 271.494C271.14 273.402 272.1 275.537 274.008 276.261C275.917 276.985 278.051 276.025 278.775 274.117L282.615 263.998Z" fill="white"/>
<path d="M287.486 267.787C288.211 265.878 287.251 263.744 285.342 263.02C283.434 262.296 281.3 263.256 280.575 265.164L276.63 275.561C275.906 277.469 276.866 279.604 278.775 280.328C280.683 281.052 282.817 280.092 283.541 278.183L287.486 267.787Z" fill="white"/>
<path d="M292.798 273.695C294.049 272.082 293.755 269.76 292.142 268.509C290.53 267.258 288.208 267.552 286.957 269.164L282.89 274.408C281.639 276.021 281.932 278.342 283.545 279.593C285.158 280.844 287.479 280.551 288.73 278.938L292.798 273.695Z" fill="white"/>
<path d="M268.145 263.396C266.149 262.97 264.185 264.243 263.759 266.239C263.333 268.235 264.606 270.199 266.602 270.625L277.477 272.947C279.473 273.373 281.437 272.1 281.863 270.104C282.289 268.107 281.016 266.144 279.02 265.718L268.145 263.396Z" fill="white"/>
<path d="M286.388 278.303C284.696 286.703 274.932 291.684 274.932 291.684L246.121 324.178C244.078 326.852 241.446 329.018 238.429 330.509C235.412 331.999 232.093 332.773 228.728 332.772L209.822 332.475L207.127 313.976L211.289 301.053H229.742L230.466 303.437L259.619 281.689L263.774 266.246L286.388 278.303Z" fill="white"/>
<path d="M277.239 277.457C277.197 277.455 277.155 277.445 277.116 277.427C277.078 277.41 277.043 277.384 277.014 277.353C276.986 277.322 276.963 277.285 276.949 277.246C276.934 277.206 276.927 277.163 276.929 277.121C276.942 276.679 277.027 276.243 277.181 275.829L278.04 273.244C278.067 273.163 278.125 273.095 278.201 273.057C278.277 273.018 278.366 273.011 278.447 273.037C278.528 273.065 278.594 273.123 278.633 273.199C278.671 273.275 278.679 273.363 278.654 273.444L277.795 276.061C277.663 276.404 277.588 276.767 277.575 277.134C277.575 277.177 277.566 277.22 277.549 277.261C277.532 277.301 277.507 277.337 277.476 277.367C277.445 277.397 277.407 277.421 277.367 277.436C277.326 277.452 277.283 277.459 277.239 277.457Z" fill="#25292B"/>
<path d="M280.063 280.89C279.582 280.89 279.105 280.804 278.654 280.638C277.792 280.308 277.069 279.692 276.606 278.894C276.563 278.819 276.552 278.731 276.574 278.648C276.597 278.565 276.651 278.494 276.726 278.451C276.8 278.408 276.889 278.397 276.972 278.419C277.055 278.442 277.125 278.496 277.168 278.571C277.554 279.24 278.159 279.756 278.88 280.031C279.56 280.283 280.301 280.313 280.998 280.115C281.695 279.918 282.311 279.504 282.757 278.933C282.782 278.896 282.814 278.865 282.851 278.841C282.888 278.818 282.93 278.802 282.974 278.795C283.017 278.788 283.062 278.79 283.104 278.801C283.147 278.812 283.187 278.831 283.222 278.858C283.257 278.885 283.286 278.919 283.307 278.958C283.329 278.996 283.342 279.039 283.346 279.083C283.35 279.127 283.346 279.171 283.332 279.213C283.319 279.255 283.297 279.294 283.268 279.327C282.888 279.814 282.401 280.208 281.846 280.479C281.291 280.75 280.681 280.891 280.063 280.89Z" fill="#25292B"/>
<path d="M285.742 280.698C284.855 280.699 283.994 280.403 283.293 279.858C283.095 279.703 282.911 279.53 282.744 279.342C282.685 279.281 282.652 279.2 282.652 279.115C282.652 279.031 282.685 278.95 282.744 278.889C282.774 278.859 282.81 278.835 282.849 278.819C282.889 278.802 282.931 278.794 282.974 278.794C283.016 278.794 283.058 278.802 283.098 278.819C283.137 278.835 283.173 278.859 283.203 278.889C283.341 279.048 283.495 279.193 283.662 279.322C284.37 279.869 285.265 280.113 286.152 280.001C287.04 279.89 287.847 279.432 288.398 278.728C288.423 278.691 288.455 278.66 288.492 278.636C288.529 278.613 288.571 278.597 288.614 278.59C288.658 278.583 288.702 278.585 288.745 278.596C288.788 278.607 288.828 278.626 288.863 278.653C288.898 278.68 288.927 278.714 288.948 278.753C288.969 278.791 288.983 278.834 288.987 278.878C288.991 278.922 288.986 278.966 288.973 279.008C288.959 279.05 288.937 279.089 288.908 279.122C288.585 279.539 288.182 279.889 287.723 280.149C287.264 280.41 286.758 280.577 286.233 280.64C286.071 280.669 285.907 280.688 285.742 280.698Z" fill="#25292B"/>
<path d="M276.968 280.578C276.883 280.575 276.802 280.539 276.743 280.477C276.684 280.416 276.651 280.334 276.651 280.249C276.664 279.759 276.639 279.268 276.574 278.782C276.562 278.696 276.585 278.61 276.637 278.541C276.689 278.472 276.766 278.427 276.851 278.414C276.893 278.407 276.936 278.41 276.978 278.42C277.019 278.431 277.058 278.45 277.091 278.476C277.125 278.502 277.153 278.534 277.174 278.571C277.195 278.608 277.208 278.649 277.213 278.692C277.283 279.212 277.311 279.737 277.297 280.262C277.296 280.304 277.287 280.346 277.27 280.385C277.253 280.424 277.229 280.459 277.198 280.488C277.167 280.518 277.131 280.541 277.092 280.556C277.052 280.572 277.01 280.579 276.968 280.578Z" fill="#25292B"/>
<path d="M276.89 279.061C276.812 279.061 276.737 279.032 276.678 278.981C276.619 278.931 276.579 278.86 276.567 278.783C275.921 274.066 271.753 271.811 271.708 271.786C271.639 271.748 271.586 271.687 271.558 271.613C271.531 271.54 271.531 271.458 271.56 271.385C271.586 271.31 271.64 271.248 271.711 271.212C271.782 271.176 271.865 271.168 271.941 271.191L277.562 272.645C278.44 272.83 279.354 272.659 280.106 272.169C280.857 271.68 281.383 270.912 281.568 270.035C281.753 269.157 281.582 268.242 281.093 267.491C280.603 266.74 279.835 266.214 278.958 266.029L268.083 263.709C268.001 263.69 267.928 263.64 267.883 263.569C267.837 263.497 267.821 263.411 267.838 263.328C267.857 263.245 267.907 263.172 267.978 263.125C268.049 263.078 268.135 263.06 268.219 263.076L279.093 265.382C279.61 265.493 280.099 265.704 280.534 266.003C280.969 266.303 281.341 266.685 281.628 267.128C281.915 267.571 282.112 268.066 282.207 268.586C282.303 269.105 282.296 269.638 282.185 270.154C282.075 270.67 281.864 271.16 281.564 271.595C281.265 272.03 280.883 272.401 280.44 272.688C279.997 272.975 279.501 273.172 278.982 273.268C278.463 273.364 277.93 273.356 277.414 273.246L273.537 272.244C275.528 273.845 276.841 276.139 277.213 278.667C277.22 278.709 277.217 278.752 277.207 278.793C277.196 278.834 277.177 278.873 277.151 278.907C277.125 278.941 277.093 278.969 277.056 278.99C277.019 279.011 276.978 279.024 276.935 279.029L276.89 279.061Z" fill="#25292B"/>
<path d="M276.051 265.414H275.961C275.879 265.389 275.811 265.333 275.77 265.258C275.729 265.183 275.719 265.096 275.741 265.013L277.453 259.198C277.477 259.112 277.534 259.04 277.612 258.996C277.689 258.953 277.781 258.942 277.867 258.966C277.952 258.99 278.025 259.047 278.069 259.124C278.112 259.202 278.123 259.293 278.099 259.379L276.387 265.194C276.365 265.264 276.32 265.324 276.258 265.364C276.197 265.404 276.124 265.422 276.051 265.414Z" fill="#25292B"/>
<path d="M281.335 267.321C281.297 267.327 281.257 267.327 281.219 267.321C281.139 267.289 281.075 267.228 281.04 267.149C281.005 267.071 281.002 266.982 281.032 266.901L282.537 262.895C282.55 262.853 282.571 262.813 282.6 262.779C282.629 262.746 282.665 262.718 282.705 262.699C282.745 262.679 282.788 262.668 282.833 262.666C282.877 262.664 282.921 262.672 282.963 262.688C283.004 262.704 283.042 262.728 283.073 262.76C283.105 262.791 283.13 262.828 283.146 262.87C283.163 262.911 283.17 262.955 283.169 263C283.168 263.044 283.157 263.088 283.138 263.128L281.639 267.134C281.612 267.191 281.568 267.239 281.515 267.272C281.461 267.305 281.398 267.322 281.335 267.321Z" fill="#25292B"/>
<path d="M283.016 279.454C282.975 279.46 282.934 279.46 282.893 279.454C282.853 279.438 282.817 279.415 282.787 279.385C282.756 279.356 282.732 279.32 282.715 279.281C282.699 279.242 282.69 279.2 282.689 279.158C282.688 279.115 282.696 279.073 282.712 279.034L286.628 269.077C286.659 268.997 286.721 268.933 286.8 268.899C286.879 268.865 286.968 268.864 287.047 268.896C287.127 268.928 287.191 268.99 287.225 269.068C287.259 269.147 287.26 269.236 287.228 269.316L283.313 279.266C283.287 279.323 283.245 279.371 283.192 279.404C283.139 279.437 283.078 279.455 283.016 279.454Z" fill="#25292B"/>
<path d="M207.056 210.033C204.329 215.408 198.372 218.303 192.499 218.096C192.194 219.457 191.721 220.775 191.09 222.018C189.128 225.826 185.807 228.757 181.786 230.231C178.109 231.555 173.671 231.601 170.66 229.022C167.687 229.533 164.633 229.284 161.782 228.299C158.503 227.119 155.664 224.962 153.649 222.118C151.635 219.275 150.54 215.882 150.513 212.397C150.513 208.889 151.469 205.206 153.828 202.525C154.792 201.388 156.012 200.496 157.388 199.922C158.764 199.348 160.257 199.108 161.743 199.223C161.631 198.533 161.603 197.832 161.659 197.136C161.969 193.188 165.2 190.235 168.947 189.479C172.236 188.833 175.615 190.171 177.922 192.516C178.208 191.867 178.554 191.246 178.956 190.662C180.197 188.928 181.928 187.604 183.926 186.862C185.925 186.12 188.1 185.992 190.172 186.496C192.244 187 194.118 188.111 195.552 189.689C196.987 191.266 197.917 193.236 198.224 195.346C199.616 195.16 201.033 195.306 202.359 195.773C208.077 197.756 209.576 205.083 207.056 210.033Z" fill="#25292B"/>
<path d="M152.749 232.115C154.506 236.554 157.737 239.048 161.918 237.93L159.294 254.284L179.473 274.462L188.823 257.107L188.448 249.722L191.594 246.814C194.197 244.423 196.228 241.477 197.538 238.194C198.848 234.912 199.402 231.376 199.161 227.85L198.075 212.291C198.037 212.307 197.999 212.32 197.959 212.33C195.213 213.008 192.365 213.173 189.559 212.815C186.281 212.584 183.068 211.788 180.061 210.463C180.006 211.384 179.631 212.257 179.001 212.931C177.796 214.039 176.231 214.672 174.595 214.714C172.316 214.88 170.034 214.434 167.985 213.422C166.964 216.295 165.853 219.138 164.651 221.951V222.022C163.106 220.68 161.146 219.913 159.1 219.851C158.042 219.83 156.989 220.022 156.006 220.413C151.592 222.164 150.862 227.359 152.749 232.115Z" fill="white"/>
<path d="M194.631 227.608C195.912 227.518 196.871 226.297 196.772 224.88C196.674 223.464 195.555 222.387 194.273 222.477C192.992 222.566 192.033 223.787 192.132 225.204C192.23 226.621 193.349 227.697 194.631 227.608Z" fill="#25292B"/>
<path d="M181.099 228.789C182.383 228.699 183.344 227.475 183.245 226.055C183.145 224.634 182.023 223.556 180.739 223.646C179.454 223.736 178.493 224.96 178.593 226.38C178.692 227.8 179.814 228.879 181.099 228.789Z" fill="#25292B"/>
<path d="M192.105 219.182C192.96 218.833 193.89 218.705 194.808 218.808C195.725 218.912 196.603 219.245 197.358 219.777C197.518 219.877 197.632 220.037 197.675 220.221C197.717 220.405 197.685 220.598 197.584 220.759C197.484 220.919 197.324 221.033 197.14 221.075C196.956 221.118 196.762 221.085 196.602 220.985C196.454 220.881 196.299 220.778 196.137 220.688L195.898 220.565L195.769 220.513C195.598 220.443 195.423 220.385 195.245 220.339L194.974 220.274H194.929H194.78C194.598 220.254 194.414 220.243 194.231 220.242H193.953H193.817C193.635 220.265 193.454 220.297 193.275 220.339L193.01 220.41L192.88 220.455C192.713 220.539 192.52 220.556 192.341 220.502C192.162 220.448 192.01 220.327 191.918 220.164C191.817 220.008 191.78 219.819 191.815 219.636C191.849 219.453 191.954 219.29 192.105 219.182Z" fill="#25292B"/>
<path d="M182.252 220.798C182.184 220.974 182.05 221.116 181.878 221.194C181.707 221.273 181.512 221.281 181.334 221.218H181.283H181.147L180.876 221.179C180.695 221.179 180.507 221.179 180.326 221.179H180.191L179.913 221.212C179.732 221.237 179.552 221.276 179.377 221.328L179.228 221.367H179.189L178.931 221.47C178.761 221.543 178.594 221.625 178.433 221.716L178.317 221.78L178.097 221.935C177.95 222.047 177.81 222.168 177.677 222.297C177.606 222.357 177.523 222.403 177.433 222.431C177.344 222.459 177.25 222.47 177.157 222.462C177.064 222.454 176.973 222.427 176.89 222.384C176.807 222.341 176.733 222.282 176.673 222.21C176.612 222.138 176.567 222.055 176.539 221.966C176.51 221.877 176.5 221.783 176.508 221.69C176.516 221.596 176.543 221.505 176.586 221.422C176.629 221.339 176.688 221.265 176.76 221.205C177.436 220.578 178.259 220.132 179.153 219.906C180.048 219.68 180.984 219.682 181.877 219.913C182.037 219.989 182.164 220.121 182.233 220.284C182.302 220.448 182.309 220.63 182.252 220.798Z" fill="#25292B"/>
<path d="M193.643 235.502L185.96 235.05L185.999 234.404L192.745 234.804L189.359 223.956L189.979 223.762L193.643 235.502Z" fill="#25292B"/>
<path d="M159.979 235.878C159.127 235.88 158.292 235.646 157.566 235.201C156.84 234.756 156.251 234.118 155.866 233.358C155.481 232.599 155.314 231.747 155.384 230.899C155.455 230.05 155.759 229.237 156.264 228.551C156.509 228.19 156.823 227.881 157.188 227.642C157.553 227.402 157.961 227.237 158.39 227.156C158.98 227.061 159.585 227.188 160.089 227.511C160.036 226.757 159.88 226.013 159.624 225.301C159.294 224.339 158.613 223.536 157.718 223.053C157.484 222.923 157.227 222.843 156.961 222.817C156.695 222.792 156.427 222.821 156.173 222.904C155.544 223.28 155.069 223.869 154.836 224.565L154.254 224.287C154.549 223.44 155.148 222.733 155.934 222.303C156.272 222.187 156.63 222.142 156.986 222.171C157.342 222.2 157.688 222.302 158.002 222.471C159.041 223.023 159.835 223.946 160.225 225.056C160.591 226.118 160.779 227.234 160.78 228.357L160.832 229.747L160.186 228.519C160.013 228.241 159.76 228.022 159.46 227.889C159.161 227.757 158.828 227.717 158.506 227.776C157.81 227.924 157.197 228.334 156.794 228.92C156.346 229.527 156.082 230.249 156.032 231.001C155.983 231.754 156.149 232.505 156.513 233.166C156.877 233.826 157.422 234.369 158.084 234.729C158.747 235.09 159.498 235.253 160.25 235.2L160.296 235.846L159.979 235.878Z" fill="#25292B"/>
<path d="M183.395 252.135C182.057 252.102 180.744 251.764 179.557 251.146C178.105 250.353 176.743 249.407 175.493 248.322L175.9 247.818C177.112 248.874 178.433 249.797 179.842 250.571C181.226 251.313 182.806 251.607 184.365 251.411C185.805 251.159 187.085 250.377 188.558 249.272L188.946 249.789C187.653 250.881 186.121 251.654 184.474 252.044C184.118 252.105 183.757 252.136 183.395 252.135Z" fill="#25292B"/>
<path d="M185.702 240.831C184.23 240.597 182.847 239.973 181.697 239.024C180.548 238.076 179.673 236.837 179.163 235.436L179.777 235.223C180.244 236.514 181.049 237.657 182.108 238.531C183.168 239.405 184.442 239.978 185.799 240.191L185.702 240.831Z" fill="#25292B"/>
<path d="M203.658 351.227H142.47V357.093H203.658V351.227Z" fill="#95BFCE"/>
<path d="M243.085 357.092H155.618L168.541 304.639H256.008L243.085 357.092Z" fill="#95BFCE"/>
<path d="M244.352 350.902H142.47V351.548H244.352V350.902Z" fill="#25292B"/>
<path d="M268.297 400.667C266.922 402.683 265.114 404.367 263.006 405.596C260.898 406.826 258.543 407.57 256.111 407.775C255.419 407.83 254.724 407.843 254.031 407.814L207.755 405.791L202.133 400.99L205.299 384.191L211.709 383.661L251.026 375.074C253.924 374.439 256.941 374.601 259.754 375.543C262.568 376.485 265.073 378.172 267.005 380.424L267.218 380.67C269.577 383.418 270.961 386.869 271.156 390.485C271.352 394.102 270.346 397.681 268.297 400.667Z" fill="#2AB6C5"/>
<path d="M257.604 407.162L257.164 406.69C260.256 403.873 262.472 400.226 263.548 396.184C264.59 392.131 264.174 387.84 262.372 384.063C261.459 382.206 260.174 380.557 258.597 379.217C257.02 377.878 255.184 376.877 253.204 376.277L253.378 375.631C255.446 376.256 257.363 377.299 259.01 378.696C260.657 380.094 262 381.815 262.954 383.753C264.822 387.667 265.254 392.113 264.175 396.314C263.075 400.487 260.793 404.254 257.604 407.162Z" fill="white"/>
<path d="M210.371 402.049H209.725C209.888 396.785 210.349 391.534 211.107 386.322L211.753 386.413C210.993 391.594 210.532 396.815 210.371 402.049Z" fill="#25292B"/>
<path d="M222.835 401.165C221.604 396.24 221.655 391.082 222.984 386.182L223.63 386.35C222.333 391.144 222.284 396.191 223.488 401.01L222.835 401.165Z" fill="white"/>
<path d="M227.184 400.818C225.971 396.111 226.148 391.153 227.694 386.545L228.308 386.752C226.799 391.24 226.624 396.07 227.804 400.656L227.184 400.818Z" fill="white"/>
<path d="M230.989 400.543C230.031 395.851 230.532 390.979 232.423 386.58L233.011 386.839C231.177 391.115 230.693 395.848 231.622 400.407L230.989 400.543Z" fill="white"/>
<path d="M247.885 404.299C245.238 400.852 243.826 396.615 243.877 392.268C243.927 387.922 245.437 383.719 248.163 380.334L248.667 380.741C246.033 384.013 244.574 388.076 244.526 392.277C244.478 396.478 245.843 400.573 248.402 403.905L247.885 404.299Z" fill="#25292B"/>
<path d="M198.359 376.077L188.635 407.466L102.654 384.962C99.616 384.167 96.7742 382.755 94.3062 380.813C91.8381 378.871 89.7967 376.442 88.3094 373.676C86.822 370.91 85.9206 367.867 85.6615 364.738C85.4023 361.608 85.7909 358.459 86.803 355.486C87.8152 352.513 89.4291 349.781 91.5442 347.46C93.6592 345.138 96.2299 343.278 99.096 341.994C101.962 340.711 105.062 340.032 108.202 339.999C111.342 339.967 114.455 340.582 117.347 341.806L198.359 376.077Z" fill="#25292B"/>
<path d="M162.163 390.903L171.474 417.155L272.865 376.514C275.732 375.23 278.304 373.37 280.419 371.048C282.535 368.726 284.15 365.993 285.162 363.02C286.174 360.046 286.563 356.896 286.303 353.766C286.044 350.635 285.141 347.592 283.653 344.826C282.165 342.06 280.122 339.63 277.653 337.688C275.183 335.747 272.34 334.336 269.301 333.542C266.262 332.749 263.091 332.59 259.988 333.077C256.885 333.563 253.915 334.684 251.265 336.37L162.163 390.903Z" fill="#25292B"/>
<path d="M222.825 353.995L164.036 390.488L164.377 391.037L223.165 354.544L222.825 353.995Z" fill="white"/>
<path d="M159.48 359.295L159.225 359.889L192.213 374.082L192.468 373.488L159.48 359.295Z" fill="white"/>
<path d="M107.752 419.032C109.443 420.789 111.504 422.147 113.785 423.009C116.066 423.871 118.51 424.214 120.94 424.014C121.632 423.954 122.321 423.853 123.001 423.71L168.308 414.089L173.063 408.429L167.171 392.386L160.761 392.915L120.572 390.925C117.61 390.783 114.664 391.444 112.048 392.84C109.432 394.236 107.242 396.314 105.711 398.853L105.543 399.131C103.667 402.228 102.866 405.858 103.266 409.457C103.666 413.056 105.243 416.422 107.752 419.032Z" fill="#2AB6C5"/>
<path d="M119.344 423.683C115.726 421.344 112.857 418.013 111.08 414.088C109.326 410.121 109.02 405.664 110.214 401.495C110.838 399.427 111.88 397.509 113.275 395.86C114.67 394.211 116.388 392.865 118.323 391.906L118.601 392.494C116.747 393.411 115.102 394.7 113.768 396.281C112.434 397.862 111.44 399.7 110.848 401.682C109.697 405.704 109.992 410.002 111.681 413.829C113.404 417.635 116.182 420.866 119.687 423.14L119.344 423.683Z" fill="white"/>
<path d="M165.084 410.856C164.07 405.714 162.758 400.635 161.155 395.646L161.769 395.445C163.378 400.47 164.698 405.583 165.723 410.759L165.084 410.856Z" fill="#25292B"/>
<path d="M161.931 417.486C161.039 417.451 160.185 417.122 159.501 416.549C157.912 415.257 156.917 413.196 156.503 410.192C156.413 409.513 156.342 408.828 156.27 408.143C156.175 406.532 155.889 404.938 155.418 403.394L155.579 403.343C155.579 403.343 155.579 403.297 155.579 403.271L155.34 403.084L155.515 402.864C154.771 398.27 154.061 393.534 154.707 388.811C154.868 387.654 155.224 386.033 156.516 385.315C157.075 385.043 157.702 384.942 158.317 385.028C158.933 385.113 159.509 385.379 159.973 385.794C160.851 386.595 161.438 387.665 161.64 388.837C162.338 391.925 161.356 394.885 160.412 396.83C159.243 399.053 157.827 401.138 156.193 403.045C156.193 403.116 156.193 403.181 156.225 403.246C158.24 404.145 160.02 405.497 161.427 407.195C162.834 408.894 163.831 410.895 164.341 413.041C164.528 413.92 164.806 416.058 163.339 417.06C162.925 417.345 162.433 417.494 161.931 417.486ZM156.277 403.982C156.603 405.328 156.819 406.698 156.923 408.079C156.988 408.725 157.059 409.436 157.156 410.101C157.556 412.931 158.448 414.882 159.915 416.052C160.748 416.698 162.066 417.157 162.977 416.53C164.115 415.742 163.869 413.946 163.707 413.183C163.235 411.192 162.322 409.332 161.036 407.739C159.751 406.147 158.124 404.863 156.277 403.982ZM157.815 385.632C157.47 385.63 157.13 385.715 156.826 385.878C155.786 386.459 155.482 387.881 155.34 388.902C154.739 393.328 155.34 397.818 156.051 402.186C157.51 400.449 158.776 398.557 159.824 396.545C160.722 394.697 161.659 391.88 161.007 388.973C160.826 387.943 160.316 386.999 159.553 386.285C159.065 385.871 158.448 385.641 157.808 385.632H157.815Z" fill="white"/>
<path d="M152.64 412.053L151.994 412.001C152.377 407.046 151.488 402.075 149.409 397.56L149.997 397.295C152.121 401.909 153.031 406.989 152.64 412.053Z" fill="white"/>
<path d="M148.304 412.407L147.658 412.349C148.067 407.631 147.1 402.895 144.873 398.716L145.442 398.412C147.729 402.702 148.724 407.564 148.304 412.407Z" fill="white"/>
<path d="M144.505 412.77H143.859C144.026 408.117 142.766 403.525 140.247 399.609L140.79 399.26C143.374 403.281 144.67 407.994 144.505 412.77Z" fill="white"/>
<path d="M128.461 419.262L127.886 418.958C129.86 415.25 130.53 410.985 129.79 406.85C129.049 402.715 126.94 398.949 123.802 396.156L124.235 395.678C127.481 398.566 129.662 402.462 130.428 406.739C131.194 411.015 130.502 415.426 128.461 419.262Z" fill="#25292B"/>
<path d="M334.661 286.058H254.16V188.602H334.661V286.058ZM254.806 285.411H334.015V189.248H254.806V285.411Z" fill="#25292B"/>
<path d="M332.135 190.895H256.693V201.401H332.135V190.895Z" fill="#2AB6C5"/>
<path d="M318.372 199.721C318.271 199.722 318.173 199.688 318.094 199.624L314.172 196.484C314.119 196.442 314.077 196.388 314.048 196.327C314.019 196.266 314.003 196.199 314.003 196.132C314.003 196.064 314.019 195.998 314.048 195.937C314.077 195.876 314.119 195.822 314.172 195.78L318.049 192.678C318.095 192.64 318.149 192.611 318.207 192.593C318.266 192.576 318.326 192.57 318.387 192.577C318.447 192.584 318.505 192.602 318.558 192.632C318.611 192.661 318.658 192.701 318.695 192.749C318.733 192.796 318.761 192.85 318.778 192.908C318.795 192.966 318.8 193.027 318.793 193.087C318.787 193.147 318.768 193.205 318.739 193.258C318.71 193.311 318.671 193.358 318.624 193.396L315.193 196.135L318.675 198.92C318.75 198.978 318.804 199.059 318.83 199.149C318.856 199.24 318.854 199.336 318.822 199.426C318.791 199.515 318.733 199.592 318.655 199.646C318.578 199.7 318.486 199.729 318.391 199.728L318.372 199.721Z" fill="white"/>
<path d="M324.388 199.722C324.294 199.723 324.201 199.694 324.124 199.64C324.047 199.586 323.988 199.509 323.957 199.42C323.925 199.331 323.923 199.234 323.949 199.143C323.975 199.053 324.03 198.972 324.104 198.914L327.593 196.129L324.155 193.39C324.108 193.352 324.069 193.305 324.04 193.252C324.011 193.2 323.992 193.141 323.986 193.081C323.979 193.021 323.984 192.961 324.001 192.903C324.018 192.845 324.046 192.791 324.084 192.744C324.121 192.696 324.168 192.656 324.221 192.626C324.274 192.596 324.332 192.578 324.392 192.571C324.453 192.564 324.514 192.57 324.572 192.587C324.63 192.605 324.684 192.634 324.73 192.672L328.607 195.774C328.661 195.816 328.704 195.869 328.734 195.93C328.764 195.991 328.78 196.058 328.78 196.126C328.78 196.194 328.764 196.261 328.734 196.322C328.704 196.383 328.661 196.437 328.607 196.478L324.685 199.618C324.601 199.686 324.496 199.722 324.388 199.722Z" fill="white"/>
<path d="M320.498 200.547C320.434 200.563 320.367 200.563 320.304 200.547C320.247 200.529 320.194 200.5 320.148 200.462C320.102 200.424 320.064 200.377 320.037 200.324C320.009 200.271 319.992 200.213 319.987 200.154C319.982 200.095 319.988 200.035 320.006 199.978L322.436 192.082C322.47 191.967 322.549 191.871 322.654 191.814C322.76 191.757 322.883 191.744 322.998 191.779C323.113 191.814 323.21 191.894 323.267 192C323.323 192.107 323.336 192.231 323.302 192.347L320.872 200.243C320.844 200.323 320.794 200.394 320.728 200.448C320.662 200.502 320.582 200.536 320.498 200.547Z" fill="white"/>
<path d="M297.251 208.682H256.693V212.003H297.251V208.682Z" fill="#95BFCE"/>
<path d="M318.824 208.682H299.085V212.003H318.824V208.682Z" fill="#2AB6C5"/>
<path d="M332.128 208.682H320.854V212.003H332.128V208.682Z" fill="#25292B"/>
<path d="M332.231 219.544H304.603V216.223H332.231" fill="#95BFCE"/>
<path d="M283.016 219.551H302.755V216.23H283.016V219.551Z" fill="#2AB6C5"/>
<path d="M256.796 216.223H280.994V219.544H256.796" fill="#25292B"/>
<path d="M271.508 224.398H256.796V227.72H271.508V224.398Z" fill="#2AB6C5"/>
<path d="M314.404 224.398H273.342V227.72H314.404V224.398Z" fill="#95BFCE"/>
<path d="M332.232 224.398H316.434V227.72H332.232V224.398Z" fill="#25292B"/>
<path d="M332.335 235.264H320.214V231.943H332.335" fill="#95BFCE"/>
<path d="M283.12 235.256H318.366V231.935H283.12V235.256Z" fill="#2AB6C5"/>
<path d="M256.893 231.943H281.097V235.264H256.893" fill="#25292B"/>
<path d="M297.451 244.574H256.893V247.895H297.451V244.574Z" fill="#95BFCE"/>
<path d="M319.031 244.574H299.292V247.895H319.031V244.574Z" fill="#2AB6C5"/>
<path d="M332.335 244.574H321.06V247.895H332.335V244.574Z" fill="#25292B"/>
<path d="M332.438 255.442H304.803V252.121H332.438" fill="#95BFCE"/>
<path d="M283.229 255.443H302.968V252.122H283.229V255.443Z" fill="#2AB6C5"/>
<path d="M256.996 252.121H281.2V255.442H256.996" fill="#25292B"/>
<path d="M271.709 260.297H256.996V263.618H271.709V260.297Z" fill="#2AB6C5"/>
<path d="M314.611 260.297H273.549V263.618H314.611V260.297Z" fill="#95BFCE"/>
<path d="M332.439 260.297H316.641V263.618H332.439V260.297Z" fill="#25292B"/>
<path d="M332.542 271.163H320.414V267.842H332.542" fill="#95BFCE"/>
<path d="M283.332 271.164H318.579V267.843H283.332V271.164Z" fill="#2AB6C5"/>
<path d="M257.099 267.842H281.303V271.163H257.099" fill="#25292B"/>
<path d="M150.85 97.4302H70.3481V0H150.85V97.4302ZM70.9943 96.7841H150.204V0.646132H70.9943V96.7841Z" fill="#25292B"/>
<path d="M148.317 2.30273H72.8745V12.8088H148.317V2.30273Z" fill="#2AB6C5"/>
<path d="M134.56 11.1221C134.457 11.1217 134.358 11.0876 134.276 11.0252L130.335 7.88502C130.281 7.84335 130.237 7.78996 130.208 7.72892C130.178 7.66789 130.162 7.60084 130.162 7.53288C130.162 7.46493 130.178 7.39788 130.208 7.33684C130.237 7.27581 130.281 7.22242 130.335 7.18074L134.211 4.08577C134.258 4.0479 134.312 4.01969 134.37 4.00276C134.428 3.98583 134.489 3.98052 134.549 3.98713C134.609 3.99373 134.667 4.01212 134.72 4.04124C134.773 4.07037 134.82 4.10966 134.857 4.15685C134.896 4.20353 134.925 4.25752 134.942 4.31561C134.96 4.3737 134.965 4.43469 134.959 4.49497C134.952 4.55525 134.934 4.61359 134.904 4.6665C134.874 4.71941 134.834 4.76582 134.786 4.80298L131.349 7.54904L134.838 10.3274C134.885 10.3651 134.925 10.4117 134.954 10.4646C134.983 10.5175 135.001 10.5757 135.008 10.6357C135.014 10.6957 135.009 10.7565 134.992 10.8145C134.975 10.8724 134.947 10.9265 134.909 10.9735C134.865 11.0214 134.811 11.0594 134.751 11.085C134.69 11.1106 134.626 11.1233 134.56 11.1221Z" fill="white"/>
<path d="M140.575 11.1221C140.481 11.1231 140.389 11.0945 140.311 11.0403C140.234 10.9861 140.176 10.9091 140.144 10.82C140.113 10.731 140.11 10.6344 140.137 10.5437C140.163 10.453 140.217 10.3729 140.291 10.3145L143.774 7.53611L140.343 4.79005C140.291 4.75536 140.246 4.71017 140.212 4.65737C140.178 4.60456 140.156 4.54529 140.146 4.48331C140.136 4.42134 140.14 4.35802 140.156 4.29738C140.172 4.23674 140.2 4.18011 140.24 4.13108C140.279 4.08205 140.328 4.0417 140.383 4.01258C140.439 3.98347 140.5 3.96624 140.562 3.96198C140.625 3.95772 140.688 3.96652 140.747 3.98783C140.806 4.00914 140.86 4.0425 140.905 4.08577L144.782 7.18074C144.834 7.22313 144.877 7.27677 144.906 7.3377C144.935 7.39864 144.95 7.46533 144.95 7.53288C144.95 7.60043 144.935 7.66713 144.906 7.72806C144.877 7.789 144.834 7.84263 144.782 7.88502L140.853 11.0252C140.774 11.0876 140.676 11.1217 140.575 11.1221Z" fill="white"/>
<path d="M136.686 11.9561C136.622 11.9688 136.556 11.9688 136.492 11.9561C136.435 11.9391 136.382 11.9111 136.337 11.8735C136.291 11.8359 136.253 11.7896 136.226 11.7373C136.198 11.685 136.181 11.6277 136.176 11.5687C136.17 11.5098 136.177 11.4504 136.195 11.394L138.624 3.49176C138.668 3.38942 138.749 3.307 138.85 3.26032C138.951 3.21364 139.066 3.20598 139.173 3.23882C139.279 3.27166 139.37 3.34268 139.427 3.43825C139.485 3.53383 139.505 3.64722 139.484 3.75668L137.054 11.6395C137.029 11.7218 136.981 11.7953 136.916 11.8514C136.851 11.9075 136.771 11.9438 136.686 11.9561Z" fill="white"/>
<path d="M113.432 20.084H72.8745V23.4051H113.432V20.084Z" fill="#95BFCE"/>
<path d="M135.013 20.084H115.273V23.4051H135.013V20.084Z" fill="#2AB6C5"/>
<path d="M148.316 20.084H137.041V23.4051H148.316V20.084Z" fill="white"/>
<path d="M148.42 30.9526H120.785V27.625H148.42" fill="#95BFCE"/>
<path d="M99.2104 30.9531L118.95 30.9531V27.632L99.2104 27.632V30.9531Z" fill="#2AB6C5"/>
<path d="M72.978 27.625H97.1821V30.9526H72.978" fill="white"/>
<path d="M87.6904 35.8008H72.978V39.1219H87.6904V35.8008Z" fill="#2AB6C5"/>
<path d="M130.593 35.8008H89.5312V39.1219H130.593V35.8008Z" fill="#95BFCE"/>
<path d="M148.42 35.8008H132.622V39.1219H148.42V35.8008Z" fill="white"/>
<path d="M148.523 46.6649H136.396V43.3438H148.523" fill="#95BFCE"/>
<path d="M99.3141 46.666L134.561 46.666V43.3449L99.3141 43.3449V46.666Z" fill="#2AB6C5"/>
<path d="M73.0811 43.3438H97.2852V46.6649H73.0811" fill="white"/>
<path d="M113.639 55.9844H73.0811V59.3055H113.639V55.9844Z" fill="#95BFCE"/>
<path d="M135.22 55.9844H115.48V59.3055H135.22V55.9844Z" fill="#2AB6C5"/>
<path d="M148.517 55.9844H137.242V59.3055H148.517V55.9844Z" fill="white"/>
<path d="M148.626 66.851H120.991V63.5234H148.626" fill="#95BFCE"/>
<path d="M99.4106 66.8535H119.15V63.5324H99.4106V66.8535Z" fill="#2AB6C5"/>
<path d="M73.1846 63.5234H97.3822V66.851H73.1846" fill="white"/>
<path d="M87.897 71.6934H73.1846V75.0145H87.897V71.6934Z" fill="#2AB6C5"/>
<path d="M130.799 71.6934H89.7378V75.0145H130.799V71.6934Z" fill="#95BFCE"/>
<path d="M148.62 71.6934H132.822V75.0145H148.62V71.6934Z" fill="white"/>
<path d="M148.73 82.5672H136.603V79.2461H148.73" fill="#95BFCE"/>
<path d="M99.5147 82.5625H134.761V79.2414H99.5147V82.5625Z" fill="#2AB6C5"/>
<path d="M73.2876 79.2461H97.4852V82.5672H73.2876" fill="white"/>
<path d="M333.356 153.74V168.414C333.356 170.47 332.539 172.442 331.085 173.896C329.631 175.35 327.659 176.167 325.602 176.167H311.588L300.073 187.003L301.728 176.167H262.152C260.096 176.167 258.124 175.35 256.669 173.896C255.215 172.442 254.398 170.47 254.398 168.414V153.74C254.398 151.684 255.215 149.711 256.669 148.257C258.124 146.803 260.096 145.986 262.152 145.986H325.602C327.659 145.986 329.631 146.803 331.085 148.257C332.539 149.711 333.356 151.684 333.356 153.74Z" fill="#95BFCE"/>
<path d="M282.512 163.099C282.526 164.244 282.203 165.367 281.581 166.329C280.921 167.307 279.992 168.072 278.906 168.533C277.612 169.08 276.215 169.347 274.81 169.314C273.705 169.333 272.601 169.242 271.515 169.043C270.556 168.832 269.625 168.509 268.743 168.08V163.37C269.744 163.884 270.796 164.291 271.883 164.585C272.863 164.86 273.875 165.008 274.894 165.024C275.505 165.061 276.112 164.908 276.632 164.585C276.801 164.466 276.939 164.308 277.035 164.125C277.13 163.942 277.181 163.738 277.181 163.532C277.185 163.279 277.108 163.033 276.961 162.827C276.763 162.579 276.52 162.371 276.244 162.213C275.921 162.007 275.049 161.567 273.66 160.921C272.626 160.491 271.657 159.921 270.778 159.228C270.161 158.722 269.672 158.078 269.35 157.348C269.022 156.552 268.864 155.696 268.885 154.835C268.848 154.022 269.008 153.212 269.353 152.475C269.697 151.738 270.215 151.096 270.862 150.602C272.18 149.586 273.989 149.08 276.289 149.084C278.443 149.128 280.563 149.626 282.512 150.544L280.883 154.647C279.408 153.884 277.787 153.444 276.128 153.355C275.6 153.312 275.073 153.439 274.622 153.717C274.477 153.818 274.357 153.953 274.275 154.111C274.193 154.269 274.15 154.444 274.151 154.621C274.16 154.829 274.218 155.031 274.322 155.211C274.425 155.391 274.57 155.543 274.745 155.655C275.776 156.295 276.857 156.853 277.976 157.322C279.332 157.842 280.542 158.682 281.504 159.771C282.201 160.737 282.556 161.908 282.512 163.099Z" fill="white"/>
<path d="M303.918 159.214C303.918 163.668 302.501 166.67 299.667 168.221L304.48 173.745H297.851L294.388 169.378C291.299 169.378 288.941 168.518 287.28 166.793C285.62 165.068 284.812 162.548 284.812 159.24C284.812 155.932 285.633 153.47 287.267 151.745C288.902 150.02 291.28 149.16 294.375 149.16C297.47 149.16 299.873 150.013 301.482 151.745C303.091 153.476 303.918 155.899 303.918 159.214ZM290.395 159.214C290.395 163.013 291.717 164.913 294.362 164.913C294.94 164.959 295.52 164.856 296.048 164.614C296.575 164.372 297.031 163.999 297.373 163.53C298.023 162.604 298.348 161.165 298.348 159.214C298.348 157.263 298.01 155.822 297.334 154.891C297.002 154.427 296.558 154.055 296.042 153.809C295.527 153.564 294.957 153.454 294.388 153.489C291.726 153.472 290.395 155.38 290.395 159.214Z" fill="white"/>
<path d="M307.466 169.067V149.412H312.771V164.777H320.343V169.067H307.466Z" fill="white"/>
</svg>
