<svg width="376" height="414" viewBox="0 0 376 414" fill="none" xmlns="http://www.w3.org/2000/svg">
<path d="M81.3247 48.9669C81.3247 48.9669 26.141 88.4 20.5402 160.046C14.9393 231.692 56.59 297.995 88.9163 352.601C121.243 407.207 178.726 427.362 228.082 403.246C277.438 379.13 263.286 330.373 299.873 274.384C336.459 218.396 354.685 209.03 354.85 142.109C355.015 75.1869 286.319 16.4756 206.277 15.0831C126.235 13.6907 81.3247 48.9669 81.3247 48.9669Z" fill="#2AB6C5"/>
<path opacity="0.7" d="M81.3247 48.9669C81.3247 48.9669 26.141 88.4 20.5402 160.046C14.9393 231.692 56.59 297.995 88.9163 352.601C121.243 407.207 178.726 427.362 228.082 403.246C277.438 379.13 263.286 330.373 299.873 274.384C336.459 218.396 354.685 209.03 354.85 142.109C355.015 75.1869 286.319 16.4756 206.277 15.0831C126.235 13.6907 81.3247 48.9669 81.3247 48.9669Z" fill="white"/>
<path d="M153.723 51.3984H170.855" stroke="#263238" stroke-width="2" stroke-miterlimit="10"/>
<path d="M161.758 48.1818L159.076 56.217C159.076 56.217 78.7558 64.7885 71.7934 52.9988C64.8309 41.2091 76.6206 36.9388 104.46 41.2194C132.299 45.5 161.758 48.1818 161.758 48.1818Z" fill="white" stroke="#263238" stroke-miterlimit="10"/>
<path d="M222.986 51.3984H205.854" stroke="#263238" stroke-width="2" stroke-miterlimit="10"/>
<path d="M214.951 48.1818L217.633 56.217C217.633 56.217 297.953 64.7885 304.905 52.9988C311.857 41.2091 300.14 36.9388 272.29 41.2194C244.44 45.5 214.951 48.1818 214.951 48.1818Z" fill="white" stroke="#263238" stroke-miterlimit="10"/>
<path d="M178.426 67.1394C178.426 67.1394 175.404 84.4371 180.84 86.0669C186.276 87.6966 199.241 87.3356 202.851 82.5083C206.462 77.681 204.038 72.8538 200.035 65.5922C196.033 58.3307 185.523 57.8974 178.426 67.1394Z" fill="white" stroke="#263238" stroke-miterlimit="10"/>
<path d="M185.894 0V54.2244H190.773V2.44459" fill="white"/>
<path d="M185.894 0V54.2244H190.773V2.44459" stroke="#263238" stroke-miterlimit="10"/>
<path d="M173.733 57.5464C183.499 60.6408 193.983 60.6408 203.749 57.5464H211.434V50.584C211.434 45.4267 201.274 41.3008 188.741 41.3008C176.209 41.3008 166.049 45.4267 166.049 50.584V57.5464H173.733Z" fill="white" stroke="#263238" stroke-miterlimit="10"/>
<path d="M188.741 66.8282C201.274 66.8282 211.434 62.6719 211.434 57.5449C211.434 52.418 201.274 48.2617 188.741 48.2617C176.209 48.2617 166.049 52.418 166.049 57.5449C166.049 62.6719 176.209 66.8282 188.741 66.8282Z" fill="white" stroke="#263238" stroke-miterlimit="10"/>
<path d="M188.741 66.8282C201.274 66.8282 211.434 62.6719 211.434 57.5449C211.434 52.418 201.274 48.2617 188.741 48.2617C176.209 48.2617 166.049 52.418 166.049 57.5449C166.049 62.6719 176.209 66.8282 188.741 66.8282Z" fill="white" stroke="#263238" stroke-miterlimit="10"/>
<path d="M269.382 242.293H254.725V283.284H269.382V242.293Z" fill="#C4C4C4"/>
<path d="M265.721 245.654H258.397V270.018H265.721V245.654Z" fill="#B8B8B8"/>
<path d="M262.059 279.716C263.261 279.716 264.236 278.742 264.236 277.54C264.236 276.338 263.261 275.363 262.059 275.363C260.857 275.363 259.883 276.338 259.883 277.54C259.883 278.742 260.857 279.716 262.059 279.716Z" fill="#B8B8B8"/>
<path d="M290.311 242.293H275.654V283.284H290.311V242.293Z" fill="#B8B8B8"/>
<path d="M286.639 245.654H279.315V270.018H286.639V245.654Z" fill="#C4C4C4"/>
<path d="M282.988 279.716C284.19 279.716 285.164 278.742 285.164 277.54C285.164 276.338 284.19 275.363 282.988 275.363C281.786 275.363 280.812 276.338 280.812 277.54C280.812 278.742 281.786 279.716 282.988 279.716Z" fill="#C4C4C4"/>
<path d="M311.239 242.293H296.582V283.284H311.239V242.293Z" fill="#B8B8B8"/>
<path d="M307.568 245.654H300.244V270.018H307.568V245.654Z" fill="#C4C4C4"/>
<path d="M306.093 277.507C306.093 277.074 305.964 276.651 305.723 276.291C305.483 275.931 305.141 275.651 304.74 275.486C304.34 275.321 303.9 275.278 303.476 275.363C303.051 275.448 302.661 275.658 302.356 275.964C302.051 276.271 301.843 276.662 301.76 277.087C301.677 277.512 301.722 277.952 301.889 278.351C302.056 278.75 302.338 279.091 302.699 279.33C303.06 279.569 303.483 279.696 303.916 279.694C304.494 279.691 305.048 279.459 305.456 279.05C305.864 278.64 306.093 278.085 306.093 277.507Z" fill="#C4C4C4"/>
<path d="M332.168 242.293H317.511V283.284H332.168V242.293Z" fill="#C4C4C4"/>
<path d="M328.496 245.654H321.173V270.018H328.496V245.654Z" fill="#B8B8B8"/>
<path d="M327.021 277.507C327.021 277.075 326.893 276.652 326.652 276.292C326.412 275.933 326.071 275.652 325.671 275.487C325.271 275.321 324.832 275.278 324.408 275.362C323.983 275.447 323.594 275.655 323.288 275.961C322.982 276.267 322.774 276.656 322.689 277.08C322.605 277.505 322.648 277.944 322.814 278.344C322.979 278.743 323.26 279.085 323.619 279.325C323.979 279.565 324.402 279.694 324.834 279.694C325.414 279.694 325.97 279.463 326.38 279.053C326.79 278.643 327.021 278.087 327.021 277.507Z" fill="#B8B8B8"/>
<path d="M355.995 137.838V134.867H350.446V123.82H346.093V134.867H248.661V123.82H244.308V134.867H236.974V137.838H244.308V184.172H236.974V187.142H244.308V233.486H236.974V236.457H244.308V282.79H236.974V285.761H244.308V336.489H248.661V285.761H346.093V336.489H350.446V285.761H355.995V282.79H350.446V236.457H355.995V233.486H350.446V187.142H355.995V184.172H350.446V137.838H355.995ZM346.093 282.79H248.661V236.457H346.093V282.79ZM346.093 233.486H248.661V187.142H346.093V233.486ZM346.093 184.172H248.661V137.838H346.093V184.172Z" fill="#C4C4C4"/>
<path d="M319.327 143.18H304.669V184.17H319.327V143.18Z" fill="#B8B8B8"/>
<path d="M315.654 146.541H308.331V170.904H315.654V146.541Z" fill="#B8B8B8"/>
<path d="M314.18 178.425C314.18 177.992 314.051 177.569 313.81 177.209C313.57 176.849 313.227 176.569 312.827 176.404C312.427 176.239 311.987 176.196 311.562 176.281C311.138 176.366 310.748 176.576 310.443 176.882C310.138 177.189 309.93 177.58 309.847 178.005C309.764 178.43 309.809 178.87 309.976 179.269C310.143 179.668 310.425 180.009 310.786 180.248C311.146 180.487 311.57 180.614 312.003 180.612C312.581 180.609 313.135 180.377 313.543 179.968C313.951 179.558 314.18 179.003 314.18 178.425Z" fill="#B8B8B8"/>
<path d="M302.132 143.18H287.475V184.17H302.132V143.18Z" fill="#B8B8B8"/>
<path d="M298.47 146.541H291.147V170.904H298.47V146.541Z" fill="#B8B8B8"/>
<path d="M294.808 180.603C296.01 180.603 296.985 179.628 296.985 178.426C296.985 177.224 296.01 176.25 294.808 176.25C293.606 176.25 292.632 177.224 292.632 178.426C292.632 179.628 293.606 180.603 294.808 180.603Z" fill="#B8B8B8"/>
<path d="M284.947 143.18H270.29V184.17H284.947V143.18Z" fill="#C4C4C4"/>
<path d="M281.276 146.541H273.952V170.904H281.276V146.541Z" fill="#B8B8B8"/>
<path d="M277.613 180.603C278.815 180.603 279.79 179.628 279.79 178.426C279.79 177.224 278.815 176.25 277.613 176.25C276.411 176.25 275.437 177.224 275.437 178.426C275.437 179.628 276.411 180.603 277.613 180.603Z" fill="#B8B8B8"/>
<path d="M339.522 143.18H324.865V184.17H339.522V143.18Z" fill="#B8B8B8"/>
<path d="M335.861 146.541H328.538V170.904H335.861V146.541Z" fill="#B8B8B8"/>
<path d="M332.199 180.603C333.401 180.603 334.376 179.628 334.376 178.426C334.376 177.224 333.401 176.25 332.199 176.25C330.997 176.25 330.023 177.224 330.023 178.426C330.023 179.628 330.997 180.603 332.199 180.603Z" fill="#B8B8B8"/>
<path d="M266.639 143.18H251.982V184.17H266.639V143.18Z" fill="#C4C4C4"/>
<path d="M262.967 146.541H255.643V170.904H262.967V146.541Z" fill="#B8B8B8"/>
<path d="M259.305 180.603C260.507 180.603 261.481 179.628 261.481 178.426C261.481 177.224 260.507 176.25 259.305 176.25C258.103 176.25 257.128 177.224 257.128 178.426C257.128 179.628 258.103 180.603 259.305 180.603Z" fill="#B8B8B8"/>
<path d="M325.711 122.137H281.657C283.131 123.856 283.914 126.062 283.854 128.326C283.91 130.589 283.127 132.793 281.657 134.514H325.711C327.352 134.514 328.926 133.862 330.087 132.702C331.248 131.541 331.9 129.967 331.9 128.326C331.9 126.684 331.248 125.11 330.087 123.949C328.926 122.789 327.352 122.137 325.711 122.137Z" fill="#D4D4D4" stroke="white" stroke-miterlimit="10"/>
<path d="M327.444 122.385V134.133C328.714 133.753 329.828 132.976 330.622 131.916C331.417 130.856 331.851 129.568 331.859 128.244C331.844 126.924 331.408 125.644 330.613 124.59C329.819 123.536 328.709 122.763 327.444 122.385Z" fill="#9C9C9C" stroke="white" stroke-miterlimit="10"/>
<path d="M325.711 109.066H281.657C283.127 110.788 283.91 112.992 283.854 115.255C283.91 117.519 283.127 119.723 281.657 121.444H325.711C327.352 121.444 328.926 120.792 330.087 119.631C331.248 118.471 331.9 116.897 331.9 115.255C331.9 113.614 331.248 112.04 330.087 110.879C328.926 109.718 327.352 109.066 325.711 109.066Z" fill="#D4D4D4" stroke="white" stroke-miterlimit="10"/>
<path d="M327.444 109.316V121.116C328.715 120.736 329.831 119.957 330.625 118.895C331.42 117.833 331.853 116.543 331.859 115.216C331.853 113.89 331.42 112.6 330.625 111.538C329.831 110.475 328.715 109.697 327.444 109.316Z" fill="#9C9C9C" stroke="white" stroke-miterlimit="10"/>
<path d="M281.079 92.2969H266.422V133.287H281.079V92.2969Z" fill="#C4C4C4"/>
<path d="M277.407 95.6602H270.084V120.023H277.407V95.6602Z" fill="#C4C4C4"/>
<path d="M275.922 127.544C275.922 127.113 275.794 126.692 275.555 126.334C275.316 125.977 274.976 125.698 274.578 125.533C274.18 125.368 273.743 125.325 273.321 125.409C272.898 125.493 272.511 125.7 272.206 126.005C271.902 126.309 271.695 126.697 271.611 127.119C271.527 127.541 271.57 127.979 271.735 128.376C271.899 128.774 272.178 129.114 272.536 129.353C272.894 129.592 273.315 129.72 273.745 129.72C274.031 129.721 274.315 129.666 274.58 129.557C274.844 129.448 275.085 129.288 275.287 129.086C275.49 128.883 275.65 128.643 275.759 128.378C275.868 128.113 275.923 127.83 275.922 127.544Z" fill="#C4C4C4"/>
<path d="M339.522 192.09H324.865V233.08H339.522V192.09Z" fill="#C4C4C4"/>
<path d="M335.861 195.463H328.538V219.826H335.861V195.463Z" fill="#B8B8B8"/>
<path d="M334.376 227.346C334.376 226.916 334.248 226.495 334.009 226.137C333.77 225.779 333.43 225.5 333.032 225.336C332.635 225.171 332.197 225.128 331.775 225.212C331.353 225.296 330.965 225.503 330.66 225.807C330.356 226.112 330.149 226.5 330.065 226.922C329.981 227.344 330.024 227.782 330.189 228.179C330.353 228.577 330.632 228.917 330.99 229.156C331.348 229.395 331.769 229.523 332.199 229.523C332.776 229.52 333.328 229.29 333.735 228.882C334.143 228.475 334.373 227.923 334.376 227.346Z" fill="#B8B8B8"/>
<path d="M322.534 192.09H307.877V233.08H322.534V192.09Z" fill="#C4C4C4"/>
<path d="M318.862 195.463H311.539V219.826H318.862V195.463Z" fill="#B8B8B8"/>
<path d="M317.377 227.346C317.377 226.916 317.25 226.495 317.01 226.137C316.771 225.779 316.431 225.5 316.034 225.336C315.636 225.171 315.198 225.128 314.776 225.212C314.354 225.296 313.966 225.503 313.662 225.807C313.357 226.112 313.15 226.5 313.066 226.922C312.982 227.344 313.025 227.782 313.19 228.179C313.355 228.577 313.634 228.917 313.992 229.156C314.35 229.395 314.77 229.523 315.201 229.523C315.487 229.523 315.77 229.466 316.034 229.357C316.298 229.248 316.538 229.087 316.74 228.885C316.942 228.683 317.102 228.443 317.212 228.179C317.321 227.915 317.377 227.632 317.377 227.346Z" fill="#B8B8B8"/>
<path d="M287.464 192.09H272.807V233.08H287.464V192.09Z" fill="#C4C4C4"/>
<path d="M283.792 195.463H276.469V219.826H283.792V195.463Z" fill="#B8B8B8"/>
<path d="M282.307 227.346C282.307 226.916 282.179 226.495 281.94 226.137C281.701 225.779 281.361 225.5 280.963 225.336C280.566 225.171 280.128 225.128 279.706 225.212C279.284 225.296 278.896 225.503 278.592 225.807C278.287 226.112 278.08 226.5 277.996 226.922C277.912 227.344 277.955 227.782 278.12 228.179C278.284 228.577 278.563 228.917 278.921 229.156C279.279 229.395 279.7 229.523 280.131 229.523C280.416 229.523 280.699 229.466 280.963 229.357C281.227 229.248 281.467 229.087 281.669 228.885C281.872 228.683 282.032 228.443 282.141 228.179C282.251 227.915 282.307 227.632 282.307 227.346Z" fill="#B8B8B8"/>
<path d="M305.536 192.09H290.878V233.08H305.536V192.09Z" fill="#C4C4C4"/>
<path d="M301.863 195.463H294.54V219.826H301.863V195.463Z" fill="#B8B8B8"/>
<path d="M300.378 227.346C300.378 226.916 300.251 226.495 300.011 226.137C299.772 225.779 299.432 225.5 299.035 225.336C298.637 225.171 298.199 225.128 297.777 225.212C297.355 225.296 296.967 225.503 296.663 225.807C296.358 226.112 296.151 226.5 296.067 226.922C295.983 227.344 296.026 227.782 296.191 228.179C296.356 228.577 296.635 228.917 296.993 229.156C297.351 229.395 297.771 229.523 298.202 229.523C298.488 229.523 298.771 229.466 299.035 229.357C299.299 229.248 299.539 229.087 299.741 228.885C299.943 228.683 300.103 228.443 300.213 228.179C300.322 227.915 300.378 227.632 300.378 227.346Z" fill="#B8B8B8"/>
<path d="M151.465 242.293H136.808V283.284H151.465V242.293Z" fill="#C4C4C4"/>
<path d="M147.793 245.654H140.47V270.018H147.793V245.654Z" fill="#C4C4C4"/>
<path d="M144.131 279.716C145.333 279.716 146.308 278.742 146.308 277.54C146.308 276.338 145.333 275.363 144.131 275.363C142.929 275.363 141.955 276.338 141.955 277.54C141.955 278.742 142.929 279.716 144.131 279.716Z" fill="#C4C4C4"/>
<path d="M172.383 242.293H157.726V283.284H172.383V242.293Z" fill="#C4C4C4"/>
<path d="M168.722 245.654H161.398V270.018H168.722V245.654Z" fill="#C4C4C4"/>
<path d="M165.06 279.716C166.262 279.716 167.236 278.742 167.236 277.54C167.236 276.338 166.262 275.363 165.06 275.363C163.858 275.363 162.883 276.338 162.883 277.54C162.883 278.742 163.858 279.716 165.06 279.716Z" fill="#C4C4C4"/>
<path d="M193.311 242.293H178.654V283.284H193.311V242.293Z" fill="#C4C4C4"/>
<path d="M189.65 245.654H182.327V270.018H189.65V245.654Z" fill="#C4C4C4"/>
<path d="M185.988 279.716C187.19 279.716 188.165 278.742 188.165 277.54C188.165 276.338 187.19 275.363 185.988 275.363C184.786 275.363 183.812 276.338 183.812 277.54C183.812 278.742 184.786 279.716 185.988 279.716Z" fill="#C4C4C4"/>
<path d="M214.241 242.293H199.583V283.284H214.241V242.293Z" fill="#C4C4C4"/>
<path d="M210.568 245.654H203.245V270.018H210.568V245.654Z" fill="#C4C4C4"/>
<path d="M209.094 277.507C209.094 277.074 208.965 276.651 208.724 276.291C208.484 275.931 208.142 275.651 207.741 275.486C207.341 275.321 206.901 275.278 206.477 275.363C206.052 275.448 205.662 275.658 205.357 275.964C205.052 276.271 204.844 276.662 204.761 277.087C204.678 277.512 204.723 277.952 204.89 278.351C205.057 278.75 205.339 279.091 205.7 279.33C206.061 279.569 206.484 279.696 206.917 279.694C207.495 279.691 208.049 279.459 208.457 279.05C208.865 278.64 209.094 278.085 209.094 277.507Z" fill="#C4C4C4"/>
<path d="M130.732 123.82H126.379V336.489H130.732V123.82Z" fill="#C4C4C4"/>
<path d="M232.518 123.82H228.165V336.489H232.518V123.82Z" fill="#C4C4C4"/>
<path d="M238.067 134.863H119.046V137.834H238.067V134.863Z" fill="#C4C4C4"/>
<path d="M238.067 184.17H119.046V187.141H238.067V184.17Z" fill="#C4C4C4"/>
<path d="M238.067 233.486H119.046V236.457H238.067V233.486Z" fill="#C4C4C4"/>
<path d="M238.067 282.787H119.046V285.758H238.067V282.787Z" fill="#C4C4C4"/>
<path d="M201.398 143.18H186.741V184.17H201.398V143.18Z" fill="#C4C4C4"/>
<path d="M197.726 146.541H190.403V170.904H197.726V146.541Z" fill="#C4C4C4"/>
<path d="M196.251 178.425C196.251 177.992 196.123 177.569 195.882 177.209C195.641 176.849 195.299 176.569 194.899 176.404C194.499 176.239 194.059 176.196 193.634 176.281C193.21 176.366 192.82 176.576 192.515 176.882C192.209 177.189 192.002 177.58 191.919 178.005C191.835 178.43 191.88 178.87 192.047 179.269C192.214 179.668 192.496 180.009 192.857 180.248C193.218 180.487 193.642 180.614 194.075 180.612C194.653 180.609 195.207 180.377 195.615 179.968C196.022 179.558 196.251 179.003 196.251 178.425Z" fill="#C4C4C4"/>
<path d="M184.214 143.18H169.557V184.17H184.214V143.18Z" fill="#C4C4C4"/>
<path d="M180.542 146.541H173.218V170.904H180.542V146.541Z" fill="#B8B8B8"/>
<path d="M176.881 180.603C178.082 180.603 179.057 179.628 179.057 178.426C179.057 177.224 178.082 176.25 176.881 176.25C175.679 176.25 174.704 177.224 174.704 178.426C174.704 179.628 175.679 180.603 176.881 180.603Z" fill="#B8B8B8"/>
<path d="M167.019 143.18H152.362V184.17H167.019V143.18Z" fill="#C4C4C4"/>
<path d="M163.347 146.541H156.024V170.904H163.347V146.541Z" fill="#B8B8B8"/>
<path d="M159.686 180.603C160.888 180.603 161.862 179.628 161.862 178.426C161.862 177.224 160.888 176.25 159.686 176.25C158.484 176.25 157.509 177.224 157.509 178.426C157.509 179.628 158.484 180.603 159.686 180.603Z" fill="#B8B8B8"/>
<path d="M221.605 143.18H206.948V184.17H221.605V143.18Z" fill="#C4C4C4"/>
<path d="M217.933 146.541H210.609V170.904H217.933V146.541Z" fill="#B8B8B8"/>
<path d="M214.271 180.603C215.473 180.603 216.447 179.628 216.447 178.426C216.447 177.224 215.473 176.25 214.271 176.25C213.069 176.25 212.095 177.224 212.095 178.426C212.095 179.628 213.069 180.603 214.271 180.603Z" fill="#C4C4C4"/>
<path d="M148.711 143.18H134.054V184.17H148.711V143.18Z" fill="#C4C4C4"/>
<path d="M145.039 146.541H137.716V170.904H145.039V146.541Z" fill="#B8B8B8"/>
<path d="M141.377 180.603C142.579 180.603 143.553 179.628 143.553 178.426C143.553 177.224 142.579 176.25 141.377 176.25C140.175 176.25 139.201 177.224 139.201 178.426C139.201 179.628 140.175 180.603 141.377 180.603Z" fill="#B8B8B8"/>
<path d="M148.711 93.6699H134.054V134.661H148.711V93.6699Z" fill="#C4C4C4"/>
<path d="M145.039 97.0312H137.716V121.395H145.039V97.0312Z" fill="#B8B8B8"/>
<path d="M141.377 131.091C142.579 131.091 143.553 130.117 143.553 128.915C143.553 127.713 142.579 126.738 141.377 126.738C140.175 126.738 139.201 127.713 139.201 128.915C139.201 130.117 140.175 131.091 141.377 131.091Z" fill="#B8B8B8"/>
<path d="M164.811 93.6699H150.154V134.661H164.811V93.6699Z" fill="#C4C4C4"/>
<path d="M161.15 97.0312H153.827V121.395H161.15V97.0312Z" fill="#B8B8B8"/>
<path d="M157.488 131.091C158.69 131.091 159.665 130.117 159.665 128.915C159.665 127.713 158.69 126.738 157.488 126.738C156.286 126.738 155.312 127.713 155.312 128.915C155.312 130.117 156.286 131.091 157.488 131.091Z" fill="#B8B8B8"/>
<path d="M206.401 135.474V120.816H165.41V135.474H206.401Z" fill="#C4C4C4"/>
<path d="M203.038 131.8V124.477H178.685V131.8H203.038Z" fill="#B8B8B8"/>
<path d="M171.207 130.316C171.638 130.316 172.058 130.188 172.416 129.949C172.774 129.71 173.053 129.37 173.218 128.972C173.383 128.574 173.426 128.137 173.342 127.715C173.258 127.293 173.05 126.905 172.746 126.6C172.442 126.296 172.054 126.089 171.632 126.005C171.21 125.921 170.772 125.964 170.374 126.129C169.977 126.293 169.637 126.572 169.398 126.93C169.158 127.288 169.031 127.709 169.031 128.139C169.033 128.716 169.264 129.268 169.671 129.675C170.079 130.083 170.631 130.313 171.207 130.316Z" fill="#B8B8B8"/>
<path d="M221.605 192.09H206.948V233.08H221.605V192.09Z" fill="#C4C4C4"/>
<path d="M217.933 195.463H210.609V219.826H217.933V195.463Z" fill="#C4C4C4"/>
<path d="M216.448 227.346C216.448 226.916 216.32 226.495 216.081 226.137C215.842 225.779 215.502 225.5 215.104 225.336C214.706 225.171 214.269 225.128 213.847 225.212C213.424 225.296 213.037 225.503 212.732 225.807C212.428 226.112 212.221 226.5 212.137 226.922C212.053 227.344 212.096 227.782 212.26 228.179C212.425 228.577 212.704 228.917 213.062 229.156C213.42 229.395 213.841 229.523 214.271 229.523C214.557 229.523 214.84 229.466 215.104 229.357C215.368 229.248 215.608 229.087 215.81 228.885C216.012 228.683 216.172 228.443 216.282 228.179C216.391 227.915 216.448 227.632 216.448 227.346Z" fill="#C4C4C4"/>
<path d="M204.606 192.09H189.949V233.08H204.606V192.09Z" fill="#C4C4C4"/>
<path d="M200.934 195.463H193.611V219.826H200.934V195.463Z" fill="#C4C4C4"/>
<path d="M199.449 227.346C199.449 226.916 199.321 226.495 199.082 226.137C198.843 225.779 198.503 225.5 198.105 225.336C197.708 225.171 197.27 225.128 196.848 225.212C196.426 225.296 196.038 225.503 195.734 225.807C195.429 226.112 195.222 226.5 195.138 226.922C195.054 227.344 195.097 227.782 195.262 228.179C195.427 228.577 195.706 228.917 196.063 229.156C196.421 229.395 196.842 229.523 197.273 229.523C197.558 229.523 197.841 229.466 198.105 229.357C198.37 229.248 198.609 229.087 198.812 228.885C199.014 228.683 199.174 228.443 199.283 228.179C199.393 227.915 199.449 227.632 199.449 227.346Z" fill="#C4C4C4"/>
<path d="M169.536 192.09H154.879V233.08H169.536V192.09Z" fill="#C4C4C4"/>
<path d="M165.864 195.463H158.541V219.826H165.864V195.463Z" fill="#C4C4C4"/>
<path d="M164.379 227.346C164.379 226.916 164.251 226.495 164.012 226.137C163.773 225.779 163.433 225.5 163.035 225.336C162.637 225.171 162.2 225.128 161.778 225.212C161.355 225.296 160.968 225.503 160.663 225.807C160.359 226.112 160.152 226.5 160.068 226.922C159.984 227.344 160.027 227.782 160.192 228.179C160.356 228.577 160.635 228.917 160.993 229.156C161.351 229.395 161.772 229.523 162.202 229.523C162.488 229.523 162.771 229.466 163.035 229.357C163.299 229.248 163.539 229.087 163.741 228.885C163.943 228.683 164.104 228.443 164.213 228.179C164.322 227.915 164.379 227.632 164.379 227.346Z" fill="#C4C4C4"/>
<path d="M187.607 192.09H172.95V233.08H187.607V192.09Z" fill="#C4C4C4"/>
<path d="M183.936 195.463H176.612V219.826H183.936V195.463Z" fill="#C4C4C4"/>
<path d="M182.45 227.346C182.45 226.916 182.323 226.495 182.084 226.137C181.845 225.779 181.505 225.5 181.107 225.336C180.709 225.171 180.272 225.128 179.849 225.212C179.427 225.296 179.039 225.503 178.735 225.807C178.431 226.112 178.223 226.5 178.139 226.922C178.056 227.344 178.099 227.782 178.263 228.179C178.428 228.577 178.707 228.917 179.065 229.156C179.423 229.395 179.844 229.523 180.274 229.523C180.56 229.523 180.843 229.466 181.107 229.357C181.371 229.248 181.611 229.087 181.813 228.885C182.015 228.683 182.175 228.443 182.285 228.179C182.394 227.915 182.45 227.632 182.45 227.346Z" fill="#C4C4C4"/>
<path d="M32.6914 242.293H18.0342V283.284H32.6914V242.293Z" fill="#C4C4C4"/>
<path d="M29.0187 245.654H21.6953V270.018H29.0187V245.654Z" fill="#B8B8B8"/>
<path d="M25.3678 279.716C26.5698 279.716 27.5442 278.742 27.5442 277.54C27.5442 276.338 26.5698 275.363 25.3678 275.363C24.1658 275.363 23.1914 276.338 23.1914 277.54C23.1914 278.742 24.1658 279.716 25.3678 279.716Z" fill="#B8B8B8"/>
<path d="M53.6196 242.293H38.9624V283.284H53.6196V242.293Z" fill="#C4C4C4"/>
<path d="M49.9475 245.654H42.624V270.018H49.9475V245.654Z" fill="#B8B8B8"/>
<path d="M46.296 279.716C47.498 279.716 48.4724 278.742 48.4724 277.54C48.4724 276.338 47.498 275.363 46.296 275.363C45.094 275.363 44.1196 276.338 44.1196 277.54C44.1196 278.742 45.094 279.716 46.296 279.716Z" fill="#B8B8B8"/>
<path d="M74.5478 242.293H59.8906V283.284H74.5478V242.293Z" fill="#B8B8B8"/>
<path d="M70.8762 245.654H63.5527V270.018H70.8762V245.654Z" fill="#C4C4C4"/>
<path d="M67.214 279.716C68.416 279.716 69.3904 278.742 69.3904 277.54C69.3904 276.338 68.416 275.363 67.214 275.363C66.012 275.363 65.0376 276.338 65.0376 277.54C65.0376 278.742 66.012 279.716 67.214 279.716Z" fill="#C4C4C4"/>
<path d="M95.477 242.293H80.8198V283.284H95.477V242.293Z" fill="#C4C4C4"/>
<path d="M91.8044 245.654H84.481V270.018H91.8044V245.654Z" fill="#B8B8B8"/>
<path d="M88.1432 279.716C89.3452 279.716 90.3196 278.742 90.3196 277.54C90.3196 276.338 89.3452 275.363 88.1432 275.363C86.9412 275.363 85.9668 276.338 85.9668 277.54C85.9668 278.742 86.9412 279.716 88.1432 279.716Z" fill="#B8B8B8"/>
<path d="M11.9583 123.82H7.60547V336.489H11.9583V123.82Z" fill="#C4C4C4"/>
<path d="M113.755 123.82H109.402V336.489H113.755V123.82Z" fill="#C4C4C4"/>
<path d="M119.304 134.863H0.282227V137.834H119.304V134.863Z" fill="#C4C4C4"/>
<path d="M119.304 184.17H0.282227V187.141H119.304V184.17Z" fill="#C4C4C4"/>
<path d="M119.304 233.486H0.282227V236.457H119.304V233.486Z" fill="#C4C4C4"/>
<path d="M119.304 282.787H0.282227V285.758H119.304V282.787Z" fill="#C4C4C4"/>
<path d="M82.6347 143.18H67.9775V184.17H82.6347V143.18Z" fill="#B8B8B8"/>
<path d="M78.9631 146.541H71.6396V170.904H78.9631V146.541Z" fill="#C4C4C4"/>
<path d="M77.4877 178.425C77.4877 177.993 77.3594 177.57 77.1192 177.21C76.8789 176.851 76.5374 176.57 76.1378 176.405C75.7382 176.239 75.2986 176.196 74.8744 176.28C74.4502 176.365 74.0606 176.573 73.7547 176.879C73.4489 177.185 73.2407 177.574 73.1563 177.998C73.0719 178.423 73.1152 178.862 73.2807 179.262C73.4462 179.661 73.7265 180.003 74.0861 180.243C74.4457 180.483 74.8685 180.612 75.301 180.612C75.8809 180.612 76.4371 180.381 76.8472 179.971C77.2573 179.561 77.4877 179.005 77.4877 178.425Z" fill="#C4C4C4"/>
<path d="M65.4404 143.18H50.7832V184.17H65.4404V143.18Z" fill="#C4C4C4"/>
<path d="M61.7678 146.541H54.4443V170.904H61.7678V146.541Z" fill="#B8B8B8"/>
<path d="M58.1168 180.603C59.3188 180.603 60.2932 179.628 60.2932 178.426C60.2932 177.224 59.3188 176.25 58.1168 176.25C56.9148 176.25 55.9404 177.224 55.9404 178.426C55.9404 179.628 56.9148 180.603 58.1168 180.603Z" fill="#B8B8B8"/>
<path d="M48.2558 143.18H33.5986V184.17H48.2558V143.18Z" fill="#C4C4C4"/>
<path d="M44.5842 146.541H37.2607V170.904H44.5842V146.541Z" fill="#B8B8B8"/>
<path d="M40.922 180.603C42.124 180.603 43.0984 179.628 43.0984 178.426C43.0984 177.224 42.124 176.25 40.922 176.25C39.72 176.25 38.7456 177.224 38.7456 178.426C38.7456 179.628 39.72 180.603 40.922 180.603Z" fill="#B8B8B8"/>
<path d="M102.831 143.18H88.1738V184.17H102.831V143.18Z" fill="#C4C4C4"/>
<path d="M99.1589 146.541H91.8354V170.904H99.1589V146.541Z" fill="#B8B8B8"/>
<path d="M95.5075 180.603C96.7095 180.603 97.6839 179.628 97.6839 178.426C97.6839 177.224 96.7095 176.25 95.5075 176.25C94.3055 176.25 93.3311 177.224 93.3311 178.426C93.3311 179.628 94.3055 180.603 95.5075 180.603Z" fill="#B8B8B8"/>
<path d="M61.2837 120.538V135.195H102.274V120.538H61.2837Z" fill="#C4C4C4"/>
<path d="M64.6567 124.2V131.523H89.0201V124.2H64.6567Z" fill="#B8B8B8"/>
<path d="M96.5388 125.684C96.1059 125.682 95.6821 125.808 95.3212 126.047C94.9602 126.286 94.6783 126.627 94.5112 127.026C94.3441 127.426 94.2994 127.866 94.3826 128.291C94.4658 128.715 94.6732 129.106 94.9786 129.413C95.284 129.72 95.6737 129.929 96.0981 130.014C96.5226 130.099 96.9628 130.057 97.3629 129.892C97.7631 129.726 98.1052 129.446 98.346 129.086C98.5867 128.726 98.7152 128.303 98.7152 127.87C98.7152 127.292 98.4863 126.738 98.0784 126.328C97.6705 125.918 97.117 125.686 96.5388 125.684Z" fill="#B8B8B8"/>
<path d="M59.7573 106.14V120.797H100.748V106.14H59.7573Z" fill="#C4C4C4"/>
<path d="M63.1191 109.8V117.123H87.4825V109.8H63.1191Z" fill="#B8B8B8"/>
<path d="M95.0021 111.287C94.5716 111.287 94.1509 111.415 93.793 111.654C93.435 111.893 93.1561 112.233 92.9914 112.631C92.8266 113.028 92.7835 113.466 92.8675 113.888C92.9515 114.31 93.1588 114.698 93.4631 115.002C93.7675 115.307 94.1553 115.514 94.5775 115.598C94.9997 115.682 95.4373 115.639 95.835 115.474C96.2326 115.31 96.5726 115.031 96.8117 114.673C97.0509 114.315 97.1785 113.894 97.1785 113.464C97.1799 113.177 97.1245 112.894 97.0156 112.629C96.9067 112.364 96.7465 112.124 96.5441 111.922C96.3417 111.719 96.1013 111.559 95.8366 111.45C95.5719 111.341 95.2883 111.286 95.0021 111.287Z" fill="#B8B8B8"/>
<path d="M29.9472 143.18H15.29V184.17H29.9472V143.18Z" fill="#C4C4C4"/>
<path d="M26.2756 146.541H18.9521V170.904H26.2756V146.541Z" fill="#B8B8B8"/>
<path d="M22.6139 180.603C23.8159 180.603 24.7903 179.628 24.7903 178.426C24.7903 177.224 23.8159 176.25 22.6139 176.25C21.4119 176.25 20.4375 177.224 20.4375 178.426C20.4375 179.628 21.4119 180.603 22.6139 180.603Z" fill="#B8B8B8"/>
<path d="M102.831 192.09H88.1738V233.08H102.831V192.09Z" fill="#C4C4C4"/>
<path d="M99.1589 195.463H91.8354V219.826H99.1589V195.463Z" fill="#B8B8B8"/>
<path d="M97.684 227.347C97.686 226.914 97.5592 226.49 97.3197 226.129C97.0802 225.767 96.7388 225.486 96.3388 225.319C95.9388 225.152 95.4983 225.108 95.0732 225.192C94.648 225.276 94.2575 225.484 93.951 225.791C93.6446 226.097 93.4361 226.488 93.3521 226.913C93.268 227.338 93.3122 227.779 93.479 228.179C93.6458 228.579 93.9276 228.92 94.2888 229.16C94.65 229.399 95.0742 229.526 95.5076 229.524C96.0839 229.521 96.6359 229.291 97.0435 228.883C97.4511 228.476 97.6812 227.924 97.684 227.347Z" fill="#B8B8B8"/>
<path d="M85.8325 192.09H71.1753V233.08H85.8325V192.09Z" fill="#B8B8B8"/>
<path d="M82.1706 195.463H74.8472V219.826H82.1706V195.463Z" fill="#C4C4C4"/>
<path d="M80.6853 227.346C80.6853 226.916 80.5577 226.495 80.3185 226.137C80.0794 225.779 79.7395 225.5 79.3418 225.336C78.9441 225.171 78.5065 225.128 78.0843 225.212C77.6621 225.296 77.2743 225.503 76.97 225.807C76.6656 226.112 76.4583 226.5 76.3743 226.922C76.2904 227.344 76.3335 227.782 76.4982 228.179C76.6629 228.577 76.9419 228.917 77.2998 229.156C77.6577 229.395 78.0785 229.523 78.5089 229.523C79.0853 229.52 79.6373 229.29 80.0449 228.882C80.4524 228.475 80.6826 227.923 80.6853 227.346Z" fill="#C4C4C4"/>
<path d="M33.4238 192.09H18.7666V233.08H33.4238V192.09Z" fill="#B8B8B8"/>
<path d="M29.7619 195.463H22.4385V219.826H29.7619V195.463Z" fill="#C4C4C4"/>
<path d="M28.2761 227.346C28.2761 226.916 28.1485 226.495 27.9094 226.137C27.6702 225.779 27.3303 225.5 26.9326 225.336C26.5349 225.171 26.0973 225.128 25.6751 225.212C25.253 225.296 24.8652 225.503 24.5608 225.807C24.2564 226.112 24.0491 226.5 23.9652 226.922C23.8812 227.344 23.9243 227.782 24.089 228.179C24.2537 228.577 24.5327 228.917 24.8906 229.156C25.2485 229.395 25.6693 229.523 26.0997 229.523C26.6761 229.52 27.2281 229.29 27.6357 228.882C28.0433 228.475 28.2734 227.923 28.2761 227.346Z" fill="#C4C4C4"/>
<path d="M50.7622 192.09H36.105V233.08H50.7622V192.09Z" fill="#B8B8B8"/>
<path d="M47.1008 195.463H39.7773V219.826H47.1008V195.463Z" fill="#C4C4C4"/>
<path d="M45.6155 227.346C45.6155 226.916 45.4879 226.495 45.2487 226.137C45.0096 225.779 44.6697 225.5 44.272 225.336C43.8743 225.171 43.4367 225.128 43.0145 225.212C42.5923 225.296 42.2045 225.503 41.9002 225.807C41.5958 226.112 41.3885 226.5 41.3045 226.922C41.2205 227.344 41.2636 227.782 41.4284 228.179C41.5931 228.577 41.8721 228.917 42.23 229.156C42.5879 229.395 43.0086 229.523 43.4391 229.523C44.0155 229.52 44.5675 229.29 44.9751 228.882C45.3826 228.475 45.6128 227.923 45.6155 227.346Z" fill="#C4C4C4"/>
<path d="M68.8339 192.09H54.1768V233.08H68.8339V192.09Z" fill="#B8B8B8"/>
<path d="M65.1726 195.463H57.8491V219.826H65.1726V195.463Z" fill="#C4C4C4"/>
<path d="M63.6868 227.346C63.6868 226.916 63.5591 226.495 63.32 226.137C63.0809 225.779 62.7409 225.5 62.3433 225.336C61.9456 225.171 61.508 225.128 61.0858 225.212C60.6636 225.296 60.2758 225.503 59.9714 225.807C59.6671 226.112 59.4598 226.5 59.3758 226.922C59.2918 227.344 59.3349 227.782 59.4997 228.179C59.6644 228.577 59.9433 228.917 60.3012 229.156C60.6591 229.395 61.0799 229.523 61.5104 229.523C62.0868 229.52 62.6388 229.29 63.0463 228.882C63.4539 228.475 63.6841 227.923 63.6868 227.346Z" fill="#C4C4C4"/>
<path d="M57.6832 336.901H35.7026L32.4019 300.459H60.9839L57.6832 336.901Z" fill="#2AB6C5" stroke="#263238" stroke-linecap="round" stroke-linejoin="round"/>
<path d="M60.9326 299.137H32.4434C31.6117 299.137 30.9375 299.811 30.9375 300.643V300.787C30.9375 301.619 31.6117 302.293 32.4434 302.293H60.9326C61.7644 302.293 62.4386 301.619 62.4386 300.787V300.643C62.4386 299.811 61.7644 299.137 60.9326 299.137Z" fill="white" stroke="#263238" stroke-linecap="round" stroke-linejoin="round"/>
<path d="M33.7949 248.266C34.2333 247.28 34.8934 246.408 35.7238 245.719" stroke="#263238" stroke-linecap="round" stroke-linejoin="round"/>
<path d="M41.4072 297.167C41.4072 297.167 47.9055 296.084 52.5058 288.503C57.1062 280.921 50.6182 277.156 40.056 268.193C33.4855 262.633 32.0518 256.331 32.7532 251.689" stroke="#263238" stroke-linecap="round" stroke-linejoin="round"/>
<path d="M55.239 295.929C57.6476 294.429 59.3842 292.057 60.0869 289.307C61.4485 284.15 59.5506 278.209 51.9693 273.34C44.3879 268.472 40.324 267.151 36.8066 262.51" stroke="#263238" stroke-linecap="round" stroke-linejoin="round"/>
<path d="M49.8032 297.973C50.9997 297.787 52.1656 297.44 53.269 296.941" stroke="#263238" stroke-linecap="round" stroke-linejoin="round"/>
<path d="M144.843 239.406C139.933 233.929 137.932 227.833 139.417 219.468C141.996 205.027 157.839 188.967 157.839 178.869C157.839 168.771 164.905 145.253 186.494 143.861C208.082 142.468 219.037 153.319 223.627 177.084C228.217 200.85 227.99 205.006 233.333 216.095C235.53 220.664 238.016 225.275 238.923 230.319C240.728 240.324 229.867 245.213 222.183 247.967C200.604 255.682 173.6 260.778 153.28 246.802C150.183 244.682 147.35 242.199 144.843 239.406Z" fill="#263238" stroke="#263238" stroke-linecap="round" stroke-linejoin="round"/>
<path d="M223.028 195.455C224.205 195.999 225.435 196.417 226.7 196.703" stroke="white" stroke-miterlimit="10" stroke-linecap="round"/>
<path d="M193.425 162.654C193.425 162.654 201.934 182.768 211.991 189.349C214.25 190.824 216.231 192 217.943 192.949" stroke="white" stroke-miterlimit="10" stroke-linecap="round"/>
<path d="M180.294 168.855C175.405 177.303 166.09 190.692 153.568 196.313" stroke="white" stroke-miterlimit="10" stroke-linecap="round"/>
<path d="M184.131 161.488C184.131 161.488 183.533 162.85 182.388 165.047" stroke="white" stroke-miterlimit="10" stroke-linecap="round"/>
<path d="M161.305 196.705C161.305 196.705 145.42 212.528 147.38 231.094" stroke="white" stroke-miterlimit="10" stroke-linecap="round"/>
<path d="M165.565 200.148C165.565 200.148 158.211 220.272 160.531 233.042" stroke="white" stroke-miterlimit="10" stroke-linecap="round"/>
<path d="M172.496 220.26C172.496 220.26 135.859 230.152 133.084 231.142C130.309 232.132 130.712 238.475 130.712 239.858C130.712 241.24 122.594 282.829 122.594 282.829C119.996 284.467 117.542 286.323 115.26 288.378C112.093 291.349 113.28 295.309 113.28 296.3C113.28 297.29 113.476 297.682 112.485 298.672C111.495 299.662 109.319 297.888 109.721 304.025C110.123 310.163 107.937 324.655 113.476 325.408C119.015 326.161 121.8 325.614 129.917 322.839C134.697 321.247 138.718 317.94 141.202 313.556V336.929H240.615C240.615 336.929 250.713 307.419 251.311 288.017C251.909 268.615 254.478 240.085 250.919 234.742C247.36 229.399 228.536 223.457 211.899 221.477C195.261 219.496 175.467 219.465 172.496 220.26Z" fill="#2AB6C5"/>
<mask id="mask0_952_6237" style="mask-type:luminance" maskUnits="userSpaceOnUse" x="109" y="219" width="144" height="118">
<path d="M172.496 220.26C172.496 220.26 135.859 230.152 133.084 231.142C130.309 232.132 130.712 238.475 130.712 239.858C130.712 241.24 122.594 282.829 122.594 282.829C119.996 284.467 117.542 286.323 115.26 288.378C112.093 291.349 113.28 295.309 113.28 296.3C113.28 297.29 113.476 297.682 112.485 298.672C111.495 299.662 109.319 297.888 109.721 304.025C110.123 310.163 107.937 324.655 113.476 325.408C119.015 326.161 121.8 325.614 129.917 322.839C134.697 321.247 138.718 317.94 141.202 313.556V336.929H240.615C240.615 336.929 250.713 307.419 251.311 288.017C251.909 268.615 254.478 240.085 250.919 234.742C247.36 229.399 228.536 223.457 211.899 221.477C195.261 219.496 175.467 219.465 172.496 220.26Z" fill="white"/>
</mask>
<g mask="url(#mask0_952_6237)">
<g style="mix-blend-mode:multiply" opacity="0.24">
<path d="M247.133 231.502C247.649 232.111 247.866 232.626 247.422 232.833C246.061 233.482 239.665 235.545 238.892 238.258C238.118 240.971 238.438 230.006 236.953 233.214C235.467 236.422 233.456 249.119 225.318 274.721C218.809 295.154 215.281 321.271 217.478 336.898H240.614C240.614 336.898 250.712 307.387 251.311 287.985C251.909 268.583 254.477 240.053 250.919 234.71C249.888 233.394 248.6 232.303 247.133 231.502Z" fill="#BEBEBE"/>
</g>
<path d="M173.879 214.71C172.493 215.645 171.396 216.949 170.712 218.475C169.33 221.239 157.644 242.828 156.653 243.818C155.663 244.808 161.996 244.612 164.575 243.426C167.154 242.24 171.899 242.24 171.899 242.24L176.458 245.798L190.517 251.348C190.517 251.348 196.85 246.789 200.016 244.22C203.183 241.652 204.576 240.651 204.576 240.651C207.325 241.582 209.978 242.777 212.497 244.22C215.664 246.201 214.478 247.191 215.664 246.201C216.85 245.21 216.262 243.23 214.632 240.455C213.003 237.681 208.103 222.436 201.956 216.732C195.808 211.028 181.202 209.161 173.879 214.71Z" fill="#2AB6C5" stroke="#263238" stroke-linecap="round" stroke-linejoin="round"/>
<path d="M202.595 264.023L229.929 264.219L229.33 271.945L215.272 279.073L202.595 272.141V264.023Z" fill="#2AB6C5" stroke="#263238" stroke-linecap="round" stroke-linejoin="round"/>
<path d="M141.202 261.641L168.536 261.837L167.937 269.562L153.878 276.69L141.202 269.758V261.641Z" fill="#2AB6C5" stroke="#263238" stroke-linecap="round" stroke-linejoin="round"/>
<g style="mix-blend-mode:multiply" opacity="0.24">
<path d="M141.532 320.879C141.532 320.879 139.984 262.312 141.15 255.711C142.316 249.109 134.167 229.336 134.549 239.816C134.93 250.296 137.643 266.087 137.87 270.017C138.097 273.947 128.731 272.008 129.505 277.052C130.278 282.096 135.693 282.086 137.272 289.853C138.85 297.619 125.626 297.217 125.626 301.487C125.626 305.758 130.289 311.565 126.41 315.062C122.532 318.558 120.345 313.875 120.345 313.875C121.725 317.554 121.991 321.558 121.108 325.387C124.111 324.769 127.066 323.934 129.948 322.89C134.728 321.298 138.748 317.991 141.232 313.607V322.024L141.532 320.879Z" fill="#BEBEBE"/>
</g>
</g>
<path d="M172.496 220.26C172.496 220.26 135.859 230.152 133.084 231.142C130.309 232.132 130.712 238.475 130.712 239.858C130.712 241.24 122.594 282.829 122.594 282.829C119.996 284.467 117.542 286.323 115.26 288.378C112.093 291.349 113.28 295.309 113.28 296.3C113.28 297.29 113.476 297.682 112.485 298.672C111.495 299.662 109.319 297.888 109.721 304.025C110.123 310.163 107.937 324.655 113.476 325.408C119.015 326.161 121.8 325.614 129.917 322.839C134.697 321.247 138.718 317.94 141.202 313.556V336.929H240.615C240.615 336.929 250.713 307.419 251.311 288.017C251.909 268.615 254.478 240.085 250.919 234.742C247.36 229.399 228.536 223.457 211.899 221.477C195.261 219.496 175.467 219.465 172.496 220.26Z" stroke="#263238" stroke-linecap="round" stroke-linejoin="round"/>
<path d="M141.202 279.666V313.931C141.202 313.931 139.417 292.147 134.672 286.597" stroke="#263238" stroke-linecap="round" stroke-linejoin="round"/>
<path d="M114.476 298.139C114.476 298.139 124.976 301.904 127.153 309.619C129.329 317.334 126.761 322.296 126.761 322.296" stroke="#263238" stroke-linecap="round" stroke-linejoin="round"/>
<path d="M101.913 311.123C101.913 311.123 109.577 307.636 110.165 306.997C110.753 306.357 117.499 306.677 120.314 313.856C123.13 321.035 121.088 324.48 119.685 325.254C118.282 326.028 110.928 328.173 108.896 328.173C106.864 328.173 98.3235 313.784 101.913 311.123Z" fill="#2AB6C5" stroke="#263238" stroke-linecap="round" stroke-linejoin="round"/>
<path d="M175.064 218.282C175.064 218.282 171.702 336.623 173.084 336.623H197.251C197.251 336.623 197.447 250.361 199.025 242.243C200.603 234.125 204.379 219.664 203.78 215.703C203.182 211.742 176.261 213.919 176.261 213.919C175.654 215.308 175.251 216.778 175.064 218.282Z" fill="white"/>
<mask id="mask1_952_6237" style="mask-type:luminance" maskUnits="userSpaceOnUse" x="172" y="213" width="32" height="124">
<path d="M175.065 218.282C175.065 218.282 171.702 336.623 173.084 336.623H197.252C197.252 336.623 197.448 250.361 199.026 242.243C200.604 234.125 204.379 219.664 203.781 215.703C203.183 211.742 176.261 213.919 176.261 213.919C175.655 215.308 175.252 216.778 175.065 218.282Z" fill="white"/>
</mask>
<g mask="url(#mask1_952_6237)">
<path d="M175.065 218.282C175.065 218.282 171.702 336.623 173.084 336.623H197.252C197.252 336.623 197.448 250.361 199.026 242.243C200.604 234.125 204.379 219.664 203.781 215.703C203.183 211.742 176.261 213.919 176.261 213.919C175.655 215.308 175.252 216.778 175.065 218.282Z" fill="#2AB6C5"/>
<path opacity="0.7" d="M175.065 218.282C175.065 218.282 171.702 336.623 173.084 336.623H197.252C197.252 336.623 197.448 250.361 199.026 242.243C200.604 234.125 204.379 219.664 203.781 215.703C203.183 211.742 176.261 213.919 176.261 213.919C175.655 215.308 175.252 216.778 175.065 218.282Z" fill="white"/>
</g>
<path d="M175.064 218.282C175.064 218.282 171.702 336.623 173.084 336.623H197.251C197.251 336.623 197.447 250.361 199.025 242.243C200.603 234.125 204.379 219.664 203.78 215.703C203.182 211.742 176.261 213.919 176.261 213.919C175.654 215.308 175.251 216.778 175.064 218.282Z" stroke="#263238" stroke-linecap="round" stroke-linejoin="round"/>
<path d="M198.881 243.223C190.953 245.771 182.476 246.081 174.383 244.12C173.476 279.499 172.114 336.622 173.084 336.622H197.251C197.251 336.622 197.437 255.776 198.881 243.223Z" fill="white"/>
<mask id="mask2_952_6237" style="mask-type:luminance" maskUnits="userSpaceOnUse" x="172" y="243" width="27" height="94">
<path d="M198.881 243.225C190.954 245.773 182.477 246.083 174.384 244.122C173.476 279.501 172.115 336.624 173.084 336.624H197.252C197.252 336.624 197.437 255.778 198.881 243.225Z" fill="white"/>
</mask>
<g mask="url(#mask2_952_6237)">
<path d="M197.303 324.594C197.303 321.355 197.303 317.694 197.365 313.764H172.888C172.888 317.725 172.796 321.376 172.775 324.594H197.303Z" fill="#263238"/>
<path d="M173.27 293.137C173.198 296.85 173.125 300.47 173.063 303.967H197.468C197.468 300.429 197.53 296.798 197.571 293.137H173.27Z" fill="#263238"/>
<path d="M173.693 272.506C173.61 276.106 173.528 279.726 173.456 283.336H197.664C197.716 279.644 197.767 276.003 197.829 272.506H173.693Z" fill="#263238"/>
<path d="M174.188 251.877C174.106 255.353 174.013 258.984 173.92 262.707H198.025C198.118 258.654 198.232 254.982 198.355 251.877H174.188Z" fill="#263238"/>
</g>
<path d="M198.881 243.223C190.953 245.771 182.476 246.081 174.383 244.12C173.476 279.499 172.114 336.622 173.084 336.622H197.251C197.251 336.622 197.437 255.776 198.881 243.223Z" stroke="#263238" stroke-linecap="round" stroke-linejoin="round"/>
<path d="M186.555 167.143C186.555 167.143 182.986 178.427 167.545 188.535C167.545 188.535 166.514 202.594 170.712 213.084C174.91 223.574 185.957 231.898 190.712 230.908C195.467 229.918 204.771 219.222 207.937 211.702C211.104 204.183 211.114 190.712 211.114 190.712C211.114 190.712 195.065 180.253 186.555 167.143Z" fill="white" stroke="#263238" stroke-linecap="round" stroke-linejoin="round"/>
<path d="M185.369 205.408C185.369 205.408 184.967 211.937 185.957 212.536C186.947 213.134 188.732 212.928 188.927 210.751" stroke="#263238" stroke-linecap="round" stroke-linejoin="round"/>
<path d="M183.389 216.652C183.389 216.652 189.526 217.838 192.889 215.857" stroke="#263238" stroke-linecap="round" stroke-linejoin="round"/>
<path d="M183.265 185.861C183.265 185.861 174.951 183.643 171.382 189.832" stroke="#263238" stroke-linecap="round" stroke-linejoin="round"/>
<path d="M191.258 190.607C191.258 190.607 197.024 184.8 205.152 190.04" stroke="#263238" stroke-linecap="round" stroke-linejoin="round"/>
<path d="M173.683 198.271C173.683 198.271 177.447 201.84 183.585 199.303" stroke="#263238" stroke-linecap="round" stroke-linejoin="round"/>
<path d="M192.465 199.117C192.465 199.117 197.623 201.499 201.965 198.725" stroke="#263238" stroke-linecap="round" stroke-linejoin="round"/>
<path d="M177.571 208.172C182.162 208.172 185.885 204.45 185.885 199.859C185.885 195.267 182.162 191.545 177.571 191.545C172.979 191.545 169.257 195.267 169.257 199.859C169.257 204.45 172.979 208.172 177.571 208.172Z" stroke="#263238" stroke-width="0.75" stroke-linecap="round" stroke-linejoin="round"/>
<path d="M197.417 208.172C202.008 208.172 205.73 204.45 205.73 199.859C205.73 195.267 202.008 191.545 197.417 191.545C192.825 191.545 189.103 195.267 189.103 199.859C189.103 204.45 192.825 208.172 197.417 208.172Z" stroke="#263238" stroke-width="0.75" stroke-linecap="round" stroke-linejoin="round"/>
<path d="M185.885 199.859H189.093" stroke="#263238" stroke-width="0.75" stroke-linecap="round" stroke-linejoin="round"/>
<path d="M205.73 199.859H210.599" stroke="#263238" stroke-width="0.75" stroke-linecap="round" stroke-linejoin="round"/>
<path d="M167.029 199.859H169.237" stroke="#263238" stroke-width="0.75" stroke-linecap="round" stroke-linejoin="round"/>
<path d="M180.696 200.375C180.696 200.375 182.811 200.468 180.83 201.2C178.85 201.932 176.849 201.571 174.796 199.828C174.796 199.828 178.726 200.344 180.696 200.375Z" fill="#263238" stroke="#263238" stroke-linecap="round" stroke-linejoin="round"/>
<path d="M195.034 199.881C195.034 199.881 192.971 199.696 194.797 200.675C196.622 201.655 198.696 201.573 200.985 200.098C200.955 200.149 196.994 200.149 195.034 199.881Z" fill="#263238" stroke="#263238" stroke-linecap="round" stroke-linejoin="round"/>
<path d="M226.36 268.772L223.193 236.095C223.193 236.095 216.458 234.713 214.085 233.125C211.713 231.536 208.928 229.566 208.928 229.566C208.928 229.566 207.35 230.948 206.163 229.566C204.977 228.184 201.212 225.44 200.614 223.223C200.016 221.005 204.183 218.065 206.751 214.517C209.32 210.969 212.105 207.586 214.085 207.782C216.066 207.978 224.575 216.652 228.969 223.429C233.363 230.206 235.107 231.939 235.303 234.321C235.498 236.704 239.428 248.762 239.428 248.762L240.46 269.164L226.36 268.772Z" fill="white" stroke="#263238" stroke-linecap="round" stroke-linejoin="round"/>
<path d="M208.928 229.565C208.928 229.565 205.029 225.718 205.029 224.562" stroke="#263238" stroke-linecap="round" stroke-linejoin="round"/>
<path d="M219.624 249.866L223.389 270.856L227.515 247.483L243.554 245.709C243.554 245.709 243.41 270.66 243.41 276.993C243.41 283.327 246.185 312.249 246.979 322.378C247.773 332.507 242.42 335.787 235.096 336.035C227.773 336.282 221.821 329.506 219.449 315.839C217.076 302.172 219.841 277.22 218.655 273.064C217.468 268.907 212.466 251.877 212.466 251.877L219.624 249.866Z" fill="#2AB6C5"/>
<mask id="mask3_952_6237" style="mask-type:luminance" maskUnits="userSpaceOnUse" x="212" y="245" width="36" height="92">
<path d="M219.624 249.866L223.389 270.856L227.515 247.483L243.554 245.709C243.554 245.709 243.41 270.66 243.41 276.993C243.41 283.327 246.185 312.249 246.979 322.378C247.773 332.507 242.42 335.787 235.096 336.035C227.773 336.282 221.821 329.506 219.449 315.839C217.076 302.172 219.841 277.22 218.655 273.064C217.468 268.907 212.466 251.877 212.466 251.877L219.624 249.866Z" fill="white"/>
</mask>
<g mask="url(#mask3_952_6237)">
<g style="mix-blend-mode:multiply" opacity="0.24">
<path d="M237.613 335.787C243.586 334.9 247.65 331.238 246.958 322.378C246.164 312.28 243.39 283.368 243.39 276.993C243.39 270.619 243.586 245.709 243.586 245.709L240.986 245.998C239.491 250.98 231.156 280.222 235.396 301.099C240.058 323.987 243.936 326.308 237.727 335.622L237.613 335.787Z" fill="#BEBEBE"/>
</g>
</g>
<path d="M219.624 249.866L223.389 270.856L227.515 247.483L243.554 245.709C243.554 245.709 243.41 270.66 243.41 276.993C243.41 283.327 246.185 312.249 246.979 322.378C247.773 332.507 242.42 335.787 235.096 336.035C227.773 336.282 221.821 329.506 219.449 315.839C217.076 302.172 219.841 277.22 218.655 273.064C217.468 268.907 212.466 251.877 212.466 251.877L219.624 249.866Z" stroke="#263238" stroke-linecap="round" stroke-linejoin="round"/>
<path d="M93.7126 331.658C93.7126 331.658 93.2381 334.846 96.1263 335.568C99.0144 336.29 105.956 334.485 106.534 332.999C106.706 332.592 106.754 332.143 106.673 331.709C106.593 331.274 106.386 330.873 106.08 330.555H99.7467C99.7467 330.555 94.971 329.08 93.7126 331.658Z" fill="white" stroke="#263238" stroke-linecap="round" stroke-linejoin="round"/>
<path d="M65.3574 297.294L91.6083 315.53L93.5681 312.92L67.1934 294.529L65.3574 297.294Z" fill="#263238" stroke="#263238" stroke-linecap="round" stroke-linejoin="round"/>
<path d="M71.4534 301.523L73.4957 298.923L67.1934 294.529L65.3574 297.294L71.4534 301.523Z" fill="white" stroke="#263238" stroke-linecap="round" stroke-linejoin="round"/>
<path d="M97.8283 331.383C101.937 331.189 105.848 329.557 108.875 326.772C113.579 322.192 113.899 319.129 107.545 312.548C101.191 305.967 87.2969 313.672 86.8534 316.581C86.4099 319.49 97.8283 331.383 97.8283 331.383Z" fill="white" stroke="#263238" stroke-linecap="round" stroke-linejoin="round"/>
<path d="M111.887 319.488C111.887 319.488 110.092 323.233 108.39 324.646C106.688 326.059 103.986 326.441 102.387 324.161C100.788 321.881 99.1482 314.806 97.7557 314.661C96.3632 314.517 89.4214 312.237 87.441 309.504C85.4606 306.77 85.5637 304.656 89.9269 305.956C94.29 307.255 105.966 308.771 105.966 308.771C105.966 308.771 108.731 310.432 110.649 316.26" fill="white"/>
<path d="M111.887 319.488C111.887 319.488 110.092 323.233 108.39 324.646C106.688 326.059 103.986 326.441 102.387 324.161C100.788 321.881 99.1482 314.806 97.7557 314.661C96.3632 314.517 89.4214 312.237 87.441 309.504C85.4606 306.77 85.5637 304.656 89.9269 305.956C94.29 307.255 105.966 308.771 105.966 308.771C105.966 308.771 108.731 310.432 110.649 316.26" stroke="#263238" stroke-linecap="round" stroke-linejoin="round"/>
<path d="M89.4316 328.257C90.0505 329.02 92.0825 332.476 93.0418 332.713C94.0011 332.95 99.8907 329.206 102.16 326.349C104.429 323.492 100.2 319.531 98.9934 318.974C97.7866 318.417 89.4316 328.257 89.4316 328.257Z" fill="white" stroke="#263238" stroke-linecap="round" stroke-linejoin="round"/>
<path d="M86.4308 317.943C86.4308 317.943 81.2734 321.037 82.5009 323.162C83.7283 325.287 87.8542 328.515 89.1745 327.948C90.4948 327.381 99.386 323.244 99.3448 320.985C99.3035 318.726 99.1591 316.034 94.6103 316.406C91.8385 316.638 89.0978 317.153 86.4308 317.943Z" fill="white" stroke="#263238" stroke-linecap="round" stroke-linejoin="round"/>
<path d="M81.2729 309.369C81.2729 309.369 78.7665 314.465 81.0666 316.672C83.3668 318.879 97.5702 318.828 98.2922 316.228C99.0142 313.629 93.6918 313.072 89.7826 311.391C85.8733 309.71 81.8196 308.162 81.2729 309.369Z" fill="white" stroke="#263238" stroke-linecap="round" stroke-linejoin="round"/>
<path d="M136.354 335.909C136.354 335.909 135.962 329.173 130.02 326.801C124.079 324.429 120.902 325.409 107.637 328.977C99.2779 331.164 90.717 332.491 82.0879 332.938V335.909H136.354Z" fill="white" stroke="#263238" stroke-linecap="round" stroke-linejoin="round"/>
<path d="M136.137 335.909C136.137 335.909 136.529 329.173 142.47 326.801C148.411 324.429 151.578 325.409 164.853 328.977C173.209 331.164 181.766 332.491 190.392 332.938V335.909H136.137Z" fill="white" stroke="#263238" stroke-linecap="round" stroke-linejoin="round"/>
<path d="M192.599 334.723H80.7056V336.899H192.599V334.723Z" fill="#263238" stroke="#263238" stroke-linecap="round" stroke-linejoin="round"/>
<path d="M15.4551 336.902H375.087" stroke="#263238" stroke-linecap="round" stroke-linejoin="round"/>
<path d="M370.962 277.096H294.715L268.774 337.096H345.02L370.962 277.096Z" fill="white" stroke="#263238" stroke-linecap="round" stroke-linejoin="round"/>
<path d="M373.932 277.096H297.686L271.745 337.096H347.991L373.932 277.096Z" fill="#263238" stroke="#263238" stroke-linecap="round" stroke-linejoin="round"/>
<path d="M328.939 313.609C326.98 316.703 323.308 317.921 320.739 316.291C318.171 314.661 317.645 310.834 319.625 307.73C321.606 304.625 325.257 303.428 327.877 305.048C330.497 306.667 330.899 310.515 328.939 313.609Z" fill="white" stroke="#2AB6C5" stroke-linecap="round" stroke-linejoin="round"/>
<path d="M269.764 334.723H214.116V336.899H269.764V334.723Z" fill="white" stroke="#263238" stroke-linecap="round" stroke-linejoin="round"/>
</svg>
