<svg width="14" height="19" viewBox="0 0 14 19" fill="none" xmlns="http://www.w3.org/2000/svg">
<path fill-rule="evenodd" clip-rule="evenodd" d="M6.7728 0C10.5137 0 13.5453 3.03161 13.5453 6.77246C13.5453 9.72518 11.2331 12.5667 9.6528 14.9417L7.46201 18.2321C7.30438 18.4706 7.05782 18.602 6.7728 18.602C6.48778 18.602 6.24123 18.4706 6.08359 18.2321L3.8928 14.9417C2.3123 12.567 0 9.72549 0 6.77246C0 3.03154 3.03161 0 6.7728 0ZM6.7728 2.87397C4.57797 2.87397 2.79943 4.65254 2.79943 6.84734C2.79943 9.04214 4.578 10.8207 6.7728 10.8207C8.9676 10.8207 10.7462 9.04214 10.7462 6.84734C10.7462 4.65453 8.96558 2.87397 6.7728 2.87397Z" fill="#2AB6C5"/>
</svg>
