<svg width="379" height="287" viewBox="0 0 379 287" fill="none" xmlns="http://www.w3.org/2000/svg">
<path d="M363.895 200.547C363.895 200.547 381.848 108.489 332.94 56.2356C289.765 10.1282 221.427 -7.80582 165.67 30.3252C145.814 43.9101 131.363 70.2798 108.168 78.4333C82.1661 87.5709 48.7317 90.8376 24.5858 130.012C0.439898 169.186 9.1445 219.478 41.2866 246.248C73.4287 273.018 129.841 246.904 180.6 244.936C231.358 242.968 337.269 314.146 363.895 200.547Z" fill="#2AB6C5"/>
<path opacity="0.7" d="M363.895 200.547C363.895 200.547 381.848 108.489 332.94 56.2356C289.765 10.1282 221.427 -7.80582 165.67 30.3252C145.814 43.9101 131.363 70.2798 108.168 78.4333C82.1661 87.5709 48.7317 90.8376 24.5858 130.012C0.439898 169.186 9.1445 219.478 41.2866 246.248C73.4287 273.018 129.841 246.904 180.6 244.936C231.358 242.968 337.269 314.146 363.895 200.547Z" fill="white"/>
<path d="M67.1183 35.7829C67.1183 35.7829 67.1183 30.1875 59.2861 22.3554C51.4539 14.5232 46.4162 10.043 46.4162 10.043C46.4162 10.043 42.4804 22.9129 49.7681 30.7451C57.0558 38.5773 67.1183 45.8322 67.1183 45.8322V35.7829Z" fill="#2AB6C5"/>
<path d="M55.7505 70.7321C55.7505 70.7321 55.7505 65.1367 47.879 57.298C40.0074 49.4593 35.009 44.9922 35.009 44.9922C35.009 44.9922 31.0732 57.8621 38.3675 65.6943C45.6618 73.5265 55.7177 80.7814 55.7177 80.7814L55.7505 70.7321Z" fill="#2AB6C5"/>
<path d="M66.6263 45.2862C66.6263 45.2862 67.2167 39.7237 75.8098 32.7574C84.4029 25.7911 89.9064 21.875 89.9064 21.875C89.9064 21.875 92.4515 35.1188 84.4094 42.1376C76.3674 49.1564 65.5571 55.329 65.5571 55.329L66.6263 45.2862Z" fill="#2AB6C5"/>
<path d="M52.8906 86.6146C52.8906 86.6146 54.0648 81.1438 63.386 75.1221C72.7072 69.1004 78.5518 65.7812 78.5518 65.7812C78.5518 65.7812 79.6801 79.1891 70.9295 85.3223C62.179 91.4556 50.7981 96.4737 50.7981 96.4737L52.8906 86.6146Z" fill="#2AB6C5"/>
<path d="M55.4749 131.586C55.4749 131.586 55.4749 125.99 63.307 118.152C71.1392 110.313 76.177 105.846 76.177 105.846C76.177 105.846 80.1127 118.716 72.8185 126.548C65.5242 134.38 55.4749 141.635 55.4749 141.635V131.586Z" fill="#2AB6C5"/>
<path d="M55.3439 142.567C55.3439 142.567 56.1377 137.031 49.4928 128.136C42.8479 119.241 38.5054 114.164 38.5054 114.164C38.5054 114.164 32.7986 126.352 38.8859 135.155C44.9732 143.958 53.9074 152.577 53.9074 152.577L55.3439 142.567Z" fill="#2AB6C5"/>
<path d="M47.6165 175.115C47.6165 175.115 47.6165 169.52 55.4486 161.687C63.2808 153.855 68.3186 149.375 68.3186 149.375C68.3186 149.375 72.2544 162.245 64.9666 170.084C57.6789 177.922 47.6165 185.171 47.6165 185.171V175.115Z" fill="#2AB6C5"/>
<path d="M52.8511 204.633C52.8511 204.633 51.4276 199.215 57.023 189.651C62.6183 180.087 66.3573 174.512 66.3573 174.512C66.3573 174.512 73.4089 185.971 68.3252 195.391C63.2415 204.811 55.37 214.414 55.37 214.414L52.8511 204.633Z" fill="#2AB6C5"/>
<path d="M67.8267 34.3477C67.4314 40.1748 66.7153 45.9757 65.6817 51.7241C62.5856 67.7229 54.8453 78.0478 51.7819 92.5183C48.7186 106.989 57.5741 125.592 55.1929 144.149C52.8118 162.706 45.5831 173.011 47.6494 185.422C49.7157 197.833 60.5521 231.339 60.5521 231.339" stroke="#263238" stroke-width="1.2" stroke-linecap="round" stroke-linejoin="round"/>
<path d="M66.5476 49.0336L74.9898 42.5527" stroke="#263238" stroke-width="1.2" stroke-linecap="round" stroke-linejoin="round"/>
<path d="M66.9411 41.5751L63.4055 35.291" stroke="#263238" stroke-width="1.2" stroke-linecap="round" stroke-linejoin="round"/>
<path d="M52.2148 91.862C52.2148 91.862 59.2861 86.5619 66.5476 81.2617" stroke="#263238" stroke-width="1.2" stroke-linecap="round" stroke-linejoin="round"/>
<path d="M55.7506 80.8015C55.7506 80.8015 49.8469 69.2566 43.1824 61.6016" stroke="#263238" stroke-width="1.2" stroke-linecap="round" stroke-linejoin="round"/>
<path d="M55.7505 139.544C59.7756 132.109 64.8575 125.297 70.8376 119.32" stroke="#263238" stroke-width="1.2" stroke-linecap="round" stroke-linejoin="round"/>
<path d="M54.4057 147.401C54.4057 147.401 50.8766 138.959 46.7507 132.871C42.6247 126.784 42.0081 125.971 42.0081 125.971" stroke="#263238" stroke-width="1.2" stroke-linecap="round" stroke-linejoin="round"/>
<path d="M47.6165 185.4C49.409 180.958 51.5383 176.66 53.9858 172.543C56.4304 168.722 59.1884 165.11 62.2313 161.746" stroke="#263238" stroke-width="1.2" stroke-linecap="round" stroke-linejoin="round"/>
<path d="M55.3964 214.376C55.3964 214.376 54.5699 207.672 57.5151 201.978C60.4604 196.284 63.7992 188.826 65.1767 185.881" stroke="#263238" stroke-width="1.2" stroke-linecap="round" stroke-linejoin="round"/>
<path d="M15.8156 110.544C15.8156 110.544 15.2121 107.034 19.2725 101.268C23.3329 95.5023 26.0093 92.1504 26.0093 92.1504C26.0093 92.1504 29.8597 99.7989 26.147 105.499C23.3896 109.534 20.3003 113.333 16.9111 116.854L15.8156 110.544Z" fill="#2AB6C5"/>
<path d="M26.744 131.218C26.744 131.218 26.1339 127.709 30.1943 121.95C34.2547 116.19 36.9311 112.852 36.9311 112.852C36.9311 112.852 40.7816 120.494 37.0754 126.2C34.3168 130.237 31.2251 134.035 27.8329 137.555L26.744 131.218Z" fill="#2AB6C5"/>
<path d="M17.1603 116.459C17.1603 116.459 16.1829 113.035 10.0234 109.605C3.86397 106.174 0.00036676 104.324 0.00036676 104.324C0.00036676 104.324 -0.150507 112.852 5.66787 116.4C9.90293 118.842 14.3353 120.924 18.9183 122.626L17.1603 116.459Z" fill="#2AB6C5"/>
<path d="M30.2532 140.855C30.2532 140.855 28.9413 137.575 22.4407 134.787C15.9401 132 11.9453 130.576 11.9453 130.576C11.9453 130.576 12.6931 139.104 18.846 142.003C23.3162 143.983 27.9436 145.587 32.6802 146.798L30.2532 140.855Z" fill="#2AB6C5"/>
<path d="M33.5198 169.351C33.5198 169.351 32.9097 165.841 27.1504 161.781C21.3911 157.72 17.7439 155.49 17.7439 155.49C17.7439 155.49 16.6813 163.985 22.0929 168.111C26.0484 170.985 30.237 173.524 34.6152 175.7L33.5198 169.351Z" fill="#2AB6C5"/>
<path d="M34.7927 176.225C34.7927 176.225 33.6972 172.84 36.8983 166.556C40.0994 160.272 42.2641 156.572 42.2641 156.572C42.2641 156.572 47.1707 163.591 44.3041 169.764C42.1502 174.152 39.6312 178.352 36.7737 182.319L34.7927 176.225Z" fill="#2AB6C5"/>
<path d="M44.6254 204.53C44.6254 204.53 45.0321 200.994 50.529 196.606C56.026 192.218 59.5616 189.758 59.5616 189.758C59.5616 189.758 61.1031 198.18 55.9342 202.608C52.163 205.7 48.1412 208.474 43.9104 210.899L44.6254 204.53Z" fill="#2AB6C5"/>
<path d="M43.1757 195.798C43.1757 195.798 42.5657 192.288 36.7998 188.228C31.0339 184.167 27.3933 181.904 27.3933 181.904C27.3933 181.904 26.3372 190.432 31.7489 194.525C35.7025 197.398 39.8889 199.937 44.2646 202.114L43.1757 195.798Z" fill="#2AB6C5"/>
<path d="M43.097 214.873C43.097 214.873 43.3988 211.325 38.8529 205.933C34.3071 200.541 31.3487 197.471 31.3487 197.471C31.3487 197.471 28.1739 205.421 32.3655 210.78C35.4618 214.557 38.8694 218.068 42.5526 221.276L43.097 214.873Z" fill="#2AB6C5"/>
<path d="M15.2188 109.715C16.1009 113.326 17.1783 116.886 18.4461 120.381C22.126 130.076 28.1018 135.711 31.6112 144.435C35.1206 153.159 31.5719 165.799 35.0812 177.18C38.5906 188.561 44.2647 194.235 44.2647 202.245C44.2647 210.254 41.1554 232.452 41.1554 232.452" stroke="#263238" stroke-width="1.2" stroke-linecap="round" stroke-linejoin="round"/>
<path d="M17.6129 118.789L11.6174 115.641" stroke="#263238" stroke-width="1.2" stroke-linecap="round" stroke-linejoin="round"/>
<path d="M16.5569 114.151L18.0918 109.828" stroke="#263238" stroke-width="1.2" stroke-linecap="round" stroke-linejoin="round"/>
<path d="M31.2505 144.069C31.2505 144.069 26.239 141.511 21.1094 138.979" stroke="#263238" stroke-width="1.2" stroke-linecap="round" stroke-linejoin="round"/>
<path d="M27.8328 137.535C27.8328 137.535 30.2729 129.663 33.6315 124.127" stroke="#263238" stroke-width="1.2" stroke-linecap="round" stroke-linejoin="round"/>
<path d="M34.2088 174.375C30.8713 170.157 26.9381 166.447 22.5327 163.361" stroke="#263238" stroke-width="1.2" stroke-linecap="round" stroke-linejoin="round"/>
<path d="M35.9272 179.148C36.7236 175.75 37.8009 172.424 39.148 169.204C41.0765 164.94 41.3586 164.383 41.3586 164.383" stroke="#263238" stroke-width="1.2" stroke-linecap="round" stroke-linejoin="round"/>
<path d="M44.0154 208.307C44.0154 208.307 47.9905 203.433 50.4635 201.609C51.957 200.511 53.3588 199.294 54.6551 197.969" stroke="#263238" stroke-width="1.2" stroke-linecap="round" stroke-linejoin="round"/>
<path d="M44.2908 202.246C42.684 199.646 40.8815 197.173 38.8988 194.847C36.9512 192.707 34.8296 190.733 32.5557 188.943" stroke="#263238" stroke-width="1.2" stroke-linecap="round" stroke-linejoin="round"/>
<path d="M42.5526 221.255C42.5526 221.255 42.3427 216.965 39.8829 213.718C37.423 210.471 34.5105 206.148 33.3232 204.449" stroke="#263238" stroke-width="1.2" stroke-linecap="round" stroke-linejoin="round"/>
<path d="M65.5965 285.724H32.9034C32.2197 285.724 31.564 285.452 31.0805 284.969C30.5971 284.485 30.3254 283.829 30.3254 283.146L22.2178 228.996H76.2821L68.1809 283.146C68.1809 283.485 68.114 283.821 67.9841 284.134C67.8541 284.447 67.6637 284.731 67.4236 284.971C67.1835 285.21 66.8985 285.4 66.585 285.529C66.2715 285.658 65.9356 285.724 65.5965 285.724Z" fill="#263238" stroke="#263238" stroke-width="1.2" stroke-linecap="round" stroke-linejoin="round"/>
<path d="M245.576 23.0526L237.779 30.8496L245.576 38.6467L253.373 30.8496L245.576 23.0526Z" stroke="#263238" stroke-width="1.2" stroke-linecap="round" stroke-linejoin="round"/>
<path d="M165.709 1.00054L161.456 5.25391L165.709 9.50727L169.962 5.2539L165.709 1.00054Z" stroke="#263238" stroke-width="1.2" stroke-linecap="round" stroke-linejoin="round"/>
<path d="M343.459 39.9986L339.205 44.252L343.459 48.5053L347.712 44.252L343.459 39.9986Z" stroke="#263238" stroke-width="1.2" stroke-linecap="round" stroke-linejoin="round"/>
<path d="M119.549 53.6988C119.551 53.0742 119.367 52.4633 119.02 51.9435C118.674 51.4236 118.181 51.0182 117.605 50.7785C117.028 50.5389 116.393 50.4759 115.78 50.5974C115.168 50.719 114.605 51.0196 114.163 51.4612C113.721 51.9029 113.421 52.4657 113.299 53.0783C113.178 53.691 113.241 54.3259 113.48 54.9027C113.72 55.4795 114.125 55.9722 114.645 56.3184C115.165 56.6646 115.776 56.8487 116.401 56.8474C117.236 56.8474 118.037 56.5157 118.627 55.9252C119.218 55.3348 119.549 54.5339 119.549 53.6988Z" stroke="#263238" stroke-width="1.2" stroke-linecap="round" stroke-linejoin="round"/>
<path d="M364.511 224.615C364.513 223.991 364.329 223.38 363.983 222.86C363.637 222.34 363.145 221.935 362.568 221.695C361.992 221.455 361.357 221.392 360.745 221.513C360.132 221.634 359.569 221.934 359.127 222.375C358.685 222.816 358.384 223.378 358.262 223.99C358.14 224.603 358.202 225.237 358.44 225.814C358.679 226.391 359.083 226.884 359.603 227.231C360.122 227.578 360.732 227.763 361.356 227.763C361.77 227.764 362.18 227.684 362.563 227.526C362.946 227.368 363.294 227.136 363.587 226.844C363.88 226.551 364.112 226.204 364.271 225.821C364.43 225.439 364.511 225.029 364.511 224.615Z" stroke="#263238" stroke-width="1.2" stroke-linecap="round" stroke-linejoin="round"/>
<path d="M288.105 65.5119C288.105 64.8892 287.92 64.2804 287.574 63.7626C287.228 63.2448 286.737 62.8413 286.161 62.603C285.586 62.3646 284.953 62.3023 284.342 62.4238C283.731 62.5453 283.17 62.8451 282.73 63.2855C282.29 63.7258 281.99 64.2869 281.868 64.8976C281.747 65.5084 281.809 66.1415 282.048 66.7168C282.286 67.2921 282.689 67.7839 283.207 68.1299C283.725 68.4758 284.334 68.6605 284.956 68.6605C285.792 68.6605 286.592 68.3288 287.183 67.7383C287.773 67.1478 288.105 66.347 288.105 65.5119Z" stroke="#263238" stroke-width="1.2" stroke-linecap="round" stroke-linejoin="round"/>
<path d="M41.5752 89.1403C41.5765 88.5159 41.3926 87.9053 41.0467 87.3855C40.7008 86.8658 40.2085 86.4604 39.632 86.2206C39.0556 85.9808 38.421 85.9173 37.8085 86.0383C37.1961 86.1593 36.6333 86.4593 36.1913 86.9003C35.7494 87.3413 35.4483 87.9035 35.326 88.5157C35.2037 89.128 35.2658 89.7627 35.5044 90.3396C35.743 90.9165 36.1475 91.4097 36.6665 91.7567C37.1855 92.1036 37.7957 92.2889 38.4201 92.2889C39.2557 92.2889 40.0573 91.9573 40.6488 91.3671C41.2403 90.7768 41.5735 89.9759 41.5752 89.1403Z" stroke="#263238" stroke-width="1.2" stroke-linecap="round" stroke-linejoin="round"/>
<path d="M65.7801 78.7422H346.052C348.269 78.7422 350.395 79.6226 351.962 81.1899C353.529 82.7571 354.409 84.8827 354.409 87.0991V271.536H57.4297V87.1254C57.4263 86.0263 57.6397 84.9373 58.0577 83.9208C58.4757 82.9042 59.0901 81.9802 59.8658 81.2015C60.6415 80.4228 61.5631 79.8047 62.578 79.3827C63.5929 78.9607 64.681 78.743 65.7801 78.7422Z" fill="white" stroke="#263238" stroke-width="1.2" stroke-linecap="round" stroke-linejoin="round"/>
<path d="M308.65 262.254H104.547V272.31H308.65V262.254Z" fill="#263238" stroke="#263238" stroke-width="1.2" stroke-linecap="round" stroke-linejoin="round"/>
<path d="M308.65 267.102H104.547V272.316H308.65V267.102Z" fill="white" stroke="#263238" stroke-width="1.2" stroke-linecap="round" stroke-linejoin="round"/>
<path d="M33.415 278.271C33.415 278.271 36.767 282.371 46.8229 285.723H366.374C366.374 285.723 373.826 283.86 377.178 278.645L33.415 278.271Z" fill="#263238" stroke="#263238" stroke-width="1.2" stroke-linecap="round" stroke-linejoin="round"/>
<path d="M375.367 270.932H35.2583C33.8599 270.932 32.7263 272.065 32.7263 273.464V276.232C32.7263 277.63 33.8599 278.764 35.2583 278.764H375.367C376.766 278.764 377.899 277.63 377.899 276.232V273.464C377.899 272.065 376.766 270.932 375.367 270.932Z" fill="white" stroke="#263238" stroke-width="1.2" stroke-linecap="round" stroke-linejoin="round"/>
<path d="M208.458 84.6004C208.458 84.0815 208.304 83.5742 208.016 83.1427C207.728 82.7112 207.318 82.3749 206.838 82.1763C206.359 81.9777 205.831 81.9257 205.322 82.027C204.813 82.1282 204.346 82.3781 203.979 82.7451C203.612 83.112 203.362 83.5795 203.261 84.0885C203.16 84.5975 203.212 85.1251 203.41 85.6045C203.609 86.084 203.945 86.4937 204.377 86.782C204.808 87.0704 205.315 87.2242 205.834 87.2242C206.53 87.2242 207.198 86.9478 207.69 86.4557C208.182 85.9637 208.458 85.2963 208.458 84.6004Z" fill="#263238"/>
<path d="M60.2241 133.016C60.0276 133.016 59.839 132.938 59.7 132.799C59.561 132.659 59.4829 132.471 59.4829 132.274V110.674C59.4829 110.476 59.5608 110.287 59.6996 110.147C59.8384 110.007 60.027 109.928 60.2241 109.926C60.4225 109.926 60.6127 110.005 60.7529 110.145C60.8932 110.285 60.9719 110.475 60.9719 110.674V132.274C60.9719 132.372 60.9526 132.469 60.9149 132.56C60.8772 132.65 60.822 132.732 60.7525 132.801C60.683 132.87 60.6005 132.924 60.5098 132.961C60.4191 132.998 60.322 133.016 60.2241 133.016Z" fill="#263238" stroke="white" stroke-width="0.83" stroke-linejoin="round"/>
<path d="M342.353 93.8301H69.4731V248.04H342.353V93.8301Z" fill="#D1D1D1" stroke="#263238" stroke-width="1.2" stroke-linejoin="round"/>
<path d="M342.36 93.8301H114.826V102.948H342.36V93.8301Z" fill="#263238"/>
<path d="M82.7311 135.496C86.058 134.118 87.6379 130.304 86.2598 126.977C84.8818 123.65 81.0676 122.07 77.7407 123.448C74.4138 124.826 72.8339 128.64 74.212 131.967C75.59 135.294 79.4042 136.874 82.7311 135.496Z" stroke="#263238" stroke-width="1.2" stroke-linejoin="round"/>
<path d="M80.2375 154.714C83.8386 154.714 86.7578 151.795 86.7578 148.194C86.7578 144.593 83.8386 141.674 80.2375 141.674C76.6365 141.674 73.7173 144.593 73.7173 148.194C73.7173 151.795 76.6365 154.714 80.2375 154.714Z" stroke="#263238" stroke-width="1.2" stroke-linejoin="round"/>
<path d="M82.7335 172.941C86.0605 171.563 87.6403 167.749 86.2623 164.422C84.8842 161.095 81.0701 159.515 77.7432 160.893C74.4162 162.272 72.8364 166.086 74.2144 169.413C75.5925 172.74 79.4066 174.319 82.7335 172.941Z" stroke="#263238" stroke-width="1.2" stroke-linejoin="round"/>
<path d="M80.2375 192.164C83.8386 192.164 86.7578 189.244 86.7578 185.643C86.7578 182.042 83.8386 179.123 80.2375 179.123C76.6365 179.123 73.7173 182.042 73.7173 185.643C73.7173 189.244 76.6365 192.164 80.2375 192.164Z" stroke="#263238" stroke-width="1.2" stroke-linejoin="round"/>
<path d="M80.2375 210.886C83.8386 210.886 86.7578 207.967 86.7578 204.366C86.7578 200.765 83.8386 197.846 80.2375 197.846C76.6365 197.846 73.7173 200.765 73.7173 204.366C73.7173 207.967 76.6365 210.886 80.2375 210.886Z" stroke="#263238" stroke-width="1.2" stroke-linejoin="round"/>
<path d="M86.6797 224.144C87.2567 220.589 84.8429 217.24 81.2884 216.663C77.7339 216.086 74.3846 218.5 73.8077 222.054C73.2307 225.609 75.6444 228.958 79.199 229.535C82.7535 230.112 86.1027 227.698 86.6797 224.144Z" stroke="#263238" stroke-width="1.2" stroke-linejoin="round"/>
<path d="M325.744 108.221H101.484V244.123H325.744V108.221Z" stroke="#263238" stroke-width="1.2" stroke-linejoin="round"/>
<path d="M101.838 189.422H326.013" stroke="#263238" stroke-width="1.2" stroke-linejoin="round"/>
<path d="M231.115 197.654H307.613" stroke="#263238" stroke-width="1.2" stroke-linejoin="round"/>
<path d="M231.115 204.43H307.613" stroke="#263238" stroke-width="1.2" stroke-linejoin="round"/>
<path d="M231.115 211.213H307.613" stroke="#263238" stroke-width="1.2" stroke-linejoin="round"/>
<path d="M231.115 217.988H307.613" stroke="#263238" stroke-width="1.2" stroke-linejoin="round"/>
<path d="M231.115 224.766H307.613" stroke="#263238" stroke-width="1.2" stroke-linejoin="round"/>
<path d="M231.115 231.547H307.613" stroke="#263238" stroke-width="1.2" stroke-linejoin="round"/>
<path d="M210.065 111.592V112.379" stroke="#263238" stroke-width="1.2" stroke-linejoin="round"/>
<path d="M210.065 113.936V184.845" stroke="#263238" stroke-width="1.2" stroke-linejoin="round" stroke-dasharray="2.38 2.38"/>
<path d="M210.065 185.625V186.412" stroke="#263238" stroke-width="1.2" stroke-linejoin="round"/>
<path d="M213.43 188.59C213.43 187.924 213.233 187.274 212.863 186.72C212.493 186.167 211.968 185.735 211.353 185.481C210.738 185.226 210.062 185.159 209.409 185.289C208.756 185.419 208.156 185.74 207.686 186.21C207.215 186.681 206.895 187.28 206.765 187.933C206.635 188.586 206.702 189.263 206.956 189.877C207.211 190.492 207.642 191.018 208.196 191.388C208.749 191.757 209.4 191.955 210.065 191.955C210.507 191.956 210.945 191.869 211.354 191.7C211.763 191.532 212.134 191.284 212.447 190.971C212.759 190.658 213.007 190.287 213.176 189.878C213.345 189.47 213.431 189.032 213.43 188.59Z" fill="white" stroke="#263238" stroke-width="1.2" stroke-linejoin="round"/>
<path d="M210.02 186.412V190.925" stroke="#263238" stroke-width="0.6" stroke-linejoin="round"/>
<path d="M212.276 188.668H207.763" stroke="#263238" stroke-width="0.6" stroke-linejoin="round"/>
<path d="M180.796 151.98H127.782C127.257 151.981 126.737 151.878 126.252 151.678C125.767 151.477 125.326 151.183 124.955 150.812C124.584 150.441 124.29 150 124.089 149.515C123.889 149.03 123.786 148.51 123.787 147.985C123.786 147.46 123.889 146.94 124.089 146.455C124.29 145.97 124.584 145.529 124.955 145.158C125.326 144.787 125.767 144.493 126.252 144.293C126.737 144.092 127.257 143.989 127.782 143.99H180.796C181.856 143.99 182.872 144.411 183.621 145.16C184.37 145.909 184.791 146.926 184.791 147.985C184.791 149.045 184.37 150.061 183.621 150.81C182.872 151.559 181.856 151.98 180.796 151.98Z" stroke="#263238" stroke-width="1.2" stroke-linejoin="round"/>
<path d="M159.182 196.684H106.148V234.565H159.182V196.684Z" fill="#2AB6C5" stroke="#263238" stroke-width="1.2" stroke-linejoin="round"/>
<path d="M106.148 234.565L159.182 196.684" stroke="#263238" stroke-width="1.2" stroke-linejoin="round"/>
<path d="M106.148 196.684L159.182 234.565" stroke="#263238" stroke-width="1.2" stroke-linejoin="round"/>
<path d="M219.701 196.684H166.667V234.565H219.701V196.684Z" fill="#2AB6C5" stroke="#263238" stroke-width="1.2" stroke-linejoin="round"/>
<path d="M166.667 234.565L219.708 196.684" stroke="#263238" stroke-width="1.2" stroke-linejoin="round"/>
<path d="M166.667 196.684L219.708 234.565" stroke="#263238" stroke-width="1.2" stroke-linejoin="round"/>
<path d="M86.7578 166.916H101.097" stroke="#263238" stroke-width="1.2" stroke-linejoin="round"/>
<path d="M312.284 112.852H215.09V182.278H312.284V112.852Z" fill="#2AB6C5" stroke="#263238" stroke-width="1.2" stroke-linejoin="round"/>
<path d="M215.09 182.278L312.284 112.852" stroke="#263238" stroke-width="1.2" stroke-linejoin="round"/>
<path d="M215.09 112.852L312.284 182.278" stroke="#263238" stroke-width="1.2" stroke-linejoin="round"/>
<path d="M301.952 148.68C302.794 149.862 303.569 151.091 304.274 152.36C304.834 153.368 305.274 154.438 305.586 155.548C305.586 155.548 306 155.187 308.21 153.212C310.421 151.238 310.618 149.375 310.618 149.375L308.525 146.305C308.525 146.305 303.271 145.905 301.952 148.68Z" fill="white" stroke="#263238" stroke-width="1.2" stroke-linecap="round" stroke-linejoin="round"/>
<path d="M299.827 137.121C299.827 137.121 299.112 139.194 298.463 139.279C297.813 139.364 295.891 138.466 296.101 140.079C296.268 141.106 296.799 142.037 297.597 142.703C297.597 142.703 297.151 148.023 297.42 148.81C297.689 149.597 298.076 150.201 300.044 149.945L303.599 149.479C304.033 149.555 304.471 149.605 304.911 149.63C305.737 149.683 305.724 149.775 307.148 148.108C308.571 146.442 309.45 147.879 309.083 145.13C308.715 142.382 308.328 140.624 306.8 139.017C305.272 137.41 299.827 137.121 299.827 137.121Z" fill="white" stroke="#263238" stroke-width="1.2" stroke-linecap="round" stroke-linejoin="round"/>
<path d="M299.079 140.402C298.902 141.005 298.889 141.53 299.079 141.576C299.269 141.622 299.512 141.176 299.689 140.573C299.866 139.969 299.879 139.438 299.689 139.392C299.499 139.346 299.25 139.805 299.079 140.402Z" fill="#263238"/>
<path d="M316.692 128.063L305.541 119.634C305.541 119.634 303.783 118.847 303.783 117.279C303.684 116.041 303.684 114.797 303.783 113.56C303.973 111.992 303.783 111.205 304.563 111.205C305.344 111.205 305.541 112.969 305.541 112.969L306.131 111.001C306.131 111.001 307.502 110.614 307.699 111.592C307.895 112.569 309.463 113.159 309.07 114.53C308.624 115.711 308.031 116.831 307.305 117.863C307.305 117.863 317.695 122.369 319.65 122.96C321.605 123.55 325.206 125.209 324.813 127.171C324.419 129.132 322.491 135.003 322.491 135.003L316.692 128.063Z" fill="white" stroke="#263238" stroke-width="1.2" stroke-linecap="round" stroke-linejoin="round"/>
<path d="M306.118 154.721C306.118 154.721 303.389 156.597 300.214 158.945C296.278 161.858 296.213 168.614 295.931 169.296C295.472 170.431 308.355 184.449 310.198 186.81C312.041 189.172 312.376 192.976 312.376 192.976L329.831 189.198C329.831 189.198 321.093 158.696 320.647 156.459C320.201 154.222 319.453 151.31 319.453 151.31C319.453 151.31 320.66 144.416 322.222 138.847C323.783 133.277 324.419 129.716 324.301 128.81C324.183 127.905 319.362 127.387 317.367 127.348C315.373 127.308 315.557 127.584 315.557 127.584C315.557 127.584 311.221 137.653 310.965 138.145C310.709 138.637 306.118 154.721 306.118 154.721Z" fill="white" stroke="#263238" stroke-width="1.2" stroke-linecap="round" stroke-linejoin="round"/>
<path d="M312.376 192.978L311.503 201.708L300.739 229.928L298.41 262.798L302.772 263.093L311.215 231.089L322.556 210.144L327.791 229.344L343.954 261.191L348.086 258.751L337.978 226.143L332.159 192.689L329.831 189.199L312.376 192.978Z" fill="#263238" stroke="#263238" stroke-width="1.2" stroke-linecap="round" stroke-linejoin="round"/>
<path d="M309.338 148.93C308.689 149.875 307.991 150.786 307.246 151.658C306.308 152.701 304.976 153.029 304.622 153.843C303.968 155.024 303.255 156.171 302.484 157.28C302.484 157.28 306.806 156.467 309.043 154.656C311.28 152.846 312.002 149.212 312.002 149.212C312.002 149.212 310.329 148.339 309.338 148.93Z" fill="white" stroke="#263238" stroke-width="1.2" stroke-linecap="round" stroke-linejoin="round"/>
<path d="M286.76 184.496C286.76 184.496 269.672 179.091 268.019 178.31C267.271 177.963 266.454 177.788 265.629 177.797C264.804 177.806 263.992 177.999 263.251 178.363C261.716 179.019 260.181 178.513 260.141 179.196C260.102 179.878 261.093 180.271 261.657 180.035C262.373 179.856 263.109 179.763 263.848 179.76L257.288 182.561C257.288 182.561 257.15 183.774 258.023 183.873C258.895 183.971 260.161 184.614 261.453 184.529C262.746 184.443 268.341 180.927 268.341 180.927C271.342 182.395 274.243 184.058 277.026 185.906C281.257 188.766 287.823 191.843 290.001 191.475C292.179 191.108 294.743 187.572 294.422 186.09C293.031 179.793 286.76 184.496 286.76 184.496Z" fill="white" stroke="#263238" stroke-width="1.2" stroke-linecap="round" stroke-linejoin="round"/>
<path d="M308.223 170.68C308.223 170.68 303.127 177.24 300.352 180.69C297.577 184.141 294.789 190.162 292.48 190.005C290.171 189.848 287.318 185.23 287.462 183.983C287.607 182.737 290.742 180.048 292.579 175.193C293.93 171.592 296.305 165.485 297.433 162.599C297.846 161.543 297.931 160.73 298.83 160.047L300.214 158.945" fill="white"/>
<path d="M308.223 170.68C308.223 170.68 303.127 177.24 300.352 180.69C297.577 184.141 294.789 190.162 292.48 190.005C290.171 189.848 287.318 185.23 287.462 183.983C287.607 182.737 290.742 180.048 292.579 175.193C293.93 171.592 296.305 165.485 297.433 162.599C297.846 161.543 297.931 160.73 298.83 160.047L300.214 158.945" stroke="#263238" stroke-width="1.2" stroke-linecap="round" stroke-linejoin="round"/>
<path d="M287.462 183.983C287.541 183.275 288.623 182.068 289.87 180.264C290.349 181.11 291.392 183.196 292.789 184.199C294.081 185.034 295.466 185.716 296.915 186.233C294.724 188.916 293.746 190.09 292.48 190.005C290.165 189.854 287.318 185.229 287.462 183.983Z" fill="white" stroke="#263238" stroke-width="1.2" stroke-linecap="round" stroke-linejoin="round"/>
<path d="M314.107 130.955C314.914 129.085 315.557 127.583 315.557 127.583C315.557 127.583 315.367 127.301 317.368 127.347C319.368 127.393 324.924 128.003 325.042 128.888C325.175 130.688 324.747 132.485 323.816 134.031C322.268 132.765 317.518 130.561 314.107 130.955Z" fill="white" stroke="#263238" stroke-width="1.2" stroke-linecap="round" stroke-linejoin="round"/>
<path d="M304.498 175.751C306.704 174.217 309.14 173.041 311.713 172.268" stroke="#263238" stroke-width="1.2" stroke-linecap="round" stroke-linejoin="round"/>
<path d="M303.724 141.712C303.724 141.712 296.626 136.563 298.817 131.998C301.008 127.432 304.262 125.851 307.246 127.268C310.231 128.685 309.286 130.285 309.286 130.285C309.286 130.285 312.566 130.187 313.714 132.667C314.05 133.356 314.189 134.126 314.116 134.889C314.043 135.653 313.761 136.382 313.301 136.996C314.423 138.561 315.016 140.443 314.993 142.368C314.914 145.504 309.424 150.01 308.309 150.325C307.194 150.64 306.341 148.941 306.341 148.941C306.341 148.941 307.935 146.094 307.226 145.694C306.518 145.294 304.747 146.848 304.747 146.848C304.747 146.848 303.861 147.623 303.606 145.681C303.459 144.359 303.498 143.023 303.724 141.712Z" fill="#263238" stroke="#263238" stroke-width="1.2" stroke-linecap="round" stroke-linejoin="round"/>
<path d="M298.423 262.797C298.423 262.797 295.144 265.998 291.949 266.87C290.321 267.266 288.744 267.851 287.252 268.615L286.524 269.881C286.462 269.989 286.429 270.112 286.429 270.236C286.43 270.361 286.463 270.483 286.525 270.591C286.588 270.699 286.678 270.788 286.786 270.85C286.894 270.912 287.016 270.944 287.141 270.944H303.081C303.312 269.698 303.409 268.432 303.369 267.166C303.412 265.784 303.215 264.406 302.786 263.092L298.423 262.797Z" fill="white" stroke="#263238" stroke-width="1.2" stroke-linecap="round" stroke-linejoin="round"/>
<path d="M343.953 261.19L343.717 263.624C343.717 263.624 342.714 266.136 341.198 267.146C339.683 268.156 337.846 268.156 337.846 269.16V271.01H344.058C344.058 271.01 345.37 271.174 347.246 269.495C349.122 267.815 349.431 266.307 350.769 265.467C352.107 264.627 352.114 263.453 351.425 261.603C350.736 259.754 348.066 258.75 348.066 258.75L343.953 261.19Z" fill="white" stroke="#263238" stroke-width="1.2" stroke-linecap="round" stroke-linejoin="round"/>
</svg>
