<svg width="402" height="404" viewBox="0 0 402 404" fill="none" xmlns="http://www.w3.org/2000/svg">
<path d="M12.7123 156.965C12.7123 156.965 -3.75468 227.224 42.0784 288.492C87.9115 349.76 167.765 373.527 231.998 394.517C296.23 415.507 356.323 391.279 378.872 337.322C401.421 283.365 355.873 254.318 345.828 183.85C335.783 113.382 343.797 93.0948 296.943 39.4344C250.089 -14.226 153.922 -12.9306 88.9105 42.146C23.8989 97.2225 12.7123 156.965 12.7123 156.965Z" fill="#2AB6C5"/>
<path opacity="0.7" d="M12.7123 156.965C12.7123 156.965 -3.75468 227.224 42.0784 288.492C87.9115 349.76 167.765 373.527 231.998 394.517C296.23 415.507 356.323 391.279 378.872 337.322C401.421 283.365 355.873 254.318 345.828 183.85C335.783 113.382 343.797 93.0948 296.943 39.4344C250.089 -14.226 153.922 -12.9306 88.9105 42.146C23.8989 97.2225 12.7123 156.965 12.7123 156.965Z" fill="white"/>
<path d="M375.085 210.24C375.085 210.24 375.085 205.651 368.652 199.262C362.219 192.873 358.102 189.162 358.102 189.162C358.102 189.162 354.886 199.712 360.847 206.145C365.251 210.666 370.024 214.812 375.118 218.539L375.085 210.24Z" fill="#2AB6C5"/>
<path d="M365.754 238.916C365.754 238.916 365.754 234.327 359.332 227.938C352.909 221.548 348.771 217.838 348.771 217.838C348.771 217.838 345.554 228.322 351.526 234.788C355.929 239.311 360.702 243.457 365.798 247.182L365.754 238.916Z" fill="#2AB6C5"/>
<path d="M374.679 218.067C374.679 218.067 375.162 213.5 382.232 207.781C389.302 202.061 393.857 198.855 393.857 198.855C393.857 198.855 395.932 209.702 389.323 215.454C384.483 219.489 379.313 223.11 373.866 226.278L374.679 218.067Z" fill="#2AB6C5"/>
<path d="M363.415 251.923C363.415 251.923 364.371 247.433 372 242.493C379.63 237.553 384.449 234.809 384.449 234.809C384.449 234.809 385.371 245.787 378.192 250.847C372.966 254.344 367.458 257.399 361.725 259.981L363.415 251.923Z" fill="#2AB6C5"/>
<path d="M365.534 288.843C365.534 288.843 365.534 284.255 371.956 277.865C378.379 271.476 382.517 267.766 382.517 267.766C382.517 267.766 385.734 278.326 379.762 284.76C375.357 289.28 370.583 293.425 365.49 297.154L365.534 288.843Z" fill="#2AB6C5"/>
<path d="M365.425 297.856C365.425 297.856 366.072 293.311 360.627 286.033C355.182 278.755 351.614 274.539 351.614 274.539C351.614 274.539 346.927 284.529 351.922 291.742C355.625 296.835 359.749 301.608 364.25 306.013L365.425 297.856Z" fill="#2AB6C5"/>
<path d="M359.09 324.554C359.09 324.554 359.09 319.966 365.512 313.576C371.935 307.187 376.073 303.477 376.073 303.477C376.073 303.477 379.29 314.037 373.318 320.46C368.916 324.983 364.142 329.129 359.046 332.854L359.09 324.554Z" fill="#2AB6C5"/>
<path d="M363.372 348.771C363.372 348.771 362.219 344.324 366.808 336.486C371.397 328.648 374.492 324.037 374.492 324.037C374.492 324.037 380.278 333.434 376.128 341.174C373.03 346.659 369.476 351.874 365.502 356.762L363.372 348.771Z" fill="#2AB6C5"/>
<path d="M375.667 209.064C375.343 213.85 374.756 218.614 373.91 223.336C371.363 236.455 365.018 244.93 362.471 256.786C359.924 268.642 367.225 283.912 365.271 299.15C363.317 314.387 357.388 322.84 359.09 333.006C360.792 343.172 369.706 370.682 369.706 370.682" stroke="#263238" stroke-width="0.5" stroke-linecap="round" stroke-linejoin="round"/>
<path d="M374.614 221.119L381.541 215.795" stroke="#263238" stroke-width="0.5" stroke-linecap="round" stroke-linejoin="round"/>
<path d="M374.942 214.994L372.044 209.834" stroke="#263238" stroke-width="0.5" stroke-linecap="round" stroke-linejoin="round"/>
<path d="M362.855 256.228C362.855 256.228 368.652 251.837 374.613 247.533" stroke="#263238" stroke-width="0.5" stroke-linecap="round" stroke-linejoin="round"/>
<path d="M365.753 247.181C365.753 247.181 360.923 237.707 355.445 231.428" stroke="#263238" stroke-width="0.5" stroke-linecap="round" stroke-linejoin="round"/>
<path d="M365.754 295.375C369.067 289.286 373.246 283.71 378.159 278.82" stroke="#263238" stroke-width="0.5" stroke-linecap="round" stroke-linejoin="round"/>
<path d="M364.634 301.873C362.869 297.733 360.765 293.745 358.343 289.951C354.962 284.956 354.479 284.309 354.479 284.309" stroke="#263238" stroke-width="0.5" stroke-linecap="round" stroke-linejoin="round"/>
<path d="M359.09 332.996C360.554 329.347 362.297 325.816 364.304 322.435C366.311 319.299 368.577 316.335 371.078 313.576" stroke="#263238" stroke-width="0.5" stroke-linecap="round" stroke-linejoin="round"/>
<path d="M365.468 356.763C365.132 353.281 365.73 349.771 367.203 346.597C369.618 341.921 372.362 335.806 373.493 333.424" stroke="#263238" stroke-width="0.5" stroke-linecap="round" stroke-linejoin="round"/>
<path d="M332.996 271.574C332.996 271.574 332.502 268.698 335.828 263.966C339.154 259.235 341.317 256.49 341.317 256.49C341.317 256.49 344.479 262.759 341.438 267.468C339.18 270.783 336.646 273.901 333.863 276.789L332.996 271.574Z" fill="#2AB6C5"/>
<path d="M341.953 288.546C341.953 288.546 341.459 285.659 344.796 280.938C348.134 276.218 350.285 273.451 350.285 273.451C350.285 273.451 353.447 279.731 350.395 284.429C348.135 287.742 345.601 290.859 342.82 293.749L341.953 288.546Z" fill="#2AB6C5"/>
<path d="M334.093 276.437C334.093 276.437 333.303 273.626 328.242 270.805C323.181 267.984 320.019 266.469 320.019 266.469C320.019 266.469 319.899 273.495 324.663 276.349C328.14 278.355 331.779 280.066 335.542 281.465L334.093 276.437Z" fill="#2AB6C5"/>
<path d="M344.841 296.45C344.841 296.45 343.743 293.738 338.429 291.466C333.116 289.193 329.79 288.008 329.79 288.008C329.79 288.008 330.405 295.012 335.454 297.383C339.121 299.013 342.918 300.332 346.806 301.324L344.841 296.45Z" fill="#2AB6C5"/>
<path d="M347.519 319.823C347.519 319.823 347.025 316.947 342.294 313.609C337.562 310.272 334.609 308.428 334.609 308.428C334.609 308.428 333.742 315.399 338.177 318.78C341.423 321.137 344.86 323.219 348.453 325.005L347.519 319.823Z" fill="#2AB6C5"/>
<path d="M348.562 325.465C348.562 325.465 347.661 322.687 350.285 317.527C352.909 312.368 354.676 309.338 354.676 309.338C354.676 309.338 358.694 315.101 356.345 320.162C354.578 323.766 352.51 327.214 350.164 330.471L348.562 325.465Z" fill="#2AB6C5"/>
<path d="M356.631 348.684C356.631 348.684 356.96 345.786 361.494 342.185C366.028 338.584 368.905 336.564 368.905 336.564C368.905 336.564 370.167 343.481 365.93 347.103C362.833 349.645 359.528 351.922 356.049 353.91L356.631 348.684Z" fill="#2AB6C5"/>
<path d="M355.434 341.525C355.434 341.525 354.94 338.649 350.209 335.312C345.477 331.974 342.524 330.119 342.524 330.119C342.524 330.119 341.657 337.09 346.103 340.482C349.344 342.841 352.778 344.923 356.367 346.707L355.434 341.525Z" fill="#2AB6C5"/>
<path d="M355.435 357.17C355.435 357.17 355.676 354.26 351.944 349.836C348.211 345.412 345.796 342.865 345.796 342.865C345.796 342.865 343.194 349.386 346.63 353.843C349.171 356.946 351.965 359.832 354.984 362.472L355.435 357.17Z" fill="#2AB6C5"/>
<path d="M332.501 270.904C333.223 273.879 334.11 276.811 335.158 279.687C338.177 287.635 343.073 292.256 345.96 299.447C348.847 306.638 345.96 317.012 348.793 326.321C351.625 335.63 356.312 340.318 356.356 346.883C356.4 353.448 353.809 371.66 353.809 371.66" stroke="#263238" stroke-width="0.5" stroke-linecap="round" stroke-linejoin="round"/>
<path d="M334.466 278.338L329.548 275.758" stroke="#263238" stroke-width="0.5" stroke-linecap="round" stroke-linejoin="round"/>
<path d="M333.599 274.538L334.861 270.992" stroke="#263238" stroke-width="0.5" stroke-linecap="round" stroke-linejoin="round"/>
<path d="M345.653 299.085C345.653 299.085 341.547 296.988 337.331 294.902" stroke="#263238" stroke-width="0.5" stroke-linecap="round" stroke-linejoin="round"/>
<path d="M342.854 293.728C344.059 289.916 345.652 286.238 347.607 282.75" stroke="#263238" stroke-width="0.5" stroke-linecap="round" stroke-linejoin="round"/>
<path d="M348.09 323.949C345.35 320.483 342.122 317.432 338.506 314.893" stroke="#263238" stroke-width="0.5" stroke-linecap="round" stroke-linejoin="round"/>
<path d="M349.495 327.87C350.148 325.082 351.033 322.353 352.141 319.713C353.722 316.211 353.952 315.75 353.952 315.75" stroke="#263238" stroke-width="0.5" stroke-linecap="round" stroke-linejoin="round"/>
<path d="M356.126 351.789C357.729 349.811 359.499 347.975 361.417 346.3C362.642 345.4 363.791 344.402 364.853 343.314" stroke="#263238" stroke-width="0.5" stroke-linecap="round" stroke-linejoin="round"/>
<path d="M356.357 346.817C355.051 344.687 353.582 342.661 351.966 340.757C350.366 339.011 348.625 337.399 346.762 335.938" stroke="#263238" stroke-width="0.5" stroke-linecap="round" stroke-linejoin="round"/>
<path d="M354.929 362.417C354.765 360.194 354.007 358.056 352.733 356.226C350.714 353.558 348.342 350.012 347.365 348.629" stroke="#263238" stroke-width="0.5" stroke-linecap="round" stroke-linejoin="round"/>
<path d="M340.68 368.422H382.726V399.929C382.726 400.802 382.379 401.64 381.761 402.257C381.144 402.875 380.306 403.222 379.432 403.222H344.017C343.144 403.222 342.306 402.875 341.689 402.257C341.071 401.64 340.724 400.802 340.724 399.929V368.422H340.68Z" fill="#263238"/>
<path d="M382.352 373.899H340.636C339.762 373.899 338.925 373.552 338.307 372.935C337.69 372.317 337.343 371.479 337.343 370.606C337.343 369.732 337.69 368.895 338.307 368.277C338.925 367.659 339.762 367.312 340.636 367.312H382.352C383.226 367.312 384.063 367.659 384.681 368.277C385.299 368.895 385.646 369.732 385.646 370.606C385.646 371.479 385.299 372.317 384.681 372.935C384.063 373.552 383.226 373.899 382.352 373.899Z" fill="#263238"/>
<path d="M302.377 80.8534C322.992 80.8534 339.703 64.1424 339.703 43.5283C339.703 22.9142 322.992 6.20312 302.377 6.20312C281.763 6.20312 265.052 22.9142 265.052 43.5283C265.052 64.1424 281.763 80.8534 302.377 80.8534Z" fill="#263238"/>
<path d="M314.543 73.5254C331.111 66.8044 339.094 47.9246 332.373 31.3562C325.652 14.7878 306.772 6.80486 290.204 13.5259C273.635 20.2469 265.652 39.1267 272.373 55.6951C279.094 72.2635 297.974 80.2464 314.543 73.5254Z" fill="white"/>
<path d="M281.376 49.4795L302.377 43.5294V14.1523" stroke="#263238" stroke-width="2" stroke-miterlimit="10"/>
<path d="M121.274 210.395H80.2932L26.6438 66.4082H67.6246L121.274 210.395Z" fill="#263238"/>
<path opacity="0.2" d="M121.274 210.395H80.2932L26.6438 66.4082H67.6246L121.274 210.395Z" fill="white"/>
<path d="M56.6794 101.583H46.1405C45.4219 101.539 44.7305 101.293 44.1472 100.871C43.5639 100.449 43.1129 99.8693 42.8471 99.2003L38.7743 88.2772C38.633 88.0271 38.562 87.7434 38.5688 87.4562C38.5757 87.1691 38.6601 86.8891 38.8131 86.646C38.9662 86.4029 39.1822 86.2058 39.4382 86.0755C39.6942 85.9452 39.9807 85.8866 40.2673 85.906H50.8062C51.5228 85.9506 52.2122 86.197 52.7949 86.6165C53.3776 87.036 53.8299 87.6117 54.0995 88.2772L58.1724 99.2003C58.6554 100.518 57.9967 101.583 56.6794 101.583Z" fill="#263238"/>
<path d="M70.3362 73.6866H29.3554L26.6438 66.4082H67.6246L70.3362 73.6866Z" fill="#263238"/>
<path d="M43.3633 74.8848L44.5379 78.0464" stroke="#263238" stroke-linecap="round" stroke-linejoin="round"/>
<path d="M44.9441 74.8848L46.1187 78.0464" stroke="#263238" stroke-linecap="round" stroke-linejoin="round"/>
<path d="M46.5139 74.8848L47.6995 78.0464" stroke="#263238" stroke-linecap="round" stroke-linejoin="round"/>
<path d="M48.0945 74.8848L49.2691 78.0464" stroke="#263238" stroke-linecap="round" stroke-linejoin="round"/>
<path d="M49.6753 74.8848L50.8499 78.0464" stroke="#263238" stroke-linecap="round" stroke-linejoin="round"/>
<path d="M51.2563 74.8848L52.431 78.0464" stroke="#263238" stroke-linecap="round" stroke-linejoin="round"/>
<path d="M52.8369 74.8848L54.0116 78.0464" stroke="#263238" stroke-linecap="round" stroke-linejoin="round"/>
<path d="M54.4177 74.8848L55.5924 78.0464" stroke="#263238" stroke-linecap="round" stroke-linejoin="round"/>
<path d="M55.988 74.8848L57.1737 78.0464" stroke="#263238" stroke-linecap="round" stroke-linejoin="round"/>
<path d="M57.5684 74.8848L58.743 78.0464" stroke="#263238" stroke-linecap="round" stroke-linejoin="round"/>
<path d="M53.2653 94.7312L43.3851 88.4408C43.2931 88.3681 43.1821 88.3233 43.0654 88.3116C42.9487 88.3 42.8311 88.3219 42.7264 88.3749C42.6422 88.4385 42.5852 88.5316 42.5669 88.6354C42.5486 88.7393 42.5703 88.8463 42.6276 88.9348L47.1725 98.7382C47.2321 98.862 47.3179 98.9713 47.4241 99.0586C47.5303 99.1458 47.6542 99.2088 47.7873 99.2431H47.941C48.0226 99.2494 48.1039 99.2279 48.1716 99.182C48.2394 99.1362 48.2897 99.0687 48.3142 98.9907L49.412 95.7631H53.3641C53.4153 95.7678 53.4669 95.7616 53.5155 95.7448C53.5641 95.728 53.6086 95.7011 53.646 95.6658C53.6834 95.6304 53.7128 95.5876 53.7324 95.54C53.7519 95.4925 53.7611 95.4413 53.7593 95.3899C53.738 95.2478 53.6817 95.1131 53.5955 94.9982C53.5092 94.8832 53.3958 94.7915 53.2653 94.7312Z" fill="white"/>
<path d="M53.0677 95.1693L43.1436 88.8789L47.6884 98.6823L48.8192 95.2132L53.0677 95.1693Z" fill="#263238"/>
<path d="M71.6097 95.1693L61.6855 88.8789L66.2414 98.6823L67.3612 95.2132L71.6097 95.1693Z" fill="white"/>
<path d="M76.692 100.747L75.8028 98.7266L74.6282 100.428L76.692 100.747Z" fill="white"/>
<path d="M100.668 165.1L99.7786 163.08L98.604 164.782L100.668 165.1Z" fill="white"/>
<path d="M108.034 184.85L107.134 182.83L105.97 184.521L108.034 184.85Z" fill="white"/>
<path d="M115.576 205.094L114.676 203.074L113.512 204.776L115.576 205.094Z" fill="white"/>
<path d="M73.3224 142.299L72.4222 140.279L71.2585 141.97L73.3224 142.299Z" fill="white"/>
<path d="M81.819 165.1L80.9188 163.08L79.7551 164.782L81.819 165.1Z" fill="white"/>
<path d="M89.1742 184.85L88.285 182.83L87.1104 184.521L89.1742 184.85Z" fill="white"/>
<path d="M96.7272 205.094L95.827 203.074L94.6633 204.776L96.7272 205.094Z" fill="white"/>
<path d="M53.2654 122.418L54.9889 123.527L59.7314 113.635L58.0079 112.516L53.2654 122.418Z" fill="white"/>
<path d="M55.395 112.723C52.881 110.769 52.7054 110.374 53.3202 108.156C52.0247 109.935 51.6405 109.968 48.929 108.519C51.4429 110.484 51.6186 110.879 51.0038 113.096C52.2553 111.318 52.6395 111.285 55.395 112.723Z" fill="white"/>
<path d="M63.6725 113.79C62.1246 112.583 62.0148 112.341 62.3881 110.969C61.5867 112.067 61.3561 112.067 59.6545 111.199C61.2024 112.407 61.3122 112.648 60.928 114.021C61.7294 112.923 61.9709 112.901 63.6725 113.79Z" fill="white"/>
<path d="M63.2005 118.445C62.1027 117.577 62.0148 117.413 62.2893 116.436C61.7184 117.215 61.5428 117.226 60.3352 116.589C61.433 117.456 61.5098 117.632 61.2464 118.609C61.8172 117.819 61.9819 117.808 63.2005 118.445Z" fill="white"/>
<path d="M88.0764 162.322L89.1413 163.08L93.8838 153.177L92.8189 152.42L88.0764 162.322Z" fill="white"/>
<path d="M84.1025 119.86L75.353 114.316L79.36 122.967L80.359 119.904L84.1025 119.86Z" fill="white"/>
<path d="M77.5157 120.375C74.3101 120.375 70.9948 118.476 70.1275 116.149C69.2602 113.821 71.1704 111.955 74.3979 111.955C77.6255 111.955 80.9188 113.854 81.7861 116.171C82.6534 118.487 80.7322 120.375 77.5157 120.375ZM74.5626 112.438C71.6315 112.438 69.875 114.107 70.6325 116.149C71.39 118.191 74.3979 119.859 77.329 119.859C80.2602 119.859 82.0276 118.202 81.2592 116.149C80.4907 114.096 77.4937 112.438 74.5626 112.438Z" fill="white"/>
<path d="M73.6625 119.53C73.233 119.499 72.8209 119.348 72.4734 119.093C72.1259 118.839 71.857 118.492 71.6974 118.092C71.6123 117.941 71.5695 117.769 71.5735 117.596C71.5776 117.422 71.6283 117.253 71.7204 117.106C71.8126 116.959 71.9426 116.839 72.097 116.76C72.2514 116.68 72.4243 116.644 72.5976 116.654C73.0271 116.685 73.4392 116.837 73.7867 117.091C74.1342 117.345 74.4031 117.692 74.5627 118.092C74.6478 118.244 74.6906 118.415 74.6866 118.589C74.6825 118.762 74.6318 118.931 74.5397 119.079C74.4475 119.226 74.3174 119.345 74.1631 119.425C74.0087 119.504 73.8358 119.541 73.6625 119.53ZM72.7842 117.17C72.6722 117.161 72.5598 117.182 72.4592 117.233C72.3586 117.283 72.2737 117.36 72.2137 117.455C72.1537 117.55 72.1209 117.659 72.1189 117.772C72.117 117.884 72.1458 117.995 72.2024 118.092C72.304 118.353 72.4778 118.579 72.7033 118.744C72.9289 118.909 73.1969 119.007 73.4759 119.025C73.9808 119.025 74.2443 118.608 74.0577 118.092C73.9522 117.835 73.7771 117.613 73.5522 117.45C73.3272 117.287 73.0613 117.19 72.7842 117.17Z" fill="white"/>
<path d="M73.8054 121.035L73.4541 120.552C73.7118 120.486 73.9451 120.348 74.1262 120.153C74.3073 119.959 74.4284 119.716 74.4751 119.454C74.4894 119.014 74.3582 118.582 74.1018 118.224L74.519 118.049C74.857 118.522 75.0305 119.093 75.013 119.674C74.9624 119.992 74.8219 120.289 74.608 120.531C74.394 120.772 74.1155 120.947 73.8054 121.035Z" fill="white"/>
<path d="M68.3162 135.305L62.2014 130.859L60.906 132.923L67.0207 137.369L68.3162 135.305Z" fill="white"/>
<path d="M58.524 141.069L59.523 141.793L61.7186 138.237C61.6002 138.135 61.5173 137.998 61.4818 137.846C61.4462 137.694 61.46 137.535 61.521 137.391C61.6856 137.117 62.1357 137.117 62.509 137.391C62.6771 137.486 62.8067 137.637 62.8749 137.818C62.9431 137.998 62.9457 138.197 62.8822 138.379C62.7847 138.491 62.6505 138.565 62.5037 138.587C62.3569 138.609 62.207 138.578 62.0808 138.5L59.8852 142.057L60.8184 142.738L66.3074 141.179L66.6477 137.885L60.6208 133.494L57.9312 135.009L58.524 141.069Z" fill="white"/>
<path d="M52.749 127.096H88.0213" stroke="#263238" stroke-linecap="round" stroke-linejoin="round"/>
<path d="M83.4219 130.859L82.1265 132.923L88.2412 137.369L89.5366 135.305L83.4219 130.859Z" fill="white"/>
<path d="M79.0962 135.01L79.7439 141.059L80.7429 141.784L82.9385 138.227C82.8201 138.125 82.7372 137.988 82.7017 137.836C82.6662 137.685 82.6799 137.525 82.7409 137.382C82.9056 137.107 83.3557 137.107 83.7289 137.382C83.8971 137.476 84.0266 137.627 84.0948 137.808C84.1631 137.988 84.1656 138.187 84.1022 138.37C84.0046 138.482 83.8705 138.555 83.7236 138.577C83.5768 138.599 83.427 138.569 83.3008 138.49L81.1052 142.047L82.0383 142.728L87.5273 141.169L87.8676 137.876L81.8407 133.484L79.0962 135.01Z" fill="white"/>
<path d="M77.5816 136.799C77.6475 136.371 77.7024 135.91 77.7463 135.394C77.7959 134.9 77.7446 134.401 77.5955 133.927C77.4464 133.453 77.2027 133.015 76.879 132.638C76.164 131.84 75.2341 131.264 74.2004 130.98C74.0358 130.98 73.904 130.98 73.926 131.178C73.942 131.262 73.9814 131.339 74.0397 131.401C74.098 131.464 74.1728 131.508 74.2553 131.529C75.0951 131.774 75.8535 132.241 76.4509 132.88C76.7122 133.193 76.9081 133.556 77.0269 133.946C77.1457 134.336 77.185 134.746 77.1425 135.152C77.1425 135.657 77.0328 136.118 76.9779 136.535C76.6815 138.731 76.5058 140.048 80.1505 142.233C80.2082 142.274 80.2771 142.297 80.3481 142.299C80.3865 142.301 80.4246 142.291 80.4578 142.272C80.4909 142.252 80.5177 142.223 80.5347 142.189C80.548 142.108 80.5349 142.025 80.4973 141.952C80.4598 141.878 80.3998 141.819 80.3261 141.783C77.1755 139.884 77.2962 138.983 77.5816 136.799Z" fill="white"/>
<path d="M61.9712 151.476L62.1907 152.046C62.5031 152.928 62.8697 153.79 63.2885 154.626L64.3095 154.374C64.0241 153.803 63.7713 153.217 63.552 152.617H67.9432L71.5879 162.41H69.9522L70.3803 163.507H74.7715L74.3434 162.41H72.7186L69.052 152.573H73.3005L74.058 154.637H75.2106L74.2336 152.002L74.014 151.432L61.9712 151.476Z" fill="white"/>
<path opacity="0.44" d="M84.8929 178.614C85.837 181.139 83.7951 183.181 80.2822 183.181C76.7692 183.181 73.2123 181.139 72.2792 178.614C71.3461 176.09 73.377 174.059 76.89 174.059C80.4029 174.059 83.9598 176.1 84.8929 178.614Z" fill="white"/>
<path d="M84.8929 178.614C85.837 181.139 83.7951 183.181 80.2822 183.181C76.7692 183.181 73.2123 181.139 72.2792 178.614C71.3461 176.09 73.377 174.059 76.89 174.059C80.4029 174.059 83.9598 176.1 84.8929 178.614Z" stroke="white" stroke-miterlimit="10"/>
<path d="M97.8801 178.746L102.019 171.226C102.079 171.142 102.156 171.072 102.245 171.018C102.334 170.965 102.432 170.93 102.535 170.916C102.638 170.901 102.742 170.908 102.842 170.935C102.942 170.962 103.035 171.009 103.117 171.073C103.357 171.173 103.56 171.348 103.696 171.57C103.832 171.793 103.894 172.053 103.874 172.313L101.679 180.624L97.8801 178.746Z" fill="white"/>
<path d="M97.1993 179.382C98.824 179.163 102.008 180.557 102.095 182.675C102.082 182.907 102.006 183.131 101.877 183.324C101.747 183.517 101.569 183.672 101.36 183.773C99.9086 184.428 98.3136 184.7 96.7272 184.564C96.9321 184.405 97.0845 184.188 97.1648 183.941C97.245 183.695 97.2494 183.43 97.1773 183.18C96.9583 182.574 96.7054 181.98 96.4199 181.402C96.1234 180.557 96.2771 179.426 97.1993 179.36" fill="white"/>
<path d="M88.5814 195.883C88.24 195.098 87.7303 194.397 87.0884 193.83L85.8369 195.817C86.577 196.455 87.1657 197.25 87.5605 198.144C87.9208 198.939 88.3391 199.706 88.812 200.439L90.0305 198.485C89.4734 197.661 88.9886 196.79 88.5814 195.883Z" fill="white"/>
<path d="M87.1437 198.178C86.793 197.395 86.2804 196.695 85.6397 196.125L84.3882 198.123C85.1298 198.762 85.7219 199.557 86.1227 200.45C86.4783 201.245 86.893 202.012 87.3632 202.745L88.5927 200.791C88.0277 199.968 87.5425 199.093 87.1437 198.178Z" fill="white"/>
<path d="M89.0097 195.85C89.3653 196.645 89.78 197.412 90.2502 198.144L92.0506 195.268L88.0217 192.326L87.2751 193.512C88.0139 194.158 88.6054 194.956 89.0097 195.85Z" fill="white"/>
<path d="M85.6946 200.483C85.3531 199.697 84.8434 198.996 84.2016 198.43L83.1038 200.098L83.2904 203.886C83.2983 203.953 83.3199 204.018 83.3539 204.077C83.388 204.135 83.4337 204.186 83.4883 204.226C83.5428 204.266 83.6051 204.295 83.6711 204.31C83.7372 204.325 83.8056 204.326 83.8722 204.314L87.0778 203.051C86.5439 202.236 86.0811 201.377 85.6946 200.483ZM84.2784 203.073L84.1796 201.053L86.0129 202.393L84.2784 203.073Z" fill="white"/>
<path d="M101.514 197.671L100.141 199.867L107.233 205.038L108.605 202.842L109.034 203.16L112.327 197.99L104.368 192.193L101.129 197.364L101.514 197.671ZM106.761 203.786L101.393 199.867L102.37 198.297L107.749 202.216L106.761 203.786Z" fill="white"/>
<path d="M34.5586 68.3398L34.8221 69.0314L33.8341 70.239L35.7223 71.4466L35.9748 72.1492L33.0107 70.239L34.5586 68.3398Z" fill="white"/>
<path d="M32.0779 68.3398L32.3414 69.0314L31.3534 70.239L33.2416 71.4466L33.5051 72.1492L30.53 70.239L32.0779 68.3398Z" fill="white"/>
<path d="M200.644 152.761H115.883L89.9753 80.4824H174.736L200.644 152.761Z" fill="#263238"/>
<path d="M194.629 148.82H119.067L95.9917 84.4336H171.553L194.629 148.82Z" fill="#2AB6C5"/>
<path d="M180.259 108.739L167.766 99.5391L157.897 125.162L132.307 117.938L119.067 148.819H194.629L180.259 108.739Z" fill="white"/>
<path d="M128.19 98.2218C126.433 93.3256 121.043 89.3516 116.114 89.3516C111.185 89.3516 108.671 93.3256 110.428 98.2218C112.184 103.118 117.574 107.092 122.503 107.092C127.432 107.092 129.957 103.173 128.19 98.2218Z" fill="white"/>
<path d="M209.427 140.322H124.666L98.7581 68.043H183.519L209.427 140.322Z" fill="#263238"/>
<path d="M203.411 136.381H127.85L104.774 71.9844H180.335L203.411 136.381Z" fill="#2AB6C5"/>
<path d="M189.041 96.3011L176.548 87.1016L166.679 112.724L141.089 105.501L127.85 136.382H203.411L189.041 96.3011Z" fill="white"/>
<path d="M136.972 85.7843C135.216 80.8881 129.826 76.9141 124.897 76.9141C119.968 76.9141 117.454 80.8881 119.21 85.7843C120.967 90.6805 126.357 94.6545 131.286 94.6545C136.215 94.6545 138.74 90.6805 136.972 85.7843Z" fill="white"/>
<path d="M209.811 56.7041L211.842 61.6442H211.26C210.95 60.9794 210.563 60.353 210.108 59.7779C209.617 59.2178 209.015 58.7655 208.34 58.4496C207.625 58.1486 206.854 58.0027 206.079 58.0214H203.104L208.999 74.1261C209.244 75.0238 209.691 75.8537 210.305 76.5523C210.893 77.0031 211.618 77.2359 212.358 77.211H213.094L213.302 77.7818H204.366L204.158 77.211H204.904C205.793 77.211 206.32 76.9365 206.496 76.3986C206.525 75.6128 206.359 74.8321 206.013 74.1261L200.118 58.0214H197.593C196.912 57.9845 196.23 58.0586 195.573 58.241C195.34 58.3407 195.133 58.4909 194.966 58.6808C194.799 58.8707 194.676 59.0955 194.607 59.3388C194.432 60.0903 194.482 60.8767 194.75 61.6003H194.157L192.598 56.6602L209.811 56.7041Z" fill="#505050"/>
<path d="M222.645 66.6387H229.089" stroke="#263238" stroke-width="0.5" stroke-miterlimit="10"/>
<path d="M228.88 83.7197H196.429L184.408 50.8516H216.859L228.88 83.7197Z" stroke="#263238" stroke-width="0.5" stroke-miterlimit="10"/>
<path d="M191.808 67.8461H189.37L188.481 65.4199H190.918L191.808 67.8461Z" fill="white" stroke="#263238" stroke-width="0.5" stroke-miterlimit="10"/>
<path d="M224.302 67.8461H221.865L220.976 65.4199H223.413L224.302 67.8461Z" fill="white" stroke="#263238" stroke-width="0.5" stroke-miterlimit="10"/>
<path d="M186.099 52.2464H183.673L182.784 49.8203H185.21L186.099 52.2464Z" fill="white" stroke="#263238" stroke-width="0.5" stroke-miterlimit="10"/>
<path d="M218.594 52.2464H216.168L215.279 49.8203H217.705L218.594 52.2464Z" fill="white" stroke="#263238" stroke-width="0.5" stroke-miterlimit="10"/>
<path d="M202.358 52.2464H199.931L199.042 49.8203H201.468L202.358 52.2464Z" fill="white" stroke="#263238" stroke-width="0.5" stroke-miterlimit="10"/>
<path d="M197.988 84.7425H195.551L194.662 82.3164H197.099L197.988 84.7425Z" fill="white" stroke="#263238" stroke-width="0.5" stroke-miterlimit="10"/>
<path d="M230.483 84.7425H228.046L227.157 82.3164H229.594L230.483 84.7425Z" fill="white" stroke="#263238" stroke-width="0.5" stroke-miterlimit="10"/>
<path d="M212.841 84.3008L215.201 90.7558" stroke="#263238" stroke-width="0.5" stroke-miterlimit="10"/>
<path d="M214.246 84.7425H211.809L210.92 82.3164H213.357L214.246 84.7425Z" fill="white" stroke="#263238" stroke-width="0.5" stroke-miterlimit="10"/>
<path d="M216.892 91.9762H214.455L213.566 89.5391H216.003L216.892 91.9762Z" fill="#263238"/>
<path d="M194.486 77.5625H221.745" stroke="#263238" stroke-width="0.5" stroke-miterlimit="10"/>
<path d="M230.373 66.6396C230.233 66.2825 229.995 65.9724 229.686 65.7451C229.377 65.5178 229.01 65.3826 228.628 65.3551C228.473 65.3457 228.318 65.378 228.18 65.4487C228.042 65.5194 227.925 65.626 227.842 65.7572C227.759 65.8884 227.713 66.0395 227.708 66.1947C227.703 66.35 227.74 66.5036 227.815 66.6396C227.956 66.9953 228.194 67.3038 228.503 67.5293C228.812 67.7547 229.179 67.8878 229.561 67.913C229.715 67.925 229.87 67.8947 230.009 67.8254C230.148 67.7562 230.265 67.6505 230.349 67.5198C230.432 67.389 230.478 67.2381 230.483 67.0831C230.487 66.928 230.449 66.7747 230.373 66.6396Z" fill="#263238"/>
<path opacity="0.2" d="M79.9199 240.934L109.33 266.14L81.3031 403.266H83.2023L114.38 268.654L142.945 292.608L102.611 403.101L105.136 402.684L147.566 295.133L265.624 402.684H337.463L253.438 237.992L79.9199 240.934Z" fill="#505050"/>
<path d="M83.2022 403.267H81.303L78.4597 238.586H86.0455L83.2022 403.267Z" fill="#263238" stroke="#263238" stroke-linecap="round" stroke-linejoin="round"/>
<path d="M246.62 403.267H244.721L241.878 238.586H249.464L246.62 403.267Z" fill="#263238" stroke="#263238" stroke-linecap="round" stroke-linejoin="round"/>
<path d="M258.191 236.039H75.5615V240.31H258.191V236.039Z" fill="white" stroke="#263238" stroke-linecap="round" stroke-linejoin="round"/>
<path d="M34.3278 324.456L31.0344 331.46C31.0344 331.46 35.0963 335.851 36.9406 335.851C38.7849 335.851 39.5204 334.007 41.738 333.26C43.9555 332.514 47.6331 325.521 47.6331 325.521C47.6331 325.521 45.4375 321.832 43.242 321.459C41.0464 321.086 37.753 319.988 35.8647 319.615C33.9765 319.242 34.3278 324.456 34.3278 324.456Z" fill="white" stroke="#263238" stroke-linecap="round" stroke-linejoin="round"/>
<path d="M34.3279 324.456L36.5235 328.145V331.438C36.5235 331.438 38.7191 332.536 39.4766 331.438C40.234 330.341 43.5384 326.641 43.5384 326.641L42.0564 323.348" stroke="#263238" stroke-linecap="round" stroke-linejoin="round"/>
<path d="M36.5343 331.46L32.4834 330.725" stroke="#263238" stroke-linecap="round" stroke-linejoin="round"/>
<path d="M97.8902 390.796L90.4361 392.992C90.4361 392.992 89.7884 398.964 91.007 400.347C92.2256 401.73 94.1028 401.071 96.1118 402.246C98.1207 403.421 105.827 401.554 105.827 401.554C105.827 401.554 107.145 397.46 105.959 395.56C104.773 393.661 103.412 390.423 102.468 388.798C101.524 387.173 97.8902 390.796 97.8902 390.796Z" fill="white" stroke="#263238" stroke-linecap="round" stroke-linejoin="round"/>
<path d="M97.8902 390.797L96.5838 394.903L94.0918 397.098C94.0918 397.098 94.7175 399.491 96.0349 399.294C97.3523 399.096 102.325 399.173 102.325 399.173L103.84 395.88" stroke="#263238" stroke-linecap="round" stroke-linejoin="round"/>
<path d="M94.0921 397.109L91.9624 393.574" stroke="#263238" stroke-linecap="round" stroke-linejoin="round"/>
<path d="M22.516 322.975C22.516 322.975 16.2476 327.036 17.3563 329.254C18.4651 331.472 19.2006 332.943 20.3094 333.645C21.4182 334.348 24.7006 335.49 25.7984 334.743C26.8962 333.997 29.487 332.163 29.8493 329.254C30.2116 326.345 31.3313 325.961 30.2225 324.457C29.1138 322.953 22.516 322.975 22.516 322.975Z" fill="white" stroke="#263238" stroke-linecap="round" stroke-linejoin="round"/>
<path d="M17.3118 329.252L21.703 332.205L25.3916 331.832L26.8626 327.77C26.8626 327.188 26.6313 326.629 26.2195 326.218C25.8078 325.806 25.2493 325.575 24.667 325.575C23.4718 325.525 22.3 325.916 21.3736 326.672L22.1201 328.868" stroke="#263238" stroke-linecap="round" stroke-linejoin="round"/>
<path d="M49.8179 317.814C49.8179 317.814 44.3289 322.974 45.0205 326.663C45.7121 330.351 52.7709 333.304 52.7709 333.304L61.2569 328.518L58.6661 321.931L53.1771 318.978L49.8179 317.814Z" fill="white" stroke="#263238" stroke-linecap="round" stroke-linejoin="round"/>
<path d="M45.0203 326.663L50.9264 328.88L57.5681 326.663L54.9773 320.768" stroke="#263238" stroke-linecap="round" stroke-linejoin="round"/>
<path d="M49.8178 317.814L49.4446 325.565L53.8797 327.036" stroke="#263238" stroke-linecap="round" stroke-linejoin="round"/>
<path d="M66.4165 387.162C66.4165 387.162 60.9275 392.333 61.6191 396.021C62.3107 399.71 69.3696 402.663 69.3696 402.663L77.8555 397.866L75.2757 391.224L69.7318 388.271L66.4165 387.162Z" fill="white" stroke="#263238" stroke-linecap="round" stroke-linejoin="round"/>
<path d="M61.6189 396.021L67.5251 398.228L74.1667 396.021L71.5869 390.115" stroke="#263238" stroke-linecap="round" stroke-linejoin="round"/>
<path d="M66.4167 387.162L66.0435 394.913L70.4786 396.395" stroke="#263238" stroke-linecap="round" stroke-linejoin="round"/>
<path d="M29.5303 312.281C29.5303 312.281 24.0413 317.441 24.7329 321.13C25.4245 324.818 32.4833 327.716 32.4833 327.716L40.9583 322.919L38.3785 316.332L32.8895 313.379L29.5303 312.281Z" fill="white" stroke="#263238" stroke-linecap="round" stroke-linejoin="round"/>
<path d="M24.7329 321.13L30.6391 323.347L37.2698 321.13L34.6899 315.234" stroke="#263238" stroke-linecap="round" stroke-linejoin="round"/>
<path d="M29.5307 312.281L29.1575 320.032L33.5816 321.503" stroke="#263238" stroke-linecap="round" stroke-linejoin="round"/>
<path d="M60.4776 403.267H16.6974L10.1326 330.691H67.0425L60.4776 403.267Z" fill="#263238" stroke="#2AB6C5" stroke-linecap="round" stroke-linejoin="round"/>
<path d="M31.3751 391.223C31.3751 391.223 25.0957 395.285 26.2045 397.491C27.3133 399.698 28.0488 401.18 29.1576 401.882C30.2664 402.585 33.5488 403.727 34.6466 402.98C35.7444 402.234 38.3352 400.4 38.7084 397.491C39.0817 394.582 40.1795 394.198 39.0707 392.694C37.9619 391.19 31.3751 391.223 31.3751 391.223Z" fill="white" stroke="#263238" stroke-linecap="round" stroke-linejoin="round"/>
<path d="M26.2041 397.492L30.5953 400.445L34.2839 400.083L35.755 396.021C35.755 395.438 35.5236 394.88 35.1119 394.468C34.7001 394.057 34.1417 393.825 33.5594 393.825C32.3636 393.771 31.1903 394.163 30.266 394.923L31.0015 397.119" stroke="#263238" stroke-linecap="round" stroke-linejoin="round"/>
<path d="M147.445 185.86C147.524 186.357 147.448 186.866 147.228 187.318C147.009 187.77 146.656 188.145 146.217 188.39C145.778 188.636 145.274 188.741 144.774 188.691C144.273 188.642 143.8 188.44 143.418 188.113C143.036 187.786 142.763 187.35 142.636 186.863C142.51 186.376 142.535 185.863 142.71 185.391C142.884 184.919 143.199 184.512 143.612 184.225C144.025 183.938 144.516 183.785 145.019 183.785C145.615 183.743 146.204 183.936 146.658 184.325C147.112 184.713 147.395 185.265 147.445 185.86Z" fill="#808080" stroke="#263238" stroke-linecap="round" stroke-linejoin="round"/>
<path d="M149.784 192.182C149.862 192.679 149.787 193.188 149.567 193.64C149.347 194.093 148.994 194.467 148.555 194.712C148.117 194.958 147.613 195.063 147.112 195.013C146.612 194.964 146.139 194.762 145.757 194.435C145.374 194.108 145.102 193.672 144.975 193.185C144.848 192.699 144.874 192.185 145.048 191.713C145.223 191.242 145.538 190.835 145.951 190.548C146.364 190.26 146.855 190.107 147.358 190.107C147.954 190.065 148.542 190.259 148.996 190.647C149.45 191.035 149.733 191.587 149.784 192.182Z" fill="#808080" stroke="#263238" stroke-linecap="round" stroke-linejoin="round"/>
<path d="M152.111 198.506C152.189 199.003 152.114 199.512 151.894 199.964C151.675 200.417 151.322 200.791 150.883 201.037C150.444 201.282 149.94 201.387 149.44 201.338C148.939 201.288 148.466 201.086 148.084 200.759C147.702 200.433 147.429 199.996 147.302 199.51C147.175 199.023 147.201 198.509 147.376 198.037C147.55 197.566 147.865 197.159 148.278 196.872C148.691 196.585 149.182 196.431 149.685 196.432C150.281 196.389 150.869 196.583 151.323 196.971C151.778 197.36 152.06 197.911 152.111 198.506Z" fill="#808080" stroke="#263238" stroke-linecap="round" stroke-linejoin="round"/>
<path d="M154.45 204.831C154.528 205.327 154.453 205.835 154.234 206.287C154.014 206.74 153.662 207.114 153.224 207.36C152.786 207.605 152.283 207.711 151.783 207.662C151.283 207.614 150.809 207.413 150.427 207.087C150.044 206.762 149.771 206.326 149.643 205.841C149.515 205.355 149.539 204.841 149.712 204.369C149.884 203.898 150.198 203.49 150.609 203.202C151.02 202.913 151.51 202.757 152.013 202.756C152.61 202.713 153.2 202.907 153.656 203.295C154.111 203.683 154.397 204.234 154.45 204.831Z" fill="#808080" stroke="#263238" stroke-linecap="round" stroke-linejoin="round"/>
<path d="M121.559 235.634H104.939L102.436 208.068H124.062L121.559 235.634Z" fill="#263238" stroke="#263238" stroke-linecap="round" stroke-linejoin="round"/>
<path d="M123.239 217.137L104.137 226.863L104.938 235.635H113.831L122.459 225.722L123.239 217.137Z" fill="#2AB6C5" stroke="#263238" stroke-linecap="round" stroke-linejoin="round"/>
<path d="M125.983 204.775H100.514V210.769H125.983V204.775Z" fill="#2AB6C5" stroke="#263238" stroke-linecap="round" stroke-linejoin="round"/>
<path d="M170.762 236.007H140.847C140.332 236.035 139.817 235.957 139.332 235.779C138.848 235.601 138.405 235.326 138.031 234.971C137.656 234.617 137.358 234.189 137.154 233.715C136.95 233.241 136.845 232.73 136.845 232.214C136.845 231.698 136.95 231.188 137.154 230.714C137.358 230.24 137.656 229.812 138.031 229.457C138.405 229.102 138.848 228.828 139.332 228.649C139.817 228.471 140.332 228.394 140.847 228.422H170.762C171.278 228.394 171.793 228.471 172.278 228.649C172.762 228.828 173.205 229.102 173.579 229.457C173.954 229.812 174.252 230.24 174.456 230.714C174.66 231.188 174.765 231.698 174.765 232.214C174.765 232.73 174.66 233.241 174.456 233.715C174.252 234.189 173.954 234.617 173.579 234.971C173.205 235.326 172.762 235.601 172.278 235.779C171.793 235.957 171.278 236.035 170.762 236.007Z" fill="#263238" stroke="#263238" stroke-linecap="round" stroke-linejoin="round"/>
<path d="M250.331 236.04H158.236L136.27 176.254H228.364L250.331 236.04Z" fill="#263238" stroke="#263238" stroke-linecap="round" stroke-linejoin="round"/>
<path d="M244.491 229.827H165.845L147.094 178.779H225.73L244.491 229.827Z" fill="#808080" stroke="#263238" stroke-linecap="round" stroke-linejoin="round"/>
<path d="M259.926 257.391C257.79 260.532 255.372 263.472 252.702 266.174C244.273 273.789 237.025 282.617 231.196 292.367C222.941 306.364 217.188 320.668 211.721 333.051C206.254 345.435 196.352 368.291 191.401 375.251C186.45 382.211 183.102 385.932 183.102 385.932C183.102 385.932 174.923 386.119 165.24 385.263C155.558 384.406 151.551 382.661 151.43 385.186C151.309 387.711 158.017 394.638 162.781 395.846C167.546 397.053 173.759 398.897 175.208 400.336C176.657 401.774 178.502 403.42 180.939 402.366C183.376 401.313 190.632 391.158 198.745 384.165C206.858 377.172 216.541 370.245 225.301 353.943C234.061 337.64 234.522 328.32 240.67 322.194C246.818 316.068 253.295 306.463 261.133 301.402C268.971 296.341 292.365 286.966 299.841 277.25C307.317 267.535 303.42 255.646 296.23 251.397C289.039 247.149 265.568 245.612 259.926 257.391Z" fill="#263238" stroke="#263238" stroke-linecap="round" stroke-linejoin="round"/>
<path d="M197.198 364.977C195.508 368.534 193.575 371.971 191.412 375.263C186.406 382.212 183.113 385.944 183.113 385.944C183.113 385.944 174.934 386.131 165.252 385.275C155.569 384.419 151.562 382.673 151.442 385.198C151.321 387.723 158.028 394.65 162.793 395.858C167.557 397.065 173.771 398.91 175.22 400.348C176.669 401.786 178.513 403.432 180.95 402.379C183.387 401.325 190.644 391.17 198.757 384.177C202.533 380.884 206.65 377.667 210.832 373.495C205.511 372.146 200.744 369.167 197.198 364.977Z" fill="white" stroke="#263238" stroke-linecap="round" stroke-linejoin="round"/>
<path d="M180.95 402.38C182.26 401.504 183.427 400.43 184.408 399.196C177.821 397.89 174.462 394.586 171.454 393.707C168.708 392.897 166.083 391.723 163.649 390.216L166.942 385.375L165.274 385.232C155.591 384.376 151.584 382.631 151.463 385.156C151.343 387.68 158.05 394.608 162.815 395.815C167.579 397.023 173.793 398.867 175.242 400.305C176.691 401.743 178.568 403.434 180.95 402.38Z" fill="#2AB6C5" stroke="#263238" stroke-linecap="round" stroke-linejoin="round"/>
<path d="M192.334 288.307C193.613 293.809 195.502 299.152 197.966 304.236C201.852 312.008 210.404 320.165 216.629 324.83C222.853 329.496 242.855 347.368 252.768 361.552C254.009 363.33 249.266 369.324 243.437 374.572C237.607 379.819 235.083 381.762 238.189 382.728C241.296 383.694 248.684 383.31 256.072 377.096C263.461 370.883 268.302 366.799 270.64 361.727C271.804 359.202 265.393 356.085 261.507 352.791C257.62 349.498 243.239 327.728 238.771 317.662C234.303 307.595 223.04 293.181 214.685 288.131" fill="#263238"/>
<path d="M192.334 288.307C193.613 293.809 195.502 299.152 197.966 304.236C201.852 312.008 210.404 320.165 216.629 324.83C222.853 329.496 242.855 347.368 252.768 361.552C254.009 363.33 249.266 369.324 243.437 374.572C237.607 379.819 235.083 381.762 238.189 382.728C241.296 383.694 248.684 383.31 256.072 377.096C263.461 370.883 268.302 366.799 270.64 361.727C271.804 359.202 265.393 356.085 261.507 352.791C257.62 349.498 243.239 327.728 238.771 317.662C234.303 307.595 223.04 293.181 214.685 288.131" stroke="#263238" stroke-linecap="round" stroke-linejoin="round"/>
<path d="M270.63 361.749C271.793 359.224 265.382 356.106 261.496 352.813C258.203 350.036 247.543 334.205 241.571 323.238L228.397 334.919C236.62 342.527 246.665 352.747 252.812 361.551C254.053 363.33 249.311 369.324 243.481 374.571C237.652 379.819 235.127 381.762 238.234 382.728C241.34 383.694 248.729 383.31 256.117 377.096C263.505 370.883 268.291 366.799 270.63 361.749Z" fill="white" stroke="#263238" stroke-linecap="round" stroke-linejoin="round"/>
<path d="M266.633 356.59C265.59 358.149 264.229 360.267 262.659 362.913C258.971 369.127 248.871 377.097 247.51 375.735C246.69 374.81 246.003 373.776 245.468 372.662C244.809 373.298 244.128 373.946 243.426 374.572C237.596 379.819 235.072 381.762 238.178 382.728C241.285 383.694 248.673 383.31 256.061 377.097C263.45 370.883 268.291 366.799 270.629 361.728C271.332 360.213 269.246 358.467 266.633 356.59Z" fill="#2AB6C5" stroke="#263238" stroke-linecap="round" stroke-linejoin="round"/>
<path d="M319.394 374.375H253.339V377.482H319.394V374.375Z" fill="white" stroke="#263238" stroke-linecap="round" stroke-linejoin="round"/>
<path d="M259.355 291.029L247.85 401.534C247.838 401.658 247.852 401.783 247.891 401.901C247.93 402.019 247.993 402.128 248.077 402.22C248.161 402.312 248.263 402.386 248.377 402.436C248.491 402.486 248.615 402.511 248.739 402.511C248.952 402.51 249.158 402.434 249.319 402.295C249.48 402.156 249.586 401.964 249.617 401.753L266.798 291.029H259.355Z" fill="white" stroke="#263238" stroke-linecap="round" stroke-linejoin="round"/>
<path d="M312.203 291.029L323.763 401.534C323.777 401.657 323.764 401.782 323.726 401.9C323.689 402.018 323.626 402.127 323.543 402.22C323.46 402.312 323.359 402.386 323.245 402.436C323.132 402.486 323.009 402.512 322.884 402.511C322.671 402.513 322.464 402.437 322.303 402.298C322.141 402.158 322.036 401.965 322.006 401.753L304.826 291.029H312.203Z" fill="white" stroke="#263238" stroke-linecap="round" stroke-linejoin="round"/>
<path d="M291.224 291.029L291.762 401.622C291.759 401.856 291.665 402.081 291.498 402.247C291.332 402.413 291.108 402.508 290.873 402.511C290.645 402.511 290.427 402.423 290.263 402.265C290.099 402.108 290.003 401.893 289.995 401.665L283.814 291.029H291.224Z" fill="white" stroke="#263238" stroke-linecap="round" stroke-linejoin="round"/>
<path d="M315.881 274.32H254.711C251.698 274.32 249.255 276.763 249.255 279.776V286.736C249.255 289.75 251.698 292.192 254.711 292.192H315.881C318.894 292.192 321.337 289.75 321.337 286.736V279.776C321.337 276.763 318.894 274.32 315.881 274.32Z" fill="#2AB6C5"/>
<mask id="mask0_983_8015" style="mask-type:luminance" maskUnits="userSpaceOnUse" x="249" y="274" width="73" height="19">
<path d="M315.881 274.322H254.711C251.698 274.322 249.255 276.765 249.255 279.778V286.738C249.255 289.752 251.698 292.194 254.711 292.194H315.881C318.894 292.194 321.337 289.752 321.337 286.738V279.778C321.337 276.765 318.894 274.322 315.881 274.322Z" fill="white"/>
</mask>
<g mask="url(#mask0_983_8015)">
<path opacity="0.2" d="M315.914 274.322H256.106L254.327 278.055C254.327 278.055 309.524 279.021 309.524 282.204C309.524 285.388 310.48 289.549 299.644 289.549C290.862 289.549 261.386 289.966 250.474 290.12C250.91 290.666 251.447 291.125 252.055 291.47L255.26 292.194H315.914C317.369 292.194 318.766 291.616 319.795 290.587C320.824 289.557 321.403 288.161 321.403 286.705V279.745C321.385 278.301 320.799 276.922 319.772 275.907C318.744 274.891 317.358 274.322 315.914 274.322Z" fill="#505050"/>
</g>
<path d="M315.881 274.32H254.711C251.698 274.32 249.255 276.763 249.255 279.776V286.736C249.255 289.75 251.698 292.192 254.711 292.192H315.881C318.894 292.192 321.337 289.75 321.337 286.736V279.776C321.337 276.763 318.894 274.32 315.881 274.32Z" stroke="#263238" stroke-linecap="round" stroke-linejoin="round"/>
<path d="M193.882 295.288C192.521 290.82 186.889 281.884 213.895 263.232C228.166 253.352 259.168 245.745 259.168 245.745L262.077 242.451C262.077 242.451 270.431 251.234 286.756 250.619C303.08 250.004 313.18 242.846 315.123 243.428C317.066 244.01 317.253 249.06 316.484 258.578C315.716 268.096 314.728 272.959 307.153 275.286C299.578 277.614 282.87 278.393 270.827 278.206C264.853 278.189 258.884 277.863 252.944 277.229C252.944 277.229 227.112 293.554 210.986 294.717" fill="#263238"/>
<path d="M193.882 295.288C192.521 290.82 186.889 281.884 213.895 263.232C228.166 253.352 259.168 245.745 259.168 245.745L262.077 242.451C262.077 242.451 270.431 251.234 286.756 250.619C303.08 250.004 313.18 242.846 315.123 243.428C317.066 244.01 317.253 249.06 316.484 258.578C315.716 268.096 314.728 272.959 307.153 275.286C299.578 277.614 282.87 278.393 270.827 278.206C264.853 278.189 258.884 277.863 252.944 277.229C252.944 277.229 227.112 293.554 210.986 294.717" stroke="#263238" stroke-linecap="round" stroke-linejoin="round"/>
<path d="M253.723 188.252C252.549 188.614 217.002 195.629 213.895 195.047C210.788 194.465 202.632 187.472 199.712 187.659C196.792 187.846 190.929 188.834 190.391 190.381C189.853 191.929 191.753 197.188 191.753 197.188C191.753 197.188 189.81 200.097 190.776 201.458C191.742 202.819 197.362 199.515 197.362 199.515C197.362 199.515 203.774 204.181 206.683 203.204C209.592 202.227 212.71 201.074 212.71 201.074C212.71 201.074 258.367 203.786 258.949 203.983C259.531 204.181 265.162 205.344 265.744 197.188C266.326 189.031 260.53 186.111 253.723 188.252Z" fill="white" stroke="#263238" stroke-linecap="round" stroke-linejoin="round"/>
<path d="M191.752 197.191L199.711 190.582" stroke="#263238" stroke-linecap="round" stroke-linejoin="round"/>
<path d="M194.661 194.269L198.932 180.865L200.688 181.249L198.548 190.965L194.661 194.269Z" fill="#263238"/>
<path d="M225.894 202.438C225.894 202.438 178.689 215.446 171.114 214.513C163.539 213.58 161.234 210.232 159.455 210.232C157.677 210.232 152.869 212.57 150.673 212.373C148.477 212.175 146.018 211.593 146.018 212.954C146.018 214.316 147.961 216.456 149.125 216.456C150.289 216.456 154.954 216.259 154.954 216.259C154.954 216.259 145.821 218.981 145.426 220.727C145.342 221.136 145.341 221.558 145.424 221.968C145.507 222.378 145.672 222.766 145.909 223.11C146.146 223.455 146.45 223.748 146.802 223.972C147.155 224.196 147.549 224.347 147.961 224.415C148.89 224.583 149.76 224.988 150.486 225.59C150.88 227.116 151.538 228.561 152.429 229.861C153.593 231.222 157.084 231.804 160.97 231.024C164.857 230.245 171.663 226.754 173.211 225.777C174.759 224.8 221.975 220.529 225.477 219.761C228.979 218.992 233.249 218.981 234.611 216.643C235.972 214.305 225.894 202.438 225.894 202.438Z" fill="white"/>
<mask id="mask1_983_8015" style="mask-type:luminance" maskUnits="userSpaceOnUse" x="145" y="202" width="90" height="30">
<path d="M225.894 202.436C225.894 202.436 178.689 215.444 171.114 214.511C163.539 213.578 161.234 210.23 159.455 210.23C157.677 210.23 152.869 212.568 150.673 212.371C148.477 212.173 146.018 211.591 146.018 212.952C146.018 214.314 147.961 216.454 149.125 216.454C150.289 216.454 154.954 216.257 154.954 216.257C154.954 216.257 145.821 218.979 145.426 220.725C145.342 221.134 145.341 221.556 145.424 221.966C145.507 222.376 145.672 222.764 145.909 223.109C146.146 223.453 146.45 223.746 146.802 223.97C147.155 224.194 147.549 224.345 147.961 224.413C148.89 224.581 149.76 224.986 150.486 225.588C150.88 227.114 151.538 228.559 152.429 229.859C153.593 231.22 157.084 231.802 160.97 231.022C164.857 230.243 171.663 226.752 173.211 225.775C174.759 224.798 221.975 220.527 225.477 219.759C228.979 218.99 233.249 218.979 234.611 216.641C235.972 214.303 225.894 202.436 225.894 202.436Z" fill="white"/>
</mask>
<g mask="url(#mask1_983_8015)">
<path d="M168.809 223.932C160.696 223.932 162.496 215.819 159.796 217.18C157.436 218.355 148.225 219.53 145.612 222.505C145.823 222.996 146.15 223.429 146.565 223.765C146.98 224.102 147.47 224.332 147.995 224.437C148.923 224.605 149.793 225.009 150.519 225.612C150.913 227.137 151.571 228.583 152.463 229.882C153.626 231.243 157.117 231.825 161.003 231.046C164.89 230.266 171.696 226.775 173.244 225.798C174.792 224.821 222.008 220.551 225.51 219.782C228.331 219.146 231.669 219.025 233.557 217.773L234.655 216.676L229.638 211.779C229.638 211.779 176.954 223.932 168.809 223.932Z" fill="#2AB6C5"/>
<path opacity="0.5" d="M168.809 223.932C160.696 223.932 162.496 215.819 159.796 217.18C157.436 218.355 148.225 219.53 145.612 222.505C145.823 222.996 146.15 223.429 146.565 223.765C146.98 224.102 147.47 224.332 147.995 224.437C148.923 224.605 149.793 225.009 150.519 225.612C150.913 227.137 151.571 228.583 152.463 229.882C153.626 231.243 157.117 231.825 161.003 231.046C164.89 230.266 171.696 226.775 173.244 225.798C174.792 224.821 222.008 220.551 225.51 219.782C228.331 219.146 231.669 219.025 233.557 217.773L234.655 216.676L229.638 211.779C229.638 211.779 176.954 223.932 168.809 223.932Z" fill="white"/>
</g>
<path d="M225.894 202.438C225.894 202.438 178.689 215.446 171.114 214.513C163.539 213.58 161.234 210.232 159.455 210.232C157.677 210.232 152.869 212.57 150.673 212.373C148.477 212.175 146.018 211.593 146.018 212.954C146.018 214.316 147.961 216.456 149.125 216.456C150.289 216.456 154.954 216.259 154.954 216.259C154.954 216.259 145.821 218.981 145.426 220.727C145.342 221.136 145.341 221.558 145.424 221.968C145.507 222.378 145.672 222.766 145.909 223.11C146.146 223.455 146.45 223.748 146.802 223.972C147.155 224.196 147.549 224.347 147.961 224.415C148.89 224.583 149.76 224.988 150.486 225.59C150.88 227.116 151.538 228.561 152.429 229.861C153.593 231.222 157.084 231.804 160.97 231.024C164.857 230.245 171.663 226.754 173.211 225.777C174.759 224.8 221.975 220.529 225.477 219.761C228.979 218.992 233.249 218.981 234.611 216.643C235.972 214.305 225.894 202.438 225.894 202.438Z" stroke="#263238" stroke-linecap="round" stroke-linejoin="round"/>
<path d="M265.766 154.834C265.766 154.834 261.496 166.482 256.061 174.255C250.627 182.027 248.289 190.195 251.78 198.933C252.709 201.434 254.187 203.695 256.103 205.551C258.02 207.407 260.327 208.81 262.857 209.659C262.857 209.659 260.134 235.303 260.914 242.109C261.693 248.916 272.177 256.875 287.92 257.479C303.662 258.082 317.253 252.429 317.253 246.984C317.253 241.539 306.187 212.601 306.187 206.574C306.187 200.547 307.153 181.709 301.906 164.857C296.658 148.006 278.204 142.396 265.766 154.834Z" fill="#2AB6C5"/>
<mask id="mask2_983_8015" style="mask-type:luminance" maskUnits="userSpaceOnUse" x="250" y="148" width="68" height="110">
<path d="M265.766 154.836C265.766 154.836 261.496 166.484 256.061 174.256C250.627 182.029 248.289 190.197 251.78 198.935C252.709 201.436 254.187 203.697 256.103 205.553C258.02 207.409 260.327 208.812 262.857 209.661C262.857 209.661 260.134 235.305 260.914 242.111C261.693 248.918 272.177 256.877 287.92 257.481C303.662 258.084 317.253 252.431 317.253 246.986C317.253 241.541 306.187 212.603 306.187 206.576C306.187 200.549 307.153 181.711 301.906 164.859C296.658 148.008 278.204 142.398 265.766 154.836Z" fill="white"/>
</mask>
<g mask="url(#mask2_983_8015)">
<path opacity="0.2" d="M301.905 164.738C299.084 155.638 292.421 149.863 284.934 148.414C281.322 149.215 271.453 151.521 268.994 152.103C267.843 152.922 266.764 153.837 265.766 154.836C265.766 154.836 261.496 166.484 256.061 174.256C252.406 179.471 250.166 184.861 250.133 190.471C264.471 193.863 286.361 199.385 284.165 200C281.014 200.9 267.5 193.687 271.551 198.199C275.602 202.711 297.24 223.449 290.928 221.626C284.615 219.804 270.651 204.951 274.263 212.163C277.875 219.376 287.777 231.089 284.626 231.089C281.475 231.089 264.8 214.414 270.651 224.327C276.502 234.24 303.091 250.015 294.528 252.266C289.588 253.561 279.104 253.221 273.022 254.242C277.744 256.202 282.787 257.277 287.898 257.414C303.629 257.996 317.231 252.365 317.231 246.92C317.231 241.474 306.165 212.536 306.165 206.51C306.165 200.483 307.131 181.644 301.905 164.738Z" fill="#505050"/>
</g>
<path d="M265.766 154.834C265.766 154.834 261.496 166.482 256.061 174.255C250.627 182.027 248.289 190.195 251.78 198.933C252.709 201.434 254.187 203.695 256.103 205.551C258.02 207.407 260.327 208.81 262.857 209.659C262.857 209.659 260.134 235.303 260.914 242.109C261.693 248.916 272.177 256.875 287.92 257.479C303.662 258.082 317.253 252.429 317.253 246.984C317.253 241.539 306.187 212.601 306.187 206.574C306.187 200.547 307.153 181.709 301.906 164.857C296.658 148.006 278.204 142.396 265.766 154.834Z" stroke="#263238" stroke-linecap="round" stroke-linejoin="round"/>
<path d="M268.159 201.975C268.159 201.975 282.431 225.028 303.289 231.615" stroke="#263238" stroke-linecap="round" stroke-linejoin="round"/>
<path d="M266.512 205.818C266.512 205.818 272.001 223.932 286.273 232.714" stroke="#263238" stroke-linecap="round" stroke-linejoin="round"/>
<path d="M269.455 191.305C269.455 191.305 282.354 185.684 287.645 182.051" stroke="#263238" stroke-linecap="round" stroke-linejoin="round"/>
<path d="M264.163 192.633C264.163 192.633 268.796 193.621 280.696 192.633" stroke="#263238" stroke-linecap="round" stroke-linejoin="round"/>
<path d="M264.602 157.746C261.606 159.656 258.865 161.94 256.445 164.541C251.977 169.207 230.406 201.867 230.406 201.867C230.406 201.867 236.817 215.282 238.76 215.666C240.703 216.05 274.515 187.123 277.622 183.61C280.729 180.097 282.672 173.73 281.706 170.975" fill="#2AB6C5"/>
<mask id="mask3_983_8015" style="mask-type:luminance" maskUnits="userSpaceOnUse" x="230" y="157" width="52" height="59">
<path d="M264.602 157.748C261.606 159.658 258.865 161.942 256.446 164.543C251.978 169.209 230.406 201.869 230.406 201.869C230.406 201.869 236.817 215.284 238.76 215.668C240.703 216.052 274.515 187.125 277.622 183.612C280.729 180.099 282.672 173.732 281.706 170.977" fill="white"/>
</mask>
<g mask="url(#mask3_983_8015)">
<path opacity="0.2" d="M277.622 183.591C280.728 180.089 282.672 173.711 281.706 170.955L274.021 165.027L271.562 167.563C271.562 167.563 271.397 177.509 262.549 182.878C253.701 188.246 249.935 188.29 248.585 195.041C247.235 201.793 251.736 203.604 246.334 204.504C240.933 205.404 237.322 205.854 237.322 209.466C237.357 211.255 237.492 213.039 237.728 214.813C237.984 215.18 238.338 215.468 238.749 215.647C240.703 216.031 274.515 187.082 277.622 183.591Z" fill="#505050"/>
</g>
<path d="M264.602 157.746C261.606 159.656 258.865 161.94 256.445 164.541C251.977 169.207 230.406 201.867 230.406 201.867C230.406 201.867 236.817 215.282 238.76 215.666C240.703 216.05 274.515 187.123 277.622 183.61C280.729 180.097 282.672 173.73 281.706 170.975" stroke="#263238" stroke-linecap="round" stroke-linejoin="round"/>
<path d="M223.029 203.787C223.029 203.787 229.056 218.168 230.406 219.727C231.756 221.286 238.958 220.309 241.285 218.552C243.613 216.796 243.228 213.316 243.228 213.316C243.228 213.316 234.292 197.573 233.348 196.849C232.404 196.124 231.987 197.826 227.859 199.187C223.731 200.548 222.249 201.075 223.029 203.787Z" fill="white" stroke="#263238" stroke-linecap="round" stroke-linejoin="round"/>
<path d="M232.744 118.115C232.744 118.115 232.349 123.747 233.326 125.492C234.303 127.238 237.015 128.994 237.015 131.322C237.015 133.649 235.071 136.811 235.653 138.512C236.235 140.214 239.353 140.455 239.353 140.455C239.353 140.455 245.171 147.646 246.928 150.171C248.684 152.696 249.453 151.719 252.175 150.95C254.898 150.182 260.716 145.121 264.02 141.235C267.325 137.349 261.825 125.492 254.7 117.533C247.575 109.574 236.817 109.761 234.49 112.044C232.162 114.328 232.744 118.115 232.744 118.115Z" fill="white"/>
<mask id="mask4_983_8015" style="mask-type:luminance" maskUnits="userSpaceOnUse" x="232" y="110" width="34" height="42">
<path d="M232.744 118.113C232.744 118.113 232.349 123.745 233.326 125.491C234.303 127.236 237.015 128.992 237.015 131.32C237.015 133.647 235.071 136.809 235.653 138.51C236.235 140.212 239.353 140.454 239.353 140.454C239.353 140.454 245.171 147.644 246.928 150.169C248.684 152.694 249.453 151.717 252.175 150.948C254.898 150.18 260.716 145.119 264.02 141.233C267.325 137.347 261.825 125.491 254.7 117.531C247.575 109.572 236.817 109.759 234.49 112.042C232.162 114.326 232.744 118.113 232.744 118.113Z" fill="white"/>
</mask>
<g mask="url(#mask4_983_8015)">
<path d="M248.146 112.67C247.246 117.061 246.345 124.603 249.046 129.708C253.108 137.392 256.259 141.421 254.008 147.734C253.602 148.831 253.185 149.841 252.779 150.72C255.677 149.479 260.946 144.846 264.02 141.235C267.313 137.348 261.824 125.492 254.7 117.533C252.861 115.491 250.633 113.838 248.146 112.67Z" fill="#2AB6C5"/>
<path opacity="0.5" d="M248.146 112.67C247.246 117.061 246.345 124.603 249.046 129.708C253.108 137.392 256.259 141.421 254.008 147.734C253.602 148.831 253.185 149.841 252.779 150.72C255.677 149.479 260.946 144.846 264.02 141.235C267.313 137.348 261.824 125.492 254.7 117.533C252.861 115.491 250.633 113.838 248.146 112.67Z" fill="white"/>
<path d="M237.014 126.47C237.014 126.47 237.014 123.55 240.516 125.493" stroke="#263238" stroke-linecap="round" stroke-linejoin="round"/>
<path d="M239.506 129.17L239.967 131.86C239.967 131.86 242.097 132.595 243.667 129.818" stroke="#263238" stroke-linecap="round" stroke-linejoin="round"/>
</g>
<path d="M232.744 118.115C232.744 118.115 232.349 123.747 233.326 125.492C234.303 127.238 237.015 128.994 237.015 131.322C237.015 133.649 235.071 136.811 235.653 138.512C236.235 140.214 239.353 140.455 239.353 140.455C239.353 140.455 245.171 147.646 246.928 150.171C248.684 152.696 249.453 151.719 252.175 150.95C254.898 150.182 260.716 145.121 264.02 141.235C267.325 137.349 261.825 125.492 254.7 117.533C247.575 109.574 236.817 109.761 234.49 112.044C232.162 114.328 232.744 118.115 232.744 118.115Z" stroke="#263238" stroke-linecap="round" stroke-linejoin="round"/>
<path d="M226.718 109.563V110.342L226.366 119.86L236.85 121.221L239.189 117.138V121.606C242.423 121.335 245.678 121.8 248.707 122.967C253.757 124.91 260.168 138.709 259.783 144.341C259.399 149.973 254.536 151.136 255.118 159.71C255.7 168.284 268.709 176.781 278.589 171.347C288.469 165.913 290.061 158.909 294.134 160.27C298.206 161.631 304.431 169.986 308.317 158.129C312.203 146.273 310.458 138.709 301.324 128.994C292.19 119.278 285.011 120.058 283.836 112.285C282.662 104.513 280.148 94.018 271.76 88.1338C263.373 82.2496 251.363 81.9202 241.022 86.3883C230.681 90.8563 226.718 104.513 226.718 109.563Z" fill="#263238"/>
<mask id="mask5_983_8015" style="mask-type:luminance" maskUnits="userSpaceOnUse" x="226" y="83" width="85" height="91">
<path d="M226.718 109.563V110.342L226.366 119.86L236.85 121.221L239.189 117.138V121.606C242.423 121.335 245.678 121.8 248.707 122.967C253.757 124.91 260.168 138.709 259.783 144.341C259.399 149.973 254.536 151.136 255.118 159.71C255.7 168.284 268.709 176.781 278.589 171.347C288.469 165.913 290.061 158.909 294.134 160.27C298.206 161.631 304.431 169.986 308.317 158.129C312.203 146.273 310.458 138.709 301.324 128.994C292.19 119.278 285.011 120.058 283.836 112.285C282.662 104.513 280.148 94.018 271.76 88.1338C263.373 82.2496 251.363 81.9202 241.022 86.3883C230.681 90.8563 226.718 104.513 226.718 109.563Z" fill="white"/>
</mask>
<g mask="url(#mask5_983_8015)">
<path d="M232.558 114.021C232.489 114.031 232.419 114.031 232.349 114.021C231.252 113.768 231.076 111.825 230.966 107.104C230.966 105.875 230.911 104.612 230.835 103.602C230.835 103.504 230.835 103.416 230.835 103.35C229.901 104.448 227.925 109.113 226.443 113.23L225.411 112.857C229.385 101.791 230.681 101.956 231.098 102.022C231.855 102.12 231.932 103.119 231.965 103.493C232.042 104.525 232.075 105.809 232.097 107.039C232.097 108.993 232.218 112.198 232.624 112.868C233.155 112.322 233.573 111.676 233.853 110.969C234.951 108.685 236.049 107.675 237.059 107.675C238.354 107.675 239.035 109.454 239.518 110.716C239.635 111.028 239.771 111.332 239.924 111.627C240.407 111.759 242.12 110.014 243.031 109.069L243.832 108.257C244.017 108.017 244.252 107.821 244.522 107.685C244.792 107.548 245.089 107.473 245.391 107.467C246.006 107.566 246.302 108.136 246.621 108.729C246.912 109.37 247.334 109.942 247.861 110.409C248.213 110.683 248.388 110.639 248.465 110.628C249.256 110.431 250.211 108.301 251.319 105.842C251.572 105.26 251.846 104.656 252.143 104.02C252.439 103.383 252.999 102.318 253.811 102.395C254.832 102.472 255.304 104.074 256.007 106.501C256.436 108.437 257.177 110.291 258.203 111.99C258.455 112.297 258.795 112.648 259.114 112.615C259.97 112.473 260.914 109.937 261.485 108.422C261.738 107.665 262.054 106.93 262.429 106.226C262.512 106.049 262.644 105.899 262.81 105.794C262.975 105.689 263.167 105.634 263.362 105.633C264.175 105.633 264.735 106.731 265.492 108.224C266.063 109.322 266.842 110.87 267.49 111.122C267.622 111.177 267.666 111.122 267.699 111.122C268.127 110.903 268.489 109.487 268.796 108.356C269.055 107.084 269.507 105.858 270.136 104.722C270.298 104.456 270.515 104.227 270.772 104.051C271.03 103.875 271.322 103.756 271.629 103.701C273.067 103.471 274.67 104.711 275.734 105.546C275.68 104.986 275.559 104.217 275.46 103.548C274.911 99.8919 274.757 98.1244 275.669 97.6194C276.097 97.3889 276.602 97.5206 277.173 98.0256C278.16 98.9601 279.099 99.9458 279.983 100.979C281.992 103.24 285.044 106.643 286.273 106.314C286.614 106.226 286.8 105.699 286.888 105.282L287.986 105.502C287.755 106.599 287.283 107.192 286.581 107.379C284.813 107.84 282.409 105.326 279.182 101.714C278.306 100.687 277.376 99.7084 276.393 98.7831C276.314 98.7067 276.225 98.6403 276.13 98.5855C276.054 100.172 276.175 101.761 276.492 103.317C276.887 105.897 276.964 106.61 276.492 106.907C276.383 106.979 276.255 107.017 276.124 107.017C275.993 107.017 275.866 106.979 275.756 106.907C275.57 106.775 275.328 106.599 275.065 106.38C274.198 105.71 272.748 104.601 271.771 104.744C271.614 104.773 271.464 104.836 271.333 104.929C271.202 105.022 271.093 105.142 271.014 105.282C270.461 106.316 270.061 107.426 269.828 108.575C269.4 110.2 269.038 111.605 268.171 112.045C267.999 112.125 267.811 112.167 267.622 112.167C267.432 112.167 267.245 112.125 267.073 112.045C266.041 111.638 265.261 110.101 264.504 108.63C264.204 107.947 263.837 107.296 263.406 106.687C263.065 107.347 262.779 108.034 262.55 108.74C261.738 110.936 260.815 113.395 259.311 113.625C258.925 113.651 258.54 113.567 258.198 113.385C257.857 113.203 257.573 112.929 257.379 112.593C256.261 110.799 255.455 108.828 254.997 106.764C254.755 105.607 254.333 104.496 253.746 103.471C253.526 103.78 253.339 104.111 253.186 104.459C252.889 105.084 252.615 105.699 252.362 106.27C250.99 109.333 250.079 111.353 248.762 111.671C248.488 111.726 248.205 111.716 247.937 111.642C247.668 111.567 247.42 111.431 247.214 111.243C246.57 110.686 246.054 109.997 245.699 109.223C245.586 108.973 245.438 108.74 245.26 108.532C245.26 108.532 245.084 108.532 244.656 109.004L243.865 109.816C242.043 111.682 240.879 112.802 239.88 112.725C239.714 112.709 239.553 112.656 239.41 112.568C239.267 112.481 239.147 112.362 239.057 112.22C238.85 111.872 238.677 111.504 238.541 111.122C238.234 110.31 237.641 108.806 237.048 108.784C236.872 108.784 236.137 108.949 234.852 111.463C233.908 113.252 233.239 114.021 232.558 114.021Z" fill="#575757"/>
<path d="M254.437 158.13C254.437 158.13 257.16 147.997 259.926 151.214C262.692 154.43 264.614 155.418 264.866 152.696C265.119 149.973 264.866 146.021 267.589 149.732C270.311 153.442 276.975 157.142 277.469 151.455C277.963 145.768 278.709 138.106 281.926 142.069C285.142 146.032 287.854 148.985 288.107 146.757C288.359 144.528 290.577 142.804 291.565 145.274C292.553 147.745 293.299 150.226 294.035 144.539C294.77 138.852 291.312 132.672 295.023 134.154C298.733 135.636 300.512 140.576 300.512 137.864C300.512 135.153 296.055 131.925 300.018 132.913C303.981 133.901 304.464 136.382 304.958 134.9C305.452 133.418 302.762 129.949 306.198 129.949" stroke="#575757" stroke-miterlimit="10"/>
</g>
<path d="M226.718 109.563V110.342L226.366 119.86L236.85 121.221L239.189 117.138V121.606C242.423 121.335 245.678 121.8 248.707 122.967C253.757 124.91 260.168 138.709 259.783 144.341C259.399 149.973 254.536 151.136 255.118 159.71C255.7 168.284 268.709 176.781 278.589 171.347C288.469 165.913 290.061 158.909 294.134 160.27C298.206 161.631 304.431 169.986 308.317 158.129C312.203 146.273 310.458 138.709 301.324 128.994C292.19 119.278 285.011 120.058 283.836 112.285C282.662 104.513 280.148 94.018 271.76 88.1338C263.373 82.2496 251.363 81.9202 241.022 86.3883C230.681 90.8563 226.718 104.513 226.718 109.563Z" stroke="#263238" stroke-linecap="round" stroke-linejoin="round"/>
<path d="M0 403.266H401.728" stroke="#263238" stroke-miterlimit="10"/>
</svg>
