<svg width="212" height="279" viewBox="0 0 212 279" fill="none" xmlns="http://www.w3.org/2000/svg">
<g filter="url(#filter0_dd_581_22)">
<rect x="4" y="4" width="200" height="200" rx="20" fill="white"/>
<rect x="4.5" y="4.5" width="199" height="199" rx="19.5" stroke="#81C592"/>
</g>
<mask id="mask0_581_22" style="mask-type:alpha" maskUnits="userSpaceOnUse" x="24" y="24" width="160" height="160">
<rect x="24" y="24" width="160" height="160" fill="#D9D9D9"/>
</mask>
<g mask="url(#mask0_581_22)">
<path fill-rule="evenodd" clip-rule="evenodd" d="M101.776 104C101.776 91.7268 111.726 81.7773 123.998 81.7773C136.271 81.7773 146.221 91.7268 146.221 104C146.221 116.272 136.271 126.222 123.998 126.222C111.726 126.222 101.776 116.272 101.776 104Z" fill="#1ABCFE"/>
<path fill-rule="evenodd" clip-rule="evenodd" d="M57.3335 148.445C57.3335 136.172 67.2827 126.223 79.5557 126.223H101.778V148.445C101.778 160.718 91.8285 170.667 79.5557 170.667C67.2827 170.667 57.3335 160.718 57.3335 148.445Z" fill="#0ACF83"/>
<path fill-rule="evenodd" clip-rule="evenodd" d="M101.776 37.334V81.7784H123.998C136.271 81.7784 146.221 71.829 146.221 59.5562C146.221 47.2832 136.271 37.334 123.998 37.334H101.776Z" fill="#FF7262"/>
<path fill-rule="evenodd" clip-rule="evenodd" d="M57.3337 59.5562C57.3337 71.829 67.283 81.7784 79.556 81.7784H101.778V37.334H79.556C67.283 37.334 57.3337 47.2832 57.3337 59.5562Z" fill="#F24E1E"/>
<path fill-rule="evenodd" clip-rule="evenodd" d="M57.3335 104C57.3335 116.272 67.2827 126.222 79.5557 126.222H101.778V81.7773H79.5557C67.2827 81.7773 57.3335 91.7268 57.3335 104Z" fill="#A259FF"/>
</g>
<path d="M71 246.06V249.45H62.27V254.82H68.96V258.15H62.27V267H58.07V246.06H71ZM76.1082 248.4C75.3682 248.4 74.7482 248.17 74.2482 247.71C73.7682 247.23 73.5282 246.64 73.5282 245.94C73.5282 245.24 73.7682 244.66 74.2482 244.2C74.7482 243.72 75.3682 243.48 76.1082 243.48C76.8482 243.48 77.4582 243.72 77.9382 244.2C78.4382 244.66 78.6882 245.24 78.6882 245.94C78.6882 246.64 78.4382 247.23 77.9382 247.71C77.4582 248.17 76.8482 248.4 76.1082 248.4ZM78.1782 250.38V267H73.9782V250.38H78.1782ZM88.8378 250.11C90.0778 250.11 91.1678 250.36 92.1078 250.86C93.0478 251.34 93.7878 251.97 94.3278 252.75V250.38H98.5578V267.12C98.5578 268.66 98.2478 270.03 97.6278 271.23C97.0078 272.45 96.0778 273.41 94.8378 274.11C93.5978 274.83 92.0978 275.19 90.3378 275.19C87.9778 275.19 86.0378 274.64 84.5178 273.54C83.0178 272.44 82.1678 270.94 81.9678 269.04H86.1378C86.3578 269.8 86.8278 270.4 87.5478 270.84C88.2878 271.3 89.1778 271.53 90.2178 271.53C91.4378 271.53 92.4278 271.16 93.1878 270.42C93.9478 269.7 94.3278 268.6 94.3278 267.12V264.54C93.7878 265.32 93.0378 265.97 92.0778 266.49C91.1378 267.01 90.0578 267.27 88.8378 267.27C87.4378 267.27 86.1578 266.91 84.9978 266.19C83.8378 265.47 82.9178 264.46 82.2378 263.16C81.5778 261.84 81.2478 260.33 81.2478 258.63C81.2478 256.95 81.5778 255.46 82.2378 254.16C82.9178 252.86 83.8278 251.86 84.9678 251.16C86.1278 250.46 87.4178 250.11 88.8378 250.11ZM94.3278 258.69C94.3278 257.67 94.1278 256.8 93.7278 256.08C93.3278 255.34 92.7878 254.78 92.1078 254.4C91.4278 254 90.6978 253.8 89.9178 253.8C89.1378 253.8 88.4178 253.99 87.7578 254.37C87.0978 254.75 86.5578 255.31 86.1378 256.05C85.7378 256.77 85.5378 257.63 85.5378 258.63C85.5378 259.63 85.7378 260.51 86.1378 261.27C86.5578 262.01 87.0978 262.58 87.7578 262.98C88.4378 263.38 89.1578 263.58 89.9178 263.58C90.6978 263.58 91.4278 263.39 92.1078 263.01C92.7878 262.61 93.3278 262.05 93.7278 261.33C94.1278 260.59 94.3278 259.71 94.3278 258.69ZM123.3 250.14C125.34 250.14 126.98 250.77 128.22 252.03C129.48 253.27 130.11 255.01 130.11 257.25V267H125.91V257.82C125.91 256.52 125.58 255.53 124.92 254.85C124.26 254.15 123.36 253.8 122.22 253.8C121.08 253.8 120.17 254.15 119.49 254.85C118.83 255.53 118.5 256.52 118.5 257.82V267H114.3V257.82C114.3 256.52 113.97 255.53 113.31 254.85C112.65 254.15 111.75 253.8 110.61 253.8C109.45 253.8 108.53 254.15 107.85 254.85C107.19 255.53 106.86 256.52 106.86 257.82V267H102.66V250.38H106.86V252.39C107.4 251.69 108.09 251.14 108.93 250.74C109.79 250.34 110.73 250.14 111.75 250.14C113.05 250.14 114.21 250.42 115.23 250.98C116.25 251.52 117.04 252.3 117.6 253.32C118.14 252.36 118.92 251.59 119.94 251.01C120.98 250.43 122.1 250.14 123.3 250.14ZM133.015 258.63C133.015 256.95 133.345 255.46 134.005 254.16C134.685 252.86 135.595 251.86 136.735 251.16C137.895 250.46 139.185 250.11 140.605 250.11C141.845 250.11 142.925 250.36 143.845 250.86C144.785 251.36 145.535 251.99 146.095 252.75V250.38H150.325V267H146.095V264.57C145.555 265.35 144.805 266 143.845 266.52C142.905 267.02 141.815 267.27 140.575 267.27C139.175 267.27 137.895 266.91 136.735 266.19C135.595 265.47 134.685 264.46 134.005 263.16C133.345 261.84 133.015 260.33 133.015 258.63ZM146.095 258.69C146.095 257.67 145.895 256.8 145.495 256.08C145.095 255.34 144.555 254.78 143.875 254.4C143.195 254 142.465 253.8 141.685 253.8C140.905 253.8 140.185 253.99 139.525 254.37C138.865 254.75 138.325 255.31 137.905 256.05C137.505 256.77 137.305 257.63 137.305 258.63C137.305 259.63 137.505 260.51 137.905 261.27C138.325 262.01 138.865 262.58 139.525 262.98C140.205 263.38 140.925 263.58 141.685 263.58C142.465 263.58 143.195 263.39 143.875 263.01C144.555 262.61 145.095 262.05 145.495 261.33C145.895 260.59 146.095 259.71 146.095 258.69Z" fill="#2C2C2C"/>
<defs>
<filter id="filter0_dd_581_22" x="0" y="0" width="212" height="212" filterUnits="userSpaceOnUse" color-interpolation-filters="sRGB">
<feFlood flood-opacity="0" result="BackgroundImageFix"/>
<feColorMatrix in="SourceAlpha" type="matrix" values="0 0 0 0 0 0 0 0 0 0 0 0 0 0 0 0 0 0 127 0" result="hardAlpha"/>
<feOffset dy="4"/>
<feGaussianBlur stdDeviation="2"/>
<feComposite in2="hardAlpha" operator="out"/>
<feColorMatrix type="matrix" values="0 0 0 0 0 0 0 0 0 0 0 0 0 0 0 0 0 0 0.1 0"/>
<feBlend mode="normal" in2="BackgroundImageFix" result="effect1_dropShadow_581_22"/>
<feColorMatrix in="SourceAlpha" type="matrix" values="0 0 0 0 0 0 0 0 0 0 0 0 0 0 0 0 0 0 127 0" result="hardAlpha"/>
<feOffset dx="4"/>
<feGaussianBlur stdDeviation="2"/>
<feComposite in2="hardAlpha" operator="out"/>
<feColorMatrix type="matrix" values="0 0 0 0 0 0 0 0 0 0 0 0 0 0 0 0 0 0 0.1 0"/>
<feBlend mode="normal" in2="effect1_dropShadow_581_22" result="effect2_dropShadow_581_22"/>
<feBlend mode="normal" in="SourceGraphic" in2="effect2_dropShadow_581_22" result="shape"/>
</filter>
</defs>
</svg>
