<svg width="378" height="261" viewBox="0 0 378 261" fill="none" xmlns="http://www.w3.org/2000/svg">
<path d="M272.524 55.1035H92.647V196.475H272.524V55.1035Z" stroke="#537CBC" stroke-width="1.11" stroke-miterlimit="10"/>
<path d="M273.022 196.965H92.1572V70.5977H273.022V196.965ZM93.1361 195.977H272.008V71.6122H93.1361V195.977Z" fill="#D36775"/>
<path d="M101.715 62.801C101.707 63.3163 101.546 63.8176 101.254 64.2425C100.963 64.6673 100.552 64.9968 100.074 65.19C99.5966 65.3831 99.0725 65.4314 98.5674 65.3287C98.0624 65.226 97.5987 64.9769 97.2342 64.6124C96.8698 64.248 96.6207 63.7843 96.518 63.2792C96.4153 62.7742 96.4635 62.2501 96.6567 61.7722C96.8498 61.2944 97.1794 60.884 97.6042 60.5922C98.029 60.3004 98.5304 60.1401 99.0457 60.1312C99.3979 60.1252 99.7478 60.1902 100.074 60.3222C100.401 60.4542 100.698 60.6507 100.947 60.8998C101.196 61.1489 101.392 61.4456 101.524 61.7722C101.656 62.0989 101.721 62.4487 101.715 62.801Z" stroke="#82C590" stroke-width="1.11" stroke-miterlimit="10"/>
<path d="M112.874 62.801C112.874 63.329 112.718 63.8452 112.424 64.2842C112.131 64.7232 111.714 65.0654 111.226 65.2675C110.738 65.4695 110.201 65.5224 109.684 65.4194C109.166 65.3164 108.69 65.0621 108.317 64.6888C107.943 64.3154 107.689 63.8397 107.586 63.3218C107.483 62.8039 107.536 62.2671 107.738 61.7793C107.94 61.2915 108.282 60.8745 108.721 60.5812C109.16 60.2878 109.676 60.1312 110.204 60.1312C110.557 60.1252 110.907 60.1902 111.233 60.3222C111.56 60.4542 111.856 60.6507 112.106 60.8998C112.355 61.1489 112.551 61.4456 112.683 61.7722C112.815 62.0989 112.88 62.4487 112.874 62.801Z" stroke="#82C590" stroke-width="1.11" stroke-miterlimit="10"/>
<path d="M124.033 62.8025C124.025 63.3198 123.863 63.8229 123.569 64.2487C123.276 64.6745 122.863 65.0041 122.382 65.196C121.902 65.3879 121.375 65.4336 120.869 65.3273C120.363 65.221 119.899 64.9676 119.537 64.5987C119.174 64.2298 118.928 63.762 118.83 63.2541C118.733 62.7461 118.787 62.2205 118.987 61.7434C119.187 61.2663 119.524 60.8589 119.954 60.5723C120.385 60.2858 120.891 60.1329 121.408 60.1328C121.757 60.1328 122.102 60.2021 122.423 60.3368C122.745 60.4715 123.036 60.6689 123.28 60.9174C123.525 61.1659 123.717 61.4606 123.846 61.7842C123.976 62.1079 124.039 62.4541 124.033 62.8025Z" stroke="#82C590" stroke-width="1.11" stroke-miterlimit="10"/>
<path d="M210.64 67.528H136.608C135.428 67.528 134.296 67.0592 133.462 66.2248C132.627 65.3903 132.159 64.2585 132.159 63.0785C132.159 61.8984 132.627 60.7666 133.462 59.9321C134.296 59.0977 135.428 58.6289 136.608 58.6289H210.64C211.82 58.6289 212.952 59.0977 213.786 59.9321C214.621 60.7666 215.089 61.8984 215.089 63.0785C215.089 64.2585 214.621 65.3903 213.786 66.2248C212.952 67.0592 211.82 67.528 210.64 67.528Z" stroke="#82C590" stroke-width="1.11" stroke-miterlimit="10"/>
<path d="M261.569 67.528H226.515C225.335 67.528 224.204 67.0592 223.369 66.2248C222.535 65.3903 222.066 64.2585 222.066 63.0785C222.066 61.8984 222.535 60.7666 223.369 59.9321C224.204 59.0977 225.335 58.6289 226.515 58.6289H261.569C262.749 58.6289 263.881 59.0977 264.715 59.9321C265.55 60.7666 266.019 61.8984 266.019 63.0785C266.019 64.2585 265.55 65.3903 264.715 66.2248C263.881 67.0592 262.749 67.528 261.569 67.528Z" stroke="#82C590" stroke-width="1.11" stroke-miterlimit="10"/>
<path d="M170.994 126.965H107.009V163.086H170.994V126.965Z" stroke="#82C590" stroke-width="1.11" stroke-miterlimit="10" stroke-dasharray="5.54 5.54"/>
<path d="M170.994 82.6387H107.009V118.76H170.994V82.6387Z" stroke="#82C590" stroke-width="1.11" stroke-miterlimit="10" stroke-dasharray="5.54 5.54"/>
<path d="M170.435 172.207H107.562V175.037H170.435V172.207Z" stroke="#82C590" stroke-width="1.11" stroke-miterlimit="10"/>
<path d="M170.435 181.641H107.562V184.471H170.435V181.641Z" stroke="#82C590" stroke-width="1.11" stroke-miterlimit="10"/>
<path d="M255.99 172.207H193.118V175.037H255.99V172.207Z" stroke="#82C590" stroke-width="1.11" stroke-miterlimit="10"/>
<path d="M255.99 181.641H193.118V184.471H255.99V181.641Z" stroke="#82C590" stroke-width="1.11" stroke-miterlimit="10"/>
<path d="M49.3701 46.1777C49.3666 51.7594 50.4633 57.2871 52.5974 62.4447C54.7315 67.6023 57.8613 72.2887 61.8077 76.2359C65.7542 80.1832 70.4399 83.3139 75.597 85.4491C80.7542 87.5843 86.2816 88.6822 91.8633 88.6798" stroke="#82C590" stroke-width="1.11" stroke-miterlimit="10" stroke-dasharray="5.54 5.54"/>
<path d="M276.655 228.66C295.294 226.365 308.543 209.394 306.248 190.755C303.953 172.117 286.983 158.867 268.344 161.163C249.705 163.458 236.456 180.428 238.751 199.067C241.046 217.706 258.016 230.955 276.655 228.66Z" stroke="#82C590" stroke-width="1.11" stroke-miterlimit="10" stroke-dasharray="5.54 5.54"/>
<path d="M28.2203 113.562C35.3254 109.365 37.6829 100.203 33.486 93.0982C29.2891 85.9931 20.1271 83.6356 13.0221 87.8325C5.917 92.0294 3.55948 101.191 7.75637 108.296C11.9533 115.402 21.1153 117.759 28.2203 113.562Z" stroke="#82C590" stroke-width="1.11" stroke-miterlimit="10" stroke-dasharray="5.54 5.54"/>
<path d="M351.83 224.461C352.991 216.291 347.31 208.727 339.14 207.566C330.97 206.404 323.406 212.086 322.244 220.256C321.083 228.426 326.765 235.99 334.934 237.152C343.104 238.313 350.669 232.631 351.83 224.461Z" stroke="#82C590" stroke-width="1.11" stroke-miterlimit="10" stroke-dasharray="5.54 5.54"/>
<path d="M35.1555 164.35C37.051 156.318 32.077 148.271 24.0457 146.376C16.0143 144.48 7.96696 149.454 6.07139 157.485C4.17582 165.517 9.14986 173.564 17.1812 175.46C25.2125 177.355 33.2599 172.381 35.1555 164.35Z" stroke="#82C590" stroke-width="1.11" stroke-miterlimit="10" stroke-dasharray="5.54 5.54"/>
<path d="M255.602 37.3729C257.149 30.3961 252.747 23.4865 245.77 21.9397C238.794 20.393 231.884 24.795 230.337 31.7717C228.79 38.7485 233.192 45.6582 240.169 47.2049C247.146 48.7516 254.056 44.3497 255.602 37.3729Z" stroke="#82C590" stroke-width="1.11" stroke-miterlimit="10" stroke-dasharray="5.54 5.54"/>
<path d="M259.317 126.278H254.387V125.29H259.317V126.278ZM249.457 126.278H244.527V125.29H249.457V126.278ZM239.588 126.278H234.658V125.29H239.588V126.278ZM229.727 126.278H224.797V125.29H229.727V126.278ZM219.867 126.278H214.937V125.29H219.867V126.278ZM209.998 126.278H205.068V125.29H210.016L209.998 126.278ZM200.138 126.278H194.798V125.681H195.297V125.29H200.12L200.138 126.278ZM259.851 123.537H258.863V118.598H259.851V123.537ZM195.777 120.796H194.79V115.866H195.777V120.796ZM259.851 113.676H258.863V108.746H259.851V113.676ZM195.777 110.891H194.79V105.952H195.777V110.891ZM259.789 103.772H258.801V98.8416H259.851L259.789 103.772ZM195.777 101.022H194.79V96.0918H195.777V101.022ZM259.851 93.9471H258.863V89.017H259.851V93.9471ZM195.777 91.1617H194.79V86.2316H195.777V91.1617ZM259.789 84.0424H258.801V83.0991H255.802V82.1113H259.851L259.789 84.0424ZM250.889 83.0991H245.968V82.1113H250.898L250.889 83.0991ZM241.029 83.0991H236.09V82.1113H241.029V83.0991ZM231.16 83.0991H226.23V82.1113H231.16V83.0991ZM221.3 83.0991H216.37V82.1113H221.3V83.0991ZM211.44 83.0991H206.501V82.1113H211.44V83.0991ZM201.571 83.0991H196.667V82.1113H201.597L201.571 83.0991Z" fill="#D36775"/>
<path d="M254.389 26.4141C261.924 26.4094 269.387 27.8902 276.35 30.7718C283.313 33.6533 289.639 37.8792 294.968 43.2076C300.296 48.5361 304.522 54.8626 307.403 61.8255C310.285 68.7884 311.766 76.251 311.761 83.7865V114.933C311.763 124.408 309.791 133.779 305.972 142.45C302.152 151.12 296.568 158.9 289.576 165.293L289.433 165.427" stroke="#82C590" stroke-width="1.11" stroke-miterlimit="10" stroke-dasharray="5.54 5.54"/>
<path d="M85.4831 26.4141H35.5503V46.1789H85.4831V26.4141Z" stroke="#82C590" stroke-width="1.11" stroke-miterlimit="10" stroke-dasharray="5.54 5.54"/>
<path d="M85.4831 219.043H35.5503V238.808H85.4831V219.043Z" stroke="#82C590" stroke-width="1.11" stroke-miterlimit="10" stroke-dasharray="5.54 5.54"/>
<path d="M376.973 135.143H327.04V154.907H376.973V135.143Z" stroke="#82C590" stroke-width="1.11" stroke-miterlimit="10" stroke-dasharray="5.54 5.54"/>
<path d="M92.6471 196.475L85.4922 219.043" stroke="#82C590" stroke-width="1.11" stroke-miterlimit="10" stroke-dasharray="5.54 5.54"/>
<path d="M235.674 219.043H124.035V238.808H235.674V219.043Z" stroke="#82C590" stroke-width="1.11" stroke-miterlimit="10" stroke-dasharray="5.54 5.54"/>
<path opacity="0.3" d="M191.435 250.003L190.768 249.851L187.982 249.22L97.719 228.752L94.4441 228.004C93.2051 227.725 91.906 227.948 90.8316 228.626C89.7573 229.303 88.9954 230.379 88.7131 231.617L88.4372 232.863C88.2977 233.475 88.2803 234.109 88.386 234.728C88.4917 235.347 88.7184 235.94 89.0531 236.471C89.3878 237.003 89.8241 237.463 90.3368 237.826C90.8496 238.188 91.4288 238.446 92.0413 238.585L95.3251 239.333L185.58 259.801L188.365 260.432L189.033 260.584L204.001 258.412L191.435 250.003Z" fill="#2AB6C5"/>
<path d="M89.5767 229.143L86.2929 228.395C85.0612 228.112 83.7675 228.327 82.6939 228.994C81.6203 229.661 80.8539 230.725 80.5619 231.955L80.286 233.201C80.0041 234.439 80.2255 235.738 80.9013 236.813C81.5772 237.887 82.6523 238.65 83.8902 238.932L87.1739 239.67L89.5767 229.143Z" fill="#EF9875"/>
<path d="M89.5766 229.143L87.1738 239.715L180.223 260.832L180.944 260.743L183.231 250.652L182.617 250.251L89.5766 229.143Z" fill="#EAD971"/>
<path d="M182.436 254.064L88.7192 232.789L88.3469 234.429L182.064 255.704L182.436 254.064Z" fill="#2AB6C5"/>
<path d="M181.146 259.751L87.4292 238.477L87.1455 239.726L180.862 261.001L181.146 259.751Z" fill="#2AB6C5"/>
<path d="M183.255 250.413L89.5381 229.139L89.3509 229.963L183.068 251.238L183.255 250.413Z" fill="#2AB6C5"/>
<path d="M183.319 250.402L179.858 249.619C179.956 250.008 179.976 250.412 179.916 250.809C179.857 251.205 179.719 251.586 179.511 251.928C179.304 252.271 179.03 252.569 178.706 252.805C178.382 253.041 178.014 253.211 177.624 253.303C177.544 253.657 177.608 254.029 177.802 254.335C177.995 254.642 178.302 254.86 178.656 254.941C178.326 254.857 177.976 254.9 177.676 255.062C177.376 255.224 177.147 255.492 177.036 255.814C176.924 256.136 176.937 256.488 177.072 256.801C177.207 257.114 177.455 257.365 177.766 257.504C177.453 257.502 177.149 257.606 176.903 257.8C176.657 257.995 176.484 258.266 176.414 258.572C176.374 258.746 176.37 258.927 176.4 259.104C176.431 259.28 176.496 259.449 176.592 259.6C176.688 259.751 176.813 259.882 176.959 259.985C177.106 260.088 177.271 260.161 177.446 260.2L180.899 260.983L195.858 258.821L183.319 250.402Z" fill="#FFF9E9"/>
<path d="M190.607 255.307C189.882 255.759 189.352 256.467 189.122 257.29C188.891 258.113 188.977 258.993 189.362 259.756L195.849 258.866L190.607 255.307Z" fill="#2AB6C5"/>
<path opacity="0.3" d="M126.579 43.0727L127.238 42.8769L129.979 42.076L218.801 16.0551L222.031 15.1118C223.249 14.7527 224.275 13.9252 224.884 12.8109C225.493 11.6965 225.635 10.3862 225.279 9.16716L224.914 7.94798C224.739 7.34455 224.445 6.78172 224.052 6.29173C223.658 5.80174 223.172 5.39422 222.62 5.0925C222.069 4.79078 221.464 4.60079 220.839 4.5334C220.214 4.46602 219.582 4.52257 218.979 4.69981L215.748 5.64311L126.926 31.6641L124.186 32.465L123.527 32.6608L111.513 41.8268L126.579 43.0727Z" fill="#2AB6C5"/>
<path d="M225.724 11.7386L228.945 10.7953C230.165 10.4381 231.193 9.61147 231.804 8.4969C232.414 7.38232 232.558 6.07095 232.202 4.85075L231.837 3.63157C231.662 3.02814 231.369 2.46531 230.975 1.97533C230.581 1.48534 230.095 1.07781 229.543 0.776089C228.992 0.474367 228.387 0.28438 227.762 0.216996C227.137 0.149613 226.505 0.206162 225.902 0.383406L222.671 1.32671L225.724 11.7386Z" fill="#EF9875"/>
<path d="M225.724 11.7401L222.671 1.32812L131.108 28.15L130.521 28.5861L133.431 38.5085L134.161 38.5619L225.724 11.7401Z" fill="#EAD971"/>
<path d="M132.444 35.175L224.668 8.1543L224.195 6.54022L131.971 33.561L132.444 35.175Z" fill="#2AB6C5"/>
<path d="M130.807 29.5813L223.031 2.56055L222.671 1.33078L130.447 28.3515L130.807 29.5813Z" fill="#2AB6C5"/>
<path d="M133.493 38.7727L225.717 11.752L225.48 10.9406L133.255 37.9614L133.493 38.7727Z" fill="#2AB6C5"/>
<path d="M133.485 38.7475L136.885 37.7597C137.056 37.7089 137.216 37.6247 137.356 37.512C137.495 37.3993 137.611 37.2602 137.696 37.1028C137.782 36.9454 137.835 36.7727 137.854 36.5945C137.873 36.4163 137.856 36.2362 137.806 36.0644C137.755 35.8926 137.671 35.7325 137.558 35.5933C137.445 35.454 137.306 35.3383 137.149 35.2528C136.991 35.1673 136.819 35.1136 136.64 35.0948C136.462 35.076 136.282 35.0925 136.11 35.1434C136.457 35.0419 136.75 34.8067 136.923 34.4896C137.097 34.1725 137.137 33.7995 137.036 33.4525C136.934 33.1056 136.699 32.8132 136.382 32.6396C136.065 32.466 135.692 32.4255 135.345 32.527C135.688 32.4185 135.973 32.1789 136.14 31.8605C136.307 31.5421 136.341 31.1707 136.235 30.8273C136.149 30.526 135.961 30.2642 135.702 30.0871C135.444 29.91 135.132 29.8287 134.82 29.8573C135.119 29.6997 135.349 29.4365 135.465 29.1187C135.581 28.801 135.574 28.4516 135.446 28.1384C135.319 27.8253 135.079 27.5709 134.774 27.4247C134.469 27.2786 134.121 27.2512 133.797 27.3478L130.397 28.3356L118.383 37.5105L133.485 38.7475Z" fill="#FFF9E9"/>
<path d="M124.72 38.0351C125.133 37.2867 125.252 36.4107 125.053 35.5792C124.854 34.7476 124.351 34.0206 123.643 33.541L118.437 37.5189L124.72 38.0351Z" fill="#2AB6C5"/>
<path d="M35.5503 100.695L139.002 145.031L35.5503 160.924" stroke="#82C590" stroke-width="1.11" stroke-miterlimit="10" stroke-dasharray="5.54 5.54"/>
<path d="M327.041 145.029H230.023" stroke="#82C590" stroke-width="1.11" stroke-miterlimit="10" stroke-dasharray="5.54 5.54"/>
</svg>
