<svg width="46" height="46" viewBox="0 0 46 46" fill="none" xmlns="http://www.w3.org/2000/svg">
<mask id="mask0_141_602" style="mask-type:alpha" maskUnits="userSpaceOnUse" x="0" y="0" width="46" height="46">
<rect x="0.5" y="0.5" width="45" height="45" fill="#82C590"/>
</mask>
<g mask="url(#mask0_141_602)">
<path d="M6.2961 31.5858H19.152V35.929H14.1854C13.0572 35.929 12.1392 36.8141 12.1392 37.902C12.1392 38.9899 13.0571 39.875 14.1854 39.875H31.8145C32.9428 39.875 33.8608 38.9899 33.8608 37.902C33.8608 36.8141 32.9428 35.929 31.8145 35.929H26.8479V31.5858H39.7038C40.832 31.5858 41.75 30.6656 41.75 29.5345V11.4714C41.75 10.3403 40.8321 9.42014 39.7038 9.42014H33.7362L23.0861 6.13794C23.03 6.12069 22.9701 6.12069 22.914 6.13794L12.2637 9.42021H6.2961C5.1678 9.42021 4.25 10.3404 4.25 11.4714V29.5345C4.25 30.6656 5.1678 31.5858 6.2961 31.5858ZM4.83594 11.4714C4.83594 10.6642 5.49087 10.0075 6.2961 10.0075H12.2638L15.7928 11.0951V11.2755H6.39366C6.23186 11.2755 6.10069 11.407 6.10069 11.5692V29.4366C6.10069 29.5988 6.23186 29.7303 6.39366 29.7303H39.6061C39.7679 29.7303 39.8991 29.5988 39.8991 29.4366V11.5692C39.8991 11.407 39.7679 11.2755 39.6061 11.2755H32.1305V10.5025L33.7363 10.0076H39.7039C40.5091 10.0076 41.1642 10.6643 41.1642 11.4715V29.5346C41.1642 30.3418 40.5091 30.9985 39.7039 30.9985H6.2961C5.49087 30.9984 4.83594 30.3417 4.83594 29.5345V11.4714ZM23 6.72591L32.6954 9.7139L31.8027 9.98902L23.0189 9.4208C22.8576 9.41074 22.7181 9.53314 22.7077 9.69496C22.6973 9.85686 22.8197 9.99651 22.9811 10.007L30.2242 10.4755L23 12.702L13.3047 9.7139L23 6.72591ZM29.6214 15.9471C29.6214 17.6889 26.5892 19.1604 23 19.1604C19.4109 19.1604 16.3786 17.6889 16.3786 15.9471V11.2757L22.914 13.2899C22.942 13.2986 22.9711 13.3029 23 13.3029C23.029 13.3029 23.058 13.2986 23.0861 13.2899L29.6214 11.2757V15.9471ZM15.7927 13.9767H6.68663V11.8629H15.7927V13.9767ZM6.68663 14.5641H15.7927V15.9471C15.7927 17.0003 16.569 17.974 17.9785 18.689C19.3247 19.3717 21.108 19.7478 23 19.7478C24.892 19.7478 26.6753 19.3717 28.0215 18.689C29.4312 17.974 30.2074 17.0003 30.2074 15.9471V14.5641H31.5446V16.0132C31.5446 16.1754 31.6758 16.3069 31.8376 16.3069C31.9994 16.3069 32.1306 16.1754 32.1306 16.0132V14.5641H39.3132V29.1429H6.68663V14.5641ZM39.3132 13.9767H32.1306V11.8629H39.3132V13.9767ZM31.5446 13.9767H30.2074V11.8629H31.5446V13.9767ZM30.2074 11.2755V11.0951L31.5446 10.683V11.2755L30.2074 11.2755ZM31.8146 39.2876H14.1854C13.3802 39.2876 12.7252 38.666 12.7252 37.902C12.7252 37.138 13.3802 36.5164 14.1854 36.5164H31.8145C32.6197 36.5164 33.2748 37.138 33.2748 37.902C33.2748 38.666 32.6198 39.2876 31.8146 39.2876ZM19.7379 35.929V31.5858H26.262V35.929H19.7379Z" fill="#82C590"/>
<path d="M7.87878 13.2526H8.4388C8.60059 13.2526 8.73176 13.1214 8.73176 12.9596C8.73176 12.7978 8.60059 12.6666 8.4388 12.6666H7.87878C7.71699 12.6666 7.58582 12.7978 7.58582 12.9596C7.58582 13.1214 7.71699 13.2526 7.87878 13.2526Z" fill="#82C590"/>
<path d="M9.82703 13.2526H10.387C10.5488 13.2526 10.68 13.1214 10.68 12.9596C10.68 12.7978 10.5488 12.6666 10.387 12.6666H9.82703C9.66523 12.6666 9.53406 12.7978 9.53406 12.9596C9.53406 13.1214 9.66523 13.2526 9.82703 13.2526Z" fill="#82C590"/>
<path d="M11.7747 13.2526H12.3347C12.4965 13.2526 12.6276 13.1214 12.6276 12.9596C12.6276 12.7978 12.4965 12.6666 12.3347 12.6666H11.7747C11.6129 12.6666 11.4817 12.7978 11.4817 12.9596C11.4817 13.1214 11.6129 13.2526 11.7747 13.2526Z" fill="#82C590"/>
<path d="M14.2123 22.7477H10.4011C10.2393 22.7477 10.1082 22.8792 10.1082 23.0414V26.8619C10.1082 27.0241 10.2393 27.1556 10.4011 27.1556H14.2123C14.374 27.1556 14.5053 27.0241 14.5053 26.8619V23.0414C14.5053 22.8792 14.3741 22.7477 14.2123 22.7477ZM13.9193 26.5682H10.6941V23.3351H13.9193V26.5682Z" fill="#82C590"/>
<path d="M16.1899 23.3336H35.5992C35.7609 23.3336 35.8921 23.2024 35.8921 23.0407C35.8921 22.8789 35.7609 22.7477 35.5992 22.7477H16.1899C16.0281 22.7477 15.897 22.8789 15.897 23.0407C15.897 23.2024 16.0281 23.3336 16.1899 23.3336Z" fill="#82C590"/>
<path d="M16.1899 25.244H35.5992C35.7609 25.244 35.8921 25.1128 35.8921 24.951C35.8921 24.7892 35.7609 24.658 35.5992 24.658H16.1899C16.0281 24.658 15.897 24.7892 15.897 24.951C15.897 25.1128 16.0281 25.244 16.1899 25.244Z" fill="#82C590"/>
<path d="M35.8921 26.8611C35.8921 26.6994 35.7609 26.5682 35.5992 26.5682H16.1899C16.0281 26.5682 15.897 26.6994 15.897 26.8611C15.897 27.0229 16.0281 27.1541 16.1899 27.1541H35.5992C35.761 27.1541 35.8921 27.0229 35.8921 26.8611Z" fill="#82C590"/>
</g>
</svg>
