<svg width="45" height="45" viewBox="0 0 45 45" fill="none" xmlns="http://www.w3.org/2000/svg">
<mask id="mask0_141_662" style="mask-type:alpha" maskUnits="userSpaceOnUse" x="0" y="0" width="45" height="45">
<rect width="45" height="45" fill="#D9D9D9"/>
</mask>
<g mask="url(#mask0_141_662)">
<path fill-rule="evenodd" clip-rule="evenodd" d="M15.0436 13.5395C15.0441 13.3941 14.9417 13.2676 14.798 13.2367C14.1075 13.0878 13.3928 13.0878 12.7024 13.2367C12.5587 13.2676 12.4563 13.3941 12.4567 13.5395L12.4587 14.2967C11.9828 14.4597 11.5428 14.7108 11.1624 15.0372L10.5007 14.6571C10.3732 14.5839 10.2117 14.6083 10.1126 14.7164C9.63703 15.2334 9.27967 15.8457 9.06476 16.5117C9.02024 16.6506 9.07933 16.8016 9.20722 16.8741L9.87096 17.2509C9.77544 17.7399 9.77544 18.2428 9.87096 18.7318L9.20722 19.1086C9.07933 19.1811 9.02024 19.3321 9.06476 19.471C9.27967 20.137 9.63703 20.7493 10.1126 21.2663C10.2117 21.3744 10.3732 21.3988 10.5007 21.3255L11.1624 20.9455C11.5428 21.2715 11.9828 21.523 12.4587 21.686L12.4567 22.4432C12.4563 22.5886 12.5587 22.7151 12.7024 22.746C13.3928 22.8949 14.1075 22.8949 14.798 22.746C14.9417 22.7151 15.0441 22.5886 15.0436 22.4432L15.0416 21.686C15.5176 21.523 15.9575 21.2719 16.3379 20.9455L16.9996 21.3255C17.1271 21.3988 17.2886 21.3744 17.3878 21.2663C17.8633 20.7493 18.2207 20.137 18.4356 19.471C18.4801 19.3321 18.421 19.1811 18.2931 19.1086L17.6294 18.7318C17.7249 18.2428 17.7249 17.7399 17.6294 17.2509L18.2931 16.8741C18.421 16.8016 18.4801 16.6506 18.4356 16.5117C18.2207 15.8457 17.8633 15.2334 17.3878 14.7164C17.2886 14.6083 17.1271 14.5839 16.9996 14.6571L16.3379 15.0372C15.9575 14.7112 15.5176 14.4597 15.0416 14.2967L15.0436 13.5395ZM14.418 13.795L14.4159 14.523C14.4159 14.662 14.5094 14.7841 14.6446 14.8217C15.1841 14.9707 15.677 15.2522 16.0773 15.6399C16.1777 15.7372 16.3315 15.7564 16.4529 15.6863L17.0887 15.3207C17.3704 15.6655 17.5958 16.0519 17.7569 16.4656L17.1186 16.828C16.9968 16.8969 16.9365 17.0383 16.9717 17.1728C17.1109 17.7098 17.1109 18.2729 16.9717 18.8099C16.9365 18.9444 16.9968 19.0858 17.1186 19.1547L17.7569 19.5171C17.5958 19.9308 17.3704 20.3172 17.0891 20.6616L16.4529 20.2964C16.3315 20.2263 16.1777 20.2455 16.0773 20.3428C15.677 20.7305 15.1841 21.012 14.6446 21.161C14.5094 21.1986 14.4159 21.3207 14.4159 21.4597L14.418 22.1877C13.9756 22.2566 13.5247 22.2566 13.0824 22.1877L13.0844 21.4597C13.0844 21.3207 12.9909 21.1986 12.8557 21.161C12.3163 21.012 11.8233 20.7305 11.423 20.3428C11.3227 20.2455 11.1689 20.2263 11.0475 20.2964L10.4117 20.662C10.13 20.3172 9.90455 19.9308 9.74347 19.5171L10.3817 19.1547C10.5035 19.0858 10.5638 18.9444 10.5286 18.8099C10.3894 18.2729 10.3894 17.7098 10.5286 17.1728C10.5638 17.0383 10.5035 16.8969 10.3817 16.828L9.74347 16.4656C9.90455 16.0519 10.13 15.6655 10.4113 15.3211L11.0475 15.6863C11.1689 15.7564 11.3227 15.7372 11.423 15.6399C11.8233 15.2522 12.3163 14.9707 12.8557 14.8217C12.9909 14.7841 13.0844 14.662 13.0844 14.523L13.0824 13.795C13.5247 13.7261 13.9756 13.7261 14.418 13.795ZM13.7502 16.0872C12.6882 16.0872 11.8257 16.9406 11.8257 17.9913C11.8257 19.0421 12.6882 19.8955 13.7502 19.8955C14.8121 19.8955 15.6746 19.0421 15.6746 17.9913C15.6746 16.9406 14.8121 16.0872 13.7502 16.0872ZM13.7502 16.7055C14.4673 16.7055 15.0497 17.2817 15.0497 17.9913C15.0497 18.701 14.4673 19.2772 13.7502 19.2772C13.033 19.2772 12.4506 18.701 12.4506 17.9913C12.4506 17.2817 13.033 16.7055 13.7502 16.7055Z" fill="#82C590"/>
<path fill-rule="evenodd" clip-rule="evenodd" d="M24.8339 16.631H19.8302C19.6577 16.631 19.5177 16.7696 19.5177 16.9402C19.5177 17.1109 19.6577 17.2494 19.8302 17.2494H25.5883C25.5945 17.2494 25.6001 17.2494 25.6058 17.2488C25.6801 17.2445 25.7526 17.2148 25.8089 17.1592C25.9308 17.0386 25.9308 16.8425 25.8089 16.7219L23.8895 14.8228C23.7677 14.7016 23.5695 14.7016 23.4477 14.8228C23.3258 14.9434 23.3258 15.1394 23.4477 15.26L24.8339 16.631Z" fill="#82C590"/>
<path fill-rule="evenodd" clip-rule="evenodd" d="M19.8167 18.9784C19.7411 18.9815 19.6667 19.0118 19.6086 19.0687C19.4867 19.1899 19.4867 19.3853 19.6086 19.5065L21.528 21.4051C21.6499 21.5263 21.848 21.5263 21.9699 21.4051C22.0917 21.2845 22.0917 21.0884 21.9699 20.9678L20.5842 19.5968H25.5879C25.7604 19.5968 25.9004 19.4583 25.9004 19.2876C25.9004 19.1169 25.7604 18.9784 25.5879 18.9784H19.8299C19.8249 18.9784 19.8205 18.9784 19.8167 18.9784Z" fill="#82C590"/>
<path fill-rule="evenodd" clip-rule="evenodd" d="M33.0531 20.3981C33.2422 19.9596 33.5946 19.7803 34.062 19.7936C34.2273 19.7984 34.3818 19.6639 34.407 19.4931C34.4319 19.3226 34.3178 19.1803 34.1525 19.1755C33.3806 19.1535 32.8151 19.4847 32.5027 20.2095C32.4328 20.3719 32.499 20.5462 32.6509 20.5981C32.8031 20.6502 32.983 20.5604 33.0531 20.3981Z" fill="#82C590"/>
<path fill-rule="evenodd" clip-rule="evenodd" d="M30.7159 20.2095C30.4034 19.4847 29.8379 19.1535 29.066 19.1755C28.9007 19.1803 28.7866 19.3226 28.8115 19.4931C28.8367 19.6639 28.9912 19.7984 29.1565 19.7936C29.6239 19.7803 29.9763 19.9596 30.1654 20.3981C30.2355 20.5604 30.4154 20.6502 30.5676 20.5981C30.7195 20.5462 30.7857 20.3719 30.7159 20.2095Z" fill="#82C590"/>
<path fill-rule="evenodd" clip-rule="evenodd" d="M32.5027 15.8829C32.8151 16.6078 33.3806 16.939 34.1525 16.9169C34.3178 16.9121 34.4319 16.7698 34.407 16.5993C34.3818 16.4285 34.2273 16.294 34.062 16.2988C33.5946 16.3121 33.2422 16.1328 33.0531 15.6943C32.983 15.532 32.8031 15.4422 32.6509 15.4943C32.499 15.5462 32.4328 15.7205 32.5027 15.8829Z" fill="#82C590"/>
<path fill-rule="evenodd" clip-rule="evenodd" d="M30.1654 15.6943C29.9763 16.1328 29.6239 16.3121 29.1565 16.2988C28.9912 16.294 28.8367 16.4285 28.8115 16.5993C28.7866 16.7698 28.9007 16.9121 29.066 16.9169C29.8379 16.939 30.4034 16.6078 30.7159 15.8829C30.7857 15.7205 30.7195 15.5462 30.5676 15.4943C30.4154 15.4422 30.2355 15.532 30.1654 15.6943Z" fill="#82C590"/>
<path fill-rule="evenodd" clip-rule="evenodd" d="M32.8112 13.3564C32.6425 13.3564 32.4363 13.4127 32.2319 13.5005C31.9969 13.6013 31.7631 13.7411 31.6075 13.8406C31.4525 13.7411 31.2188 13.6013 30.9838 13.5005C30.7794 13.4127 30.5725 13.3564 30.4044 13.3564C29.5069 13.3564 28.7775 14.0781 28.7775 14.9661C28.7775 15.0144 28.78 15.062 28.7838 15.109C27.8988 15.276 27.2576 15.9302 27.2576 16.6773C27.2576 17.0626 27.4232 17.4212 27.7069 17.702C27.1407 17.9895 26.7732 18.5028 26.7732 19.0712C26.7732 19.7075 27.2326 20.2746 27.9176 20.5331C27.7076 21.2183 27.9457 21.9313 28.5063 22.2486C28.7988 22.4137 29.1363 22.452 29.4638 22.3753C29.8182 22.6771 30.3244 22.8713 30.8888 22.8713C31.1431 22.8713 31.3863 22.8317 31.6081 22.7612C31.8294 22.8317 32.0719 22.8713 32.3269 22.8713C32.8906 22.8713 33.3969 22.6778 33.7525 22.3753C34.0794 22.452 34.4169 22.4137 34.7094 22.2486C35.27 21.9313 35.5075 21.2183 35.2981 20.5331C35.9831 20.2746 36.4425 19.7075 36.4425 19.0712C36.4425 18.5028 36.075 17.9895 35.5087 17.702C35.7918 17.4212 35.9581 17.0626 35.9581 16.6773C35.9581 15.9302 35.3169 15.276 34.4312 15.109C34.4356 15.062 34.4381 15.0144 34.4381 14.9661C34.4381 14.0781 33.7087 13.3564 32.8112 13.3564ZM34.7725 17.4794C35.1037 17.3025 35.3331 17.0143 35.3331 16.6773C35.3331 16.1244 34.7456 15.7101 34.0475 15.6872C33.9488 15.6835 33.8575 15.6346 33.8012 15.5542C33.745 15.4745 33.7306 15.3724 33.7619 15.2797C33.795 15.1813 33.8131 15.0756 33.8131 14.9661C33.8131 14.4195 33.3637 13.9748 32.8112 13.9748C32.6737 13.9748 32.5006 14.0527 32.3381 14.1344C32.1738 14.2166 32.0219 14.3106 31.92 14.3768V22.2059C32.0488 22.2362 32.1856 22.2529 32.3269 22.2529C32.7819 22.2529 33.1888 22.0853 33.4381 21.8175C33.525 21.7242 33.6606 21.6926 33.78 21.7384C33.9869 21.8169 34.2106 21.8182 34.3987 21.7118C34.7875 21.4916 34.8556 20.9406 34.6012 20.4812C34.5537 20.3952 34.55 20.2913 34.5919 20.2016C34.6344 20.1126 34.7169 20.0489 34.8144 20.0291C35.3762 19.919 35.8175 19.5455 35.8175 19.0712C35.8175 18.5845 35.3537 18.2041 34.77 18.1052C34.7594 18.1033 34.7487 18.1009 34.7387 18.0984C34.2131 18.1052 33.8006 18.3019 33.4444 18.5931C33.3112 18.702 33.1144 18.684 33.0044 18.5523C32.8944 18.4206 32.9131 18.2258 33.0456 18.117C33.5181 17.7304 34.0687 17.4775 34.7725 17.4794ZM31.295 14.3768C31.1931 14.3106 31.0413 14.2166 30.8775 14.1344C30.715 14.0527 30.5413 13.9748 30.4044 13.9748C29.8513 13.9748 29.4025 14.4195 29.4025 14.9661C29.4025 15.0756 29.4207 15.1813 29.4538 15.2797C29.485 15.3724 29.4707 15.4745 29.4144 15.5542C29.3582 15.6346 29.2669 15.6835 29.1682 15.6872C28.4701 15.7101 27.8826 16.1244 27.8826 16.6773C27.8826 17.0143 28.1119 17.3025 28.4432 17.4794C29.1463 17.4775 29.6975 17.7304 30.17 18.117C30.3025 18.2258 30.3213 18.4206 30.2113 18.5523C30.1013 18.684 29.9038 18.702 29.7713 18.5931C29.415 18.3019 29.0019 18.1052 28.4769 18.0984C28.4663 18.1009 28.4563 18.1033 28.4457 18.1052C27.8619 18.2041 27.3982 18.5845 27.3982 19.0712C27.3982 19.5455 27.8394 19.919 28.4013 20.0291C28.4988 20.0489 28.5813 20.1126 28.6232 20.2016C28.6657 20.2913 28.6619 20.3952 28.6144 20.4812C28.3594 20.9406 28.4282 21.4916 28.8163 21.7118C29.005 21.8182 29.2288 21.8169 29.4357 21.7384C29.555 21.6926 29.6907 21.7242 29.7775 21.8175C30.0269 22.0853 30.4338 22.2529 30.8888 22.2529C31.03 22.2529 31.1669 22.2362 31.295 22.2059V14.3768Z" fill="#82C590"/>
<path fill-rule="evenodd" clip-rule="evenodd" d="M16.4779 24.6809C16.4792 24.6599 16.4798 24.6395 16.481 24.6191C16.481 24.6191 16.4835 24.5339 16.4835 24.5259C16.4773 24.3555 16.3331 24.2221 16.1609 24.2276C16.1609 24.2276 12.4943 24.3511 10.7206 24.4104C10.0341 24.4333 9.39188 24.7513 8.96125 25.2818L7.72491 26.804L7.40911 26.263C7.32299 26.1154 7.13201 26.0648 6.98285 26.15L3.90603 27.9075C3.75687 27.9927 3.7057 28.1817 3.79182 28.3293L6.86427 33.5956C6.9504 33.7432 7.14137 33.7938 7.29053 33.7086L10.368 31.9505C10.5171 31.8652 10.5683 31.6763 10.4822 31.5287L9.96044 30.6345L14.8821 29.9435C15.5056 29.8564 16.0729 29.5409 16.4729 29.0598C17.8584 27.3956 21.4058 23.134 21.4058 23.134C21.4058 23.134 21.6661 22.8913 21.3328 22.6776C21.3234 22.6714 21.2698 22.6369 21.188 22.5844C20.2306 21.9693 18.9668 22.1138 18.1767 22.9289L16.4779 24.6809ZM7.02466 26.8392L9.78569 31.5701L7.24872 33.0194L4.48832 28.2879L7.02466 26.8392ZM9.62405 30.0584L14.7941 29.3321C15.2634 29.2667 15.6903 29.0296 15.9917 28.6677L20.6962 23.0148C20.0128 22.6659 19.1691 22.7974 18.6267 23.3563C17.3947 24.6265 15.6429 26.4341 15.6429 26.4341C15.6054 26.4724 15.5605 26.4989 15.5124 26.5144C15.1386 26.8077 14.6793 27.0003 14.1744 27.0497C12.9823 27.1664 11.6873 27.2937 11.6873 27.2937C11.5157 27.3103 11.3628 27.1862 11.3459 27.017C11.3291 26.8472 11.4545 26.6959 11.6262 26.6792L14.1126 26.4353C14.9882 26.3495 15.6834 25.6943 15.8301 24.8569L10.7418 25.0273C10.2369 25.0446 9.76447 25.2787 9.44805 25.6683L8.06005 27.3776L9.62405 30.0584Z" fill="#82C590"/>
<path fill-rule="evenodd" clip-rule="evenodd" d="M28.5221 24.6809C28.5208 24.6599 28.5202 24.6395 28.519 24.6191C28.519 24.6191 28.5165 24.5339 28.5165 24.5259C28.5227 24.3555 28.6669 24.2221 28.8391 24.2276C28.8391 24.2276 32.5057 24.3511 34.2794 24.4104C34.9659 24.4333 35.6081 24.7513 36.0387 25.2818L37.2751 26.804L37.5909 26.263C37.677 26.1154 37.868 26.0648 38.0171 26.15L41.094 27.9075C41.2431 27.9927 41.2943 28.1817 41.2082 28.3293L38.1357 33.5956C38.0496 33.7432 37.8586 33.7938 37.7095 33.7086L34.632 31.9505C34.4829 31.8652 34.4317 31.6763 34.5178 31.5287L35.0396 30.6345L30.1179 29.9435C29.4944 29.8564 28.9271 29.5409 28.5271 29.0598C27.1416 27.3956 23.5942 23.134 23.5942 23.134C23.5942 23.134 23.3339 22.8913 23.6672 22.6776C23.6766 22.6714 23.7302 22.6369 23.812 22.5844C24.7694 21.9693 26.0332 22.1138 26.8233 22.9289L28.5221 24.6809ZM37.9753 26.8392L35.2143 31.5701L37.7513 33.0194L40.5117 28.2879L37.9753 26.8392ZM35.376 30.0584L30.2059 29.3321C29.7366 29.2667 29.3097 29.0296 29.0083 28.6677L24.3038 23.0148C24.9872 22.6659 25.8309 22.7974 26.3733 23.3563C27.6053 24.6265 29.3571 26.4341 29.3571 26.4341C29.3946 26.4724 29.4395 26.4989 29.4876 26.5144C29.8614 26.8077 30.3207 27.0003 30.8256 27.0497C32.0177 27.1664 33.3127 27.2937 33.3127 27.2937C33.4843 27.3103 33.6372 27.1862 33.6541 27.017C33.6709 26.8472 33.5455 26.6959 33.3738 26.6792L30.8874 26.4353C30.0118 26.3495 29.3166 25.6943 29.1699 24.8569L34.2582 25.0273C34.7631 25.0446 35.2355 25.2787 35.552 25.6683L36.94 27.3776L35.376 30.0584Z" fill="#82C590"/>
</g>
</svg>
