<svg width="45" height="45" viewBox="0 0 45 45" fill="none" xmlns="http://www.w3.org/2000/svg">
<mask id="mask0_141_692" style="mask-type:alpha" maskUnits="userSpaceOnUse" x="0" y="0" width="45" height="45">
<rect width="45" height="45" fill="#82C590"/>
</mask>
<g mask="url(#mask0_141_692)">
<path d="M16.5679 13.2532C15.1616 13.2532 14.014 14.3792 14.014 15.7767C14.014 17.1663 15.1536 18.3003 16.5679 18.3003C17.9822 18.3003 19.1218 17.1743 19.1218 15.7767C19.1218 14.3792 17.9822 13.2532 16.5679 13.2532ZM13.9655 13.1973C15.4041 11.7758 17.7398 11.7758 19.1783 13.1973C20.1401 14.1476 20.5038 15.5611 20.0835 16.8708L21.1584 16.3517C20.1401 12.0633 23.4375 7.91863 27.931 7.91863C31.7699 7.91863 34.8895 10.9932 34.8895 14.7945C34.8895 18.5957 31.7699 21.6703 27.931 21.6703C26.1207 21.6703 24.4154 20.9835 23.1304 19.7697L20.6008 21.3908L20.6088 26.5657H37.8879V7.15198H7.11207V26.5657H10.6034L10.3852 21.7262C10.3287 20.5523 11.0075 19.5061 12.1148 19.0589L13.9413 18.3242C12.5269 16.8948 12.535 14.6108 13.9655 13.1973ZM18.4591 18.8992C17.4246 19.5141 16.1395 19.586 15.0404 19.0829L12.535 20.0891C11.8723 20.3526 11.4763 20.9676 11.5086 21.6703L11.7268 26.5577H12.5431V22.7484H13.6746V26.5577H19.4774L19.4693 20.7759L26.3631 16.3597C26.7753 16.0962 26.3874 15.066 25.563 15.4653L18.4591 18.8992ZM22.201 15.8486L24.0032 14.9781C23.8901 12.7661 25.6843 10.8974 27.931 10.8974C30.1051 10.8974 31.8669 12.6383 31.8669 14.7865C31.8669 17.877 28.3917 19.7218 25.7974 18.0527L24.1083 19.1308C26.4116 21.1113 29.8788 20.9995 32.0528 18.8593C34.3238 16.6153 34.3238 12.9657 32.0528 10.7137C29.7737 8.46965 26.0884 8.46965 23.8173 10.7217C22.4758 12.0393 21.8534 13.948 22.201 15.8486ZM25.1509 14.4271C26.3955 13.8761 27.5189 14.7306 27.6562 15.8246C27.729 16.3837 27.5269 16.9507 26.9855 17.294L26.8885 17.3579C28.715 18.0847 30.7516 16.759 30.7516 14.7865C30.7516 13.2532 29.4908 12.0154 27.9472 12.0154C26.5167 12.0234 25.3367 13.0615 25.1509 14.4271ZM24.8033 29.9597L27.4623 34.3599H30.2586V39.375H14.7333V34.3599H17.5296L20.1886 29.9597H3.75V3.75H41.25V29.9597H24.8033ZM24.3346 31.3652L23.486 29.9597H21.5059L18.847 34.3599H26.1449L24.3346 31.3652ZM29.1272 35.4779C24.7064 35.4779 20.2856 35.4779 15.8648 35.4779V38.257H29.1272V35.4779ZM6.54634 6.03396H39.0275V27.6837H5.9806V6.03396H6.54634ZM40.1185 4.86802H4.88147V28.8416H40.1185V4.86802Z" fill="#82C590"/>
</g>
</svg>
