<svg width="45" height="45" viewBox="0 0 45 45" fill="none" xmlns="http://www.w3.org/2000/svg">
<mask id="mask0_141_720" style="mask-type:alpha" maskUnits="userSpaceOnUse" x="0" y="0" width="45" height="45">
<rect width="45" height="45" fill="#82C590"/>
</mask>
<g mask="url(#mask0_141_720)">
<path d="M35.8243 18.3945C35.6578 18.3945 35.519 18.2634 35.519 18.1015C35.519 17.9395 35.6513 17.8085 35.8184 17.8085H35.8243C35.9915 17.8085 36.1268 17.9395 36.1268 18.1015C36.1268 18.14 36.119 18.1781 36.1038 18.2137C36.0886 18.2492 36.0663 18.2815 36.0382 18.3088C36.0101 18.336 35.9768 18.3575 35.9401 18.3723C35.9034 18.387 35.864 18.3945 35.8243 18.3945ZM30.6655 19.5666C30.4983 19.5666 30.363 19.4355 30.363 19.2735V17.8903C30.363 16.9437 30.9891 16.6369 31.63 16.4046C32.0133 16.2656 32.5106 16.0812 32.959 15.8827C33.1102 15.814 33.2904 15.8798 33.3595 16.0269C33.3761 16.0618 33.3854 16.0996 33.3868 16.138C33.3883 16.1764 33.382 16.2148 33.3681 16.2508C33.3543 16.2868 33.3333 16.3199 33.3062 16.348C33.2792 16.3762 33.2467 16.3989 33.2106 16.4149C32.7452 16.6221 32.2343 16.8115 31.842 16.9534C31.1473 17.2053 30.9678 17.3981 30.9678 17.8903V19.2735C30.9678 19.312 30.9601 19.3501 30.9449 19.3857C30.9297 19.4213 30.9074 19.4536 30.8794 19.4808C30.8513 19.508 30.8179 19.5296 30.7812 19.5443C30.7445 19.559 30.7052 19.5666 30.6655 19.5666ZM40.9477 19.5666C40.908 19.5666 40.8687 19.559 40.832 19.5443C40.7953 19.5296 40.7619 19.508 40.7338 19.4808C40.7058 19.4536 40.6835 19.4213 40.6683 19.3857C40.6531 19.3501 40.6453 19.312 40.6453 19.2735V17.8903C40.6453 17.3981 40.4652 17.2052 39.7706 16.9529C39.5674 16.8802 38.9472 16.6564 38.405 16.4149C38.3688 16.3988 38.3363 16.3761 38.3093 16.3479C38.2823 16.3196 38.2613 16.2865 38.2474 16.2505C38.2336 16.2144 38.2273 16.176 38.2287 16.1375C38.2302 16.0991 38.2395 16.0613 38.2561 16.0263C38.3264 15.8798 38.506 15.814 38.6571 15.8827C39.1793 16.115 39.7836 16.3325 39.982 16.404C40.624 16.6369 41.2501 16.9437 41.2501 17.8903V19.2735C41.2502 19.312 41.2424 19.3501 41.2272 19.3857C41.212 19.4213 41.1897 19.4536 41.1616 19.4808C41.1336 19.508 41.1002 19.5296 41.0635 19.5443C41.0268 19.5591 40.9875 19.5666 40.9477 19.5666ZM31.9507 12.5095C31.8987 12.5095 31.8461 12.4963 31.7996 12.4706C31.7536 12.4447 31.7155 12.4077 31.689 12.3631C31.6625 12.3185 31.6484 12.268 31.6483 12.2165C31.6477 10.2065 32.6329 9.23593 33.197 8.84499L33.0304 8.6956C32.9926 8.66176 32.9644 8.61913 32.9484 8.57176C32.9324 8.52438 32.9291 8.47382 32.9389 8.42489C32.9487 8.37599 32.9712 8.33032 33.0043 8.29217C33.0373 8.25403 33.0799 8.22466 33.1279 8.20685C33.1804 8.18736 34.4214 7.73407 35.7675 7.73407C36.8809 7.73407 37.7392 8.04142 38.3198 8.64688C38.9619 9.31762 39.2353 10.3369 39.1319 11.6767C39.1276 11.7353 39.1051 11.7913 39.0674 11.8374C39.0296 11.8834 38.9785 11.9174 38.9205 11.9348C38.8024 11.9692 38.6735 11.9331 38.5951 11.8387L37.7657 10.8429C35.1845 10.7507 32.132 12.4533 32.1025 12.4699C32.0553 12.4963 32.0033 12.5095 31.9507 12.5095ZM33.8214 8.60629L33.9041 8.68014C33.9411 8.71334 33.9689 8.75498 33.985 8.80125C34.0011 8.84752 34.005 8.89696 33.9963 8.94507C33.9878 8.99319 33.967 9.0385 33.9359 9.07688C33.9048 9.11526 33.8642 9.1455 33.8179 9.16486C33.76 9.18948 32.4706 9.76578 32.2774 11.7133C33.2929 11.2103 35.7417 10.1377 37.9337 10.2637C37.9758 10.266 38.0169 10.2768 38.0544 10.2956C38.0918 10.3143 38.1248 10.3405 38.151 10.3724L38.5403 10.8394C38.496 10.0616 38.2739 9.46012 37.8764 9.04581C37.4151 8.56453 36.7057 8.32012 35.7677 8.32012C35.0128 8.32012 34.2797 8.48042 33.8214 8.60629Z" fill="#82C590"/>
<path d="M35.8066 16.6364C34.4151 16.6364 32.48 14.587 32.48 12.5696C32.48 12.4076 32.6153 12.2766 32.7825 12.2766C32.9497 12.2766 33.0849 12.4076 33.0849 12.5696C33.0849 14.3306 34.8067 16.0504 35.8066 16.0504C36.806 16.0504 38.5284 14.3305 38.5284 12.5696C38.5284 12.4076 38.6636 12.2766 38.8308 12.2766C38.998 12.2766 39.1332 12.4076 39.1332 12.5696C39.1332 14.587 37.1976 16.6364 35.8066 16.6364ZM30.6655 41.25C30.4983 41.25 30.363 41.1189 30.363 40.957V20.4457C30.363 20.2838 30.4983 20.1526 30.6655 20.1526C30.7052 20.1526 30.7446 20.1602 30.7813 20.1749C30.818 20.1896 30.8513 20.2112 30.8794 20.2384C30.9075 20.2656 30.9297 20.2979 30.9449 20.3335C30.9601 20.3691 30.9679 20.4072 30.9679 20.4457V40.957C30.9679 41.1189 30.8326 41.25 30.6655 41.25ZM40.9477 41.25C40.908 41.25 40.8687 41.2425 40.832 41.2277C40.7953 41.213 40.7619 41.1914 40.7338 41.1642C40.7058 41.137 40.6835 41.1047 40.6683 41.0691C40.6531 41.0336 40.6453 40.9954 40.6453 40.957V20.4457C40.6453 20.2838 40.7806 20.1526 40.9477 20.1526C41.1149 20.1526 41.2502 20.2837 41.2502 20.4457V40.957C41.2502 41.1189 41.1149 41.25 40.9477 41.25Z" fill="#82C590"/>
<path d="M32.7822 12.8626C32.615 12.8626 32.4797 12.7315 32.4797 12.5696V11.8016C32.4797 11.6397 32.615 11.5086 32.7822 11.5086C32.9494 11.5086 33.0846 11.6397 33.0846 11.8016V12.5696C33.0846 12.6081 33.0768 12.6462 33.0616 12.6818C33.0464 12.7173 33.0241 12.7496 32.9961 12.7768C32.968 12.8041 32.9346 12.8256 32.8979 12.8404C32.8612 12.8551 32.8219 12.8626 32.7822 12.8626ZM38.8306 12.8626C38.7909 12.8626 38.7516 12.8551 38.7149 12.8404C38.6782 12.8256 38.6448 12.8041 38.6168 12.7768C38.5887 12.7496 38.5664 12.7173 38.5512 12.6818C38.536 12.6462 38.5282 12.6081 38.5282 12.5696V11.6551C38.5282 11.4931 38.6634 11.362 38.8306 11.362C38.9978 11.362 39.133 11.4931 39.133 11.6551V12.5696C39.133 12.6081 39.1252 12.6462 39.11 12.6818C39.0948 12.7173 39.0726 12.7496 39.0445 12.7768C39.0164 12.8041 38.983 12.8256 38.9464 12.8404C38.9097 12.8551 38.8703 12.8626 38.8306 12.8626ZM34.8992 17.8085C34.8595 17.8086 34.8201 17.801 34.7834 17.7863C34.7467 17.7716 34.7134 17.75 34.6853 17.7227L33.4757 16.5506C33.4468 16.5236 33.4237 16.4913 33.4079 16.4555C33.392 16.4197 33.3837 16.3813 33.3833 16.3424C33.383 16.3035 33.3906 16.2649 33.4058 16.2289C33.4211 16.1928 33.4435 16.1601 33.4719 16.1326C33.5003 16.1051 33.5341 16.0833 33.5712 16.0686C33.6084 16.0539 33.6482 16.0464 33.6884 16.0468C33.7286 16.0471 33.7683 16.0552 33.8052 16.0706C33.8421 16.0859 33.8754 16.1083 33.9033 16.1362L35.113 17.3083C35.1553 17.3493 35.1841 17.4015 35.1957 17.4584C35.2074 17.5152 35.2014 17.5741 35.1785 17.6276C35.1556 17.6811 35.1168 17.7269 35.0671 17.7591C35.0174 17.7913 34.959 17.8085 34.8992 17.8085Z" fill="#82C590"/>
<path d="M34.8995 17.8085C34.8497 17.8086 34.8007 17.7967 34.7568 17.7739C34.7128 17.7511 34.6754 17.7182 34.6479 17.678C34.6258 17.646 34.6104 17.6101 34.6027 17.5723C34.595 17.5346 34.595 17.4957 34.6028 17.458C34.6106 17.4202 34.626 17.3843 34.6481 17.3524C34.6702 17.3204 34.6986 17.293 34.7317 17.2717L35.639 16.6856C35.7058 16.6443 35.7866 16.63 35.8641 16.6458C35.9416 16.6615 36.0096 16.7061 36.0536 16.77C36.0975 16.8338 36.1138 16.9118 36.0991 16.9872C36.0843 17.0626 36.0396 17.1294 35.9745 17.1732L35.0673 17.7592C35.0176 17.7913 34.9592 17.8084 34.8995 17.8085ZM36.714 17.8085C36.6542 17.8085 36.5958 17.7913 36.5461 17.7591C36.4964 17.7269 36.4576 17.6811 36.4348 17.6276C36.4119 17.574 36.4059 17.5151 36.4175 17.4583C36.4292 17.4015 36.4579 17.3493 36.5002 17.3083L37.7099 16.1362C37.767 16.0832 37.8433 16.054 37.9223 16.0549C38.0014 16.0557 38.077 16.0865 38.1329 16.1407C38.1888 16.1949 38.2206 16.2681 38.2214 16.3448C38.2223 16.4214 38.1922 16.4952 38.1375 16.5506L36.9278 17.7227C36.8998 17.7499 36.8664 17.7715 36.8298 17.7862C36.7931 17.8009 36.7537 17.8085 36.714 17.8085Z" fill="#82C590"/>
<path d="M36.7136 17.8085C36.6541 17.8084 36.5959 17.7913 36.5464 17.7593L35.6392 17.1732C35.6061 17.1519 35.5777 17.1245 35.5556 17.0925C35.5334 17.0605 35.518 17.0247 35.5102 16.9869C35.5025 16.9492 35.5024 16.9103 35.5102 16.8725C35.5179 16.8348 35.5333 16.7989 35.5554 16.7669C35.5774 16.7349 35.6057 16.7073 35.6387 16.6859C35.6717 16.6645 35.7087 16.6496 35.7477 16.642C35.7866 16.6345 35.8267 16.6345 35.8657 16.6419C35.9046 16.6494 35.9417 16.6643 35.9747 16.6856L36.8819 17.2717C36.936 17.3066 36.9769 17.3575 36.9988 17.4167C37.0207 17.4759 37.0223 17.5404 37.0034 17.6006C36.9846 17.6608 36.9462 17.7135 36.894 17.751C36.8418 17.7884 36.7786 17.8086 36.7136 17.8085ZM40.9481 20.7387H30.6658C30.4986 20.7387 30.3634 20.6077 30.3634 20.4457C30.3634 20.2837 30.4986 20.1526 30.6658 20.1526H40.948C41.1152 20.1526 41.2504 20.2837 41.2504 20.4457C41.2504 20.6077 41.1152 20.7387 40.9481 20.7387ZM18.5691 41.25C18.4019 41.25 18.2666 41.1189 18.2666 40.9569V26.8919C18.2666 26.7299 18.4019 26.5988 18.5691 26.5988C18.6088 26.5988 18.6481 26.6064 18.6848 26.6211C18.7215 26.6358 18.7549 26.6574 18.7829 26.6846C18.811 26.7118 18.8333 26.7442 18.8485 26.7797C18.8637 26.8153 18.8715 26.8534 18.8714 26.8919V40.9569C18.8714 41.1189 18.7362 41.25 18.5691 41.25ZM28.8512 41.25C28.8115 41.25 28.7722 41.2425 28.7355 41.2277C28.6988 41.213 28.6654 41.1914 28.6373 41.1642C28.6092 41.137 28.587 41.1047 28.5718 41.0691C28.5566 41.0335 28.5488 40.9954 28.5488 40.9569V26.8919C28.5488 26.7299 28.6841 26.5988 28.8512 26.5988C29.0184 26.5988 29.1537 26.7299 29.1537 26.8919V40.9569C29.1537 41.1189 29.0184 41.25 28.8512 41.25Z" fill="#82C590"/>
<path d="M28.8507 27.1849H18.5685C18.4013 27.1849 18.2661 27.0539 18.2661 26.8919C18.2661 26.7299 18.4013 26.5988 18.5685 26.5988H28.8507C29.0179 26.5988 29.1531 26.7299 29.1531 26.8919C29.1531 27.0539 29.0179 27.1849 28.8507 27.1849ZM6.47177 41.25C6.30459 41.25 6.16931 41.1189 6.16931 40.9569V33.9244C6.16929 33.886 6.1771 33.8478 6.1923 33.8123C6.20749 33.7767 6.22977 33.7444 6.25786 33.7172C6.28595 33.69 6.3193 33.6684 6.35601 33.6537C6.39271 33.639 6.43205 33.6314 6.47177 33.6315C6.51149 33.6314 6.55081 33.639 6.58751 33.6537C6.62421 33.6684 6.65755 33.69 6.68563 33.7172C6.71371 33.7444 6.73599 33.7767 6.75118 33.8123C6.76637 33.8479 6.77417 33.886 6.77415 33.9244V40.9569C6.77415 41.1189 6.63888 41.25 6.47177 41.25ZM16.754 41.25C16.5868 41.25 16.4515 41.1189 16.4515 40.9569V33.9244C16.4515 33.886 16.4593 33.8478 16.4745 33.8123C16.4897 33.7767 16.512 33.7444 16.5401 33.7172C16.5682 33.69 16.6015 33.6684 16.6382 33.6537C16.6749 33.639 16.7143 33.6314 16.754 33.6315C16.7937 33.6314 16.833 33.639 16.8697 33.6537C16.9064 33.6684 16.9398 33.69 16.9679 33.7172C16.9959 33.7444 17.0182 33.7767 17.0334 33.8123C17.0486 33.8479 17.0564 33.886 17.0564 33.9244V40.9569C17.0564 41.1189 16.9212 41.25 16.754 41.25Z" fill="#82C590"/>
<path d="M16.754 34.2174H6.47177C6.30459 34.2174 6.16931 34.0864 6.16931 33.9244C6.16931 33.7625 6.30459 33.6315 6.47177 33.6315H16.754C16.9211 33.6315 17.0564 33.7625 17.0564 33.9244C17.0564 34.0864 16.9212 34.2174 16.754 34.2174ZM37.9234 6.67366H33.6894C33.6497 6.67368 33.6104 6.66611 33.5737 6.65139C33.537 6.63667 33.5036 6.61508 33.4755 6.58786C33.4474 6.56064 33.4252 6.52833 33.41 6.49277C33.3948 6.4572 33.387 6.41909 33.387 6.3806V4.62246C33.387 4.52113 33.4413 4.42677 33.5305 4.37292C33.5744 4.34678 33.6244 4.33191 33.6759 4.32972C33.7274 4.32753 33.7786 4.33808 33.8247 4.36039L34.8087 4.83712L35.5642 3.86072C35.6782 3.71309 35.934 3.71309 36.0479 3.86072L36.8039 4.83712L37.788 4.36039C37.8341 4.33797 37.8853 4.32736 37.9368 4.32955C37.9883 4.33174 38.0383 4.34667 38.0822 4.37292C38.126 4.39928 38.1622 4.43602 38.1873 4.47968C38.2124 4.52334 38.2256 4.57248 38.2257 4.62246V6.3806C38.2257 6.41908 38.2179 6.4572 38.2028 6.49276C38.1876 6.52832 38.1653 6.56064 38.1372 6.58786C38.1092 6.61508 38.0758 6.63667 38.0391 6.65139C38.0024 6.66611 37.9631 6.67368 37.9234 6.67366ZM33.9919 6.08761H37.6209V5.09634L36.8488 5.47065C36.7854 5.50123 36.7129 5.50933 36.644 5.49355C36.5751 5.47777 36.514 5.43911 36.4714 5.38427L35.8063 4.52465L35.1407 5.38427C35.0533 5.49812 34.8949 5.53307 34.7638 5.47065L33.9919 5.09634V6.08761ZM24.012 21.9108C23.9522 21.9108 23.8937 21.8937 23.844 21.8615C23.7942 21.8293 23.7555 21.7835 23.7326 21.73C23.7097 21.6764 23.7037 21.6175 23.7154 21.5606C23.7271 21.5038 23.7559 21.4516 23.7983 21.4106L28.0321 17.3083C28.0892 17.2553 28.1655 17.2261 28.2445 17.227C28.3236 17.2278 28.3992 17.2586 28.4551 17.3128C28.511 17.367 28.5428 17.4402 28.5436 17.5168C28.5445 17.5935 28.5144 17.6673 28.4597 17.7227L24.2259 21.825C24.1978 21.8522 24.1645 21.8738 24.1278 21.8886C24.0911 21.9033 24.0517 21.9108 24.012 21.9108Z" fill="#82C590"/>
<path d="M22.1973 18.3945C22.1198 18.3944 22.0452 18.3655 21.9891 18.3137C21.933 18.2618 21.8995 18.1911 21.8957 18.1161C21.8919 18.041 21.9179 17.9675 21.9685 17.9105C22.0191 17.8536 22.0903 17.8176 22.1674 17.8101L28.2159 17.2241C28.3866 17.2086 28.53 17.3254 28.5466 17.4862C28.5545 17.5635 28.5305 17.6406 28.4798 17.7007C28.4291 17.7608 28.3558 17.7989 28.2761 17.8067L22.2277 18.3927C22.2173 18.3939 22.2073 18.3945 22.1973 18.3945ZM5.26242 30.1151C5.20747 30.1151 5.15355 30.1006 5.10645 30.0732C5.05936 30.0458 5.02087 30.0064 4.99512 29.9594C4.97644 29.9254 4.96487 29.8882 4.96105 29.8499C4.95724 29.8116 4.96126 29.773 4.9729 29.7362C4.98453 29.6994 5.00354 29.6652 5.02884 29.6356C5.05414 29.6059 5.08523 29.5814 5.12034 29.5634L24.4751 19.6009C24.6217 19.5236 24.8053 19.5797 24.8839 19.7222C24.9026 19.7562 24.9141 19.7934 24.918 19.8317C24.9218 19.87 24.9177 19.9086 24.9061 19.9454C24.8945 19.9822 24.8755 20.0164 24.8502 20.046C24.8249 20.0757 24.7938 20.1002 24.7587 20.1182L5.40389 30.0808C5.36039 30.1034 5.31178 30.1152 5.26242 30.1151ZM4.05273 27.7709C3.99461 27.771 3.93769 27.7549 3.88881 27.7244C3.83993 27.694 3.80117 27.6505 3.77719 27.5992C3.76073 27.5641 3.75155 27.5263 3.75018 27.4879C3.74881 27.4494 3.75528 27.4111 3.76921 27.375C3.78314 27.339 3.80427 27.306 3.83138 27.2778C3.85849 27.2497 3.89106 27.2271 3.92721 27.2111L23.8868 18.4208C24.0398 18.3544 24.2189 18.4191 24.2873 18.5662C24.3205 18.6369 24.3233 18.7175 24.2952 18.7902C24.2671 18.863 24.2103 18.9219 24.1373 18.9542L4.17765 27.7446C4.1384 27.7618 4.09582 27.7708 4.05273 27.7709Z" fill="#82C590"/>
<path d="M5.26212 30.1151C5.22959 30.1152 5.19726 30.1102 5.16639 30.1002C5.09036 30.0755 5.02755 30.0226 4.99173 29.9531C4.95591 29.8835 4.95001 29.8031 4.97532 29.7294L5.58016 27.9712C5.59269 27.9347 5.61253 27.9009 5.63854 27.8719C5.66455 27.8428 5.69621 27.8189 5.73173 27.8017C5.76725 27.7845 5.80592 27.7742 5.84554 27.7715C5.88515 27.7688 5.92494 27.7736 5.96262 27.7858C6.03865 27.8105 6.10146 27.8634 6.13728 27.9329C6.1731 28.0025 6.179 28.0829 6.15369 28.1567L5.54885 29.9147C5.52879 29.973 5.4903 30.0238 5.43885 30.0597C5.38739 30.0957 5.32557 30.1151 5.26212 30.1151Z" fill="#82C590"/>
<path d="M5.86678 28.357C5.83425 28.357 5.80192 28.352 5.77105 28.3421L3.95653 27.756C3.88049 27.7313 3.81767 27.6784 3.78186 27.6089C3.74605 27.5393 3.74017 27.4589 3.76552 27.3852C3.77789 27.3485 3.79764 27.3147 3.82361 27.2855C3.84958 27.2563 3.88126 27.2324 3.91683 27.2151C3.9524 27.1979 3.99114 27.1877 4.03081 27.185C4.07049 27.1824 4.11031 27.1874 4.14798 27.1997L5.96251 27.7858C6.03854 27.8105 6.10135 27.8634 6.13717 27.9329C6.17299 28.0025 6.17889 28.0829 6.15359 28.1566C6.13347 28.2149 6.09497 28.2656 6.0435 28.3016C5.99204 28.3375 5.93022 28.3569 5.86678 28.357ZM8.89099 41.25C8.7238 41.25 8.58853 41.1189 8.58853 40.9569V38.6127C8.58851 38.5743 8.59632 38.5361 8.61151 38.5006C8.62671 38.465 8.64899 38.4327 8.67708 38.4055C8.70517 38.3783 8.73852 38.3567 8.77522 38.342C8.81193 38.3273 8.85127 38.3197 8.89099 38.3198C8.9307 38.3197 8.97003 38.3273 9.00673 38.342C9.04342 38.3567 9.07677 38.3783 9.10485 38.4055C9.13293 38.4327 9.1552 38.465 9.17039 38.5006C9.18558 38.5362 9.19339 38.5743 9.19337 38.6127V40.9569C9.19337 41.1189 9.0581 41.25 8.89099 41.25ZM14.3345 37.7337C14.2948 37.7337 14.2554 37.7262 14.2187 37.7114C14.182 37.6967 14.1487 37.6751 14.1206 37.6479C14.0925 37.6207 14.0703 37.5884 14.0551 37.5529C14.0399 37.5173 14.0321 37.4792 14.0321 37.4407V33.9255C14.0321 33.8871 14.0399 33.8489 14.0551 33.8134C14.0703 33.7778 14.0925 33.7455 14.1206 33.7183C14.1487 33.6911 14.182 33.6695 14.2187 33.6548C14.2554 33.6401 14.2948 33.6325 14.3345 33.6326C14.5017 33.6326 14.6369 33.7635 14.6369 33.9255V37.4407C14.637 37.4792 14.6292 37.5173 14.614 37.5529C14.5988 37.5884 14.5765 37.6208 14.5484 37.648C14.5203 37.6752 14.487 37.6968 14.4502 37.7115C14.4135 37.7262 14.3742 37.7337 14.3345 37.7337Z" fill="#82C590"/>
<path d="M21.5929 32.4594C21.5532 32.4594 21.5139 32.4518 21.4772 32.4371C21.4405 32.4224 21.4071 32.4008 21.379 32.3736C21.3509 32.3464 21.3287 32.314 21.3135 32.2785C21.2983 32.2429 21.2905 32.2048 21.2905 32.1663V26.8925C21.2905 26.7306 21.4258 26.5995 21.5929 26.5995C21.7601 26.5995 21.8954 26.7306 21.8954 26.8925V32.1663C21.8954 32.3282 21.7601 32.4594 21.5929 32.4594Z" fill="#82C590"/>
<path d="M26.4311 41.25C26.2639 41.25 26.1287 41.1189 26.1287 40.9569V34.5105C26.1287 34.3485 26.2639 34.2174 26.4311 34.2174C26.4708 34.2174 26.5102 34.225 26.5469 34.2397C26.5836 34.2544 26.6169 34.276 26.645 34.3032C26.6731 34.3304 26.6954 34.3627 26.7105 34.3983C26.7257 34.4339 26.7335 34.472 26.7335 34.5105V40.9569C26.7335 41.1189 26.5982 41.25 26.4311 41.25Z" fill="#82C590"/>
<path d="M33.6893 41.25C33.6496 41.25 33.6103 41.2424 33.5736 41.2277C33.5369 41.213 33.5035 41.1914 33.4755 41.1642C33.4474 41.137 33.4251 41.1047 33.4099 41.0691C33.3947 41.0335 33.3869 40.9954 33.387 40.9569V30.4082C33.387 30.2462 33.5222 30.1152 33.6893 30.1152C33.8565 30.1152 33.9918 30.2462 33.9918 30.4082V40.9569C33.9918 41.1189 33.8565 41.25 33.6893 41.25Z" fill="#82C590"/>
<path d="M38.5312 28.357C38.364 28.357 38.2288 28.2259 38.2288 28.064V20.4456C38.2288 20.2837 38.364 20.1526 38.5312 20.1526C38.5709 20.1526 38.6103 20.1601 38.647 20.1749C38.6837 20.1896 38.717 20.2112 38.7451 20.2384C38.7732 20.2656 38.7955 20.2979 38.8106 20.3335C38.8258 20.369 38.8336 20.4072 38.8336 20.4456V28.064C38.8336 28.1024 38.8258 28.1406 38.8106 28.1761C38.7954 28.2117 38.7732 28.244 38.7451 28.2712C38.717 28.2984 38.6837 28.32 38.647 28.3347C38.6103 28.3494 38.5709 28.357 38.5312 28.357Z" fill="#82C590"/>
</g>
</svg>
