<svg width="152" height="209" viewBox="0 0 152 209" fill="none" xmlns="http://www.w3.org/2000/svg">
<path d="M35.6917 182.248C37.4517 182.248 38.9957 182.592 40.3237 183.28C41.6677 183.968 42.6997 184.952 43.4197 186.232C44.1557 187.496 44.5237 188.968 44.5237 190.648C44.5237 192.328 44.1557 193.8 43.4197 195.064C42.6997 196.312 41.6677 197.28 40.3237 197.968C38.9957 198.656 37.4517 199 35.6917 199H29.8357V182.248H35.6917ZM35.5717 196.144C37.3317 196.144 38.6917 195.664 39.6517 194.704C40.6117 193.744 41.0917 192.392 41.0917 190.648C41.0917 188.904 40.6117 187.544 39.6517 186.568C38.6917 185.576 37.3317 185.08 35.5717 185.08H33.1957V196.144H35.5717ZM50.3988 187.768C50.8308 187.064 51.3908 186.512 52.0788 186.112C52.7828 185.712 53.5828 185.512 54.4788 185.512V189.04H53.5908C52.5348 189.04 51.7348 189.288 51.1908 189.784C50.6628 190.28 50.3988 191.144 50.3988 192.376V199H47.0388V185.704H50.3988V187.768ZM55.8779 192.304C55.8779 190.96 56.1419 189.768 56.6699 188.728C57.2139 187.688 57.9419 186.888 58.8539 186.328C59.7819 185.768 60.8139 185.488 61.9499 185.488C62.9419 185.488 63.8059 185.688 64.5419 186.088C65.2939 186.488 65.8939 186.992 66.3419 187.6V185.704H69.7259V199H66.3419V197.056C65.9099 197.68 65.3099 198.2 64.5419 198.616C63.7899 199.016 62.9179 199.216 61.9259 199.216C60.8059 199.216 59.7819 198.928 58.8539 198.352C57.9419 197.776 57.2139 196.968 56.6699 195.928C56.1419 194.872 55.8779 193.664 55.8779 192.304ZM66.3419 192.352C66.3419 191.536 66.1819 190.84 65.8619 190.264C65.5419 189.672 65.1099 189.224 64.5659 188.92C64.0219 188.6 63.4379 188.44 62.8139 188.44C62.1899 188.44 61.6139 188.592 61.0859 188.896C60.5579 189.2 60.1259 189.648 59.7899 190.24C59.4699 190.816 59.3099 191.504 59.3099 192.304C59.3099 193.104 59.4699 193.808 59.7899 194.416C60.1259 195.008 60.5579 195.464 61.0859 195.784C61.6299 196.104 62.2059 196.264 62.8139 196.264C63.4379 196.264 64.0219 196.112 64.5659 195.808C65.1099 195.488 65.5419 195.04 65.8619 194.464C66.1819 193.872 66.3419 193.168 66.3419 192.352ZM91.4396 185.704L87.5516 199H83.9276L81.5036 189.712L79.0796 199H75.4316L71.5196 185.704H74.9276L77.2796 195.832L79.8236 185.704H83.3756L85.8716 195.808L88.2236 185.704H91.4396ZM94.7456 199.168C94.1376 199.168 93.6336 198.984 93.2336 198.616C92.8496 198.232 92.6576 197.76 92.6576 197.2C92.6576 196.64 92.8496 196.176 93.2336 195.808C93.6336 195.424 94.1376 195.232 94.7456 195.232C95.3376 195.232 95.8256 195.424 96.2096 195.808C96.5936 196.176 96.7856 196.64 96.7856 197.2C96.7856 197.76 96.5936 198.232 96.2096 198.616C95.8256 198.984 95.3376 199.168 94.7456 199.168ZM101.196 184.12C100.604 184.12 100.108 183.936 99.7079 183.568C99.3239 183.184 99.1319 182.712 99.1319 182.152C99.1319 181.592 99.3239 181.128 99.7079 180.76C100.108 180.376 100.604 180.184 101.196 180.184C101.788 180.184 102.276 180.376 102.66 180.76C103.06 181.128 103.26 181.592 103.26 182.152C103.26 182.712 103.06 183.184 102.66 183.568C102.276 183.936 101.788 184.12 101.196 184.12ZM102.852 185.704V199H99.4919V185.704H102.852ZM112.076 199.216C110.796 199.216 109.644 198.936 108.62 198.376C107.596 197.8 106.788 196.992 106.196 195.952C105.62 194.912 105.332 193.712 105.332 192.352C105.332 190.992 105.628 189.792 106.22 188.752C106.828 187.712 107.652 186.912 108.692 186.352C109.732 185.776 110.892 185.488 112.172 185.488C113.452 185.488 114.612 185.776 115.652 186.352C116.692 186.912 117.508 187.712 118.1 188.752C118.708 189.792 119.012 190.992 119.012 192.352C119.012 193.712 118.7 194.912 118.076 195.952C117.468 196.992 116.636 197.8 115.58 198.376C114.54 198.936 113.372 199.216 112.076 199.216ZM112.076 196.288C112.684 196.288 113.252 196.144 113.78 195.856C114.324 195.552 114.756 195.104 115.076 194.512C115.396 193.92 115.556 193.2 115.556 192.352C115.556 191.088 115.22 190.12 114.548 189.448C113.892 188.76 113.084 188.416 112.124 188.416C111.164 188.416 110.356 188.76 109.7 189.448C109.06 190.12 108.74 191.088 108.74 192.352C108.74 193.616 109.052 194.592 109.676 195.28C110.316 195.952 111.116 196.288 112.076 196.288Z" fill="#2C2C2C"/>
<g filter="url(#filter0_dd_587_946)">
<rect x="4" y="4" width="140" height="140" rx="20" fill="white"/>
<rect x="4.5" y="4.5" width="139" height="139" rx="19.5" stroke="#81C592"/>
</g>
<mask id="mask0_587_946" style="mask-type:alpha" maskUnits="userSpaceOnUse" x="18" y="18" width="112" height="112">
<rect x="18" y="18" width="112" height="112" fill="#D9D9D9"/>
</mask>
<g mask="url(#mask0_587_946)">
<path d="M120.667 116.682C120.667 118.935 118.819 120.667 116.682 120.667H31.3191C29.0667 120.667 27.334 118.819 27.334 116.682V31.3191C27.334 29.0667 29.1822 27.334 31.3191 27.334H116.682C118.935 27.334 120.667 29.1822 120.667 31.3191V116.682Z" fill="#F08705"/>
<path d="M120.669 116.682C120.669 118.935 118.821 120.668 116.684 120.668H59.2751L40.6777 101.781L52.2289 82.8952L86.5358 40.2715L120.554 75.3292L120.669 116.682Z" fill="#DF6C0C"/>
<path d="M103.976 79.4882H94.1577L83.7617 61.8149C86.0719 61.3529 87.8046 59.2737 87.8046 56.8479V43.5063C87.8046 40.6763 85.5521 38.4238 82.7221 38.4238H65.3954C62.5653 38.4238 60.3129 40.6763 60.3129 43.5063V56.8479C60.3129 59.3314 62.0455 61.3529 64.298 61.8149L53.902 79.5459H44.0835C41.2535 79.5459 39.001 81.7984 39.001 84.6284V97.97C39.001 100.8 41.2535 103.053 44.0835 103.053H61.4102C64.2402 103.053 66.4927 100.8 66.4927 97.97V84.6284C66.4927 81.7984 64.2402 79.5459 61.4102 79.5459H59.7353L70.0158 61.9882H78.0439L88.3822 79.5459H86.6495C83.8195 79.5459 81.567 81.7984 81.567 84.6284V97.97C81.567 100.8 83.8195 103.053 86.6495 103.053H103.976C106.806 103.053 109.059 100.8 109.059 97.97V84.6284C109.059 81.7984 106.806 79.4882 103.976 79.4882Z" fill="white"/>
</g>
<defs>
<filter id="filter0_dd_587_946" x="0" y="0" width="152" height="152" filterUnits="userSpaceOnUse" color-interpolation-filters="sRGB">
<feFlood flood-opacity="0" result="BackgroundImageFix"/>
<feColorMatrix in="SourceAlpha" type="matrix" values="0 0 0 0 0 0 0 0 0 0 0 0 0 0 0 0 0 0 127 0" result="hardAlpha"/>
<feOffset dy="4"/>
<feGaussianBlur stdDeviation="2"/>
<feComposite in2="hardAlpha" operator="out"/>
<feColorMatrix type="matrix" values="0 0 0 0 0 0 0 0 0 0 0 0 0 0 0 0 0 0 0.1 0"/>
<feBlend mode="normal" in2="BackgroundImageFix" result="effect1_dropShadow_587_946"/>
<feColorMatrix in="SourceAlpha" type="matrix" values="0 0 0 0 0 0 0 0 0 0 0 0 0 0 0 0 0 0 127 0" result="hardAlpha"/>
<feOffset dx="4"/>
<feGaussianBlur stdDeviation="2"/>
<feComposite in2="hardAlpha" operator="out"/>
<feColorMatrix type="matrix" values="0 0 0 0 0 0 0 0 0 0 0 0 0 0 0 0 0 0 0.1 0"/>
<feBlend mode="normal" in2="effect1_dropShadow_587_946" result="effect2_dropShadow_587_946"/>
<feBlend mode="normal" in="SourceGraphic" in2="effect2_dropShadow_587_946" result="shape"/>
</filter>
</defs>
</svg>
