<svg width="212" height="279" viewBox="0 0 212 279" fill="none" xmlns="http://www.w3.org/2000/svg">
<g filter="url(#filter0_dd_581_20)">
<rect x="4" y="4" width="200" height="200" rx="20" fill="white"/>
<rect x="4.5" y="4.5" width="199" height="199" rx="19.5" stroke="#81C592"/>
</g>
<path d="M61.3859 267.21C59.9259 267.21 58.6059 266.96 57.4259 266.46C56.2659 265.96 55.3459 265.24 54.6659 264.3C53.9859 263.36 53.6359 262.25 53.6159 260.97H58.1159C58.1759 261.83 58.4759 262.51 59.0159 263.01C59.5759 263.51 60.3359 263.76 61.2959 263.76C62.2759 263.76 63.0459 263.53 63.6059 263.07C64.1659 262.59 64.4459 261.97 64.4459 261.21C64.4459 260.59 64.2559 260.08 63.8759 259.68C63.4959 259.28 63.0159 258.97 62.4359 258.75C61.8759 258.51 61.0959 258.25 60.0959 257.97C58.7359 257.57 57.6259 257.18 56.7659 256.8C55.9259 256.4 55.1959 255.81 54.5759 255.03C53.9759 254.23 53.6759 253.17 53.6759 251.85C53.6759 250.61 53.9859 249.53 54.6059 248.61C55.2259 247.69 56.0959 246.99 57.2159 246.51C58.3359 246.01 59.6159 245.76 61.0559 245.76C63.2159 245.76 64.9659 246.29 66.3059 247.35C67.6659 248.39 68.4159 249.85 68.5559 251.73H63.9359C63.8959 251.01 63.5859 250.42 63.0059 249.96C62.4459 249.48 61.6959 249.24 60.7559 249.24C59.9359 249.24 59.2759 249.45 58.7759 249.87C58.2959 250.29 58.0559 250.9 58.0559 251.7C58.0559 252.26 58.2359 252.73 58.5959 253.11C58.9759 253.47 59.4359 253.77 59.9759 254.01C60.5359 254.23 61.3159 254.49 62.3159 254.79C63.6759 255.19 64.7859 255.59 65.6459 255.99C66.5059 256.39 67.2459 256.99 67.8659 257.79C68.4859 258.59 68.7959 259.64 68.7959 260.94C68.7959 262.06 68.5059 263.1 67.9259 264.06C67.3459 265.02 66.4959 265.79 65.3759 266.37C64.2559 266.93 62.9259 267.21 61.3859 267.21ZM82.2772 267L76.6372 259.92V267H72.4372V244.8H76.6372V257.43L82.2172 250.38H87.6772L80.3572 258.72L87.7372 267H82.2772ZM105.407 258.33C105.407 258.93 105.367 259.47 105.287 259.95H93.1367C93.2367 261.15 93.6567 262.09 94.3967 262.77C95.1367 263.45 96.0467 263.79 97.1267 263.79C98.6867 263.79 99.7967 263.12 100.457 261.78H104.987C104.507 263.38 103.587 264.7 102.227 265.74C100.867 266.76 99.1967 267.27 97.2167 267.27C95.6167 267.27 94.1767 266.92 92.8967 266.22C91.6367 265.5 90.6467 264.49 89.9267 263.19C89.2267 261.89 88.8767 260.39 88.8767 258.69C88.8767 256.97 89.2267 255.46 89.9267 254.16C90.6267 252.86 91.6067 251.86 92.8667 251.16C94.1267 250.46 95.5767 250.11 97.2167 250.11C98.7967 250.11 100.207 250.45 101.447 251.13C102.707 251.81 103.677 252.78 104.357 254.04C105.057 255.28 105.407 256.71 105.407 258.33ZM101.057 257.13C101.037 256.05 100.647 255.19 99.8867 254.55C99.1267 253.89 98.1967 253.56 97.0967 253.56C96.0567 253.56 95.1767 253.88 94.4567 254.52C93.7567 255.14 93.3267 256.01 93.1667 257.13H101.057ZM113.362 253.83V261.87C113.362 262.43 113.492 262.84 113.752 263.1C114.032 263.34 114.492 263.46 115.132 263.46H117.082V267H114.442C110.902 267 109.132 265.28 109.132 261.84V253.83H107.152V250.38H109.132V246.27H113.362V250.38H117.082V253.83H113.362ZM119.023 258.69C119.023 256.97 119.373 255.47 120.073 254.19C120.773 252.89 121.743 251.89 122.983 251.19C124.223 250.47 125.643 250.11 127.243 250.11C129.303 250.11 131.003 250.63 132.343 251.67C133.703 252.69 134.613 254.13 135.073 255.99H130.543C130.303 255.27 129.893 254.71 129.313 254.31C128.753 253.89 128.053 253.68 127.213 253.68C126.013 253.68 125.063 254.12 124.363 255C123.663 255.86 123.313 257.09 123.313 258.69C123.313 260.27 123.663 261.5 124.363 262.38C125.063 263.24 126.013 263.67 127.213 263.67C128.913 263.67 130.023 262.91 130.543 261.39H135.073C134.613 263.19 133.703 264.62 132.343 265.68C130.983 266.74 129.283 267.27 127.243 267.27C125.643 267.27 124.223 266.92 122.983 266.22C121.743 265.5 120.773 264.5 120.073 263.22C119.373 261.92 119.023 260.41 119.023 258.69ZM147.51 250.14C148.77 250.14 149.89 250.42 150.87 250.98C151.85 251.52 152.61 252.33 153.15 253.41C153.71 254.47 153.99 255.75 153.99 257.25V267H149.79V257.82C149.79 256.5 149.46 255.49 148.8 254.79C148.14 254.07 147.24 253.71 146.1 253.71C144.94 253.71 144.02 254.07 143.34 254.79C142.68 255.49 142.35 256.5 142.35 257.82V267H138.15V244.8H142.35V252.45C142.89 251.73 143.61 251.17 144.51 250.77C145.41 250.35 146.41 250.14 147.51 250.14Z" fill="#2C2C2C"/>
<mask id="mask0_581_20" style="mask-type:alpha" maskUnits="userSpaceOnUse" x="24" y="24" width="160" height="160">
<rect x="24" y="24" width="160" height="160" fill="#D9D9D9"/>
</mask>
<g mask="url(#mask0_581_20)">
<path fill-rule="evenodd" clip-rule="evenodd" d="M66.4242 47.7628L104 44L141.576 47.7628L170.666 84.7524L104 158.285L37.3334 84.7524L66.4242 47.7628Z" fill="#FDB300"/>
<path d="M64.3363 84.752L103.999 158.285L37.3333 84.752H64.3363ZM143.664 84.752L103.999 158.285L170.667 84.752" fill="#EA6C00"/>
<path fill-rule="evenodd" clip-rule="evenodd" d="M64.3384 84.752H143.665L104.002 158.285" fill="#FDAD00"/>
<path d="M104.002 44L66.4259 47.7621L64.3384 84.7519L104.002 44ZM104.002 44L141.578 47.7621L143.666 84.7519" fill="#FDD231"/>
<path d="M170.667 84.7515L141.576 47.7617L143.664 84.7515H170.667ZM37.3333 84.7515L66.4238 47.7617L64.3363 84.7515" fill="#FDAD00"/>
<path fill-rule="evenodd" clip-rule="evenodd" d="M104.002 44L64.3384 84.7519H143.665" fill="#FEEEB7"/>
</g>
<defs>
<filter id="filter0_dd_581_20" x="0" y="0" width="212" height="212" filterUnits="userSpaceOnUse" color-interpolation-filters="sRGB">
<feFlood flood-opacity="0" result="BackgroundImageFix"/>
<feColorMatrix in="SourceAlpha" type="matrix" values="0 0 0 0 0 0 0 0 0 0 0 0 0 0 0 0 0 0 127 0" result="hardAlpha"/>
<feOffset dy="4"/>
<feGaussianBlur stdDeviation="2"/>
<feComposite in2="hardAlpha" operator="out"/>
<feColorMatrix type="matrix" values="0 0 0 0 0 0 0 0 0 0 0 0 0 0 0 0 0 0 0.1 0"/>
<feBlend mode="normal" in2="BackgroundImageFix" result="effect1_dropShadow_581_20"/>
<feColorMatrix in="SourceAlpha" type="matrix" values="0 0 0 0 0 0 0 0 0 0 0 0 0 0 0 0 0 0 127 0" result="hardAlpha"/>
<feOffset dx="4"/>
<feGaussianBlur stdDeviation="2"/>
<feComposite in2="hardAlpha" operator="out"/>
<feColorMatrix type="matrix" values="0 0 0 0 0 0 0 0 0 0 0 0 0 0 0 0 0 0 0.1 0"/>
<feBlend mode="normal" in2="effect1_dropShadow_581_20" result="effect2_dropShadow_581_20"/>
<feBlend mode="normal" in="SourceGraphic" in2="effect2_dropShadow_581_20" result="shape"/>
</filter>
</defs>
</svg>
