<svg width="386" height="272" viewBox="0 0 386 272" fill="none" xmlns="http://www.w3.org/2000/svg">
<path d="M263.19 211.729L119.38 176.809L144.49 78.1991C144.822 76.9012 145.644 75.7824 146.783 75.0776C147.922 74.3728 149.29 74.1368 150.6 74.4191L285.6 103.579C286.229 103.715 286.824 103.976 287.349 104.347C287.875 104.718 288.32 105.191 288.659 105.738C288.998 106.285 289.223 106.895 289.321 107.531C289.419 108.166 289.388 108.816 289.23 109.439L263.19 211.729Z" stroke="#333333" stroke-linecap="round" stroke-linejoin="round"/>
<path d="M258.71 211.21L114.9 176.33L140.01 77.7203C140.34 76.4232 141.16 75.3046 142.297 74.5996C143.435 73.8946 144.802 73.6583 146.11 73.9403L281.11 103.1C281.738 103.236 282.333 103.498 282.858 103.869C283.384 104.24 283.829 104.713 284.166 105.26C284.504 105.807 284.729 106.417 284.825 107.053C284.922 107.689 284.89 108.337 284.73 108.96L258.71 211.21Z" stroke="#333333" stroke-linecap="round" stroke-linejoin="round"/>
<path d="M262.26 215.66L114.9 176.33L144.49 78.2401C144.822 76.9422 145.644 75.8234 146.783 75.1186C147.922 74.4138 149.29 74.1778 150.6 74.4601L285.6 103.62C286.229 103.756 286.824 104.017 287.349 104.388C287.875 104.759 288.32 105.232 288.659 105.779C288.998 106.326 289.223 106.936 289.321 107.572C289.419 108.207 289.388 108.857 289.23 109.48L262.26 215.66Z" fill="#146972"/>
<path d="M258.71 211.21L114.9 176.33L140.01 77.7203C140.34 76.4232 141.16 75.3046 142.297 74.5996C143.435 73.8946 144.802 73.6583 146.11 73.9403L281.11 103.1C281.738 103.236 282.333 103.498 282.858 103.869C283.384 104.24 283.829 104.713 284.166 105.26C284.504 105.807 284.729 106.417 284.825 107.053C284.922 107.689 284.89 108.337 284.73 108.96L258.71 211.21Z" fill="white"/>
<path d="M182.89 220.809L54.25 189.969C49.07 188.439 50.5 181.659 54.25 181.439L113.73 181.759L262.26 215.659L191.64 221.499C188.705 221.736 185.751 221.503 182.89 220.809Z" fill="#146972"/>
<path d="M183.22 215.48L166.14 211.39L129.66 202.64L84.89 191.9L53.1 184.27C52.7636 184.193 52.4661 183.997 52.2616 183.719C52.0572 183.441 51.9593 183.099 51.986 182.755C52.0126 182.411 52.162 182.088 52.4068 181.844C52.6517 181.601 52.9757 181.454 53.32 181.43L114.02 176.43L257.19 210.75L191.89 216.15C188.983 216.393 186.055 216.167 183.22 215.48Z" fill="#2AB6C5" stroke="#146972" stroke-miterlimit="10"/>
<path d="M195.32 206.179C195.49 206.169 195.651 206.098 195.773 205.979C195.896 205.86 195.971 205.701 195.985 205.531C196 205.361 195.953 205.192 195.853 205.054C195.753 204.915 195.606 204.818 195.44 204.779L158.58 195.939L116.03 185.739C115.792 185.678 115.544 185.661 115.3 185.689L95.96 187.809C95.8256 187.816 95.6986 187.873 95.603 187.968C95.5074 188.062 95.4498 188.189 95.4412 188.323C95.4326 188.457 95.4735 188.59 95.5562 188.696C95.6389 188.802 95.7577 188.875 95.89 188.899L137.55 198.899L171.29 206.989C173.109 207.425 174.984 207.584 176.85 207.459L195.32 206.179Z" fill="#8BE1E5" stroke="#146972" stroke-miterlimit="10"/>
<path opacity="0.14" d="M375.36 136.5L320.18 124.24C319.658 124.123 319.165 123.902 318.73 123.591C318.295 123.28 317.926 122.885 317.647 122.429C317.367 121.973 317.182 121.466 317.101 120.937C317.021 120.408 317.048 119.868 317.18 119.35L323.42 94.68C323.674 93.6711 324.311 92.8008 325.196 92.2538C326.081 91.7068 327.144 91.5261 328.16 91.75L351.87 97L364.94 99.89L377.16 102.6L382.79 103.81C383.302 103.928 383.786 104.146 384.214 104.451C384.642 104.756 385.006 105.142 385.285 105.588C385.563 106.034 385.751 106.53 385.838 107.049C385.925 107.567 385.908 108.098 385.79 108.61L380.11 133.46C379.88 134.491 379.252 135.39 378.362 135.96C377.472 136.529 376.393 136.723 375.36 136.5Z" fill="#505050"/>
<path d="M356.35 124.5L301.17 112.24C300.648 112.123 300.155 111.902 299.72 111.591C299.285 111.28 298.917 110.885 298.637 110.429C298.357 109.973 298.172 109.466 298.092 108.937C298.011 108.408 298.038 107.868 298.17 107.35L304.42 82.68C304.674 81.6711 305.311 80.8008 306.196 80.2538C307.081 79.7068 308.144 79.5261 309.16 79.75L332.87 85L345.94 87.89L358.16 90.59L363.79 91.81C364.302 91.9279 364.787 92.1456 365.215 92.4507C365.643 92.7558 366.006 93.1424 366.285 93.5882C366.564 94.034 366.752 94.5303 366.838 95.0488C366.925 95.5673 366.909 96.0978 366.79 96.61L361.11 121.46C360.881 122.493 360.251 123.394 359.358 123.964C358.466 124.533 357.384 124.726 356.35 124.5Z" fill="#2AB6C5" stroke="#146972" stroke-miterlimit="10"/>
<path d="M353.33 104.449H353.11L333.66 100.139C333.526 100.118 333.397 100.069 333.283 99.9955C333.168 99.9224 333.069 99.8266 332.993 99.714C332.917 99.6015 332.864 99.4745 332.838 99.3409C332.813 99.2073 332.814 99.0699 332.844 98.937C332.873 98.8041 332.929 98.6787 333.009 98.5682C333.088 98.4578 333.189 98.3648 333.306 98.2948C333.423 98.2248 333.552 98.1794 333.687 98.1612C333.822 98.1431 333.959 98.1527 334.09 98.1894L353.54 102.489C353.805 102.517 354.049 102.649 354.216 102.857C354.384 103.064 354.463 103.329 354.435 103.594C354.407 103.86 354.275 104.103 354.068 104.271C353.861 104.439 353.595 104.517 353.33 104.489V104.449Z" fill="white"/>
<path d="M345.95 107.67C345.877 107.68 345.803 107.68 345.73 107.67L332.66 104.81C332.395 104.753 332.163 104.593 332.016 104.365C331.869 104.137 331.818 103.86 331.875 103.595C331.932 103.33 332.092 103.098 332.32 102.951C332.548 102.804 332.825 102.753 333.09 102.81L346.16 105.71C346.418 105.767 346.643 105.925 346.786 106.148C346.928 106.371 346.977 106.641 346.92 106.9C346.868 107.119 346.744 107.314 346.568 107.453C346.392 107.593 346.175 107.669 345.95 107.67Z" fill="white"/>
<path d="M302.56 108.01L308.6 84.1602L331.42 89.2001L325.92 113.22L302.56 108.01Z" fill="#8BE1E5" fill-opacity="0.43" stroke="#146972" stroke-miterlimit="10"/>
<path d="M306.89 105.349L311.18 88.3594L327.17 91.8894L323.26 108.999L306.89 105.349Z" fill="#1FC3DF" stroke="#146972" stroke-miterlimit="10"/>
<path opacity="0.14" d="M138.15 246.201L115.29 241.131C114.769 241.013 114.277 240.793 113.843 240.483C113.408 240.172 113.041 239.778 112.761 239.323C112.482 238.868 112.296 238.362 112.215 237.835C112.134 237.307 112.16 236.768 112.29 236.251L118.53 211.571C118.784 210.562 119.421 209.691 120.306 209.144C121.191 208.597 122.254 208.417 123.27 208.641L145.57 213.541C146.082 213.659 146.566 213.876 146.995 214.181C147.423 214.486 147.786 214.873 148.065 215.319C148.344 215.765 148.532 216.261 148.618 216.779C148.705 217.298 148.689 217.828 148.57 218.341L142.89 243.191C142.654 244.214 142.024 245.104 141.137 245.667C140.25 246.23 139.177 246.422 138.15 246.201Z" fill="#505050"/>
<path d="M129.15 236.201L106.29 231.131C105.769 231.013 105.277 230.793 104.843 230.483C104.408 230.172 104.041 229.778 103.761 229.323C103.482 228.868 103.296 228.362 103.215 227.835C103.134 227.307 103.16 226.768 103.29 226.251L109.53 201.571C109.784 200.562 110.421 199.691 111.306 199.144C112.191 198.597 113.254 198.417 114.27 198.641L136.57 203.541C137.082 203.659 137.566 203.876 137.995 204.181C138.423 204.486 138.786 204.873 139.065 205.319C139.344 205.765 139.532 206.261 139.618 206.779C139.705 207.298 139.689 207.828 139.57 208.341L133.89 233.191C133.654 234.214 133.024 235.104 132.137 235.667C131.25 236.23 130.177 236.422 129.15 236.201Z" fill="#146972"/>
<path d="M127.15 235.201L104.29 230.131C103.769 230.013 103.277 229.793 102.843 229.483C102.408 229.172 102.041 228.778 101.761 228.323C101.482 227.868 101.296 227.362 101.215 226.835C101.134 226.307 101.16 225.768 101.29 225.251L107.53 200.571C107.784 199.562 108.421 198.691 109.306 198.144C110.191 197.597 111.254 197.417 112.27 197.641L134.57 202.541C135.082 202.659 135.566 202.876 135.995 203.181C136.423 203.486 136.786 203.873 137.065 204.319C137.344 204.765 137.532 205.261 137.618 205.779C137.705 206.298 137.689 206.828 137.57 207.341L131.89 232.191C131.654 233.214 131.024 234.104 130.137 234.667C129.25 235.23 128.177 235.422 127.15 235.201Z" fill="#8BE1E5" stroke="#146972" stroke-miterlimit="10"/>
<path d="M110.66 224.239L115.39 205.529L128.98 208.459L124.67 227.299L119.31 219.299L110.66 224.239Z" fill="#8BE1E5" stroke="#146972" stroke-miterlimit="10"/>
<path d="M192.88 160.359L142.43 148.809C141.967 148.703 141.53 148.505 141.145 148.226C140.76 147.947 140.435 147.594 140.19 147.187C139.945 146.78 139.784 146.328 139.717 145.858C139.65 145.387 139.678 144.908 139.8 144.449L148.39 111.979C148.626 111.089 149.2 110.325 149.99 109.851C150.779 109.377 151.723 109.229 152.62 109.439L201.92 121.049C202.831 121.263 203.621 121.83 204.115 122.624C204.61 123.419 204.77 124.377 204.56 125.289L197.12 157.729C196.904 158.639 196.336 159.425 195.542 159.918C194.748 160.411 193.791 160.569 192.88 160.359Z" fill="#146972"/>
<path d="M189.41 156.081L138.96 144.501C138.497 144.394 138.06 144.196 137.675 143.917C137.29 143.639 136.965 143.285 136.72 142.879C136.475 142.472 136.314 142.02 136.247 141.549C136.18 141.079 136.208 140.6 136.33 140.141L144.92 107.681C145.156 106.788 145.731 106.023 146.523 105.548C147.315 105.074 148.262 104.927 149.16 105.141L198.46 116.741C199.37 116.957 200.157 117.524 200.652 118.318C201.146 119.112 201.307 120.069 201.1 120.981L193.65 153.421C193.547 153.874 193.356 154.303 193.087 154.683C192.818 155.062 192.477 155.385 192.083 155.632C191.689 155.879 191.25 156.046 190.791 156.123C190.333 156.2 189.863 156.186 189.41 156.081Z" fill="#8BE1E5" stroke="#146972" stroke-miterlimit="10"/>
<path d="M136.4 139.89L155.96 121.57L164.39 142.93L177.16 136.25L193.21 155.38C193.166 155.577 193.084 155.762 192.968 155.926C192.853 156.091 192.705 156.23 192.535 156.337C192.365 156.444 192.175 156.516 191.977 156.549C191.779 156.583 191.576 156.576 191.38 156.53L136.95 144.04C136.75 143.994 136.561 143.907 136.394 143.786C136.228 143.665 136.087 143.512 135.981 143.336C135.875 143.16 135.805 142.964 135.776 142.76C135.746 142.557 135.758 142.349 135.81 142.15L136.4 139.89Z" fill="#2AB6C5" stroke="#146972" stroke-miterlimit="10"/>
<path d="M181.39 125.211C181.478 126.254 181.254 127.3 180.747 128.215C180.24 129.131 179.472 129.876 178.542 130.356C177.611 130.835 176.559 131.028 175.519 130.909C174.479 130.791 173.497 130.366 172.699 129.689C171.9 129.012 171.32 128.114 171.032 127.107C170.745 126.101 170.762 125.031 171.082 124.035C171.403 123.038 172.011 122.159 172.832 121.508C173.652 120.858 174.647 120.465 175.69 120.381C177.086 120.267 178.47 120.712 179.539 121.617C180.607 122.523 181.273 123.815 181.39 125.211Z" fill="#8BE1E5" stroke="#146972" stroke-miterlimit="10"/>
<path opacity="0.14" d="M208.68 110.139L141.3 94.4691C140.839 94.3627 140.404 94.165 140.021 93.8876C139.638 93.6103 139.314 93.259 139.069 92.8544C138.823 92.4498 138.662 92.0002 138.593 91.5321C138.525 91.064 138.551 90.5869 138.67 90.1291L143.1 73.0591C143.334 72.1619 143.909 71.3918 144.704 70.9134C145.498 70.435 146.448 70.2863 147.35 70.4991L214.57 86.4391C215.033 86.5463 215.47 86.7457 215.855 87.0255C216.239 87.3053 216.564 87.6598 216.808 88.0676C217.053 88.4755 217.212 88.9285 217.278 89.3995C217.344 89.8705 217.314 90.3499 217.19 90.8091L212.92 107.609C212.68 108.499 212.103 109.26 211.312 109.732C210.521 110.204 209.577 110.35 208.68 110.139Z" fill="#505050"/>
<path d="M201.68 104.139L134.3 88.4691C133.839 88.3627 133.404 88.165 133.021 87.8876C132.638 87.6103 132.314 87.259 132.069 86.8544C131.823 86.4498 131.662 86.0002 131.593 85.5321C131.525 85.064 131.551 84.5869 131.67 84.1291L136.1 67.0591C136.334 66.1619 136.909 65.3918 137.704 64.9134C138.498 64.435 139.448 64.2863 140.35 64.4991L207.57 80.4391C208.033 80.5475 208.469 80.7478 208.853 81.0279C209.236 81.308 209.56 81.6624 209.804 82.0699C210.049 82.4774 210.209 82.9299 210.275 83.4004C210.341 83.8709 210.312 84.3499 210.19 84.8091L205.92 101.609C205.68 102.499 205.103 103.26 204.312 103.732C203.521 104.204 202.577 104.35 201.68 104.139Z" fill="#8BE1E5" stroke="#146972" stroke-miterlimit="10"/>
<path d="M153.79 92.9898L134.41 88.4198C133.943 88.3205 133.5 88.1273 133.11 87.8521C132.72 87.5769 132.389 87.2253 132.139 86.8186C131.888 86.4119 131.723 85.9586 131.652 85.4861C131.582 85.0136 131.609 84.5318 131.73 84.0698L136.15 67.0698C136.379 66.1785 136.948 65.412 137.734 64.9338C138.521 64.4556 139.463 64.3034 140.36 64.5098L159.86 69.1598L153.79 92.9898Z" fill="#8BE1E5" fill-opacity="0.43" stroke="#146972" stroke-miterlimit="10"/>
<path d="M149.79 86.6705C149.488 86.6053 149.223 86.4262 149.05 86.1705L143.22 77.6605C143.071 77.3953 143.026 77.0839 143.094 76.7873C143.163 76.4908 143.34 76.2305 143.59 76.0577C143.841 75.8848 144.147 75.8118 144.448 75.853C144.75 75.8943 145.025 76.0468 145.22 76.2805L151.09 84.8105C151.23 85.0115 151.306 85.2502 151.308 85.4952C151.309 85.7402 151.236 85.9799 151.099 86.1826C150.961 86.3853 150.765 86.5414 150.537 86.6303C150.308 86.7192 150.058 86.7367 149.82 86.6805L149.79 86.6705Z" fill="#8BE1E5" stroke="#146972" stroke-miterlimit="10"/>
<path d="M142.86 77.7092C142.674 77.3528 142.631 76.9389 142.74 76.5518C142.848 76.1647 143.1 75.8336 143.444 75.6258C143.788 75.4181 144.199 75.3493 144.592 75.4335C144.985 75.5178 145.331 75.7487 145.56 76.0792L151.39 84.5892C151.508 84.7605 151.591 84.9533 151.634 85.1567C151.677 85.3601 151.68 85.57 151.642 85.7743C151.604 85.9787 151.526 86.1736 151.412 86.3477C151.298 86.5219 151.152 86.6719 150.98 86.7892C150.802 86.9135 150.599 86.999 150.385 87.0403C150.172 87.0817 149.952 87.0779 149.74 87.0292C149.336 86.9486 148.978 86.7159 148.74 86.3792L142.91 77.8592C142.887 77.8117 142.87 77.7612 142.86 77.7092ZM150.86 85.0892L150.8 85.0092L144.97 76.4892C144.843 76.3067 144.649 76.1813 144.43 76.1402C144.211 76.0991 143.985 76.1454 143.8 76.2692C143.706 76.3306 143.626 76.4103 143.563 76.5036C143.501 76.5969 143.458 76.7019 143.438 76.8122C143.417 76.9225 143.419 77.0358 143.444 77.1453C143.468 77.2548 143.515 77.3582 143.58 77.4492L149.41 85.9592C149.468 86.0485 149.542 86.1254 149.63 86.1855C149.717 86.2456 149.816 86.2877 149.92 86.3092C150.032 86.3351 150.149 86.3377 150.262 86.3171C150.376 86.2965 150.484 86.253 150.58 86.1892C150.747 86.0669 150.865 85.8889 150.913 85.6872C150.961 85.4856 150.935 85.2735 150.84 85.0892H150.86Z" fill="#146972"/>
<path d="M150.48 78.3508C150.206 79.5829 149.574 80.7061 148.661 81.5785C147.749 82.4508 146.599 83.0331 145.356 83.2516C144.113 83.47 142.833 83.315 141.678 82.8059C140.523 82.2969 139.545 81.4567 138.868 80.3918C138.191 79.3268 137.845 78.0849 137.873 76.8232C137.902 75.5614 138.304 74.3365 139.029 73.3034C139.754 72.2703 140.769 71.4753 141.946 71.0192C143.122 70.563 144.408 70.4661 145.64 70.7408C146.458 70.9218 147.232 71.2624 147.918 71.743C148.604 72.2236 149.189 72.8349 149.639 73.5418C150.088 74.2487 150.394 75.0373 150.538 75.8625C150.683 76.6877 150.663 77.5332 150.48 78.3508Z" fill="#8BE1E5" stroke="#146972" stroke-miterlimit="10"/>
<path d="M138.28 80.0997C137.459 78.5339 137.285 76.709 137.793 75.0159C138.302 73.3229 139.454 71.8964 141.002 71.0424C142.549 70.1883 144.37 69.9746 146.074 70.447C147.777 70.9194 149.228 72.0403 150.115 73.5696C151.002 75.0988 151.254 76.9146 150.819 78.6279C150.383 80.3411 149.293 81.8155 147.783 82.7349C146.273 83.6544 144.463 83.9458 142.741 83.5466C141.019 83.1475 139.522 82.0896 138.57 80.5997C138.46 80.4297 138.37 80.2697 138.28 80.0997ZM149.58 74.1797C149.503 74.0275 149.416 73.8805 149.32 73.7397C148.787 72.9113 148.059 72.2268 147.199 71.7466C146.339 71.2664 145.374 71.0053 144.389 70.9864C143.404 70.9674 142.43 71.1912 141.552 71.638C140.674 72.0848 139.92 72.7408 139.356 73.5481C138.791 74.3554 138.435 75.2893 138.317 76.2672C138.199 77.245 138.324 78.2369 138.68 79.1552C139.036 80.0735 139.613 80.89 140.359 81.5325C141.106 82.1751 141.999 82.6241 142.96 82.8397C143.731 83.0109 144.527 83.0283 145.305 82.8911C146.082 82.7538 146.825 82.4645 147.49 82.0397C148.157 81.6175 148.733 81.0667 149.185 80.4194C149.636 79.7721 149.954 79.0413 150.12 78.2697C150.429 76.8854 150.238 75.4363 149.58 74.1797Z" fill="#146972"/>
<path d="M144.26 80.9195C146.442 80.9195 148.21 79.1511 148.21 76.9695C148.21 74.788 146.442 73.0195 144.26 73.0195C142.079 73.0195 140.31 74.788 140.31 76.9695C140.31 79.1511 142.079 80.9195 144.26 80.9195Z" fill="white"/>
<path d="M195.63 92.3597C195.472 92.3595 195.314 92.3393 195.16 92.2997L163.61 84.7097C163.355 84.6479 163.114 84.5365 162.902 84.3817C162.689 84.227 162.509 84.0319 162.372 83.8077C162.096 83.3548 162.01 82.8105 162.135 82.2947C162.26 81.7788 162.584 81.3336 163.037 81.057C163.49 80.7804 164.034 80.695 164.55 80.8197L196.1 88.4197C196.572 88.5379 196.985 88.8242 197.261 89.225C197.537 89.6257 197.658 90.1134 197.6 90.5966C197.542 91.0799 197.311 91.5255 196.948 91.85C196.585 92.1746 196.117 92.3558 195.63 92.3597Z" fill="white"/>
<path opacity="0.14" d="M315.94 166.97L242.12 149.35C241.605 149.227 241.119 149.003 240.691 148.691C240.263 148.379 239.902 147.984 239.627 147.531C239.353 147.078 239.171 146.575 239.092 146.051C239.014 145.528 239.04 144.993 239.17 144.48L245.4 119.81C245.66 118.789 246.312 117.912 247.214 117.369C248.117 116.826 249.197 116.661 250.22 116.91L323.41 134.67C324.44 134.908 325.335 135.545 325.897 136.441C326.459 137.336 326.643 138.418 326.41 139.45L320.79 163.97C320.673 164.487 320.453 164.976 320.145 165.408C319.836 165.84 319.445 166.207 318.994 166.486C318.542 166.765 318.04 166.952 317.515 167.035C316.991 167.118 316.456 167.096 315.94 166.97Z" fill="#505050"/>
<path d="M290.94 157.97L217.11 140.35C216.595 140.227 216.109 140.003 215.681 139.691C215.253 139.379 214.892 138.984 214.617 138.531C214.343 138.078 214.161 137.575 214.082 137.051C214.004 136.528 214.03 135.993 214.16 135.48L220.4 110.81C220.66 109.789 221.312 108.912 222.214 108.369C223.117 107.826 224.197 107.661 225.22 107.91L298.41 125.67C299.431 125.919 300.313 126.56 300.865 127.455C301.417 128.349 301.595 129.425 301.36 130.45L295.79 154.97C295.673 155.487 295.453 155.976 295.145 156.408C294.836 156.84 294.445 157.207 293.994 157.486C293.542 157.765 293.04 157.952 292.515 158.035C291.991 158.118 291.456 158.096 290.94 157.97Z" fill="#146972"/>
<path d="M288.94 155.97L215.11 138.35C214.595 138.227 214.109 138.003 213.681 137.691C213.253 137.379 212.892 136.984 212.617 136.531C212.343 136.078 212.161 135.575 212.082 135.051C212.004 134.528 212.03 133.993 212.16 133.48L218.4 108.81C218.66 107.789 219.312 106.912 220.214 106.369C221.117 105.826 222.197 105.661 223.22 105.91L296.41 123.67C297.431 123.919 298.313 124.56 298.865 125.455C299.417 126.349 299.595 127.425 299.36 128.45L293.79 152.97C293.673 153.487 293.453 153.976 293.145 154.408C292.836 154.84 292.445 155.207 291.994 155.486C291.542 155.765 291.04 155.952 290.515 156.035C289.991 156.118 289.456 156.096 288.94 155.97Z" fill="#8BE1E5" stroke="#146972" stroke-miterlimit="10"/>
<path d="M289.59 128.579L255.85 129.489L226.4 112.969C226.053 112.775 225.642 112.726 225.258 112.833C224.875 112.941 224.55 113.197 224.355 113.544C224.16 113.892 224.111 114.303 224.219 114.686C224.327 115.07 224.583 115.395 224.93 115.589L249.99 129.639L221.27 130.409C220.872 130.409 220.491 130.567 220.209 130.849C219.928 131.13 219.77 131.512 219.77 131.909C219.77 132.307 219.928 132.689 220.209 132.97C220.491 133.251 220.872 133.409 221.27 133.409L255.02 132.509L284.46 149.019C284.632 149.116 284.821 149.178 285.017 149.201C285.213 149.224 285.412 149.209 285.602 149.155C285.791 149.102 285.969 149.012 286.124 148.89C286.279 148.768 286.408 148.616 286.505 148.444C286.602 148.272 286.663 148.083 286.687 147.887C286.71 147.691 286.694 147.493 286.641 147.303C286.588 147.113 286.497 146.935 286.375 146.78C286.253 146.625 286.102 146.496 285.93 146.399L260.87 132.349L289.59 131.579C289.988 131.569 290.365 131.401 290.639 131.112C290.913 130.823 291.061 130.437 291.05 130.039C291.039 129.642 290.871 129.264 290.582 128.991C290.294 128.717 289.908 128.569 289.51 128.579H289.59Z" fill="#2AB6C5" stroke="#146972" stroke-miterlimit="10"/>
<path opacity="0.14" d="M120.05 135.42L103.96 131.72C103.437 131.603 102.943 131.382 102.507 131.07C102.071 130.758 101.702 130.362 101.422 129.905C101.143 129.448 100.957 128.939 100.878 128.409C100.799 127.879 100.826 127.339 100.96 126.82L105.26 110.2C105.522 109.188 106.17 108.318 107.066 107.778C107.961 107.238 109.032 107.07 110.05 107.31L125.79 111C126.303 111.118 126.788 111.336 127.217 111.642C127.646 111.947 128.01 112.335 128.289 112.782C128.568 113.229 128.756 113.726 128.842 114.246C128.928 114.765 128.91 115.297 128.79 115.81L124.79 132.43C124.549 133.45 123.918 134.335 123.031 134.894C122.145 135.453 121.074 135.642 120.05 135.42Z" fill="#505050"/>
<path d="M116.05 125.42L99.96 121.72C99.437 121.603 98.9429 121.382 98.507 121.07C98.0711 120.758 97.7023 120.362 97.4225 119.905C97.1426 119.448 96.9575 118.939 96.8781 118.409C96.7986 117.879 96.8265 117.339 96.96 116.82L101.26 100.2C101.522 99.1877 102.17 98.3184 103.066 97.7782C103.961 97.2381 105.032 97.0699 106.05 97.3099L121.79 101C122.303 101.118 122.788 101.336 123.217 101.642C123.646 101.947 124.01 102.335 124.289 102.782C124.568 103.229 124.756 103.726 124.842 104.246C124.928 104.765 124.91 105.297 124.79 105.81L120.79 122.43C120.549 123.45 119.918 124.335 119.031 124.894C118.145 125.453 117.074 125.642 116.05 125.42Z" fill="#146972"/>
<path d="M113.05 122.41L96.96 118.72C96.437 118.603 95.9429 118.382 95.507 118.07C95.0711 117.758 94.7023 117.362 94.4225 116.905C94.1426 116.448 93.9575 115.939 93.8781 115.409C93.7986 114.879 93.8265 114.339 93.96 113.82L98.26 97.1999C98.5223 96.1877 99.1705 95.3184 100.066 94.7782C100.961 94.2381 102.032 94.0699 103.05 94.3099L118.79 97.9999C119.303 98.1177 119.788 98.3357 120.217 98.6415C120.646 98.9473 121.01 99.3348 121.289 99.7817C121.568 100.229 121.756 100.726 121.842 101.246C121.928 101.765 121.91 102.297 121.79 102.81L117.79 119.43C117.547 120.448 116.914 121.33 116.028 121.887C115.142 122.445 114.073 122.632 113.05 122.41Z" fill="#8BE1E5" fill-opacity="0.43" stroke="#146972" stroke-miterlimit="10"/>
<path d="M117.62 107.57C117.459 105.631 116.727 103.783 115.516 102.259C114.305 100.736 112.67 99.6063 110.817 99.0124C108.964 98.4186 106.976 98.3874 105.105 98.923C103.235 99.4585 101.565 100.537 100.307 102.021C99.0487 103.506 98.259 105.33 98.0376 107.263C97.8161 109.196 98.1728 111.152 99.0626 112.882C99.9523 114.613 101.335 116.041 103.036 116.986C104.738 117.93 106.681 118.349 108.62 118.19C111.22 117.971 113.627 116.73 115.314 114.739C117.001 112.749 117.83 110.171 117.62 107.57Z" fill="white"/>
<path d="M98.3101 110.95C98.7687 112.651 99.6762 114.198 100.938 115.429C102.199 116.659 103.768 117.528 105.48 117.944C107.192 118.36 108.985 118.308 110.67 117.793C112.356 117.279 113.872 116.321 115.06 115.02C113.912 112.897 112.115 111.197 109.93 110.17C110.556 109.869 111.087 109.402 111.467 108.82C111.846 108.239 112.06 107.564 112.084 106.87C112.108 106.176 111.942 105.489 111.604 104.882C111.266 104.275 110.768 103.773 110.165 103.429C109.561 103.084 108.876 102.912 108.181 102.929C107.487 102.946 106.811 103.153 106.225 103.527C105.64 103.901 105.168 104.428 104.86 105.05C104.553 105.673 104.421 106.368 104.48 107.06C104.54 107.765 104.793 108.439 105.21 109.01C102.761 108.896 100.341 109.576 98.3101 110.95Z" fill="#8BE1E5" stroke="#146972" stroke-miterlimit="10"/>
<path opacity="0.14" d="M97.5301 151.01L95.3901 143.57L89.9301 149.23L84.5301 147.97C83.5264 147.743 82.4737 147.911 81.5909 148.44C80.7081 148.969 80.0631 149.818 79.7901 150.81L77.2601 159.99C77.111 160.516 77.0713 161.067 77.1432 161.608C77.2152 162.15 77.3973 162.671 77.6784 163.139C77.9595 163.608 78.3336 164.014 78.7776 164.332C79.2216 164.65 79.7261 164.874 80.2601 164.99L148.6 180.81C149.112 180.929 149.643 180.945 150.161 180.859C150.68 180.772 151.176 180.584 151.622 180.305C152.068 180.027 152.454 179.663 152.759 179.235C153.064 178.807 153.282 178.323 153.4 177.81L155.59 168.68C155.713 168.166 155.733 167.633 155.648 167.111C155.564 166.589 155.377 166.089 155.098 165.639C154.819 165.19 154.453 164.801 154.023 164.494C153.593 164.187 153.106 163.968 152.59 163.85L97.5301 151.01Z" fill="#505050"/>
<path d="M94.5301 144.01L92.3901 136.57L86.9301 142.23L81.5301 140.97C80.5264 140.743 79.4737 140.911 78.5909 141.44C77.7081 141.969 77.0631 142.818 76.7901 143.81L74.2601 152.99C74.111 153.516 74.0713 154.067 74.1432 154.608C74.2152 155.15 74.3973 155.671 74.6784 156.139C74.9595 156.608 75.3336 157.014 75.7776 157.332C76.2216 157.65 76.7261 157.874 77.2601 157.99L145.6 173.81C146.112 173.929 146.643 173.945 147.161 173.859C147.68 173.772 148.176 173.584 148.622 173.305C149.068 173.027 149.454 172.663 149.759 172.235C150.064 171.807 150.282 171.323 150.4 170.81L152.59 161.68C152.713 161.166 152.733 160.633 152.648 160.111C152.564 159.589 152.377 159.089 152.098 158.639C151.819 158.19 151.453 157.801 151.023 157.494C150.593 157.187 150.106 156.968 149.59 156.85L94.5301 144.01Z" fill="#8BE1E5" stroke="#146972" stroke-miterlimit="10"/>
<path d="M134.25 161.87H134.02L102.47 154.28C102.336 154.256 102.207 154.205 102.093 154.129C101.979 154.054 101.882 153.956 101.807 153.842C101.733 153.728 101.682 153.599 101.659 153.465C101.636 153.33 101.64 153.192 101.673 153.059C101.705 152.927 101.764 152.802 101.846 152.693C101.928 152.584 102.032 152.493 102.151 152.425C102.269 152.358 102.401 152.316 102.536 152.301C102.672 152.286 102.81 152.299 102.94 152.34L134.49 159.93C134.755 159.961 134.997 160.097 135.162 160.307C135.327 160.517 135.402 160.784 135.37 161.05C135.338 161.315 135.202 161.557 134.992 161.722C134.782 161.887 134.515 161.961 134.25 161.93V161.87Z" fill="white"/>
<path d="M123.42 163.62C123.34 163.63 123.26 163.63 123.18 163.62L101.35 158.37C101.222 158.34 101.101 158.284 100.995 158.206C100.888 158.129 100.798 158.031 100.729 157.919C100.591 157.692 100.548 157.419 100.61 157.161C100.672 156.902 100.835 156.679 101.062 156.54C101.289 156.401 101.561 156.358 101.82 156.421L123.65 161.68C123.915 161.711 124.157 161.846 124.323 162.055C124.489 162.264 124.565 162.53 124.535 162.796C124.504 163.061 124.37 163.303 124.161 163.469C123.952 163.635 123.685 163.711 123.42 163.68V163.62Z" fill="white"/>
<path d="M87.45 150.86C87.595 151.274 87.6193 151.722 87.52 152.15C87.4162 152.597 87.1846 153.005 86.8533 153.323C86.522 153.642 86.1053 153.857 85.6539 153.943C85.2026 154.029 84.736 153.981 84.3109 153.807C83.8859 153.632 83.5208 153.338 83.26 152.96C83.0878 152.702 82.9713 152.412 82.9179 152.107C82.8645 151.803 82.8755 151.49 82.95 151.19C83.022 150.872 83.1293 150.563 83.27 150.27C83.513 149.815 83.787 149.377 84.09 148.96L86.18 145.85L88.52 146.34L86.69 149.88C87.0371 150.121 87.3022 150.463 87.45 150.86ZM93.03 152.04C93.1753 152.458 93.1996 152.908 93.1 153.34C92.9949 153.786 92.7622 154.193 92.4303 154.51C92.0985 154.828 91.6816 155.041 91.2304 155.126C90.7792 155.211 90.3131 155.163 89.8888 154.988C89.4645 154.813 89.1001 154.518 88.84 154.14C88.6678 153.882 88.5513 153.592 88.4979 153.287C88.4445 152.983 88.4555 152.67 88.53 152.37C88.602 152.052 88.7093 151.743 88.85 151.45C89.093 150.995 89.367 150.557 89.67 150.14L91.76 147.03L94.1 147.52L92.27 151.06C92.6171 151.301 92.8822 151.643 93.03 152.04Z" fill="#8BE1E5" fill-opacity="0.43" stroke="#146972" stroke-miterlimit="10"/>
<path opacity="0.14" d="M274.18 197.31L217.35 183.66C216.832 183.537 216.345 183.311 215.916 182.996C215.486 182.682 215.124 182.284 214.851 181.828C214.577 181.372 214.397 180.865 214.321 180.339C214.245 179.812 214.276 179.275 214.41 178.76L218.71 162.13C218.972 161.112 219.625 160.237 220.527 159.696C221.429 159.155 222.508 158.992 223.53 159.24L279.96 172.93C280.986 173.18 281.871 173.824 282.424 174.723C282.976 175.622 283.151 176.703 282.91 177.73L279.01 194.34C278.889 194.853 278.668 195.337 278.359 195.764C278.051 196.191 277.661 196.553 277.212 196.829C276.763 197.105 276.265 197.29 275.744 197.372C275.224 197.455 274.692 197.434 274.18 197.31Z" fill="#505050"/>
<path d="M270.18 191.31L213.34 177.66C212.823 177.536 212.337 177.309 211.909 176.994C211.48 176.679 211.12 176.281 210.847 175.825C210.574 175.369 210.395 174.863 210.32 174.337C210.245 173.811 210.275 173.275 210.41 172.76L214.71 156.13C214.972 155.112 215.625 154.237 216.527 153.696C217.429 153.155 218.508 152.992 219.53 153.24L275.96 166.93C276.985 167.18 277.871 167.824 278.423 168.723C278.976 169.622 279.151 170.703 278.91 171.73L275.01 188.34C274.889 188.853 274.668 189.337 274.359 189.764C274.051 190.191 273.661 190.553 273.212 190.829C272.763 191.105 272.264 191.29 271.744 191.372C271.224 191.455 270.692 191.434 270.18 191.31Z" fill="#8BE1E5" fill-opacity="0.43" stroke="#146972" stroke-miterlimit="10"/>
<path d="M246.29 163.85L246.84 170.12L252.97 171.52L247.19 173.99L247.74 180.25L243.61 175.51L237.83 177.97L241.06 172.58L236.93 167.84L243.06 169.25L246.29 163.85Z" fill="#1FC3DF" stroke="#146972" stroke-miterlimit="10"/>
<path d="M226.91 159.24L227.47 165.5L233.6 166.91L227.81 169.37L228.37 175.63L224.24 170.9L218.46 173.36L221.69 167.97L217.56 163.23L223.68 164.63L226.91 159.24Z" fill="#1FC3DF" stroke="#146972" stroke-miterlimit="10"/>
<path d="M265.9 168.32L266.45 174.59L272.58 175.99L266.79 178.46L267.35 184.72L263.22 179.98L257.44 182.44L260.67 177.05L256.54 172.31L262.67 173.72L265.9 168.32Z" fill="#1FC3DF" stroke="#146972" stroke-miterlimit="10"/>
<path opacity="0.14" d="M284.2 101.11L251.79 93.9396C251.268 93.8225 250.775 93.6018 250.34 93.2907C249.905 92.9796 249.536 92.5844 249.257 92.1285C248.977 91.6726 248.792 91.1652 248.711 90.6364C248.631 90.1075 248.658 89.568 248.79 89.0496L255.04 64.3696C255.296 63.3647 255.932 62.4985 256.815 61.9538C257.697 61.409 258.757 61.2283 259.77 61.4496L291.67 68.4496C292.187 68.562 292.676 68.7757 293.11 69.0784C293.544 69.3811 293.913 69.7668 294.197 70.2132C294.48 70.6596 294.673 71.1578 294.762 71.679C294.852 72.2002 294.838 72.734 294.72 73.2496L289.04 98.0996C288.923 98.6171 288.705 99.1062 288.398 99.5385C288.091 99.9708 287.7 100.338 287.25 100.618C286.8 100.898 286.298 101.086 285.774 101.17C285.251 101.255 284.716 101.234 284.2 101.11Z" fill="#505050"/>
<path d="M268.2 90.0998L235.79 82.9398C235.268 82.8226 234.775 82.6019 234.34 82.2908C233.905 81.9798 233.536 81.5846 233.257 81.1286C232.977 80.6727 232.792 80.1653 232.711 79.6365C232.631 79.1077 232.658 78.5681 232.79 78.0498L239.03 53.3698C239.286 52.3627 239.924 51.4948 240.809 50.9498C241.693 50.4048 242.755 50.2255 243.77 50.4498L275.67 57.4498C276.187 57.5621 276.676 57.7758 277.11 58.0785C277.544 58.3812 277.913 58.7669 278.197 59.2133C278.48 59.6597 278.673 60.1579 278.762 60.6791C278.852 61.2003 278.838 61.7342 278.72 62.2498L273.04 87.0998C272.922 87.6163 272.703 88.1043 272.396 88.5355C272.088 88.9667 271.697 89.3325 271.247 89.6116C270.797 89.8907 270.296 90.0776 269.773 90.1614C269.249 90.2452 268.715 90.2242 268.2 90.0998Z" fill="#8BE1E5" fill-opacity="0.43" stroke="#146972" stroke-miterlimit="10"/>
<path d="M240.21 70.1502L242.85 59.6703C243.104 58.6614 243.741 57.7911 244.626 57.2441C245.511 56.697 246.574 56.5163 247.59 56.7403L269.25 61.4803C269.765 61.5927 270.252 61.8058 270.684 62.1071C271.116 62.4085 271.485 62.7923 271.768 63.2365C272.052 63.6806 272.244 64.1764 272.336 64.6953C272.427 65.2142 272.415 65.7461 272.3 66.2602L269.95 76.8103C269.711 77.8385 269.076 78.7308 268.183 79.2928C267.289 79.8547 266.21 80.0407 265.18 79.8103L243.23 74.9602C242.715 74.8446 242.228 74.6282 241.796 74.3234C241.365 74.0186 240.999 73.6314 240.718 73.1843C240.437 72.7371 240.248 72.2388 240.161 71.7181C240.073 71.1973 240.09 70.6645 240.21 70.1502Z" fill="#8BE1E5" stroke="#146972" stroke-miterlimit="10"/>
<path d="M238.12 78.2705C238.241 77.7851 238.548 77.3664 238.974 77.1046C239.4 76.8428 239.912 76.7588 240.4 76.8705L266.7 82.6305C266.95 82.686 267.187 82.7905 267.396 82.9379C267.606 83.0853 267.784 83.2727 267.92 83.4893C268.057 83.7059 268.149 83.9474 268.192 84.2C268.235 84.4525 268.228 84.711 268.17 84.9605C268.053 85.4554 267.747 85.8847 267.316 86.1559C266.886 86.427 266.367 86.5185 265.87 86.4105L239.58 80.6005C239.33 80.5464 239.092 80.4427 238.883 80.2954C238.673 80.1482 238.495 79.9605 238.359 79.7434C238.223 79.5262 238.131 79.284 238.09 79.0311C238.049 78.7781 238.059 78.5195 238.12 78.2705Z" fill="#8BE1E5" stroke="#146972" stroke-miterlimit="10"/>
<path d="M238.12 78.2606C238.243 77.776 238.55 77.3582 238.975 77.0952C239.4 76.8322 239.911 76.7445 240.4 76.8506L256.18 80.2506L255.29 84.0506L239.58 80.6306C239.326 80.5756 239.086 80.4698 238.873 80.3196C238.661 80.1695 238.481 79.9779 238.345 79.7566C238.209 79.5353 238.119 79.2887 238.08 79.0316C238.041 78.7745 238.055 78.5123 238.12 78.2606Z" fill="#8BE1E5" stroke="#146972" stroke-miterlimit="10"/>
<path d="M261.58 67.8994C261.493 66.8347 261.093 65.8196 260.429 64.9826C259.766 64.1456 258.869 63.5242 257.852 63.197C256.835 62.8699 255.744 62.8516 254.717 63.1446C253.689 63.4376 252.772 64.0287 252.081 64.8431C251.39 65.6575 250.956 66.6586 250.833 67.7197C250.711 68.7809 250.906 69.8545 251.394 70.8047C251.882 71.7549 252.641 72.539 253.575 73.0578C254.509 73.5766 255.575 73.8068 256.64 73.7194C258.067 73.6021 259.388 72.9233 260.315 71.8319C261.241 70.7406 261.696 69.3261 261.58 67.8994Z" fill="#8BE1E5" stroke="#146972" stroke-miterlimit="10"/>
<path d="M258.57 68.8695L255.47 66.0195L254.55 70.1395L258.57 68.8695Z" fill="white"/>
<path opacity="0.14" d="M294.97 243.14L282.64 240.33C282.124 240.212 281.637 239.994 281.207 239.686C280.777 239.379 280.411 238.99 280.132 238.541C279.853 238.092 279.666 237.592 279.582 237.07C279.497 236.548 279.517 236.014 279.64 235.5L288.88 197.03C289.118 196.004 289.752 195.113 290.643 194.552C291.535 193.99 292.611 193.802 293.64 194.03L305.36 196.67C306.388 196.908 307.281 197.544 307.842 198.437C308.404 199.331 308.59 200.41 308.36 201.44L299.79 240.11C299.676 240.627 299.46 241.116 299.155 241.549C298.85 241.982 298.462 242.35 298.013 242.632C297.565 242.914 297.065 243.104 296.542 243.191C296.02 243.279 295.486 243.261 294.97 243.14Z" fill="#505050"/>
<path d="M290.97 230.14L278.64 227.33C278.124 227.212 277.637 226.994 277.207 226.687C276.777 226.38 276.411 225.99 276.132 225.541C275.853 225.092 275.666 224.592 275.582 224.07C275.497 223.548 275.517 223.014 275.64 222.5L284.87 184.03C285.108 183.002 285.744 182.11 286.637 181.548C287.531 180.986 288.61 180.8 289.64 181.03L301.36 183.67C302.388 183.909 303.281 184.544 303.842 185.437C304.404 186.331 304.59 187.41 304.36 188.44L295.79 227.11C295.676 227.627 295.46 228.117 295.155 228.549C294.85 228.982 294.462 229.351 294.013 229.633C293.565 229.914 293.065 230.104 292.542 230.192C292.02 230.279 291.486 230.261 290.97 230.14Z" fill="#1FC3DF" stroke="#146972" stroke-miterlimit="10"/>
<path d="M283.97 218.18L287.21 204.81C287.398 204.05 287.875 203.393 288.54 202.98C289.205 202.568 290.006 202.431 290.77 202.6C291.535 202.777 292.2 203.247 292.623 203.909C293.045 204.57 293.192 205.372 293.03 206.14L290.16 219.55C290.076 219.936 289.916 220.301 289.691 220.625C289.465 220.949 289.178 221.225 288.845 221.438C288.513 221.651 288.141 221.796 287.753 221.865C287.364 221.934 286.965 221.925 286.58 221.84L286.21 221.75C285.442 221.569 284.777 221.093 284.357 220.425C283.938 219.756 283.799 218.95 283.97 218.18Z" fill="#8BE1E5" stroke="#146972" stroke-miterlimit="10"/>
<path d="M284.01 217.99L285.88 210.32L291.88 211.57L290.2 219.41C290.109 219.819 289.938 220.206 289.697 220.548C289.456 220.89 289.149 221.181 288.795 221.404C288.441 221.627 288.046 221.778 287.633 221.848C287.22 221.918 286.798 221.905 286.39 221.81C285.57 221.615 284.861 221.105 284.415 220.389C283.969 219.674 283.824 218.812 284.01 217.99Z" fill="#8BE1E5" stroke="#146972" stroke-miterlimit="10"/>
<path d="M295.79 191.999C295.738 191.388 295.507 190.807 295.125 190.327C294.742 189.848 294.227 189.493 293.643 189.307C293.059 189.12 292.432 189.112 291.843 189.281C291.254 189.451 290.729 189.791 290.333 190.26C289.937 190.728 289.689 191.303 289.621 191.912C289.552 192.521 289.665 193.137 289.946 193.682C290.228 194.227 290.664 194.676 291.2 194.973C291.737 195.269 292.349 195.401 292.96 195.349C293.366 195.315 293.761 195.202 294.123 195.015C294.485 194.828 294.806 194.572 295.069 194.261C295.332 193.95 295.531 193.59 295.655 193.202C295.778 192.814 295.824 192.405 295.79 191.999Z" fill="#2AB6C5" stroke="#146972" stroke-miterlimit="10"/>
<path d="M292.71 198.891C292.375 198.894 292.041 198.87 291.71 198.821L292.01 196.821C292.235 196.852 292.463 196.869 292.69 196.871H293.08C293.275 196.859 293.469 196.833 293.66 196.791L294.08 198.791C293.81 198.841 293.53 198.881 293.25 198.911L292.71 198.891ZM288.53 197.381C287.916 196.877 287.398 196.267 287 195.581L288.73 194.581C289.011 195.048 289.369 195.464 289.79 195.811L288.53 197.381ZM297.24 197.131L295.88 195.661C296.29 195.285 296.629 194.837 296.88 194.341L298.66 195.241C298.308 195.953 297.827 196.594 297.24 197.131ZM288.11 192.201H286.11C286.119 191.403 286.272 190.614 286.56 189.871L288.42 190.601C288.225 191.112 288.12 191.653 288.11 192.201ZM297.36 191.951V191.811C297.317 191.269 297.175 190.74 296.94 190.251L298.75 189.401C299.087 190.119 299.293 190.89 299.36 191.681L297.36 191.951ZM289.89 188.611L288.66 187.031C289.289 186.542 290 186.169 290.76 185.931L291.35 187.841C290.821 188.006 290.326 188.267 289.89 188.611ZM295.32 188.421C294.861 188.109 294.349 187.882 293.81 187.751L294.28 185.811C295.053 185.991 295.785 186.313 296.44 186.761L295.32 188.421Z" fill="#2AB6C5" stroke="#146972" stroke-miterlimit="10"/>
<path opacity="0.14" d="M344.79 181.81L321.93 176.74C321.408 176.623 320.915 176.402 320.48 176.091C320.045 175.78 319.676 175.385 319.397 174.929C319.117 174.473 318.932 173.966 318.851 173.437C318.771 172.908 318.798 172.369 318.93 171.85L325.17 147.17C325.424 146.161 326.061 145.291 326.946 144.744C327.831 144.197 328.894 144.016 329.91 144.24L352.21 149.15C353.242 149.388 354.138 150.027 354.701 150.925C355.263 151.823 355.446 152.907 355.21 153.94L349.6 178.81C349.482 179.324 349.264 179.809 348.958 180.238C348.652 180.666 348.265 181.031 347.818 181.309C347.371 181.588 346.874 181.776 346.354 181.862C345.834 181.948 345.303 181.93 344.79 181.81Z" fill="#505050"/>
<path d="M332.79 177.81L309.93 172.74C309.408 172.623 308.915 172.402 308.48 172.091C308.045 171.78 307.676 171.385 307.397 170.929C307.117 170.473 306.932 169.966 306.851 169.437C306.771 168.908 306.798 168.369 306.93 167.85L313.17 143.17C313.424 142.161 314.061 141.291 314.946 140.744C315.831 140.197 316.894 140.016 317.91 140.24L340.21 145.15C341.242 145.388 342.138 146.027 342.701 146.925C343.263 147.823 343.446 148.907 343.21 149.94L337.6 174.81C337.482 175.324 337.264 175.809 336.958 176.238C336.652 176.666 336.265 177.031 335.818 177.309C335.371 177.588 334.874 177.776 334.354 177.862C333.834 177.948 333.303 177.93 332.79 177.81Z" fill="#146972"/>
<path d="M330.79 174.81L307.93 169.74C307.408 169.623 306.915 169.402 306.48 169.091C306.045 168.78 305.676 168.385 305.397 167.929C305.117 167.473 304.932 166.966 304.851 166.437C304.771 165.908 304.798 165.369 304.93 164.85L311.17 140.17C311.424 139.161 312.061 138.291 312.946 137.744C313.831 137.197 314.894 137.016 315.91 137.24L338.21 142.15C339.242 142.388 340.138 143.027 340.701 143.925C341.263 144.823 341.446 145.907 341.21 146.94L335.6 171.81C335.482 172.324 335.264 172.809 334.958 173.238C334.652 173.666 334.265 174.031 333.818 174.309C333.371 174.588 332.874 174.776 332.354 174.862C331.834 174.948 331.303 174.93 330.79 174.81Z" fill="#8BE1E5" stroke="#146972" stroke-miterlimit="10"/>
<path d="M321.65 164.811C321.512 164.789 321.382 164.734 321.27 164.651C320.96 164.421 313.83 159.071 315.27 151.551C315.456 150.546 315.955 149.625 316.698 148.922C317.44 148.218 318.386 147.769 319.4 147.638C320.414 147.506 321.443 147.7 322.34 148.192C323.237 148.683 323.955 149.446 324.39 150.371C325.132 149.671 326.077 149.223 327.089 149.092C328.101 148.961 329.129 149.154 330.025 149.642C330.921 150.13 331.64 150.889 332.079 151.81C332.518 152.731 332.655 153.767 332.47 154.771C331.06 162.291 322.47 164.701 322.1 164.771C321.957 164.826 321.801 164.84 321.65 164.811Z" fill="#8BE1E5" stroke="#146972" stroke-miterlimit="10"/>
<path opacity="0.14" d="M212.14 247.59L162.14 236.44C161.624 236.323 161.135 236.104 160.704 235.796C160.273 235.488 159.907 235.098 159.628 234.647C159.349 234.197 159.162 233.696 159.078 233.173C158.995 232.65 159.016 232.115 159.14 231.6L169.41 188.6C169.649 187.574 170.282 186.684 171.173 186.122C172.065 185.56 173.141 185.373 174.17 185.6L223.42 196.54C224.446 196.779 225.337 197.412 225.898 198.304C226.46 199.195 226.648 200.272 226.42 201.3L216.87 244.53C216.645 245.561 216.021 246.461 215.135 247.034C214.249 247.607 213.173 247.807 212.14 247.59Z" fill="#505050"/>
<path d="M202.14 236.59L152.14 225.44C151.624 225.323 151.135 225.104 150.704 224.796C150.273 224.488 149.907 224.098 149.628 223.647C149.349 223.197 149.162 222.696 149.078 222.173C148.995 221.65 149.016 221.115 149.14 220.6L159.41 177.6C159.649 176.574 160.282 175.684 161.173 175.122C162.065 174.56 163.141 174.373 164.17 174.6L213.42 185.54C214.446 185.779 215.337 186.412 215.898 187.304C216.46 188.195 216.648 189.272 216.42 190.3L206.87 233.53C206.645 234.561 206.021 235.461 205.135 236.034C204.249 236.607 203.173 236.807 202.14 236.59Z" fill="#1FC3DF" stroke="#146972" stroke-miterlimit="10"/>
<path d="M182.79 205.649L165.37 204.269C165.748 199.657 167.939 195.382 171.463 192.383C174.987 189.384 179.557 187.904 184.17 188.269C185.083 188.348 185.988 188.492 186.88 188.699L182.79 205.649Z" fill="#8BE1E5" fill-opacity="0.43" stroke="#146972" stroke-miterlimit="10"/>
<path d="M182.79 205.65L199.92 202.17C200.848 206.713 199.934 211.439 197.378 215.308C194.821 219.177 190.833 221.872 186.29 222.8C181.747 223.728 177.021 222.814 173.152 220.258C169.283 217.701 166.588 213.713 165.66 209.17C165.319 207.574 165.221 205.935 165.37 204.31L182.79 205.65Z" fill="#2AB6C5" stroke="#146972" stroke-miterlimit="10"/>
<path d="M182.79 205.65L186.88 188.65C190.133 189.38 193.099 191.049 195.411 193.451C197.722 195.853 199.276 198.882 199.88 202.16L182.79 205.65Z" fill="#8BE1E5" stroke="#146972" stroke-miterlimit="10"/>
<path d="M254.27 226.54L238.18 222.81C237.666 222.692 237.179 222.474 236.75 222.167C236.32 221.861 235.955 221.473 235.677 221.024C235.398 220.576 235.21 220.078 235.125 219.557C235.04 219.036 235.058 218.504 235.18 217.99L239.18 200.99C239.298 200.477 239.516 199.992 239.822 199.563C240.127 199.134 240.515 198.77 240.962 198.491C241.409 198.212 241.906 198.024 242.426 197.938C242.946 197.852 243.477 197.87 243.99 197.99L259.73 201.81C260.75 202.049 261.635 202.678 262.196 203.562C262.757 204.447 262.949 205.516 262.73 206.54L259.09 223.54C258.972 224.054 258.754 224.54 258.447 224.97C258.141 225.4 257.753 225.765 257.304 226.043C256.856 226.322 256.358 226.51 255.837 226.595C255.316 226.68 254.784 226.661 254.27 226.54Z" fill="#146972"/>
<path d="M252.27 224.54L236.18 220.81C235.666 220.692 235.179 220.474 234.75 220.167C234.32 219.861 233.955 219.473 233.677 219.024C233.398 218.576 233.21 218.078 233.125 217.557C233.04 217.036 233.058 216.504 233.18 215.99L237.18 198.99C237.298 198.477 237.516 197.992 237.822 197.563C238.127 197.134 238.515 196.77 238.962 196.491C239.409 196.212 239.906 196.024 240.426 195.938C240.946 195.852 241.477 195.87 241.99 195.99L257.68 199.69C258.7 199.929 259.585 200.558 260.146 201.442C260.707 202.327 260.899 203.396 260.68 204.42L257.04 221.42C256.935 221.94 256.728 222.434 256.431 222.873C256.134 223.312 255.752 223.688 255.308 223.979C254.864 224.269 254.367 224.468 253.845 224.564C253.324 224.661 252.788 224.653 252.27 224.54Z" fill="#8BE1E5" stroke="#146972" stroke-miterlimit="10"/>
<path d="M255.9 207.98L252.43 202.84L248.23 205.67L245.62 201.33L240.31 204.52L243.08 209.14L238.61 212.15L242.08 217.29L246.28 214.46L248.89 218.8L254.2 215.61L251.43 210.99L255.9 207.98Z" fill="#8BE1E5" fill-opacity="0.43" stroke="#146972" stroke-miterlimit="10"/>
<path opacity="0.14" d="M329.79 221.561L332.79 209.181C333.028 208.148 333.666 207.253 334.565 206.69C335.463 206.128 336.547 205.945 337.58 206.181L376.12 215.081C376.635 215.199 377.121 215.417 377.55 215.724C377.98 216.03 378.345 216.418 378.623 216.866C378.902 217.314 379.09 217.813 379.175 218.334C379.26 218.855 379.242 219.387 379.12 219.901L376.12 232.481C376.002 232.994 375.784 233.479 375.478 233.908C375.173 234.337 374.785 234.701 374.338 234.98C373.891 235.259 373.394 235.447 372.874 235.532C372.354 235.618 371.823 235.601 371.31 235.481L332.79 226.391C332.275 226.273 331.788 226.055 331.357 225.747C330.927 225.44 330.561 225.051 330.283 224.602C330.004 224.153 329.816 223.653 329.732 223.131C329.647 222.609 329.667 222.075 329.79 221.561Z" fill="#505050"/>
<path d="M314.79 203.561L317.79 191.181C318.028 190.15 318.665 189.256 319.561 188.694C320.457 188.132 321.539 187.947 322.57 188.181L361.12 197.081C361.635 197.198 362.121 197.417 362.55 197.723C362.98 198.03 363.345 198.418 363.623 198.866C363.902 199.314 364.09 199.813 364.175 200.334C364.26 200.855 364.242 201.387 364.12 201.901L361.12 214.471C361.002 214.984 360.784 215.469 360.478 215.898C360.173 216.327 359.785 216.691 359.338 216.97C358.891 217.249 358.394 217.436 357.874 217.522C357.354 217.608 356.823 217.591 356.31 217.471L317.79 208.391C317.275 208.273 316.788 208.054 316.357 207.747C315.927 207.44 315.561 207.051 315.283 206.602C315.004 206.152 314.816 205.652 314.732 205.13C314.647 204.608 314.667 204.075 314.79 203.561Z" fill="#8BE1E5" stroke="#146972" stroke-miterlimit="10"/>
<path d="M336.26 206.53L344.05 205.66L324.07 200.82L324.78 197.91L344.76 202.75L338.23 198.4L339.89 195.91L356.93 207.24L336.59 209.51L336.26 206.53Z" fill="#8BE1E5"/>
<path d="M340.03 196.601L355.51 206.891L337.03 208.961L336.81 206.961L346.92 205.811L324.67 200.421L325.14 198.481L347.4 203.871L338.92 198.231L340.03 196.571M339.79 195.211L339.23 196.051L338.13 197.711L337.57 198.541L338.41 199.101L342.16 201.591L325.42 197.591L324.42 197.351L324.18 198.351L323.71 200.351L323.47 201.351L324.47 201.581L341.21 205.641L336.73 206.141L335.73 206.251L335.84 207.251L336.06 209.251L336.17 210.251L337.17 210.141L355.65 208.071L358.38 207.761L356.1 206.241L340.58 195.811L339.75 195.251L339.79 195.211Z" fill="#146972"/>
<path d="M376.76 166.19L383.11 165.85L377.44 163.04L377.5 154.1L374.02 162.34L367.7 162.68L373.4 165.5L373.48 173.61L376.76 166.19Z" fill="#8BE1E5" fill-opacity="0.43" stroke="#146972" stroke-miterlimit="10"/>
<path d="M30.45 166.19L36.8 165.85L31.13 163.04L31.19 154.1L27.71 162.34L21.39 162.68L27.09 165.5L27.17 173.61L30.45 166.19Z" fill="#8BE1E5" fill-opacity="0.43" stroke="#146972" stroke-miterlimit="10"/>
<path d="M308.24 58.2404L314.59 57.9004L308.92 55.0904L308.98 46.1504L305.5 54.3904L299.18 54.7304L304.88 57.5504L304.96 65.6604L308.24 58.2404Z" fill="#8BE1E5" fill-opacity="0.43" stroke="#146972" stroke-miterlimit="10"/>
<path d="M41.64 63.5607L48 63.2207L42.32 60.4107L42.38 51.4707L38.91 59.7107L32.58 60.0507L38.29 62.8707L38.37 70.9807L41.64 63.5607Z" fill="#8BE1E5" fill-opacity="0.43" stroke="#146972" stroke-miterlimit="10"/>
<path d="M72.81 225.469L79.16 225.129L73.48 222.319L73.54 213.369L70.07 221.619L63.75 221.959L69.45 224.779L69.53 232.889L72.81 225.469Z" fill="#8BE1E5" fill-opacity="0.43" stroke="#146972" stroke-miterlimit="10"/>
<path d="M330.17 249.561L336.52 249.221L330.84 246.411L330.9 237.461L327.43 245.711L321.1 246.051L326.81 248.871L326.89 256.981L330.17 249.561Z" fill="#8BE1E5" fill-opacity="0.43" stroke="#146972" stroke-miterlimit="10"/>
<path d="M238.29 259.321L244.64 258.981L238.96 256.171L239.02 247.221L235.54 255.471L229.22 255.811L234.92 258.631L235.01 266.741L238.29 259.321Z" fill="#8BE1E5" fill-opacity="0.43" stroke="#146972" stroke-miterlimit="10"/>
<path d="M225.36 24.9594L231.71 24.6194L226.04 21.8094L226.1 12.8594L222.62 21.1094L216.3 21.4494L222 24.2694L222.08 32.3794L225.36 24.9594Z" fill="#8BE1E5" fill-opacity="0.43" stroke="#146972" stroke-miterlimit="10"/>
<path opacity="0.14" d="M205.79 71.4492L150.61 59.1892C150.088 59.0721 149.595 58.8514 149.16 58.5403C148.725 58.2292 148.357 57.834 148.077 57.3781C147.797 56.9222 147.612 56.4148 147.532 55.886C147.451 55.3571 147.478 54.8176 147.61 54.2992L153.79 29.6292C154.044 28.6203 154.681 27.7501 155.566 27.203C156.451 26.656 157.514 26.4753 158.53 26.6992L182.25 31.9492L195.32 34.8092L207.54 37.5192L213.16 38.7592C213.672 38.8771 214.156 39.0949 214.585 39.4C215.013 39.7051 215.376 40.0916 215.655 40.5374C215.934 40.9832 216.122 41.4795 216.208 41.998C216.295 42.5166 216.279 43.0471 216.16 43.5592L210.48 68.4092C210.25 69.4279 209.63 70.3162 208.754 70.8843C207.878 71.4523 206.814 71.6551 205.79 71.4492Z" fill="#505050"/>
<path d="M183.79 58.4498L128.61 46.1898C128.088 46.0726 127.595 45.8519 127.16 45.5408C126.725 45.2298 126.357 44.8346 126.077 44.3786C125.797 43.9227 125.612 43.4153 125.532 42.8865C125.451 42.3577 125.478 41.8181 125.61 41.2998L131.79 16.6198C132.046 15.6127 132.684 14.7448 133.569 14.1998C134.453 13.6548 135.515 13.4755 136.53 13.6998L160.24 18.9498L173.32 21.8098L185.54 24.5098L191.16 25.8098C191.672 25.9277 192.156 26.1454 192.585 26.4505C193.013 26.7556 193.376 27.1421 193.655 27.5879C193.934 28.0337 194.122 28.53 194.208 29.0486C194.295 29.5671 194.279 30.0976 194.16 30.6098L188.48 55.4598C188.239 56.4692 187.615 57.3454 186.74 57.9033C185.865 58.4613 184.807 58.6572 183.79 58.4498Z" fill="#8BE1E5" stroke="#146972" stroke-miterlimit="10"/>
<path d="M168.57 35.4003C168.427 33.6708 167.775 32.0225 166.695 30.6641C165.615 29.3057 164.156 28.2982 162.503 27.7691C160.851 27.24 159.078 27.2132 157.41 27.6919C155.742 28.1707 154.254 29.1335 153.133 30.4586C152.013 31.7836 151.31 33.4113 151.115 35.1357C150.92 36.86 151.241 38.6035 152.037 40.1454C152.833 41.6873 154.069 42.9584 155.588 43.7977C157.107 44.6369 158.841 45.0067 160.57 44.8603C161.716 44.7645 162.833 44.4438 163.855 43.9165C164.878 43.3892 165.786 42.6657 166.529 41.7872C167.272 40.9088 167.835 39.8926 168.185 38.7967C168.535 37.7008 168.666 36.5467 168.57 35.4003Z" fill="#2AB6C5" stroke="#146972" stroke-miterlimit="10"/>
<path d="M182.05 46.5709H181.93L179.02 45.8309C178.893 45.7957 178.784 45.7124 178.717 45.5986C178.65 45.4848 178.629 45.3494 178.66 45.2209L180.72 37.0909C180.735 37.0262 180.763 36.9652 180.802 36.9118C180.842 36.8584 180.892 36.8139 180.95 36.7809C181.027 36.738 181.112 36.714 181.2 36.7109H181.33L184.23 37.4509C184.358 37.4818 184.469 37.5622 184.539 37.6746C184.608 37.7871 184.63 37.9223 184.6 38.0509L182.54 46.1909C182.504 46.3162 182.422 46.4233 182.31 46.4909C182.233 46.5421 182.143 46.5699 182.05 46.5709Z" fill="#8BE1E5" fill-opacity="0.43"/>
<path d="M181.2 37.2006L184.11 37.9406L182.05 46.0706L179.15 45.3406L181.2 37.2006ZM181.2 36.2006C181.02 36.2037 180.843 36.2555 180.69 36.3506C180.462 36.4851 180.297 36.7044 180.23 36.9606L178.18 45.0906C178.147 45.218 178.139 45.3507 178.158 45.481C178.176 45.6113 178.22 45.7368 178.287 45.8501C178.354 45.9635 178.442 46.0625 178.547 46.1415C178.653 46.2205 178.773 46.278 178.9 46.3106L181.81 47.0406C181.89 47.0503 181.97 47.0503 182.05 47.0406C182.232 47.0391 182.411 46.9909 182.57 46.9006C182.794 46.7642 182.956 46.5451 183.02 46.2906L185.08 38.1606C185.113 38.0332 185.121 37.9006 185.102 37.7703C185.084 37.6399 185.04 37.5145 184.973 37.4012C184.906 37.2878 184.818 37.1888 184.713 37.1098C184.607 37.0307 184.488 36.9733 184.36 36.9406L181.45 36.2106C181.367 36.1954 181.283 36.1954 181.2 36.2106V36.2006Z" fill="#146972"/>
<path d="M161.753 32.2664L159.696 40.4004L162.604 41.1358L164.661 33.0018L161.753 32.2664Z" fill="white"/>
<path d="M157.08 31.1147L155.021 39.248L157.929 39.9845L159.989 31.8512L157.08 31.1147Z" fill="white"/>
<path d="M172.02 44.2102C171.894 44.2112 171.773 44.1647 171.68 44.0802C171.616 44.0222 171.568 43.9481 171.542 43.8655C171.515 43.7829 171.511 43.6948 171.53 43.6102L173.31 35.6102C173.332 35.5252 173.374 35.447 173.433 35.3824C173.493 35.3178 173.567 35.269 173.65 35.2402H173.8C173.925 35.2437 174.045 35.2896 174.14 35.3702L180.2 40.9302C180.262 40.99 180.308 41.0643 180.334 41.1463C180.36 41.2283 180.366 41.3156 180.35 41.4002C180.332 41.4869 180.291 41.567 180.231 41.6321C180.171 41.6973 180.095 41.745 180.01 41.7702L172.17 44.2402C172.118 44.2402 172.068 44.23 172.02 44.2102Z" fill="#8BE1E5" fill-opacity="0.43"/>
<path d="M173.79 35.6899L179.85 41.25L172.01 43.7099L173.79 35.7099M173.79 34.7099C173.688 34.7112 173.587 34.7281 173.49 34.7599C173.323 34.8115 173.172 34.906 173.052 35.0341C172.933 35.1622 172.849 35.3194 172.81 35.4899L171.03 43.4899C170.998 43.6376 171 43.7906 171.036 43.9373C171.072 44.0841 171.14 44.2208 171.237 44.3372C171.333 44.4537 171.454 44.5468 171.592 44.6096C171.729 44.6724 171.879 44.7033 172.03 44.6999C172.129 44.715 172.23 44.715 172.33 44.6999L180.17 42.2299C180.337 42.1761 180.486 42.0794 180.604 41.9495C180.721 41.8197 180.803 41.6612 180.84 41.4899C180.887 41.3118 180.884 41.1241 180.831 40.9477C180.778 40.7712 180.677 40.6128 180.54 40.4899L174.49 34.93C174.304 34.7609 174.061 34.6681 173.81 34.6699L173.79 34.7099Z" fill="#146972"/>
<path d="M138.44 35.9103H138.33L135.41 35.2203C135.346 35.2063 135.285 35.1794 135.231 35.1414C135.178 35.1033 135.132 35.0548 135.098 34.9989C135.063 34.9429 135.04 34.8805 135.03 34.8155C135.02 34.7504 135.024 34.6841 135.04 34.6203L136.95 26.4503C136.977 26.3411 137.04 26.2442 137.129 26.1752C137.218 26.1062 137.327 26.0693 137.44 26.0703H137.55L140.47 26.7603C140.534 26.774 140.594 26.8005 140.648 26.8383C140.701 26.8762 140.746 26.9245 140.78 26.9803C140.818 27.0351 140.844 27.0973 140.856 27.1628C140.868 27.2283 140.866 27.2957 140.85 27.3603L138.93 35.5203C138.905 35.6314 138.843 35.7306 138.754 35.8015C138.664 35.8725 138.554 35.9108 138.44 35.9103Z" fill="#8BE1E5" fill-opacity="0.43"/>
<path d="M137.44 26.5609L140.36 27.2409L138.44 35.4109L135.52 34.7309L137.44 26.5609ZM137.44 25.5609C137.21 25.5548 136.985 25.628 136.803 25.7682C136.621 25.9085 136.493 26.1072 136.44 26.3309L134.52 34.5009C134.46 34.757 134.503 35.0264 134.64 35.2509C134.709 35.363 134.799 35.4604 134.905 35.5376C135.012 35.6148 135.132 35.6703 135.26 35.7009L138.18 36.3809H138.41C138.64 36.387 138.865 36.3138 139.047 36.1736C139.229 36.0333 139.357 35.8346 139.41 35.6109L141.32 27.4409C141.38 27.1837 141.336 26.9131 141.197 26.6883C141.059 26.4635 140.837 26.3026 140.58 26.2409L137.66 25.5609H137.43H137.44Z" fill="#146972"/>
<path d="M145.52 37.7507C145.387 37.75 145.259 37.7001 145.16 37.6107L139.34 31.8107C139.276 31.7486 139.23 31.6702 139.207 31.5838C139.184 31.4974 139.185 31.4064 139.21 31.3207C139.234 31.2374 139.279 31.1616 139.34 31.1004C139.401 31.0391 139.477 30.9945 139.56 30.9707L147.5 28.8107C147.543 28.8001 147.587 28.8001 147.63 28.8107C147.761 28.8099 147.886 28.8601 147.98 28.9507C148.044 29.0127 148.09 29.0912 148.113 29.1776C148.136 29.2639 148.135 29.3549 148.11 29.4407L146 37.3807C145.977 37.4644 145.933 37.5407 145.871 37.602C145.81 37.6634 145.734 37.7077 145.65 37.7307C145.609 37.7463 145.564 37.7531 145.52 37.7507Z" fill="#8BE1E5" fill-opacity="0.43"/>
<path d="M147.63 29.3093L145.52 37.2493L139.69 31.4493L147.63 29.3093ZM147.63 28.3093C147.544 28.2989 147.456 28.2989 147.37 28.3093L139.43 30.4593C139.262 30.5061 139.109 30.5961 138.986 30.7204C138.863 30.8448 138.775 30.9991 138.731 31.168C138.686 31.3369 138.687 31.5146 138.732 31.6832C138.778 31.8519 138.867 32.0057 138.99 32.1293L144.81 37.9293C144.903 38.022 145.014 38.0953 145.136 38.1451C145.258 38.1948 145.388 38.2201 145.52 38.2193H145.78C145.949 38.1725 146.102 38.0823 146.225 37.9578C146.348 37.8332 146.436 37.6785 146.48 37.5093L148.59 29.5693C148.642 29.3947 148.645 29.2093 148.599 29.0331C148.553 28.8569 148.46 28.6965 148.33 28.5693C148.144 28.3846 147.892 28.2804 147.63 28.2793V28.3093Z" fill="#146972"/>
<path opacity="0.14" d="M118.9 72.2095L117.12 80.4995C117.009 81.0183 116.796 81.5097 116.493 81.9453C116.19 82.3809 115.803 82.7519 115.356 83.0367C114.908 83.3215 114.408 83.5144 113.885 83.6041C113.362 83.6939 112.827 83.6787 112.31 83.5595L73.89 74.7395C73.3702 74.6221 72.8791 74.4021 72.4456 74.0924C72.0121 73.7826 71.6448 73.3893 71.3653 72.9357C71.0859 72.482 70.8999 71.9771 70.8182 71.4506C70.7366 70.924 70.761 70.3865 70.89 69.8695L72.89 61.8695C73.1416 60.8545 73.7807 59.9784 74.6704 59.4289C75.5602 58.8793 76.6297 58.7001 77.6499 58.9295L115.83 67.4995C116.858 67.7229 117.757 68.3425 118.332 69.2242C118.907 70.1058 119.111 71.1784 118.9 72.2095Z" fill="#505050"/>
<path d="M112.9 65.2095L111.11 73.4995C110.999 74.0172 110.786 74.5077 110.484 74.9425C110.181 75.3773 109.796 75.7478 109.349 76.0325C108.903 76.3171 108.404 76.5103 107.882 76.6008C107.361 76.6912 106.826 76.6772 106.31 76.5595L67.89 67.7395C67.3702 67.6221 66.8791 67.4021 66.4456 67.0924C66.0121 66.7826 65.6448 66.3893 65.3653 65.9357C65.0859 65.482 64.8999 64.9771 64.8182 64.4506C64.7366 63.924 64.761 63.3865 64.89 62.8695L66.89 54.8695C67.1416 53.8545 67.7807 52.9784 68.6704 52.4289C69.5602 51.8793 70.6297 51.7001 71.6499 51.9295L109.83 60.4995C110.858 60.7229 111.757 61.3425 112.332 62.2242C112.907 63.1058 113.111 64.1784 112.9 65.2095Z" fill="#1FC3DF" stroke="#146972" stroke-miterlimit="10"/>
<path d="M87.65 63.2198C87.6194 62.7961 87.464 62.391 87.2034 62.0555C86.9428 61.7201 86.5886 61.4694 86.1856 61.335C85.7827 61.2006 85.3489 61.1887 84.9392 61.3006C84.5294 61.4125 84.1619 61.6433 83.8832 61.9638C83.6045 62.2844 83.4269 62.6803 83.373 63.1016C83.3191 63.523 83.3912 63.9509 83.5802 64.3313C83.7692 64.7117 84.0667 65.0276 84.435 65.2391C84.8034 65.4506 85.2262 65.5483 85.65 65.5198C85.9326 65.5007 86.2086 65.4261 86.4623 65.3C86.7159 65.174 86.9421 64.9991 87.128 64.7854C87.3138 64.5717 87.4556 64.3233 87.5452 64.0547C87.6348 63.786 87.6704 63.5022 87.65 63.2198Z" fill="white"/>
<path d="M95.91 64.8797C95.8775 64.4567 95.7205 64.0527 95.4588 63.7186C95.1971 63.3846 94.8425 63.1355 94.4395 63.0026C94.0365 62.8698 93.6032 62.8591 93.1941 62.9721C92.7851 63.085 92.4186 63.3164 92.1409 63.6372C91.8632 63.958 91.6866 64.3538 91.6333 64.7748C91.5801 65.1958 91.6526 65.6231 91.8418 66.0029C92.0309 66.3828 92.3283 66.6981 92.6963 66.9093C93.0643 67.1205 93.4866 67.2181 93.91 67.1897C94.1935 67.1707 94.4704 67.0957 94.7248 66.9691C94.9791 66.8424 95.2058 66.6666 95.3918 66.4518C95.5777 66.237 95.7193 65.9875 95.8082 65.7177C95.8972 65.4478 95.9318 65.163 95.91 64.8797Z" fill="white"/>
<path d="M103.96 66.8602C103.928 66.4371 103.771 66.0331 103.509 65.6991C103.247 65.3651 102.893 65.1159 102.49 64.9831C102.087 64.8502 101.653 64.8396 101.244 64.9525C100.835 65.0655 100.469 65.2969 100.191 65.6177C99.9132 65.9385 99.7366 66.3343 99.6834 66.7553C99.6301 67.1763 99.7027 67.6036 99.8918 67.9834C100.081 68.3632 100.378 68.6786 100.746 68.8898C101.114 69.101 101.537 69.1985 101.96 69.1702C102.244 69.1512 102.52 69.0762 102.775 68.9496C103.029 68.8229 103.256 68.6471 103.442 68.4323C103.628 68.2175 103.769 67.968 103.858 67.6981C103.947 67.4283 103.982 67.1435 103.96 66.8602Z" fill="white"/>
<path d="M79.45 61.6707C79.4175 61.2477 79.2605 60.8437 78.9988 60.5096C78.7372 60.1756 78.3825 59.9265 77.9795 59.7936C77.5765 59.6608 77.1432 59.6502 76.7342 59.7631C76.3252 59.876 75.9587 60.1074 75.6809 60.4282C75.4032 60.749 75.2266 61.1449 75.1734 61.5658C75.1201 61.9868 75.1927 62.4141 75.3818 62.794C75.571 63.1738 75.8683 63.4892 76.2363 63.7003C76.6044 63.9115 77.0267 64.0091 77.45 63.9807C77.734 63.9631 78.0116 63.889 78.2666 63.7627C78.5215 63.6365 78.7488 63.4607 78.935 63.2456C79.1212 63.0305 79.2627 62.7805 79.3511 62.51C79.4396 62.2396 79.4732 61.9543 79.45 61.6707Z" fill="white"/>
<path opacity="0.14" d="M33.66 116.7L37.79 98.9704C37.9079 98.4571 38.1259 97.972 38.4317 97.5432C38.7375 97.1143 39.1249 96.75 39.5719 96.4713C40.0188 96.1925 40.5163 96.0048 41.036 95.9188C41.5557 95.8329 42.0872 95.8504 42.6 95.9704L89.4201 106.91C89.9324 107.028 90.4164 107.246 90.8445 107.551C91.2727 107.856 91.6364 108.243 91.915 108.689C92.1937 109.134 92.3817 109.631 92.4683 110.149C92.555 110.668 92.5386 111.198 92.4201 111.71L88.2901 129.63C88.1723 130.145 87.9539 130.631 87.6475 131.061C87.341 131.49 86.9526 131.855 86.5046 132.134C86.0565 132.413 85.5577 132.6 85.0369 132.685C84.5161 132.771 83.9836 132.752 83.47 132.63L36.65 121.49C35.6194 121.25 34.726 120.611 34.1656 119.713C33.6051 118.815 33.4233 117.732 33.66 116.7Z" fill="#505050"/>
<path d="M29.66 111.7L33.79 93.9704C33.9079 93.4571 34.1259 92.972 34.4317 92.5432C34.7375 92.1143 35.1249 91.75 35.5719 91.4713C36.0188 91.1925 36.5163 91.0048 37.036 90.9188C37.5557 90.8329 38.0872 90.8504 38.6 90.9704L85.4201 101.91C86.4526 102.149 87.3484 102.787 87.9109 103.685C88.4733 104.583 88.6565 105.667 88.4201 106.7L84.2901 124.63C84.1723 125.145 83.9539 125.631 83.6475 126.061C83.341 126.49 82.9526 126.855 82.5046 127.134C82.0565 127.413 81.5577 127.6 81.0369 127.685C80.5161 127.771 79.9836 127.752 79.47 127.63L32.65 116.49C31.6194 116.25 30.726 115.611 30.1656 114.713C29.6051 113.815 29.4233 112.732 29.66 111.7Z" fill="#2AB6C5" stroke="#146972" stroke-miterlimit="10"/>
<path d="M65.46 120.28C65.1126 120.277 64.7723 120.182 64.4725 120.007C64.1726 119.832 63.9236 119.581 63.75 119.28L55.91 106.47L43.31 114.05C43.0081 114.234 42.6631 114.334 42.31 114.34C42.0812 114.341 41.8542 114.301 41.64 114.22C41.3613 114.121 41.1083 113.961 40.899 113.751C40.6898 113.542 40.5296 113.289 40.43 113.01L38.43 107.44C38.2534 106.942 38.2816 106.394 38.5084 105.916C38.7352 105.438 39.1421 105.069 39.64 104.89C39.8542 104.81 40.0812 104.77 40.31 104.77C40.7222 104.771 41.1241 104.9 41.4606 105.138C41.7971 105.376 42.0519 105.712 42.19 106.1L43.36 109.37L55.57 102.02C55.8719 101.837 56.2169 101.737 56.57 101.73C56.9125 101.729 57.2496 101.816 57.5491 101.982C57.8485 102.149 58.1002 102.389 58.28 102.68L66.28 115.68L75.98 111.36C76.2367 111.241 76.5167 111.179 76.8 111.18C77.1858 111.182 77.5629 111.295 77.8858 111.507C78.2088 111.718 78.4637 112.018 78.62 112.37C78.7237 112.612 78.7772 112.872 78.7772 113.135C78.7772 113.399 78.7237 113.659 78.62 113.9C78.4307 114.395 78.0531 114.794 77.57 115.01L66.26 120.01C66.0168 120.159 65.7434 120.251 65.46 120.28Z" fill="#8BE1E5" fill-opacity="0.43"/>
<path d="M56.58 102.27C56.8378 102.267 57.0917 102.332 57.3164 102.458C57.541 102.585 57.7285 102.768 57.86 102.99L66.05 116.37L76.16 111.86C76.3512 111.772 76.5596 111.727 76.77 111.73C77.1135 111.73 77.4466 111.848 77.7135 112.064C77.9804 112.28 78.165 112.582 78.2364 112.918C78.3079 113.254 78.2618 113.604 78.1059 113.91C77.95 114.216 77.6938 114.46 77.38 114.6L66.07 119.65C65.8767 119.731 65.6697 119.775 65.46 119.78C65.2028 119.779 64.95 119.713 64.7259 119.587C64.5017 119.461 64.3138 119.279 64.18 119.06L56.08 105.81L43.08 113.66C42.8472 113.798 42.581 113.871 42.31 113.87C42.1393 113.87 41.97 113.839 41.81 113.78C41.6007 113.707 41.4102 113.589 41.2527 113.433C41.0952 113.277 40.9747 113.088 40.9 112.88L38.9 107.31C38.8334 107.124 38.8041 106.927 38.8137 106.729C38.8234 106.532 38.8719 106.339 38.9565 106.161C39.041 105.982 39.1599 105.822 39.3064 105.69C39.4529 105.558 39.624 105.456 39.81 105.39C39.97 105.33 40.1393 105.299 40.31 105.3C40.6195 105.3 40.9211 105.397 41.1736 105.576C41.426 105.755 41.6169 106.008 41.72 106.3L43.1 110.14L55.79 102.48C56.0238 102.343 56.2894 102.271 56.56 102.27M56.56 101.27C56.105 101.268 55.6585 101.393 55.27 101.63L43.59 108.63L42.59 105.94C42.417 105.454 42.0984 105.035 41.6778 104.738C41.2571 104.44 40.755 104.281 40.24 104.28C39.9533 104.279 39.6688 104.33 39.4 104.43C39.0904 104.538 38.8055 104.707 38.5617 104.927C38.318 105.147 38.1203 105.413 37.98 105.71C37.8372 106.005 37.7556 106.327 37.7401 106.655C37.7247 106.984 37.7757 107.312 37.89 107.62L39.89 113.19C40.0133 113.539 40.2128 113.857 40.4739 114.12C40.7351 114.382 41.0514 114.584 41.4 114.71C41.6706 114.801 41.9543 114.849 42.24 114.85C42.695 114.851 43.1416 114.727 43.53 114.49L55.79 107.19L63.36 119.58C63.672 120.103 64.1648 120.493 64.7452 120.677C65.3257 120.862 65.9535 120.827 66.51 120.58L77.82 115.58C78.4253 115.307 78.8994 114.808 79.14 114.19C79.3172 113.728 79.3535 113.224 79.2444 112.742C79.1353 112.26 78.8857 111.821 78.5272 111.481C78.1686 111.14 77.7172 110.914 77.23 110.83C76.7428 110.746 76.2417 110.809 75.79 111.01L66.48 115.16L58.76 102.52C58.5346 102.155 58.2196 101.854 57.845 101.646C57.4704 101.438 57.0487 101.329 56.62 101.33L56.56 101.27Z" fill="#146972"/>
<path d="M60.2299 103.47C60.1606 102.752 59.8807 102.071 59.4252 101.511C58.9698 100.952 58.3592 100.54 57.6701 100.326C56.9811 100.113 56.2443 100.107 55.5524 100.311C54.8604 100.515 54.2441 100.919 53.781 101.472C53.3178 102.025 53.0284 102.703 52.9491 103.42C52.8698 104.137 53.0041 104.861 53.3352 105.502C53.6664 106.143 54.1795 106.672 54.8101 107.022C55.4408 107.372 56.1609 107.528 56.8799 107.47C57.3635 107.43 57.8343 107.294 58.265 107.071C58.6958 106.848 59.078 106.541 59.3896 106.169C59.7011 105.797 59.9358 105.367 60.08 104.904C60.2243 104.441 60.2752 103.953 60.2299 103.47Z" fill="white"/>
<path opacity="0.14" d="M111.12 39.4192C111.12 39.8583 110.99 40.2875 110.746 40.6526C110.502 41.0177 110.155 41.3022 109.749 41.4703C109.344 41.6383 108.897 41.6822 108.467 41.5966C108.036 41.5109 107.641 41.2995 107.33 40.989C107.02 40.6785 106.808 40.283 106.723 39.8523C106.637 39.4217 106.681 38.9753 106.849 38.5697C107.017 38.164 107.301 37.8173 107.667 37.5734C108.032 37.3294 108.461 37.1992 108.9 37.1992C109.192 37.1979 109.481 37.2544 109.751 37.3655C110.021 37.4766 110.266 37.6401 110.473 37.8465C110.679 38.0529 110.843 38.2982 110.954 38.5681C111.065 38.8381 111.121 39.1273 111.12 39.4192Z" fill="#505050"/>
<path opacity="0.14" d="M356.55 55.9095C356.55 56.3485 356.42 56.7777 356.176 57.1428C355.932 57.5079 355.585 57.7924 355.18 57.9605C354.774 58.1285 354.328 58.1725 353.897 58.0868C353.466 58.0011 353.071 57.7897 352.76 57.4792C352.45 57.1688 352.238 56.7732 352.153 56.3426C352.067 55.9119 352.111 55.4656 352.279 55.0599C352.447 54.6542 352.732 54.3075 353.097 54.0636C353.462 53.8197 353.891 53.6895 354.33 53.6895C354.919 53.6895 355.484 53.9233 355.9 54.3397C356.316 54.756 356.55 55.3207 356.55 55.9095Z" fill="#505050"/>
<path opacity="0.14" d="M67 20.3995C67.002 20.8394 66.8732 21.27 66.6301 21.6366C66.3869 22.0032 66.0403 22.2893 65.6342 22.4586C65.2282 22.6278 64.781 22.6726 64.3494 22.5873C63.9178 22.5019 63.5214 22.2903 63.2103 21.9792C62.8992 21.6682 62.6876 21.2717 62.6022 20.8401C62.5169 20.4085 62.5617 19.9613 62.731 19.5553C62.9002 19.1492 63.1863 18.8026 63.5529 18.5594C63.9195 18.3163 64.3501 18.1875 64.79 18.1895C65.0803 18.1895 65.3676 18.2466 65.6358 18.3577C65.9039 18.4688 66.1475 18.6316 66.3527 18.8368C66.558 19.042 66.7208 19.2856 66.8318 19.5537C66.9429 19.8219 67 20.1093 67 20.3995Z" fill="#505050"/>
<path opacity="0.14" d="M193.57 2.22003C193.57 2.6591 193.44 3.08831 193.196 3.45339C192.952 3.81847 192.605 4.10301 192.199 4.27104C191.794 4.43906 191.347 4.48302 190.917 4.39737C190.486 4.31171 190.091 4.10027 189.78 3.7898C189.47 3.47933 189.258 3.08376 189.173 2.65313C189.087 2.22249 189.131 1.77612 189.299 1.37046C189.467 0.964812 189.751 0.618097 190.117 0.374161C190.482 0.130224 190.911 2.27283e-05 191.35 2.27283e-05C191.642 -0.00130112 191.931 0.0552203 192.201 0.166317C192.471 0.277413 192.716 0.440887 192.923 0.647297C193.129 0.853707 193.292 1.09896 193.404 1.3689C193.515 1.63884 193.571 1.92812 193.57 2.22003Z" fill="#505050"/>
<path opacity="0.14" d="M266.79 40.22C266.79 40.6591 266.66 41.0883 266.416 41.4534C266.172 41.8184 265.825 42.103 265.42 42.271C265.014 42.439 264.568 42.483 264.137 42.3973C263.706 42.3117 263.311 42.1002 263 41.7898C262.69 41.4793 262.478 41.0837 262.393 40.6531C262.307 40.2225 262.351 39.7761 262.519 39.3704C262.687 38.9648 262.972 38.6181 263.337 38.3741C263.702 38.1302 264.131 38 264.57 38C265.159 38 265.724 38.2339 266.14 38.6502C266.556 39.0666 266.79 39.6312 266.79 40.22Z" fill="#505050"/>
<path opacity="0.14" d="M4.44 121.361C4.44 121.8 4.3098 122.229 4.06587 122.594C3.82193 122.959 3.47521 123.244 3.06956 123.412C2.66391 123.58 2.21754 123.624 1.7869 123.538C1.35627 123.452 0.960696 123.241 0.650223 122.93C0.339751 122.62 0.128316 122.224 0.0426565 121.794C-0.0430026 121.363 0.000965133 120.917 0.168992 120.511C0.337018 120.105 0.621557 119.759 0.986634 119.515C1.35171 119.271 1.78093 119.141 2.22 119.141C2.80878 119.141 3.37345 119.375 3.78978 119.791C4.20611 120.207 4.44 120.772 4.44 121.361Z" fill="#505050"/>
<path opacity="0.14" d="M273.89 268.96C273.89 269.399 273.76 269.829 273.516 270.194C273.272 270.559 272.925 270.843 272.519 271.011C272.114 271.179 271.667 271.223 271.237 271.138C270.806 271.052 270.411 270.841 270.1 270.53C269.79 270.22 269.578 269.824 269.493 269.393C269.407 268.963 269.451 268.516 269.619 268.111C269.787 267.705 270.072 267.358 270.437 267.114C270.802 266.87 271.231 266.74 271.67 266.74C271.962 266.739 272.251 266.795 272.521 266.907C272.791 267.018 273.036 267.181 273.243 267.388C273.449 267.594 273.613 267.839 273.724 268.109C273.835 268.379 273.891 268.668 273.89 268.96Z" fill="#505050"/>
<path opacity="0.14" d="M25.79 207.49C25.79 207.929 25.6595 208.359 25.4151 208.724C25.1707 209.089 24.8234 209.374 24.4172 209.542C24.011 209.709 23.5641 209.753 23.1332 209.666C22.7023 209.58 22.3067 209.367 21.9967 209.056C21.6866 208.744 21.4759 208.348 21.3914 207.916C21.3069 207.485 21.3523 207.039 21.5218 206.633C21.6914 206.228 21.9775 205.882 22.3439 205.639C22.7103 205.396 23.1405 205.268 23.58 205.27C24.167 205.272 24.7291 205.507 25.1433 205.923C25.5575 206.339 25.79 206.903 25.79 207.49Z" fill="#505050"/>
<path opacity="0.14" d="M377.62 192.351C377.62 192.79 377.489 193.22 377.245 193.585C377.001 193.951 376.653 194.235 376.247 194.403C375.841 194.571 375.394 194.614 374.963 194.527C374.532 194.441 374.137 194.229 373.827 193.917C373.517 193.606 373.306 193.209 373.221 192.778C373.137 192.347 373.182 191.9 373.352 191.494C373.521 191.089 373.807 190.743 374.174 190.5C374.54 190.257 374.97 190.129 375.41 190.131C375.997 190.134 376.559 190.369 376.973 190.785C377.387 191.201 377.62 191.764 377.62 192.351Z" fill="#505050"/>
<path opacity="0.14" d="M186.33 247.691C186.33 248.13 186.2 248.559 185.956 248.924C185.712 249.289 185.365 249.574 184.96 249.742C184.554 249.91 184.108 249.954 183.677 249.868C183.246 249.782 182.851 249.571 182.54 249.26C182.23 248.95 182.018 248.554 181.933 248.124C181.847 247.693 181.891 247.247 182.059 246.841C182.227 246.436 182.512 246.089 182.877 245.845C183.242 245.601 183.671 245.471 184.11 245.471C184.402 245.469 184.691 245.526 184.961 245.637C185.231 245.748 185.476 245.912 185.683 246.118C185.889 246.324 186.053 246.57 186.164 246.84C186.275 247.11 186.331 247.399 186.33 247.691Z" fill="#505050"/>
</svg>
