<svg width="405" height="404" viewBox="0 0 405 404" fill="none" xmlns="http://www.w3.org/2000/svg">
<path d="M202.011 403.534C90.4432 403.534 3.05176e-05 351.317 3.05176e-05 286.904C3.05176e-05 222.491 90.4432 170.273 202.011 170.273C313.578 170.273 404.021 222.491 404.021 286.904C404.021 351.317 313.578 403.534 202.011 403.534Z" fill="#F5F5F5"/>
<path d="M342.211 310.05C329.861 310.05 319.849 304.269 319.849 297.139C319.849 290.009 329.861 284.229 342.211 284.229C354.561 284.229 364.573 290.009 364.573 297.139C364.573 304.269 354.561 310.05 342.211 310.05Z" fill="#E6E6E6"/>
<path d="M169.998 227.928L316.971 312.79C317.538 313.104 318.012 313.565 318.341 314.124C318.67 314.682 318.844 315.319 318.844 315.968C318.844 316.617 318.67 317.254 318.341 317.812C318.012 318.371 317.538 318.832 316.971 319.146L230.592 369.017C228.421 370.271 225.958 370.931 223.451 370.931C220.944 370.931 218.482 370.271 216.311 369.017L69.3377 284.164C68.7701 283.85 68.2969 283.389 67.9675 282.831C67.638 282.272 67.4642 281.635 67.4642 280.986C67.4642 280.337 67.638 279.701 67.9675 279.142C68.2969 278.583 68.7701 278.122 69.3377 277.808L155.707 227.928C157.88 226.673 160.344 226.012 162.853 226.012C165.361 226.012 167.826 226.673 169.998 227.928Z" fill="#E6E6E6"/>
<path d="M214.132 228.755L272.964 262.73C274.147 263.41 275.129 264.39 275.812 265.572C276.495 266.753 276.854 268.093 276.854 269.457C276.854 270.821 276.495 272.162 275.812 273.343C275.129 274.524 274.147 275.504 272.964 276.185L243.339 293.29C241.378 294.419 239.155 295.013 236.893 295.013C234.63 295.013 232.408 294.419 230.447 293.29L171.605 259.316C170.425 258.633 169.445 257.652 168.764 256.472C168.083 255.291 167.724 253.951 167.724 252.588C167.724 251.225 168.083 249.886 168.764 248.705C169.445 247.524 170.425 246.543 171.605 245.861L201.239 228.755C203.199 227.622 205.422 227.025 207.685 227.025C209.949 227.025 212.172 227.622 214.132 228.755Z" fill="#E6E6E6"/>
<path d="M341.03 263.763C341.03 263.763 354.849 250.263 346.986 227.656C342.583 214.99 327.974 205.684 319.658 204.812C322.411 208.084 324.608 211.786 326.158 215.771L336.636 222.735L327.003 219.72L329.055 227.964C329.055 227.964 338.007 233.412 339.332 234.556L329.681 231.986C329.681 231.986 330.426 255.338 341.03 263.763Z" fill="#2AB6C5"/>
<path opacity="0.4" d="M341.03 263.763C341.03 263.763 354.849 250.263 346.986 227.656C342.583 214.99 327.974 205.684 319.658 204.812C322.411 208.084 324.608 211.786 326.158 215.771L336.636 222.735L327.003 219.72L329.055 227.964C329.055 227.964 338.007 233.412 339.332 234.556L329.681 231.986C329.681 231.986 330.426 255.338 341.03 263.763Z" fill="black"/>
<path d="M341.03 263.764C341.03 263.764 348.184 235.518 337.598 219.049C337.598 219.013 350 233.548 341.03 263.764Z" fill="white"/>
<path d="M325.214 267.548L342.129 267.33H342.301L359.206 267.548C359.206 267.548 359.397 288.375 352.978 296.846C351.162 299.107 347.049 300.687 342.21 300.687C337.371 300.687 333.204 299.098 331.433 296.837C325.033 288.357 325.214 267.548 325.214 267.548Z" fill="#37474F"/>
<path d="M342.21 276.675C332.823 276.675 325.214 272.59 325.214 267.55C325.214 262.511 332.823 258.426 342.21 258.426C351.597 258.426 359.206 262.511 359.206 267.55C359.206 272.59 351.597 276.675 342.21 276.675Z" fill="#455A64"/>
<path d="M342.21 265.125C336.363 265.125 331.415 267.005 329.672 269.601C329.242 269.002 329.004 268.287 328.991 267.549C328.991 263.918 334.911 261.021 342.21 261.021C349.51 261.021 355.448 263.945 355.448 267.549C355.432 268.285 355.198 268.999 354.776 269.601C353.014 267.005 348.057 265.125 342.21 265.125Z" fill="#263238"/>
<path d="M342.21 274.077C335.286 274.077 329.672 272.073 329.672 269.601C329.672 267.129 335.286 265.125 342.21 265.125C349.135 265.125 354.749 267.129 354.749 269.601C354.749 272.073 349.135 274.077 342.21 274.077Z" fill="#E0E0E0"/>
<path d="M342.002 270.727C342.002 270.727 348.557 270.473 354.168 261.775C356.492 258.189 357.609 256.328 357.609 256.328L348.53 255.647L358.753 253.095L363.583 245.705L355.094 245.07C355.094 245.07 361.449 242.854 365.925 242.827C365.925 242.827 373.76 228.999 376.048 227.029C370.127 227.393 364.34 228.94 359.027 231.578C353.714 234.217 348.984 237.894 345.116 242.391C332.205 257.581 340.095 271.118 342.002 270.727Z" fill="#2AB6C5"/>
<path d="M342.002 270.727C342.002 270.727 337.907 246.05 364.046 231.215C364.046 231.215 336.917 244.243 342.002 270.727Z" fill="white"/>
<path d="M342.001 270.726C342.001 270.726 336.073 271.107 330.198 263.789C327.774 260.775 326.567 259.177 326.567 259.177L334.738 257.706L325.278 256.362L320.22 250.143L327.82 248.772C327.82 248.772 321.909 247.374 317.833 247.774C317.833 247.774 309.462 236.025 307.21 234.464C312.587 234.237 317.954 235.089 322.996 236.971C328.037 238.854 332.651 241.727 336.563 245.422C349.61 257.942 343.763 270.898 342.001 270.726Z" fill="#2AB6C5"/>
<path opacity="0.2" d="M342.001 270.726C342.001 270.726 336.073 271.107 330.198 263.789C327.774 260.775 326.567 259.177 326.567 259.177L334.738 257.706L325.278 256.362L320.22 250.143L327.82 248.772C327.82 248.772 321.909 247.374 317.833 247.774C317.833 247.774 309.462 236.025 307.21 234.464C312.587 234.237 317.954 235.089 322.996 236.971C328.037 238.854 332.651 241.727 336.563 245.422C349.61 257.942 343.763 270.898 342.001 270.726Z" fill="black"/>
<path d="M342.002 270.726C342.002 270.726 343.382 248.082 318.396 237.133C318.396 237.151 344.099 246.357 342.002 270.726Z" fill="white"/>
<path d="M311.95 69.832V114.937L351.017 137.49V92.3846L311.95 69.832Z" fill="#FAFAFA"/>
<path d="M316.181 72.2734V112.494L351.017 132.604V92.3837L316.181 72.2734ZM314.065 68.6418L353.105 91.1943V136.299L350.99 137.525L311.95 114.973V69.8311L314.065 68.6055V68.6418Z" fill="#E0E0E0"/>
<path d="M314.065 73.4909V113.711L348.902 133.822V93.6012L314.065 73.4909ZM311.95 69.8593L350.99 92.4118V137.517L311.95 114.964V69.832V69.8593Z" fill="#EBEBEB"/>
<path d="M317.688 104.614L347.24 121.674L338.506 98.967L332.46 106.139L326.277 97.3418L317.688 104.614Z" fill="#E0E0E0"/>
<path d="M327.938 90.4418C327.992 91.3807 328.266 92.2937 328.739 93.1062C329.213 93.9188 329.872 94.608 330.662 95.1175C332.151 95.9709 333.386 95.2809 333.386 93.5559C333.331 92.6185 333.056 91.7074 332.583 90.8965C332.109 90.0855 331.451 89.3978 330.662 88.8892C329.119 88.0267 327.938 88.7258 327.938 90.4418Z" fill="#E0E0E0"/>
<path d="M298.921 13.6777V49.6038L330.036 67.5714V31.6362L298.921 13.6777Z" fill="#FAFAFA"/>
<path d="M302.29 15.6207V47.6791L330.026 63.6856V31.6363L302.281 15.6207M300.592 12.6973L331.724 30.6649V66.6L330.035 67.5715L298.921 49.6039V13.6687L300.601 12.6973H300.592Z" fill="#E0E0E0"/>
<path d="M300.601 16.5914V48.6317L328.356 64.6563V32.607L300.601 16.5914ZM298.922 13.668L330.027 31.6356V67.5707L298.912 49.6031V13.668H298.922Z" fill="#EBEBEB"/>
<path d="M303.488 41.3875L327.03 54.9789L320.075 36.8843L315.254 42.6041L310.334 35.5859L303.488 41.3875Z" fill="#E0E0E0"/>
<path d="M311.65 30.0925C311.69 30.8387 311.906 31.5649 312.28 32.2118C312.654 32.8587 313.175 33.4081 313.802 33.815C314.991 34.505 315.945 33.9421 315.945 32.5802C315.906 31.8347 315.693 31.1088 315.32 30.4618C314.948 29.8148 314.427 29.2652 313.802 28.8578C312.613 28.1678 311.65 28.7307 311.65 30.0925Z" fill="#E0E0E0"/>
<path d="M232.743 221.393L220.114 298.466C220.022 299.029 219.731 299.541 219.296 299.911C218.86 300.28 218.307 300.482 217.736 300.481C217.398 300.481 217.064 300.409 216.755 300.271C216.447 300.133 216.171 299.931 215.946 299.679C215.721 299.427 215.551 299.131 215.448 298.809C215.345 298.488 215.311 298.148 215.348 297.812L224.209 218.297L232.743 221.393Z" fill="#263238"/>
<path d="M189.146 195.473L176.507 272.546C176.417 273.109 176.128 273.621 175.694 273.99C175.26 274.359 174.708 274.562 174.138 274.561C173.799 274.561 173.464 274.489 173.155 274.35C172.846 274.211 172.57 274.009 172.345 273.756C172.119 273.503 171.95 273.206 171.847 272.883C171.745 272.56 171.712 272.219 171.75 271.883L180.611 192.377L189.146 195.473Z" fill="#263238"/>
<path d="M252.127 203.371L264.593 269.785C264.676 270.25 264.922 270.672 265.286 270.974C265.649 271.276 266.108 271.44 266.581 271.437C266.872 271.436 267.16 271.373 267.424 271.251C267.689 271.13 267.924 270.953 268.114 270.733C268.305 270.512 268.445 270.254 268.527 269.974C268.609 269.695 268.629 269.401 268.588 269.113L259.382 207.557L252.127 203.371Z" fill="#263238"/>
<path d="M208.039 178.592L220.432 244.597C220.516 245.063 220.761 245.484 221.125 245.786C221.489 246.088 221.947 246.253 222.42 246.249C222.711 246.248 222.997 246.185 223.261 246.064C223.525 245.943 223.76 245.767 223.95 245.548C224.14 245.328 224.281 245.071 224.363 244.793C224.445 244.514 224.467 244.222 224.427 243.934L215.293 182.768L208.039 178.592Z" fill="#263238"/>
<path d="M211.634 173.563C214.492 172.298 216.963 170.298 218.796 167.767C220.629 165.236 221.757 162.264 222.066 159.154C224.073 138.926 231.2 97.2529 255.332 111.126C285.13 128.249 274.462 177.975 270.131 193.918C269.168 197.51 267.292 200.791 264.684 203.442C259.3 208.89 248.16 218.205 229.203 226.14C226.877 227.112 224.291 227.265 221.867 226.576C212.452 223.898 187.856 215.681 175.563 199.974C174.867 199.084 174.551 197.954 174.684 196.832C174.816 195.71 175.387 194.685 176.271 193.982C181.237 190.042 192.468 182.115 211.634 173.563Z" fill="#2AB6C5"/>
<path opacity="0.5" d="M211.634 173.563C214.492 172.298 216.963 170.298 218.796 167.767C220.629 165.236 221.757 162.264 222.066 159.154C224.073 138.926 231.2 97.2529 255.332 111.126C285.13 128.249 274.462 177.975 270.131 193.918C269.168 197.51 267.292 200.791 264.684 203.442C259.3 208.89 248.16 218.205 229.203 226.14C226.877 227.112 224.291 227.265 221.867 226.576C212.452 223.898 187.856 215.681 175.563 199.974C174.867 199.084 174.551 197.954 174.684 196.832C174.816 195.71 175.387 194.685 176.271 193.982C181.237 190.042 192.468 182.115 211.634 173.563Z" fill="black"/>
<path d="M174.673 197.133C174.62 198.162 174.943 199.175 175.581 199.984C176.235 200.828 176.934 201.637 177.651 202.435C178.051 202.871 178.45 203.298 178.868 203.716C179.277 204.133 179.694 204.542 180.121 204.95L181.41 206.149C181.855 206.539 182.318 206.93 182.763 207.311C189.727 213.149 198.197 217.598 205.706 220.803L207.104 221.393L207.249 221.447L208.539 221.974L208.766 222.055L209.964 222.528L210.236 222.637L211.353 223.054L211.68 223.172L212.715 223.553L213.087 223.69L214.041 224.026L214.431 224.162L215.339 224.461L215.766 224.607L216.565 224.87L217.018 225.024L217.736 225.251L218.226 225.406L218.843 225.605L219.37 225.76L219.887 225.923L220.532 226.114L220.859 226.205C221.168 226.304 221.476 226.386 221.767 226.468C224.191 227.157 226.777 227.004 229.103 226.032C248.06 218.088 259.2 208.782 264.584 203.334C267.192 200.683 269.069 197.402 270.031 193.81C274.362 177.867 285.03 128.141 255.232 111.018C254.706 110.721 254.188 110.449 253.68 110.201L253.344 110.037C252.836 109.801 252.345 109.583 251.855 109.393L251.71 109.338C251.247 109.166 250.802 109.011 250.33 108.884L250.121 108.821C249.631 108.684 249.149 108.576 248.677 108.485H248.55C247.61 108.317 246.654 108.25 245.699 108.285H245.645C244.724 108.319 243.81 108.459 242.921 108.703C247.679 106.605 253.489 106.696 259.264 110.01C289.061 127.133 278.393 176.86 274.063 192.803L273.327 195.526C271.85 201.06 268.58 205.948 264.03 209.426L256.295 215.337C247.986 221.671 238.896 226.907 229.248 230.917C226.916 231.899 224.32 232.059 221.885 231.371C212.479 228.692 187.865 220.476 175.581 204.769C175.051 204.1 174.734 203.287 174.673 202.435V197.124V197.133Z" fill="#2AB6C5"/>
<path opacity="0.6" d="M174.673 197.133C174.62 198.162 174.943 199.175 175.581 199.984C176.235 200.828 176.934 201.637 177.651 202.435C178.051 202.871 178.45 203.298 178.868 203.716C179.277 204.133 179.694 204.542 180.121 204.95L181.41 206.149C181.855 206.539 182.318 206.93 182.763 207.311C189.727 213.149 198.197 217.598 205.706 220.803L207.104 221.393L207.249 221.447L208.539 221.974L208.766 222.055L209.964 222.528L210.236 222.637L211.353 223.054L211.68 223.172L212.715 223.553L213.087 223.69L214.041 224.026L214.431 224.162L215.339 224.461L215.766 224.607L216.565 224.87L217.018 225.024L217.736 225.251L218.226 225.406L218.843 225.605L219.37 225.76L219.887 225.923L220.532 226.114L220.859 226.205C221.168 226.304 221.476 226.386 221.767 226.468C224.191 227.157 226.777 227.004 229.103 226.032C248.06 218.088 259.2 208.782 264.584 203.334C267.192 200.683 269.069 197.402 270.031 193.81C274.362 177.867 285.03 128.141 255.232 111.018C254.706 110.721 254.188 110.449 253.68 110.201L253.344 110.037C252.836 109.801 252.345 109.583 251.855 109.393L251.71 109.338C251.247 109.166 250.802 109.011 250.33 108.884L250.121 108.821C249.631 108.684 249.149 108.576 248.677 108.485H248.55C247.61 108.317 246.654 108.25 245.699 108.285H245.645C244.724 108.319 243.81 108.459 242.921 108.703C247.679 106.605 253.489 106.696 259.264 110.01C289.061 127.133 278.393 176.86 274.063 192.803L273.327 195.526C271.85 201.06 268.58 205.948 264.03 209.426L256.295 215.337C247.986 221.671 238.896 226.907 229.248 230.917C226.916 231.899 224.32 232.059 221.885 231.371C212.479 228.692 187.865 220.476 175.581 204.769C175.051 204.1 174.734 203.287 174.673 202.435V197.124V197.133Z" fill="black"/>
<path d="M158.24 254.033C160.274 241.059 162.88 220.322 164.369 208.066C164.465 207.261 164.602 206.462 164.777 205.669C165.561 202.286 167.029 199.099 169.092 196.306C171.155 193.512 173.768 191.171 176.771 189.426L207.331 171.268L228.077 160.373C228.077 160.373 233.597 176.37 227.169 186.158C221.83 194.329 198.261 204.389 191.252 207.793C184.243 211.198 184.097 212.115 184.243 216.664C184.388 221.212 184.397 227.005 175.79 245.145C173.311 250.356 171.586 254.224 170.388 257.247C166.092 257.579 161.81 256.447 158.24 254.033Z" fill="#2AB6C5"/>
<path opacity="0.7" d="M158.24 254.032C160.274 241.058 162.88 220.322 164.369 208.065C164.514 206.861 164.745 205.668 165.059 204.497C166.846 198.157 171.03 192.762 176.725 189.453L207.331 171.231L228.077 160.336C228.077 160.336 233.597 176.333 227.169 186.121C221.83 194.292 198.261 204.352 191.252 207.756C184.243 211.161 184.097 212.078 184.243 216.626C184.388 221.175 184.397 226.968 175.79 245.108C173.311 250.319 171.586 254.187 170.388 257.21C166.096 257.553 161.814 256.433 158.24 254.032Z" fill="black"/>
<path d="M167.691 267.767C167.704 268.305 167.576 268.838 167.319 269.311C166.101 271.369 164.548 273.21 162.725 274.758C158.603 278.472 144.957 293.007 140.163 283.983C140.163 283.983 154.263 270.482 156.125 264.916C157.047 261.33 157.754 257.692 158.24 254.021C161.822 256.42 166.11 257.533 170.406 257.181C167.764 263.763 167.646 265.897 167.691 267.767Z" fill="#FFA8A7"/>
<path d="M152.983 266.878L153.374 265.707C153.53 265.277 153.844 264.922 154.251 264.713C154.659 264.505 155.13 264.458 155.571 264.581L161.282 266.343C161.64 266.454 161.954 266.677 162.176 266.979C162.398 267.281 162.517 267.647 162.516 268.022V268.594C162.519 268.865 162.628 269.124 162.82 269.314C163.012 269.504 163.272 269.611 163.542 269.611C164.752 269.612 165.923 269.191 166.856 268.422L167.655 267.768V265.771C168.17 266.107 168.588 266.572 168.867 267.12C169.145 267.668 169.276 268.28 169.244 268.894C169.171 270.247 169.108 271.899 169.162 272.526C169.253 273.724 170.37 278.718 169.035 280.197C167.7 281.677 164.704 281.85 161 281.45C157.296 281.051 153.247 284.692 149.815 286.044C146.383 287.397 132.165 290.303 132.201 281.214C132.201 278.899 134.498 277.955 136.741 277.138C138.983 276.321 147.1 273.461 149.179 271.745C150.015 271.05 150.789 270.284 151.494 269.457C152.156 268.704 152.662 267.828 152.983 266.878Z" fill="#455A64"/>
<path d="M149.851 286.071C153.283 284.718 157.332 281.078 161.036 281.477C164.741 281.877 167.737 281.704 169.071 280.224C169.499 279.61 169.722 278.876 169.707 278.127C169.77 279.525 169.662 280.851 169.071 281.523C167.737 283.002 164.741 283.175 161.036 282.775C157.332 282.376 153.283 286.026 149.851 287.369C146.419 288.713 132.201 291.628 132.237 282.539C132.247 282.408 132.265 282.278 132.292 282.149C133.182 290.093 146.537 287.369 149.851 286.071Z" fill="#263238"/>
<path d="M185.995 269.775C188.038 256.81 190.634 236.073 192.132 223.808C192.915 217.362 196.099 211.449 201.048 207.247L237.719 176.07L257.321 175.697C257.321 175.697 261.361 192.04 254.951 201.818C249.603 209.989 226.043 220.058 219.034 223.453C212.025 226.849 211.88 227.784 212.025 232.324C212.17 236.863 212.179 242.665 203.563 260.805C201.094 266.025 199.369 269.884 198.17 272.907C193.875 273.265 189.584 272.162 185.995 269.775Z" fill="#2AB6C5"/>
<path opacity="0.7" d="M185.995 269.775C188.038 256.81 190.634 236.073 192.132 223.808C192.915 217.362 196.099 211.449 201.048 207.247L237.719 176.07L257.321 175.697C257.321 175.697 261.361 192.04 254.951 201.818C249.603 209.989 226.043 220.058 219.034 223.453C212.025 226.849 211.88 227.784 212.025 232.324C212.17 236.863 212.179 242.665 203.563 260.805C201.094 266.025 199.369 269.884 198.17 272.907C193.875 273.265 189.584 272.162 185.995 269.775Z" fill="black"/>
<path d="M195.464 282.342C195.464 282.886 195.837 284.493 195.083 285.065C194.121 285.783 193.204 288.08 190.48 290.513C186.367 294.226 182.018 286.227 183.889 280.68C184.806 277.093 185.509 273.455 185.995 269.785C189.581 272.181 193.871 273.295 198.17 272.945C195.519 279.5 195.41 280.48 195.464 282.342Z" fill="#FFA8A7"/>
<path d="M219.697 108.076C216.891 107.631 214.019 108.195 211.59 109.667C209.161 111.14 207.334 113.427 206.432 116.12C205.137 120.01 204.305 124.039 203.953 128.123C202.891 140.698 202.601 146.98 202.601 146.98L189.971 152.709C189.971 152.709 196.79 153.036 196.327 162.696L212.061 158.729L219.697 108.076Z" fill="#FFA8A7"/>
<path d="M202.138 139.38C203.999 125.762 204.734 118.634 206.332 115.257C207.429 112.732 209.344 110.651 211.768 109.348C214.193 108.045 216.986 107.597 219.697 108.075L214.939 145.481L214.331 145.427C210.118 145.011 206.149 143.255 203.009 140.415L202.138 139.38Z" fill="#2AB6C5"/>
<path opacity="0.2" d="M202.138 139.38C203.999 125.762 204.734 118.634 206.332 115.257C207.429 112.732 209.344 110.651 211.768 109.348C214.193 108.045 216.986 107.597 219.697 108.075L214.939 145.481L214.331 145.427C210.118 145.011 206.149 143.255 203.009 140.415L202.138 139.38Z" fill="black"/>
<path d="M202.601 146.98C204.02 147.417 205.304 148.207 206.332 149.277C206.332 149.277 204.807 146.381 202.701 145.482L202.601 146.98Z" fill="#F28F8F"/>
<path d="M250.039 119.11L235.912 112.264L224.273 108.242C224.273 108.242 214.939 105.273 212.561 117.702C210.59 127.916 210.336 166.73 210.336 166.73L210.545 170.97C210.545 170.97 215.929 186.059 235.168 187.312C254.406 188.565 258.156 180.448 258.156 180.448C258.156 180.448 260.117 129.088 250.039 119.11Z" fill="#2AB6C5"/>
<path d="M205.524 77.6426C205.524 77.6426 201.157 88.8371 207.186 93.7671C213.214 98.6971 211.09 78.8501 211.09 78.8501L205.524 77.6426Z" fill="#263238"/>
<path d="M216.165 365.824C216.932 366.216 217.782 366.42 218.644 366.42C219.505 366.42 220.355 366.216 221.122 365.824C222.493 365.034 222.493 363.754 221.122 362.964C220.355 362.572 219.505 362.367 218.644 362.367C217.782 362.367 216.932 362.572 216.165 362.964C214.794 363.754 214.794 365.034 216.165 365.824Z" fill="#455A64"/>
<path d="M215.13 279.918H222.139V364.317H215.13V279.918Z" fill="#37474F"/>
<path d="M298.367 319.602C296.432 319.602 294.863 318.696 294.863 317.577C294.863 316.459 296.432 315.553 298.367 315.553C300.303 315.553 301.872 316.459 301.872 317.577C301.872 318.696 300.303 319.602 298.367 319.602Z" fill="#455A64"/>
<path d="M294.863 233.105H301.872V317.505H294.863V233.105Z" fill="#263238"/>
<path d="M85.471 290.093C86.2384 290.485 87.0878 290.69 87.9496 290.69C88.8114 290.69 89.6608 290.485 90.4282 290.093C91.7992 289.303 91.7992 288.023 90.4282 287.233C89.6608 286.841 88.8114 286.637 87.9496 286.637C87.0878 286.637 86.2384 286.841 85.471 287.233C84.1001 288.032 84.1001 289.312 85.471 290.093Z" fill="#455A64"/>
<path d="M84.4359 204.197H91.4449V288.597H84.4359V204.197Z" fill="#37474F"/>
<path d="M171.142 226.233C171.831 226.583 172.593 226.765 173.366 226.765C174.139 226.765 174.901 226.583 175.59 226.233C176.816 225.525 176.816 224.417 175.59 223.673C174.902 223.319 174.14 223.135 173.366 223.135C172.592 223.135 171.83 223.319 171.142 223.673C169.952 224.381 169.952 225.525 171.142 226.233Z" fill="#455A64"/>
<path d="M170.252 154.453H176.543V224.889H170.252V154.453Z" fill="#455A64"/>
<path d="M301.881 219.123V235.91L218.634 283.975V267.179L301.881 219.123Z" fill="#263238"/>
<path d="M84.436 189.707L218.635 267.179V283.976L84.436 206.494V189.707Z" fill="#37474F"/>
<path d="M167.682 141.643L301.881 219.124L218.634 267.18L84.4359 189.707L167.682 141.643Z" fill="#455A64"/>
<path d="M235.004 193.928L204.48 211.55L153.737 182.197L184.252 164.221L235.004 193.928Z" fill="#EBEBEB"/>
<path d="M207.767 188.908L196.318 182.298L203.49 178.158L214.939 184.768L207.767 188.908Z" fill="#E0E0E0"/>
<path d="M203.182 207.148L218.607 198.069L188.464 179.82L203.182 207.148Z" fill="#E0E0E0"/>
<path d="M194.547 150.529L182.336 156.258C178.688 157.179 175.09 158.291 171.559 159.59C171.559 159.59 163.061 163.058 162.671 165.337C162.28 167.616 169.026 173.109 174.991 170.44C176.55 169.604 178.219 168.993 179.948 168.624C181.537 168.451 186.304 167.716 189.708 164.439L203.953 160.734C203.953 160.734 204.662 151.946 194.547 150.529Z" fill="#FFA8A7"/>
<path d="M186.64 167.525C185.232 169.042 181.192 172.864 180.284 173.972C179.376 175.079 177.324 172.238 180.965 167.998C184.117 166.843 187.081 165.231 189.763 163.213C188.834 164.728 187.789 166.17 186.64 167.525Z" fill="#FFA8A7"/>
<path d="M221.422 94.7207H235.912V112.262H221.422V94.7207Z" fill="#FFA8A7"/>
<path d="M221.413 112.262C224.368 111.158 227.069 109.467 229.352 107.29C231.635 105.113 233.453 102.496 234.695 99.5962V94.7207H221.376L221.413 112.262Z" fill="#F28F8F"/>
<path d="M216.537 71.5597C216.537 71.5597 203.354 73.1485 206.378 95.6738C207.776 106.088 210.563 111.353 218.589 110.464C227.668 109.447 240.261 102.383 238.309 84.5338C236.357 66.6842 216.537 71.5597 216.537 71.5597Z" fill="#FFA8A7"/>
<path d="M215.802 91.6426L216.274 99.4234L211.634 98.3067L215.802 91.6426Z" fill="#F28F8F"/>
<path d="M222.702 90.9449C222.721 91.2587 222.647 91.5711 222.488 91.8427C222.33 92.1142 222.094 92.3327 221.812 92.4704C221.529 92.608 221.212 92.6588 220.901 92.6162C220.589 92.5735 220.297 92.4395 220.062 92.2309C219.827 92.0224 219.659 91.7487 219.579 91.4446C219.499 91.1405 219.512 90.8195 219.614 90.5224C219.717 90.2253 219.906 89.9654 220.157 89.7755C220.407 89.5857 220.708 89.4744 221.022 89.4559C221.442 89.4311 221.855 89.5739 222.17 89.853C222.485 90.1322 222.676 90.5249 222.702 90.9449Z" fill="#263238"/>
<path d="M212.215 90.4806C212.234 90.794 212.16 91.106 212.002 91.3773C211.844 91.6485 211.609 91.8668 211.327 92.0047C211.045 92.1425 210.728 92.1937 210.417 92.1517C210.106 92.1097 209.814 91.9765 209.579 91.7689C209.343 91.5612 209.174 91.2885 209.094 90.985C209.013 90.6815 209.024 90.361 209.126 90.0639C209.227 89.7667 209.414 89.5063 209.664 89.3155C209.913 89.1246 210.213 89.0119 210.527 88.9916C210.735 88.9781 210.945 89.0059 211.143 89.0735C211.341 89.141 211.523 89.247 211.68 89.3854C211.837 89.5237 211.965 89.6917 212.057 89.8796C212.149 90.0676 212.203 90.2718 212.215 90.4806Z" fill="#263238"/>
<path d="M208.493 87.3926L211.48 85.3588C211.48 85.3588 210.218 84.1967 209.074 85.0138C208.749 85.3057 208.52 85.689 208.416 86.1134C208.312 86.5378 208.339 86.9837 208.493 87.3926Z" fill="#263238"/>
<path d="M221.603 87.0404L224.826 88.6565C224.826 88.6565 225.226 86.9859 223.964 86.3957C223.551 86.252 223.105 86.2366 222.683 86.3517C222.262 86.4668 221.885 86.7069 221.603 87.0404Z" fill="#263238"/>
<path d="M216.047 102.584C217.861 102.602 219.629 102.01 221.068 100.904C221.068 100.904 221.576 103.574 219.361 104.218C217.145 104.863 216.047 102.584 216.047 102.584Z" fill="#F28F8F"/>
<path d="M236.066 91.4613C236.066 91.4613 234.042 95.6831 232.789 95.5378C231.536 95.3926 232.789 79.3679 230.192 79.268C227.596 79.1682 215.339 85.2512 204.507 77.3977C200.34 74.3835 199.514 66.6844 202.011 67.4107C204.507 68.137 207.876 70.3251 212.424 70.0164C216.973 69.7077 232.898 62.3173 236.847 72.7402C236.847 72.7402 245.654 72.0229 242.349 89.5093C241.523 93.8582 238.926 104.626 235.912 105.688L236.066 91.4613Z" fill="#263238"/>
<path d="M235.349 95.3099C235.299 93.9893 235.544 92.6742 236.066 91.4603C236.328 90.7129 236.801 90.0576 237.428 89.574C238.055 89.0905 238.809 88.7995 239.598 88.7366C243.665 88.6277 244.219 92.5498 244.138 93.9389C243.992 97.5706 241.023 101.565 235.503 101.72L235.349 95.3099Z" fill="#FFA8A7"/>
<path d="M234.096 173.802L223.71 182.055C221.934 182.222 220.173 182.526 218.444 182.962C216.455 183.553 211.244 185.468 209.864 185.768C208.484 186.067 210.263 188.492 213.877 187.584C213.877 187.584 206.305 192.768 206.405 195.074C206.505 197.38 214.276 201.32 219.524 197.453C220.876 196.323 222.376 195.382 223.982 194.656C225.507 194.157 229.983 192.423 232.643 188.501L241.723 183.77C241.723 183.77 244.283 173.048 234.096 173.802Z" fill="#FFA8A7"/>
<path d="M245.427 116.875C245.427 116.875 239.371 121.569 243.094 136.159C246.816 150.749 248.804 163.324 248.804 163.324L234.096 173.801C236.11 174.683 237.866 176.062 239.2 177.809C240.534 179.556 241.402 181.613 241.723 183.788C241.723 183.788 264.911 174.709 265.383 168.817C265.855 162.924 260.544 137.63 259.736 132.972C258.928 128.315 254.806 119.081 245.427 116.875Z" fill="#FFA8A7"/>
<path d="M248.804 163.322C250.638 162.963 252.525 162.981 254.352 163.377C252.611 162.432 250.658 161.947 248.677 161.969L248.804 163.322Z" fill="#F28F8F"/>
<path d="M146.628 148.577L151.939 183.305C151.932 183.325 151.932 183.348 151.939 183.368L204.734 213.938C204.747 213.944 204.762 213.947 204.777 213.946C204.791 213.945 204.806 213.94 204.818 213.932C204.83 213.924 204.839 213.912 204.845 213.899C204.851 213.885 204.854 213.871 204.852 213.856L199.704 180.172C199.595 179.454 199.331 178.769 198.929 178.164C198.528 177.558 197.999 177.048 197.38 176.668L149.025 147.016C148.771 146.849 148.474 146.76 148.171 146.76C147.867 146.759 147.57 146.847 147.316 147.013C147.062 147.179 146.861 147.415 146.739 147.693C146.617 147.97 146.578 148.278 146.628 148.577Z" fill="#FAFAFA"/>
<path d="M204.734 213.941L232.88 197.599C233.528 197.222 234.067 196.682 234.441 196.032C234.816 195.382 235.013 194.645 235.013 193.895L204.489 211.517L204.734 213.941Z" fill="#E0E0E0"/>
<path d="M177.161 182.053C177.161 184.54 175.418 185.539 173.275 184.304C172.142 183.567 171.199 182.572 170.522 181.402C169.845 180.231 169.454 178.918 169.38 177.568C169.38 175.08 171.123 174.081 173.275 175.316C174.406 176.056 175.346 177.051 176.021 178.221C176.696 179.391 177.087 180.704 177.161 182.053Z" fill="#E0E0E0"/>
<path d="M235.449 77.8337C235.449 77.8337 237.846 74.2929 236.357 73.1489C234.868 72.0049 233.788 75.6457 235.449 77.8337Z" fill="#263238"/>
<path d="M235.049 78.5495C235.049 78.5495 239.28 78.0229 239.18 76.1708C239.081 74.3187 235.603 75.8803 235.049 78.5495Z" fill="#263238"/>
<path d="M235.912 112.262C235.912 112.262 232.798 120.433 225.625 119.416C218.453 118.399 221.413 112.262 221.413 112.262H235.912Z" fill="#FFA8A7"/>
<path d="M245.427 116.875C245.427 116.875 240.706 119.136 241.432 128.632C242.158 138.129 245.908 157.268 245.908 157.268C245.908 157.268 262.804 164.114 264.42 154.463C264.829 151.966 260.571 128.878 256.93 123.993C255.594 122.091 253.885 120.479 251.908 119.255C249.931 118.032 247.726 117.222 245.427 116.875Z" fill="#2AB6C5"/>
<path opacity="0.2" d="M245.427 116.875C245.427 116.875 240.706 119.136 241.432 128.632C242.158 138.129 245.908 157.268 245.908 157.268C245.908 157.268 262.804 164.114 264.42 154.463C264.829 151.966 260.571 128.878 256.93 123.993C255.594 122.091 253.885 120.479 251.908 119.255C249.931 118.032 247.726 117.222 245.427 116.875Z" fill="black"/>
<path d="M195.083 282.83C194.449 283.791 193.477 284.478 192.359 284.755C191.334 284.918 193.404 282.258 190.934 281.187C188.465 280.115 182.808 278.654 182.3 280.778L181.673 283.429C181.083 285.936 179.886 288.258 178.187 290.193C176.538 292.189 174.661 293.983 172.594 295.541C169.362 297.62 164.051 302.659 170.869 306.953C177.688 311.248 186.059 307.616 187.702 302.741C189.345 297.865 191.079 296.449 191.951 295.641C193.787 294.352 195.096 292.443 195.637 290.266C196.08 288.109 196.383 285.925 196.545 283.729C196.579 283.286 196.492 282.841 196.294 282.443C196.096 282.045 195.794 281.708 195.419 281.468L195.083 282.83Z" fill="#455A64"/>
<path d="M170.833 306.937C177.651 311.223 186.022 307.6 187.665 302.725C189.309 297.849 191.043 296.433 191.914 295.625C193.454 294.512 194.636 292.976 195.319 291.203C195.319 291.33 195.319 291.476 195.319 291.603C195.056 295.824 192.468 296.814 191.597 297.631C190.725 298.448 189.291 299.774 187.647 304.658C186.004 309.543 177.361 312.575 170.551 308.29C167.237 306.211 166.792 303.95 167.573 301.935C167.41 303.578 168.245 305.312 170.833 306.937Z" fill="#263238"/>
<path d="M203.59 242.12L225.308 254.686L252.727 238.852L230.937 226.286C230.651 226.125 230.329 226.041 230.002 226.041C229.674 226.041 229.352 226.125 229.066 226.286L203.563 241.012C203.469 241.072 203.391 241.155 203.338 241.253C203.285 241.352 203.259 241.462 203.262 241.574C203.265 241.686 203.296 241.795 203.354 241.89C203.411 241.986 203.493 242.065 203.59 242.12Z" fill="#2AB6C5"/>
<path opacity="0.7" d="M203.59 242.12L225.308 254.686L252.727 238.852L230.937 226.286C230.651 226.125 230.329 226.041 230.002 226.041C229.674 226.041 229.352 226.125 229.066 226.286L203.563 241.012C203.469 241.072 203.391 241.155 203.338 241.253C203.285 241.352 203.259 241.462 203.262 241.574C203.265 241.686 203.296 241.795 203.354 241.89C203.411 241.986 203.493 242.065 203.59 242.12Z" fill="black"/>
<path d="M205.098 241.667L225.308 253.334L250.829 238.608L230.574 226.914C230.311 226.758 230.012 226.676 229.707 226.676C229.401 226.676 229.102 226.758 228.839 226.914L205.098 240.614C205.005 240.668 204.928 240.744 204.875 240.837C204.822 240.929 204.794 241.034 204.794 241.141C204.794 241.248 204.822 241.352 204.875 241.445C204.928 241.537 205.005 241.614 205.098 241.667Z" fill="white"/>
<path d="M225.307 253.335V251.056L204.789 239.217V241.151L225.307 253.335Z" fill="white"/>
<path d="M225.308 253.333V251.054L250.829 236.328V238.607L225.308 253.333Z" fill="#E0E0E0"/>
<path d="M203.59 238.517L225.308 251.055L252.727 235.231L230.937 222.665C230.651 222.504 230.329 222.42 230.002 222.42C229.674 222.42 229.352 222.504 229.066 222.665L203.59 237.437C203.5 237.495 203.427 237.575 203.375 237.67C203.324 237.764 203.297 237.87 203.297 237.977C203.297 238.084 203.324 238.19 203.375 238.284C203.427 238.379 203.5 238.459 203.59 238.517Z" fill="#2AB6C5"/>
<path opacity="0.5" d="M203.59 238.517L225.308 251.055L252.727 235.231L230.937 222.665C230.651 222.504 230.329 222.42 230.002 222.42C229.674 222.42 229.352 222.504 229.066 222.665L203.59 237.437C203.5 237.495 203.427 237.575 203.375 237.67C203.324 237.764 203.297 237.87 203.297 237.977C203.297 238.084 203.324 238.19 203.375 238.284C203.427 238.379 203.5 238.459 203.59 238.517Z" fill="black"/>
<path d="M228.149 253.026C228.211 253.057 228.28 253.073 228.349 253.073C228.418 253.073 228.487 253.057 228.549 253.026C228.628 252.983 228.694 252.92 228.74 252.844C228.786 252.767 228.811 252.679 228.812 252.59V250.511C228.808 250.046 228.684 249.59 228.454 249.186C228.223 248.783 227.894 248.445 227.496 248.205L227.414 248.15C227.376 248.13 227.334 248.119 227.291 248.12C227.248 248.121 227.206 248.133 227.17 248.155C227.133 248.177 227.103 248.208 227.082 248.246C227.061 248.283 227.05 248.325 227.051 248.368C227.051 248.481 227.006 248.59 226.926 248.67C226.846 248.75 226.737 248.795 226.624 248.795C226.511 248.795 226.402 248.75 226.322 248.67C226.242 248.59 226.197 248.481 226.197 248.368C226.196 248.174 226.246 247.983 226.343 247.815C226.441 247.648 226.582 247.509 226.751 247.415C226.917 247.315 227.107 247.262 227.3 247.262C227.494 247.262 227.684 247.315 227.85 247.415L227.931 247.46C228.459 247.773 228.897 248.218 229.201 248.752C229.505 249.285 229.665 249.888 229.666 250.502V252.563C229.666 252.806 229.6 253.045 229.475 253.255C229.35 253.464 229.172 253.636 228.957 253.752C228.762 253.856 228.543 253.909 228.322 253.906C228.054 253.908 227.791 253.829 227.568 253.679C227.486 253.624 227.428 253.54 227.405 253.443L228.149 253.026Z" fill="white"/>
<path d="M232.208 250.682C232.27 250.713 232.338 250.729 232.407 250.729C232.477 250.729 232.545 250.713 232.607 250.682C232.686 250.639 232.752 250.576 232.799 250.5C232.845 250.423 232.87 250.335 232.87 250.246V248.185C232.868 247.719 232.745 247.261 232.514 246.855C232.284 246.45 231.953 246.111 231.554 245.87H231.472C231.435 245.849 231.393 245.838 231.35 245.838C231.307 245.838 231.265 245.849 231.227 245.87C231.191 245.891 231.161 245.922 231.141 245.959C231.12 245.995 231.109 246.037 231.109 246.079C231.109 246.192 231.064 246.3 230.984 246.38C230.904 246.46 230.796 246.505 230.682 246.505C230.569 246.505 230.461 246.46 230.381 246.38C230.301 246.3 230.256 246.192 230.256 246.079C230.262 245.892 230.316 245.711 230.413 245.552C230.51 245.393 230.647 245.261 230.809 245.171C230.975 245.07 231.165 245.018 231.359 245.018C231.552 245.018 231.742 245.07 231.908 245.171L231.99 245.216C232.518 245.529 232.955 245.974 233.259 246.507C233.563 247.041 233.723 247.644 233.724 248.258V250.318C233.724 250.562 233.658 250.801 233.533 251.011C233.409 251.22 233.23 251.392 233.016 251.508C232.82 251.612 232.602 251.665 232.38 251.662C232.112 251.664 231.849 251.585 231.627 251.435C231.545 251.38 231.487 251.295 231.463 251.199L232.208 250.682Z" fill="white"/>
<path d="M236.266 248.331C236.329 248.36 236.397 248.375 236.466 248.375C236.535 248.375 236.603 248.36 236.665 248.331C236.744 248.288 236.811 248.225 236.857 248.149C236.903 248.072 236.928 247.984 236.929 247.895V245.834C236.926 245.367 236.803 244.91 236.573 244.504C236.342 244.099 236.012 243.76 235.612 243.519L235.531 243.473C235.493 243.453 235.451 243.442 235.408 243.442C235.365 243.442 235.323 243.453 235.285 243.473C235.25 243.495 235.22 243.526 235.199 243.562C235.179 243.599 235.168 243.64 235.167 243.682C235.167 243.795 235.122 243.904 235.042 243.984C234.962 244.064 234.854 244.109 234.741 244.109C234.628 244.109 234.519 244.064 234.439 243.984C234.359 243.904 234.314 243.795 234.314 243.682C234.32 243.496 234.374 243.314 234.471 243.155C234.569 242.996 234.705 242.865 234.868 242.774C235.034 242.674 235.223 242.621 235.417 242.621C235.611 242.621 235.801 242.674 235.966 242.774L236.048 242.82C236.576 243.133 237.013 243.578 237.317 244.111C237.621 244.644 237.782 245.247 237.782 245.861V247.922C237.782 248.166 237.716 248.405 237.592 248.614C237.467 248.823 237.288 248.995 237.074 249.111C236.879 249.215 236.66 249.269 236.439 249.266C236.17 249.268 235.908 249.188 235.685 249.039C235.603 248.983 235.545 248.899 235.522 248.803L236.266 248.331Z" fill="white"/>
<path d="M240.324 245.999C240.387 246.028 240.455 246.043 240.524 246.043C240.593 246.043 240.661 246.028 240.724 245.999C240.803 245.956 240.869 245.893 240.915 245.817C240.962 245.74 240.986 245.652 240.987 245.563V243.502C240.984 243.035 240.862 242.578 240.631 242.172C240.401 241.767 240.07 241.428 239.671 241.187L239.589 241.141C239.551 241.121 239.509 241.11 239.466 241.11C239.424 241.11 239.381 241.121 239.344 241.141C239.308 241.163 239.278 241.194 239.258 241.23C239.237 241.267 239.226 241.308 239.226 241.35C239.226 241.463 239.181 241.572 239.101 241.652C239.021 241.732 238.912 241.777 238.799 241.777C238.686 241.777 238.577 241.732 238.497 241.652C238.417 241.572 238.372 241.463 238.372 241.35C238.379 241.164 238.433 240.982 238.53 240.823C238.627 240.664 238.763 240.533 238.926 240.442C239.092 240.342 239.282 240.289 239.475 240.289C239.669 240.289 239.859 240.342 240.025 240.442L240.106 240.487C240.634 240.801 241.072 241.246 241.376 241.779C241.68 242.312 241.84 242.915 241.841 243.529V245.59C241.841 245.834 241.775 246.073 241.65 246.282C241.525 246.491 241.347 246.663 241.132 246.779C240.937 246.883 240.718 246.936 240.497 246.934C240.229 246.935 239.966 246.856 239.743 246.707C239.661 246.651 239.603 246.567 239.58 246.471L240.324 245.999Z" fill="white"/>
<path d="M244.383 243.654C244.445 243.683 244.514 243.699 244.583 243.699C244.652 243.699 244.72 243.683 244.782 243.654C244.861 243.612 244.927 243.549 244.974 243.472C245.02 243.396 245.045 243.308 245.046 243.218V241.158C245.043 240.691 244.92 240.233 244.69 239.828C244.459 239.423 244.129 239.083 243.729 238.842H243.648C243.61 238.822 243.568 238.811 243.525 238.811C243.482 238.811 243.44 238.822 243.402 238.842C243.366 238.864 243.337 238.895 243.316 238.931C243.295 238.968 243.285 239.009 243.284 239.051C243.284 239.164 243.239 239.273 243.159 239.353C243.079 239.433 242.971 239.478 242.858 239.478C242.744 239.478 242.636 239.433 242.556 239.353C242.476 239.273 242.431 239.164 242.431 239.051C242.437 238.865 242.491 238.683 242.588 238.524C242.685 238.365 242.822 238.234 242.985 238.143C243.151 238.043 243.34 237.99 243.534 237.99C243.728 237.99 243.918 238.043 244.083 238.143L244.165 238.189C244.693 238.502 245.13 238.947 245.434 239.48C245.738 240.013 245.899 240.616 245.899 241.23V243.291C245.899 243.535 245.833 243.774 245.709 243.983C245.584 244.193 245.405 244.364 245.191 244.48C244.994 244.581 244.776 244.633 244.555 244.635C244.287 244.637 244.025 244.558 243.802 244.408C243.72 244.352 243.662 244.268 243.638 244.172L244.383 243.654Z" fill="white"/>
<path d="M248.441 241.312C248.504 241.342 248.572 241.357 248.641 241.357C248.71 241.357 248.778 241.342 248.841 241.312C248.919 241.27 248.986 241.207 249.032 241.131C249.078 241.054 249.103 240.966 249.104 240.877V238.797C249.101 238.331 248.978 237.873 248.748 237.468C248.517 237.063 248.187 236.723 247.787 236.482L247.706 236.437C247.668 236.416 247.626 236.405 247.583 236.405C247.54 236.405 247.498 236.416 247.461 236.437C247.423 236.457 247.393 236.487 247.372 236.524C247.351 236.561 247.341 236.603 247.342 236.646C247.342 236.759 247.298 236.867 247.218 236.947C247.137 237.027 247.029 237.072 246.916 237.072C246.803 237.072 246.694 237.027 246.614 236.947C246.534 236.867 246.489 236.759 246.489 236.646C246.499 236.457 246.556 236.274 246.656 236.114C246.757 235.953 246.896 235.822 247.062 235.731C247.228 235.64 247.414 235.593 247.603 235.594C247.792 235.595 247.977 235.645 248.141 235.738L248.223 235.792C248.751 236.105 249.188 236.55 249.492 237.084C249.796 237.617 249.957 238.22 249.957 238.834V240.895C249.957 241.138 249.891 241.377 249.767 241.587C249.642 241.796 249.463 241.968 249.249 242.084C249.052 242.184 248.835 242.237 248.614 242.238C248.345 242.24 248.083 242.161 247.86 242.011C247.778 241.956 247.72 241.872 247.697 241.775L248.441 241.312Z" fill="white"/>
<path d="M200.794 232.848L224.272 246.403L254.833 228.762L231.345 215.207L200.794 232.848Z" fill="#E6E6E6"/>
<path d="M199.441 232.405L223.973 243.954L252.953 223.807L228.413 212.268L199.441 232.405Z" fill="#FAFAFA"/>
<path d="M254.215 196.352H274.144L272.328 217.442C272.21 218.111 271.932 218.741 271.518 219.278C271.104 219.816 270.566 220.245 269.949 220.529C268.155 221.442 266.17 221.918 264.157 221.918C262.144 221.918 260.159 221.442 258.365 220.529C257.75 220.243 257.213 219.813 256.799 219.276C256.385 218.739 256.106 218.11 255.986 217.442L254.215 196.352Z" fill="#2AB6C5"/>
<path d="M252.944 195.2V193.53H253.335C253.979 192.287 254.99 191.273 256.231 190.624C260.616 188.091 267.734 188.091 272.12 190.624C273.362 191.27 274.374 192.285 275.016 193.53H275.415V195.218C275.415 196.871 274.317 198.532 272.12 199.803C267.734 202.336 260.616 202.336 256.231 199.803C254.034 198.532 252.935 196.862 252.944 195.2Z" fill="#E0E0E0"/>
<path d="M256.231 198.214C260.616 200.747 267.734 200.747 272.12 198.214C276.505 195.681 276.514 191.577 272.12 189.044C267.725 186.511 260.616 186.502 256.231 189.044C251.846 191.586 251.846 195.672 256.231 198.214Z" fill="#EBEBEB"/>
<path d="M255.169 192.949V191.614H255.487C256.004 190.618 256.815 189.807 257.811 189.29C259.781 188.29 261.958 187.77 264.166 187.77C266.375 187.77 268.552 188.29 270.522 189.29C271.52 189.803 272.333 190.615 272.846 191.614H273.164V192.949C273.164 194.283 272.256 195.618 270.522 196.626C268.552 197.625 266.375 198.146 264.166 198.146C261.958 198.146 259.781 197.625 257.811 196.626C256.05 195.6 255.169 194.265 255.169 192.949Z" fill="#E0E0E0"/>
<path d="M257.811 195.344C259.781 196.343 261.958 196.864 264.166 196.864C266.375 196.864 268.552 196.343 270.522 195.344C274.044 193.319 274.044 190.023 270.522 187.999C268.552 186.999 266.375 186.479 264.166 186.479C261.958 186.479 259.781 186.999 257.811 187.999C254.297 190.023 254.297 193.319 257.811 195.344Z" fill="#F5F5F5"/>
<path d="M259.282 194.273C260.8 195.042 262.478 195.443 264.18 195.443C265.882 195.443 267.56 195.042 269.078 194.273C271.702 192.766 271.802 190.351 269.351 188.825C269.264 188.761 269.173 188.704 269.078 188.653C268.484 188.314 267.849 188.052 267.19 187.872C264.549 187.127 261.725 187.406 259.282 188.653C256.567 190.223 256.567 192.711 259.282 194.273Z" fill="#F0F0F0"/>
<path d="M269.078 189.427C267.559 188.653 265.879 188.249 264.175 188.249C262.471 188.249 260.791 188.653 259.272 189.427C258.781 189.656 258.347 189.994 258.003 190.413C257.659 190.833 257.413 191.324 257.284 191.851C257.075 190.698 257.747 189.499 259.272 188.619C260.793 187.852 262.472 187.453 264.175 187.453C265.878 187.453 267.557 187.852 269.078 188.619C270.612 189.526 271.275 190.698 271.075 191.851C270.945 191.323 270.698 190.831 270.352 190.412C270.006 189.992 269.571 189.655 269.078 189.427Z" fill="#E0E0E0"/>
<path d="M265.373 189.688L267.38 190.968L269.341 189.561V188.789C269.254 188.725 269.163 188.668 269.069 188.617C268.474 188.278 267.84 188.016 267.18 187.836V188.408L265.373 189.688Z" fill="#E0E0E0"/>
<path d="M28.7264 65.8374L141.743 0.540327C142.219 0.189354 142.795 0 143.387 0C143.978 0 144.554 0.189354 145.03 0.540327L148.943 3.26406L146.274 6.56886V97.6779C146.274 101.019 144.24 104.941 141.734 106.339L29.834 170.946L29.6252 174.496L25.5033 171.673C25.0302 171.228 24.665 170.681 24.4352 170.074C24.2055 169.466 24.1175 168.815 24.1777 168.168V74.4535C24.1868 71.1123 26.2205 67.2356 28.7264 65.8374Z" fill="#2AB6C5"/>
<path opacity="0.3" d="M28.7264 65.8374L141.743 0.540327C142.219 0.189354 142.795 0 143.387 0C143.978 0 144.554 0.189354 145.03 0.540327L148.943 3.26406L146.274 6.56886V97.6779C146.274 101.019 144.24 104.941 141.734 106.339L29.834 170.946L29.6252 174.496L25.5033 171.673C25.0302 171.228 24.665 170.681 24.4352 170.074C24.2055 169.466 24.1175 168.815 24.1777 168.168V74.4535C24.1868 71.1123 26.2205 67.2356 28.7264 65.8374Z" fill="black"/>
<path d="M32.576 174.244L145.593 108.992C148.09 107.549 150.132 103.672 150.132 100.331V6.61621C150.132 3.28417 148.099 1.7498 145.593 3.19338L32.576 68.445C30.0702 69.8886 28.0364 73.7654 28.0364 77.1065V170.812C28.0364 174.153 30.0702 175.697 32.576 174.244Z" fill="#2AB6C5"/>
<path d="M32.576 174.244L145.593 108.992C148.09 107.549 150.132 103.672 150.132 100.331V6.61621C150.132 3.28417 148.099 1.7498 145.593 3.19338L32.576 68.445C30.0702 69.8886 28.0364 73.7654 28.0364 77.1065V170.812C28.0364 174.153 30.0702 175.697 32.576 174.244Z" fill="#2AB6C5"/>
<path d="M32.576 68.445L145.593 3.19338C148.09 1.7498 150.132 3.28417 150.132 6.61621V11.1558L28.0455 81.637V77.0974C28.0364 73.7654 30.0701 69.8886 32.576 68.445Z" fill="#455A64"/>
<path d="M147.39 3.55635C146.914 3.57875 146.452 3.72252 146.047 3.97399L33.0298 69.2256C30.8145 70.5058 28.9442 74.1102 28.9442 77.1063V170.812C28.9442 172.628 29.6615 173.881 30.7601 173.881C31.2403 173.858 31.7064 173.711 32.1128 173.454L145.139 108.202C147.345 106.931 149.215 103.318 149.215 100.331V6.61601C149.215 4.75479 148.498 3.55635 147.4 3.55635M147.4 2.64844C149.007 2.64844 150.123 4.12833 150.123 6.61601V100.34C150.123 103.681 148.09 107.558 145.584 109.001L32.5759 174.244C32.0295 174.583 31.4029 174.771 30.7601 174.789C29.1531 174.789 28.0363 173.3 28.0363 170.812V77.1063C28.0363 73.7652 30.0701 69.843 32.5759 68.4448L145.593 3.19318C146.138 2.8516 146.765 2.66341 147.409 2.64844H147.4Z" fill="#2AB6C5"/>
<path d="M97.7279 52.2181C97.897 52.2213 98.0636 52.1773 98.2091 52.091L141.235 27.2868C141.437 27.1503 141.579 26.9423 141.634 26.7049C141.688 26.4674 141.651 26.2182 141.528 26.0074C141.406 25.7966 141.209 25.6399 140.976 25.569C140.743 25.4981 140.491 25.5182 140.273 25.6253L97.2467 50.4658C97.0525 50.5666 96.8984 50.7306 96.8099 50.9306C96.7214 51.1307 96.7037 51.355 96.7598 51.5665C96.8158 51.778 96.9422 51.9641 97.1182 52.0941C97.2942 52.2241 97.5093 52.2902 97.7279 52.2816V52.2181Z" fill="white"/>
<path d="M37.1974 87.2106C37.3673 87.2111 37.5341 87.164 37.6786 87.0744L69.5463 68.6801C69.7678 68.5525 69.9296 68.3421 69.996 68.0952C70.0624 67.8483 70.028 67.5852 69.9004 67.3636C69.7727 67.1421 69.5623 66.9803 69.3155 66.9139C69.0686 66.8475 68.8054 66.8819 68.5839 67.0096L36.7162 85.4129C36.522 85.5137 36.3679 85.6777 36.2794 85.8778C36.1909 86.0779 36.1732 86.3022 36.2292 86.5136C36.2853 86.7251 36.4117 86.9112 36.5877 87.0412C36.7637 87.1712 36.9787 87.2374 37.1974 87.2288V87.2106Z" fill="white"/>
<path d="M75.9743 64.8218C76.1427 64.8196 76.3079 64.7759 76.4555 64.6947L89.4296 57.2135C89.5482 57.1555 89.6535 57.0736 89.7392 56.9731C89.8248 56.8726 89.8888 56.7555 89.9272 56.6292C89.9656 56.5029 89.9777 56.37 89.9625 56.2388C89.9474 56.1077 89.9054 55.981 89.8393 55.8667C89.7731 55.7525 89.6841 55.6531 89.5778 55.5747C89.4716 55.4963 89.3503 55.4406 89.2216 55.4111C89.0929 55.3816 88.9595 55.3788 88.8297 55.4031C88.7 55.4273 88.5765 55.478 88.4672 55.552L75.5203 63.0242C75.3261 63.125 75.1721 63.2889 75.0836 63.489C74.9951 63.6891 74.9774 63.9134 75.0334 64.1249C75.0895 64.3364 75.2159 64.5224 75.3919 64.6524C75.5679 64.7824 75.7829 64.8486 76.0015 64.84L75.9743 64.8218Z" fill="white"/>
<path d="M97.7279 112.512C97.8964 112.511 98.062 112.467 98.2091 112.385L141.235 87.5446C141.437 87.4081 141.579 87.2001 141.634 86.9627C141.688 86.7252 141.651 86.476 141.528 86.2652C141.406 86.0544 141.209 85.8977 140.976 85.8268C140.743 85.7559 140.491 85.776 140.273 85.8831L97.2467 110.715C97.0263 110.843 96.8662 111.054 96.8015 111.301C96.7368 111.548 96.7729 111.811 96.9017 112.031C96.981 112.18 97.1003 112.304 97.2463 112.389C97.3923 112.474 97.559 112.517 97.7279 112.512Z" fill="white"/>
<path d="M37.1974 147.459C37.3665 147.463 37.5331 147.419 37.6786 147.332L69.5463 128.938C69.7678 128.81 69.9296 128.6 69.996 128.353C70.0624 128.106 70.028 127.843 69.9004 127.621C69.7727 127.4 69.5623 127.238 69.3155 127.172C69.0686 127.105 68.8054 127.14 68.5839 127.267L36.7162 145.671C36.4968 145.798 36.3365 146.007 36.2702 146.252C36.2039 146.496 36.2369 146.758 36.3621 146.978C36.4474 147.124 36.5693 147.245 36.7158 147.33C36.8623 147.414 37.0283 147.459 37.1974 147.459Z" fill="white"/>
<path d="M75.9743 125.071C76.1434 125.074 76.3101 125.03 76.4555 124.943L89.4296 117.471C89.5482 117.413 89.6535 117.331 89.7392 117.231C89.8248 117.13 89.8888 117.013 89.9272 116.887C89.9656 116.761 89.9777 116.628 89.9625 116.497C89.9474 116.365 89.9054 116.239 89.8393 116.125C89.7731 116.01 89.6841 115.911 89.5778 115.832C89.4716 115.754 89.3503 115.698 89.2216 115.669C89.0929 115.639 88.9595 115.637 88.8297 115.661C88.7 115.685 88.5765 115.736 88.4672 115.81L75.5203 123.282C75.3009 123.409 75.1407 123.618 75.0744 123.863C75.008 124.108 75.0411 124.369 75.1663 124.589C75.2492 124.731 75.3668 124.85 75.5082 124.934C75.6495 125.018 75.8099 125.065 75.9743 125.071Z" fill="white"/>
<path d="M97.7279 126.668C97.897 126.671 98.0636 126.627 98.209 126.541L141.235 101.709C141.457 101.582 141.618 101.371 141.685 101.125C141.751 100.878 141.717 100.614 141.589 100.393C141.461 100.171 141.251 100.01 141.004 99.9432C140.757 99.8768 140.494 99.9112 140.273 100.039L97.2466 124.852C97.0524 124.953 96.8984 125.117 96.8099 125.317C96.7214 125.517 96.7037 125.741 96.7597 125.953C96.8158 126.164 96.9422 126.35 97.1182 126.48C97.2942 126.61 97.5092 126.677 97.7279 126.668Z" fill="white"/>
<path d="M50.7615 153.797C50.9307 153.801 51.0973 153.757 51.2427 153.67L69.5463 143.102C69.6649 143.044 69.7702 142.962 69.8559 142.862C69.9415 142.761 70.0055 142.644 70.0439 142.518C70.0823 142.392 70.0944 142.259 70.0792 142.127C70.0641 141.996 70.0221 141.87 69.956 141.755C69.8898 141.641 69.8008 141.542 69.6945 141.463C69.5883 141.385 69.467 141.329 69.3383 141.3C69.2096 141.27 69.0762 141.268 68.9464 141.292C68.8167 141.316 68.6932 141.367 68.5839 141.441L50.2804 152.009C50.1708 152.071 50.0747 152.154 49.9975 152.254C49.9203 152.353 49.8637 152.467 49.8307 152.589C49.7978 152.71 49.7893 152.837 49.8057 152.962C49.8221 153.087 49.8631 153.207 49.9263 153.316C50.0116 153.462 50.1335 153.583 50.28 153.668C50.4265 153.752 50.5925 153.797 50.7615 153.797Z" fill="white"/>
<path d="M75.9743 139.242C76.1427 139.24 76.308 139.196 76.4555 139.115L89.4296 131.643C89.6511 131.515 89.8129 131.305 89.8793 131.058C89.9457 130.811 89.9113 130.548 89.7837 130.327C89.6561 130.105 89.4456 129.943 89.1987 129.877C88.9519 129.81 88.6887 129.845 88.4672 129.972L75.5204 137.445C75.3262 137.545 75.1721 137.709 75.0836 137.909C74.9951 138.109 74.9774 138.334 75.0334 138.545C75.0895 138.757 75.2159 138.943 75.3919 139.073C75.5679 139.203 75.7829 139.269 76.0015 139.26L75.9743 139.242Z" fill="white"/>
<path d="M119.182 47.3618C119.352 47.3624 119.518 47.3152 119.663 47.2257L141.235 34.7782C141.401 34.6297 141.511 34.428 141.545 34.2075C141.579 33.9871 141.536 33.7616 141.422 33.5697C141.309 33.3777 141.132 33.2312 140.922 33.1552C140.712 33.0792 140.483 33.0784 140.273 33.153L118.701 45.6005C118.48 45.7293 118.32 45.9404 118.255 46.1873C118.191 46.4342 118.227 46.6966 118.356 46.917C118.44 47.0593 118.561 47.176 118.707 47.2544C118.852 47.3328 119.017 47.37 119.182 47.3618Z" fill="white"/>
<path d="M57.0534 83.2342C57.2218 83.232 57.3871 83.1884 57.5346 83.1071L89.4296 64.7038C89.5482 64.6457 89.6535 64.5639 89.7392 64.4634C89.8248 64.3628 89.8888 64.2458 89.9272 64.1194C89.9656 63.9931 89.9777 63.8602 89.9625 63.7291C89.9474 63.5979 89.9054 63.4712 89.8393 63.357C89.7731 63.2427 89.6841 63.1433 89.5778 63.0649C89.4716 62.9865 89.3503 62.9308 89.2216 62.9013C89.0929 62.8718 88.9595 62.8691 88.8297 62.8933C88.7 62.9176 88.5765 62.9683 88.4672 63.0423L56.5994 81.4366C56.4053 81.5374 56.2512 81.7013 56.1627 81.9014C56.0742 82.1015 56.0565 82.3258 56.1125 82.5373C56.1686 82.7488 56.295 82.9349 56.471 83.0649C56.647 83.1949 56.862 83.261 57.0806 83.2524L57.0534 83.2342Z" fill="white"/>
<path d="M97.4282 59.9161C97.5973 59.9193 97.764 59.8753 97.9094 59.7889L110.856 52.3168C111.078 52.1892 111.24 51.9788 111.306 51.7319C111.372 51.485 111.338 51.2219 111.21 51.0004C111.083 50.7788 110.872 50.6171 110.625 50.5507C110.379 50.4843 110.115 50.5186 109.894 50.6463L96.947 58.1184C96.7267 58.2472 96.5666 58.4583 96.5019 58.7052C96.4372 58.9521 96.4732 59.2145 96.602 59.4349C96.6813 59.584 96.8007 59.708 96.9466 59.793C97.0926 59.878 97.2593 59.9206 97.4282 59.9161Z" fill="white"/>
<path d="M97.7277 67.2353C97.8977 67.2358 98.0644 67.1886 98.2089 67.0991L141.235 42.2314C141.408 42.0846 141.523 41.8816 141.561 41.658C141.599 41.4344 141.557 41.2046 141.441 41.0092C141.326 40.8138 141.146 40.6653 140.932 40.5899C140.718 40.5145 140.485 40.5171 140.272 40.5971L97.2465 65.4376C97.0262 65.5664 96.8661 65.7775 96.8014 66.0244C96.7367 66.2713 96.7727 66.5337 96.9015 66.7541C96.9809 66.9032 97.1002 67.0272 97.2461 67.1122C97.3921 67.1972 97.5589 67.2398 97.7277 67.2353Z" fill="white"/>
<path d="M60.5761 88.6809C60.7452 88.6841 60.9118 88.6401 61.0573 88.5537L69.5463 83.651C69.6649 83.593 69.7702 83.5111 69.8559 83.4106C69.9415 83.3101 70.0055 83.193 70.0439 83.0667C70.0823 82.9404 70.0944 82.8075 70.0792 82.6763C70.0641 82.5452 70.0221 82.4185 69.956 82.3042C69.8898 82.19 69.8008 82.0906 69.6945 82.0122C69.5883 81.9338 69.467 81.8781 69.3383 81.8486C69.2096 81.8191 69.0762 81.8163 68.9464 81.8406C68.8167 81.8648 68.6932 81.9155 68.5839 81.9895L60.0949 86.8923C59.8755 87.0195 59.7152 87.2283 59.6489 87.4731C59.5826 87.7179 59.6156 87.9791 59.7408 88.1997C59.8261 88.3456 59.9481 88.4668 60.0946 88.5512C60.241 88.6356 60.407 88.6803 60.5761 88.6809Z" fill="white"/>
<path d="M114.942 64.7861C115.11 64.7839 115.276 64.7402 115.423 64.659L123.93 59.7563C124.04 59.6931 124.136 59.6089 124.213 59.5086C124.29 59.4082 124.347 59.2936 124.38 59.1714C124.413 59.0491 124.421 58.9216 124.405 58.7961C124.388 58.6706 124.347 58.5495 124.284 58.4398C124.221 58.3301 124.137 58.2339 124.037 58.1568C123.936 58.0796 123.822 58.023 123.699 57.9901C123.577 57.9572 123.45 57.9488 123.324 57.9652C123.199 57.9816 123.077 58.0225 122.968 58.0857L114.479 62.9884C114.285 63.0892 114.131 63.2532 114.042 63.4533C113.954 63.6534 113.936 63.8777 113.992 64.0892C114.048 64.3006 114.174 64.4867 114.35 64.6167C114.526 64.7467 114.741 64.8129 114.96 64.8043L114.942 64.7861Z" fill="white"/>
<path d="M75.9743 79.793C76.1427 79.7908 76.308 79.7471 76.4555 79.6659L89.4296 72.1938C89.5393 72.1306 89.6354 72.0464 89.7126 71.9461C89.7898 71.8457 89.8464 71.7311 89.8793 71.6089C89.9121 71.4866 89.9206 71.3591 89.9042 71.2336C89.8878 71.1081 89.8469 70.987 89.7837 70.8773C89.7205 70.7676 89.6363 70.6714 89.5359 70.5943C89.4356 70.5171 89.321 70.4605 89.1987 70.4276C89.0765 70.3947 88.949 70.3863 88.8234 70.4027C88.6979 70.4191 88.5769 70.46 88.4672 70.5232L75.5204 77.9953C75.3262 78.0961 75.1721 78.2601 75.0836 78.4602C74.9951 78.6603 74.9774 78.8845 75.0334 79.096C75.0895 79.3075 75.2159 79.4936 75.3919 79.6236C75.5679 79.7536 75.7829 79.8198 76.0015 79.8112L75.9743 79.793Z" fill="white"/>
<path d="M126.963 57.8392C127.132 57.8425 127.298 57.7984 127.444 57.7121L141.235 49.7497C141.437 49.6132 141.579 49.4052 141.634 49.1678C141.688 48.9303 141.651 48.6811 141.528 48.4702C141.406 48.2594 141.209 48.1028 140.976 48.0319C140.743 47.961 140.491 47.9811 140.273 48.0882L126.481 56.0506C126.277 56.1444 126.113 56.3072 126.017 56.5103C125.922 56.7135 125.901 56.9439 125.958 57.1609C126.016 57.378 126.148 57.5678 126.332 57.6968C126.516 57.8259 126.739 57.886 126.963 57.8664V57.8392Z" fill="white"/>
<path d="M97.4283 74.9181C97.5974 74.9214 97.764 74.8774 97.9095 74.791L110.856 67.2916C110.975 67.2336 111.08 67.1518 111.166 67.0512C111.252 66.9507 111.316 66.8337 111.354 66.7073C111.392 66.581 111.404 66.4481 111.389 66.3169C111.374 66.1858 111.332 66.0591 111.266 65.9449C111.2 65.8306 111.111 65.7312 111.005 65.6528C110.898 65.5744 110.777 65.5187 110.648 65.4892C110.52 65.4597 110.386 65.457 110.257 65.4812C110.127 65.5055 110.003 65.5562 109.894 65.6302L96.9471 73.1023C96.7529 73.2031 96.5989 73.367 96.5103 73.5671C96.4218 73.7672 96.4041 73.9915 96.4602 74.203C96.5162 74.4145 96.6427 74.6006 96.8186 74.7306C96.9946 74.8606 97.2097 74.9267 97.4283 74.9181Z" fill="white"/>
<path d="M97.7279 82.7524C97.897 82.7557 98.0636 82.7117 98.2091 82.6253L141.235 57.7848C141.437 57.6483 141.579 57.4404 141.634 57.2029C141.688 56.9655 141.651 56.7162 141.528 56.5054C141.406 56.2946 141.209 56.138 140.976 56.0671C140.743 55.9962 140.491 56.0163 140.273 56.1234L97.2467 80.9548C97.0263 81.0836 96.8662 81.2947 96.8015 81.5416C96.7368 81.7884 96.7729 82.0509 96.9017 82.2712C96.981 82.4204 97.1003 82.5444 97.2463 82.6294C97.3923 82.7144 97.559 82.757 97.7279 82.7524Z" fill="white"/>
<path d="M37.1974 117.697C37.3647 117.706 37.5313 117.668 37.6786 117.588L69.5463 99.1938C69.7678 99.0662 69.9296 98.8558 69.996 98.6089C70.0624 98.362 70.028 98.0988 69.9004 97.8773C69.7727 97.6558 69.5623 97.494 69.3155 97.4276C69.0686 97.3612 68.8054 97.3956 68.5839 97.5232L36.7162 115.927C36.4968 116.054 36.3365 116.263 36.2702 116.507C36.2039 116.752 36.2369 117.013 36.3621 117.234C36.4496 117.377 36.5725 117.494 36.7189 117.575C36.8652 117.656 37.03 117.698 37.1974 117.697Z" fill="white"/>
<path d="M75.9743 95.3088C76.1434 95.3121 76.3101 95.2681 76.4555 95.1817L89.4296 87.7096C89.5482 87.6516 89.6535 87.5697 89.7392 87.4692C89.8248 87.3687 89.8888 87.2516 89.9272 87.1253C89.9656 86.999 89.9777 86.8661 89.9625 86.7349C89.9474 86.6037 89.9054 86.4771 89.8393 86.3628C89.7731 86.2486 89.6841 86.1492 89.5778 86.0708C89.4716 85.9924 89.3503 85.9367 89.2216 85.9072C89.0929 85.8776 88.9595 85.8749 88.8297 85.8992C88.7 85.9234 88.5765 85.9741 88.4672 86.0481L75.5203 93.5203C75.3003 93.6493 75.1399 93.8596 75.0736 94.1059C75.0074 94.3523 75.0406 94.6147 75.1663 94.8367C75.2515 94.976 75.37 95.092 75.5109 95.1743C75.6519 95.2567 75.8111 95.3029 75.9743 95.3088Z" fill="white"/>
<path d="M119.182 77.8504C119.351 77.8537 119.518 77.8097 119.663 77.7233L141.235 65.2758C141.457 65.1482 141.618 64.9378 141.685 64.6909C141.751 64.444 141.717 64.1809 141.589 63.9593C141.461 63.7378 141.251 63.5761 141.004 63.5096C140.757 63.4432 140.494 63.4776 140.273 63.6053L118.701 76.0618C118.506 76.1626 118.352 76.3266 118.264 76.5267C118.175 76.7267 118.158 76.951 118.214 77.1625C118.27 77.374 118.396 77.5601 118.572 77.6901C118.748 77.8201 118.963 77.8862 119.182 77.8776V77.8504Z" fill="white"/>
<path d="M57.0534 113.728C57.2234 113.729 57.3901 113.682 57.5346 113.592L89.4296 95.1977C89.6511 95.0701 89.8129 94.8597 89.8793 94.6128C89.9457 94.3659 89.9113 94.1027 89.7837 93.8812C89.6561 93.6597 89.4456 93.4979 89.1987 93.4315C88.9519 93.3651 88.6887 93.3995 88.4672 93.5271L56.5995 111.931C56.4053 112.031 56.2512 112.195 56.1627 112.395C56.0742 112.595 56.0565 112.82 56.1125 113.031C56.1686 113.243 56.295 113.429 56.471 113.559C56.647 113.689 56.862 113.755 57.0807 113.746L57.0534 113.728Z" fill="white"/>
<path d="M97.4283 90.4156C97.5967 90.4133 97.7619 90.3697 97.9095 90.2885L110.856 82.8073C110.975 82.7492 111.08 82.6674 111.166 82.5669C111.252 82.4663 111.316 82.3493 111.354 82.223C111.392 82.0966 111.404 81.9637 111.389 81.8326C111.374 81.7014 111.332 81.5747 111.266 81.4605C111.2 81.3462 111.111 81.2468 111.005 81.1684C110.898 81.09 110.777 81.0343 110.648 81.0048C110.52 80.9753 110.386 80.9726 110.257 80.9968C110.127 81.0211 110.003 81.0718 109.894 81.1458L96.9471 88.6179C96.7268 88.7467 96.5667 88.9578 96.502 89.2047C96.4373 89.4516 96.4733 89.714 96.6021 89.9344C96.6814 90.0835 96.8007 90.2075 96.9467 90.2925C97.0927 90.3776 97.2594 90.4202 97.4283 90.4156Z" fill="white"/>
<path d="M97.7279 97.7251C97.897 97.7284 98.0636 97.6843 98.2091 97.598L141.235 72.7575C141.437 72.621 141.579 72.413 141.634 72.1756C141.688 71.9381 141.651 71.6889 141.528 71.4781C141.406 71.2673 141.209 71.1106 140.976 71.0397C140.743 70.9688 140.491 70.9889 140.273 71.096L97.2467 95.9365C97.0525 96.0373 96.8984 96.2013 96.8099 96.4013C96.7214 96.6014 96.7037 96.8257 96.7598 97.0372C96.8158 97.2487 96.9422 97.4348 97.1182 97.5648C97.2942 97.6948 97.5093 97.7609 97.7279 97.7523V97.7251Z" fill="white"/>
<path d="M60.5761 119.179C60.7445 119.177 60.9097 119.133 61.0573 119.052L69.5463 114.149C69.6649 114.091 69.7702 114.009 69.8559 113.909C69.9415 113.808 70.0055 113.691 70.0439 113.565C70.0823 113.438 70.0944 113.306 70.0792 113.174C70.0641 113.043 70.0221 112.917 69.956 112.802C69.8898 112.688 69.8008 112.589 69.6945 112.51C69.5883 112.432 69.467 112.376 69.3383 112.347C69.2096 112.317 69.0762 112.314 68.9464 112.339C68.8167 112.363 68.6932 112.414 68.5839 112.488L60.0949 117.381C59.9007 117.482 59.7466 117.646 59.6581 117.846C59.5696 118.046 59.5519 118.27 59.608 118.482C59.664 118.693 59.7904 118.88 59.9664 119.01C60.1424 119.14 60.3575 119.206 60.5761 119.197V119.179Z" fill="white"/>
<path d="M114.942 95.2822C115.112 95.2827 115.279 95.2356 115.423 95.146L123.93 90.2524C124.152 90.1248 124.313 89.9144 124.38 89.6675C124.446 89.4206 124.412 89.1574 124.284 88.9359C124.157 88.7144 123.946 88.5526 123.699 88.4862C123.452 88.4198 123.189 88.4542 122.968 88.5818L114.479 93.4845C114.285 93.5853 114.131 93.7493 114.042 93.9494C113.954 94.1495 113.936 94.3738 113.992 94.5852C114.048 94.7967 114.174 94.9828 114.35 95.1128C114.526 95.2428 114.741 95.309 114.96 95.3004L114.942 95.2822Z" fill="white"/>
<path d="M75.9743 110.323C76.1427 110.321 76.308 110.278 76.4555 110.196L89.4296 102.688C89.6511 102.56 89.8129 102.35 89.8793 102.103C89.9457 101.856 89.9113 101.593 89.7837 101.371C89.6561 101.15 89.4456 100.988 89.1987 100.922C88.9519 100.855 88.6887 100.89 88.4672 101.017L75.4931 108.508C75.2989 108.608 75.1449 108.772 75.0564 108.972C74.9678 109.173 74.9501 109.397 75.0062 109.608C75.0622 109.82 75.1887 110.006 75.3647 110.136C75.5407 110.266 75.7557 110.332 75.9743 110.323Z" fill="white"/>
<path d="M126.963 88.3361C127.132 88.3393 127.298 88.2953 127.444 88.209L141.235 80.2466C141.46 80.1189 141.625 79.9071 141.694 79.6577C141.763 79.4082 141.73 79.1416 141.603 78.9165C141.475 78.6913 141.263 78.5261 141.014 78.4572C140.764 78.3882 140.498 78.4211 140.273 78.5488L126.481 86.5021C126.287 86.6029 126.133 86.7668 126.045 86.9669C125.956 87.167 125.938 87.3913 125.995 87.6028C126.051 87.8143 126.177 88.0004 126.353 88.1304C126.529 88.2604 126.744 88.3265 126.963 88.3179V88.3361Z" fill="white"/>
<path d="M97.4282 105.387C97.5973 105.39 97.764 105.346 97.9094 105.26L110.856 97.7875C111.078 97.6599 111.24 97.4495 111.306 97.2026C111.372 96.9558 111.338 96.6926 111.21 96.4711C111.083 96.2495 110.872 96.0878 110.625 96.0214C110.379 95.955 110.115 95.9894 109.894 96.117L96.947 103.598C96.7528 103.699 96.5988 103.863 96.5102 104.063C96.4217 104.263 96.404 104.487 96.4601 104.699C96.5161 104.91 96.6426 105.096 96.8185 105.226C96.9945 105.356 97.2096 105.423 97.4282 105.414V105.387Z" fill="white"/>
<path d="M114.942 109.626C115.111 109.629 115.278 109.585 115.423 109.499L123.912 104.596C124.031 104.538 124.136 104.456 124.222 104.356C124.307 104.255 124.371 104.138 124.41 104.012C124.448 103.886 124.46 103.753 124.445 103.622C124.43 103.49 124.388 103.364 124.322 103.25C124.256 103.135 124.166 103.036 124.06 102.957C123.954 102.879 123.833 102.823 123.704 102.794C123.575 102.764 123.442 102.762 123.312 102.786C123.182 102.81 123.059 102.861 122.95 102.935L114.461 107.838C114.257 107.931 114.092 108.094 113.997 108.297C113.901 108.5 113.88 108.731 113.937 108.948C113.995 109.165 114.127 109.355 114.311 109.484C114.495 109.613 114.718 109.673 114.942 109.653V109.626Z" fill="white"/>
<path d="M126.963 102.69C127.131 102.687 127.296 102.644 127.444 102.562L141.235 94.6C141.457 94.4724 141.618 94.262 141.685 94.0151C141.751 93.7682 141.717 93.5051 141.589 93.2836C141.461 93.062 141.251 92.9003 141.004 92.8339C140.757 92.7675 140.494 92.8019 140.273 92.9295L126.481 100.892C126.287 100.993 126.133 101.157 126.045 101.357C125.956 101.557 125.938 101.781 125.994 101.993C126.051 102.204 126.177 102.39 126.353 102.52C126.529 102.65 126.744 102.716 126.963 102.708V102.69Z" fill="white"/>
<path d="M97.4282 119.74C97.5966 119.738 97.7618 119.694 97.9094 119.613L110.856 112.141C111.078 112.013 111.24 111.803 111.306 111.556C111.372 111.309 111.338 111.046 111.21 110.825C111.083 110.603 110.872 110.441 110.625 110.375C110.379 110.308 110.115 110.343 109.894 110.47L96.947 117.943C96.7267 118.071 96.5666 118.283 96.5019 118.529C96.4372 118.776 96.4732 119.039 96.602 119.259C96.6813 119.408 96.8007 119.532 96.9466 119.617C97.0926 119.702 97.2593 119.745 97.4282 119.74Z" fill="white"/>
<path d="M132.238 36.6317V71.4411C132.238 72.004 132.437 72.349 132.755 72.5033L134.09 73.2387V72.0494L134.28 36.2595L132.537 35.3516C132.342 35.7503 132.24 36.1879 132.238 36.6317Z" fill="#263238"/>
<path d="M132.537 35.3764L134.28 36.2843L176.489 11.5073L177.497 10.9263L176.108 10.1455H176.063C175.933 10.0764 175.787 10.0457 175.64 10.057C175.494 10.0682 175.354 10.121 175.236 10.209L133.472 34.2596C133.058 34.5319 132.732 34.9203 132.537 35.3764Z" fill="#37474F"/>
<path d="M133.745 37.383V71.9654C133.726 72.1504 133.752 72.3372 133.822 72.5097C133.892 72.6821 134.002 72.835 134.144 72.955H134.226C134.352 73.006 134.489 73.0244 134.623 73.0085C134.758 72.9926 134.887 72.943 134.998 72.8642L176.489 48.9589C176.871 48.687 177.183 48.3292 177.401 47.9144C177.618 47.4996 177.735 47.0395 177.742 46.5711V12.0432C177.761 11.8626 177.736 11.6801 177.67 11.511C177.603 11.342 177.498 11.1913 177.361 11.0717C177.324 11.0389 177.281 11.0142 177.234 10.9991C177.111 10.955 176.979 10.941 176.849 10.9584C176.72 10.9758 176.596 11.024 176.489 11.099L134.998 34.968C134.595 35.2309 134.28 35.6068 134.09 36.0484C133.874 36.4611 133.756 36.9177 133.745 37.383Z" fill="#455A64"/>
<path d="M143.486 53.4683V51.9999L153.735 40.0892V42.4386L145.873 51.3254L145.936 51.142V51.5091L145.873 51.3989L153.735 51.2492V53.5987L143.486 53.4683ZM163.476 28.9105L158.224 54.4325L156.506 55.4202L161.757 29.8983L163.476 28.9105ZM153.735 78.5782L143.486 90.4889V88.1394L151.347 79.2526L151.284 79.436V79.0689L151.347 79.1792L143.486 79.3288V76.9793L153.735 77.1097V78.5782Z" fill="#FAFAFA"/>
<path d="M177.152 11.0349C177.017 11.0388 176.885 11.0796 176.771 11.1529L135.007 35.2035C134.64 35.4468 134.35 35.7902 134.171 36.1931C133.98 36.5671 133.877 36.9804 133.872 37.4007V72.1918C133.851 72.3357 133.864 72.4825 133.912 72.62C133.959 72.7574 134.039 72.8815 134.144 72.9817H134.217C134.277 72.9964 134.339 72.9964 134.398 72.9817C134.533 72.9712 134.663 72.9309 134.78 72.8637L176.544 48.804C176.89 48.5503 177.174 48.2201 177.372 47.839C177.571 47.458 177.679 47.0364 177.688 46.6069V11.9065C177.703 11.7608 177.685 11.6135 177.637 11.4754C177.588 11.3372 177.509 11.2116 177.406 11.1075H177.325C177.271 11.0948 177.215 11.0948 177.161 11.1075M177.161 10.8715C177.249 10.8711 177.336 10.8897 177.415 10.9259L177.542 10.9986C177.677 11.1214 177.781 11.2741 177.845 11.4445C177.91 11.6148 177.934 11.7979 177.915 11.9791V46.6886C177.906 47.1592 177.789 47.6215 177.571 48.039C177.354 48.4565 177.043 48.8178 176.662 49.0946L134.898 73.1452C134.75 73.2353 134.581 73.2854 134.408 73.2904C134.311 73.2916 134.215 73.2731 134.126 73.236L134.044 73.1906C133.902 73.0691 133.791 72.9147 133.721 72.7407C133.651 72.5666 133.625 72.3783 133.645 72.1918V37.4007C133.656 36.9461 133.768 36.4997 133.972 36.0933C134.167 35.6524 134.481 35.2749 134.88 35.0038L176.644 10.9532C176.794 10.8595 176.966 10.8063 177.143 10.7988L177.161 10.8715Z" fill="#37474F"/>
<path d="M138.947 11.9351C138.947 12.9247 139.646 13.3242 140.5 12.843C140.958 12.5466 141.338 12.1445 141.608 11.6705C141.878 11.1965 142.031 10.6645 142.052 10.1193C142.052 9.12966 141.362 8.73017 140.5 9.21137C140.045 9.51103 139.667 9.91393 139.397 10.3873C139.127 10.8606 138.973 11.3909 138.947 11.9351Z" fill="white"/>
<path d="M133.173 15.4918C133.173 16.4814 133.872 16.89 134.734 16.3997C135.191 16.1017 135.57 15.6992 135.84 15.2255C136.11 14.7518 136.263 14.2207 136.287 13.676C136.287 12.6864 135.588 12.2778 134.734 12.7681C134.276 13.0651 133.895 13.4672 133.624 13.9409C133.352 14.4146 133.197 14.9463 133.173 15.4918Z" fill="white"/>
<path d="M127.408 19.0621C127.408 20.0517 128.098 20.4512 128.96 19.97C129.415 19.6703 129.793 19.2674 130.063 18.7941C130.332 18.3208 130.487 17.7904 130.513 17.2462C130.513 16.2566 129.813 15.8571 128.96 16.3383C128.502 16.6347 128.122 17.0368 127.852 17.5109C127.581 17.9849 127.429 18.5169 127.408 19.0621Z" fill="white"/>
</svg>
