<svg width="390" height="365" viewBox="0 0 390 365" fill="none" xmlns="http://www.w3.org/2000/svg">
<path d="M383.081 124.929C369.279 79.8044 333.781 43.6853 291.77 24.6467C251.717 6.47934 201.062 -2.44907 163.106 25.4576C138.089 43.8665 123.942 73.369 101.056 94.0122C89.6774 104.278 77.2207 107.616 63.6858 113.75C30.6895 128.716 3.07616 157.563 0.807401 195.632C-2.98825 259.27 47.4594 303.29 103.747 317.723C178.133 336.804 233.731 336.804 284.826 316.196C311.361 305.499 338.361 291.955 357.495 269.803C386.428 236.289 394.416 188.714 387.843 145.642C386.755 138.632 385.164 131.71 383.081 124.929Z" fill="#2AB6C5"/>
<path opacity="0.8" d="M383.081 124.929C369.279 79.8044 333.781 43.6853 291.77 24.6467C251.717 6.47934 201.062 -2.44907 163.106 25.4576C138.089 43.8665 123.942 73.369 101.056 94.0122C89.6774 104.278 77.2207 107.616 63.6858 113.75C30.6895 128.716 3.07616 157.563 0.807401 195.632C-2.98825 259.27 47.4594 303.29 103.747 317.723C178.133 336.804 233.731 336.804 284.826 316.196C311.361 305.499 338.361 291.955 357.495 269.803C386.428 236.289 394.416 188.714 387.843 145.642C386.755 138.632 385.164 131.71 383.081 124.929Z" fill="white"/>
<path d="M339.949 1H44.0607V180.431H339.949V1Z" fill="white" stroke="#263238" stroke-linecap="round" stroke-linejoin="round"/>
<path d="M214.58 24.5762H54.1277V38.5942H214.58V24.5762Z" stroke="#263238" stroke-linecap="round" stroke-linejoin="round"/>
<path d="M214.58 46.5371H54.1277V127.522H214.58V46.5371Z" stroke="#263238" stroke-linecap="round" stroke-linejoin="round"/>
<path d="M332.34 105.088H223.673V169.597H332.34V105.088Z" stroke="#263238" stroke-linecap="round" stroke-linejoin="round"/>
<path d="M223.673 169.597L332.34 105.088" stroke="#263238" stroke-linecap="round" stroke-linejoin="round"/>
<path d="M332.34 169.597L223.673 105.088" stroke="#263238" stroke-linecap="round" stroke-linejoin="round"/>
<path d="M186.458 139.824H212.751" stroke="#263238" stroke-linecap="round" stroke-linejoin="round"/>
<path d="M139.814 139.824H180.997" stroke="#263238" stroke-linecap="round" stroke-linejoin="round"/>
<path d="M76.2977 139.824H131.869" stroke="#263238" stroke-linecap="round" stroke-linejoin="round"/>
<path d="M54.9645 139.824H69.8451" stroke="#263238" stroke-linecap="round" stroke-linejoin="round"/>
<path d="M93.6628 147.264H212.751" stroke="#263238" stroke-linecap="round" stroke-linejoin="round"/>
<path d="M54.9645 147.264H87.7106" stroke="#263238" stroke-linecap="round" stroke-linejoin="round"/>
<path d="M156.679 154.707H212.751" stroke="#263238" stroke-linecap="round" stroke-linejoin="round"/>
<path d="M101.108 154.707H148.743" stroke="#263238" stroke-linecap="round" stroke-linejoin="round"/>
<path d="M54.9645 154.707H95.6469" stroke="#263238" stroke-linecap="round" stroke-linejoin="round"/>
<path d="M147.751 162.15H212.751" stroke="#263238" stroke-linecap="round" stroke-linejoin="round"/>
<path d="M94.6548 162.15H141.298" stroke="#263238" stroke-linecap="round" stroke-linejoin="round"/>
<path d="M54.9645 162.15H89.203" stroke="#263238" stroke-linecap="round" stroke-linejoin="round"/>
<path d="M183.974 169.596H212.751" stroke="#263238" stroke-linecap="round" stroke-linejoin="round"/>
<path d="M115.997 169.596H178.513" stroke="#263238" stroke-linecap="round" stroke-linejoin="round"/>
<path d="M87.7107 169.596H110.536" stroke="#263238" stroke-linecap="round" stroke-linejoin="round"/>
<path d="M65.3853 169.596H78.7822" stroke="#263238" stroke-linecap="round" stroke-linejoin="round"/>
<path d="M54.9645 169.596H65.3853" stroke="#263238" stroke-linecap="round" stroke-linejoin="round"/>
<path d="M356.943 32.0215H244.799V95.8574H356.943V32.0215Z" fill="white" stroke="#263238" stroke-linecap="round" stroke-linejoin="round"/>
<path d="M356.943 83.7793H244.799V95.8564H356.943V83.7793Z" fill="white" stroke="#263238" stroke-linecap="round" stroke-linejoin="round"/>
<path d="M315.631 59.0217L286.12 41.9844V76.059L315.631 59.0217Z" fill="#2AB6C5" stroke="#263238" stroke-linecap="round" stroke-linejoin="round"/>
<path d="M248.482 28.6738H242.03V35.1264H248.482V28.6738Z" fill="white" stroke="#263238" stroke-linecap="round" stroke-linejoin="round"/>
<path d="M359.876 28.6738H353.423V35.1264H359.876V28.6738Z" fill="white" stroke="#263238" stroke-linecap="round" stroke-linejoin="round"/>
<path d="M248.482 91.4395H242.03V97.8921H248.482V91.4395Z" fill="white" stroke="#263238" stroke-linecap="round" stroke-linejoin="round"/>
<path d="M359.876 91.4395H353.423V97.8921H359.876V91.4395Z" fill="white" stroke="#263238" stroke-linecap="round" stroke-linejoin="round"/>
<path d="M341.847 92.8704L347.808 119.612C347.863 119.789 347.969 119.945 348.113 120.062C348.257 120.178 348.432 120.25 348.616 120.267C348.8 120.285 348.985 120.247 349.148 120.16C349.312 120.073 349.445 119.939 349.533 119.776L353.398 111.642C353.473 111.478 353.595 111.34 353.749 111.245C353.902 111.15 354.08 111.102 354.26 111.107L363.249 111.598C363.44 111.607 363.628 111.558 363.79 111.457C363.952 111.356 364.079 111.208 364.155 111.033C364.231 110.858 364.251 110.664 364.214 110.477C364.177 110.29 364.084 110.118 363.948 109.985L343.399 91.9474C343.251 91.8081 343.061 91.7209 342.858 91.6989C342.656 91.6769 342.451 91.7213 342.276 91.8254C342.101 91.9295 341.964 92.0877 341.887 92.2762C341.81 92.4647 341.795 92.6732 341.847 92.8704Z" fill="#263238"/>
<path d="M366.398 116.594H358.349V124.642H366.398V116.594Z" fill="white" stroke="#263238" stroke-width="0.75" stroke-linecap="round" stroke-linejoin="round"/>
<path d="M358.91 115.955H357.702V117.163H358.91V115.955Z" fill="#263238"/>
<path d="M362.998 115.955H361.791V117.163H362.998V115.955Z" fill="#263238"/>
<path d="M366.915 115.955H365.708V117.163H366.915V115.955Z" fill="#263238"/>
<path d="M358.91 120.027H357.702V121.235H358.91V120.027Z" fill="#263238"/>
<path d="M362.998 120.027H361.791V121.235H362.998V120.027Z" fill="#263238"/>
<path d="M366.915 120.027H365.708V121.235H366.915V120.027Z" fill="#263238"/>
<path d="M358.91 123.943H357.702V125.151H358.91V123.943Z" fill="#263238"/>
<path d="M362.998 123.943H361.791V125.151H362.998V123.943Z" fill="#263238"/>
<path d="M366.915 123.943H365.708V125.151H366.915V123.943Z" fill="#263238"/>
<path d="M125.676 242.642H110.493L108.216 214.244H127.953L125.676 242.642Z" fill="#2AB6C5" stroke="#263238" stroke-linecap="round" stroke-linejoin="round"/>
<path d="M128.764 211.439H106.836V217.909H128.764V211.439Z" fill="white" stroke="#263238" stroke-linecap="round" stroke-linejoin="round"/>
<path d="M126.306 234.764L127.142 224.369H109.027L109.864 234.764H126.306Z" fill="white" stroke="#263238" stroke-linecap="round" stroke-linejoin="round"/>
<path d="M147.121 240.677L144.568 241.178L137.175 204.627L139.728 204.127L147.121 240.677Z" fill="white" stroke="#263238" stroke-linecap="round" stroke-linejoin="round"/>
<path d="M192.98 239.951H144.412V241.685H192.98V239.951Z" fill="white" stroke="#263238" stroke-linecap="round" stroke-linejoin="round"/>
<path d="M281.462 331.004H206.42V334.67H281.462V331.004Z" fill="white" stroke="#263238" stroke-linecap="round" stroke-linejoin="round"/>
<path d="M292.788 218.031C292.788 218.031 285.68 274.379 283.713 291.839C281.746 309.299 289.475 364.111 289.475 364.111H284.964L276.104 302.001H209.905L205.669 362.998H202.288L207.964 292.123V284.42C207.964 284.026 208.041 283.635 208.192 283.271C208.343 282.907 208.564 282.576 208.843 282.297C209.122 282.018 209.453 281.797 209.817 281.646C210.181 281.496 210.572 281.418 210.966 281.418H274.388L284.317 211.837C284.317 211.837 285.438 205.358 291.071 207.334C296.704 209.309 292.788 218.031 292.788 218.031Z" fill="#263238" stroke="#263238" stroke-linecap="round" stroke-linejoin="round"/>
<path d="M291.097 207.334C290.95 207.278 290.801 207.229 290.649 207.188C291.08 208.05 291.339 209.551 290.821 212.363C289.691 218.566 277.795 292.374 277.795 292.374H207.921L202.322 363.818H205.704L213.071 301.949H276.113L284.973 364.06H289.484C289.484 364.06 281.72 309.256 283.722 291.787C285.723 274.319 294.125 219.265 294.125 219.265C294.125 219.265 296.739 209.301 291.097 207.334Z" fill="white" stroke="#263238" stroke-linecap="round" stroke-linejoin="round"/>
<path d="M223.578 222.949L188.321 224.951L172.595 234.043L169.49 239.365L171.922 239.805L177.469 237.364C177.469 237.364 183.68 236.26 185.457 235.596C187.234 234.931 192.091 229.6 192.091 229.6L224.872 234.923L223.578 222.949Z" fill="white" stroke="#263238" stroke-linecap="round" stroke-linejoin="round"/>
<path d="M172.725 331.91C172.725 331.91 166.514 342.78 165.625 342.78C164.737 342.78 157.542 344.375 151.823 341.494C146.103 338.613 141.842 336.396 140.065 339.053C139.176 340.296 138.432 341.636 137.848 343.047C137.848 343.047 143.17 350.586 148.053 353.243C152.935 355.9 155.023 354.529 160.13 357.41C165.237 360.291 165.677 362.508 169.887 361.628C174.096 360.748 176.546 347.214 177.65 345.661C178.755 344.108 182.947 335.456 182.947 335.456L172.725 331.91Z" fill="white" stroke="#263238" stroke-linecap="round" stroke-linejoin="round"/>
<path d="M166.695 341.658C166.186 342.348 165.832 342.78 165.625 342.78C164.762 342.78 157.542 344.375 151.823 341.494C146.103 338.613 141.842 336.396 140.065 339.053C139.176 340.296 138.432 341.636 137.848 343.047C137.848 343.047 143.17 350.586 148.053 353.243C152.935 355.9 155.023 354.529 160.13 357.41C165.237 360.291 165.677 362.508 169.887 361.628C173.622 360.835 175.925 350.147 177.219 346.627C173.389 345.644 169.283 343.306 166.695 341.658Z" fill="#263238" stroke="#263238" stroke-linecap="round" stroke-linejoin="round"/>
<path d="M169.835 361.629C169.961 361.598 170.085 361.557 170.206 361.508C170.248 361.494 170.288 361.477 170.327 361.456L170.568 361.336L170.706 361.249L170.922 361.103L171.06 360.99L171.267 360.809L171.396 360.68C171.473 360.609 171.545 360.535 171.612 360.456L171.733 360.318C171.802 360.231 171.879 360.145 171.948 360.05L172.052 359.921L172.302 359.558L172.362 359.472C172.535 359.213 172.699 358.929 172.863 358.61C168.55 358.61 165.617 355.892 160.967 354.296C155.204 352.304 154.877 353.908 150.667 351.018C146.457 348.128 146.009 346.369 146.009 346.369L149.744 340.468C145.025 338.139 141.583 336.707 140.022 339.045C139.133 340.287 138.389 341.627 137.805 343.039C137.805 343.039 143.127 350.578 148.01 353.235C152.893 355.892 154.98 354.521 160.087 357.402C165.194 360.283 165.625 362.509 169.835 361.629Z" fill="white" stroke="#263238" stroke-linecap="round" stroke-linejoin="round"/>
<path d="M179.376 276.466L159.656 325.698L183.163 339.008C183.163 339.008 208.18 282.238 208.438 281.125C208.697 280.012 213.097 278.908 213.097 278.908L231.04 281.358C231.04 281.358 203.987 269.384 196.008 267.607C188.028 265.83 182.697 267.159 179.376 276.466Z" fill="#2AB6C5" stroke="#263238" stroke-linecap="round" stroke-linejoin="round"/>
<path d="M199.846 314.76L210.94 325.181C210.94 325.181 207.17 334.497 202.736 340.484C198.302 346.471 197.854 349.973 199.846 351.345C201.839 352.716 205.833 352.457 208.473 350.68C211.112 348.903 226.209 334.049 227.986 331.392C228.557 330.487 228.784 329.408 228.626 328.35C228.467 327.292 227.934 326.327 227.123 325.629C226.459 325.181 211.828 307.66 211.828 307.66L199.846 314.76Z" fill="white" stroke="#263238" stroke-linecap="round" stroke-linejoin="round"/>
<path d="M228.012 331.393C228.583 330.488 228.81 329.409 228.652 328.351C228.493 327.293 227.96 326.328 227.149 325.63C226.839 325.414 223.397 321.386 219.851 317.193C216.608 321.118 210.75 323.31 209.456 323.767L210.966 325.181C210.966 325.181 207.196 334.498 202.762 340.485C198.328 346.472 197.879 349.974 199.872 351.346C201.865 352.717 205.859 352.458 208.499 350.681C211.138 348.904 226.235 334.049 228.012 331.393Z" fill="#263238" stroke="#263238" stroke-linecap="round" stroke-linejoin="round"/>
<path d="M227.408 325.871C227.295 327.397 226.734 328.856 225.795 330.064C223.138 333.385 208.274 347.135 208.274 347.135L201.373 342.374C198.199 347.222 198.035 350.137 199.803 351.345C201.804 352.682 205.79 352.458 208.43 350.681C211.069 348.904 226.166 334.049 227.943 331.392C228.489 330.546 228.733 329.541 228.636 328.539C228.539 327.536 228.106 326.597 227.408 325.871Z" fill="white" stroke="#263238" stroke-linecap="round" stroke-linejoin="round"/>
<path d="M221.137 324.741C221.159 325.206 221.042 325.667 220.8 326.064C220.558 326.462 220.202 326.778 219.779 326.971C219.356 327.165 218.885 327.227 218.426 327.15C217.967 327.074 217.541 326.861 217.204 326.54C216.867 326.219 216.634 325.805 216.535 325.35C216.435 324.896 216.474 324.422 216.647 323.99C216.819 323.558 217.117 323.187 217.503 322.926C217.888 322.664 218.342 322.525 218.807 322.524C219.41 322.51 219.994 322.736 220.43 323.151C220.867 323.567 221.121 324.139 221.137 324.741Z" fill="white"/>
<path d="M228.236 244.688L227.123 248.458C227.123 248.458 193.644 248.898 179.005 252.892C164.366 256.886 160.38 259.103 161.484 267.307C162.589 275.511 185.216 322.766 185.216 322.766C189.769 321.489 194.217 319.859 198.518 317.892C203.612 315.41 208.441 312.419 212.933 308.964L196.077 276.805C196.077 276.805 215.374 280.799 236.88 282.791C258.386 284.784 267.487 282.567 271.032 276.14C274.578 269.714 268.591 243.989 268.591 243.989L228.46 242.652L228.236 244.688Z" fill="#2AB6C5" stroke="#263238" stroke-linecap="round" stroke-linejoin="round"/>
<path d="M181.222 266.219C180.466 265.479 179.803 264.651 179.246 263.752" stroke="#263238" stroke-linecap="round" stroke-linejoin="round"/>
<path d="M196.077 276.839C191.594 274.283 187.32 271.378 183.292 268.152" stroke="#263238" stroke-linecap="round" stroke-linejoin="round"/>
<path d="M198.561 295.359L200.338 296.222" stroke="#263238" stroke-linecap="round" stroke-linejoin="round"/>
<path d="M167.514 269.213C175.111 279.15 184.62 287.465 195.481 293.669" stroke="#263238" stroke-linecap="round" stroke-linejoin="round"/>
<path d="M260.421 259.387C261.268 260.045 262.072 260.756 262.828 261.517" stroke="#263238" stroke-linecap="round" stroke-linejoin="round"/>
<path d="M229.34 248.896C229.34 248.896 245.593 250.156 257.066 257.074" stroke="#263238" stroke-linecap="round" stroke-linejoin="round"/>
<path d="M251.519 252.666C251.519 252.666 262.164 252.89 266.374 257.324" stroke="#263238" stroke-linecap="round" stroke-linejoin="round"/>
<path d="M231.342 178.16C231.342 178.16 223.802 200.589 222.715 207.43C221.628 214.271 222.275 244.239 222.275 244.239C222.275 244.239 240.011 249.562 249.992 248.458C259.973 247.353 272.421 245.352 272.421 245.352C272.421 245.352 270.204 205.67 268.211 191.911C266.218 178.152 261.56 170.172 257.126 166.851C254.178 164.685 251.062 162.755 247.809 161.08L231.342 178.16Z" fill="#263238" stroke="#263238" stroke-linecap="round" stroke-linejoin="round"/>
<path d="M192.307 143.568C192.789 146.379 193.767 149.081 195.197 151.548C197.414 155.093 200.519 156.646 199.631 160.174C198.742 163.702 198.768 166.161 201.356 166.377L204.021 166.601C204.021 166.601 209.344 175.693 213.338 175.693C217.332 175.693 228.667 165.523 228.667 165.523C228.667 165.523 222.681 137.357 222.681 136.469C222.681 135.58 190.97 139.798 190.97 139.798L192.307 143.568Z" fill="white" stroke="#263238" stroke-linecap="round" stroke-linejoin="round"/>
<path d="M205.505 154.963C205.928 155.825 205.781 156.8 205.169 157.094C204.556 157.387 203.728 156.904 203.306 156.015C202.883 155.127 203.03 154.178 203.642 153.893C204.255 153.608 205.083 154.083 205.505 154.963Z" fill="#263238"/>
<path d="M200.071 152.435C200.071 152.435 199.847 149.329 204.505 149.994" stroke="#263238" stroke-linecap="round" stroke-linejoin="round"/>
<path d="M206.549 167.333C206.687 167.824 211.967 167.531 211.156 162.855" stroke="#263238" stroke-linecap="round" stroke-linejoin="round"/>
<path d="M237.294 133.138C236.561 124.158 225.381 127.6 220.145 130.317L219.998 130.041L198.932 136.028C198.76 136.882 198.859 137.77 199.217 138.565C199.574 139.36 200.171 140.023 200.925 140.462C205.335 143.746 210.545 145.787 216.012 146.371C217.582 155.757 219.774 169.783 219.774 175.054C219.774 183.258 216.668 186.363 216.668 186.363C216.668 186.363 230.859 181.929 239.097 174.165C243.883 169.708 248.06 164.638 251.519 159.086C251.519 159.086 238.217 144.007 237.294 133.138Z" fill="#2AB6C5" stroke="#263238" stroke-linecap="round" stroke-linejoin="round"/>
<path d="M216.047 146.372L215.417 143.439" stroke="#263238" stroke-linecap="round" stroke-linejoin="round"/>
<path d="M226.571 166.781C226.752 167.791 226.899 168.731 227.002 169.55" stroke="#263238" stroke-linecap="round" stroke-linejoin="round"/>
<path d="M221.085 143.439C221.085 143.439 224.216 155.008 225.985 163.694" stroke="#263238" stroke-linecap="round" stroke-linejoin="round"/>
<path d="M231.557 146.344L235.862 157.722" stroke="#263238" stroke-linecap="round" stroke-linejoin="round"/>
<path d="M229.711 141.461L230.824 144.403" stroke="#263238" stroke-linecap="round" stroke-linejoin="round"/>
<path d="M235.129 141.713L237.095 146.639" stroke="#263238" stroke-linecap="round" stroke-linejoin="round"/>
<path d="M190.133 143.223C190.133 143.223 175.295 151.099 180.238 151.099C185.181 151.099 209.922 140.877 210.906 140.877C211.889 140.877 194.42 142.559 190.133 143.223Z" fill="#757575" stroke="#263238" stroke-linecap="round" stroke-linejoin="round"/>
<path d="M190.133 143.223C190.133 143.223 181.256 146.035 185.216 136.468C189.175 126.901 216.133 112.961 227.348 112.961C238.562 112.961 246.852 129.696 245.204 134.976C243.557 140.255 239.925 140.911 238.303 140.911C236.681 140.911 190.133 143.223 190.133 143.223Z" fill="#757575" stroke="#263238" stroke-linecap="round" stroke-linejoin="round"/>
<path d="M194.42 140.256C194.42 140.256 210.578 140.583 224.432 138.608C238.286 136.633 243.884 134.648 243.884 134.648" stroke="#263238" stroke-linecap="round" stroke-linejoin="round"/>
<path d="M241.909 138.936L220.144 139.263" stroke="#263238" stroke-linecap="round" stroke-linejoin="round"/>
<path d="M228.236 226.054L225.355 228.737C225.355 228.737 189.426 224.078 186.984 224.743C184.543 225.407 175.899 227.848 175.899 227.848L168.998 228.288L163.46 237.605H165.228L169.222 232.058H171.733L167.514 236.94L165.694 239.58L171.897 239.804L172.802 239.037L176.339 236.035L175.226 239.364H176.555L179.66 234.042L183.879 231.825L188.313 228.719C188.313 228.719 233.55 244.463 234.654 245.11C235.758 245.757 238.208 247.551 240.201 245.774C242.194 243.997 247.516 229.142 247.516 229.142L228.236 226.054Z" fill="white" stroke="#263238" stroke-linecap="round" stroke-linejoin="round"/>
<path d="M168.472 239.278C170.772 237.472 172.805 235.349 174.51 232.972C174.51 232.972 174.812 230.635 176.848 230.264" stroke="#263238" stroke-linecap="round" stroke-linejoin="round"/>
<path d="M176.348 236.036L177.348 232.18L178.453 231.291" stroke="#263238" stroke-linecap="round" stroke-linejoin="round"/>
<path d="M171.733 232.041C172.317 231.105 173.025 230.252 173.838 229.505C174.588 229.056 175.045 228.832 175.045 228.832" stroke="#263238" stroke-linecap="round" stroke-linejoin="round"/>
<path d="M209.258 236.036C221.266 240.245 234.085 244.783 234.706 245.128C235.819 245.792 238.26 247.569 240.253 245.792C242.245 244.015 247.568 229.16 247.568 229.16L228.279 226.055L225.355 228.738C225.355 228.738 218.747 227.875 211.018 226.952L209.258 236.036Z" fill="#757575" stroke="#263238" stroke-linecap="round" stroke-linejoin="round"/>
<path d="M234.706 192.35L225.131 224.5C225.131 224.5 225.993 228.943 234.887 231.402C239.787 232.834 244.862 233.58 249.966 233.619L257.066 193.704" fill="#263238"/>
<path d="M234.706 192.35L225.131 224.5C225.131 224.5 225.993 228.943 234.887 231.402C239.787 232.834 244.862 233.58 249.966 233.619L257.066 193.704" stroke="#263238" stroke-linecap="round" stroke-linejoin="round"/>
<path d="M234.068 195.25L225.415 222.07" stroke="#707070" stroke-linecap="round" stroke-linejoin="round"/>
<path d="M255.194 203.84L250.941 231.151" stroke="#707070" stroke-linecap="round" stroke-linejoin="round"/>
<path d="M256.125 197.836L255.66 200.838" stroke="#707070" stroke-linecap="round" stroke-linejoin="round"/>
<path d="M154.911 243.834H147.147V359.256H154.911V243.834Z" fill="#263238" stroke="#263238" stroke-linecap="round" stroke-linejoin="round"/>
<path d="M207.834 241.797H92.2742V246.567H207.834V241.797Z" fill="#757575" stroke="#263238" stroke-linecap="round" stroke-linejoin="round"/>
<path d="M192.635 363.974H109.441C109.443 362.709 109.947 361.497 110.841 360.603C111.735 359.709 112.947 359.205 114.211 359.203H187.864C189.129 359.205 190.341 359.709 191.235 360.603C192.129 361.497 192.632 362.709 192.635 363.974Z" fill="#757575" stroke="#263238" stroke-linecap="round" stroke-linejoin="round"/>
<path d="M372.151 364.113H382.503" stroke="#263238" stroke-linecap="round" stroke-linejoin="round"/>
<path d="M354.898 364.113H365.828" stroke="#263238" stroke-linecap="round" stroke-linejoin="round"/>
<path d="M92.0841 364.113H348.575" stroke="#263238" stroke-linecap="round" stroke-linejoin="round"/>
<path d="M21.1746 364.113H84.0271" stroke="#263238" stroke-linecap="round" stroke-linejoin="round"/>
<path d="M103.637 88.8945C103.637 87.5212 103.943 86.2945 104.557 85.2145C105.183 84.1212 106.03 83.2745 107.097 82.6745C108.177 82.0612 109.383 81.7545 110.717 81.7545C112.277 81.7545 113.643 82.1545 114.817 82.9545C115.99 83.7545 116.81 84.8612 117.277 86.2745H114.057C113.737 85.6079 113.283 85.1079 112.697 84.7745C112.123 84.4412 111.457 84.2745 110.697 84.2745C109.883 84.2745 109.157 84.4679 108.517 84.8545C107.89 85.2279 107.397 85.7612 107.037 86.4545C106.69 87.1479 106.517 87.9612 106.517 88.8945C106.517 89.8145 106.69 90.6279 107.037 91.3345C107.397 92.0279 107.89 92.5679 108.517 92.9545C109.157 93.3279 109.883 93.5145 110.697 93.5145C111.457 93.5145 112.123 93.3479 112.697 93.0145C113.283 92.6679 113.737 92.1612 114.057 91.4945H117.277C116.81 92.9212 115.99 94.0345 114.817 94.8345C113.657 95.6212 112.29 96.0145 110.717 96.0145C109.383 96.0145 108.177 95.7145 107.097 95.1145C106.03 94.5012 105.183 93.6545 104.557 92.5745C103.943 91.4945 103.637 90.2679 103.637 88.8945ZM135.688 96.0345C134.715 96.0345 133.835 95.8679 133.048 95.5345C132.275 95.2012 131.662 94.7212 131.208 94.0945C130.755 93.4679 130.522 92.7279 130.508 91.8745H133.508C133.548 92.4479 133.748 92.9012 134.108 93.2345C134.482 93.5679 134.988 93.7345 135.628 93.7345C136.282 93.7345 136.795 93.5812 137.168 93.2745C137.542 92.9545 137.728 92.5412 137.728 92.0345C137.728 91.6212 137.602 91.2812 137.348 91.0145C137.095 90.7479 136.775 90.5412 136.388 90.3945C136.015 90.2345 135.495 90.0612 134.828 89.8745C133.922 89.6079 133.182 89.3479 132.608 89.0945C132.048 88.8279 131.562 88.4345 131.148 87.9145C130.748 87.3812 130.548 86.6745 130.548 85.7945C130.548 84.9679 130.755 84.2479 131.168 83.6345C131.582 83.0212 132.162 82.5545 132.908 82.2345C133.655 81.9012 134.508 81.7345 135.468 81.7345C136.908 81.7345 138.075 82.0879 138.968 82.7945C139.875 83.4879 140.375 84.4612 140.468 85.7145H137.388C137.362 85.2345 137.155 84.8412 136.768 84.5345C136.395 84.2145 135.895 84.0545 135.268 84.0545C134.722 84.0545 134.282 84.1945 133.948 84.4745C133.628 84.7545 133.468 85.1612 133.468 85.6945C133.468 86.0679 133.588 86.3812 133.828 86.6345C134.082 86.8745 134.388 87.0745 134.748 87.2345C135.122 87.3812 135.642 87.5545 136.308 87.7545C137.215 88.0212 137.955 88.2879 138.528 88.5545C139.102 88.8212 139.595 89.2212 140.008 89.7545C140.422 90.2879 140.628 90.9879 140.628 91.8545C140.628 92.6012 140.435 93.2945 140.048 93.9345C139.662 94.5745 139.095 95.0879 138.348 95.4745C137.602 95.8479 136.715 96.0345 135.688 96.0345ZM159.076 96.0345C158.102 96.0345 157.222 95.8679 156.436 95.5345C155.662 95.2012 155.049 94.7212 154.596 94.0945C154.142 93.4679 153.909 92.7279 153.896 91.8745H156.896C156.936 92.4479 157.136 92.9012 157.496 93.2345C157.869 93.5679 158.376 93.7345 159.016 93.7345C159.669 93.7345 160.182 93.5812 160.556 93.2745C160.929 92.9545 161.116 92.5412 161.116 92.0345C161.116 91.6212 160.989 91.2812 160.736 91.0145C160.482 90.7479 160.162 90.5412 159.776 90.3945C159.402 90.2345 158.882 90.0612 158.216 89.8745C157.309 89.6079 156.569 89.3479 155.996 89.0945C155.436 88.8279 154.949 88.4345 154.536 87.9145C154.136 87.3812 153.936 86.6745 153.936 85.7945C153.936 84.9679 154.142 84.2479 154.556 83.6345C154.969 83.0212 155.549 82.5545 156.296 82.2345C157.042 81.9012 157.896 81.7345 158.856 81.7345C160.296 81.7345 161.462 82.0879 162.356 82.7945C163.262 83.4879 163.762 84.4612 163.856 85.7145H160.776C160.749 85.2345 160.542 84.8412 160.156 84.5345C159.782 84.2145 159.282 84.0545 158.656 84.0545C158.109 84.0545 157.669 84.1945 157.336 84.4745C157.016 84.7545 156.856 85.1612 156.856 85.6945C156.856 86.0679 156.976 86.3812 157.216 86.6345C157.469 86.8745 157.776 87.0745 158.136 87.2345C158.509 87.3812 159.029 87.5545 159.696 87.7545C160.602 88.0212 161.342 88.2879 161.916 88.5545C162.489 88.8212 162.982 89.2212 163.396 89.7545C163.809 90.2879 164.016 90.9879 164.016 91.8545C164.016 92.6012 163.822 93.2945 163.436 93.9345C163.049 94.5745 162.482 95.0879 161.736 95.4745C160.989 95.8479 160.102 96.0345 159.076 96.0345Z" fill="black"/>
<path d="M340.888 1H45V20.847H340.888V1Z" fill="#2AB6C5" stroke="#263238" stroke-linecap="round" stroke-linejoin="round"/>
</svg>
