<svg width="410" height="306" viewBox="0 0 410 306" fill="none" xmlns="http://www.w3.org/2000/svg">
<path d="M409.714 268.281H0V268.486H409.714V268.281Z" fill="#EBEBEB"/>
<path d="M368.661 281.465H341.521V281.67H368.661V281.465Z" fill="#EBEBEB"/>
<path d="M247.009 281.572H239.888V281.777H247.009V281.572Z" fill="#EBEBEB"/>
<path d="M340.694 273.861H290.348V274.066H340.694V273.861Z" fill="#EBEBEB"/>
<path d="M184.486 278.696H174.088V278.901H184.486V278.696Z" fill="#EBEBEB"/>
<path d="M166.795 278.696H136.615V278.901H166.795V278.696Z" fill="#EBEBEB"/>
<path d="M63.8251 275.237H42.9871V275.442H63.8251V275.237Z" fill="#EBEBEB"/>
<path d="M130.109 275.237H68.7417V275.442H130.109V275.237Z" fill="#EBEBEB"/>
<path d="M194.204 231.734H35.981C34.7415 231.732 33.5535 231.238 32.6778 230.361C31.8021 229.484 31.3103 228.295 31.3103 227.055V4.63796C31.3211 3.40556 31.8177 2.22719 32.6922 1.35879C33.5668 0.490394 34.7486 0.00211117 35.981 0H194.204C195.445 0 196.635 0.492958 197.513 1.37043C198.39 2.2479 198.883 3.438 198.883 4.67894V227.055C198.883 228.296 198.39 229.486 197.513 230.364C196.635 231.241 195.445 231.734 194.204 231.734ZM35.981 0.163886C34.7959 0.166057 33.66 0.638388 32.8227 1.47721C31.9854 2.31602 31.5152 3.45278 31.5152 4.63796V227.055C31.5152 228.241 31.9854 229.377 32.8227 230.216C33.66 231.055 34.7959 231.527 35.981 231.529H194.204C195.39 231.527 196.527 231.055 197.366 230.217C198.204 229.378 198.676 228.241 198.679 227.055V4.63796C198.676 3.45203 198.204 2.31529 197.366 1.47671C196.527 0.638122 195.39 0.166052 194.204 0.163886H35.981Z" fill="#EBEBEB"/>
<path d="M371.455 231.734H213.223C211.983 231.732 210.794 231.239 209.917 230.362C209.04 229.485 208.547 228.296 208.544 227.055V4.63796C208.557 3.40482 209.056 2.22645 209.932 1.35828C210.807 0.490107 211.99 0.00208814 213.223 0H371.455C372.686 0.00426471 373.866 0.4935 374.739 1.36167C375.611 2.22983 376.107 3.40698 376.118 4.63796V227.055C376.118 228.293 375.627 229.481 374.753 230.358C373.879 231.235 372.693 231.73 371.455 231.734ZM213.223 0.163886C212.037 0.166052 210.901 0.638122 210.062 1.47671C209.224 2.31529 208.751 3.45203 208.749 4.63796V227.055C208.751 228.241 209.224 229.378 210.062 230.217C210.901 231.055 212.037 231.527 213.223 231.529H371.455C372.641 231.527 373.778 231.055 374.616 230.217C375.455 229.378 375.927 228.241 375.929 227.055V4.63796C375.927 3.45203 375.455 2.31529 374.616 1.47671C373.778 0.638122 372.641 0.166052 371.455 0.163886H213.223Z" fill="#EBEBEB"/>
<path d="M59.1136 180.455H170.31L170.31 24.944H59.1136L59.1136 180.455Z" fill="#E6E6E6"/>
<path d="M56.6471 180.455H167.844L167.844 24.944H56.6471L56.6471 180.455Z" fill="#F5F5F5"/>
<path d="M163.402 175.472V29.9248L61.0801 29.9248L61.0801 175.472H163.402Z" fill="white"/>
<path d="M62.9485 175.472L62.9485 29.9248H61.0802L61.0802 175.472H62.9485Z" fill="#E6E6E6"/>
<path d="M58.4827 85.3936L166.008 85.3936V78.707L58.4827 78.707V85.3936Z" fill="#F5F5F5"/>
<path d="M51.8042 16.6924H175.144C175.326 16.6945 175.499 16.768 175.626 16.8969C175.753 17.0257 175.825 17.1996 175.825 17.3807C175.825 17.5611 175.753 17.7341 175.625 17.8616C175.498 17.9892 175.325 18.0608 175.144 18.0608H51.8042C51.6238 18.0608 51.4508 17.9892 51.3232 17.8616C51.1957 17.7341 51.124 17.5611 51.124 17.3807C51.124 17.1996 51.1954 17.0257 51.3227 16.8969C51.45 16.768 51.623 16.6945 51.8042 16.6924Z" fill="#E6E6E6"/>
<path d="M47.7072 17.3805C47.7137 18.0548 47.9195 18.7122 48.2989 19.2698C48.6783 19.8274 49.2142 20.2603 49.8391 20.5139C50.464 20.7675 51.15 20.8305 51.8107 20.695C52.4714 20.5595 53.0771 20.2315 53.5517 19.7523C54.0264 19.2732 54.3486 18.6643 54.4778 18.0023C54.607 17.3404 54.5374 16.6551 54.2779 16.0326C54.0183 15.4101 53.5803 14.8784 53.0191 14.5043C52.458 14.1303 51.7986 13.9307 51.1242 13.9307C50.6727 13.9306 50.2257 14.0201 49.809 14.1939C49.3922 14.3676 49.0141 14.6223 48.6963 14.943C48.3786 15.2638 48.1276 15.6444 47.9578 16.0628C47.788 16.4811 47.7029 16.929 47.7072 17.3805Z" fill="#E6E6E6"/>
<path d="M169.384 21.2066C169.629 21.2045 169.863 21.1062 170.036 20.933C170.21 20.7599 170.308 20.5256 170.31 20.2807V18.2976C170.308 18.0535 170.209 17.8201 170.036 17.6482C169.863 17.4763 169.628 17.3799 169.384 17.3799C169.141 17.3799 168.907 17.4766 168.735 17.6487C168.563 17.8208 168.466 18.0542 168.466 18.2976V20.2807C168.466 20.5248 168.563 20.7591 168.735 20.9325C168.906 21.1059 169.14 21.2045 169.384 21.2066Z" fill="#E6E6E6"/>
<path d="M62.1045 21.2066C62.3494 21.2045 62.5837 21.1062 62.7569 20.933C62.9301 20.7599 63.0283 20.5256 63.0305 20.2807V18.2976C63.0283 18.0535 62.9298 17.8201 62.7564 17.6482C62.583 17.4763 62.3487 17.3799 62.1045 17.3799C61.8611 17.3799 61.6277 17.4766 61.4556 17.6487C61.2835 17.8208 61.1868 18.0542 61.1868 18.2976V20.2807C61.1868 20.5248 61.2832 20.7591 61.4551 20.9325C61.627 21.1059 61.8604 21.2045 62.1045 21.2066Z" fill="#E6E6E6"/>
<path opacity="0.5" d="M148.505 143.671H69.5203C64.8804 143.671 60.4305 141.828 57.1496 138.547C53.8687 135.266 52.0255 130.816 52.0255 126.176L52.0255 17.3806L166 17.3806L166 126.176C166 130.816 164.157 135.266 160.876 138.547C157.595 141.828 153.145 143.671 148.505 143.671Z" fill="#E0E0E0"/>
<path d="M154.995 17.3805C155.001 18.0552 155.207 18.7129 155.587 19.2707C155.967 19.8285 156.503 20.2613 157.129 20.5147C157.754 20.768 158.441 20.8306 159.101 20.6944C159.762 20.5582 160.368 20.2294 160.842 19.7494C161.317 19.2694 161.638 18.6598 161.766 17.9973C161.895 17.3349 161.824 16.6492 161.563 16.0269C161.302 15.4046 160.863 14.8734 160.301 14.5004C159.739 14.1273 159.078 13.9291 158.404 13.9307C157.953 13.9306 157.506 14.0201 157.09 14.194C156.673 14.3679 156.296 14.6226 155.979 14.9435C155.662 15.2644 155.411 15.6451 155.243 16.0634C155.074 16.4817 154.989 16.9294 154.995 17.3805Z" fill="#E6E6E6"/>
<path d="M337.088 26.0244H241.969V121.398H337.088V26.0244Z" fill="#F0F0F0"/>
<path d="M337.088 121.398H338.727V26.0252H337.088V121.398Z" fill="#E0E0E0"/>
<path d="M328.689 71.2083C328.689 49.5806 311.156 32.0479 289.529 32.0479C267.901 32.0479 250.368 49.5806 250.368 71.2083V76.215C250.368 97.8428 267.901 115.376 289.529 115.376C311.156 115.376 328.689 97.8428 328.689 76.215V71.2083Z" fill="white"/>
<path d="M304.458 55.918H274.607C273.611 55.918 272.804 56.7251 272.804 57.7207V89.7112C272.804 90.7068 273.611 91.5139 274.607 91.5139H304.458C305.454 91.5139 306.261 90.7068 306.261 89.7112V57.7207C306.261 56.7251 305.454 55.918 304.458 55.918Z" fill="#F5F5F5"/>
<path d="M151.488 265.102H173.432V216.436H151.488V265.102Z" fill="#F0F0F0"/>
<path d="M60.9819 268.174H169.22V265.093H60.9819V268.174Z" fill="#F0F0F0"/>
<path d="M151.488 216.428H56.77V265.094H151.488V216.428Z" fill="#F5F5F5"/>
<path d="M142.859 238.789H65.3985C65.2898 238.789 65.1856 238.746 65.1088 238.669C65.0319 238.592 64.9888 238.488 64.9888 238.379V222.417C64.9888 222.308 65.0319 222.204 65.1088 222.127C65.1856 222.05 65.2898 222.007 65.3985 222.007H142.859C142.967 222.009 143.07 222.053 143.146 222.129C143.223 222.206 143.267 222.309 143.269 222.417V238.379C143.269 238.488 143.226 238.592 143.149 238.669C143.072 238.746 142.968 238.789 142.859 238.789ZM65.8328 237.969H142.474V222.826H65.8082L65.8328 237.969Z" fill="#F0F0F0"/>
<path d="M142.859 259.513H65.3985C65.2898 259.513 65.1856 259.47 65.1088 259.393C65.0319 259.316 64.9888 259.212 64.9888 259.104V243.141C64.9888 243.032 65.0319 242.928 65.1088 242.851C65.1856 242.775 65.2898 242.731 65.3985 242.731H142.859C142.967 242.734 143.07 242.777 143.146 242.854C143.223 242.93 143.267 243.033 143.269 243.141V259.104C143.269 259.212 143.226 259.316 143.149 259.393C143.072 259.47 142.968 259.513 142.859 259.513ZM65.8328 258.694H142.474V243.551H65.8082L65.8328 258.694Z" fill="#F0F0F0"/>
<path d="M94.2508 231.496H113.991C114.525 231.496 114.958 231.063 114.958 230.529V230.275C114.958 229.741 114.525 229.308 113.991 229.308H94.2508C93.7168 229.308 93.2839 229.741 93.2839 230.275V230.529C93.2839 231.063 93.7168 231.496 94.2508 231.496Z" fill="white"/>
<path d="M94.2508 252.212H113.991C114.525 252.212 114.958 251.779 114.958 251.245V250.991C114.958 250.457 114.525 250.024 113.991 250.024H94.2508C93.7168 250.024 93.2839 250.457 93.2839 250.991V251.245C93.2839 251.779 93.7168 252.212 94.2508 252.212Z" fill="white"/>
<path d="M99.2739 208.241C99.2739 208.241 99.0117 216.435 88.9 216.435C78.7882 216.435 78.5178 208.241 78.5178 208.241H99.2739Z" fill="#F5F5F5"/>
<path d="M122.914 208.241C122.914 208.241 122.644 216.435 112.532 216.435C102.42 216.435 102.158 208.241 102.158 208.241H122.914Z" fill="#F5F5F5"/>
<path d="M146.596 208.241C146.596 208.241 146.333 216.435 136.214 216.435C126.094 216.435 125.84 208.241 125.84 208.241H146.596Z" fill="#F5F5F5"/>
<path d="M347.175 263.282H363.736V154.7H347.175V263.282Z" fill="#F0F0F0"/>
<path d="M222.794 268.272H359.368V263.282H222.794V268.272Z" fill="#F0F0F0"/>
<path d="M347.176 154.692H218.427V263.275H347.176V154.692Z" fill="#F5F5F5"/>
<path d="M338.227 193.934H227.375V219.762H338.227V193.934Z" fill="#F0F0F0"/>
<path d="M338.227 227.752H227.375V253.58H338.227V227.752Z" fill="#F0F0F0"/>
<path d="M250.835 195.713H314.775C315.703 195.713 316.455 194.961 316.455 194.033V193.853C316.455 192.925 315.703 192.173 314.775 192.173H250.835C249.907 192.173 249.155 192.925 249.155 193.853V194.033C249.155 194.961 249.907 195.713 250.835 195.713Z" fill="#F5F5F5"/>
<path d="M250.835 229.521H314.775C315.703 229.521 316.455 228.769 316.455 227.842V227.661C316.455 226.734 315.703 225.982 314.775 225.982H250.835C249.907 225.982 249.155 226.734 249.155 227.661V227.842C249.155 228.769 249.907 229.521 250.835 229.521Z" fill="#F5F5F5"/>
<path d="M338.227 160.124H227.375V185.952H338.227V160.124Z" fill="#F0F0F0"/>
<path d="M250.835 161.903H314.775C315.703 161.903 316.455 161.151 316.455 160.223V160.043C316.455 159.115 315.703 158.363 314.775 158.363H250.835C249.907 158.363 249.155 159.115 249.155 160.043V160.223C249.155 161.151 249.907 161.903 250.835 161.903Z" fill="#F5F5F5"/>
<path d="M204.857 305.286C292.603 305.286 363.736 301.133 363.736 296.01C363.736 290.887 292.603 286.734 204.857 286.734C117.111 286.734 45.978 290.887 45.978 296.01C45.978 301.133 117.111 305.286 204.857 305.286Z" fill="#F5F5F5"/>
<path d="M235.756 39.6106L235.664 40.4248L239.963 40.9123L240.055 40.0981L235.756 39.6106Z" fill="#2AB6C5"/>
<path d="M217.114 37.5042L217.021 38.3184L230.969 39.9001L231.061 39.0859L217.114 37.5042Z" fill="#2AB6C5"/>
<path d="M320.429 52.1101L173 35.3909C170.796 35.141 168.807 36.7247 168.558 38.9281L155.816 151.281C155.566 153.484 157.15 155.473 159.353 155.723L306.782 172.442C308.986 172.692 310.974 171.108 311.224 168.905L323.966 56.5522C324.216 54.3488 322.632 52.36 320.429 52.1101Z" fill="#2AB6C5"/>
<path opacity="0.7" d="M157.969 149.955L170.351 40.7339C170.395 40.348 170.514 39.9746 170.703 39.6352C170.892 39.2959 171.146 38.9972 171.45 38.7565C171.755 38.5157 172.104 38.3377 172.478 38.2327C172.852 38.1277 173.243 38.0977 173.629 38.1445L319.241 54.6478C319.626 54.6925 319.999 54.8128 320.338 55.0019C320.677 55.1909 320.975 55.4449 321.216 55.7494C321.456 56.0539 321.634 56.4028 321.74 56.7762C321.845 57.1496 321.876 57.5402 321.83 57.9255L309.416 167.106C309.373 167.492 309.255 167.866 309.066 168.206C308.878 168.546 308.624 168.845 308.319 169.086C308.014 169.327 307.664 169.505 307.29 169.61C306.915 169.714 306.524 169.743 306.138 169.695L160.526 153.184C159.761 153.09 159.064 152.698 158.586 152.094C158.108 151.49 157.886 150.722 157.969 149.955Z" fill="#22929E"/>
<path d="M297.448 81.5658L236.089 74.6074L235.747 77.6281L297.106 84.5865L297.448 81.5658Z" fill="#2AB6C5"/>
<path d="M306.854 87.5068L241.847 80.1348L241.505 83.1555L306.511 90.5275L306.854 87.5068Z" fill="#2AB6C5"/>
<path d="M295.157 91.0592L241.297 84.9512L240.954 87.9719L294.814 94.0799L295.157 91.0592Z" fill="#2AB6C5"/>
<path d="M288.994 95.2424L240.752 89.7715L240.41 92.7922L288.652 98.2631L288.994 95.2424Z" fill="#2AB6C5"/>
<path d="M273.422 101.415L233.558 96.8945L233.216 99.9152L273.079 104.436L273.422 101.415Z" fill="#2AB6C5"/>
<path d="M281.027 116.925L238.224 112.071L237.882 115.092L280.685 119.946L281.027 116.925Z" fill="#2AB6C5"/>
<path d="M274.237 111.274L238.77 107.252L238.427 110.273L273.894 114.295L274.237 111.274Z" fill="#2AB6C5"/>
<path d="M278.377 106.863L239.319 102.434L238.977 105.454L278.034 109.884L278.377 106.863Z" fill="#2AB6C5"/>
<path d="M269.258 138.169L229.394 133.648L229.052 136.669L268.915 141.19L269.258 138.169Z" fill="#2AB6C5"/>
<path d="M276.855 153.676L234.052 148.822L233.71 151.843L276.513 156.697L276.855 153.676Z" fill="#2AB6C5"/>
<path d="M269.605 146.609L234.268 142.683L233.933 145.692L269.271 149.619L269.605 146.609Z" fill="#2AB6C5"/>
<path d="M274.205 143.616L235.147 139.187L234.804 142.207L273.862 146.637L274.205 143.616Z" fill="#2AB6C5"/>
<path d="M209.556 48.8324L177.183 45.1611L176.84 48.1818L209.213 51.8531L209.556 48.8324Z" fill="white"/>
<path d="M215.414 64.1303L180.663 60.1895L180.321 63.2102L215.071 67.1511L215.414 64.1303Z" fill="white"/>
<path d="M210.006 58.6429L181.208 55.377L180.865 58.3977L209.664 61.6636L210.006 58.6429Z" fill="white"/>
<path d="M213.459 54.1473L181.745 50.5508L181.403 53.5715L213.116 57.168L213.459 54.1473Z" fill="white"/>
<path d="M279.384 131.382L236.581 126.528L236.239 129.549L279.042 134.403L279.384 131.382Z" fill="#2AB6C5"/>
<path d="M272.594 125.73L237.127 121.708L236.785 124.729L272.252 128.751L272.594 125.73Z" fill="#2AB6C5"/>
<path d="M276.734 121.32L237.676 116.891L237.334 119.911L276.391 124.341L276.734 121.32Z" fill="#2AB6C5"/>
<path d="M188.845 292.74L183.429 292.617L182.675 280.047L188.091 280.17L188.845 292.74Z" fill="#FFC3BD"/>
<path d="M183.232 291.987L189.148 292.119C189.255 292.122 189.357 292.161 189.439 292.229C189.521 292.297 189.577 292.391 189.599 292.496L190.566 297.338C190.584 297.456 190.576 297.576 190.543 297.69C190.51 297.804 190.452 297.909 190.374 297.999C190.296 298.089 190.2 298.16 190.091 298.209C189.983 298.258 189.865 298.282 189.747 298.281C187.616 298.199 184.535 298.01 181.856 297.945C178.717 297.879 178.152 298.428 174.481 298.043C172.268 297.814 171.883 295.511 172.842 295.404C177.152 294.921 178.184 294.585 181.856 292.381C182.266 292.119 182.745 291.982 183.232 291.987Z" fill="#81C592"/>
<path opacity="0.2" d="M182.675 280.056L183.068 286.529L188.485 286.652L188.1 280.179L182.675 280.056Z" fill="black"/>
<path d="M180.274 114.302C178.472 117.834 176.57 121.251 174.538 124.66C172.506 128.069 170.441 131.395 167.983 134.739C167.671 135.157 167.327 135.558 167 136.009C166.852 136.197 166.623 136.468 166.41 136.705C166.196 136.943 165.975 137.205 165.738 137.426C164.818 138.35 163.773 139.139 162.632 139.77C160.504 140.961 158.146 141.682 155.716 141.884C153.513 142.081 151.293 141.973 149.12 141.565C148.071 141.378 147.034 141.132 146.014 140.827C144.978 140.53 143.962 140.166 142.974 139.737L144.285 135.599C145.104 135.689 146.039 135.788 146.924 135.837C147.809 135.886 148.726 135.886 149.611 135.837C151.31 135.819 153.001 135.604 154.651 135.198C156.091 134.866 157.451 134.251 158.65 133.387C159.17 133.001 159.638 132.549 160.043 132.043C160.147 131.921 160.243 131.793 160.329 131.658C160.428 131.527 160.51 131.42 160.641 131.215L161.362 130.109C163.288 127.028 165.148 123.644 166.991 120.276L172.522 110.164L180.274 114.302Z" fill="#FFC3BD"/>
<path d="M185.133 108.985C185.953 113.901 174.718 128.725 174.718 128.725L166.483 118.818C168.824 114.797 171.511 110.989 174.514 107.436C178.783 102.65 184.224 103.56 185.133 108.985Z" fill="white"/>
<path opacity="0.2" d="M182.503 113.188C179.225 114.008 173.702 117.49 171.031 124.259L174.743 128.733C174.743 128.733 181.405 119.973 184.093 113.68C183.911 113.444 183.661 113.27 183.376 113.182C183.091 113.094 182.786 113.096 182.503 113.188Z" fill="black"/>
<path d="M179.324 104.338C179.324 104.338 170.687 115.351 171.261 147.137L200.44 152.414C201.448 147.972 201.809 129.904 209.946 109.582C206.832 108.378 203.643 107.376 200.399 106.583C196.311 105.593 192.169 104.843 187.993 104.338C185.108 104.113 182.209 104.113 179.324 104.338Z" fill="white"/>
<path opacity="0.2" d="M203.767 121.988C202.522 123.75 201.768 128.544 203.448 131.821C203.841 129.789 204.308 127.659 204.865 125.438L203.767 121.988Z" fill="black"/>
<path d="M187.993 104.338C187.993 104.338 184.494 111.213 188.575 114.786C195.712 114.179 200.399 106.591 200.399 106.591L187.993 104.338Z" fill="#81C592"/>
<path d="M134.615 132.854L134.706 136.927L138.229 139.475L139.819 133.887L134.615 132.854Z" fill="#FFC3BD"/>
<path d="M146.096 136.025L139.819 133.887L138.229 139.475C138.229 139.475 141.884 141.065 144.785 138.934L146.096 136.025Z" fill="#FFC3BD"/>
<path d="M201.694 92.3906C200.186 96.2419 198.088 103.412 200.399 106.583C200.399 106.583 197.22 110.295 190.083 110.902C185.985 107.329 187.993 104.346 187.993 104.346C192.639 104.084 193.114 100.765 192.91 97.5202L201.694 92.3906Z" fill="#FFC3BD"/>
<path opacity="0.2" d="M198.113 94.4795L192.91 97.5114C192.971 98.2667 192.971 99.0258 192.91 99.7812C195.22 100.969 197.105 99.7238 198.113 97.2246C198.319 96.3211 198.319 95.3829 198.113 94.4795Z" fill="black"/>
<path d="M190.173 87.9659C190.509 90.4242 198.089 86.4172 199.367 85.5732C200.645 84.7291 199.178 81.8038 196.302 79.4438C193.426 77.0839 189.394 82.2217 190.173 87.9659Z" fill="#81C592"/>
<path d="M205.726 89.096C203.407 94.0863 202.309 97.1264 198.695 98.7324C193.27 101.191 187.87 96.3479 188.649 90.7676C189.345 85.7445 193.016 78.427 198.818 78.3451C200.098 78.3211 201.364 78.6254 202.494 79.2288C203.624 79.8322 204.58 80.7147 205.273 81.7923C205.965 82.8699 206.37 84.1068 206.449 85.3852C206.529 86.6636 206.28 87.9411 205.726 89.096Z" fill="#FFC3BD"/>
<path d="M203.677 93.7677C201.219 94.1364 202.956 85.7373 203.407 84.2787C203.857 82.8201 207.758 81.4845 209.962 84.4836C212.609 88.1464 209.413 92.9155 203.677 93.7677Z" fill="#81C592"/>
<path d="M202.939 76.6823C200.735 76.2398 201.366 73.9045 202.989 74.0274C201.686 72.4459 193.975 71.0037 193.557 76.1169C193.139 81.2302 203.079 84.0654 205.766 84.4259L209.773 85.5485C215.173 82.8526 209.183 77.9361 202.939 76.6823Z" fill="#81C592"/>
<path d="M205.996 95.1358C204.983 96.0806 203.636 96.5846 202.251 96.537C200.424 96.4551 200.072 94.6851 201.055 93.2593C201.932 91.9646 203.956 90.4487 205.57 91.2271C205.917 91.4046 206.215 91.6656 206.436 91.9867C206.658 92.3077 206.796 92.6788 206.838 93.0665C206.88 93.4542 206.825 93.8462 206.678 94.2075C206.531 94.5687 206.297 94.8877 205.996 95.1358Z" fill="#FFC3BD"/>
<path d="M172.358 282.58L167.04 283.629L164.434 271.354L169.752 270.305L172.358 282.58Z" fill="#FFC3BD"/>
<path d="M166.705 283.055L172.514 281.908C172.62 281.888 172.73 281.904 172.825 281.955C172.921 282.006 172.996 282.087 173.039 282.186L175.014 286.701C175.057 286.811 175.076 286.928 175.07 287.045C175.063 287.163 175.032 287.277 174.978 287.381C174.923 287.485 174.847 287.577 174.754 287.649C174.661 287.721 174.554 287.772 174.44 287.799C172.334 288.176 169.286 288.619 166.655 289.168C163.574 289.774 162.558 289.84 158.977 290.553C156.789 290.979 155.749 288.914 156.626 288.512C160.608 286.783 162.362 286.644 165.508 283.719C165.836 283.389 166.251 283.158 166.705 283.055Z" fill="#81C592"/>
<path opacity="0.2" d="M164.434 271.354L165.778 277.68L171.096 276.631L169.752 270.305L164.434 271.354Z" fill="black"/>
<path d="M164.705 284.342C164.361 284.5 163.973 284.535 163.607 284.44C163.484 284.397 163.375 284.323 163.289 284.225C163.203 284.128 163.143 284.01 163.115 283.883C163.088 283.811 163.081 283.733 163.095 283.658C163.11 283.583 163.145 283.513 163.197 283.457C163.656 282.957 165.721 283.366 165.951 283.416C165.977 283.421 166.001 283.434 166.019 283.453C166.038 283.472 166.051 283.496 166.057 283.522C166.061 283.547 166.058 283.573 166.048 283.596C166.038 283.619 166.021 283.639 166 283.653C165.595 283.93 165.161 284.161 164.705 284.342ZM163.541 283.522C163.486 283.541 163.436 283.572 163.394 283.612C163.394 283.612 163.337 283.686 163.394 283.784C163.411 283.871 163.45 283.952 163.507 284.02C163.565 284.087 163.639 284.139 163.722 284.169C164.401 284.224 165.076 284.016 165.606 283.588C164.918 283.427 164.205 283.404 163.509 283.522H163.541Z" fill="#2AB6C5"/>
<path d="M165.942 283.63H165.877C165.23 283.531 163.771 282.81 163.664 282.155C163.649 282.056 163.669 281.956 163.72 281.871C163.77 281.786 163.85 281.721 163.943 281.688C164.034 281.645 164.133 281.623 164.234 281.623C164.335 281.623 164.434 281.645 164.525 281.688C165.344 281.958 165.983 283.417 166.016 283.474C166.029 283.494 166.035 283.516 166.035 283.539C166.035 283.563 166.029 283.585 166.016 283.605C165.996 283.622 165.969 283.631 165.942 283.63ZM164.115 281.884H164.058C163.91 281.966 163.919 282.048 163.927 282.081C163.984 282.441 164.967 283.064 165.648 283.277C165.426 282.859 164.943 282.04 164.443 281.868C164.335 281.836 164.219 281.842 164.115 281.884Z" fill="#2AB6C5"/>
<path d="M171.26 147.136C171.26 147.136 158.305 196.449 154.56 212.944C150.676 230.111 163.762 276.499 163.762 276.499L172.407 274.794C172.407 274.794 168.777 227.497 170.015 219.991C174.972 201.816 190.443 150.61 190.443 150.61L171.26 147.136Z" fill="#2AB6C5"/>
<path opacity="0.2" d="M172.899 188.01C172.361 194.877 172.471 201.78 173.227 208.627C176.931 195.737 182.077 178.447 185.781 166.099C182.044 167.713 174.284 172.834 172.899 188.01Z" fill="black"/>
<path d="M181.339 148.964C181.339 148.964 174.554 199.211 175.136 215.452C175.767 233.226 179.971 284.915 179.971 284.915L190.107 285.161C190.107 285.161 189.951 236.29 190.927 218.968C191.943 200.17 200.186 152.389 200.186 152.389L181.339 148.964Z" fill="#2AB6C5"/>
<path d="M190.788 285.366L179.848 285.128L178.988 280.982L191.099 280.908L190.788 285.366Z" fill="#81C592"/>
<path d="M174.112 274.682L163.377 276.796L161.64 272.928L173.538 270.806L174.112 274.682Z" fill="#81C592"/>
<path d="M197.728 87.6058C197.564 88.0237 197.212 88.2778 196.909 88.1712C196.605 88.0647 196.548 87.6386 196.712 87.2207C196.876 86.8028 197.228 86.557 197.531 86.6635C197.835 86.77 197.884 87.1961 197.728 87.6058Z" fill="#81C592"/>
<path d="M193.016 85.7693C192.852 86.179 192.5 86.433 192.197 86.3265C191.894 86.2199 191.836 85.7938 192 85.3841C192.164 84.9744 192.516 84.7122 192.82 84.8187C193.123 84.9252 193.18 85.3513 193.016 85.7693Z" fill="#81C592"/>
<path d="M194.114 86.4326C193.119 87.5123 191.981 88.4498 190.73 89.2187C190.936 89.5327 191.207 89.7986 191.525 89.998C191.844 90.1974 192.201 90.3257 192.574 90.3741L194.114 86.4326Z" fill="#F9AEA6"/>
<path d="M192.5 92.3915C192.482 92.3859 192.466 92.3767 192.452 92.3644C192.438 92.3521 192.427 92.337 192.42 92.3202C192.412 92.3033 192.408 92.285 192.408 92.2665C192.408 92.248 192.412 92.2296 192.42 92.2128C192.427 92.1959 192.438 92.1808 192.452 92.1685C192.466 92.1562 192.482 92.1469 192.5 92.1413C192.518 92.1358 192.536 92.134 192.555 92.1362C192.573 92.1383 192.591 92.1444 192.607 92.1538C193.112 92.3875 193.665 92.4996 194.221 92.4811C194.778 92.4626 195.322 92.314 195.811 92.0473C195.825 92.0366 195.842 92.0289 195.859 92.0248C195.877 92.0208 195.895 92.0204 195.913 92.0237C195.931 92.0271 195.947 92.034 195.962 92.0442C195.977 92.0543 195.99 92.0675 196 92.0827C196.009 92.098 196.016 92.1151 196.018 92.133C196.021 92.1509 196.02 92.1691 196.015 92.1865C196.011 92.204 196.002 92.2203 195.991 92.2344C195.98 92.2485 195.966 92.2601 195.95 92.2686C195.427 92.5656 194.841 92.7319 194.24 92.7533C193.639 92.7747 193.042 92.6506 192.5 92.3915Z" fill="#81C592"/>
<path d="M200.334 86.6624C200.3 86.6417 200.271 86.6143 200.249 86.5819C200.226 86.5495 200.21 86.5127 200.203 86.474C200.16 86.1436 200.04 85.828 199.852 85.5531C199.664 85.2782 199.414 85.0518 199.121 84.8925C199.058 84.8639 199.009 84.8117 198.985 84.7473C198.96 84.6829 198.962 84.6114 198.99 84.5483C199.02 84.485 199.074 84.436 199.14 84.4115C199.205 84.387 199.278 84.3891 199.342 84.4172C199.709 84.6144 200.023 84.8966 200.258 85.2402C200.494 85.5838 200.643 85.9788 200.694 86.392C200.7 86.4265 200.699 86.4618 200.691 86.4958C200.683 86.5299 200.668 86.562 200.648 86.5902C200.627 86.6185 200.601 86.6423 200.571 86.6604C200.541 86.6784 200.508 86.6902 200.473 86.6952C200.425 86.6966 200.377 86.6853 200.334 86.6624Z" fill="#81C592"/>
<path d="M191.828 82.9592C191.793 82.9408 191.765 82.9122 191.746 82.8773C191.727 82.8486 191.714 82.8162 191.707 82.7821C191.701 82.7481 191.702 82.7131 191.709 82.6793C191.717 82.6456 191.731 82.6137 191.752 82.5858C191.772 82.5578 191.798 82.5343 191.828 82.5167C192.178 82.2905 192.577 82.1509 192.992 82.1096C193.406 82.0683 193.825 82.1264 194.213 82.2791C194.276 82.3094 194.325 82.363 194.349 82.4288C194.374 82.4945 194.372 82.5672 194.344 82.6315C194.329 82.6628 194.308 82.6909 194.282 82.7141C194.256 82.7373 194.226 82.7551 194.193 82.7666C194.16 82.778 194.126 82.7828 194.091 82.7807C194.056 82.7786 194.022 82.7697 193.991 82.7544C193.683 82.6369 193.352 82.5942 193.024 82.6298C192.697 82.6654 192.382 82.7783 192.107 82.9592C192.065 82.9854 192.017 82.9993 191.967 82.9993C191.918 82.9993 191.87 82.9854 191.828 82.9592Z" fill="#81C592"/>
<path d="M205.799 107.813L204.439 107.444C204.374 107.425 204.304 107.432 204.243 107.462C204.182 107.493 204.135 107.545 204.111 107.608C196.556 127.504 194.761 149.751 194.761 149.751L196.277 150.022C197.996 135.761 201.249 121.728 205.979 108.165C205.993 108.13 206 108.093 205.998 108.056C205.996 108.018 205.987 107.981 205.97 107.948C205.953 107.915 205.928 107.885 205.899 107.862C205.87 107.839 205.836 107.822 205.799 107.813Z" fill="#2AB6C5"/>
<g opacity="0.99">
<path d="M196.499 150.063C196.511 149.999 196.51 149.933 196.496 149.869C196.482 149.806 196.455 149.745 196.418 149.692C196.381 149.639 196.333 149.593 196.278 149.558C196.223 149.524 196.162 149.5 196.097 149.489L195.048 149.292C194.931 149.275 194.811 149.3 194.71 149.364C194.609 149.427 194.534 149.524 194.498 149.638C194.463 149.751 194.469 149.874 194.516 149.983C194.563 150.093 194.647 150.182 194.753 150.235L194.524 151.538C194.509 151.622 194.511 151.708 194.529 151.791C194.547 151.874 194.581 151.953 194.63 152.023C194.679 152.093 194.741 152.153 194.813 152.199C194.884 152.245 194.965 152.277 195.048 152.292C195.132 152.307 195.218 152.305 195.302 152.287C195.385 152.269 195.464 152.234 195.534 152.185C195.604 152.137 195.664 152.075 195.71 152.003C195.756 151.931 195.787 151.851 195.802 151.767L196.04 150.464C196.15 150.457 196.255 150.414 196.338 150.342C196.421 150.269 196.477 150.171 196.499 150.063Z" fill="#81C592"/>
</g>
<path d="M182.642 103.912H181.233C181.176 103.913 181.121 103.932 181.075 103.965C181.03 103.999 180.996 104.046 180.979 104.101C174.358 124.177 173.702 145.891 173.702 145.891L175.218 146.17C177.005 123.341 182.069 106.837 182.905 104.215C182.909 104.178 182.906 104.14 182.895 104.104C182.884 104.068 182.865 104.034 182.841 104.006C182.816 103.977 182.786 103.954 182.751 103.938C182.717 103.922 182.68 103.913 182.642 103.912Z" fill="#2AB6C5"/>
<path opacity="0.99" d="M175.44 146.26C175.456 146.127 175.422 145.992 175.342 145.884C175.263 145.776 175.145 145.702 175.013 145.678L173.965 145.481C173.901 145.47 173.835 145.471 173.772 145.486C173.709 145.5 173.65 145.528 173.598 145.566C173.545 145.604 173.502 145.653 173.469 145.709C173.436 145.765 173.415 145.827 173.407 145.891C173.396 146.003 173.42 146.115 173.476 146.212C173.531 146.309 173.617 146.386 173.719 146.432L173.547 147.743C173.525 147.917 173.571 148.093 173.674 148.235C173.778 148.376 173.931 148.473 174.104 148.505C174.187 148.521 174.273 148.52 174.356 148.502C174.439 148.484 174.517 148.448 174.585 148.398C174.654 148.348 174.711 148.285 174.754 148.211C174.796 148.138 174.823 148.057 174.833 147.972L175.005 146.661C175.113 146.656 175.216 146.613 175.296 146.54C175.375 146.466 175.426 146.367 175.44 146.26Z" fill="#81C592"/>
<path d="M180.979 292.765C180.611 292.848 180.226 292.802 179.889 292.634C179.78 292.562 179.689 292.465 179.625 292.351C179.561 292.237 179.525 292.109 179.52 291.979C179.51 291.904 179.52 291.827 179.551 291.758C179.581 291.688 179.63 291.628 179.692 291.585C180.258 291.192 182.151 292.036 182.397 292.134C182.42 292.146 182.44 292.163 182.454 292.185C182.468 292.206 182.477 292.231 182.478 292.257C182.475 292.282 182.464 292.306 182.449 292.326C182.433 292.347 182.412 292.362 182.388 292.372C181.936 292.559 181.463 292.691 180.979 292.765ZM180.012 291.716C179.953 291.72 179.897 291.74 179.848 291.774C179.822 291.791 179.802 291.816 179.79 291.845C179.778 291.875 179.776 291.907 179.783 291.938C179.784 292.027 179.808 292.115 179.85 292.193C179.893 292.271 179.954 292.338 180.028 292.388C180.679 292.586 181.381 292.525 181.987 292.216C181.367 291.925 180.696 291.755 180.012 291.716Z" fill="#2AB6C5"/>
<path d="M182.364 292.38H182.298C181.683 292.142 180.421 291.093 180.454 290.462C180.462 290.364 180.503 290.271 180.569 290.198C180.636 290.125 180.726 290.077 180.823 290.061C180.922 290.036 181.024 290.032 181.124 290.049C181.224 290.066 181.32 290.104 181.405 290.159C182.109 290.594 182.462 292.159 182.47 292.224C182.476 292.248 182.475 292.272 182.468 292.296C182.461 292.319 182.447 292.339 182.429 292.355C182.42 292.364 182.41 292.37 182.399 292.374C182.388 292.378 182.376 292.38 182.364 292.38ZM180.954 290.307H180.889C180.725 290.356 180.725 290.438 180.716 290.471C180.716 290.839 181.536 291.651 182.15 292.003C182.023 291.382 181.715 290.812 181.265 290.364C181.172 290.307 181.061 290.287 180.954 290.307Z" fill="#2AB6C5"/>
<path d="M184.748 166.179L189.329 169.416L192.762 166.884L188.37 161.533L184.748 166.179Z" fill="#FFC3BD"/>
<path d="M194.852 160.56L188.37 161.535L192.762 166.886C192.762 166.886 197.261 165.788 197.015 162.182L194.852 160.56Z" fill="#FFC3BD"/>
<path d="M213.944 118.063C214.19 122.341 214.321 126.602 214.346 130.896C214.346 133.034 214.346 135.181 214.346 137.345C214.346 138.418 214.305 139.5 214.248 140.622L214.166 142.261L214.125 143.081C214.125 143.466 214.043 143.9 213.985 144.31C213.739 145.74 213.269 147.123 212.592 148.407C212.004 149.517 211.336 150.582 210.593 151.594C209.208 153.446 207.67 155.178 205.996 156.773C202.79 159.835 199.284 162.566 195.532 164.927L192.877 161.485C194.303 160.043 195.794 158.543 197.171 157.003C198.547 155.462 199.916 153.93 201.17 152.357C202.398 150.842 203.517 149.243 204.521 147.571C204.962 146.816 205.348 146.03 205.676 145.219C205.943 144.586 206.116 143.919 206.193 143.236C206.184 143.114 206.184 142.99 206.193 142.868V142.114L206.152 140.573L206.021 137.451L205.676 131.109C205.463 126.897 205.291 122.652 205.177 118.432L213.944 118.063Z" fill="#FFC3BD"/>
<path d="M209.946 109.582C216.952 112.188 216.894 130.928 216.894 130.928L205.037 133.108C205.037 133.108 202.169 124.594 203.587 117.891C204.939 111.491 204.619 107.591 209.946 109.582Z" fill="white"/>
<path d="M119.506 133.69L87.7446 121.791L82.1643 88.3424L108.386 66.7832L140.122 78.6649L145.703 112.122L119.506 133.69ZM89.0803 120.693L119.219 131.977L144.056 111.491L138.762 79.7548L108.624 68.4712L83.7868 88.9569L89.0803 120.693Z" fill="#2AB6C5"/>
<path d="M112.63 70.6042C114.263 68.3171 113.733 65.139 111.446 63.5058C109.159 61.8726 105.981 62.4027 104.348 64.6899C102.714 66.977 103.244 70.155 105.532 71.7882C107.819 73.4214 110.997 72.8913 112.63 70.6042Z" fill="#2AB6C5"/>
<path d="M123.496 135.79C125.129 133.503 124.599 130.325 122.312 128.691C120.025 127.058 116.847 127.588 115.214 129.875C113.58 132.163 114.11 135.341 116.398 136.974C118.685 138.607 121.863 138.077 123.496 135.79Z" fill="#2AB6C5"/>
<path d="M136.476 83.3691C135.657 82.7841 135.03 81.9692 134.674 81.0276C134.318 80.086 134.249 79.0601 134.476 78.0794C134.704 77.0988 135.217 76.2076 135.95 75.5186C136.684 74.8296 137.606 74.3737 138.599 74.2086C139.592 74.0435 140.612 74.1766 141.529 74.591C142.446 75.0055 143.22 75.6827 143.752 76.537C144.285 77.3913 144.552 78.3843 144.52 79.3904C144.488 80.3965 144.158 81.3705 143.572 82.1892C142.787 83.2862 141.599 84.0268 140.268 84.248C138.938 84.4693 137.574 84.1532 136.476 83.3691Z" fill="#2AB6C5"/>
<path d="M80.0091 92.7352C79.1895 92.1509 78.5616 91.3367 78.2048 90.3956C77.8479 89.4544 77.7782 88.4286 78.0045 87.4478C78.2307 86.4671 78.7427 85.5754 79.4757 84.8857C80.2088 84.1959 81.1299 83.739 82.1226 83.5728C83.1153 83.4066 84.135 83.5385 85.0527 83.9519C85.9705 84.3652 86.745 85.0414 87.2784 85.895C87.8117 86.7486 88.08 87.7412 88.0492 88.7473C88.0184 89.7533 87.6899 90.7276 87.1054 91.547C86.3204 92.6436 85.1328 93.3843 83.8027 93.607C82.4726 93.8297 81.1085 93.5162 80.0091 92.7352Z" fill="#2AB6C5"/>
<path d="M141.917 116.023C141.098 115.438 140.472 114.624 140.116 113.683C139.76 112.742 139.692 111.716 139.918 110.736C140.145 109.756 140.658 108.865 141.391 108.176C142.124 107.487 143.044 107.031 144.037 106.865C145.029 106.699 146.048 106.831 146.965 107.244C147.883 107.657 148.657 108.332 149.19 109.185C149.724 110.038 149.992 111.03 149.962 112.036C149.932 113.042 149.605 114.016 149.021 114.835C148.633 115.38 148.141 115.843 147.574 116.198C147.007 116.553 146.375 116.792 145.715 116.903C145.056 117.013 144.38 116.992 143.729 116.841C143.077 116.69 142.461 116.412 141.917 116.023Z" fill="#2AB6C5"/>
<path d="M85.4584 125.373C84.6392 124.788 84.0121 123.973 83.6561 123.032C83.3002 122.09 83.2315 121.064 83.4588 120.083C83.686 119.103 84.199 118.212 84.9329 117.523C85.6667 116.834 86.5884 116.378 87.5814 116.212C88.5743 116.047 89.594 116.18 90.5113 116.595C91.4286 117.009 92.2024 117.687 92.7348 118.541C93.2671 119.395 93.5342 120.388 93.5021 121.394C93.47 122.4 93.1403 123.374 92.5546 124.193C92.1667 124.737 91.6752 125.199 91.1084 125.553C90.5415 125.907 89.9105 126.146 89.2513 126.255C88.5921 126.365 87.9178 126.343 87.2669 126.192C86.6161 126.041 86.0015 125.762 85.4584 125.373Z" fill="#2AB6C5"/>
<path d="M103.199 91.7766L109.615 90.7031L111.491 101.954C111.864 103.762 111.955 105.616 111.762 107.452C111.508 108.828 110.801 110.08 109.754 111.009C108.452 112.165 106.829 112.897 105.1 113.106C103.454 113.475 101.747 113.475 100.101 113.106C98.892 112.753 97.818 112.041 97.0203 111.066C96.1445 109.936 95.5365 108.622 95.2422 107.223L101.216 105.363C101.313 106.054 101.509 106.727 101.798 107.362C102.01 107.763 102.339 108.092 102.74 108.304C103.084 108.451 103.465 108.485 103.83 108.403C104.144 108.372 104.444 108.257 104.698 108.069C104.952 107.882 105.15 107.629 105.272 107.338C105.531 106.435 105.551 105.48 105.329 104.568L103.199 91.7766Z" fill="#81C592"/>
<path d="M115.073 104.019L121.104 102.625C121.303 103.425 121.71 104.157 122.284 104.748C122.688 105.117 123.175 105.384 123.704 105.527C124.233 105.669 124.788 105.683 125.324 105.567C126.089 105.493 126.801 105.14 127.323 104.576C127.525 104.358 127.674 104.097 127.761 103.814C127.847 103.53 127.869 103.23 127.823 102.937C127.771 102.66 127.659 102.397 127.495 102.168C127.33 101.939 127.118 101.748 126.872 101.609C125.771 101.147 124.584 100.926 123.39 100.962C120.478 100.798 118.337 100.293 116.965 99.4461C116.306 99.0526 115.743 98.5164 115.317 97.877C114.892 97.2375 114.615 96.5109 114.507 95.7505C114.335 94.6745 114.483 93.5717 114.933 92.5793C115.451 91.4616 116.29 90.5232 117.342 89.8834C118.856 89.0154 120.527 88.4582 122.259 88.2445C124.908 87.802 127.009 87.9577 128.56 88.7116C129.384 89.1451 130.103 89.7521 130.669 90.4905C131.235 91.229 131.634 92.0814 131.838 92.989L125.864 94.3493C125.782 93.9667 125.622 93.6051 125.394 93.2869C125.166 92.9687 124.875 92.7007 124.539 92.4994C124.204 92.2982 123.83 92.168 123.442 92.1169C123.054 92.0658 122.66 92.0949 122.284 92.2024C121.665 92.2512 121.084 92.5184 120.645 92.9562C120.491 93.1212 120.377 93.3192 120.311 93.5352C120.246 93.7511 120.231 93.9792 120.268 94.2018C120.302 94.3758 120.375 94.5398 120.481 94.6816C120.588 94.8235 120.725 94.9396 120.882 95.0212C121.604 95.3183 122.381 95.4552 123.16 95.4227C125.291 95.4488 127.411 95.7238 129.478 96.2421C130.639 96.5652 131.686 97.2067 132.502 98.094C133.21 98.9297 133.672 99.9451 133.837 101.028C134.062 102.332 133.891 103.673 133.346 104.879C132.789 106.144 131.864 107.212 130.691 107.944C129.211 108.839 127.562 109.419 125.848 109.648C122.325 110.238 119.773 109.965 118.195 108.829C116.609 107.654 115.5 105.946 115.073 104.019Z" fill="#81C592"/>
</svg>
