<svg width="471" height="462" viewBox="0 0 471 462" fill="none" xmlns="http://www.w3.org/2000/svg">
<path d="M457.069 179.227C404.795 89.6929 262.997 121.579 234.039 78.0346C219.206 55.7691 202.614 29.8892 178.546 16.4505C155.605 3.58025 129.007 -0.935059 105.819 0.759523C23.0095 6.81926 -12.0941 80.909 3.81141 162.27C25.0473 270.799 121.252 381.665 235.54 382.437C295.322 382.888 352.445 361.437 397.169 331.267L398.166 330.592C442.89 300.143 496.988 247.579 457.069 179.227Z" fill="#2AB6C5"/>
<path opacity="0.7" d="M457.069 179.227C404.795 89.6929 262.997 121.579 234.039 78.0346C219.206 55.7691 202.614 29.8892 178.546 16.4505C155.605 3.58025 129.007 -0.935059 105.819 0.759523C23.0095 6.81926 -12.0941 80.909 3.81141 162.27C25.0473 270.799 121.252 381.665 235.54 382.437C295.322 382.888 352.445 361.437 397.169 331.267L398.166 330.592C442.89 300.143 496.988 247.579 457.069 179.227Z" fill="white"/>
<path d="M51.2702 185.736H45.4571C39.2191 185.736 33.2366 188.214 28.8257 192.625C24.4148 197.036 21.9368 203.019 21.9368 209.257V338.324C21.9368 344.562 24.4148 350.544 28.8257 354.955C33.2366 359.366 39.2191 361.844 45.4571 361.844H125.21C131.448 361.844 137.43 359.366 141.841 354.955C146.252 350.544 148.73 344.562 148.73 338.324" stroke="#263238" stroke-width="1.1" stroke-linecap="round" stroke-linejoin="round" stroke-dasharray="4.41 4.41"/>
<path d="M142.23 63.9524V38.4586C142.23 34.644 143.744 30.9852 146.438 28.2849C149.132 25.5845 152.788 24.0632 156.602 24.0547H260.315C264.135 24.0547 267.799 25.5722 270.5 28.2735C273.201 30.9748 274.719 34.6385 274.719 38.4586" stroke="#263238" stroke-width="1.1" stroke-linecap="round" stroke-linejoin="round" stroke-dasharray="4.41 4.41"/>
<path d="M235.54 461.354C348.984 461.354 440.949 448.505 440.949 432.654C440.949 416.803 348.984 403.953 235.54 403.953C122.096 403.953 30.1309 416.803 30.1309 432.654C30.1309 448.505 122.096 461.354 235.54 461.354Z" fill="#2AB6C5"/>
<path opacity="0.5" d="M235.54 461.354C348.984 461.354 440.949 448.505 440.949 432.654C440.949 416.803 348.984 403.953 235.54 403.953C122.096 403.953 30.1309 416.803 30.1309 432.654C30.1309 448.505 122.096 461.354 235.54 461.354Z" fill="white"/>
<path d="M429.173 98.1557V291.274C429.173 297.587 426.666 303.641 422.203 308.106C417.74 312.571 411.687 315.081 405.374 315.084H65.7065C59.3935 315.081 53.3401 312.571 48.8772 308.106C44.4143 303.641 41.9072 297.587 41.9072 291.274V98.1557C41.9072 97.5872 41.9072 97.0831 41.9823 96.4825C42.4004 90.4751 45.0814 84.8497 49.4843 80.7414C53.8872 76.6331 59.6845 74.3475 65.7065 74.3457H405.374C411.403 74.3482 417.206 76.6398 421.61 80.7571C426.014 84.8744 428.69 90.5103 429.098 96.5254C429.151 97.0402 429.173 97.5979 429.173 98.1557Z" fill="white" stroke="#263238" stroke-width="1.1" stroke-linecap="round" stroke-linejoin="round"/>
<path d="M53.4905 105.406H418.802V283.799C418.802 289.715 416.451 295.389 412.268 299.573C408.084 303.757 402.41 306.107 396.493 306.107H75.8096C69.8931 306.107 64.2188 303.757 60.0352 299.573C55.8516 295.389 53.5012 289.715 53.5012 283.799V105.406H53.4905Z" fill="#263238"/>
<path opacity="0.2" d="M418.812 105.406V283.799C418.844 289.682 416.537 295.337 412.4 299.52C408.263 303.704 402.634 306.073 396.751 306.107H75.5523C69.6689 306.073 64.0398 303.704 59.9027 299.52C55.7656 295.337 53.4592 289.682 53.4906 283.799V105.406H418.812Z" fill="white"/>
<path d="M429.098 96.5235H41.9824C42.4005 90.5161 45.0815 84.8908 49.4844 80.7824C53.8874 76.6741 59.6846 74.3885 65.7066 74.3867H405.374C411.396 74.3885 417.193 76.6741 421.596 80.7824C425.999 84.8908 428.68 90.5161 429.098 96.5235Z" fill="#2AB6C5" stroke="#263238" stroke-width="1.1" stroke-miterlimit="10"/>
<path d="M89.5487 85.4142C89.5487 86.2479 89.3015 87.0628 88.8383 87.756C88.3752 88.4491 87.7169 88.9894 86.9467 89.3084C86.1765 89.6274 85.329 89.7109 84.5114 89.5482C83.6937 89.3856 82.9427 88.9842 82.3532 88.3947C81.7637 87.8052 81.3623 87.0542 81.1996 86.2365C81.037 85.4189 81.1205 84.5714 81.4395 83.8012C81.7585 83.031 82.2988 82.3727 82.9919 81.9096C83.6851 81.4464 84.5 81.1992 85.3337 81.1992C86.4515 81.1992 87.5236 81.6433 88.3141 82.4338C89.1046 83.2242 89.5487 84.2963 89.5487 85.4142Z" fill="#263238"/>
<path d="M107.374 85.4142C107.374 86.2479 107.127 87.0628 106.664 87.756C106.2 88.4491 105.542 88.9894 104.772 89.3084C104.002 89.6274 103.154 89.7109 102.337 89.5482C101.519 89.3856 100.768 88.9842 100.178 88.3947C99.5889 87.8052 99.1875 87.0542 99.0248 86.2365C98.8622 85.4189 98.9457 84.5714 99.2647 83.8012C99.5837 83.031 100.124 82.3727 100.817 81.9096C101.51 81.4464 102.325 81.1992 103.159 81.1992C104.277 81.1992 105.349 81.6433 106.139 82.4338C106.93 83.2242 107.374 84.2963 107.374 85.4142Z" fill="#263238"/>
<path d="M120.984 89.6292C123.312 89.6292 125.199 87.7421 125.199 85.4142C125.199 83.0863 123.312 81.1992 120.984 81.1992C118.656 81.1992 116.769 83.0863 116.769 85.4142C116.769 87.7421 118.656 89.6292 120.984 89.6292Z" fill="#263238"/>
<path d="M418.802 105.406V283.799C418.802 289.715 416.451 295.389 412.268 299.573C408.084 303.757 402.41 306.107 396.493 306.107H75.8097C70.6459 306.106 65.6423 304.314 61.6524 301.036C57.6624 297.758 54.9332 293.197 53.9303 288.132V288.067C53.6576 286.653 53.5211 285.217 53.5227 283.777V105.406H418.802Z" stroke="#263238" stroke-width="1.1" stroke-miterlimit="10"/>
<path d="M418.458 132.99C416.894 132.112 415.231 131.424 413.503 130.942L411.498 121.986H402.982L400.998 130.942C399.26 131.416 397.589 132.104 396.021 132.99L388.331 128.068L382.314 134.063L387.151 141.753C386.266 143.321 385.578 144.992 385.103 146.729L376.147 148.714V157.229L385.103 159.235C385.573 160.981 386.261 162.66 387.151 164.233L382.229 171.976L388.256 177.993L395.989 173.07C397.553 173.958 399.221 174.65 400.955 175.13L402.95 184.075H411.433L413.428 175.13C415.157 174.645 416.821 173.954 418.383 173.07L418.78 173.328V132.776L418.458 132.99ZM407.261 164.093C405.084 164.093 402.956 163.448 401.147 162.238C399.337 161.029 397.926 159.309 397.094 157.298C396.261 155.287 396.044 153.074 396.469 150.939C396.895 148.804 397.944 146.843 399.484 145.305C401.024 143.766 402.986 142.719 405.121 142.295C407.256 141.872 409.469 142.092 411.48 142.926C413.49 143.761 415.208 145.173 416.416 146.984C417.624 148.795 418.267 150.923 418.265 153.1C418.265 154.545 417.981 155.975 417.427 157.31C416.874 158.644 416.064 159.856 415.042 160.877C414.02 161.898 412.807 162.708 411.472 163.26C410.137 163.812 408.706 164.095 407.261 164.093Z" fill="#263238"/>
<path d="M264.981 141.625V123.671L246.104 119.478C245.086 115.83 243.646 112.314 241.814 108.999L244.099 105.406H154.972L157.171 108.903C155.317 112.203 153.876 115.718 152.881 119.37L133.994 123.575V141.572L152.881 145.787C153.876 149.466 155.317 153.01 157.171 156.34L146.8 172.653L159.509 185.352L175.811 174.97C179.119 176.83 182.636 178.289 186.29 179.314L190.494 198.136H208.405L212.631 179.271C216.273 178.241 219.779 176.783 223.077 174.927L239.39 185.309L252.089 172.61L241.782 156.297C243.609 152.988 245.049 149.479 246.072 145.84L264.981 141.625ZM199.557 155.847C194.969 155.847 190.484 154.486 186.669 151.937C182.854 149.388 179.88 145.765 178.124 141.526C176.368 137.287 175.909 132.623 176.804 128.122C177.699 123.622 179.909 119.489 183.153 116.244C186.398 113 190.531 110.791 195.031 109.895C199.531 109 204.196 109.46 208.435 111.216C212.674 112.971 216.297 115.945 218.846 119.76C221.395 123.575 222.756 128.06 222.756 132.648C222.757 135.695 222.158 138.712 220.993 141.528C219.827 144.343 218.119 146.901 215.964 149.055C213.81 151.21 211.252 152.919 208.436 154.084C205.621 155.249 202.604 155.848 199.557 155.847Z" fill="#263238"/>
<path d="M145.856 264.911L146.617 250.657L131.849 246.496C131.163 243.567 130.149 240.724 128.824 238.023L137.748 225.496L128.181 214.889L114.817 222.397C112.263 220.789 109.531 219.483 106.677 218.503L104.124 203.359L89.8811 202.705L85.7626 217.517C82.8282 218.175 79.9835 219.183 77.2897 220.52L64.7734 211.607L54.1447 221.163L61.7167 234.537C60.0934 237.081 58.7826 239.81 57.8127 242.667L53.5227 243.375V262.68L56.6544 263.56C57.3041 266.499 58.309 269.347 59.6467 272.044L53.4905 280.677L53.898 288.067V288.131L60.2581 295.178L73.6431 287.617C76.1931 289.256 78.9341 290.578 81.805 291.553L84.3147 306.096L84.4327 306.707L98.6758 307.458L99.0511 306.096L102.794 292.657C105.742 291.997 108.6 290.989 111.31 289.654L123.805 298.556L134.423 289.011L126.915 275.626C128.523 273.086 129.816 270.359 130.766 267.507L145.856 264.911ZM108.028 242.656C105.588 239.943 102.399 238.014 98.8621 237.113C95.3258 236.212 91.6017 236.381 88.1612 237.597C84.7206 238.814 81.7181 241.023 79.5334 243.946C77.3488 246.869 76.0802 250.374 75.888 254.019C75.6959 257.663 76.589 261.282 78.4542 264.419C80.3194 267.555 83.0729 270.068 86.3665 271.639C89.6601 273.211 93.3458 273.77 96.9573 273.246C100.569 272.723 103.944 271.139 106.655 268.697C110.276 265.426 112.453 260.854 112.71 255.982C112.968 251.109 111.284 246.333 108.028 242.699V242.656Z" fill="#263238"/>
<path d="M259.779 243.665C260.33 241.458 260.622 239.194 260.648 236.919L270.89 231.556L268.059 221.163L256.497 221.7C255.326 219.757 253.933 217.958 252.346 216.337L255.768 205.279L246.437 199.917L238.629 208.433C236.426 207.901 234.17 207.613 231.904 207.575L226.542 197.332L216.16 200.153L216.707 211.725C214.764 212.896 212.964 214.289 211.344 215.876L200.276 212.455L194.913 221.775L203.493 229.572C202.938 231.771 202.654 234.029 202.646 236.297L192.382 241.659L195.213 252.041L206.797 251.494C207.945 253.447 209.332 255.248 210.926 256.857L207.483 267.861L216.825 273.224L224.59 264.772C226.796 265.327 229.061 265.612 231.336 265.619L236.698 275.873L247.08 273.052L246.619 263.163L246.544 261.469C248.514 260.309 250.336 258.916 251.971 257.318L263.029 260.75L267.598 252.771L268.37 251.419L259.779 243.665ZM235.25 249.971C232.588 250.706 229.768 250.633 227.147 249.762C224.526 248.891 222.223 247.261 220.529 245.079C218.836 242.898 217.829 240.262 217.635 237.507C217.442 234.752 218.071 232.002 219.443 229.605C220.814 227.208 222.867 225.272 225.341 224.043C227.814 222.815 230.597 222.348 233.336 222.703C236.075 223.058 238.646 224.219 240.725 226.037C242.803 227.856 244.295 230.251 245.01 232.918C245.964 236.473 245.473 240.261 243.645 243.456C241.816 246.651 238.799 248.993 235.25 249.971Z" fill="#263238"/>
<path d="M378.529 261.94L380.888 247.675L366.452 241.873C366.124 238.833 365.429 235.844 364.382 232.971L374.775 221.398L366.366 209.601L352.037 215.682C349.659 213.775 347.059 212.162 344.294 210.877L343.457 195.336L329.193 192.977L323.347 207.348C320.321 207.704 317.345 208.406 314.478 209.44L302.873 199.047L291.129 207.456L297.221 221.774C295.544 223.867 294.088 226.127 292.877 228.52C292.716 228.852 292.545 229.185 292.395 229.517L276.864 230.375L274.494 244.618L276.832 245.562L288.93 250.442C289.26 253.468 289.955 256.443 291 259.301L280.586 270.949L289.005 282.747L303.323 276.633C305.695 278.557 308.291 280.185 311.056 281.481L311.861 296.947L326.115 299.306L331.949 285.042C334.983 284.71 337.965 284.012 340.83 282.961L352.413 293.354L364.21 284.934L358.119 270.606C360.059 268.224 361.698 265.613 362.999 262.83L378.529 261.94ZM338.524 261.296C335.523 263.449 331.951 264.664 328.259 264.787C324.568 264.91 320.923 263.935 317.786 261.986C314.648 260.037 312.159 257.202 310.634 253.839C309.108 250.475 308.614 246.735 309.214 243.09C309.814 239.446 311.481 236.062 314.005 233.365C316.529 230.669 319.796 228.781 323.392 227.941C326.989 227.101 330.754 227.347 334.211 228.647C337.668 229.947 340.662 232.243 342.814 235.245C345.696 239.271 346.862 244.278 346.053 249.163C345.244 254.049 342.528 258.413 338.502 261.296H338.524Z" fill="#263238"/>
<path d="M185.218 156.34H73.0534C65.2879 156.34 58.9927 162.635 58.9927 170.401V325.691C58.9927 333.456 65.2879 339.752 73.0534 339.752H185.218C192.983 339.752 199.278 333.456 199.278 325.691V170.401C199.278 162.635 192.983 156.34 185.218 156.34Z" fill="#2AB6C5" stroke="#263238" stroke-width="1.1" stroke-miterlimit="10"/>
<path opacity="0.2" d="M185.218 156.34H73.0534C65.2879 156.34 58.9927 162.635 58.9927 170.401V325.691C58.9927 333.456 65.2879 339.752 73.0534 339.752H185.218C192.983 339.752 199.278 333.456 199.278 325.691V170.401C199.278 162.635 192.983 156.34 185.218 156.34Z" fill="black"/>
<path d="M212.331 184.258V339.548C212.332 341.396 211.97 343.225 211.264 344.932C210.558 346.639 209.522 348.191 208.216 349.498C206.911 350.804 205.36 351.841 203.653 352.548C201.947 353.256 200.117 353.62 198.27 353.62H86.1059C84.2594 353.618 82.4313 353.253 80.7259 352.545C79.0205 351.837 77.4713 350.8 76.1666 349.494C74.862 348.187 73.8274 346.636 73.1221 344.93C72.4168 343.223 72.0545 341.395 72.0559 339.548V184.258C72.0559 180.531 73.5358 176.956 76.1704 174.319C78.805 171.683 82.3786 170.2 86.1059 170.197H198.27C201.999 170.197 205.576 171.679 208.213 174.316C210.849 176.952 212.331 180.529 212.331 184.258Z" fill="white" stroke="#263238" stroke-width="1.1" stroke-linecap="round" stroke-linejoin="round"/>
<path d="M212.331 184.258V192.57H72.0559V184.258C72.0559 180.531 73.5358 176.956 76.1704 174.319C78.805 171.683 82.3786 170.2 86.1059 170.197H198.27C201.999 170.197 205.576 171.679 208.213 174.316C210.849 176.952 212.331 180.529 212.331 184.258Z" fill="#2AB6C5" stroke="#263238" stroke-width="1.1" stroke-miterlimit="10"/>
<path d="M119.762 202.203H85.248V207.995H119.762V202.203Z" fill="#2AB6C5"/>
<path d="M119.762 254.1H85.248V259.891H119.762V254.1Z" fill="#2AB6C5"/>
<path d="M119.762 301.164H85.248V306.956H119.762V301.164Z" fill="#2AB6C5"/>
<path d="M183.266 216.541H85.248V220.788H183.266V216.541Z" fill="#263238"/>
<path d="M165.591 224.66H85.248V228.8H165.591V224.66Z" fill="#263238"/>
<path d="M176.112 232.65H85.248V236.79H176.112V232.65Z" fill="#263238"/>
<path d="M176.112 240.631H85.248V244.771H176.112V240.631Z" fill="#263238"/>
<path d="M183.266 263.604H85.248V267.851H183.266V263.604Z" fill="#263238"/>
<path d="M165.591 271.721H85.248V275.861H165.591V271.721Z" fill="#263238"/>
<path d="M176.112 279.713H85.248V283.853H176.112V279.713Z" fill="#263238"/>
<path d="M183.266 315.277H85.248V319.525H183.266V315.277Z" fill="#263238"/>
<path d="M165.591 323.408H85.248V327.548H165.591V323.408Z" fill="#263238"/>
<path d="M176.112 331.396H85.248V335.536H176.112V331.396Z" fill="#263238"/>
<path d="M370.431 62.5164V125.28C370.431 127.483 369.997 129.663 369.154 131.698C368.311 133.732 367.075 135.581 365.517 137.138C363.96 138.694 362.11 139.929 360.075 140.771C358.04 141.613 355.859 142.045 353.657 142.044H209.103C206.9 142.045 204.719 141.613 202.684 140.771C200.649 139.929 198.8 138.694 197.242 137.138C195.684 135.581 194.449 133.732 193.605 131.698C192.762 129.663 192.328 127.483 192.328 125.28V62.5164C192.331 58.0685 194.099 53.8035 197.245 50.6584C200.39 47.5132 204.655 45.745 209.103 45.7422H353.657C358.106 45.7422 362.372 47.5095 365.518 50.6552C368.664 53.801 370.431 58.0676 370.431 62.5164Z" fill="white" stroke="#222221" stroke-width="1.1" stroke-miterlimit="10"/>
<path d="M370.431 62.5164V63.9536H192.328V62.5164C192.331 58.0685 194.099 53.8035 197.245 50.6584C200.39 47.5132 204.655 45.745 209.103 45.7422H353.657C358.106 45.7422 362.372 47.5095 365.518 50.6552C368.664 53.801 370.431 58.0676 370.431 62.5164Z" fill="#2AB6C5" stroke="#263238" stroke-width="1.1" stroke-miterlimit="10"/>
<path d="M218.498 57.851C218.138 58.2116 217.68 58.4573 217.18 58.5572C216.681 58.657 216.163 58.6064 215.692 58.4117C215.221 58.2171 214.819 57.8872 214.536 57.4637C214.253 57.0403 214.102 56.5424 214.102 56.033C214.102 55.5237 214.253 55.0258 214.536 54.6023C214.819 54.1789 215.221 53.849 215.692 53.6543C216.163 53.4597 216.681 53.4091 217.18 53.5089C217.68 53.6087 218.138 53.8545 218.498 54.2151C218.977 54.699 219.245 55.3523 219.245 56.033C219.245 56.7138 218.977 57.367 218.498 57.851Z" fill="#263238"/>
<path d="M230.424 57.851C230.065 58.2116 229.606 58.4573 229.107 58.5572C228.607 58.657 228.089 58.6064 227.619 58.4117C227.148 58.2171 226.745 57.8872 226.462 57.4637C226.179 57.0403 226.028 56.5424 226.028 56.033C226.028 55.5237 226.179 55.0258 226.462 54.6023C226.745 54.1789 227.148 53.849 227.619 53.6543C228.089 53.4597 228.607 53.4091 229.107 53.5089C229.606 53.6087 230.065 53.8545 230.424 54.2151C230.903 54.699 231.172 55.3523 231.172 56.033C231.172 56.7138 230.903 57.367 230.424 57.851Z" fill="#263238"/>
<path d="M242.351 57.851C241.991 58.2116 241.532 58.4573 241.033 58.5572C240.533 58.657 240.016 58.6064 239.545 58.4117C239.074 58.2171 238.672 57.8872 238.389 57.4637C238.105 57.0403 237.954 56.5424 237.954 56.033C237.954 55.5237 238.105 55.0258 238.389 54.6023C238.672 54.1789 239.074 53.849 239.545 53.6543C240.016 53.4597 240.533 53.4091 241.033 53.5089C241.532 53.6087 241.991 53.8545 242.351 54.2151C242.83 54.699 243.098 55.3523 243.098 56.033C243.098 56.7138 242.83 57.367 242.351 57.851Z" fill="#263238"/>
<path d="M261.903 75.4941H203.686V125.817H261.903V75.4941Z" stroke="#263238" stroke-width="1.1" stroke-linecap="round" stroke-linejoin="round" stroke-dasharray="4.41 4.41"/>
<path d="M337.891 75.4941H270.891V79.0335H337.891V75.4941Z" fill="#263238"/>
<path d="M322.286 82.8203H270.891V86.3489H322.286V82.8203Z" fill="#263238"/>
<path d="M347.415 90.1113H270.891V93.6828H347.415V90.1113Z" fill="#263238"/>
<path d="M336.057 97.2227H270.891V100.794H336.057V97.2227Z" fill="#263238"/>
<path d="M285.799 427.366C285.799 427.366 254.695 436.278 250.352 437.823C246.405 439.217 235.701 442.971 227.668 441.802C226.892 441.69 226.126 441.525 225.373 441.308C217.232 438.884 213.575 436.621 212.503 431.506C211.43 426.39 215.484 422.614 219.388 420.201C223.292 417.788 244.464 415.268 244.464 415.268L249.58 416.769L285.799 427.366Z" fill="#2AB6C5"/>
<path d="M227.668 441.802C226.892 441.69 226.126 441.525 225.373 441.308C217.232 438.884 213.575 436.621 212.503 431.506C211.43 426.39 215.484 422.614 219.388 420.201C223.292 417.788 244.464 415.268 244.464 415.268L249.58 416.769C244.946 418.914 227.7 420.083 223.936 422.25C220.171 424.416 218.358 428.492 220.579 434.047C221.769 436.943 224.944 439.785 227.668 441.802Z" fill="white"/>
<path d="M281.122 428.633C281.122 428.633 257.763 434.682 248.496 438.553C239.23 442.425 221.565 444.12 215.248 436.14C208.931 428.161 214.519 421.275 220.815 419.741C227.11 418.208 239.841 415.795 246.791 416.771" stroke="#263238" stroke-width="1.1" stroke-linecap="round" stroke-linejoin="round"/>
<path d="M228.129 441.382C228.129 441.382 216.246 434.861 220.193 425.723C223.11 418.988 238.962 420.446 246.812 416.768" stroke="#263238" stroke-width="1.1" stroke-linecap="round" stroke-linejoin="round"/>
<path d="M380.534 443.249C380.213 446.466 379.086 449.48 375.869 451.378C373.724 452.644 370.678 453.395 366.313 453.352C355.405 453.212 334.899 445.415 334.899 445.415L315.7 434.797L325.686 418.999L328.421 414.709L335.478 416.296C335.478 416.296 341.323 419.61 347.2 422.249C353.078 424.887 367.353 425.466 372.383 429.51C377.413 433.553 381.081 437.95 380.534 443.249Z" fill="#2AB6C5"/>
<path d="M380.534 443.249C380.212 446.466 379.086 449.48 375.869 451.378C376.796 448.215 376.606 444.83 375.333 441.79C373.187 436.975 366.205 432.727 357.025 432.019C347.844 431.312 340.819 427.021 337.14 425.102C334.266 423.611 328.206 420.35 325.686 418.999L328.42 414.709L335.478 416.296C335.478 416.296 341.323 419.61 347.2 422.249C353.078 424.887 367.353 425.466 372.383 429.51C377.413 433.553 381.081 437.95 380.534 443.249Z" fill="white"/>
<path d="M319.958 437.779C333.778 445.811 349.051 451.028 364.897 453.126C368.394 453.545 372.458 453.609 374.796 450.981C375.419 450.222 375.882 449.346 376.158 448.404C376.434 447.463 376.518 446.475 376.405 445.501C375.987 440.567 371.836 436.663 367.289 434.7C362.741 432.738 357.733 432.287 352.896 431.204C348.085 430.119 343.435 428.418 339.06 426.142C335.585 424.329 332.228 422.13 328.399 421.315C324.57 420.5 320.012 421.487 317.964 424.833" stroke="#263238" stroke-width="1.1" stroke-linecap="round" stroke-linejoin="round"/>
<path d="M373.509 452.323C375.306 451.462 376.877 450.194 378.097 448.618C379.317 447.043 380.151 445.204 380.534 443.249C381.232 438.605 378.582 433.929 374.861 431.076C371.139 428.223 366.474 426.872 361.873 425.917C357.271 424.963 352.563 424.319 348.155 422.571C341.43 419.933 334.791 414.742 327.777 416.597" stroke="#263238" stroke-width="1.1" stroke-linecap="round" stroke-linejoin="round"/>
<path d="M341.623 271.625L309.137 259.27L308.729 259.109C308.729 259.109 308.847 258.251 308.943 256.964C309.147 254.369 309.255 250.143 308.032 248.716C306.219 246.571 301.093 248.373 296.084 246.078C291.075 243.783 281.819 247.89 281.819 247.89C281.819 247.89 275.127 246.657 272.167 251.483C270.665 255.377 271.18 261.136 271.18 261.136L270.569 261.351C266.697 262.799 245.633 270.724 241.182 273.91C236.259 277.396 230.81 313.186 229.062 323.696C227.314 334.207 224.204 343.677 225.78 347.292C227.357 350.906 249.987 368.335 263.007 372.828C276.028 377.322 322.2 376.046 322.2 376.046C322.2 376.046 322.951 375.842 324.291 375.413C332.099 372.903 359.802 362.543 374.507 338.218C374.528 338.261 360.285 291.574 341.623 271.625ZM253.848 331.826C251.456 333.521 252.776 340.084 252.776 340.084L248.711 336.502L258.921 311.394L263.276 330.7C263.276 330.7 256.24 330.142 253.848 331.826ZM335.531 347.774C334.405 348.353 338.749 336.288 336.69 333.553C334.63 330.818 328.42 331.075 328.42 331.075L328.946 327.783L332.625 308.906L333.847 307.458C333.847 307.458 346.482 329.112 348.745 336.749C348.745 336.77 334.974 347.774 335.531 347.774Z" fill="#2AB6C5"/>
<path d="M280.286 193.32L263.512 211.124C263.512 211.124 261.206 213.173 262.117 218.331C263.029 223.49 265.174 227.984 266.794 228.284C268.076 228.509 269.374 228.624 270.676 228.628C270.676 228.628 274.269 236.414 276.822 239.471C276.822 239.471 277.701 251.494 277.229 254.829C277.229 254.829 283.257 260.095 288.93 260.76C294.604 261.425 303.366 252.738 303.366 252.738L305.511 242.099C305.511 242.099 310.66 234.291 311.003 232.21C311.346 230.129 313.706 230.665 314.864 229.636C316.022 228.606 318.693 224.027 319.154 219.694C319.615 215.361 319.626 210.384 314.596 211.843C310.231 210.674 312.966 201.45 312.966 201.45L305.297 194.693L280.286 193.32Z" fill="white"/>
<path opacity="0.5" d="M309.136 259.271C308.883 259.934 308.593 260.582 308.268 261.212C305.501 266.425 293.445 276.367 293.445 276.367L289.799 265.159L287.804 276.367C283.782 274.608 271.512 263.979 271.512 263.979C271.512 263.979 271.094 262.982 270.59 261.427L271.201 261.212C271.201 261.212 270.687 255.41 272.188 251.56C275.127 246.733 281.841 247.967 281.841 247.967C281.841 247.967 291.097 243.859 296.105 246.154C301.114 248.449 306.241 246.669 308.053 248.792C309.866 250.916 308.75 259.153 308.75 259.153L309.136 259.271Z" fill="white"/>
<path opacity="0.2" d="M341.623 271.624L309.137 259.269L308.729 259.108C308.729 259.108 308.847 258.25 308.944 256.963L308.268 261.178L303.463 267.699C308.599 269.59 313.614 271.796 318.478 274.306C320.807 275.553 322.707 277.472 323.931 279.813C325.155 282.154 325.647 284.809 325.343 287.433L319.358 338.646L316.902 367.722L324.313 375.412C332.121 372.902 359.824 362.542 374.528 338.217C374.528 338.26 360.285 291.573 341.623 271.624ZM335.532 347.773C334.405 348.352 338.749 336.286 336.69 333.552C334.631 330.817 328.421 331.074 328.421 331.074L328.946 327.781L332.625 308.905L333.848 307.457C333.848 307.457 346.482 329.111 348.745 336.748C348.745 336.769 334.974 347.773 335.532 347.773Z" fill="black"/>
<path opacity="0.2" d="M265.431 333.552L260.38 316.67C260.38 316.67 251.317 285.771 245.107 278.156L246.737 299.885C246.737 299.885 241.375 325.84 236.473 333.552C231.572 341.263 230.478 343.205 236.473 343.205C242.469 343.205 257.066 354.831 257.066 354.831L255.939 345.178L265.431 333.552ZM252.7 340.084L248.636 336.501L258.846 311.394L263.2 330.699C263.2 330.699 256.208 330.173 253.816 331.857C251.424 333.541 252.7 340.084 252.7 340.084Z" fill="black"/>
<path d="M276.822 239.471C276.822 239.471 277.744 248.576 276.822 252.738" stroke="#263238" stroke-width="1.1" stroke-linecap="round" stroke-linejoin="round"/>
<path d="M304.299 251.515C304.309 248.587 304.647 245.669 305.307 242.816" stroke="#263238" stroke-width="1.1" stroke-linecap="round" stroke-linejoin="round"/>
<path d="M306.734 200.109C306.734 200.109 312.247 207.027 311.957 212.261C311.668 217.495 311.26 223.694 311.4 229.765C311.539 235.835 301.65 248.555 296.567 249.681C291.483 250.807 287.107 251.097 283.857 247.847C280.608 244.598 277.358 240.082 273.132 234.291C268.906 228.499 269.915 215.79 269.915 215.79" stroke="#263238" stroke-width="1.1" stroke-linecap="round" stroke-linejoin="round"/>
<path d="M293.456 220.627C293.121 222.528 292.977 224.457 293.027 226.386C292.917 228.012 293.422 229.621 294.443 230.891C295.055 231.513 295.934 232.017 296.052 232.875C296.049 233.261 295.942 233.64 295.742 233.97C295.542 234.3 295.256 234.571 294.915 234.752C294.227 235.099 293.564 235.493 292.931 235.932" stroke="#263238" stroke-width="1.1" stroke-linecap="round" stroke-linejoin="round"/>
<path d="M284.737 236.596C284.737 236.596 285.369 240.703 290.871 241.561" stroke="#263238" stroke-width="1.1" stroke-linecap="round" stroke-linejoin="round"/>
<path d="M285.305 223.758C285.305 224.949 284.79 225.903 284.158 225.903C283.525 225.903 283.01 224.949 283.01 223.758C283.01 222.568 283.525 221.613 284.158 221.613C284.79 221.613 285.305 222.579 285.305 223.758Z" fill="#263238"/>
<path d="M301.726 224.274C301.726 225.464 301.211 226.419 300.578 226.419C299.945 226.419 299.43 225.454 299.43 224.274C299.43 223.094 299.945 222.129 300.578 222.129C301.211 222.129 301.726 223.083 301.726 224.274Z" fill="#263238"/>
<path d="M298.411 219.073C298.411 219.073 303.774 213.71 308.268 219.695" stroke="#263238" stroke-width="2.21" stroke-linecap="round" stroke-linejoin="round"/>
<path d="M287.118 219.178C287.118 219.178 283.729 215.381 278.387 219.178" stroke="#263238" stroke-width="2.21" stroke-linecap="round" stroke-linejoin="round"/>
<path d="M277.229 244.533C277.229 244.533 280.5 253.542 287.804 256.106C295.108 258.669 304.804 245.38 304.804 245.38L304.299 243.654C304.299 243.654 297.939 251.912 290.872 250.507C283.804 249.102 276.822 239.514 276.822 239.514L277.229 244.533Z" fill="#263238"/>
<path d="M270.676 228.283C270.676 228.283 266.321 229.817 265.163 226.428C264.005 223.039 260.036 214.105 263.511 211.123C266.986 208.141 269.775 215.059 269.775 215.059" stroke="#263238" stroke-width="1.1" stroke-linecap="round" stroke-linejoin="round"/>
<path d="M311.389 230.129C311.389 230.129 315.432 230.944 316.591 227.555C317.749 224.166 321.717 215.232 318.242 212.25C314.767 209.268 311.979 216.186 311.979 216.186" stroke="#263238" stroke-width="1.1" stroke-linecap="round" stroke-linejoin="round"/>
<path d="M269.775 223.758C271.288 223.52 272.653 222.714 273.593 221.506C274.168 220.445 274.532 219.283 274.666 218.085C275.064 215.804 275.265 213.493 275.266 211.177C275.219 210.273 275.302 209.366 275.513 208.485C275.835 207.599 276.331 206.786 276.972 206.094C278.484 204.313 280.318 202.812 281.766 200.967C282.542 200.097 283.132 199.077 283.501 197.971C283.87 196.864 284.009 195.694 283.911 194.532C287.229 197.268 291.106 199.243 295.27 200.32C299.433 201.397 303.782 201.548 308.01 200.763C315.679 199.262 323.026 192.537 322.135 184.086C321.967 182.669 321.36 181.34 320.398 180.286C319.436 179.232 318.169 178.505 316.773 178.208C312.987 177.264 309.587 179.281 306.155 180.578C299.902 182.938 293.778 178.884 287.461 178.208C282.098 177.618 275.417 178.294 272.607 183.667C272.607 183.667 262.954 184.804 258.664 192.784C254.374 200.763 262.493 211.8 262.493 211.8C262.493 211.8 265.71 207.853 269.925 215.832L269.775 223.758Z" fill="#263238"/>
<path d="M307.399 198.072C307.399 198.072 304.889 211.157 311.443 217.495C311.443 217.495 312.88 213.559 314.328 212.594C315.372 210.272 315.814 207.724 315.613 205.186C315.413 202.648 314.576 200.201 313.18 198.072C308.332 190.457 307.399 198.072 307.399 198.072Z" fill="#263238"/>
<path opacity="0.2" d="M319.347 183.186C318.772 184.971 317.796 186.601 316.495 187.953C315.194 189.304 313.602 190.34 311.839 190.983C302.744 194.694 293.917 190.586 284.801 189.782C277.369 189.117 269.164 195.831 268.638 203.467" stroke="white" stroke-width="1.1" stroke-linecap="round" stroke-linejoin="round"/>
<path opacity="0.2" d="M263.029 201.448C263.14 198.435 264.107 195.516 265.816 193.031C267.526 190.547 269.907 188.601 272.681 187.42" stroke="white" stroke-width="1.1" stroke-linecap="round" stroke-linejoin="round"/>
<path d="M274.719 251.514C278.719 255.682 283.545 258.97 288.887 261.167C288.887 261.167 299.774 258.003 305.308 250.441" stroke="#263238" stroke-width="1.1" stroke-linecap="round" stroke-linejoin="round"/>
<path d="M285.844 232.491C290.679 230.274 292.801 224.556 290.583 219.722C288.365 214.887 282.648 212.765 277.813 214.983C272.978 217.2 270.857 222.917 273.074 227.752C275.292 232.587 281.009 234.709 285.844 232.491Z" stroke="#263238" stroke-width="1.1" stroke-linecap="round" stroke-linejoin="round"/>
<path d="M304.507 233.34C309.787 232.691 313.541 227.886 312.893 222.606C312.245 217.327 307.439 213.573 302.16 214.221C296.88 214.869 293.126 219.674 293.774 224.954C294.422 230.234 299.228 233.988 304.507 233.34Z" stroke="#263238" stroke-width="1.1" stroke-linecap="round" stroke-linejoin="round"/>
<path d="M276.821 247.922C275.846 248.178 274.931 248.628 274.134 249.246C273.336 249.863 272.67 250.635 272.177 251.515C270.472 254.518 271.502 263.967 271.502 263.967C271.502 263.967 280.307 272.676 287.804 276.354L290.013 263.924L293.445 276.354C293.445 276.354 305.05 268.15 308.268 261.21C308.268 261.21 309.34 253.113 308.268 250.485C308.024 249.755 307.56 249.119 306.939 248.664C306.319 248.209 305.573 247.957 304.803 247.943" stroke="#263238" stroke-width="1.1" stroke-linecap="round" stroke-linejoin="round"/>
<path d="M263.029 331.084C263.029 331.084 259.586 308.025 255.006 298.619" stroke="#263238" stroke-width="1.1" stroke-linecap="round" stroke-linejoin="round"/>
<path d="M245.107 278.156C247.774 281.946 250.154 285.929 252.229 290.072" stroke="#263238" stroke-width="1.1" stroke-linecap="round" stroke-linejoin="round"/>
<path d="M335.531 295.37C336.456 291.514 337.723 287.749 339.317 284.119" stroke="#263238" stroke-width="1.1" stroke-linecap="round" stroke-linejoin="round"/>
<path d="M328.421 331.085C328.421 331.085 330.898 315.276 333.858 302.256" stroke="#263238" stroke-width="1.1" stroke-linecap="round" stroke-linejoin="round"/>
<path d="M332.625 308.884C335.019 305.709 338.387 303.404 342.213 302.32" stroke="#263238" stroke-width="1.1" stroke-linecap="round" stroke-linejoin="round"/>
<path d="M308.74 259.107C308.74 259.107 328.721 267.098 341.623 271.634C341.623 271.634 357.496 286.553 374.517 338.259C374.517 338.259 358.923 364.493 329.257 372.902" stroke="#263238" stroke-width="1.1" stroke-linecap="round" stroke-linejoin="round"/>
<path d="M334.405 348.707L348.745 336.77C348.745 336.77 356.327 331.01 364.21 334.946" stroke="#263238" stroke-width="1.1" stroke-linecap="round" stroke-linejoin="round"/>
<path d="M333.858 307.457C333.858 307.457 345.709 324.971 348.745 336.769" stroke="#263238" stroke-width="1.1" stroke-linecap="round" stroke-linejoin="round"/>
<path d="M252.861 340.748L248.668 336.769C248.668 336.769 242.447 335.697 235.39 340.405" stroke="#263238" stroke-width="1.1" stroke-linecap="round" stroke-linejoin="round"/>
<path d="M248.668 336.77C248.668 336.77 253.88 319.61 259.018 310.826" stroke="#263238" stroke-width="1.1" stroke-linecap="round" stroke-linejoin="round"/>
<path d="M271.201 261.211C271.201 261.211 242.447 272 239.626 275.154C236.806 278.307 226.091 338.636 225.802 345.543C225.555 351.721 247.949 365.589 259.05 371.434" stroke="#263238" stroke-width="1.1" stroke-linecap="round" stroke-linejoin="round"/>
<path d="M375.3 218.289H342.535C338.667 218.289 335.531 221.425 335.531 225.293V244.523C335.531 248.391 338.667 251.526 342.535 251.526H375.3C379.168 251.526 382.304 248.391 382.304 244.523V225.293C382.304 221.425 379.168 218.289 375.3 218.289Z" fill="white" stroke="#263238" stroke-width="1.1" stroke-linecap="round" stroke-linejoin="round"/>
<path d="M350.621 228.283L341.623 233.925L349.978 241.325" stroke="#263238" stroke-width="1.1" stroke-linecap="round" stroke-linejoin="round"/>
<path d="M367.01 241.862L375.097 234.977L365.766 228.863" stroke="#263238" stroke-width="1.1" stroke-linecap="round" stroke-linejoin="round"/>
<path d="M354.998 246.11L361.636 225.281" stroke="#263238" stroke-width="1.1" stroke-linecap="round" stroke-linejoin="round"/>
<path d="M292.706 281.6C292.706 281.975 292.594 282.342 292.386 282.654C292.177 282.966 291.881 283.21 291.534 283.353C291.187 283.497 290.805 283.535 290.437 283.461C290.069 283.388 289.73 283.207 289.465 282.942C289.199 282.676 289.019 282.338 288.945 281.97C288.872 281.602 288.91 281.22 289.053 280.873C289.197 280.526 289.44 280.23 289.753 280.021C290.065 279.813 290.432 279.701 290.807 279.701C291.057 279.7 291.304 279.748 291.535 279.843C291.766 279.938 291.976 280.077 292.153 280.254C292.329 280.431 292.469 280.64 292.564 280.871C292.659 281.102 292.707 281.35 292.706 281.6Z" fill="#263238"/>
<path d="M325.975 382.651H260.551C260.145 382.651 259.754 382.49 259.467 382.202C259.179 381.915 259.018 381.524 259.018 381.118C259.018 380.711 259.179 380.321 259.467 380.033C259.754 379.746 260.145 379.584 260.551 379.584H325.975C326.382 379.584 326.772 379.746 327.06 380.033C327.347 380.321 327.509 380.711 327.509 381.118C327.509 381.524 327.347 381.915 327.06 382.202C326.772 382.49 326.382 382.651 325.975 382.651Z" fill="#263238"/>
<path d="M328.27 377.525L337.033 336.34C337.169 335.702 337.16 335.041 337.008 334.406C336.855 333.771 336.562 333.179 336.151 332.672C335.74 332.165 335.22 331.756 334.63 331.476C334.041 331.196 333.396 331.051 332.743 331.053H256.272C255.625 331.053 254.985 331.197 254.4 331.474C253.815 331.751 253.299 332.154 252.889 332.655C252.478 333.155 252.184 333.741 252.027 334.369C251.87 334.997 251.855 335.652 251.982 336.287L259.843 376.099C260.036 377.076 260.557 377.959 261.319 378.601C262.082 379.242 263.041 379.604 264.037 379.627L323.873 381C324.896 381.023 325.894 380.688 326.697 380.054C327.5 379.42 328.056 378.525 328.27 377.525Z" fill="white" stroke="#263238" stroke-width="1.1" stroke-linecap="round" stroke-linejoin="round"/>
<path d="M300.363 354.82C300.361 356.027 300.002 357.206 299.33 358.208C298.658 359.21 297.704 359.991 296.589 360.451C295.474 360.911 294.247 361.03 293.064 360.794C291.881 360.557 290.794 359.975 289.942 359.121C289.089 358.267 288.509 357.18 288.275 355.996C288.04 354.813 288.162 353.586 288.624 352.472C289.086 351.357 289.868 350.405 290.872 349.735C291.875 349.065 293.054 348.707 294.261 348.707C295.063 348.707 295.858 348.865 296.599 349.173C297.34 349.48 298.013 349.93 298.58 350.498C299.147 351.066 299.596 351.74 299.902 352.482C300.208 353.223 300.365 354.018 300.363 354.82Z" fill="#263238"/>
<path d="M312.365 334.988H321.449" stroke="#263238" stroke-width="1.1" stroke-linecap="round" stroke-linejoin="round"/>
<path d="M268.981 334.988H303.463" stroke="#263238" stroke-width="1.1" stroke-linecap="round" stroke-linejoin="round"/>
<path d="M328.421 421.253L321.449 439.551C321.449 439.551 303.667 435.067 280.897 430.402C257.076 425.522 232.205 419.205 219.302 396.564C217.736 393.808 216.685 390.547 217.425 387.458C219.281 379.64 229.459 377.516 236.162 376.733C240.376 376.277 244.612 376.041 248.85 376.025C250.995 376.025 258.128 374.856 259.854 376.132C262.449 378.025 265.218 379.666 268.123 381.034C271.931 382.653 327.509 379.586 327.509 379.586C328.476 377.477 329.067 375.216 329.257 372.904C337.998 368.464 358.215 364.71 366.795 366.372C380.234 368.979 388.074 376.819 386.583 385.034C385.092 393.25 355.405 415.279 328.421 421.253Z" fill="#263238"/>
<path d="M328.42 421.253C328.42 421.253 311.507 416.77 297.693 407.439C283.879 398.108 273.089 387.275 253.837 389.517" stroke="white" stroke-width="1.1" stroke-linecap="round" stroke-linejoin="round"/>
<path d="M294.529 405.239C303.259 402.729 309.662 397.077 316.666 391.661C324.053 385.732 331.986 380.518 340.358 376.088" stroke="white" stroke-width="1.1" stroke-linecap="round" stroke-linejoin="round"/>
<path d="M291.451 225.281H294.014" stroke="#263238" stroke-width="1.1" stroke-linecap="round" stroke-linejoin="round"/>
</svg>
