<svg width="381" height="378" viewBox="0 0 381 378" fill="none" xmlns="http://www.w3.org/2000/svg">
<path d="M334.35 323.729C326.585 331.834 319.236 337.056 313.431 341.191C245.191 389.739 164.443 375.588 147.279 372.132C121.938 367.029 72.9532 357.165 37.5364 315.872C-16.043 253.399 -7.70014 154.974 33.8647 90.0032C41.4665 78.1192 81.6225 12.1594 163.24 1.58088C212.634 -4.82145 270.212 8.09064 311.907 42.7255C399.43 115.429 393.199 262.302 334.35 323.729Z" fill="#C7FCFF" fill-opacity="0.43"/>
<path d="M70.9893 208.323C70.9893 208.323 53.3108 170.233 66.5588 152.214C79.8068 134.196 110.698 113.08 87.9049 57.2686C74.5576 24.5865 69.1983 10.0929 67.0456 3.68918C66.8508 3.10795 66.5241 2.57969 66.0912 2.14571C65.6583 1.71173 65.1308 1.3838 64.55 1.18758C63.9693 0.991359 63.351 0.93217 62.7435 1.01464C62.1361 1.09711 61.556 1.319 61.0486 1.66295C45.637 12.1341 -3.23586 48.8999 1.53733 91.1052C7.19581 141.139 70.9893 208.323 70.9893 208.323Z" fill="#81D6DF"/>
<g style="mix-blend-mode:soft-light">
<path d="M54.7593 22.69C43.4859 47.1503 34.8411 85.5167 36.148 119.553C36.7762 124.982 36.9503 137.033 42.9855 155.955C47.9082 171.782 55.6813 187.388 62.2876 197.081C62.3869 197.227 62.5139 197.352 62.6614 197.449C62.8089 197.545 62.974 197.612 63.1472 197.645C63.3205 197.678 63.4986 197.676 63.6712 197.64C63.8438 197.604 64.0077 197.534 64.1534 197.435C65.2073 196.717 64.5165 195.548 64.5233 195.591C54.3718 178.534 45.5393 155.649 41.9601 133.087C37.8261 105.27 42.2742 74.6199 48.8302 47.4141L49.5455 44.7052C54.8287 24.0934 57.2969 22.8818 55.7153 22.297C55.5357 22.2309 55.3378 22.2346 55.1608 22.3074C54.9838 22.3802 54.8405 22.5167 54.7593 22.69Z" fill="white"/>
</g>
<path d="M85.6123 221.562C83.4365 223.679 86.0883 177.612 77.1389 121.166C72.9233 94.5667 76.0646 65.9085 86.499 49.0093C95.1846 34.944 138.078 28.0847 152.224 26.1795C152.62 26.1254 153.023 26.1852 153.387 26.352C153.75 26.5188 154.058 26.7857 154.276 27.1214C154.493 27.4571 154.61 27.8478 154.614 28.2476C154.617 28.6475 154.506 29.04 154.295 29.3793C149.641 36.8397 140.07 53.9796 140.66 67.9239C141.438 86.3027 128.906 102.231 115.509 109.797C102.113 117.364 95.0499 122.773 95.5191 147.98C95.9882 173.187 91.8134 215.545 85.6123 221.562Z" fill="#8BE1E5" fill-opacity="0.43"/>
<g style="mix-blend-mode:soft-light">
<path d="M135.761 39.4082C118.958 45.6637 103.201 59.3835 98.6643 76.979L98.24 78.6544C97.2786 82.575 93.358 109.488 93.2424 130.779C93.2421 130.906 93.2923 131.029 93.382 131.119C93.4717 131.21 93.5937 131.261 93.7211 131.262C93.8448 131.26 93.9633 131.212 94.0528 131.127C94.1424 131.041 94.1963 130.925 94.2039 130.802C95.1082 118.502 97.0011 102.665 98.7268 90.7193C100.514 77.7161 101.855 68.8701 111.889 57.5463C123.152 45.204 136.095 40.1017 136.052 40.1221C136.098 40.1018 136.14 40.0725 136.174 40.036C136.209 39.9994 136.237 39.9563 136.255 39.9092C136.273 39.8621 136.282 39.8118 136.281 39.7613C136.279 39.7108 136.268 39.661 136.247 39.6149C136.208 39.5252 136.135 39.454 136.045 39.4156C135.954 39.3772 135.853 39.3746 135.761 39.4082Z" fill="white"/>
</g>
<path d="M19.4362 290.132C19.4419 291.765 20.0936 293.329 21.2488 294.483C22.4041 295.637 23.969 296.287 25.6019 296.291H358.971C360.603 296.287 362.168 295.637 363.323 294.483C364.478 293.329 365.13 291.765 365.135 290.132L367.909 98.5541C367.909 95.1666 363.918 88.5535 356.604 89.0499L30.7994 80.6186C28.6954 80.5635 26.6022 80.9365 24.6467 81.7148C22.6912 82.4931 20.9142 83.6606 19.4236 85.1464C17.9329 86.6323 16.7597 88.4055 15.975 90.3584C15.1903 92.3114 14.8106 94.4034 14.8588 96.5075L19.4362 290.132Z" fill="#2AB6C5"/>
<path d="M25.5232 284.225C25.5272 285.77 26.143 287.252 27.2359 288.345C28.3289 289.438 29.8101 290.053 31.3558 290.057H350.928C352.474 290.053 353.955 289.438 355.048 288.345C356.141 287.252 356.757 285.77 356.761 284.225L359.381 110.305C359.073 99.8341 349.898 96.0767 344.336 96.2984L32.0806 87.9256C30.6015 87.887 29.1301 88.1495 27.7555 88.6969C26.3809 89.2444 25.132 90.0655 24.0844 91.1104C23.0369 92.1552 22.2126 93.4021 21.6616 94.7753C21.1106 96.1484 20.8445 97.6192 20.8792 99.0984L25.5232 284.225Z" fill="#F3FEFF" fill-opacity="0.43"/>
<path d="M3.00616 312.193L380.003 312.193C380.427 312.193 380.771 311.849 380.771 311.425V296.129C380.771 295.705 380.427 295.361 380.003 295.361L3.00616 295.361C2.58182 295.361 2.23785 295.705 2.23785 296.129V311.425C2.23785 311.849 2.58182 312.193 3.00616 312.193Z" fill="#2AB6C5"/>
<path opacity="0.53" d="M130.77 114.383L45.9853 113.789C45.8374 113.788 45.6911 113.758 45.5548 113.7C45.4185 113.643 45.2949 113.559 45.1911 113.453C45.0873 113.348 45.0052 113.223 44.9497 113.086C44.8942 112.949 44.8662 112.802 44.8675 112.654L44.9056 107.233C44.9064 107.085 44.9365 106.938 44.994 106.802C45.0515 106.665 45.1353 106.542 45.2406 106.438C45.346 106.334 45.4708 106.252 45.6079 106.196C45.745 106.14 45.8917 106.112 46.0397 106.113L130.824 106.708C130.972 106.709 131.118 106.739 131.255 106.796C131.391 106.854 131.514 106.938 131.618 107.043C131.722 107.148 131.804 107.273 131.86 107.41C131.915 107.547 131.943 107.694 131.942 107.842L131.904 113.264C131.903 113.412 131.873 113.558 131.816 113.694C131.758 113.831 131.674 113.954 131.569 114.058C131.464 114.162 131.339 114.244 131.202 114.3C131.065 114.356 130.918 114.384 130.77 114.383Z" fill="#8BE1E5" fill-opacity="0.43"/>
<path opacity="0.53" d="M185.297 114.934L156.918 114.736C156.632 114.732 156.359 114.615 156.158 114.412C155.958 114.208 155.845 113.934 155.845 113.648L155.884 108.133C155.888 107.848 156.005 107.575 156.208 107.374C156.412 107.173 156.686 107.061 156.972 107.061L185.352 107.259C185.638 107.263 185.911 107.379 186.111 107.583C186.312 107.787 186.425 108.061 186.425 108.347L186.385 113.86C186.385 114.002 186.356 114.142 186.301 114.273C186.246 114.404 186.165 114.523 186.064 114.623C185.963 114.723 185.843 114.802 185.712 114.855C185.58 114.908 185.439 114.935 185.297 114.934Z" fill="#8BE1E5" fill-opacity="0.43"/>
<path opacity="0.53" d="M251.269 115.396L194.39 114.997C193.934 114.994 193.498 114.81 193.178 114.486C192.858 114.162 192.68 113.723 192.683 113.268L192.713 109.029C192.716 108.573 192.9 108.138 193.224 107.818C193.549 107.498 193.987 107.319 194.443 107.322L251.322 107.721C251.778 107.724 252.214 107.908 252.534 108.232C252.854 108.557 253.032 108.995 253.029 109.451L252.999 113.691C252.998 113.916 252.952 114.139 252.864 114.347C252.776 114.555 252.648 114.743 252.487 114.902C252.327 115.06 252.137 115.185 251.928 115.27C251.719 115.355 251.495 115.398 251.269 115.396Z" fill="#8BE1E5" fill-opacity="0.43"/>
<path opacity="0.53" d="M44.6737 121.312L44.6441 125.552C44.6374 126.501 45.401 127.275 46.3496 127.282L66.2469 127.42C67.1954 127.427 67.9698 126.663 67.9764 125.715L68.006 121.475C68.0126 120.526 67.249 119.752 66.3005 119.745L46.4032 119.607C45.4546 119.6 44.6803 120.363 44.6737 121.312Z" fill="#8BE1E5" fill-opacity="0.43"/>
<path opacity="0.53" d="M130.849 127.887L69.8022 127.46C69.6543 127.459 69.5081 127.429 69.3719 127.372C69.2357 127.314 69.1122 127.23 69.0084 127.125C68.9046 127.02 68.8225 126.895 68.7669 126.758C68.7113 126.621 68.6833 126.474 68.6844 126.326L68.7224 120.904C68.7233 120.756 68.7534 120.61 68.8109 120.474C68.8684 120.337 68.9522 120.214 69.0575 120.11C69.1628 120.006 69.2876 119.924 69.4247 119.868C69.5619 119.812 69.7086 119.784 69.8566 119.785L130.902 120.214C131.05 120.214 131.196 120.245 131.332 120.302C131.469 120.36 131.592 120.443 131.696 120.549C131.8 120.654 131.882 120.779 131.937 120.916C131.993 121.053 132.021 121.2 132.02 121.348L131.981 126.77C131.981 126.917 131.951 127.064 131.893 127.2C131.836 127.336 131.752 127.459 131.647 127.563C131.542 127.667 131.417 127.749 131.28 127.805C131.143 127.86 130.997 127.888 130.849 127.887Z" fill="#8BE1E5" fill-opacity="0.43"/>
<path opacity="0.53" d="M185.448 128.438L157.07 128.24C156.928 128.239 156.788 128.21 156.657 128.155C156.526 128.1 156.408 128.019 156.308 127.918C156.208 127.817 156.13 127.697 156.076 127.566C156.023 127.434 155.996 127.294 155.997 127.152L156.037 121.637C156.04 121.351 156.157 121.079 156.36 120.878C156.564 120.677 156.838 120.564 157.124 120.564L185.502 120.764C185.644 120.765 185.785 120.794 185.916 120.849C186.046 120.904 186.165 120.985 186.264 121.086C186.364 121.187 186.443 121.307 186.496 121.438C186.55 121.57 186.577 121.71 186.575 121.852L186.537 127.365C186.536 127.507 186.508 127.648 186.452 127.779C186.397 127.909 186.317 128.028 186.215 128.128C186.114 128.227 185.994 128.306 185.863 128.359C185.731 128.413 185.59 128.439 185.448 128.438Z" fill="#8BE1E5" fill-opacity="0.43"/>
<path opacity="0.53" d="M300.555 129.244L215.632 128.65C215.407 128.648 215.184 128.602 214.976 128.514C214.768 128.427 214.58 128.299 214.421 128.138C214.263 127.978 214.138 127.787 214.053 127.578C213.968 127.369 213.925 127.146 213.927 126.92L213.955 122.68C213.959 122.225 214.143 121.789 214.467 121.469C214.792 121.15 215.23 120.972 215.685 120.975L300.609 121.569C301.064 121.572 301.5 121.756 301.82 122.081C302.14 122.405 302.318 122.843 302.315 123.299L302.285 127.539C302.282 127.994 302.097 128.43 301.773 128.749C301.449 129.069 301.011 129.247 300.555 129.244Z" fill="#8BE1E5" fill-opacity="0.43"/>
<path opacity="0.53" d="M44.5611 134.791L44.5315 139.031C44.5249 139.979 45.2885 140.753 46.237 140.76L66.1343 140.899C67.0829 140.906 67.8572 140.142 67.8638 139.193L67.8934 134.953C67.9001 134.005 67.1365 133.231 66.1879 133.224L46.2906 133.085C45.3421 133.078 44.5677 133.842 44.5611 134.791Z" fill="#8BE1E5" fill-opacity="0.43"/>
<path opacity="0.53" d="M130.724 141.371L69.6772 140.943C69.5293 140.942 69.3831 140.912 69.2469 140.854C69.1107 140.796 68.9872 140.713 68.8834 140.607C68.7796 140.502 68.6975 140.377 68.6419 140.24C68.5863 140.103 68.5583 139.957 68.5594 139.809L68.5974 134.387C68.5983 134.239 68.6284 134.092 68.6859 133.956C68.7434 133.82 68.8272 133.696 68.9325 133.592C69.0378 133.488 69.1626 133.406 69.2997 133.35C69.4368 133.295 69.5836 133.267 69.7316 133.268L130.777 133.696C130.925 133.697 131.071 133.727 131.207 133.784C131.344 133.842 131.467 133.926 131.571 134.031C131.675 134.136 131.758 134.261 131.813 134.398C131.869 134.535 131.897 134.682 131.896 134.83L131.858 140.252C131.856 140.551 131.735 140.836 131.522 141.046C131.31 141.256 131.022 141.373 130.724 141.371Z" fill="#8BE1E5" fill-opacity="0.43"/>
<path opacity="0.53" d="M185.331 141.919L156.952 141.717C156.666 141.713 156.393 141.597 156.192 141.393C155.991 141.189 155.879 140.915 155.879 140.629L155.918 135.116C155.919 134.974 155.948 134.834 156.003 134.703C156.058 134.572 156.139 134.454 156.24 134.354C156.341 134.254 156.461 134.176 156.592 134.122C156.724 134.069 156.864 134.042 157.006 134.043L185.386 134.242C185.672 134.245 185.944 134.362 186.145 134.565C186.346 134.769 186.459 135.044 186.459 135.329L186.419 140.842C186.419 140.985 186.39 141.125 186.335 141.257C186.28 141.388 186.2 141.507 186.099 141.607C185.998 141.707 185.878 141.786 185.746 141.84C185.615 141.893 185.474 141.921 185.331 141.919Z" fill="#8BE1E5" fill-opacity="0.43"/>
<path opacity="0.53" d="M338.052 142.99L226.351 142.208C225.895 142.205 225.459 142.021 225.139 141.697C224.819 141.372 224.641 140.934 224.644 140.479L224.674 136.239C224.678 135.783 224.862 135.348 225.186 135.028C225.51 134.708 225.948 134.53 226.404 134.533L338.106 135.315C338.332 135.317 338.555 135.363 338.762 135.451C338.97 135.538 339.159 135.666 339.317 135.827C339.475 135.987 339.6 136.178 339.685 136.387C339.77 136.596 339.813 136.819 339.811 137.045L339.781 141.285C339.78 141.511 339.734 141.734 339.646 141.942C339.559 142.149 339.431 142.338 339.27 142.496C339.109 142.655 338.919 142.78 338.71 142.865C338.501 142.949 338.277 142.992 338.052 142.99Z" fill="#8BE1E5" fill-opacity="0.43"/>
<path opacity="0.53" d="M45.022 148.902L44.9796 153.142C44.9701 154.09 45.7314 154.867 46.6799 154.877L66.5777 155.076C67.5263 155.085 68.303 154.324 68.3125 153.375L68.3549 149.135C68.3643 148.186 67.6031 147.41 66.6545 147.4L46.7567 147.201C45.8081 147.192 45.0315 147.953 45.022 148.902Z" fill="#8BE1E5" fill-opacity="0.43"/>
<path opacity="0.53" d="M130.96 154.876L69.9138 154.449C69.7659 154.448 69.6197 154.417 69.4835 154.36C69.3473 154.302 69.2237 154.218 69.1199 154.113C69.0161 154.008 68.9341 153.883 68.8785 153.746C68.8229 153.609 68.7949 153.462 68.7959 153.315L68.834 147.891C68.8351 147.743 68.8653 147.597 68.9228 147.461C68.9804 147.325 69.0642 147.201 69.1696 147.097C69.2749 146.994 69.3996 146.912 69.5366 146.856C69.6736 146.8 69.8203 146.772 69.9681 146.773L131.015 147.2C131.313 147.203 131.599 147.324 131.808 147.536C132.018 147.749 132.134 148.036 132.133 148.335L132.094 153.758C132.093 153.906 132.063 154.052 132.006 154.188C131.948 154.324 131.864 154.448 131.759 154.552C131.654 154.655 131.529 154.737 131.392 154.793C131.255 154.849 131.108 154.877 130.96 154.876Z" fill="#8BE1E5" fill-opacity="0.43"/>
<path opacity="0.53" d="M185.482 155.423L157.103 155.225C156.817 155.221 156.544 155.104 156.343 154.901C156.143 154.697 156.03 154.423 156.03 154.137L156.069 148.624C156.07 148.482 156.099 148.342 156.154 148.211C156.21 148.08 156.29 147.961 156.391 147.862C156.492 147.762 156.612 147.683 156.743 147.63C156.875 147.577 157.015 147.55 157.157 147.551L185.537 147.749C185.823 147.753 186.096 147.87 186.296 148.073C186.497 148.277 186.61 148.551 186.61 148.837L186.57 154.35C186.569 154.492 186.541 154.632 186.485 154.763C186.43 154.894 186.35 155.013 186.249 155.112C186.148 155.212 186.028 155.291 185.897 155.344C185.765 155.397 185.624 155.424 185.482 155.423Z" fill="#8BE1E5" fill-opacity="0.43"/>
<path opacity="0.53" d="M338.563 156.496L226.861 155.714C226.405 155.711 225.97 155.527 225.65 155.202C225.33 154.878 225.152 154.44 225.155 153.985L225.185 149.744C225.187 149.519 225.233 149.296 225.32 149.088C225.408 148.88 225.536 148.691 225.697 148.533C225.857 148.375 226.048 148.25 226.257 148.165C226.466 148.08 226.689 148.037 226.915 148.039L338.616 148.821C338.842 148.822 339.065 148.868 339.273 148.956C339.481 149.044 339.669 149.172 339.828 149.332C339.986 149.493 340.111 149.683 340.196 149.892C340.281 150.101 340.324 150.325 340.323 150.551L340.293 154.791C340.291 155.016 340.245 155.24 340.157 155.447C340.069 155.655 339.941 155.843 339.781 156.002C339.62 156.16 339.43 156.285 339.221 156.37C339.012 156.455 338.788 156.498 338.563 156.496Z" fill="#8BE1E5" fill-opacity="0.43"/>
<path opacity="0.53" d="M44.4852 162.304L44.4556 166.544C44.449 167.493 45.2126 168.267 46.1611 168.274L66.0584 168.413C67.007 168.419 67.7813 167.656 67.7879 166.707L67.8175 162.467C67.8241 161.519 67.0606 160.744 66.112 160.738L46.2147 160.599C45.2661 160.592 44.4918 161.356 44.4852 162.304Z" fill="#8BE1E5" fill-opacity="0.43"/>
<path opacity="0.53" d="M130.737 168.885L69.6923 168.458C69.5445 168.457 69.3982 168.427 69.262 168.37C69.1258 168.312 69.0023 168.228 68.8985 168.123C68.7947 168.018 68.7127 167.893 68.6571 167.756C68.6015 167.619 68.5734 167.472 68.5745 167.324L68.6126 161.901C68.6147 161.603 68.7352 161.317 68.9476 161.108C69.16 160.898 69.447 160.781 69.7454 160.783L130.792 161.21C130.94 161.211 131.086 161.241 131.222 161.299C131.358 161.357 131.482 161.44 131.586 161.546C131.689 161.651 131.772 161.776 131.827 161.913C131.883 162.05 131.911 162.197 131.91 162.344L131.872 167.768C131.871 167.915 131.84 168.062 131.783 168.198C131.725 168.334 131.641 168.458 131.536 168.561C131.431 168.665 131.306 168.747 131.169 168.803C131.032 168.858 130.885 168.886 130.737 168.885Z" fill="#8BE1E5" fill-opacity="0.43"/>
<path opacity="0.53" d="M185.292 169.432L156.912 169.234C156.77 169.233 156.63 169.204 156.499 169.149C156.369 169.094 156.25 169.013 156.15 168.912C156.051 168.811 155.972 168.692 155.919 168.56C155.865 168.429 155.838 168.288 155.839 168.146L155.877 162.632C155.881 162.346 155.998 162.073 156.201 161.872C156.405 161.671 156.679 161.559 156.965 161.559L185.343 161.758C185.485 161.759 185.626 161.788 185.756 161.843C185.887 161.899 186.006 161.979 186.105 162.08C186.205 162.181 186.284 162.301 186.337 162.432C186.391 162.564 186.417 162.704 186.416 162.846L186.378 168.359C186.377 168.501 186.349 168.641 186.294 168.772C186.238 168.903 186.158 169.021 186.057 169.121C185.956 169.221 185.837 169.299 185.705 169.353C185.574 169.406 185.434 169.433 185.292 169.432Z" fill="#8BE1E5" fill-opacity="0.43"/>
<path opacity="0.53" d="M338.236 170.504L226.534 169.722C226.309 169.721 226.086 169.674 225.878 169.587C225.67 169.499 225.482 169.371 225.323 169.21C225.165 169.05 225.04 168.86 224.955 168.651C224.87 168.442 224.827 168.218 224.829 167.992L224.859 163.752C224.86 163.527 224.906 163.304 224.994 163.096C225.082 162.888 225.209 162.699 225.37 162.541C225.531 162.383 225.721 162.257 225.93 162.173C226.139 162.088 226.363 162.045 226.589 162.047L338.289 162.829C338.745 162.832 339.181 163.016 339.501 163.34C339.821 163.665 339.999 164.103 339.996 164.559L339.966 168.799C339.963 169.254 339.778 169.69 339.454 170.009C339.13 170.329 338.692 170.507 338.236 170.504Z" fill="#8BE1E5" fill-opacity="0.43"/>
<path opacity="0.53" d="M44.578 175.808L44.5484 180.048C44.5417 180.997 45.3053 181.771 46.2539 181.778L66.1512 181.917C67.0997 181.923 67.8741 181.16 67.8807 180.211L67.9103 175.971C67.9169 175.022 67.1533 174.248 66.2048 174.242L46.3075 174.103C45.3589 174.096 44.5846 174.86 44.578 175.808Z" fill="#8BE1E5" fill-opacity="0.43"/>
<path opacity="0.53" d="M130.977 182.387L69.9301 181.96C69.7822 181.959 69.636 181.929 69.4998 181.872C69.3636 181.814 69.2401 181.73 69.1363 181.625C69.0325 181.52 68.9505 181.395 68.8949 181.258C68.8393 181.121 68.8112 180.974 68.8123 180.826L68.8504 175.404C68.8513 175.256 68.8813 175.11 68.9388 174.974C68.9963 174.837 69.0801 174.714 69.1854 174.61C69.2908 174.506 69.4156 174.424 69.5527 174.368C69.6898 174.312 69.8365 174.284 69.9845 174.285L131.03 174.714C131.178 174.714 131.324 174.744 131.46 174.802C131.597 174.859 131.72 174.943 131.824 175.048C131.928 175.154 132.01 175.279 132.066 175.416C132.121 175.553 132.149 175.7 132.147 175.848L132.111 181.27C132.11 181.417 132.08 181.564 132.022 181.7C131.964 181.836 131.881 181.96 131.775 182.063C131.67 182.167 131.545 182.249 131.408 182.305C131.271 182.36 131.125 182.388 130.977 182.387Z" fill="#8BE1E5" fill-opacity="0.43"/>
<path opacity="0.53" d="M185.443 182.936L157.07 182.738C156.928 182.737 156.788 182.708 156.657 182.653C156.526 182.598 156.408 182.517 156.308 182.416C156.208 182.315 156.13 182.195 156.076 182.064C156.023 181.932 155.996 181.792 155.997 181.65L156.035 176.135C156.039 175.85 156.155 175.577 156.359 175.376C156.563 175.175 156.837 175.062 157.123 175.063L185.501 175.262C185.643 175.263 185.783 175.292 185.914 175.347C186.045 175.402 186.163 175.483 186.263 175.584C186.363 175.685 186.442 175.805 186.495 175.936C186.548 176.068 186.575 176.208 186.574 176.35L186.536 181.863C186.535 182.006 186.506 182.146 186.451 182.278C186.395 182.409 186.314 182.527 186.213 182.627C186.111 182.727 185.991 182.806 185.858 182.859C185.726 182.912 185.585 182.938 185.443 182.936Z" fill="#8BE1E5" fill-opacity="0.43"/>
<path opacity="0.53" d="M261.018 183.466L193.913 182.996C193.688 182.994 193.465 182.948 193.257 182.861C193.049 182.773 192.86 182.645 192.702 182.484C192.543 182.324 192.418 182.133 192.333 181.924C192.248 181.715 192.205 181.491 192.207 181.266L192.237 177.027C192.238 176.801 192.284 176.578 192.372 176.37C192.459 176.162 192.587 175.974 192.748 175.815C192.909 175.657 193.099 175.531 193.308 175.447C193.517 175.362 193.741 175.319 193.967 175.32L261.073 175.791C261.298 175.792 261.521 175.838 261.729 175.926C261.937 176.014 262.125 176.142 262.284 176.303C262.442 176.463 262.567 176.653 262.652 176.862C262.737 177.071 262.78 177.295 262.778 177.521L262.748 181.759C262.745 182.215 262.561 182.651 262.236 182.971C261.912 183.291 261.474 183.469 261.018 183.466Z" fill="#8BE1E5" fill-opacity="0.43"/>
<path opacity="0.53" d="M130.898 195.872L45.633 195.275C45.4851 195.274 45.3389 195.244 45.2027 195.186C45.0665 195.128 44.943 195.045 44.8392 194.939C44.7354 194.834 44.6533 194.709 44.5977 194.572C44.5421 194.435 44.5141 194.289 44.5152 194.141L44.5532 188.717C44.5543 188.57 44.5845 188.423 44.6421 188.287C44.6996 188.151 44.7835 188.027 44.8888 187.924C44.9941 187.82 45.1188 187.738 45.2559 187.682C45.3929 187.627 45.5395 187.599 45.6874 187.6L130.952 188.197C131.1 188.198 131.246 188.228 131.382 188.285C131.519 188.343 131.642 188.427 131.746 188.532C131.85 188.638 131.932 188.762 131.987 188.899C132.043 189.036 132.071 189.183 132.07 189.331L132.032 194.754C132.031 194.902 132.001 195.048 131.943 195.184C131.885 195.32 131.802 195.444 131.696 195.548C131.591 195.652 131.466 195.734 131.329 195.789C131.192 195.845 131.046 195.873 130.898 195.872Z" fill="#8BE1E5" fill-opacity="0.43"/>
<path opacity="0.53" d="M185.326 196.419L156.947 196.219C156.805 196.218 156.664 196.189 156.534 196.134C156.403 196.079 156.284 195.998 156.185 195.897C156.085 195.796 156.006 195.677 155.953 195.545C155.899 195.414 155.872 195.273 155.874 195.131L155.913 189.618C155.914 189.476 155.943 189.336 155.998 189.205C156.053 189.074 156.133 188.956 156.235 188.856C156.336 188.756 156.455 188.678 156.587 188.624C156.718 188.571 156.859 188.544 157.001 188.545L185.379 188.743C185.521 188.744 185.661 188.773 185.792 188.828C185.923 188.884 186.041 188.964 186.141 189.065C186.241 189.166 186.319 189.286 186.373 189.417C186.426 189.549 186.453 189.689 186.452 189.831L186.414 195.346C186.41 195.632 186.294 195.905 186.09 196.105C185.886 196.306 185.612 196.419 185.326 196.419Z" fill="#8BE1E5" fill-opacity="0.43"/>
<path opacity="0.53" d="M294.227 197.181L209.717 196.589C209.491 196.588 209.268 196.542 209.06 196.454C208.852 196.367 208.664 196.239 208.505 196.078C208.347 195.917 208.222 195.727 208.137 195.518C208.052 195.309 208.009 195.085 208.011 194.86L208.04 190.621C208.043 190.165 208.228 189.73 208.552 189.41C208.876 189.09 209.314 188.912 209.77 188.914L294.281 189.507C294.507 189.509 294.73 189.555 294.937 189.642C295.145 189.73 295.334 189.858 295.492 190.019C295.65 190.179 295.775 190.37 295.86 190.579C295.945 190.788 295.988 191.011 295.986 191.237L295.956 195.476C295.955 195.701 295.909 195.924 295.821 196.132C295.734 196.34 295.606 196.528 295.445 196.687C295.284 196.845 295.094 196.97 294.885 197.055C294.676 197.14 294.452 197.183 294.227 197.181Z" fill="#8BE1E5" fill-opacity="0.43"/>
<path opacity="0.53" d="M44.6136 202.792L44.584 207.033C44.5774 207.981 45.341 208.755 46.2895 208.762L65.254 208.894C66.2025 208.901 66.9768 208.137 66.9835 207.189L67.0131 202.949C67.0197 202 66.2561 201.226 65.3076 201.219L46.3431 201.087C45.3946 201.08 44.6202 201.844 44.6136 202.792Z" fill="#8BE1E5" fill-opacity="0.43"/>
<path opacity="0.53" d="M131.097 209.376L70.0513 208.949C69.7526 208.947 69.4669 208.826 69.257 208.613C69.0472 208.401 68.9303 208.113 68.9321 207.815L68.9702 202.391C68.9713 202.243 69.0015 202.097 69.059 201.961C69.1166 201.825 69.2005 201.701 69.3058 201.597C69.4111 201.494 69.5358 201.412 69.6728 201.356C69.8099 201.3 69.9565 201.272 70.1044 201.273L131.151 201.7C131.449 201.703 131.735 201.824 131.944 202.036C132.154 202.249 132.271 202.536 132.269 202.835L132.231 208.258C132.23 208.406 132.199 208.552 132.142 208.688C132.084 208.824 132 208.948 131.895 209.052C131.79 209.155 131.665 209.237 131.528 209.293C131.391 209.349 131.244 209.377 131.097 209.376Z" fill="#8BE1E5" fill-opacity="0.43"/>
<path opacity="0.53" d="M185.477 209.923L157.097 209.723C156.955 209.722 156.815 209.693 156.684 209.638C156.554 209.583 156.435 209.502 156.335 209.401C156.236 209.3 156.157 209.18 156.104 209.049C156.05 208.917 156.023 208.777 156.024 208.635L156.064 203.122C156.065 202.98 156.094 202.84 156.149 202.709C156.204 202.578 156.284 202.459 156.385 202.36C156.486 202.26 156.606 202.181 156.738 202.128C156.869 202.075 157.01 202.048 157.152 202.049L185.53 202.247C185.672 202.248 185.812 202.277 185.943 202.332C186.074 202.387 186.192 202.468 186.292 202.569C186.391 202.67 186.47 202.79 186.524 202.921C186.577 203.053 186.604 203.193 186.603 203.335L186.565 208.85C186.561 209.136 186.444 209.408 186.241 209.609C186.037 209.81 185.763 209.923 185.477 209.923Z" fill="#8BE1E5" fill-opacity="0.43"/>
<path opacity="0.53" d="M338.713 210.996L223.099 210.18C222.874 210.178 222.651 210.132 222.443 210.045C222.235 209.957 222.046 209.829 221.888 209.668C221.73 209.508 221.605 209.317 221.52 209.108C221.435 208.899 221.392 208.676 221.394 208.45L221.423 204.211C221.424 203.986 221.47 203.763 221.558 203.555C221.646 203.347 221.774 203.159 221.934 203C222.095 202.842 222.285 202.717 222.494 202.632C222.703 202.547 222.927 202.504 223.152 202.506L338.766 203.322C338.991 203.323 339.214 203.369 339.422 203.457C339.63 203.545 339.819 203.672 339.977 203.833C340.135 203.994 340.261 204.184 340.345 204.393C340.43 204.602 340.473 204.826 340.471 205.052L340.442 209.29C340.439 209.746 340.255 210.181 339.93 210.501C339.606 210.821 339.168 210.999 338.713 210.996Z" fill="#8BE1E5" fill-opacity="0.43"/>
<path opacity="0.53" d="M43.7945 243.08L43.7649 247.32C43.7583 248.268 44.5219 249.042 45.4704 249.049L65.3677 249.188C66.3163 249.195 67.0906 248.431 67.0972 247.483L67.1268 243.242C67.1334 242.294 66.3699 241.52 65.4213 241.513L45.524 241.374C44.5754 241.367 43.8011 242.131 43.7945 243.08Z" fill="#8BE1E5" fill-opacity="0.43"/>
<path opacity="0.53" d="M130.222 249.665L69.1768 249.238C68.8781 249.236 68.5924 249.115 68.3825 248.902C68.1727 248.69 68.0558 248.402 68.0576 248.104L68.0957 242.682C68.0979 242.383 68.2185 242.097 68.4312 241.887C68.6438 241.678 68.9311 241.561 69.2299 241.563L130.276 241.991C130.424 241.992 130.57 242.022 130.707 242.08C130.843 242.137 130.966 242.221 131.07 242.326C131.174 242.432 131.256 242.556 131.312 242.694C131.367 242.831 131.395 242.977 131.394 243.125L131.356 248.547C131.355 248.695 131.325 248.841 131.268 248.977C131.21 249.114 131.126 249.237 131.021 249.341C130.916 249.445 130.791 249.527 130.654 249.583C130.517 249.638 130.37 249.666 130.222 249.665Z" fill="#8BE1E5" fill-opacity="0.43"/>
<path opacity="0.53" d="M184.658 250.212L156.279 250.013C155.993 250.009 155.72 249.893 155.519 249.689C155.318 249.486 155.206 249.211 155.206 248.925L155.245 243.411C155.246 243.269 155.275 243.129 155.33 242.998C155.385 242.867 155.466 242.749 155.567 242.649C155.668 242.549 155.788 242.47 155.919 242.417C156.051 242.364 156.191 242.337 156.333 242.338L184.711 242.536C184.853 242.537 184.993 242.566 185.124 242.621C185.255 242.677 185.374 242.757 185.473 242.858C185.573 242.959 185.652 243.079 185.705 243.21C185.758 243.342 185.785 243.482 185.784 243.624L185.746 249.139C185.745 249.281 185.716 249.421 185.661 249.552C185.606 249.682 185.526 249.801 185.425 249.901C185.324 250 185.204 250.079 185.072 250.132C184.941 250.186 184.8 250.213 184.658 250.212Z" fill="#8BE1E5" fill-opacity="0.43"/>
<path opacity="0.53" d="M260.234 250.74L193.129 250.271C192.673 250.268 192.238 250.084 191.918 249.759C191.598 249.435 191.42 248.997 191.422 248.541L191.452 244.301C191.456 243.846 191.64 243.41 191.964 243.091C192.289 242.771 192.727 242.593 193.182 242.596L260.288 243.065C260.744 243.068 261.179 243.253 261.499 243.577C261.819 243.901 261.996 244.339 261.994 244.795L261.964 249.035C261.962 249.26 261.916 249.483 261.828 249.691C261.74 249.899 261.613 250.087 261.452 250.246C261.291 250.404 261.101 250.529 260.892 250.614C260.683 250.699 260.459 250.742 260.234 250.74Z" fill="#8BE1E5" fill-opacity="0.43"/>
<path opacity="0.53" d="M130.144 263.147L44.8797 262.55C44.5809 262.548 44.2953 262.427 44.0854 262.215C43.8756 262.002 43.7587 261.715 43.7605 261.416L43.7986 255.993C43.8011 255.694 43.9219 255.409 44.1345 255.199C44.3472 254.99 44.6342 254.873 44.9327 254.875L130.197 255.472C130.496 255.474 130.782 255.595 130.992 255.807C131.202 256.02 131.318 256.307 131.317 256.606L131.279 262.029C131.277 262.177 131.247 262.323 131.19 262.46C131.132 262.596 131.048 262.719 130.943 262.823C130.838 262.927 130.713 263.009 130.576 263.065C130.439 263.12 130.292 263.148 130.144 263.147Z" fill="#8BE1E5" fill-opacity="0.43"/>
<path opacity="0.53" d="M184.54 263.698L156.16 263.499C156.018 263.499 155.878 263.47 155.747 263.414C155.617 263.359 155.498 263.279 155.398 263.178C155.299 263.077 155.22 262.957 155.167 262.826C155.113 262.694 155.086 262.553 155.087 262.412L155.127 256.897C155.128 256.755 155.157 256.615 155.212 256.484C155.267 256.353 155.347 256.235 155.448 256.135C155.549 256.036 155.669 255.957 155.801 255.903C155.932 255.85 156.073 255.823 156.215 255.824L184.593 256.023C184.735 256.024 184.875 256.053 185.006 256.108C185.137 256.163 185.255 256.243 185.355 256.344C185.454 256.445 185.533 256.565 185.587 256.697C185.64 256.828 185.667 256.969 185.666 257.111L185.628 262.624C185.627 262.766 185.598 262.906 185.543 263.037C185.488 263.168 185.408 263.287 185.307 263.387C185.206 263.486 185.086 263.565 184.954 263.619C184.823 263.672 184.682 263.699 184.54 263.698Z" fill="#8BE1E5" fill-opacity="0.43"/>
<path opacity="0.53" d="M293.394 264.456L208.882 263.863C208.656 263.862 208.433 263.816 208.225 263.728C208.017 263.641 207.829 263.513 207.67 263.352C207.512 263.191 207.387 263.001 207.302 262.792C207.217 262.583 207.175 262.359 207.176 262.134L207.206 257.895C207.208 257.669 207.254 257.446 207.341 257.238C207.429 257.03 207.557 256.842 207.718 256.683C207.878 256.525 208.069 256.4 208.278 256.315C208.487 256.23 208.71 256.188 208.936 256.19L293.446 256.781C293.672 256.783 293.895 256.829 294.102 256.916C294.31 257.004 294.499 257.132 294.657 257.293C294.815 257.453 294.94 257.644 295.025 257.853C295.11 258.062 295.153 258.285 295.151 258.511L295.121 262.75C295.118 263.205 294.935 263.64 294.611 263.96C294.287 264.28 293.85 264.459 293.394 264.456Z" fill="#8BE1E5" fill-opacity="0.43"/>
<path opacity="0.53" d="M43.8302 270.064L43.8006 274.304C43.7939 275.253 44.5575 276.027 45.5061 276.033L64.4706 276.166C65.4191 276.172 66.1934 275.409 66.2 274.46L66.2296 270.22C66.2362 269.272 65.4727 268.498 64.5241 268.491L45.5597 268.358C44.6111 268.352 43.8368 269.115 43.8302 270.064Z" fill="#8BE1E5" fill-opacity="0.43"/>
<path opacity="0.53" d="M130.336 276.649L69.2897 276.222C68.9912 276.22 68.7059 276.099 68.4963 275.886C68.2867 275.674 68.1701 275.386 68.1719 275.088L68.21 269.665C68.211 269.517 68.2412 269.371 68.2988 269.234C68.3564 269.098 68.4402 268.975 68.5455 268.871C68.6508 268.767 68.7756 268.685 68.9126 268.63C69.0496 268.574 69.1962 268.546 69.3441 268.547L130.389 268.974C130.537 268.975 130.683 269.005 130.82 269.063C130.956 269.12 131.079 269.204 131.183 269.309C131.287 269.415 131.369 269.54 131.425 269.677C131.48 269.814 131.508 269.96 131.507 270.108L131.47 275.531C131.468 275.83 131.347 276.115 131.134 276.325C130.922 276.534 130.635 276.651 130.336 276.649Z" fill="#8BE1E5" fill-opacity="0.43"/>
<path opacity="0.53" d="M184.692 277.198L156.313 276.999C156.171 276.999 156.03 276.97 155.9 276.914C155.769 276.859 155.65 276.779 155.551 276.678C155.451 276.577 155.372 276.457 155.319 276.326C155.266 276.194 155.239 276.053 155.24 275.912L155.279 270.397C155.28 270.255 155.309 270.115 155.364 269.984C155.419 269.853 155.5 269.735 155.601 269.635C155.702 269.536 155.821 269.457 155.953 269.403C156.084 269.35 156.225 269.323 156.367 269.324L184.745 269.523C185.031 269.527 185.304 269.643 185.505 269.847C185.706 270.05 185.818 270.325 185.818 270.611L185.78 276.124C185.779 276.266 185.751 276.406 185.696 276.537C185.64 276.668 185.56 276.787 185.459 276.887C185.358 276.986 185.238 277.065 185.107 277.119C184.975 277.172 184.834 277.199 184.692 277.198Z" fill="#8BE1E5" fill-opacity="0.43"/>
<path opacity="0.53" d="M337.88 278.27L222.267 277.455C221.811 277.451 221.376 277.267 221.056 276.942C220.737 276.618 220.559 276.18 220.562 275.725L220.592 271.485C220.593 271.259 220.639 271.036 220.727 270.828C220.815 270.621 220.943 270.432 221.103 270.274C221.264 270.115 221.454 269.99 221.663 269.905C221.872 269.821 222.096 269.778 222.321 269.779L337.933 270.588C338.389 270.592 338.824 270.776 339.144 271.1C339.465 271.424 339.643 271.863 339.64 272.318L339.61 276.558C339.609 276.784 339.563 277.008 339.476 277.217C339.389 277.425 339.261 277.614 339.1 277.773C338.939 277.932 338.749 278.058 338.54 278.143C338.33 278.229 338.106 278.272 337.88 278.27Z" fill="#8BE1E5" fill-opacity="0.43"/>
<path opacity="0.53" d="M44.2574 216.523L44.2278 220.763C44.2212 221.712 44.9848 222.486 45.9333 222.492L64.8978 222.625C65.8463 222.631 66.6206 221.868 66.6273 220.919L66.6569 216.679C66.6635 215.731 65.8999 214.956 64.9514 214.95L45.9869 214.817C45.0384 214.811 44.264 215.574 44.2574 216.523Z" fill="#8BE1E5" fill-opacity="0.43"/>
<path opacity="0.53" d="M130.509 223.104L69.4638 222.675C69.3159 222.674 69.1696 222.644 69.0333 222.587C68.897 222.529 68.7734 222.445 68.6696 222.34C68.5658 222.235 68.4837 222.11 68.4282 221.973C68.3727 221.836 68.3447 221.689 68.346 221.541L68.3841 216.119C68.385 215.971 68.415 215.825 68.4724 215.689C68.5298 215.553 68.6135 215.429 68.7187 215.325C68.8239 215.221 68.9485 215.139 69.0854 215.083C69.2224 215.027 69.369 214.999 69.5168 215L130.563 215.428C130.711 215.429 130.858 215.459 130.994 215.517C131.13 215.574 131.254 215.658 131.358 215.764C131.461 215.869 131.543 215.994 131.599 216.131C131.655 216.268 131.682 216.415 131.681 216.563L131.643 221.984C131.642 222.132 131.612 222.279 131.555 222.415C131.497 222.551 131.413 222.675 131.308 222.779C131.203 222.883 131.078 222.965 130.941 223.021C130.804 223.077 130.657 223.105 130.509 223.104Z" fill="#8BE1E5" fill-opacity="0.43"/>
<path opacity="0.53" d="M185.024 223.652L156.644 223.453C156.359 223.449 156.086 223.333 155.885 223.129C155.684 222.926 155.572 222.651 155.572 222.365L155.61 216.852C155.614 216.566 155.73 216.293 155.933 216.093C156.137 215.892 156.412 215.779 156.698 215.779L185.077 215.978C185.219 215.979 185.359 216.008 185.49 216.063C185.621 216.118 185.739 216.198 185.839 216.299C185.939 216.4 186.017 216.52 186.071 216.652C186.124 216.783 186.151 216.924 186.15 217.066L186.112 222.58C186.108 222.866 185.991 223.138 185.787 223.339C185.584 223.539 185.31 223.652 185.024 223.652Z" fill="#8BE1E5" fill-opacity="0.43"/>
<path opacity="0.53" d="M337.706 224.722L222.093 223.906C221.867 223.904 221.644 223.858 221.437 223.77C221.229 223.682 221.04 223.555 220.882 223.394C220.724 223.233 220.599 223.043 220.514 222.834C220.429 222.625 220.386 222.401 220.388 222.176L220.416 217.936C220.42 217.48 220.604 217.045 220.928 216.725C221.253 216.406 221.691 216.228 222.146 216.231L337.759 217.046C337.985 217.048 338.208 217.094 338.416 217.182C338.623 217.27 338.812 217.398 338.97 217.558C339.129 217.719 339.254 217.909 339.339 218.118C339.423 218.327 339.466 218.551 339.465 218.776L339.436 223.016C339.432 223.472 339.248 223.907 338.924 224.227C338.6 224.547 338.162 224.725 337.706 224.722Z" fill="#8BE1E5" fill-opacity="0.43"/>
<path opacity="0.53" d="M44.3421 230.025L44.3125 234.265C44.3059 235.213 45.0695 235.988 46.018 235.994L64.9825 236.127C65.9311 236.133 66.7054 235.37 66.712 234.421L66.7416 230.181C66.7482 229.233 65.9846 228.458 65.0361 228.452L46.0716 228.319C45.1231 228.313 44.3488 229.076 44.3421 230.025Z" fill="#8BE1E5" fill-opacity="0.43"/>
<path opacity="0.53" d="M130.748 236.608L69.7018 236.181C69.554 236.18 69.4078 236.15 69.2716 236.092C69.1354 236.035 69.0118 235.951 68.908 235.846C68.8042 235.74 68.7222 235.615 68.6666 235.478C68.611 235.341 68.5829 235.195 68.584 235.047L68.6221 229.624C68.6232 229.476 68.6533 229.33 68.7109 229.193C68.7685 229.057 68.8523 228.934 68.9576 228.83C69.063 228.726 69.1877 228.644 69.3247 228.588C69.4617 228.533 69.6084 228.505 69.7562 228.506L130.801 228.933C130.949 228.934 131.095 228.964 131.232 229.022C131.368 229.079 131.491 229.163 131.595 229.268C131.699 229.374 131.781 229.499 131.837 229.636C131.892 229.773 131.92 229.919 131.919 230.067L131.883 235.49C131.88 235.789 131.759 236.074 131.547 236.284C131.334 236.493 131.047 236.61 130.748 236.608Z" fill="#8BE1E5" fill-opacity="0.43"/>
<path opacity="0.53" d="M185.174 237.156L156.798 236.957C156.512 236.953 156.239 236.837 156.039 236.633C155.838 236.43 155.725 236.155 155.725 235.869L155.763 230.356C155.767 230.07 155.884 229.797 156.087 229.597C156.291 229.396 156.565 229.283 156.851 229.283L185.231 229.482C185.373 229.483 185.513 229.511 185.644 229.567C185.774 229.622 185.893 229.702 185.993 229.803C186.092 229.904 186.171 230.024 186.224 230.156C186.278 230.287 186.305 230.428 186.304 230.57L186.266 236.084C186.261 236.37 186.144 236.644 185.94 236.844C185.735 237.045 185.46 237.157 185.174 237.156Z" fill="#8BE1E5" fill-opacity="0.43"/>
<path opacity="0.53" d="M338.236 238.227L222.624 237.417C222.169 237.414 221.733 237.23 221.413 236.906C221.093 236.581 220.915 236.143 220.918 235.688L220.948 231.448C220.949 231.222 220.995 230.999 221.083 230.791C221.171 230.583 221.299 230.395 221.459 230.237C221.62 230.078 221.81 229.953 222.019 229.868C222.228 229.783 222.452 229.741 222.677 229.742L338.291 230.558C338.746 230.562 339.181 230.746 339.501 231.07C339.821 231.395 339.999 231.833 339.996 232.288L339.966 236.528C339.961 236.982 339.776 237.416 339.452 237.735C339.128 238.053 338.691 238.23 338.236 238.227Z" fill="#8BE1E5" fill-opacity="0.43"/>
<path opacity="0.53" d="M144.004 285.835L142.449 285.824C142.366 285.824 142.284 285.807 142.208 285.775C142.131 285.742 142.062 285.695 142.004 285.637C141.945 285.578 141.899 285.508 141.868 285.431C141.837 285.354 141.821 285.272 141.822 285.189L143.138 97.3131C143.139 97.2303 143.156 97.1484 143.188 97.0721C143.22 96.9958 143.267 96.9267 143.326 96.8686C143.385 96.8105 143.455 96.7646 143.532 96.7335C143.608 96.7024 143.69 96.6868 143.773 96.6875L145.329 96.6984C145.412 96.6989 145.494 96.7158 145.57 96.748C145.646 96.7802 145.715 96.8272 145.773 96.8862C145.832 96.9452 145.877 97.015 145.909 97.0918C145.94 97.1685 145.955 97.2507 145.954 97.3335L144.639 285.208C144.639 285.291 144.622 285.373 144.59 285.449C144.558 285.526 144.511 285.595 144.452 285.653C144.393 285.711 144.323 285.757 144.246 285.789C144.169 285.82 144.087 285.836 144.004 285.835Z" fill="#8BE1E5" fill-opacity="0.43"/>
<path d="M302.931 238.982C321.053 238.982 335.743 224.292 335.743 206.171C335.743 188.049 321.053 173.359 302.931 173.359C284.81 173.359 270.12 188.049 270.12 206.171C270.12 224.292 284.81 238.982 302.931 238.982Z" fill="url(#paint0_linear_931_5290)"/>
<path d="M294.132 213.289L281.236 206.725V204.612L294.132 197.145V200.741L285.211 205.501L294.132 209.699V213.289Z" fill="white"/>
<path d="M307.85 194.232L300.516 216.399L296.832 216.362L304.107 194.284L307.85 194.232Z" fill="white"/>
<path d="M310.577 209.756L320.002 205.455L310.577 200.633V196.971L324.322 204.504V206.718L310.577 213.404V209.756Z" fill="white"/>
<path d="M226.564 67.3472C244.685 67.3472 259.375 52.657 259.375 34.5359C259.375 16.4147 244.685 1.72461 226.564 1.72461C208.443 1.72461 193.753 16.4147 193.753 34.5359C193.753 52.657 208.443 67.3472 226.564 67.3472Z" fill="#81C592"/>
<path d="M213.388 47.6368C212.5 47.6362 211.617 47.5103 210.764 47.2628V43.4075C211.445 43.6033 212.148 43.7116 212.857 43.7298C213.836 43.7416 214.537 43.4315 214.962 42.7997C215.386 42.1678 215.599 41.1746 215.599 39.8202V19.2057L220.121 19.0996V39.8174C220.121 42.4012 219.55 44.3617 218.408 45.6989C217.265 47.0361 215.592 47.6821 213.388 47.6368Z" fill="white"/>
<path d="M242.181 38.6837C242.181 41.0889 241.32 42.9737 239.597 44.3381C237.875 45.7025 235.507 46.3571 232.493 46.3018C229.736 46.261 227.314 45.703 225.225 44.6278V39.5024C226.943 40.2965 228.403 40.8595 229.605 41.1913C230.683 41.5044 231.797 41.6763 232.919 41.7027C234.129 41.7135 235.06 41.4869 235.71 41.0227C236.36 40.5585 236.686 39.8618 236.687 38.9326C236.694 38.4371 236.543 37.9523 236.256 37.5482C235.909 37.0865 235.482 36.6912 234.994 36.3814C234.44 36.0088 233.318 35.415 231.626 34.6C230.047 33.8493 228.868 33.1304 228.09 32.4432C227.32 31.7703 226.685 30.9565 226.22 30.0457C225.757 29.1391 225.525 28.0725 225.524 26.8459C225.524 24.5423 226.289 22.7169 227.818 21.3697C229.348 20.0225 231.488 19.3126 234.241 19.2401C235.552 19.2041 236.862 19.3384 238.138 19.6399C239.478 19.9701 240.789 20.4038 242.062 20.9372L240.243 25.3541C239.109 24.8842 237.943 24.4961 236.754 24.1928C235.872 23.982 234.968 23.8811 234.061 23.8923C233.018 23.9104 232.219 24.1692 231.665 24.6688C231.394 24.9102 231.178 25.2084 231.035 25.5424C230.891 25.8764 230.823 26.2378 230.834 26.6011C230.823 27.0504 230.94 27.4936 231.17 27.8794C231.451 28.2993 231.815 28.6563 232.241 28.9279C232.732 29.2652 233.899 29.8712 235.741 30.7461C238.196 31.9138 239.884 33.0923 240.806 34.2818C241.728 35.4712 242.187 36.9385 242.181 38.6837Z" fill="white"/>
<path d="M297.917 83.5055C315.849 83.5055 330.386 68.9688 330.386 51.0369C330.386 33.105 315.849 18.5684 297.917 18.5684C279.985 18.5684 265.449 33.105 265.449 51.0369C265.449 68.9688 279.985 83.5055 297.917 83.5055Z" fill="url(#paint1_linear_931_5290)"/>
<path d="M284.979 57.8384L282.608 57.7024V52.5715L278.198 52.354V57.463L275.856 57.3339V45.5273L278.198 45.6253V50.2652L282.608 50.4719V45.8088L284.979 45.9081V57.8384Z" fill="white"/>
<path d="M293.023 58.282L290.6 58.146V48.2596L287.514 48.1236V46.0117L296.147 46.3707V48.503L293.019 48.367L293.023 58.282Z" fill="white"/>
<path d="M303.683 58.8731L300.864 49.1866H300.794C300.895 51.1295 300.946 52.4241 300.946 53.0705V58.7208L298.74 58.5998V46.4805L302.105 46.6165L304.883 56.0636H304.93L307.896 46.8544L311.331 46.9904V59.2824L308.969 59.1723V53.3628C308.969 53.0909 308.969 52.7727 308.982 52.4109C308.994 52.0492 309.026 51.1041 309.092 49.5647H309.018L305.964 58.9982L303.683 58.8731Z" fill="white"/>
<path d="M315.189 59.5091V47.1641L317.751 47.2701V57.4829L322.693 57.744V59.9198L315.189 59.5091Z" fill="white"/>
<path d="M344.012 151.48C356.059 139.434 356.059 119.902 344.012 107.855C331.965 95.8087 312.434 95.8087 300.387 107.855C288.34 119.902 288.34 139.434 300.387 151.481C312.433 163.527 331.965 163.527 344.012 151.48Z" fill="#81C592"/>
<path d="M308.61 123.513C307.356 123.499 306.389 124.008 305.71 125.04C305.031 126.072 304.694 127.509 304.701 129.351C304.71 133.195 306.012 135.167 308.632 135.269C309.742 135.314 311.095 135.059 312.693 134.504V137.631C311.304 138.183 309.812 138.42 308.321 138.328C306.045 138.221 304.315 137.382 303.131 135.813C301.947 134.244 301.355 132.054 301.354 129.244C301.354 127.466 301.639 125.911 302.208 124.58C302.777 123.25 303.611 122.225 304.709 121.507C305.808 120.79 307.106 120.433 308.604 120.436C310.145 120.436 311.703 120.853 313.277 121.689L312.181 124.715C311.596 124.402 310.993 124.123 310.375 123.877C309.815 123.648 309.216 123.524 308.61 123.513Z" fill="white"/>
<path d="M327.234 133.908C327.234 135.551 326.676 136.82 325.561 137.716C324.446 138.611 322.916 139.011 320.971 138.914C319.193 138.83 317.63 138.401 316.284 137.627V134.135C317.191 134.623 318.135 135.036 319.108 135.372C319.8 135.604 320.519 135.741 321.248 135.78C322.03 135.812 322.631 135.676 323.051 135.372C323.47 135.069 323.68 134.599 323.68 133.964C323.685 133.626 323.588 133.294 323.402 133.012C323.179 132.694 322.903 132.418 322.586 132.196C322.228 131.931 321.502 131.505 320.41 130.916C319.391 130.372 318.629 129.859 318.125 129.377C317.624 128.899 317.215 128.333 316.918 127.707C316.604 127.018 316.45 126.267 316.466 125.511C316.466 123.939 316.958 122.706 317.942 121.812C318.925 120.918 320.308 120.47 322.089 120.467C322.942 120.466 323.79 120.58 324.612 120.808C325.483 121.057 326.333 121.376 327.153 121.76L325.977 124.752C325.246 124.412 324.49 124.126 323.717 123.895C323.15 123.735 322.565 123.65 321.976 123.642C321.302 123.636 320.786 123.798 320.427 124.129C320.25 124.295 320.11 124.498 320.017 124.723C319.925 124.949 319.882 125.191 319.892 125.434C319.884 125.742 319.96 126.046 320.109 126.314C320.288 126.604 320.524 126.854 320.801 127.05C321.119 127.289 321.873 127.725 323.064 128.357C324.653 129.2 325.746 130.038 326.343 130.871C326.94 131.704 327.237 132.717 327.234 133.908Z" fill="white"/>
<path d="M342.273 134.423C342.273 136.125 341.673 137.44 340.474 138.366C339.284 139.287 337.64 139.696 335.552 139.598C333.648 139.508 331.975 139.061 330.533 138.259V134.644C331.505 135.152 332.517 135.581 333.557 135.928C334.299 136.171 335.069 136.316 335.849 136.359C336.686 136.393 337.33 136.253 337.78 135.937C338.229 135.622 338.456 135.136 338.46 134.481C338.464 134.129 338.36 133.784 338.162 133.494C337.923 133.161 337.627 132.873 337.289 132.642C336.905 132.37 336.128 131.928 334.957 131.315C333.869 130.754 333.053 130.222 332.509 129.72C331.975 129.228 331.538 128.642 331.218 127.99C330.885 127.28 330.72 126.502 330.737 125.718C330.737 124.091 331.265 122.816 332.323 121.891C333.38 120.966 334.861 120.503 336.768 120.5C337.681 120.498 338.59 120.617 339.471 120.854C340.402 121.113 341.312 121.444 342.191 121.844L340.925 124.941C340.14 124.588 339.331 124.292 338.503 124.053C337.895 123.888 337.268 123.8 336.637 123.791C335.912 123.783 335.359 123.951 334.977 124.294C334.68 124.581 334.486 124.958 334.423 125.367C334.361 125.775 334.435 126.193 334.633 126.556C334.827 126.857 335.079 127.116 335.374 127.318C335.714 127.566 336.522 128.019 337.797 128.678C339.5 129.553 340.671 130.422 341.31 131.284C341.949 132.146 342.27 133.192 342.273 134.423Z" fill="white"/>
<path d="M78.5001 294.598C78.283 294.823 78.1208 295.096 78.0259 295.394C77.931 295.693 77.9061 296.009 77.953 296.318C78 296.628 78.1175 296.922 78.2966 297.179C78.4756 297.436 78.7114 297.648 78.9856 297.799C84.3952 300.77 97.9981 306.165 109.465 293.496C124.151 277.273 159.916 201.579 164.324 182.144C168.731 162.708 185.414 132.762 194.577 129.229C203.74 125.696 175.157 127.71 167.193 127.846C159.23 127.982 153.5 124.039 158.234 122.226C158.234 122.226 134.028 112.779 115.871 140.886C104.9 157.872 69.5765 236.362 40.2955 244.974C39.2076 245.294 45.357 249.462 45.833 250.487C48.6547 256.559 59.0157 274.503 86.1766 283.897C86.1766 283.89 82.6518 290.37 78.5001 294.598Z" fill="url(#paint2_linear_931_5290)"/>
<path d="M186.567 364.002C180.691 364.509 170.494 365.335 162.455 365.688C157.622 365.9 154.84 365.427 153.238 364.787C153.238 364.966 153.238 365.137 153.252 365.297C153.274 365.707 153.448 366.095 153.74 366.385C154.032 366.675 154.421 366.846 154.832 366.866C170.023 367.714 182.104 367.16 186.406 366.898C186.609 366.889 186.806 366.827 186.978 366.718C187.15 366.61 187.292 366.459 187.388 366.281C187.485 366.102 187.535 365.901 187.531 365.698C187.528 365.494 187.472 365.295 187.37 365.12C187.129 364.728 186.861 364.355 186.567 364.002Z" fill="#81C592"/>
<path d="M162.455 365.69C170.493 365.336 180.691 364.511 186.567 364.004C180.79 356.916 162.455 352.139 162.455 352.139H157.275C153.714 357.272 153.196 362.161 153.238 364.786C154.84 365.427 157.622 365.901 162.455 365.69Z" fill="#2AB6C5"/>
<path d="M156.404 343.684L156.888 353.273C156.913 353.78 157.113 354.263 157.454 354.638C157.795 355.014 158.256 355.26 158.758 355.334C160.062 355.528 161.394 355.418 162.648 355.011C163.091 354.866 163.486 354.605 163.793 354.254C164.099 353.904 164.306 353.477 164.39 353.019L166.066 343.684H156.404Z" fill="url(#paint3_linear_931_5290)"/>
<path d="M96.2981 375.064C93.7511 374.604 92.5979 372.888 92.1138 371.064C92.1138 371.081 92.1138 371.097 92.1043 371.113C91.7303 373.043 92.5993 375.042 94.3358 375.994C96.4369 377.143 98.7323 377.339 100.515 377.244C101.455 377.201 102.37 376.926 103.178 376.444C103.987 375.962 104.663 375.288 105.148 374.482L105.162 374.457C103.243 375.685 100.548 375.829 96.2981 375.064Z" fill="#81C592"/>
<path d="M108.313 346.638H104.042C97.5372 346.465 93.4521 364.198 92.114 371.066C92.5981 372.895 93.7459 374.601 96.2984 375.065C100.548 375.831 103.243 375.686 105.162 374.458C108.677 368.482 110.419 359.727 111.257 354.618C112.209 348.808 108.313 346.638 108.313 346.638Z" fill="#2AB6C5"/>
<path d="M104.591 337.736L102.219 347.168C102.08 347.731 102.135 348.325 102.377 348.852C102.619 349.38 103.033 349.809 103.551 350.07C104.878 350.75 106.746 351.466 108.463 351.259C108.857 351.207 109.229 351.046 109.538 350.794C109.846 350.542 110.078 350.209 110.207 349.832L113.689 339.905L104.591 337.736Z" fill="url(#paint4_linear_931_5290)"/>
<path d="M188.014 213.51C188.014 213.51 166.822 345.983 167.17 346.711C167.17 346.711 161.323 349.371 154.931 347.049C154.931 347.049 156.847 276.234 161.338 249.081C161.338 249.081 125.165 312.376 113.683 343.916C113.683 343.916 107.7 343.201 102.733 339.937C102.733 339.937 141.678 226.009 152.067 210.834L188.014 213.51Z" fill="#81C592"/>
<path d="M162.189 248.292C162.095 248.292 162.002 248.266 161.921 248.218C161.84 248.171 161.773 248.102 161.728 248.019C161.682 247.937 161.66 247.844 161.662 247.75C161.665 247.656 161.693 247.564 161.743 247.484L169.661 234.837C169.699 234.776 169.749 234.724 169.809 234.683C169.868 234.642 169.935 234.613 170.005 234.599L175.834 233.426C175.903 233.408 175.975 233.406 176.046 233.417C176.116 233.428 176.184 233.454 176.244 233.492C176.305 233.531 176.357 233.581 176.397 233.64C176.438 233.698 176.466 233.765 176.48 233.835C176.494 233.905 176.494 233.977 176.479 234.047C176.464 234.117 176.436 234.184 176.395 234.242C176.354 234.301 176.301 234.35 176.241 234.388C176.18 234.426 176.112 234.451 176.042 234.462L170.436 235.589L162.637 248.047C162.59 248.123 162.523 248.185 162.445 248.228C162.366 248.271 162.278 248.293 162.189 248.292Z" fill="#81C592"/>
<path d="M195.794 121.886C194.362 121.392 192.868 121.098 191.356 121.011C183.088 120.527 155.841 119.641 133.289 127.091C130.95 127.861 128.8 129.116 126.979 130.774C125.158 132.432 123.707 134.454 122.721 136.71C116.622 150.706 106.748 182.582 134.159 198.674C135.922 194.281 138.139 190.086 140.775 186.154C136.359 178.708 135.052 168.539 142.885 155.295C148.597 170.718 151.277 193.223 151.837 203.183C152.021 206.463 151.447 209.741 150.161 212.763L150.025 213.092C149.96 213.245 149.93 213.411 149.936 213.577C149.943 213.743 149.985 213.905 150.061 214.053C150.137 214.201 150.245 214.33 150.376 214.432C150.507 214.533 150.66 214.605 150.822 214.641C166.254 218.108 182.303 217.165 187.098 216.77C187.514 216.737 187.91 216.573 188.227 216.301C188.545 216.03 188.768 215.665 188.866 215.259C196.37 183.64 196.387 162.072 194.55 148.438C201.566 150.013 211.33 127.269 195.794 121.886Z" fill="url(#paint5_linear_931_5290)"/>
<path d="M156.494 102.592C156.494 102.592 154.933 119.098 153.558 123.98C153.457 124.34 153.48 124.722 153.622 125.068C153.765 125.413 154.019 125.7 154.344 125.884C156.677 127.217 162.272 129.391 169.925 125.64C170.528 125.342 171.031 124.874 171.374 124.295C171.716 123.715 171.883 123.049 171.854 122.377L171.174 106.425L156.494 102.592Z" fill="url(#paint6_linear_931_5290)"/>
<path d="M171.515 81.4746C171.515 81.4746 176.508 92.9452 176.844 98.9654C177.18 104.986 178.476 108.893 171.515 110.104C164.554 111.316 158.69 107.85 155.513 101.852C155.513 101.852 150.536 92.612 151.652 88.8275C152.769 85.0429 171.515 81.4746 171.515 81.4746Z" fill="url(#paint7_linear_931_5290)"/>
<path d="M157.886 97.5397L158.283 97.3657C158.403 97.3137 158.511 97.2377 158.6 97.1423C158.689 97.0468 158.758 96.9341 158.802 96.811C158.845 96.6879 158.863 96.5571 158.854 96.4267C158.845 96.2964 158.81 96.1693 158.749 96.0534C157.768 94.1495 155.854 89.8101 158.326 88.797C161.513 87.4902 174.132 84.9159 176.855 80.4378C179.471 76.1351 177.153 70.5787 173.669 68.9998C173.558 68.947 173.431 68.9386 173.314 68.9766C173.197 69.0145 173.099 69.0959 173.04 69.2038L172.751 69.7478C172.707 69.8312 172.639 69.8995 172.556 69.944C172.472 69.9884 172.378 70.0071 172.284 69.9974C172.19 69.9878 172.101 69.9503 172.029 69.8898C171.957 69.8294 171.904 69.7486 171.878 69.658C171.853 69.5704 171.803 69.4919 171.735 69.4319C171.666 69.3719 171.582 69.3331 171.492 69.3201C171.402 69.3072 171.31 69.3206 171.227 69.3589C171.145 69.3971 171.075 69.4585 171.026 69.5356C170.189 70.8765 167.93 73.0482 161.887 74.1592C153.299 75.7435 147.621 79.2194 147.48 85.1539C147.479 85.2386 147.455 85.3215 147.411 85.3938C147.367 85.4662 147.304 85.5254 147.23 85.5653C147.155 85.6051 147.071 85.6242 146.986 85.6205C146.902 85.6168 146.819 85.5905 146.748 85.5442C146.115 85.1566 145.099 84.9758 143.743 86.1167C141.385 88.0994 142.351 93.2439 147.521 97.4744C147.579 97.5201 147.625 97.5788 147.657 97.6457C147.688 97.7126 147.703 97.7859 147.701 97.8597C147.699 97.9335 147.679 98.0057 147.644 98.0706C147.608 98.1355 147.558 98.1912 147.498 98.2333C146.561 98.8425 145.163 100.295 148.784 102.23C152.528 104.232 155.325 104.067 156.4 103.89C156.463 103.88 156.523 103.856 156.577 103.821C156.631 103.787 156.678 103.741 156.713 103.688C156.749 103.634 156.774 103.574 156.785 103.511C156.797 103.448 156.796 103.383 156.782 103.321L155.633 98.1054C155.617 98.0363 155.618 97.9646 155.634 97.8956C155.65 97.8266 155.681 97.7622 155.726 97.707C155.77 97.6517 155.826 97.6072 155.89 97.5766C155.954 97.546 156.024 97.5302 156.095 97.5302L157.886 97.5397Z" fill="#2AB6C5"/>
<path d="M158.108 98.6406C158.108 98.6406 156.204 91.3135 152.918 93.367C149.633 95.4204 154.624 101.577 157.27 101.851L158.108 98.6406Z" fill="url(#paint8_linear_931_5290)"/>
<path d="M157.968 209.945L180.501 209.456C180.501 209.456 160.852 203.901 159.632 205.414C159.632 205.414 147.453 197.411 140.78 186.154C138.145 190.085 135.927 194.281 134.164 198.673C140.148 202.186 148.005 208.288 157.968 209.945Z" fill="url(#paint9_linear_931_5290)"/>
<path d="M157.333 206.039C157.333 206.039 156.867 215.014 168.652 213.713C175.057 213.004 185.398 207.033 185.398 207.033C185.398 207.033 158.446 206.965 157.333 206.039Z" fill="url(#paint10_linear_931_5290)"/>
<path d="M163.014 208.275H163.12L209.316 208.225C209.858 208.225 210.379 208.009 210.762 207.625C211.146 207.242 211.362 206.721 211.362 206.179C211.362 205.636 211.146 205.116 210.762 204.732C210.379 204.348 209.858 204.133 209.316 204.133L163.119 204.183C162.577 204.17 162.051 204.372 161.658 204.746C161.266 205.12 161.037 205.635 161.024 206.177C161.011 206.72 161.213 207.245 161.587 207.638C161.961 208.031 162.476 208.259 163.018 208.272L163.014 208.275Z" fill="#2AB6C5"/>
<path d="M250.845 166.775H212.373C210.987 166.773 209.629 167.162 208.456 167.898C207.282 168.635 206.341 169.688 205.741 170.937L187.955 208.252H235.765C236.656 208.254 237.527 207.99 238.265 207.493C239.004 206.995 239.577 206.288 239.91 205.463L253.702 170.934C254.499 168.938 253.013 166.775 250.845 166.775Z" fill="#2AB6C5"/>
<path d="M223.74 185.913C222.906 188.475 223.522 190.965 225.116 191.472C226.71 191.979 228.678 190.313 229.511 187.75C230.345 185.187 229.729 182.698 228.135 182.191C226.541 181.684 224.573 183.344 223.74 185.913Z" fill="#8BE1E5" fill-opacity="0.43"/>
<path d="M242.607 147.225C224.668 147.969 216.051 134.85 208.202 127.166C197.845 117.024 186.881 121.155 186.881 121.155L195.215 148.353C211.408 167.294 231.552 162.654 243.799 158.403C244.349 154.636 243.939 150.792 242.607 147.225Z" fill="url(#paint11_linear_931_5290)"/>
<path d="M268.551 139.369L262.358 141.888C254.878 145.406 248.351 146.986 242.604 147.225C243.938 150.792 244.35 154.639 243.801 158.408C251.596 155.701 256.701 151.994 256.701 151.994C270.815 145.517 268.551 139.369 268.551 139.369Z" fill="url(#paint12_linear_931_5290)"/>
<path d="M284.907 149.478C284.787 148.838 284.525 148.233 284.139 147.708C283.754 147.182 283.256 146.75 282.681 146.443L271.315 140.384C271.315 140.384 271.3 138.841 274.102 138.095C276.903 137.348 276.6 134.27 276.6 134.27C276.6 134.27 272.744 135.551 267.08 137.628C263.84 138.817 261.824 141.315 260.689 143.237L263.312 147.588C270.399 150.58 277.762 151.804 285.329 151.732L284.907 149.478Z" fill="url(#paint13_linear_931_5290)"/>
<path d="M189.098 129.229C189.098 129.229 192.77 135.013 194.577 148.66L189.098 129.229Z" fill="url(#paint14_linear_931_5290)"/>
<defs>
<linearGradient id="paint0_linear_931_5290" x1="309.165" y1="162.907" x2="293.669" y2="270.459" gradientUnits="userSpaceOnUse">
<stop stop-color="#FF928E"/>
<stop offset="1" stop-color="#FE7062"/>
</linearGradient>
<linearGradient id="paint1_linear_931_5290" x1="305.059" y1="9.32115" x2="282.273" y2="142.395" gradientUnits="userSpaceOnUse">
<stop stop-color="#FF928E"/>
<stop offset="1" stop-color="#FE7062"/>
</linearGradient>
<linearGradient id="paint2_linear_931_5290" x1="132.81" y1="156.203" x2="192.963" y2="30.4282" gradientUnits="userSpaceOnUse">
<stop stop-color="#E1473D"/>
<stop offset="1" stop-color="#E9605A"/>
</linearGradient>
<linearGradient id="paint3_linear_931_5290" x1="156.404" y1="349.554" x2="166.064" y2="349.554" gradientUnits="userSpaceOnUse">
<stop stop-color="#FEBBBA"/>
<stop offset="1" stop-color="#FF928E"/>
</linearGradient>
<linearGradient id="paint4_linear_931_5290" x1="102.142" y1="344.515" x2="113.689" y2="344.515" gradientUnits="userSpaceOnUse">
<stop stop-color="#FEBBBA"/>
<stop offset="1" stop-color="#FF928E"/>
</linearGradient>
<linearGradient id="paint5_linear_931_5290" x1="170.464" y1="142.524" x2="124.666" y2="247.11" gradientUnits="userSpaceOnUse">
<stop stop-color="#FE7062"/>
<stop offset="1" stop-color="#FF928E"/>
</linearGradient>
<linearGradient id="paint6_linear_931_5290" x1="159.024" y1="139.759" x2="164.027" y2="113.494" gradientUnits="userSpaceOnUse">
<stop stop-color="#FEBBBA"/>
<stop offset="1" stop-color="#FF928E"/>
</linearGradient>
<linearGradient id="paint7_linear_931_5290" x1="172.562" y1="91.5717" x2="144.018" y2="113.413" gradientUnits="userSpaceOnUse">
<stop stop-color="#FEBBBA"/>
<stop offset="1" stop-color="#FF928E"/>
</linearGradient>
<linearGradient id="paint8_linear_931_5290" x1="169.021" y1="86.9429" x2="140.477" y2="108.784" gradientUnits="userSpaceOnUse">
<stop stop-color="#FEBBBA"/>
<stop offset="1" stop-color="#FF928E"/>
</linearGradient>
<linearGradient id="paint9_linear_931_5290" x1="190.802" y1="98.4486" x2="221.563" y2="1.38289" gradientUnits="userSpaceOnUse">
<stop stop-color="#FEBBBA"/>
<stop offset="1" stop-color="#FF928E"/>
</linearGradient>
<linearGradient id="paint10_linear_931_5290" x1="-372.64" y1="-1509.45" x2="-403.4" y2="-1606.52" gradientUnits="userSpaceOnUse">
<stop stop-color="#FEBBBA"/>
<stop offset="1" stop-color="#FF928E"/>
</linearGradient>
<linearGradient id="paint11_linear_931_5290" x1="207.112" y1="158.573" x2="161.314" y2="263.158" gradientUnits="userSpaceOnUse">
<stop stop-color="#FE7062"/>
<stop offset="1" stop-color="#FF928E"/>
</linearGradient>
<linearGradient id="paint12_linear_931_5290" x1="1470.5" y1="-247.56" x2="1513.26" y2="-261.509" gradientUnits="userSpaceOnUse">
<stop stop-color="#FEBBBA"/>
<stop offset="1" stop-color="#FF928E"/>
</linearGradient>
<linearGradient id="paint13_linear_931_5290" x1="1471.3" y1="-245.316" x2="1514.06" y2="-259.264" gradientUnits="userSpaceOnUse">
<stop stop-color="#FEBBBA"/>
<stop offset="1" stop-color="#FF928E"/>
</linearGradient>
<linearGradient id="paint14_linear_931_5290" x1="189.098" y1="138.945" x2="194.577" y2="138.945" gradientUnits="userSpaceOnUse">
<stop stop-color="#E1473D"/>
<stop offset="1" stop-color="#E9605A"/>
</linearGradient>
</defs>
</svg>
