<svg width="152" height="209" viewBox="0 0 152 209" fill="none" xmlns="http://www.w3.org/2000/svg">
<path d="M20.2308 182.248V199H16.8708V182.248H20.2308ZM26.9105 181.24V199H23.5505V181.24H26.9105ZM33.5902 181.24V199H30.2302V181.24H33.5902ZM49.4619 185.704V199H46.0779V197.32C45.6459 197.896 45.0779 198.352 44.3739 198.688C43.6859 199.008 42.9339 199.168 42.1179 199.168C41.0779 199.168 40.1579 198.952 39.3579 198.52C38.5579 198.072 37.9259 197.424 37.4619 196.576C37.0139 195.712 36.7899 194.688 36.7899 193.504V185.704H40.1499V193.024C40.1499 194.08 40.4139 194.896 40.9419 195.472C41.4699 196.032 42.1899 196.312 43.1019 196.312C44.0299 196.312 44.7579 196.032 45.2859 195.472C45.8139 194.896 46.0779 194.08 46.0779 193.024V185.704H49.4619ZM57.8651 199.216C56.7771 199.216 55.8011 199.024 54.9371 198.64C54.0731 198.24 53.3851 197.704 52.8731 197.032C52.3771 196.36 52.1051 195.616 52.0571 194.8H55.4411C55.5051 195.312 55.7531 195.736 56.1851 196.072C56.6331 196.408 57.1851 196.576 57.8411 196.576C58.4811 196.576 58.9771 196.448 59.3291 196.192C59.6971 195.936 59.8811 195.608 59.8811 195.208C59.8811 194.776 59.6571 194.456 59.2091 194.248C58.7771 194.024 58.0811 193.784 57.1211 193.528C56.1291 193.288 55.3131 193.04 54.6731 192.784C54.0491 192.528 53.5051 192.136 53.0411 191.608C52.5931 191.08 52.3691 190.368 52.3691 189.472C52.3691 188.736 52.5771 188.064 52.9931 187.456C53.4251 186.848 54.0331 186.368 54.8171 186.016C55.6171 185.664 56.5531 185.488 57.6251 185.488C59.2091 185.488 60.4731 185.888 61.4171 186.688C62.3611 187.472 62.8811 188.536 62.9771 189.88H59.7611C59.7131 189.352 59.4891 188.936 59.0891 188.632C58.7051 188.312 58.1851 188.152 57.5291 188.152C56.9211 188.152 56.4491 188.264 56.1131 188.488C55.7931 188.712 55.6331 189.024 55.6331 189.424C55.6331 189.872 55.8571 190.216 56.3051 190.456C56.7531 190.68 57.4491 190.912 58.3931 191.152C59.3531 191.392 60.1451 191.64 60.7691 191.896C61.3931 192.152 61.9291 192.552 62.3771 193.096C62.8411 193.624 63.0811 194.328 63.0971 195.208C63.0971 195.976 62.8811 196.664 62.4491 197.272C62.0331 197.88 61.4251 198.36 60.6251 198.712C59.8411 199.048 58.9211 199.216 57.8651 199.216ZM69.7672 188.464V194.896C69.7672 195.344 69.8712 195.672 70.0792 195.88C70.3032 196.072 70.6712 196.168 71.1832 196.168H72.7432V199H70.6312C67.7992 199 66.3832 197.624 66.3832 194.872V188.464H64.7992V185.704H66.3832V182.416H69.7672V185.704H72.7432V188.464H69.7672ZM78.5199 187.768C78.9519 187.064 79.5119 186.512 80.1999 186.112C80.9039 185.712 81.7039 185.512 82.5999 185.512V189.04H81.7119C80.6559 189.04 79.8559 189.288 79.3119 189.784C78.7839 190.28 78.5199 191.144 78.5199 192.376V199H75.1599V185.704H78.5199V187.768ZM83.999 192.304C83.999 190.96 84.263 189.768 84.791 188.728C85.335 187.688 86.063 186.888 86.975 186.328C87.903 185.768 88.935 185.488 90.071 185.488C91.063 185.488 91.927 185.688 92.663 186.088C93.415 186.488 94.015 186.992 94.463 187.6V185.704H97.847V199H94.463V197.056C94.031 197.68 93.431 198.2 92.663 198.616C91.911 199.016 91.039 199.216 90.047 199.216C88.927 199.216 87.903 198.928 86.975 198.352C86.063 197.776 85.335 196.968 84.791 195.928C84.263 194.872 83.999 193.664 83.999 192.304ZM94.463 192.352C94.463 191.536 94.303 190.84 93.983 190.264C93.663 189.672 93.231 189.224 92.687 188.92C92.143 188.6 91.559 188.44 90.935 188.44C90.311 188.44 89.735 188.592 89.207 188.896C88.679 189.2 88.247 189.648 87.911 190.24C87.591 190.816 87.431 191.504 87.431 192.304C87.431 193.104 87.591 193.808 87.911 194.416C88.247 195.008 88.679 195.464 89.207 195.784C89.751 196.104 90.327 196.264 90.935 196.264C91.559 196.264 92.143 196.112 92.687 195.808C93.231 195.488 93.663 195.04 93.983 194.464C94.303 193.872 94.463 193.168 94.463 192.352ZM105.041 188.464V194.896C105.041 195.344 105.145 195.672 105.353 195.88C105.577 196.072 105.945 196.168 106.457 196.168H108.017V199H105.905C103.073 199 101.657 197.624 101.657 194.872V188.464H100.073V185.704H101.657V182.416H105.041V185.704H108.017V188.464H105.041ZM116.337 199.216C115.057 199.216 113.905 198.936 112.881 198.376C111.857 197.8 111.049 196.992 110.457 195.952C109.881 194.912 109.593 193.712 109.593 192.352C109.593 190.992 109.889 189.792 110.481 188.752C111.089 187.712 111.913 186.912 112.953 186.352C113.993 185.776 115.153 185.488 116.433 185.488C117.713 185.488 118.873 185.776 119.913 186.352C120.953 186.912 121.769 187.712 122.361 188.752C122.969 189.792 123.273 190.992 123.273 192.352C123.273 193.712 122.961 194.912 122.337 195.952C121.729 196.992 120.897 197.8 119.841 198.376C118.801 198.936 117.633 199.216 116.337 199.216ZM116.337 196.288C116.945 196.288 117.513 196.144 118.041 195.856C118.585 195.552 119.017 195.104 119.337 194.512C119.657 193.92 119.817 193.2 119.817 192.352C119.817 191.088 119.481 190.12 118.809 189.448C118.153 188.76 117.345 188.416 116.385 188.416C115.425 188.416 114.617 188.76 113.961 189.448C113.321 190.12 113.001 191.088 113.001 192.352C113.001 193.616 113.313 194.592 113.937 195.28C114.577 195.952 115.377 196.288 116.337 196.288ZM129.098 187.768C129.53 187.064 130.09 186.512 130.778 186.112C131.482 185.712 132.282 185.512 133.178 185.512V189.04H132.29C131.234 189.04 130.434 189.288 129.89 189.784C129.362 190.28 129.098 191.144 129.098 192.376V199H125.738V185.704H129.098V187.768Z" fill="#2C2C2C"/>
<g filter="url(#filter0_dd_585_874)">
<rect x="4" y="4" width="140" height="140" rx="20" fill="white"/>
<rect x="4.5" y="4.5" width="139" height="139" rx="19.5" stroke="#81C592"/>
</g>
<mask id="mask0_585_874" style="mask-type:alpha" maskUnits="userSpaceOnUse" x="18" y="18" width="112" height="112">
<rect x="18" y="18" width="112" height="112" fill="#D9D9D9"/>
</mask>
<g mask="url(#mask0_585_874)">
<path d="M27.334 61.1117C27.334 49.2884 27.334 43.3768 29.635 38.8609C31.659 34.8886 34.8886 31.659 38.8609 29.635C43.3768 27.334 49.2884 27.334 61.1117 27.334H86.8897C98.713 27.334 104.625 27.334 109.14 29.635C113.113 31.659 116.342 34.8886 118.366 38.8609C120.667 43.3768 120.667 49.2884 120.667 61.1117V86.8897C120.667 98.713 120.667 104.625 118.366 109.14C116.342 113.113 113.113 116.342 109.14 118.366C104.625 120.667 98.713 120.667 86.8897 120.667H61.1117C49.2884 120.667 43.3768 120.667 38.8609 118.366C34.8886 116.342 31.659 113.113 29.635 109.14C27.334 104.625 27.334 98.713 27.334 86.8897V61.1117Z" fill="#330000"/>
<path d="M72.562 85.9872H58.099L55.1563 95.3629C55.0747 95.7112 54.754 95.9579 54.405 95.9405H47.0795C46.6617 95.9405 46.5156 95.7052 46.6412 95.2342L59.1633 58.2455C59.2887 57.8602 59.414 57.4215 59.539 56.9292C59.703 56.0722 59.7867 55.2015 59.7897 54.3285C59.7537 54.0705 59.9803 53.8427 60.2277 53.8788H70.183C70.4747 53.8788 70.6413 53.9859 70.6837 54.1999L84.8967 95.2985C85.0217 95.7269 84.8967 95.9409 84.521 95.9405H76.3813C76.096 95.9732 75.8233 95.7775 75.7553 95.4912L72.562 85.9872ZM60.353 77.8959H70.2457C68.6203 72.3419 66.786 66.8609 65.2993 61.2639C63.6953 66.8705 61.9453 72.4545 60.353 77.8959Z" fill="#FF9A00"/>
<path d="M93.3468 60.6873C92.7081 60.7136 92.0715 60.6013 91.4778 60.358C90.8845 60.1146 90.3478 59.7453 89.9031 59.2746C89.4598 58.7833 89.1151 58.2073 88.8895 57.579C88.6638 56.951 88.5615 56.2833 88.5881 55.6143C88.5655 54.952 88.6791 54.2923 88.9218 53.6781C89.1648 53.064 89.5311 52.5093 89.9971 52.0502C90.4585 51.5959 91.0031 51.24 91.5998 51.003C92.1961 50.766 92.8325 50.6527 93.4718 50.6696C94.9748 50.6696 96.1538 51.1298 97.0095 52.0502C97.4415 52.5286 97.7771 53.0896 97.9975 53.7011C98.2175 54.3126 98.3181 54.963 98.2928 55.6143C98.3191 56.2856 98.2135 56.956 97.9821 57.5846C97.7511 58.2133 97.3988 58.788 96.9468 59.2746C96.4745 59.7523 95.9105 60.1243 95.2911 60.3676C94.6715 60.6106 94.0095 60.7196 93.3468 60.6873ZM89.0265 95.3V64.6046C89.0265 64.2193 89.1928 64.0266 89.5275 64.0266H97.2288C97.5621 64.0266 97.7291 64.2193 97.7295 64.6046V95.3C97.7295 95.7286 97.5625 95.9426 97.2288 95.9423H89.5901C89.2145 95.9423 89.0265 95.7283 89.0265 95.3Z" fill="#FF9A00"/>
</g>
<defs>
<filter id="filter0_dd_585_874" x="0" y="0" width="152" height="152" filterUnits="userSpaceOnUse" color-interpolation-filters="sRGB">
<feFlood flood-opacity="0" result="BackgroundImageFix"/>
<feColorMatrix in="SourceAlpha" type="matrix" values="0 0 0 0 0 0 0 0 0 0 0 0 0 0 0 0 0 0 127 0" result="hardAlpha"/>
<feOffset dy="4"/>
<feGaussianBlur stdDeviation="2"/>
<feComposite in2="hardAlpha" operator="out"/>
<feColorMatrix type="matrix" values="0 0 0 0 0 0 0 0 0 0 0 0 0 0 0 0 0 0 0.1 0"/>
<feBlend mode="normal" in2="BackgroundImageFix" result="effect1_dropShadow_585_874"/>
<feColorMatrix in="SourceAlpha" type="matrix" values="0 0 0 0 0 0 0 0 0 0 0 0 0 0 0 0 0 0 127 0" result="hardAlpha"/>
<feOffset dx="4"/>
<feGaussianBlur stdDeviation="2"/>
<feComposite in2="hardAlpha" operator="out"/>
<feColorMatrix type="matrix" values="0 0 0 0 0 0 0 0 0 0 0 0 0 0 0 0 0 0 0.1 0"/>
<feBlend mode="normal" in2="effect1_dropShadow_585_874" result="effect2_dropShadow_585_874"/>
<feBlend mode="normal" in="SourceGraphic" in2="effect2_dropShadow_585_874" result="shape"/>
</filter>
</defs>
</svg>
