<svg width="152" height="209" viewBox="0 0 152 209" fill="none" xmlns="http://www.w3.org/2000/svg">
<path d="M22.9228 187.432C22.9228 188.328 22.7068 189.168 22.2748 189.952C21.8588 190.736 21.1948 191.368 20.2828 191.848C19.3868 192.328 18.2508 192.568 16.8748 192.568H14.0668V199H10.7068V182.248H16.8748C18.1708 182.248 19.2748 182.472 20.1868 182.92C21.0988 183.368 21.7788 183.984 22.2268 184.768C22.6908 185.552 22.9228 186.44 22.9228 187.432ZM16.7308 189.856C17.6588 189.856 18.3468 189.648 18.7948 189.232C19.2428 188.8 19.4668 188.2 19.4668 187.432C19.4668 185.8 18.5548 184.984 16.7308 184.984H14.0668V189.856H16.7308ZM32.7963 185.512C33.8043 185.512 34.7003 185.736 35.4843 186.184C36.2683 186.616 36.8763 187.264 37.3083 188.128C37.7563 188.976 37.9803 190 37.9803 191.2V199H34.6203V191.656C34.6203 190.6 34.3563 189.792 33.8283 189.232C33.3003 188.656 32.5803 188.368 31.6683 188.368C30.7403 188.368 30.0043 188.656 29.4603 189.232C28.9323 189.792 28.6683 190.6 28.6683 191.656V199H25.3083V181.24H28.6683V187.36C29.1003 186.784 29.6763 186.336 30.3963 186.016C31.1163 185.68 31.9163 185.512 32.7963 185.512ZM47.0795 199.216C45.7995 199.216 44.6475 198.936 43.6235 198.376C42.5995 197.8 41.7915 196.992 41.1995 195.952C40.6235 194.912 40.3355 193.712 40.3355 192.352C40.3355 190.992 40.6315 189.792 41.2235 188.752C41.8315 187.712 42.6555 186.912 43.6955 186.352C44.7355 185.776 45.8955 185.488 47.1755 185.488C48.4555 185.488 49.6155 185.776 50.6555 186.352C51.6955 186.912 52.5115 187.712 53.1035 188.752C53.7115 189.792 54.0155 190.992 54.0155 192.352C54.0155 193.712 53.7035 194.912 53.0795 195.952C52.4715 196.992 51.6395 197.8 50.5835 198.376C49.5435 198.936 48.3755 199.216 47.0795 199.216ZM47.0795 196.288C47.6875 196.288 48.2555 196.144 48.7835 195.856C49.3275 195.552 49.7595 195.104 50.0795 194.512C50.3995 193.92 50.5595 193.2 50.5595 192.352C50.5595 191.088 50.2235 190.12 49.5515 189.448C48.8955 188.76 48.0875 188.416 47.1275 188.416C46.1675 188.416 45.3595 188.76 44.7035 189.448C44.0635 190.12 43.7435 191.088 43.7435 192.352C43.7435 193.616 44.0555 194.592 44.6795 195.28C45.3195 195.952 46.1195 196.288 47.0795 196.288ZM60.3922 188.464V194.896C60.3922 195.344 60.4962 195.672 60.7042 195.88C60.9282 196.072 61.2962 196.168 61.8082 196.168H63.3682V199H61.2562C58.4242 199 57.0082 197.624 57.0082 194.872V188.464H55.4242V185.704H57.0082V182.416H60.3922V185.704H63.3682V188.464H60.3922ZM71.6889 199.216C70.4089 199.216 69.2569 198.936 68.2329 198.376C67.2089 197.8 66.4009 196.992 65.8089 195.952C65.2329 194.912 64.9449 193.712 64.9449 192.352C64.9449 190.992 65.2409 189.792 65.8329 188.752C66.4409 187.712 67.2649 186.912 68.3049 186.352C69.3449 185.776 70.5049 185.488 71.7849 185.488C73.0649 185.488 74.2249 185.776 75.2649 186.352C76.3049 186.912 77.1209 187.712 77.7129 188.752C78.3209 189.792 78.6249 190.992 78.6249 192.352C78.6249 193.712 78.3129 194.912 77.6889 195.952C77.0809 196.992 76.2489 197.8 75.1929 198.376C74.1529 198.936 72.9849 199.216 71.6889 199.216ZM71.6889 196.288C72.2969 196.288 72.8649 196.144 73.3929 195.856C73.9369 195.552 74.3689 195.104 74.6889 194.512C75.0089 193.92 75.1689 193.2 75.1689 192.352C75.1689 191.088 74.8329 190.12 74.1609 189.448C73.5049 188.76 72.6969 188.416 71.7369 188.416C70.7769 188.416 69.9689 188.76 69.3129 189.448C68.6729 190.12 68.3529 191.088 68.3529 192.352C68.3529 193.616 68.6649 194.592 69.2889 195.28C69.9289 195.952 70.7289 196.288 71.6889 196.288ZM86.1776 199.216C85.0896 199.216 84.1136 199.024 83.2496 198.64C82.3856 198.24 81.6976 197.704 81.1856 197.032C80.6896 196.36 80.4176 195.616 80.3696 194.8H83.7536C83.8176 195.312 84.0656 195.736 84.4976 196.072C84.9456 196.408 85.4976 196.576 86.1536 196.576C86.7936 196.576 87.2896 196.448 87.6416 196.192C88.0096 195.936 88.1936 195.608 88.1936 195.208C88.1936 194.776 87.9696 194.456 87.5216 194.248C87.0896 194.024 86.3936 193.784 85.4336 193.528C84.4416 193.288 83.6256 193.04 82.9856 192.784C82.3616 192.528 81.8176 192.136 81.3536 191.608C80.9056 191.08 80.6816 190.368 80.6816 189.472C80.6816 188.736 80.8896 188.064 81.3056 187.456C81.7376 186.848 82.3456 186.368 83.1296 186.016C83.9296 185.664 84.8656 185.488 85.9376 185.488C87.5216 185.488 88.7856 185.888 89.7296 186.688C90.6736 187.472 91.1936 188.536 91.2896 189.88H88.0736C88.0256 189.352 87.8016 188.936 87.4016 188.632C87.0176 188.312 86.4976 188.152 85.8416 188.152C85.2336 188.152 84.7616 188.264 84.4256 188.488C84.1056 188.712 83.9456 189.024 83.9456 189.424C83.9456 189.872 84.1696 190.216 84.6176 190.456C85.0656 190.68 85.7616 190.912 86.7056 191.152C87.6656 191.392 88.4576 191.64 89.0816 191.896C89.7056 192.152 90.2416 192.552 90.6896 193.096C91.1536 193.624 91.3936 194.328 91.4096 195.208C91.4096 195.976 91.1936 196.664 90.7616 197.272C90.3456 197.88 89.7376 198.36 88.9376 198.712C88.1536 199.048 87.2336 199.216 86.1776 199.216ZM101.656 185.512C102.664 185.512 103.56 185.736 104.344 186.184C105.128 186.616 105.736 187.264 106.168 188.128C106.616 188.976 106.84 190 106.84 191.2V199H103.48V191.656C103.48 190.6 103.216 189.792 102.688 189.232C102.16 188.656 101.44 188.368 100.528 188.368C99.5997 188.368 98.8637 188.656 98.3197 189.232C97.7917 189.792 97.5277 190.6 97.5277 191.656V199H94.1677V181.24H97.5277V187.36C97.9597 186.784 98.5357 186.336 99.2557 186.016C99.9757 185.68 100.776 185.512 101.656 185.512ZM115.939 199.216C114.659 199.216 113.507 198.936 112.483 198.376C111.459 197.8 110.651 196.992 110.059 195.952C109.483 194.912 109.195 193.712 109.195 192.352C109.195 190.992 109.491 189.792 110.083 188.752C110.691 187.712 111.515 186.912 112.555 186.352C113.595 185.776 114.755 185.488 116.035 185.488C117.315 185.488 118.475 185.776 119.515 186.352C120.555 186.912 121.371 187.712 121.963 188.752C122.571 189.792 122.875 190.992 122.875 192.352C122.875 193.712 122.563 194.912 121.939 195.952C121.331 196.992 120.499 197.8 119.443 198.376C118.403 198.936 117.235 199.216 115.939 199.216ZM115.939 196.288C116.547 196.288 117.115 196.144 117.643 195.856C118.187 195.552 118.619 195.104 118.939 194.512C119.259 193.92 119.419 193.2 119.419 192.352C119.419 191.088 119.083 190.12 118.411 189.448C117.755 188.76 116.947 188.416 115.987 188.416C115.027 188.416 114.219 188.76 113.563 189.448C112.923 190.12 112.603 191.088 112.603 192.352C112.603 193.616 112.915 194.592 113.539 195.28C114.179 195.952 114.979 196.288 115.939 196.288ZM128.7 187.624C129.132 187.016 129.724 186.512 130.476 186.112C131.244 185.696 132.116 185.488 133.092 185.488C134.228 185.488 135.252 185.768 136.164 186.328C137.092 186.888 137.82 187.688 138.348 188.728C138.892 189.752 139.164 190.944 139.164 192.304C139.164 193.664 138.892 194.872 138.348 195.928C137.82 196.968 137.092 197.776 136.164 198.352C135.252 198.928 134.228 199.216 133.092 199.216C132.116 199.216 131.252 199.016 130.5 198.616C129.764 198.216 129.164 197.712 128.7 197.104V205.336H125.34V185.704H128.7V187.624ZM135.732 192.304C135.732 191.504 135.564 190.816 135.228 190.24C134.908 189.648 134.476 189.2 133.932 188.896C133.404 188.592 132.828 188.44 132.204 188.44C131.596 188.44 131.02 188.6 130.476 188.92C129.948 189.224 129.516 189.672 129.18 190.264C128.86 190.856 128.7 191.552 128.7 192.352C128.7 193.152 128.86 193.848 129.18 194.44C129.516 195.032 129.948 195.488 130.476 195.808C131.02 196.112 131.596 196.264 132.204 196.264C132.828 196.264 133.404 196.104 133.932 195.784C134.476 195.464 134.908 195.008 135.228 194.416C135.564 193.824 135.732 193.12 135.732 192.304Z" fill="#2C2C2C"/>
<g filter="url(#filter0_dd_585_875)">
<rect x="4" y="4" width="140" height="140" rx="20" fill="white"/>
<rect x="4.5" y="4.5" width="139" height="139" rx="19.5" stroke="#81C592"/>
</g>
<mask id="mask0_585_875" style="mask-type:alpha" maskUnits="userSpaceOnUse" x="18" y="18" width="112" height="112">
<rect x="18" y="18" width="112" height="112" fill="#D9D9D9"/>
</mask>
<g mask="url(#mask0_585_875)">
<path d="M43.8627 27.334H104.141C113.279 27.334 120.668 34.7229 120.668 43.8618V101.806C120.668 110.945 113.279 118.334 104.141 118.334H43.8627C34.7238 118.334 27.335 110.945 27.335 101.806V43.8618C27.335 34.7229 34.7238 27.334 43.8627 27.334Z" fill="#001E36"/>
<path d="M48.335 91.1504V51.1338C48.335 50.8615 48.4516 50.706 48.7238 50.706C49.385 50.706 50.0072 50.706 50.9016 50.6671C51.835 50.6282 52.8072 50.6282 53.8572 50.5893C54.9072 50.5504 56.035 50.5504 57.2405 50.5115C58.4461 50.4727 59.6127 50.4727 60.7794 50.4727C63.9683 50.4727 66.6127 50.8615 68.7905 51.6782C70.735 52.3393 72.5238 53.4282 74.0016 54.8671C75.2461 56.1115 76.2183 57.6282 76.8405 59.3004C77.4239 60.9338 77.735 62.606 77.735 64.356C77.735 67.7004 76.9572 70.4615 75.4016 72.6393C73.8461 74.8171 71.6683 76.4504 69.1405 77.3838C66.4961 78.356 63.5794 78.706 60.3905 78.706C59.4572 78.706 58.835 78.706 58.4461 78.6671C58.0572 78.6282 57.5127 78.6282 56.7738 78.6282V91.1115C56.8127 91.3838 56.6183 91.6171 56.3461 91.656C56.3072 91.656 56.2683 91.656 56.1905 91.656H48.8016C48.4905 91.656 48.335 91.5004 48.335 91.1504ZM56.8127 58.2115V71.2782C57.3572 71.3171 57.8627 71.356 58.3294 71.356H60.3905C61.9072 71.356 63.4239 71.1227 64.8627 70.656C66.1072 70.306 67.1961 69.5671 68.0516 68.5949C68.8683 67.6227 69.2572 66.3004 69.2572 64.5893C69.2961 63.3838 68.985 62.1782 68.3627 61.1282C67.7016 60.1171 66.7683 59.3393 65.6405 58.9115C64.2016 58.3282 62.6461 58.0949 61.0516 58.1338C60.0405 58.1338 59.1461 58.1338 58.4072 58.1727C57.6294 58.1338 57.085 58.1727 56.8127 58.2115Z" fill="#31A8FF"/>
<path d="M102.001 68.9061C100.834 68.2839 99.59 67.8561 98.2678 67.5839C96.8289 67.2727 95.39 67.0783 93.9122 67.0783C93.1345 67.0394 92.3178 67.1561 91.5789 67.3505C91.0734 67.4672 90.6456 67.7394 90.3734 68.1283C90.1789 68.4394 90.0622 68.8283 90.0622 69.1783C90.0622 69.5283 90.2178 69.8783 90.4511 70.1894C90.8011 70.6172 91.2678 70.9672 91.7734 71.2394C92.6678 71.7061 93.6011 72.1339 94.5345 72.5227C96.6345 73.2227 98.6567 74.195 100.523 75.3616C101.807 76.1783 102.857 77.2672 103.596 78.5894C104.218 79.8339 104.529 81.195 104.49 82.595C104.529 84.4227 103.984 86.2505 102.973 87.7672C101.884 89.3227 100.368 90.5283 98.6178 91.2283C96.7122 92.045 94.3789 92.4727 91.5789 92.4727C89.79 92.4727 88.04 92.3172 86.29 91.9672C84.9289 91.7339 83.5678 91.3061 82.3234 90.7227C82.0511 90.5672 81.8567 90.295 81.8956 89.9839V83.2172C81.8956 83.1005 81.9345 82.945 82.0511 82.8672C82.1678 82.7894 82.2845 82.8283 82.4011 82.9061C83.9178 83.8005 85.5122 84.4227 87.2234 84.8116C88.7011 85.2005 90.2567 85.395 91.8122 85.395C93.29 85.395 94.34 85.2005 95.04 84.8505C95.6622 84.5783 96.09 83.9172 96.09 83.2172C96.09 82.6727 95.7789 82.1672 95.1567 81.6616C94.5345 81.1561 93.2511 80.5727 91.3456 79.8339C89.3622 79.1339 87.5345 78.2005 85.8234 77.0339C84.6178 76.1783 83.6067 75.0505 82.8678 73.7283C82.2456 72.4839 81.9345 71.1227 81.9734 69.7616C81.9734 68.0894 82.44 66.495 83.2956 65.0561C84.2678 63.5005 85.7067 62.2561 87.3789 61.4783C89.2067 60.545 91.5011 60.1172 94.2622 60.1172C95.8567 60.1172 97.49 60.2339 99.0845 60.4672C100.251 60.6227 101.379 60.9339 102.429 61.3616C102.584 61.4005 102.74 61.5561 102.818 61.7116C102.857 61.8672 102.896 62.0227 102.896 62.1783V68.5172C102.896 68.6727 102.818 68.8283 102.701 68.9061C102.351 68.9839 102.157 68.9839 102.001 68.9061Z" fill="#31A8FF"/>
</g>
<defs>
<filter id="filter0_dd_585_875" x="0" y="0" width="152" height="152" filterUnits="userSpaceOnUse" color-interpolation-filters="sRGB">
<feFlood flood-opacity="0" result="BackgroundImageFix"/>
<feColorMatrix in="SourceAlpha" type="matrix" values="0 0 0 0 0 0 0 0 0 0 0 0 0 0 0 0 0 0 127 0" result="hardAlpha"/>
<feOffset dy="4"/>
<feGaussianBlur stdDeviation="2"/>
<feComposite in2="hardAlpha" operator="out"/>
<feColorMatrix type="matrix" values="0 0 0 0 0 0 0 0 0 0 0 0 0 0 0 0 0 0 0.1 0"/>
<feBlend mode="normal" in2="BackgroundImageFix" result="effect1_dropShadow_585_875"/>
<feColorMatrix in="SourceAlpha" type="matrix" values="0 0 0 0 0 0 0 0 0 0 0 0 0 0 0 0 0 0 127 0" result="hardAlpha"/>
<feOffset dx="4"/>
<feGaussianBlur stdDeviation="2"/>
<feComposite in2="hardAlpha" operator="out"/>
<feColorMatrix type="matrix" values="0 0 0 0 0 0 0 0 0 0 0 0 0 0 0 0 0 0 0.1 0"/>
<feBlend mode="normal" in2="effect1_dropShadow_585_875" result="effect2_dropShadow_585_875"/>
<feBlend mode="normal" in="SourceGraphic" in2="effect2_dropShadow_585_875" result="shape"/>
</filter>
</defs>
</svg>
