<svg width="212" height="279" viewBox="0 0 212 279" fill="none" xmlns="http://www.w3.org/2000/svg">
<g filter="url(#filter0_dd_581_21)">
<rect x="4" y="4" width="200" height="200" rx="20" fill="white"/>
<rect x="4.5" y="4.5" width="199" height="199" rx="19.5" stroke="#81C592"/>
</g>
<path d="M43.91 263.01H35.57L34.19 267H29.78L37.31 246.03H42.2L49.73 267H45.29L43.91 263.01ZM42.77 259.65L39.74 250.89L36.71 259.65H42.77ZM51.4646 258.63C51.4646 256.95 51.7946 255.46 52.4546 254.16C53.1346 252.86 54.0546 251.86 55.2146 251.16C56.3746 250.46 57.6646 250.11 59.0846 250.11C60.1646 250.11 61.1946 250.35 62.1746 250.83C63.1546 251.29 63.9346 251.91 64.5146 252.69V244.8H68.7746V267H64.5146V264.54C63.9946 265.36 63.2646 266.02 62.3246 266.52C61.3846 267.02 60.2946 267.27 59.0546 267.27C57.6546 267.27 56.3746 266.91 55.2146 266.19C54.0546 265.47 53.1346 264.46 52.4546 263.16C51.7946 261.84 51.4646 260.33 51.4646 258.63ZM64.5446 258.69C64.5446 257.67 64.3446 256.8 63.9446 256.08C63.5446 255.34 63.0046 254.78 62.3246 254.4C61.6446 254 60.9146 253.8 60.1346 253.8C59.3546 253.8 58.6346 253.99 57.9746 254.37C57.3146 254.75 56.7746 255.31 56.3546 256.05C55.9546 256.77 55.7546 257.63 55.7546 258.63C55.7546 259.63 55.9546 260.51 56.3546 261.27C56.7746 262.01 57.3146 262.58 57.9746 262.98C58.6546 263.38 59.3746 263.58 60.1346 263.58C60.9146 263.58 61.6446 263.39 62.3246 263.01C63.0046 262.61 63.5446 262.05 63.9446 261.33C64.3446 260.59 64.5446 259.71 64.5446 258.69ZM80.2566 267.27C78.6566 267.27 77.2166 266.92 75.9366 266.22C74.6566 265.5 73.6466 264.49 72.9066 263.19C72.1866 261.89 71.8266 260.39 71.8266 258.69C71.8266 256.99 72.1966 255.49 72.9366 254.19C73.6966 252.89 74.7266 251.89 76.0266 251.19C77.3266 250.47 78.7766 250.11 80.3766 250.11C81.9766 250.11 83.4266 250.47 84.7266 251.19C86.0266 251.89 87.0466 252.89 87.7866 254.19C88.5466 255.49 88.9266 256.99 88.9266 258.69C88.9266 260.39 88.5366 261.89 87.7566 263.19C86.9966 264.49 85.9566 265.5 84.6366 266.22C83.3366 266.92 81.8766 267.27 80.2566 267.27ZM80.2566 263.61C81.0166 263.61 81.7266 263.43 82.3866 263.07C83.0666 262.69 83.6066 262.13 84.0066 261.39C84.4066 260.65 84.6066 259.75 84.6066 258.69C84.6066 257.11 84.1866 255.9 83.3466 255.06C82.5266 254.2 81.5166 253.77 80.3166 253.77C79.1166 253.77 78.1066 254.2 77.2866 255.06C76.4866 255.9 76.0866 257.11 76.0866 258.69C76.0866 260.27 76.4766 261.49 77.2566 262.35C78.0566 263.19 79.0566 263.61 80.2566 263.61ZM96.2075 252.81C96.7475 252.01 97.4875 251.36 98.4275 250.86C99.3875 250.36 100.478 250.11 101.698 250.11C103.118 250.11 104.398 250.46 105.538 251.16C106.698 251.86 107.608 252.86 108.268 254.16C108.948 255.44 109.288 256.93 109.288 258.63C109.288 260.33 108.948 261.84 108.268 263.16C107.608 264.46 106.698 265.47 105.538 266.19C104.398 266.91 103.118 267.27 101.698 267.27C100.458 267.27 99.3675 267.03 98.4275 266.55C97.5075 266.05 96.7675 265.41 96.2075 264.63V267H92.0075V244.8H96.2075V252.81ZM104.998 258.63C104.998 257.63 104.788 256.77 104.368 256.05C103.968 255.31 103.428 254.75 102.748 254.37C102.088 253.99 101.368 253.8 100.588 253.8C99.8275 253.8 99.1075 254 98.4275 254.4C97.7675 254.78 97.2275 255.34 96.8075 256.08C96.4075 256.82 96.2075 257.69 96.2075 258.69C96.2075 259.69 96.4075 260.56 96.8075 261.3C97.2275 262.04 97.7675 262.61 98.4275 263.01C99.1075 263.39 99.8275 263.58 100.588 263.58C101.368 263.58 102.088 263.38 102.748 262.98C103.428 262.58 103.968 262.01 104.368 261.27C104.788 260.53 104.998 259.65 104.998 258.63ZM127.79 258.33C127.79 258.93 127.75 259.47 127.67 259.95H115.52C115.62 261.15 116.04 262.09 116.78 262.77C117.52 263.45 118.43 263.79 119.51 263.79C121.07 263.79 122.18 263.12 122.84 261.78H127.37C126.89 263.38 125.97 264.7 124.61 265.74C123.25 266.76 121.58 267.27 119.6 267.27C118 267.27 116.56 266.92 115.28 266.22C114.02 265.5 113.03 264.49 112.31 263.19C111.61 261.89 111.26 260.39 111.26 258.69C111.26 256.97 111.61 255.46 112.31 254.16C113.01 252.86 113.99 251.86 115.25 251.16C116.51 250.46 117.96 250.11 119.6 250.11C121.18 250.11 122.59 250.45 123.83 251.13C125.09 251.81 126.06 252.78 126.74 254.04C127.44 255.28 127.79 256.71 127.79 258.33ZM123.44 257.13C123.42 256.05 123.03 255.19 122.27 254.55C121.51 253.89 120.58 253.56 119.48 253.56C118.44 253.56 117.56 253.88 116.84 254.52C116.14 255.14 115.71 256.01 115.55 257.13H123.44ZM150.544 267L146.014 259.95L141.904 267H137.164L143.764 256.44L137.074 246.06H141.904L146.434 253.08L150.514 246.06H155.254L148.684 256.59L155.374 267H150.544ZM165.89 246.06C168.09 246.06 170.02 246.49 171.68 247.35C173.36 248.21 174.65 249.44 175.55 251.04C176.47 252.62 176.93 254.46 176.93 256.56C176.93 258.66 176.47 260.5 175.55 262.08C174.65 263.64 173.36 264.85 171.68 265.71C170.02 266.57 168.09 267 165.89 267H158.57V246.06H165.89ZM165.74 263.43C167.94 263.43 169.64 262.83 170.84 261.63C172.04 260.43 172.64 258.74 172.64 256.56C172.64 254.38 172.04 252.68 170.84 251.46C169.64 250.22 167.94 249.6 165.74 249.6H162.77V263.43H165.74Z" fill="#2C2C2C"/>
<mask id="mask0_581_21" style="mask-type:alpha" maskUnits="userSpaceOnUse" x="24" y="24" width="160" height="160">
<rect x="24" y="24" width="160" height="160" fill="#D9D9D9"/>
</mask>
<g mask="url(#mask0_581_21)">
<path d="M37.3336 85.5878C37.3336 68.6975 37.3336 60.2522 40.6207 53.8009C43.5121 48.1262 48.1259 43.5125 53.8006 40.6211C60.2519 37.334 68.6971 37.334 85.5874 37.334H122.413C139.304 37.334 147.749 37.334 154.2 40.6211C159.875 43.5125 164.488 48.1262 167.38 53.8009C170.667 60.2522 170.667 68.6975 170.667 85.5878V122.414C170.667 139.304 170.667 147.749 167.38 154.2C164.488 159.875 159.875 164.489 154.2 167.38C147.749 170.667 139.304 170.667 122.413 170.667H85.5874C68.6971 170.667 60.2519 170.667 53.8006 167.38C48.1259 164.489 43.5121 159.875 40.6207 154.2C37.3336 147.749 37.3336 139.304 37.3336 122.414V85.5878Z" fill="#470137"/>
<path d="M107.077 76.5418L90.4407 104.706L108.24 134.612C108.61 135.29 108.24 135.44 107.704 135.44H95.0026C94.1079 135.44 93.4817 135.407 93.1241 134.796C91.9302 132.41 90.7379 130.04 89.546 127.686C88.3526 125.332 87.0855 122.931 85.745 120.484C84.4031 118.039 83.0764 115.562 81.7645 113.054C80.5712 115.5 79.2441 117.947 77.9631 120.393C76.6802 122.839 75.4131 125.27 74.1617 127.686C72.9096 130.102 71.6275 132.503 70.3157 134.887C70.0767 135.437 69.6587 135.494 69.0632 135.494H56.8096C56.3281 135.494 56.27 135.132 56.5413 134.704L73.8039 105.623L56.9883 76.4499C56.6829 76.0337 56.9458 75.5903 57.4357 75.6241H70.0471C70.5932 75.5937 71.0759 75.7994 71.3889 76.2665C72.4622 78.7132 73.6548 81.1599 74.9666 83.6056C76.2774 86.0522 77.6045 88.4684 78.9469 90.8527C80.2888 93.238 81.6155 95.6537 82.7483 98.1003C83.9402 95.5932 85.1479 93.147 86.3707 90.7613C87.5926 88.376 88.8445 85.9756 90.1274 83.5599C91.4093 81.1446 92.6464 78.7441 93.8393 76.3584C93.9979 75.8351 94.3769 75.5699 94.9126 75.6241H106.63C107.077 75.6241 107.262 76.2351 107.077 76.5418Z" fill="#FF61F6"/>
<path d="M132.75 136.632C124.862 136.756 116.599 133.507 112.446 126.312C110.418 122.857 109.404 118.53 109.405 113.331C109.371 109.12 110.42 104.975 112.446 101.313C117.673 91.9694 128.203 88.4684 138.206 89.3875V71.3149C138.206 70.8877 138.385 70.6728 138.742 70.6728H150.012C150.321 70.6276 150.593 70.9072 150.549 71.2231V125.44C150.549 127.677 150.771 129.906 150.907 132.137C150.929 132.518 150.709 132.895 150.37 133.055C144.802 135.437 138.777 136.605 132.75 136.632ZM138.206 125.257V100.212C130.036 97.9427 122.105 104.165 122.106 112.78C121.912 121.687 129.59 127.841 138.206 125.257Z" fill="#FF61F6"/>
</g>
<defs>
<filter id="filter0_dd_581_21" x="0" y="0" width="212" height="212" filterUnits="userSpaceOnUse" color-interpolation-filters="sRGB">
<feFlood flood-opacity="0" result="BackgroundImageFix"/>
<feColorMatrix in="SourceAlpha" type="matrix" values="0 0 0 0 0 0 0 0 0 0 0 0 0 0 0 0 0 0 127 0" result="hardAlpha"/>
<feOffset dy="4"/>
<feGaussianBlur stdDeviation="2"/>
<feComposite in2="hardAlpha" operator="out"/>
<feColorMatrix type="matrix" values="0 0 0 0 0 0 0 0 0 0 0 0 0 0 0 0 0 0 0.1 0"/>
<feBlend mode="normal" in2="BackgroundImageFix" result="effect1_dropShadow_581_21"/>
<feColorMatrix in="SourceAlpha" type="matrix" values="0 0 0 0 0 0 0 0 0 0 0 0 0 0 0 0 0 0 127 0" result="hardAlpha"/>
<feOffset dx="4"/>
<feGaussianBlur stdDeviation="2"/>
<feComposite in2="hardAlpha" operator="out"/>
<feColorMatrix type="matrix" values="0 0 0 0 0 0 0 0 0 0 0 0 0 0 0 0 0 0 0.1 0"/>
<feBlend mode="normal" in2="effect1_dropShadow_581_21" result="effect2_dropShadow_581_21"/>
<feBlend mode="normal" in="SourceGraphic" in2="effect2_dropShadow_581_21" result="shape"/>
</filter>
</defs>
</svg>
