<svg width="1440" height="518" viewBox="0 0 1440 518" fill="none" xmlns="http://www.w3.org/2000/svg">
<path opacity="0.2" d="M1440.07 314.443C1439.89 314.443 1439.71 314.391 1439.56 314.294C1439.41 314.196 1439.29 314.057 1439.22 313.893L1432.89 299.723L1424.63 309.113C1424.51 309.255 1424.34 309.356 1424.16 309.402C1423.97 309.449 1423.78 309.438 1423.6 309.372C1423.43 309.305 1423.27 309.187 1423.17 309.031C1423.06 308.876 1423 308.692 1423 308.503V267.943C1423 267.765 1423.04 267.589 1423.14 267.438C1423.23 267.286 1423.37 267.165 1423.53 267.089C1423.69 267.012 1423.87 266.984 1424.04 267.008C1424.22 267.032 1424.39 267.107 1424.52 267.223L1455.77 292.923C1455.92 293.039 1456.02 293.198 1456.08 293.376C1456.13 293.555 1456.13 293.745 1456.07 293.923C1456 294.097 1455.89 294.25 1455.74 294.363C1455.59 294.476 1455.42 294.545 1455.23 294.563L1441.56 295.223L1448.78 309.903C1448.84 310.018 1448.87 310.143 1448.87 310.27C1448.88 310.398 1448.86 310.525 1448.81 310.644C1448.77 310.764 1448.7 310.872 1448.61 310.963C1448.52 311.054 1448.41 311.125 1448.29 311.173L1440.44 314.363C1440.32 314.417 1440.2 314.445 1440.07 314.443ZM1433.14 297.083H1433.28C1433.43 297.11 1433.58 297.173 1433.7 297.267C1433.83 297.361 1433.93 297.483 1434 297.623L1440.56 312.303L1446.63 309.833L1439.22 294.783C1439.15 294.644 1439.12 294.491 1439.13 294.337C1439.13 294.183 1439.18 294.032 1439.25 293.899C1439.33 293.767 1439.44 293.655 1439.57 293.575C1439.71 293.496 1439.86 293.45 1440.01 293.443L1452.68 292.823L1424.84 269.913V306.033L1432.45 297.403C1432.54 297.303 1432.64 297.223 1432.76 297.168C1432.88 297.113 1433.01 297.084 1433.14 297.083Z" fill="#2AB6C5"/>
<path opacity="0.2" d="M9.7535 75.3901C9.60732 75.3926 9.46287 75.3582 9.3335 75.2901C9.17933 75.2133 9.04979 75.0948 8.95963 74.9481C8.86947 74.8014 8.8223 74.6323 8.8235 74.4601V63.0701H-10.0965C-10.2227 63.0678 -10.347 63.0396 -10.4618 62.9872C-10.5766 62.9349 -10.6794 62.8595 -10.7638 62.7657C-10.8482 62.6719 -10.9125 62.5617 -10.9525 62.4421C-10.9925 62.3224 -11.0075 62.1958 -10.9965 62.0701V37.2901C-10.9978 37.1676 -10.9747 37.046 -10.9284 36.9326C-10.8822 36.8192 -10.8137 36.7161 -10.7271 36.6295C-10.6405 36.5428 -10.5374 36.4744 -10.424 36.4281C-10.3105 36.3819 -10.189 36.3587 -10.0665 36.3601H8.8235V24.9301C8.82349 24.7582 8.87111 24.5897 8.96106 24.4432C9.05102 24.2968 9.1798 24.1781 9.33311 24.1004C9.48642 24.0227 9.65826 23.9891 9.82956 24.0031C10.0009 24.0172 10.1649 24.0784 10.3035 24.1801L43.9335 48.9401C44.0507 49.027 44.1461 49.14 44.212 49.2702C44.278 49.4004 44.3127 49.5441 44.3135 49.6901C44.3151 49.8364 44.2815 49.981 44.2153 50.1116C44.1492 50.2422 44.0525 50.3548 43.9335 50.4401L10.3035 75.2101C10.144 75.327 9.95131 75.3901 9.7535 75.3901ZM-9.1665 61.1701H9.7535C10.0001 61.1701 10.2367 61.2681 10.4111 61.4425C10.5855 61.6169 10.6835 61.8534 10.6835 62.1001V72.6101L41.8135 49.6901L10.6835 26.7701V37.2901C10.6835 37.5367 10.5855 37.7733 10.4111 37.9477C10.2367 38.1221 10.0001 38.2201 9.7535 38.2201H-9.1665V61.1701ZM15.2035 61.9801C15.0651 61.9802 14.9285 61.9495 14.8035 61.8901C14.644 61.8154 14.5093 61.6966 14.4154 61.5477C14.3215 61.3988 14.2722 61.2261 14.2735 61.0501V55.7601H0.273495C0.0241909 55.7601 -0.214902 55.661 -0.391186 55.4847C-0.56747 55.3085 -0.6665 55.0694 -0.6665 54.8201V44.5601C-0.663866 44.3125 -0.563668 44.076 -0.387669 43.9018C-0.211669 43.7277 0.0259142 43.6301 0.273495 43.6301H14.2735V38.3401C14.271 38.1638 14.3197 37.9905 14.4138 37.8414C14.5079 37.6923 14.6433 37.5737 14.8035 37.5001C14.9635 37.4218 15.1424 37.3906 15.3195 37.41C15.4965 37.4295 15.6644 37.4989 15.8035 37.6101L29.8635 48.9701C29.9729 49.0555 30.0613 49.1647 30.1219 49.2895C30.1826 49.4143 30.2139 49.5513 30.2135 49.6901C30.214 49.8303 30.1827 49.9687 30.1221 50.0952C30.0615 50.2216 29.9731 50.3326 29.8635 50.4201L15.7835 61.7701C15.6218 61.9078 15.4158 61.9823 15.2035 61.9801ZM1.2035 53.8901H15.2035C15.3256 53.8901 15.4466 53.9141 15.5594 53.9609C15.6722 54.0076 15.7748 54.0761 15.8611 54.1625C15.9475 54.2488 16.016 54.3513 16.0627 54.4642C16.1094 54.577 16.1335 54.6979 16.1335 54.8201V59.0701L27.7935 49.6601L16.1335 40.2601V44.5301C16.1335 44.7776 16.0358 45.0152 15.8617 45.1912C15.6876 45.3672 15.4511 45.4674 15.2035 45.4701H1.2035V53.8901Z" fill="#2AB6C5"/>
<path opacity="0.2" d="M101.419 447.015H87.5893C87.3417 447.012 87.1052 446.912 86.931 446.736C86.7569 446.56 86.6593 446.322 86.6593 446.075V430.555H72.2893V446.055C72.2859 446.304 72.1896 446.543 72.0193 446.725C71.933 446.814 71.8287 446.885 71.7132 446.932C71.5977 446.978 71.4737 447 71.3493 446.995L57.4193 446.895C57.1726 446.895 56.9361 446.797 56.7617 446.622C56.5872 446.448 56.4893 446.211 56.4893 445.965V426.415C56.4936 426.278 56.526 426.143 56.5845 426.019C56.643 425.895 56.7263 425.785 56.8293 425.695L78.8293 407.515C79.0014 407.387 79.21 407.318 79.4243 407.318C79.6385 407.318 79.8471 407.387 80.0193 407.515L102.069 425.695C102.172 425.785 102.256 425.895 102.314 426.019C102.372 426.143 102.405 426.278 102.409 426.415L102.299 446.085C102.3 446.323 102.209 446.552 102.045 446.725C101.881 446.898 101.657 447.002 101.419 447.015ZM88.5293 445.145H100.529L100.629 426.855L79.4793 409.445L58.3593 426.855V445.035L70.4293 445.125V429.625C70.4279 429.502 70.451 429.38 70.4972 429.266C70.5433 429.152 70.6116 429.048 70.6981 428.961C70.7846 428.873 70.8875 428.804 71.001 428.756C71.1145 428.709 71.2363 428.685 71.3593 428.685H87.5893C87.8386 428.685 88.0777 428.784 88.2539 428.96C88.4302 429.136 88.5293 429.375 88.5293 429.625V445.145Z" fill="#2AB6C5"/>
<path opacity="0.2" d="M48.9094 426.214H48.7094C48.1281 426.146 47.5914 425.869 47.1994 425.434L44.5194 422.274C44.1378 421.801 43.955 421.199 44.0094 420.594C44.0253 420.278 44.1095 419.97 44.2563 419.69C44.403 419.411 44.6088 419.166 44.8594 418.974L75.6494 393.324C76.7494 392.466 78.1044 392 79.4994 392C80.8944 392 82.2495 392.466 83.3494 393.324L92.2894 400.794V394.434C92.2801 393.82 92.5138 393.227 92.9394 392.784C93.1578 392.572 93.416 392.405 93.6993 392.293C93.9825 392.182 94.2851 392.128 94.5894 392.134H102.819C103.122 392.126 103.424 392.18 103.706 392.291C103.988 392.403 104.244 392.571 104.459 392.784C104.674 393.001 104.843 393.259 104.956 393.542C105.069 393.826 105.125 394.129 105.119 394.434V411.474L114.119 418.984C114.359 419.172 114.556 419.41 114.696 419.681C114.836 419.951 114.915 420.249 114.929 420.554C114.987 421.151 114.807 421.747 114.429 422.214L111.759 425.404C111.385 425.841 110.861 426.123 110.289 426.194H110.019C109.469 426.214 108.931 426.029 108.509 425.674L79.5094 401.454L50.4194 425.694C49.9816 426.018 49.4543 426.2 48.9094 426.214ZM79.4794 393.854C78.5093 393.828 77.5621 394.151 76.8094 394.764L45.9994 420.424C45.9574 420.455 45.9235 420.496 45.9009 420.543C45.8782 420.59 45.8674 420.642 45.8694 420.694C45.858 420.757 45.8601 420.822 45.8756 420.884C45.8911 420.946 45.9197 421.004 45.9594 421.054L48.6094 424.204C48.6094 424.254 48.7294 424.324 48.9394 424.354C49.071 424.338 49.1955 424.286 49.2994 424.204L78.8594 399.534C79.0257 399.393 79.2365 399.316 79.4544 399.316C79.6724 399.316 79.8832 399.393 80.0494 399.534L109.729 424.274C109.816 424.337 109.923 424.366 110.029 424.354C110.159 424.345 110.28 424.288 110.369 424.194L112.999 421.044C113.036 420.996 113.064 420.941 113.079 420.883C113.094 420.825 113.098 420.764 113.089 420.704C113.089 420.654 113.077 420.604 113.055 420.559C113.032 420.514 113 420.474 112.959 420.444L103.569 412.644C103.465 412.555 103.382 412.445 103.325 412.32C103.268 412.196 103.239 412.061 103.239 411.924V394.424C103.245 394.363 103.237 394.302 103.217 394.245C103.196 394.188 103.163 394.137 103.119 394.094C103.079 394.051 103.028 394.019 102.973 394C102.917 393.981 102.858 393.975 102.799 393.984H94.5594C94.4997 393.977 94.4392 393.983 94.3822 394.002C94.3252 394.021 94.273 394.052 94.2294 394.094C94.1901 394.139 94.1601 394.191 94.1413 394.248C94.1224 394.304 94.115 394.364 94.1194 394.424V402.784C94.1199 402.961 94.0691 403.135 93.9733 403.284C93.8775 403.433 93.7408 403.551 93.5794 403.624C93.4176 403.699 93.2376 403.727 93.0605 403.704C92.8834 403.681 92.7166 403.608 92.5794 403.494L82.1294 394.754C81.3798 394.151 80.4413 393.832 79.4794 393.854Z" fill="#2AB6C5"/>
<path opacity="0.2" d="M1151.35 96.9028H1092.18C1091.38 96.9356 1090.59 96.8064 1089.84 96.5229C1089.09 96.2395 1088.4 95.8076 1087.83 95.2533C1087.25 94.6989 1086.79 94.0335 1086.48 93.2971C1086.16 92.5606 1086 91.7683 1086 90.9677C1086 90.1672 1086.16 89.3749 1086.48 88.6384C1086.79 87.902 1087.25 87.2366 1087.83 86.6822C1088.4 86.1279 1089.09 85.696 1089.84 85.4126C1090.59 85.1291 1091.38 84.9999 1092.18 85.0327H1092.56C1092.56 84.9027 1092.56 84.7828 1092.56 84.6528C1092.57 82.6751 1093.35 80.7791 1094.75 79.3807C1096.15 77.9822 1098.05 77.1954 1100.02 77.1927H1106.64C1107.4 73.7383 1109.31 70.6453 1112.06 68.4274C1114.81 66.2094 1118.24 65 1121.78 65C1125.31 65 1128.74 66.2094 1131.5 68.4274C1134.25 70.6453 1136.16 73.7383 1136.91 77.1927H1143.53C1145.51 77.1954 1147.41 77.9822 1148.81 79.3807C1150.2 80.7791 1150.99 82.6751 1150.99 84.6528C1150.99 84.7828 1150.99 84.9027 1150.99 85.0327H1151.37C1152.91 85.0956 1154.35 85.7484 1155.42 86.8546C1156.48 87.9607 1157.07 89.4345 1157.07 90.9677C1157.07 92.5009 1156.48 93.9748 1155.42 95.0809C1154.35 96.1871 1152.91 96.8399 1151.37 96.9028H1151.35ZM1092.18 86.9028C1091.1 86.9028 1090.07 87.3315 1089.31 88.0948C1088.54 88.8581 1088.11 89.8933 1088.11 90.9727C1088.11 92.0522 1088.54 93.0874 1089.31 93.8507C1090.07 94.6139 1091.1 95.0428 1092.18 95.0428H1151.35C1152.43 95.0428 1153.47 94.6139 1154.23 93.8507C1154.99 93.0874 1155.42 92.0522 1155.42 90.9727C1155.42 89.8933 1154.99 88.8581 1154.23 88.0948C1153.47 87.3315 1152.43 86.9028 1151.35 86.9028H1148.8L1149.03 85.7827C1149.11 85.4138 1149.14 85.0387 1149.14 84.6627C1149.14 83.181 1148.55 81.7607 1147.5 80.713C1146.46 79.6652 1145.04 79.0754 1143.55 79.0728H1135.37L1135.24 78.2928C1134.71 75.1096 1133.07 72.2178 1130.61 70.1317C1128.15 68.0457 1125.03 66.9008 1121.8 66.9008C1118.57 66.9008 1115.45 68.0457 1112.99 70.1317C1110.53 72.2178 1108.88 75.1096 1108.35 78.2928L1108.22 79.0728H1100.04C1098.56 79.0754 1097.14 79.6652 1096.09 80.713C1095.05 81.7607 1094.46 83.181 1094.45 84.6627C1094.45 85.0389 1094.49 85.4144 1094.56 85.7827L1094.79 86.9028H1092.18Z" fill="#2AB6C5"/>
<path opacity="0.2" d="M1264.12 220.743H1248.79C1247.92 220.743 1247.08 220.395 1246.46 219.776C1245.84 219.157 1245.49 218.318 1245.49 217.443C1245.49 216.567 1245.84 215.728 1246.46 215.109C1247.08 214.49 1247.92 214.143 1248.79 214.143H1264.12C1265 214.143 1265.84 214.49 1266.46 215.109C1267.08 215.728 1267.42 216.567 1267.42 217.443C1267.42 218.318 1267.08 219.157 1266.46 219.776C1265.84 220.395 1265 220.743 1264.12 220.743ZM1248.79 216.003C1248.59 215.986 1248.39 216.011 1248.21 216.075C1248.02 216.14 1247.84 216.243 1247.7 216.378C1247.55 216.513 1247.43 216.676 1247.35 216.859C1247.27 217.041 1247.23 217.238 1247.23 217.438C1247.23 217.637 1247.27 217.834 1247.35 218.016C1247.43 218.199 1247.55 218.362 1247.7 218.497C1247.84 218.632 1248.02 218.735 1248.21 218.8C1248.39 218.864 1248.59 218.889 1248.79 218.873H1264.12C1264.48 218.842 1264.82 218.678 1265.06 218.412C1265.31 218.147 1265.44 217.799 1265.44 217.438C1265.44 217.076 1265.31 216.728 1265.06 216.463C1264.82 216.197 1264.48 216.033 1264.12 216.003H1248.79Z" fill="#2AB6C5"/>
<path opacity="0.2" d="M1262.73 226.881H1250.18C1249.31 226.881 1248.47 226.534 1247.85 225.915C1247.23 225.296 1246.88 224.457 1246.88 223.581C1246.88 222.706 1247.23 221.867 1247.85 221.248C1248.47 220.629 1249.31 220.281 1250.18 220.281H1262.73C1263.61 220.281 1264.45 220.629 1265.07 221.248C1265.69 221.867 1266.03 222.706 1266.03 223.581C1266.03 224.457 1265.69 225.296 1265.07 225.915C1264.45 226.534 1263.61 226.881 1262.73 226.881ZM1250.18 222.151C1249.98 222.135 1249.79 222.159 1249.6 222.224C1249.41 222.289 1249.24 222.392 1249.09 222.526C1248.94 222.661 1248.82 222.825 1248.74 223.008C1248.66 223.19 1248.62 223.387 1248.62 223.586C1248.62 223.786 1248.66 223.983 1248.74 224.165C1248.82 224.347 1248.94 224.511 1249.09 224.646C1249.24 224.781 1249.41 224.884 1249.6 224.948C1249.79 225.013 1249.98 225.038 1250.18 225.021H1262.73C1263.09 224.991 1263.43 224.827 1263.67 224.561C1263.92 224.295 1264.05 223.947 1264.05 223.586C1264.05 223.225 1263.92 222.877 1263.67 222.611C1263.43 222.346 1263.09 222.181 1262.73 222.151H1250.18Z" fill="#2AB6C5"/>
<path opacity="0.2" d="M1262.87 211.642H1251.25C1250.38 211.642 1249.54 211.294 1248.92 210.675C1248.3 210.056 1247.95 209.217 1247.95 208.342V207.122C1248.07 199.122 1245.78 191.272 1241.37 184.592C1238.9 180.959 1237.73 176.595 1238.05 172.212C1238.44 167.446 1240.53 162.981 1243.95 159.638C1247.37 156.295 1251.88 154.301 1256.65 154.022C1260.33 153.848 1263.99 154.714 1267.2 156.519C1270.41 158.324 1273.05 160.996 1274.81 164.23C1276.57 167.463 1277.39 171.128 1277.17 174.805C1276.95 178.481 1275.7 182.022 1273.56 185.022C1268.76 191.613 1266.17 199.557 1266.16 207.712V208.312C1266.17 208.747 1266.09 209.178 1265.92 209.581C1265.76 209.985 1265.52 210.352 1265.21 210.661C1264.91 210.971 1264.54 211.216 1264.14 211.385C1263.74 211.553 1263.31 211.64 1262.87 211.642ZM1257.62 155.862H1256.73C1252.42 156.118 1248.34 157.924 1245.25 160.948C1242.16 163.973 1240.26 168.012 1239.91 172.322C1239.62 176.287 1240.68 180.235 1242.91 183.522C1247.53 190.51 1249.93 198.727 1249.81 207.102V208.322C1249.81 208.704 1249.97 209.07 1250.24 209.34C1250.51 209.61 1250.87 209.762 1251.25 209.762H1262.87C1263.06 209.762 1263.25 209.724 1263.42 209.652C1263.6 209.579 1263.76 209.473 1263.89 209.339C1264.02 209.206 1264.13 209.047 1264.2 208.872C1264.27 208.697 1264.3 208.51 1264.3 208.322V207.722C1264.31 199.178 1267.02 190.855 1272.04 183.942C1273.95 181.289 1275.08 178.163 1275.32 174.908C1275.57 171.652 1274.91 168.392 1273.42 165.488C1271.92 162.583 1269.66 160.146 1266.88 158.444C1264.09 156.742 1260.89 155.842 1257.62 155.842V155.862Z" fill="#2AB6C5"/>
<path opacity="0.2" d="M1257.07 190.261C1256.32 190.261 1255.58 190.037 1254.95 189.617C1254.32 189.198 1253.83 188.601 1253.54 187.903C1253.26 187.205 1253.18 186.437 1253.33 185.696C1253.47 184.955 1253.84 184.274 1254.37 183.74C1254.91 183.206 1255.59 182.842 1256.33 182.695C1257.07 182.547 1257.84 182.623 1258.54 182.912C1259.23 183.201 1259.83 183.691 1260.25 184.319C1260.67 184.947 1260.89 185.686 1260.89 186.441C1260.89 187.454 1260.49 188.426 1259.77 189.142C1259.06 189.859 1258.09 190.261 1257.07 190.261ZM1257.07 184.491C1256.68 184.491 1256.29 184.608 1255.96 184.828C1255.63 185.048 1255.38 185.36 1255.23 185.726C1255.07 186.091 1255.03 186.493 1255.11 186.881C1255.19 187.269 1255.38 187.626 1255.66 187.905C1255.94 188.185 1256.3 188.375 1256.68 188.453C1257.07 188.53 1257.47 188.49 1257.84 188.339C1258.2 188.187 1258.52 187.931 1258.74 187.602C1258.96 187.273 1259.07 186.887 1259.07 186.491C1259.07 185.961 1258.86 185.452 1258.49 185.077C1258.11 184.702 1257.6 184.491 1257.07 184.491Z" fill="#2AB6C5"/>
<path opacity="0.2" d="M1258 189.332H1256.14V210.602H1258V189.332Z" fill="#2AB6C5"/>
<path opacity="0.2" d="M1062.28 423.46C1056.49 423.471 1050.89 421.411 1046.49 417.651C1042.09 413.892 1039.18 408.682 1038.29 402.963C1037.4 397.245 1038.58 391.397 1041.63 386.476C1044.67 381.555 1049.38 377.887 1054.9 376.136C1060.41 374.385 1066.37 374.666 1071.7 376.928C1077.03 379.19 1081.37 383.284 1083.94 388.47C1086.51 393.655 1087.14 399.589 1085.71 405.198C1084.29 410.807 1080.9 415.721 1076.17 419.05C1072.1 421.915 1067.25 423.455 1062.28 423.46ZM1062.2 376.85C1057.2 376.86 1052.34 378.549 1048.41 381.645C1044.48 384.741 1041.71 389.066 1040.52 393.927C1039.34 398.789 1039.83 403.906 1041.9 408.459C1043.97 413.012 1047.51 416.738 1051.96 419.041C1056.4 421.344 1061.48 422.09 1066.4 421.161C1071.31 420.231 1075.77 417.679 1079.07 413.913C1082.36 410.148 1084.3 405.386 1084.56 400.391C1084.83 395.395 1083.41 390.455 1080.54 386.36C1078.48 383.411 1075.73 381.005 1072.54 379.349C1069.34 377.692 1065.8 376.835 1062.2 376.85ZM1058.9 406.98C1058.71 406.979 1058.53 406.927 1058.38 406.83L1050.93 401.83C1050.81 401.773 1050.7 401.692 1050.62 401.591C1050.53 401.49 1050.47 401.372 1050.43 401.244C1050.4 401.117 1050.39 400.984 1050.41 400.853C1050.43 400.722 1050.47 400.597 1050.55 400.486C1050.62 400.375 1050.71 400.28 1050.82 400.209C1050.93 400.137 1051.06 400.09 1051.19 400.07C1051.32 400.051 1051.45 400.059 1051.58 400.096C1051.71 400.132 1051.83 400.195 1051.93 400.28L1058.65 404.75L1070.58 388.7C1070.73 388.501 1070.95 388.369 1071.19 388.332C1071.31 388.314 1071.43 388.32 1071.55 388.35C1071.67 388.379 1071.78 388.432 1071.88 388.505C1071.98 388.578 1072.06 388.669 1072.13 388.774C1072.19 388.879 1072.23 388.996 1072.25 389.117C1072.27 389.238 1072.26 389.362 1072.23 389.481C1072.2 389.6 1072.15 389.711 1072.08 389.81L1059.65 406.61C1059.56 406.722 1059.44 406.813 1059.31 406.877C1059.18 406.941 1059.04 406.976 1058.9 406.98Z" fill="#2AB6C5"/>
<path opacity="0.2" d="M1062.28 423.46C1056.49 423.471 1050.89 421.411 1046.49 417.651C1042.09 413.892 1039.18 408.682 1038.29 402.963C1037.4 397.245 1038.58 391.397 1041.63 386.476C1044.67 381.555 1049.38 377.887 1054.9 376.136C1060.41 374.385 1066.37 374.666 1071.7 376.928C1077.03 379.19 1081.37 383.284 1083.94 388.47C1086.51 393.655 1087.14 399.589 1085.71 405.198C1084.29 410.807 1080.9 415.721 1076.17 419.05C1072.1 421.915 1067.25 423.455 1062.28 423.46ZM1062.2 376.85C1058.68 376.854 1055.22 377.686 1052.09 379.278C1048.95 380.87 1046.24 383.179 1044.16 386.016C1042.09 388.853 1040.71 392.138 1040.15 395.607C1039.58 399.075 1039.84 402.628 1040.9 405.979C1041.96 409.329 1043.8 412.382 1046.26 414.89C1048.72 417.398 1051.74 419.291 1055.07 420.415C1058.4 421.539 1061.95 421.863 1065.42 421.36C1068.9 420.857 1072.21 419.541 1075.09 417.52C1079.94 414.107 1083.24 408.909 1084.26 403.067C1085.28 397.225 1083.94 391.217 1080.54 386.36C1078.47 383.422 1075.72 381.024 1072.53 379.369C1069.34 377.714 1065.79 376.85 1062.2 376.85Z" fill="#2AB6C5"/>
<path opacity="0.2" d="M398.5 355.705C397.428 355.705 396.381 355.377 395.5 354.765C387.974 349.557 379.085 346.673 369.935 346.473C360.785 346.272 351.778 348.762 344.03 353.635C343.065 354.31 341.883 354.603 340.713 354.457C339.544 354.311 338.47 353.736 337.7 352.845C337.393 352.416 337.18 351.927 337.075 351.41C336.97 350.893 336.975 350.359 337.09 349.845C337.256 349.133 337.564 348.463 337.996 347.874C338.427 347.284 338.973 346.788 339.6 346.415C348.762 340.68 359.406 337.76 370.211 338.015C381.017 338.271 391.51 341.692 400.39 347.855C400.985 348.252 401.49 348.77 401.872 349.374C402.255 349.979 402.506 350.657 402.61 351.365C402.689 351.885 402.655 352.417 402.512 352.924C402.369 353.431 402.119 353.902 401.78 354.305C401.364 354.757 400.857 355.117 400.291 355.358C399.726 355.599 399.115 355.718 398.5 355.705ZM396.6 353.235C397.152 353.667 397.841 353.886 398.541 353.851C399.241 353.816 399.905 353.53 400.41 353.045C400.577 352.84 400.699 352.602 400.768 352.347C400.837 352.092 400.851 351.826 400.81 351.565C400.736 351.117 400.57 350.689 400.322 350.308C400.074 349.928 399.75 349.603 399.37 349.355C390.79 343.399 380.652 340.092 370.21 339.843C359.769 339.595 349.484 342.415 340.63 347.955C340.214 348.204 339.852 348.534 339.565 348.926C339.278 349.317 339.073 349.762 338.96 350.235C338.9 350.49 338.894 350.756 338.942 351.014C338.99 351.272 339.092 351.518 339.24 351.735C339.732 352.25 340.396 352.567 341.106 352.624C341.816 352.681 342.522 352.475 343.09 352.045C351.147 346.983 360.512 344.398 370.024 344.61C379.536 344.821 388.777 347.82 396.6 353.235Z" fill="#2AB6C5"/>
<path opacity="0.2" d="M390.99 366.714C389.941 366.71 388.916 366.401 388.04 365.824C382.563 362.282 376.209 360.332 369.687 360.192C363.166 360.053 356.734 361.729 351.11 365.034C350.135 365.691 348.953 365.967 347.789 365.81C346.624 365.654 345.557 365.075 344.79 364.184C344.481 363.757 344.268 363.267 344.166 362.749C344.064 362.231 344.076 361.697 344.2 361.184C344.376 360.436 344.705 359.733 345.166 359.118C345.627 358.504 346.211 357.992 346.88 357.614C353.879 353.525 361.877 351.463 369.981 351.657C378.085 351.851 385.975 354.295 392.77 358.714C393.397 359.108 393.932 359.631 394.341 360.249C394.75 360.866 395.022 361.563 395.14 362.294C395.227 362.812 395.199 363.343 395.059 363.849C394.92 364.355 394.671 364.824 394.33 365.224C393.913 365.698 393.399 366.076 392.823 366.334C392.246 366.591 391.621 366.72 390.99 366.714ZM389.06 364.264C389.626 364.689 390.324 364.899 391.03 364.859C391.737 364.819 392.406 364.53 392.92 364.044C393.082 363.845 393.2 363.614 393.266 363.365C393.331 363.117 393.343 362.857 393.3 362.604C393.214 362.135 393.031 361.688 392.762 361.294C392.494 360.9 392.145 360.566 391.74 360.314C385.232 356.091 377.678 353.761 369.922 353.584C362.166 353.408 354.513 355.392 347.82 359.314C347.376 359.557 346.988 359.89 346.68 360.291C346.372 360.692 346.151 361.153 346.03 361.644C345.964 361.893 345.954 362.154 345.998 362.408C346.043 362.662 346.143 362.903 346.29 363.114C347.05 364.114 348.75 364.284 350.17 363.464C356.088 359.974 362.86 358.2 369.729 358.341C376.597 358.483 383.291 360.533 389.06 364.264Z" fill="#2AB6C5"/>
<path opacity="0.2" d="M381.52 377.674C380.537 377.669 379.571 377.418 378.71 376.944C375.871 375.377 372.694 374.523 369.452 374.457C366.21 374.391 363.001 375.114 360.1 376.564C358.1 377.564 355.29 377.564 353.8 375.564C353.499 375.146 353.294 374.666 353.201 374.16C353.107 373.653 353.128 373.132 353.26 372.634C353.484 371.817 353.884 371.059 354.431 370.413C354.979 369.767 355.661 369.249 356.43 368.894C360.567 366.846 365.14 365.835 369.755 365.948C374.37 366.061 378.888 367.295 382.92 369.544C383.643 369.925 384.273 370.462 384.764 371.115C385.256 371.769 385.596 372.523 385.76 373.324C385.862 373.834 385.846 374.361 385.712 374.864C385.579 375.366 385.332 375.832 384.99 376.224C384.545 376.695 384.007 377.067 383.409 377.317C382.811 377.567 382.168 377.689 381.52 377.674ZM379.6 375.304C380.212 375.69 380.932 375.867 381.653 375.809C382.374 375.752 383.057 375.462 383.6 374.984C383.753 374.799 383.862 374.58 383.917 374.346C383.973 374.112 383.974 373.869 383.92 373.634C383.804 373.109 383.572 372.617 383.241 372.194C382.911 371.77 382.49 371.425 382.01 371.184C378.241 369.084 374.018 367.932 369.705 367.825C365.392 367.719 361.118 368.662 357.25 370.574C356.732 370.811 356.27 371.155 355.896 371.585C355.522 372.014 355.244 372.518 355.08 373.064C355.009 373.293 354.99 373.535 355.024 373.772C355.059 374.009 355.146 374.235 355.28 374.434C356.15 375.584 357.99 375.524 359.28 374.894C362.447 373.311 365.951 372.521 369.491 372.593C373.03 372.664 376.5 373.595 379.6 375.304Z" fill="#2AB6C5"/>
<path opacity="0.2" d="M369.33 391.044H369.15C368.199 391.017 367.269 390.756 366.443 390.284C365.617 389.811 364.92 389.142 364.415 388.336C363.91 387.53 363.611 386.611 363.546 385.662C363.481 384.712 363.651 383.761 364.042 382.894C364.433 382.026 365.032 381.268 365.785 380.687C366.539 380.107 367.425 379.721 368.363 379.565C369.302 379.409 370.265 379.486 371.166 379.792C372.068 380.097 372.88 380.62 373.53 381.314C374.051 381.866 374.459 382.516 374.728 383.226C374.998 383.936 375.125 384.692 375.101 385.451C375.078 386.21 374.905 386.957 374.593 387.649C374.28 388.341 373.834 388.965 373.28 389.484C372.21 390.487 370.797 391.045 369.33 391.044ZM369.33 381.344C368.324 381.379 367.37 381.799 366.665 382.518C365.961 383.237 365.56 384.2 365.546 385.207C365.532 386.213 365.905 387.187 366.589 387.925C367.273 388.664 368.215 389.111 369.22 389.174C369.734 389.194 370.247 389.11 370.728 388.928C371.209 388.746 371.648 388.469 372.02 388.114C372.396 387.761 372.698 387.338 372.909 386.868C373.12 386.399 373.237 385.892 373.251 385.377C373.266 384.863 373.179 384.35 372.995 383.869C372.812 383.388 372.535 382.948 372.18 382.574C371.83 382.199 371.407 381.898 370.939 381.688C370.47 381.479 369.964 381.365 369.45 381.354L369.33 381.344Z" fill="#2AB6C5"/>
<g opacity="0.2">
<path d="M103.262 237H62.7301C62.5365 237 62.3508 236.921 62.2138 236.781C62.0769 236.641 62 236.45 62 236.252V210.756C62 210.557 62.0767 210.366 62.2134 210.224C62.3501 210.083 62.5357 210.002 62.7301 210H103.262C103.458 210 103.645 210.08 103.784 210.222C103.922 210.363 104 210.556 104 210.756V236.252C103.998 236.451 103.919 236.641 103.781 236.781C103.643 236.921 103.456 237 103.262 237ZM63.4602 235.496H102.532V211.504H63.4602V235.496Z" fill="#2AB6C5"/>
<path d="M160.27 237H119.738C119.544 237 119.357 236.921 119.219 236.781C119.081 236.641 119.002 236.451 119 236.252V210.756C119 210.556 119.078 210.363 119.216 210.222C119.355 210.08 119.542 210 119.738 210H160.27C160.464 210.002 160.65 210.083 160.787 210.224C160.923 210.366 161 210.557 161 210.756V236.252C161 236.45 160.923 236.641 160.786 236.781C160.649 236.921 160.464 237 160.27 237ZM120.468 235.496H159.54V211.504H120.468V235.496Z" fill="#2AB6C5"/>
<path d="M217.252 237H175.748C175.549 237 175.359 236.921 175.219 236.781C175.079 236.641 175 236.45 175 236.252V210.756C174.999 210.657 175.018 210.559 175.055 210.467C175.092 210.376 175.147 210.292 175.216 210.222C175.286 210.152 175.368 210.096 175.46 210.058C175.551 210.02 175.649 210 175.748 210H217.252C217.451 210.002 217.642 210.083 217.782 210.224C217.922 210.366 218 210.557 218 210.756V236.252C218 236.45 217.921 236.641 217.781 236.781C217.641 236.921 217.451 237 217.252 237ZM176.503 235.496H216.513V211.504H176.503V235.496Z" fill="#2AB6C5"/>
<path d="M97 217H69V218H97V217Z" fill="#2AB6C5"/>
<path d="M97 222H69V223H97V222Z" fill="#2AB6C5"/>
<path d="M88 226H69V227H88V226Z" fill="#2AB6C5"/>
<path d="M210 217H182V218H210V217Z" fill="#2AB6C5"/>
<path d="M210 222H182V223H210V222Z" fill="#2AB6C5"/>
<path d="M201 226H182V227H201V226Z" fill="#2AB6C5"/>
<path d="M154 217H126V218H154V217Z" fill="#2AB6C5"/>
<path d="M154 222H126V223H154V222Z" fill="#2AB6C5"/>
<path d="M149 226H130V227H149V226Z" fill="#2AB6C5"/>
<path d="M160.27 174H119.738C119.641 174.001 119.546 173.982 119.456 173.945C119.367 173.908 119.285 173.853 119.217 173.783C119.148 173.714 119.093 173.631 119.056 173.539C119.019 173.448 119 173.35 119 173.25V147.75C119 147.65 119.019 147.552 119.056 147.461C119.093 147.369 119.148 147.286 119.217 147.217C119.285 147.147 119.367 147.092 119.456 147.055C119.546 147.018 119.641 146.999 119.738 147H160.27C160.464 147 160.649 147.079 160.786 147.22C160.923 147.36 161 147.551 161 147.75V173.291C160.99 173.482 160.909 173.663 160.773 173.795C160.637 173.927 160.457 174 160.27 174ZM120.468 172.501H159.54V148.459H120.468V172.501Z" fill="#2AB6C5"/>
<path d="M154 154H126V155H154V154Z" fill="#2AB6C5"/>
<path d="M154 159H126V160H154V159Z" fill="#2AB6C5"/>
<path d="M149 164H130V165H149V164Z" fill="#2AB6C5"/>
<path d="M196 210H194.51V198.4H84.498V209.985H83V197.707C83 197.52 83.0785 197.34 83.2182 197.207C83.3579 197.075 83.5474 197 83.745 197H195.255C195.353 196.999 195.45 197.017 195.541 197.052C195.632 197.087 195.715 197.139 195.784 197.205C195.854 197.271 195.908 197.349 195.945 197.436C195.982 197.522 196.001 197.614 196 197.707V210Z" fill="#2AB6C5"/>
<path d="M140 174H139V210H140V174Z" fill="#2AB6C5"/>
</g>
<path opacity="0.2" d="M1386.91 207.52H1340.62C1338.6 207.52 1336.66 206.719 1335.24 205.292C1333.81 203.865 1333 201.929 1333 199.91V43.62C1333 41.599 1333.8 39.6609 1335.23 38.2319C1336.66 36.8028 1338.6 36 1340.62 36H1386.91C1388.93 36 1390.86 36.8018 1392.29 38.2289C1393.72 39.6561 1394.52 41.5917 1394.52 43.61V199.91C1394.52 201.928 1393.72 203.864 1392.29 205.291C1390.86 206.718 1388.93 207.52 1386.91 207.52ZM1340.62 37.87C1339.1 37.87 1337.63 38.4758 1336.55 39.5541C1335.48 40.6325 1334.87 42.095 1334.87 43.62V199.91C1334.87 201.435 1335.48 202.898 1336.55 203.976C1337.63 205.054 1339.1 205.66 1340.62 205.66H1386.91C1388.43 205.657 1389.9 205.051 1390.97 203.973C1392.05 202.895 1392.66 201.434 1392.66 199.91V43.62C1392.66 42.0958 1392.05 40.6348 1390.97 39.5571C1389.9 38.4793 1388.43 37.8726 1386.91 37.87H1340.62Z" fill="#2AB6C5"/>
<path opacity="0.2" d="M1393.59 59.3105H1334.87V61.1705H1393.59V59.3105Z" fill="#2AB6C5"/>
<path opacity="0.2" d="M1350.71 52.4804H1344.5C1344.38 52.4804 1344.26 52.456 1344.14 52.4087C1344.03 52.3613 1343.93 52.2919 1343.84 52.2045C1343.75 52.1171 1343.68 52.0134 1343.64 51.8994C1343.59 51.7854 1343.57 51.6634 1343.57 51.5404V45.3304C1343.57 45.2079 1343.59 45.0864 1343.64 44.973C1343.68 44.8595 1343.75 44.7565 1343.84 44.6699C1343.93 44.5832 1344.03 44.5148 1344.14 44.4685C1344.26 44.4222 1344.38 44.3991 1344.5 44.4004H1350.71C1350.83 44.3991 1350.95 44.4222 1351.07 44.4685C1351.18 44.5148 1351.28 44.5832 1351.37 44.6699C1351.46 44.7565 1351.53 44.8595 1351.57 44.973C1351.62 45.0864 1351.64 45.2079 1351.64 45.3304V51.5404C1351.64 51.6634 1351.62 51.7854 1351.57 51.8994C1351.53 52.0134 1351.46 52.1171 1351.37 52.2045C1351.28 52.2919 1351.18 52.3613 1351.07 52.4087C1350.95 52.456 1350.83 52.4804 1350.71 52.4804ZM1345.42 50.6104H1349.77V46.2604H1345.42V50.6104Z" fill="#2AB6C5"/>
<path opacity="0.2" d="M1361.9 52.4803H1355.68C1355.43 52.4777 1355.2 52.3775 1355.02 52.2015C1354.85 52.0255 1354.75 51.7879 1354.75 51.5403V45.3304C1354.75 45.0837 1354.85 44.8471 1355.02 44.6727C1355.2 44.4983 1355.43 44.4004 1355.68 44.4004H1361.9C1362.15 44.4004 1362.38 44.4983 1362.56 44.6727C1362.73 44.8471 1362.83 45.0837 1362.83 45.3304V51.5403C1362.83 51.7879 1362.73 52.0255 1362.56 52.2015C1362.38 52.3775 1362.15 52.4777 1361.9 52.4803ZM1356.62 50.6104H1360.97V46.2604H1356.62V50.6104Z" fill="#2AB6C5"/>
<path opacity="0.2" d="M1373.08 52.4804H1366.87C1366.75 52.4804 1366.63 52.456 1366.51 52.4087C1366.4 52.3613 1366.3 52.2919 1366.21 52.2045C1366.12 52.1171 1366.05 52.0134 1366.01 51.8994C1365.96 51.7854 1365.94 51.6634 1365.94 51.5404V45.3304C1365.94 45.2079 1365.96 45.0864 1366.01 44.973C1366.05 44.8595 1366.12 44.7565 1366.21 44.6699C1366.3 44.5832 1366.4 44.5148 1366.51 44.4685C1366.63 44.4222 1366.75 44.3991 1366.87 44.4004H1373.08C1373.2 44.3991 1373.32 44.4222 1373.44 44.4683C1373.55 44.5145 1373.66 44.5828 1373.74 44.6692C1373.83 44.7557 1373.9 44.8587 1373.95 44.9722C1374 45.0857 1374.02 45.2075 1374.02 45.3304V51.5404C1374.02 51.7897 1373.92 52.0288 1373.74 52.2051C1373.57 52.3814 1373.33 52.4804 1373.08 52.4804ZM1367.8 50.6104H1372.15V46.2604H1367.8V50.6104Z" fill="#2AB6C5"/>
<path opacity="0.2" d="M1379.76 170H1345.35C1345.1 170 1344.86 169.902 1344.69 169.728C1344.51 169.554 1344.41 169.318 1344.41 169.07V71.43C1344.41 71.3071 1344.43 71.1853 1344.48 71.0718C1344.53 70.9583 1344.6 70.8554 1344.69 70.7689C1344.77 70.6824 1344.88 70.6141 1344.99 70.5679C1345.11 70.5218 1345.23 70.4987 1345.35 70.5001H1379.76C1379.88 70.4987 1380.01 70.5218 1380.12 70.5679C1380.23 70.6141 1380.34 70.6824 1380.42 70.7689C1380.51 70.8554 1380.58 70.9583 1380.63 71.0718C1380.68 71.1853 1380.7 71.3071 1380.7 71.43V169.06C1380.7 169.309 1380.6 169.548 1380.42 169.725C1380.25 169.901 1380.01 170 1379.76 170ZM1346.28 168.14H1378.83V72.36H1346.28V168.14Z" fill="#2AB6C5"/>
<path opacity="0.2" d="M1379.76 181.271H1345.27C1345.02 181.268 1344.79 181.168 1344.61 180.992C1344.44 180.816 1344.34 180.578 1344.34 180.331V174.741C1344.34 174.494 1344.44 174.257 1344.61 174.083C1344.79 173.909 1345.02 173.811 1345.27 173.811H1379.76C1380.01 173.811 1380.25 173.908 1380.42 174.082C1380.6 174.256 1380.7 174.493 1380.7 174.741V180.331C1380.7 180.58 1380.6 180.819 1380.42 180.995C1380.25 181.172 1380.01 181.271 1379.76 181.271ZM1346.21 179.401H1378.83V175.671H1346.21V179.401Z" fill="#2AB6C5"/>
<path opacity="0.2" d="M1379.76 191.52H1345.27C1345.02 191.52 1344.79 191.422 1344.61 191.248C1344.44 191.074 1344.34 190.837 1344.34 190.59V185C1344.34 184.754 1344.44 184.517 1344.61 184.343C1344.79 184.168 1345.02 184.07 1345.27 184.07H1379.76C1380.01 184.07 1380.25 184.168 1380.42 184.342C1380.6 184.516 1380.7 184.753 1380.7 185V190.6C1380.69 190.846 1380.59 191.08 1380.42 191.252C1380.24 191.424 1380.01 191.52 1379.76 191.52ZM1346.21 189.66H1378.83V185.93H1346.21V189.66Z" fill="#2AB6C5"/>
<g opacity="0.2">
<path d="M532.841 518H474.159C473.321 518 472.518 517.668 471.925 517.077C471.333 516.487 471 515.685 471 514.85V450.154C471 449.319 471.333 448.517 471.925 447.925C472.517 447.334 473.321 447.001 474.159 447H532.841C533.679 447.001 534.483 447.334 535.075 447.925C535.667 448.517 536 449.319 536 450.154V514.85C536 515.685 535.667 516.487 535.075 517.077C534.482 517.668 533.679 518 532.841 518ZM474.159 447.774C473.526 447.774 472.919 448.025 472.471 448.471C472.024 448.918 471.772 449.523 471.772 450.154V514.85C471.773 515.481 472.025 516.085 472.472 516.532C472.92 516.978 473.526 517.229 474.159 517.23H532.841C533.474 517.229 534.08 516.978 534.528 516.532C534.975 516.085 535.227 515.481 535.228 514.85V450.154C535.228 449.523 534.976 448.918 534.529 448.471C534.081 448.025 533.474 447.774 532.841 447.774H474.159Z" fill="#2AB6C5"/>
<path d="M535 456H472V458H535V456Z" fill="#2AB6C5"/>
<path d="M478.54 454H475.46C475.338 454 475.221 453.964 475.135 453.899C475.048 453.834 475 453.746 475 453.655V451.345C475 451.254 475.048 451.166 475.135 451.101C475.221 451.036 475.338 451 475.46 451H478.54C478.662 451 478.779 451.036 478.865 451.101C478.951 451.166 479 451.254 479 451.345V453.655C479 453.746 478.951 453.834 478.865 453.899C478.779 453.964 478.662 454 478.54 454ZM475.926 453.309H478.074V451.691H475.926V453.309Z" fill="#2AB6C5"/>
<path d="M482.654 454H480.346C480.254 454 480.166 453.964 480.101 453.899C480.036 453.834 480 453.746 480 453.655V451.345C480 451.254 480.036 451.166 480.101 451.101C480.166 451.036 480.254 451 480.346 451H482.654C482.746 451 482.834 451.036 482.899 451.101C482.964 451.166 483 451.254 483 451.345V453.655C483 453.746 482.964 453.834 482.899 453.899C482.834 453.964 482.746 454 482.654 454ZM480.691 453.309H482.309V451.691H480.691V453.309Z" fill="#2AB6C5"/>
<path d="M487.54 454H484.46C484.338 454 484.221 453.964 484.135 453.899C484.048 453.834 484 453.746 484 453.655V451.345C484 451.254 484.048 451.166 484.135 451.101C484.221 451.036 484.338 451 484.46 451H487.54C487.662 451 487.779 451.036 487.865 451.101C487.952 451.166 488 451.254 488 451.345V453.655C488 453.746 487.952 453.834 487.865 453.899C487.779 453.964 487.662 454 487.54 454ZM484.926 453.309H487.079V451.691H484.926V453.309Z" fill="#2AB6C5"/>
<path d="M489.627 475H475.384C475.283 475 475.185 474.959 475.113 474.886C475.04 474.814 475 474.715 475 474.612V461.388C475 461.285 475.04 461.186 475.113 461.114C475.185 461.041 475.283 461 475.384 461H489.614C489.716 461 489.814 461.041 489.886 461.114C489.958 461.186 489.999 461.285 489.999 461.388V474.583C490.003 474.635 489.996 474.688 489.979 474.737C489.963 474.787 489.936 474.833 489.901 474.872C489.867 474.911 489.824 474.942 489.777 474.964C489.73 474.986 489.679 474.998 489.627 475ZM475.798 474.203H489.255V461.759H475.798V474.203Z" fill="#2AB6C5"/>
<path d="M509.614 475H495.385C495.334 475 495.284 474.99 495.238 474.97C495.191 474.951 495.148 474.922 495.113 474.886C495.077 474.85 495.049 474.808 495.029 474.761C495.01 474.713 495 474.663 495 474.612V461.388C495 461.337 495.01 461.287 495.029 461.239C495.049 461.192 495.077 461.15 495.113 461.114C495.148 461.078 495.191 461.049 495.238 461.03C495.284 461.01 495.334 461 495.385 461H509.614C509.716 461 509.814 461.041 509.886 461.114C509.958 461.186 509.999 461.285 509.999 461.388V474.583C510.003 474.636 509.996 474.69 509.978 474.74C509.961 474.791 509.933 474.837 509.897 474.876C509.861 474.915 509.817 474.947 509.768 474.968C509.72 474.989 509.667 475 509.614 475ZM495.757 474.22H509.225V461.759H495.77L495.757 474.22Z" fill="#2AB6C5"/>
<path d="M529.615 503H515.385C515.282 502.999 515.184 502.957 515.112 502.882C515.04 502.808 515 502.708 515 502.603V461.393C515 461.288 515.041 461.189 515.113 461.115C515.185 461.041 515.283 461 515.385 461H529.615C529.717 461 529.815 461.041 529.887 461.115C529.959 461.189 530 461.288 530 461.393V502.62C529.997 502.722 529.955 502.819 529.883 502.89C529.811 502.96 529.715 503 529.615 503ZM515.773 502.198H529.231V461.785H515.773V502.198Z" fill="#2AB6C5"/>
<path d="M489.625 480H475.384C475.282 480 475.184 479.961 475.112 479.89C475.04 479.82 475 479.725 475 479.626V477.374C475 477.275 475.04 477.18 475.112 477.11C475.184 477.039 475.282 477 475.384 477H489.612C489.714 477 489.812 477.039 489.885 477.109C489.958 477.179 489.999 477.274 490 477.374V479.626C489.999 479.724 489.959 479.817 489.889 479.887C489.819 479.956 489.725 479.997 489.625 480ZM475.796 479.244H489.253V477.748H475.796V479.244Z" fill="#2AB6C5"/>
<path d="M489.625 484H475.384C475.282 484 475.184 483.961 475.112 483.89C475.04 483.82 475 483.725 475 483.626V481.378C475 481.278 475.04 481.183 475.112 481.112C475.184 481.041 475.282 481.001 475.384 481H489.612C489.715 481 489.814 481.04 489.886 481.111C489.959 481.182 490 481.278 490 481.378V483.626C489.999 483.724 489.959 483.817 489.889 483.887C489.819 483.956 489.725 483.997 489.625 484ZM475.796 483.252H489.253V481.752H475.796V483.252Z" fill="#2AB6C5"/>
<path d="M509.616 480H495.388C495.286 480 495.188 479.961 495.115 479.891C495.042 479.821 495.001 479.726 495 479.626V477.374C495.001 477.274 495.042 477.179 495.115 477.109C495.188 477.039 495.286 477 495.388 477H509.616C509.667 477 509.717 477.01 509.763 477.028C509.81 477.047 509.852 477.075 509.888 477.11C509.923 477.144 509.952 477.185 509.971 477.231C509.99 477.276 510 477.325 510 477.374V479.626C510 479.675 509.99 479.724 509.971 479.769C509.952 479.815 509.923 479.856 509.888 479.89C509.852 479.925 509.81 479.953 509.763 479.972C509.717 479.99 509.667 480 509.616 480ZM495.755 479.244H509.212V477.748H495.755V479.244Z" fill="#2AB6C5"/>
<path d="M509.616 484H495.388C495.286 484 495.188 483.961 495.115 483.891C495.042 483.821 495.001 483.726 495 483.626V481.378C495 481.278 495.041 481.182 495.114 481.111C495.186 481.04 495.285 481 495.388 481H509.616C509.718 481.001 509.816 481.041 509.888 481.112C509.96 481.183 510 481.278 510 481.378V483.626C510 483.675 509.99 483.724 509.971 483.769C509.952 483.815 509.923 483.856 509.888 483.89C509.852 483.925 509.81 483.953 509.763 483.972C509.717 483.99 509.667 484 509.616 484ZM495.755 483.252H509.212V481.752H495.755V483.252Z" fill="#2AB6C5"/>
<path d="M489.625 507H475.384C475.282 507 475.184 506.961 475.112 506.89C475.04 506.82 475 506.725 475 506.626V504.374C475 504.275 475.04 504.18 475.112 504.11C475.184 504.039 475.282 504 475.384 504H489.612C489.714 504 489.812 504.039 489.885 504.109C489.958 504.179 489.999 504.274 490 504.374V506.626C489.999 506.724 489.959 506.817 489.889 506.887C489.819 506.956 489.725 506.997 489.625 507ZM475.796 506.252H489.253V504.752H475.796V506.252Z" fill="#2AB6C5"/>
<path d="M489.625 512H475.384C475.282 512 475.184 511.96 475.112 511.89C475.04 511.819 475 511.724 475 511.624V509.364C475.003 509.266 475.045 509.174 475.117 509.106C475.188 509.038 475.284 509 475.384 509H489.612C489.663 508.999 489.713 509.009 489.76 509.027C489.807 509.046 489.85 509.074 489.886 509.109C489.922 509.144 489.951 509.185 489.97 509.231C489.99 509.277 490 509.326 490 509.376V511.636C489.997 511.732 489.956 511.824 489.886 511.891C489.816 511.959 489.723 511.998 489.625 512ZM475.796 511.248H489.253V509.74H475.796V511.248Z" fill="#2AB6C5"/>
<path d="M509.616 507H495.388C495.286 507 495.188 506.961 495.115 506.891C495.042 506.821 495.001 506.726 495 506.626V504.374C495.001 504.274 495.042 504.179 495.115 504.109C495.188 504.039 495.286 504 495.388 504H509.616C509.667 504 509.717 504.01 509.763 504.028C509.81 504.047 509.852 504.075 509.888 504.11C509.923 504.144 509.952 504.186 509.971 504.231C509.99 504.276 510 504.325 510 504.374V506.626C510 506.675 509.99 506.724 509.971 506.769C509.952 506.815 509.923 506.856 509.888 506.89C509.852 506.925 509.81 506.953 509.763 506.972C509.717 506.99 509.667 507 509.616 507ZM495.755 506.252H509.212V504.752H495.755V506.252Z" fill="#2AB6C5"/>
<path d="M509.616 512H495.388C495.337 512.001 495.287 511.991 495.24 511.973C495.193 511.954 495.15 511.927 495.114 511.892C495.078 511.857 495.049 511.815 495.03 511.77C495.01 511.724 495 511.675 495 511.625V509.375C495 509.325 495.01 509.276 495.03 509.23C495.049 509.185 495.078 509.143 495.114 509.108C495.15 509.073 495.193 509.046 495.24 509.027C495.287 509.009 495.337 508.999 495.388 509H509.616C509.667 509 509.717 509.01 509.763 509.029C509.81 509.047 509.852 509.075 509.888 509.11C509.923 509.144 509.952 509.186 509.971 509.231C509.99 509.277 510 509.325 510 509.375V511.625C510 511.675 509.99 511.723 509.971 511.769C509.952 511.814 509.923 511.856 509.888 511.89C509.852 511.925 509.81 511.953 509.763 511.971C509.717 511.99 509.667 512 509.616 512ZM495.755 511.251H509.212V509.749H495.755V511.251Z" fill="#2AB6C5"/>
<path d="M529.616 507H515.384C515.282 507 515.184 506.961 515.112 506.89C515.04 506.82 515 506.725 515 506.626V504.374C515 504.275 515.04 504.18 515.112 504.11C515.184 504.039 515.282 504 515.384 504H529.616C529.718 504 529.816 504.039 529.888 504.11C529.96 504.18 530 504.275 530 504.374V506.626C530 506.725 529.96 506.82 529.888 506.89C529.816 506.961 529.718 507 529.616 507ZM515.751 506.252H529.216V504.752H515.751V506.252Z" fill="#2AB6C5"/>
<path d="M529.616 512H515.384C515.282 512 515.184 511.961 515.112 511.89C515.04 511.82 515 511.725 515 511.625V509.375C515 509.275 515.04 509.18 515.112 509.11C515.184 509.039 515.282 509 515.384 509H529.616C529.667 508.999 529.717 509.009 529.764 509.027C529.811 509.046 529.853 509.074 529.889 509.109C529.925 509.143 529.953 509.185 529.972 509.231C529.991 509.276 530.001 509.325 530 509.375V511.625C530.001 511.675 529.991 511.724 529.972 511.769C529.953 511.815 529.925 511.857 529.889 511.891C529.853 511.926 529.811 511.954 529.764 511.973C529.717 511.991 529.667 512.001 529.616 512ZM515.751 511.251H529.216V509.749H515.751V511.251Z" fill="#2AB6C5"/>
<path d="M510.616 503H475.396C475.291 503 475.19 502.959 475.116 502.886C475.042 502.814 475 502.715 475 502.612V489.388C475 489.285 475.042 489.186 475.116 489.114C475.19 489.041 475.291 489 475.396 489H510.604C510.709 489 510.81 489.041 510.884 489.114C510.958 489.186 511 489.285 511 489.388V502.612C511 502.713 510.96 502.81 510.888 502.882C510.817 502.954 510.719 502.997 510.616 503ZM475.823 502.22H510.229V489.78H475.823V502.22Z" fill="#2AB6C5"/>
</g>
<g opacity="0.2">
<path d="M273.364 110.06H206.091C205.272 110.059 204.486 109.733 203.907 109.153C203.327 108.574 203.001 107.788 203 106.969V16.0953C203 15.2751 203.326 14.4884 203.905 13.908C204.485 13.3277 205.271 13.0011 206.091 13H273.364C274.184 13.0011 274.97 13.3277 275.55 13.908C276.13 14.4884 276.455 15.2751 276.455 16.0953V106.969C276.454 107.788 276.128 108.574 275.549 109.153C274.969 109.733 274.183 110.059 273.364 110.06ZM206.091 13.7596C205.472 13.7596 204.878 14.0057 204.44 14.4437C204.002 14.8818 203.756 15.4759 203.756 16.0953V106.969C203.757 107.588 204.003 108.181 204.441 108.619C204.879 109.057 205.472 109.303 206.091 109.304H273.364C273.983 109.303 274.576 109.057 275.014 108.619C275.452 108.181 275.698 107.588 275.7 106.969V16.0953C275.7 15.4759 275.453 14.8818 275.015 14.4437C274.577 14.0057 273.983 13.7596 273.364 13.7596H206.091Z" fill="#2AB6C5"/>
<path d="M276.078 22.4648H203.756V23.2204H276.078V22.4648Z" fill="#2AB6C5"/>
<path d="M210.194 19.6904H207.667C207.567 19.6904 207.471 19.6506 207.4 19.5797C207.329 19.5089 207.29 19.4128 207.29 19.3126V16.786C207.29 16.6858 207.329 16.5897 207.4 16.5189C207.471 16.448 207.567 16.4082 207.667 16.4082H210.194C210.294 16.4082 210.39 16.448 210.461 16.5189C210.532 16.5897 210.572 16.6858 210.572 16.786V19.3126C210.572 19.4128 210.532 19.5089 210.461 19.5797C210.39 19.6506 210.294 19.6904 210.194 19.6904ZM208.045 18.9348H209.82V17.1638H208.049L208.045 18.9348Z" fill="#2AB6C5"/>
<path d="M214.735 19.6904H212.213C212.113 19.6904 212.017 19.6506 211.946 19.5797C211.875 19.5089 211.835 19.4128 211.835 19.3126V16.786C211.835 16.6858 211.875 16.5897 211.946 16.5189C212.017 16.448 212.113 16.4082 212.213 16.4082H214.735C214.836 16.4082 214.932 16.448 215.003 16.5189C215.073 16.5897 215.113 16.6858 215.113 16.786V19.3126C215.113 19.4128 215.073 19.5089 215.003 19.5797C214.932 19.6506 214.836 19.6904 214.735 19.6904ZM212.591 18.9348H214.358V17.1638H212.591V18.9348Z" fill="#2AB6C5"/>
<path d="M219.281 19.6904H216.754C216.654 19.6904 216.558 19.6506 216.487 19.5797C216.416 19.5089 216.377 19.4128 216.377 19.3126V16.786C216.377 16.6858 216.416 16.5897 216.487 16.5189C216.558 16.448 216.654 16.4082 216.754 16.4082H219.281C219.381 16.4082 219.477 16.448 219.548 16.5189C219.619 16.5897 219.659 16.6858 219.659 16.786V19.3126C219.659 19.4128 219.619 19.5089 219.548 19.5797C219.477 19.6506 219.381 19.6904 219.281 19.6904ZM217.132 18.9348H218.899V17.1638H217.132V18.9348Z" fill="#2AB6C5"/>
<path d="M221.901 68.0288H207.919C207.819 68.0288 207.723 67.989 207.652 67.9181C207.581 67.8473 207.542 67.7512 207.542 67.651V54.7782C207.542 54.678 207.581 54.5819 207.652 54.5111C207.723 54.4402 207.819 54.4004 207.919 54.4004H221.901C221.951 54.3999 222 54.4093 222.046 54.4281C222.092 54.4469 222.134 54.4747 222.169 54.5098C222.205 54.545 222.232 54.5869 222.251 54.633C222.27 54.6791 222.279 54.7284 222.279 54.7782V67.651C222.279 67.7008 222.27 67.7501 222.251 67.7962C222.232 67.8423 222.205 67.8842 222.169 67.9194C222.134 67.9545 222.092 67.9823 222.046 68.0011C222 68.0199 221.951 68.0293 221.901 68.0288ZM208.301 67.2732H221.523V55.156H208.301V67.2732Z" fill="#2AB6C5"/>
<path d="M251.071 68.0288H227.247C227.197 68.0293 227.148 68.0199 227.102 68.0011C227.055 67.9823 227.014 67.9545 226.978 67.9194C226.943 67.8842 226.915 67.8423 226.897 67.7962C226.878 67.7501 226.868 67.7008 226.869 67.651V54.7782C226.868 54.7284 226.878 54.6791 226.897 54.633C226.915 54.5869 226.943 54.545 226.978 54.5098C227.014 54.4747 227.055 54.4469 227.102 54.4281C227.148 54.4093 227.197 54.3999 227.247 54.4004H251.071C251.121 54.3999 251.17 54.4093 251.216 54.4281C251.262 54.4469 251.304 54.4747 251.339 54.5098C251.374 54.545 251.402 54.5869 251.421 54.633C251.44 54.6791 251.449 54.7284 251.449 54.7782V67.651C251.449 67.7008 251.44 67.7501 251.421 67.7962C251.402 67.8423 251.374 67.8842 251.339 67.9194C251.304 67.9545 251.262 67.9823 251.216 68.0011C251.17 68.0199 251.121 68.0293 251.071 68.0288ZM227.624 67.2732H250.693V55.156H227.624V67.2732Z" fill="#2AB6C5"/>
<path d="M270.399 94.8145H256.417C256.317 94.8145 256.221 94.7747 256.15 94.7038C256.079 94.633 256.039 94.5369 256.039 94.4367V81.4989C256.039 81.3987 256.079 81.3026 256.15 81.2317C256.221 81.1609 256.317 81.1211 256.417 81.1211H270.399C270.499 81.1211 270.595 81.1609 270.666 81.2317C270.737 81.3026 270.776 81.3987 270.776 81.4989V94.4367C270.776 94.5369 270.737 94.633 270.666 94.7038C270.595 94.7747 270.499 94.8145 270.399 94.8145ZM256.795 94.0589H270.021V81.8726H256.795V94.0589Z" fill="#2AB6C5"/>
<path d="M221.929 72.5107H207.919C207.819 72.5107 207.723 72.4709 207.652 72.4C207.581 72.3292 207.542 72.2331 207.542 72.1329V69.8622C207.542 69.762 207.581 69.6659 207.652 69.595C207.723 69.5242 207.819 69.4844 207.919 69.4844H221.929C221.979 69.4839 222.029 69.4932 222.075 69.512C222.122 69.5307 222.164 69.5585 222.199 69.5936C222.235 69.6287 222.263 69.6706 222.282 69.7167C222.301 69.7628 222.311 69.8122 222.311 69.8622V72.1329C222.311 72.1828 222.301 72.2323 222.282 72.2784C222.263 72.3245 222.235 72.3663 222.199 72.4015C222.164 72.4366 222.122 72.4643 222.075 72.4831C222.029 72.5018 221.979 72.5112 221.929 72.5107ZM208.301 71.7551H221.552V70.24H208.301V71.7551Z" fill="#2AB6C5"/>
<path d="M221.929 76.6768H207.919C207.819 76.6757 207.723 76.635 207.652 76.5635C207.581 76.4921 207.541 76.3955 207.542 76.295V74.0243C207.542 73.9241 207.581 73.828 207.652 73.7571C207.723 73.6863 207.819 73.6465 207.919 73.6465H221.929C222.03 73.6465 222.127 73.6861 222.198 73.7569C222.27 73.8276 222.31 73.9237 222.311 74.0243V76.295C222.311 76.3451 222.301 76.3948 222.282 76.4411C222.263 76.4874 222.235 76.5295 222.199 76.565C222.164 76.6004 222.122 76.6286 222.076 76.6477C222.029 76.6669 221.98 76.6768 221.929 76.6768ZM208.301 75.9172H221.552V74.402H208.301V75.9172Z" fill="#2AB6C5"/>
<path d="M250.896 72.5107H227.044C226.994 72.5112 226.944 72.5018 226.898 72.483C226.852 72.4642 226.81 72.4364 226.775 72.4012C226.74 72.366 226.712 72.3242 226.693 72.2781C226.675 72.232 226.665 72.1826 226.666 72.1329V69.8622C226.665 69.8124 226.675 69.763 226.693 69.717C226.712 69.6709 226.74 69.629 226.775 69.5938C226.81 69.5587 226.852 69.5308 226.898 69.5121C226.944 69.4933 226.994 69.4839 227.044 69.4844H250.896C250.946 69.4839 250.995 69.4933 251.041 69.5121C251.088 69.5308 251.129 69.5587 251.165 69.5938C251.2 69.629 251.228 69.6709 251.246 69.717C251.265 69.763 251.275 69.8124 251.274 69.8622V72.1329C251.275 72.1826 251.265 72.232 251.246 72.2781C251.228 72.3242 251.2 72.366 251.165 72.4012C251.129 72.4364 251.088 72.4642 251.041 72.483C250.995 72.5018 250.946 72.5112 250.896 72.5107ZM227.421 71.7551H250.519V70.24H227.421V71.7551Z" fill="#2AB6C5"/>
<path d="M250.896 76.6768H227.044C226.994 76.6768 226.944 76.6669 226.898 76.6477C226.852 76.6284 226.81 76.6002 226.775 76.5647C226.74 76.5292 226.712 76.4871 226.693 76.4408C226.675 76.3945 226.665 76.3449 226.666 76.295V74.0243C226.666 73.9241 226.706 73.828 226.776 73.7571C226.847 73.6863 226.943 73.6465 227.044 73.6465H250.896C250.996 73.6465 251.093 73.6863 251.163 73.7571C251.234 73.828 251.274 73.9241 251.274 74.0243V76.295C251.275 76.3449 251.265 76.3945 251.246 76.4408C251.228 76.4871 251.2 76.5292 251.165 76.5647C251.13 76.6002 251.088 76.6284 251.042 76.6477C250.996 76.6669 250.946 76.6768 250.896 76.6768ZM227.421 75.9172H250.519V74.402H227.421V75.9172Z" fill="#2AB6C5"/>
<path d="M270.382 68.0288H256.405C256.355 68.0293 256.305 68.02 256.259 68.0012C256.213 67.9825 256.17 67.9547 256.135 67.9196C256.099 67.8845 256.071 67.8426 256.052 67.7965C256.033 67.7504 256.023 67.701 256.023 67.651V54.7782C256.023 54.7282 256.033 54.6788 256.052 54.6327C256.071 54.5866 256.099 54.5447 256.135 54.5096C256.17 54.4745 256.213 54.4467 256.259 54.428C256.305 54.4093 256.355 54.3999 256.405 54.4004H270.382C270.432 54.3999 270.482 54.4093 270.528 54.4281C270.574 54.4469 270.616 54.4747 270.651 54.5098C270.686 54.545 270.714 54.5869 270.733 54.633C270.751 54.6791 270.761 54.7284 270.76 54.7782V67.651C270.761 67.7008 270.751 67.7501 270.733 67.7962C270.714 67.8423 270.686 67.8842 270.651 67.9194C270.616 67.9545 270.574 67.9823 270.528 68.0011C270.482 68.0199 270.432 68.0293 270.382 68.0288ZM256.782 67.2732H270.005V55.156H256.782V67.2732Z" fill="#2AB6C5"/>
<path d="M270.208 72.5107H256.197C256.097 72.5107 256.001 72.4709 255.93 72.4C255.86 72.3292 255.82 72.2331 255.82 72.1329V69.8622C255.82 69.762 255.86 69.6659 255.93 69.595C256.001 69.5242 256.097 69.4844 256.197 69.4844H270.208C270.257 69.4839 270.307 69.4933 270.353 69.5121C270.399 69.5308 270.441 69.5587 270.476 69.5938C270.511 69.629 270.539 69.6709 270.558 69.717C270.577 69.763 270.586 69.8124 270.585 69.8622V72.1329C270.586 72.1826 270.577 72.232 270.558 72.2781C270.539 72.3242 270.511 72.366 270.476 72.4012C270.441 72.4364 270.399 72.4642 270.353 72.483C270.307 72.5018 270.257 72.5112 270.208 72.5107ZM256.575 71.7551H269.83V70.24H256.575V71.7551Z" fill="#2AB6C5"/>
<path d="M270.208 76.6768H256.197C256.097 76.6757 256.001 76.635 255.93 76.5635C255.859 76.4921 255.82 76.3955 255.82 76.295V74.0243C255.82 73.9241 255.86 73.828 255.93 73.7571C256.001 73.6863 256.097 73.6465 256.197 73.6465H270.208C270.308 73.6465 270.404 73.6863 270.475 73.7571C270.546 73.828 270.585 73.9241 270.585 74.0243V76.295C270.586 76.3449 270.577 76.3945 270.558 76.4408C270.539 76.4871 270.511 76.5292 270.476 76.5647C270.441 76.6002 270.399 76.6284 270.353 76.6477C270.307 76.6669 270.258 76.6768 270.208 76.6768ZM256.575 75.9172H269.83V74.402H256.575V75.9172Z" fill="#2AB6C5"/>
<path d="M221.929 99.3935H207.919C207.819 99.3935 207.723 99.3537 207.652 99.2828C207.581 99.212 207.542 99.1159 207.542 99.0157V96.745C207.542 96.6448 207.581 96.5487 207.652 96.4779C207.723 96.407 207.819 96.3672 207.919 96.3672H221.929C221.979 96.3667 222.029 96.376 222.075 96.3948C222.122 96.4135 222.164 96.4413 222.199 96.4764C222.235 96.5115 222.263 96.5534 222.282 96.5995C222.301 96.6456 222.311 96.695 222.311 96.745V99.0157C222.311 99.0656 222.301 99.1151 222.282 99.1612C222.263 99.2073 222.235 99.2491 222.199 99.2843C222.164 99.3194 222.122 99.3471 222.075 99.3659C222.029 99.3846 221.979 99.394 221.929 99.3935ZM208.301 98.6379H221.552V97.1228H208.301V98.6379Z" fill="#2AB6C5"/>
<path d="M221.929 103.562H207.919C207.819 103.562 207.723 103.522 207.652 103.451C207.581 103.38 207.542 103.284 207.542 103.184V100.909C207.542 100.809 207.581 100.713 207.652 100.642C207.723 100.571 207.819 100.531 207.919 100.531H221.929C222.03 100.531 222.127 100.571 222.198 100.642C222.27 100.712 222.31 100.808 222.311 100.909V103.184C222.31 103.284 222.27 103.38 222.198 103.451C222.127 103.522 222.03 103.562 221.929 103.562ZM208.301 102.81H221.552V101.295H208.301V102.81Z" fill="#2AB6C5"/>
<path d="M250.896 99.3935H227.044C226.994 99.394 226.944 99.3846 226.898 99.3658C226.852 99.347 226.81 99.3192 226.775 99.284C226.74 99.2489 226.712 99.207 226.693 99.1609C226.675 99.1148 226.665 99.0654 226.666 99.0157V96.745C226.665 96.6952 226.675 96.6458 226.693 96.5998C226.712 96.5537 226.74 96.5118 226.775 96.4766C226.81 96.4415 226.852 96.4136 226.898 96.3949C226.944 96.3761 226.994 96.3667 227.044 96.3672H250.896C250.946 96.3667 250.995 96.3761 251.041 96.3949C251.088 96.4136 251.129 96.4415 251.165 96.4766C251.2 96.5118 251.228 96.5537 251.246 96.5998C251.265 96.6458 251.275 96.6952 251.274 96.745V99.0157C251.275 99.0654 251.265 99.1148 251.246 99.1609C251.228 99.207 251.2 99.2489 251.165 99.284C251.129 99.3192 251.088 99.347 251.041 99.3658C250.995 99.3846 250.946 99.394 250.896 99.3935ZM227.421 98.6379H250.519V97.1228H227.421V98.6379Z" fill="#2AB6C5"/>
<path d="M250.896 103.562H227.044C226.943 103.562 226.847 103.522 226.777 103.451C226.706 103.38 226.666 103.284 226.666 103.184V100.909C226.666 100.809 226.706 100.713 226.777 100.642C226.847 100.571 226.943 100.531 227.044 100.531H250.896C250.997 100.531 251.093 100.571 251.164 100.642C251.234 100.713 251.274 100.809 251.274 100.909V103.184C251.274 103.284 251.234 103.38 251.164 103.451C251.093 103.522 250.997 103.562 250.896 103.562ZM227.421 102.81H250.519V101.295H227.421V102.81Z" fill="#2AB6C5"/>
<path d="M270.399 99.3935H256.388C256.339 99.394 256.289 99.3846 256.243 99.3658C256.197 99.347 256.155 99.3192 256.12 99.284C256.085 99.2489 256.057 99.207 256.038 99.1609C256.019 99.1148 256.01 99.0654 256.011 99.0157V96.745C256.01 96.6952 256.019 96.6458 256.038 96.5998C256.057 96.5537 256.085 96.5118 256.12 96.4766C256.155 96.4415 256.197 96.4136 256.243 96.3949C256.289 96.3761 256.339 96.3667 256.388 96.3672H270.399C270.499 96.3672 270.595 96.407 270.666 96.4779C270.736 96.5487 270.776 96.6448 270.776 96.745V99.0157C270.776 99.1159 270.736 99.212 270.666 99.2828C270.595 99.3537 270.499 99.3935 270.399 99.3935ZM256.766 98.6379H270.021V97.1228H256.766V98.6379Z" fill="#2AB6C5"/>
<path d="M270.398 103.562H256.388C256.288 103.562 256.192 103.522 256.121 103.451C256.05 103.38 256.01 103.284 256.01 103.184V100.909C256.01 100.809 256.05 100.713 256.121 100.642C256.192 100.571 256.288 100.531 256.388 100.531H270.398C270.499 100.531 270.595 100.571 270.666 100.642C270.736 100.713 270.776 100.809 270.776 100.909V103.184C270.776 103.284 270.736 103.38 270.666 103.451C270.595 103.522 270.499 103.562 270.398 103.562ZM256.766 102.81H270.021V101.295H256.766V102.81Z" fill="#2AB6C5"/>
<path d="M251.315 94.9116H207.919C207.819 94.9116 207.723 94.8718 207.652 94.8009C207.581 94.7301 207.542 94.634 207.542 94.5338V81.661C207.542 81.5608 207.581 81.4647 207.652 81.3939C207.723 81.323 207.819 81.2832 207.919 81.2832H251.315C251.365 81.2827 251.414 81.2921 251.461 81.3108C251.507 81.3295 251.549 81.3573 251.585 81.3924C251.62 81.4275 251.648 81.4694 251.667 81.5155C251.687 81.5616 251.697 81.611 251.697 81.661V94.5338C251.697 94.5838 251.687 94.6332 251.667 94.6793C251.648 94.7254 251.62 94.7673 251.585 94.8024C251.549 94.8375 251.507 94.8653 251.461 94.884C251.414 94.9028 251.365 94.9121 251.315 94.9116ZM208.301 94.156H250.953V82.0388H208.301V94.156Z" fill="#2AB6C5"/>
<path d="M276.329 50.2324H203.378V50.988H276.329V50.2324Z" fill="#2AB6C5"/>
<path d="M276.329 27.7656H203.378V28.5212H276.329V27.7656Z" fill="#2AB6C5"/>
<path d="M214.74 25.1172H206.408V25.8727H214.74V25.1172Z" fill="#2AB6C5"/>
<path d="M226.288 25.1172H217.957V25.8727H226.288V25.1172Z" fill="#2AB6C5"/>
<path d="M247.679 25.1172H229.505V25.8727H247.679V25.1172Z" fill="#2AB6C5"/>
<path d="M259.228 25.1172H250.896V25.8727H259.228V25.1172Z" fill="#2AB6C5"/>
<path d="M270.776 25.1172H262.445V25.8727H270.776V25.1172Z" fill="#2AB6C5"/>
<path d="M209.686 41.6509C209.627 41.6509 209.568 41.6369 209.516 41.6101C209.463 41.5833 209.417 41.5444 209.382 41.4965L207.351 38.718C207.308 38.6597 207.283 38.5902 207.28 38.518C207.276 38.4458 207.294 38.3741 207.33 38.3118L209.097 35.2815C209.122 35.2385 209.156 35.201 209.195 35.1709C209.235 35.1408 209.28 35.1188 209.328 35.1062C209.376 35.0935 209.426 35.0905 209.476 35.0972C209.525 35.104 209.572 35.1203 209.615 35.1454C209.658 35.1705 209.696 35.2038 209.726 35.2434C209.756 35.283 209.778 35.3281 209.79 35.3762C209.803 35.4243 209.806 35.4744 209.799 35.5237C209.793 35.5729 209.776 35.6204 209.751 35.6633L208.106 38.4784L209.983 41.0537C210.012 41.094 210.033 41.1396 210.044 41.1879C210.056 41.2363 210.058 41.2864 210.05 41.3355C210.042 41.3845 210.024 41.4315 209.998 41.4738C209.972 41.5161 209.938 41.5528 209.897 41.5818C209.836 41.6272 209.762 41.6515 209.686 41.6509Z" fill="#2AB6C5"/>
<path d="M269.533 41.6502C269.467 41.6498 269.401 41.6331 269.342 41.6014C269.256 41.5499 269.194 41.4663 269.169 41.369C269.143 41.2717 269.158 41.1683 269.208 41.0815L270.833 38.2664L268.961 35.6911C268.931 35.651 268.91 35.6057 268.898 35.5575C268.886 35.5093 268.884 35.4592 268.892 35.4102C268.899 35.3612 268.917 35.3141 268.942 35.2717C268.968 35.2293 269.002 35.1923 269.042 35.163C269.082 35.1336 269.127 35.1125 269.175 35.1007C269.224 35.0889 269.274 35.0867 269.323 35.0942C269.372 35.1018 269.419 35.1189 269.461 35.1447C269.504 35.1704 269.541 35.2042 269.57 35.2442L271.601 38.0227C271.64 38.0827 271.662 38.1518 271.666 38.2231C271.669 38.2944 271.654 38.3654 271.621 38.4289L269.842 41.4714C269.809 41.5241 269.764 41.5679 269.71 41.5991C269.656 41.6302 269.595 41.6478 269.533 41.6502Z" fill="#2AB6C5"/>
</g>
<path opacity="0.2" d="M920.533 471.783H888.843C888.612 471.759 888.398 471.651 888.242 471.478C888.086 471.305 888 471.081 888 470.848C888 470.616 888.086 470.392 888.242 470.219C888.398 470.046 888.612 469.937 888.843 469.913H918.283L904.963 456.593C904.876 456.507 904.808 456.404 904.761 456.291C904.714 456.177 904.69 456.056 904.69 455.933C904.69 455.811 904.714 455.689 904.761 455.576C904.808 455.463 904.876 455.36 904.963 455.273C905.05 455.187 905.153 455.118 905.266 455.071C905.379 455.024 905.501 455 905.623 455C905.746 455 905.867 455.024 905.98 455.071C906.094 455.118 906.196 455.187 906.283 455.273L921.193 470.193C921.323 470.321 921.412 470.484 921.45 470.662C921.487 470.84 921.471 471.025 921.403 471.193C921.327 471.363 921.206 471.508 921.052 471.612C920.898 471.716 920.719 471.775 920.533 471.783Z" fill="#2AB6C5"/>
<path opacity="0.2" d="M906.213 487.272C906.032 487.269 905.855 487.213 905.705 487.111C905.555 487.01 905.437 486.867 905.366 486.7C905.295 486.532 905.274 486.349 905.306 486.17C905.337 485.991 905.42 485.825 905.543 485.692L920.213 470.562C920.389 470.41 920.616 470.33 920.848 470.336C921.08 470.343 921.302 470.436 921.469 470.598C921.636 470.76 921.736 470.979 921.75 471.211C921.764 471.443 921.69 471.672 921.543 471.852L906.883 486.982C906.797 487.073 906.693 487.146 906.578 487.196C906.463 487.246 906.339 487.272 906.213 487.272Z" fill="#2AB6C5"/>
<path opacity="0.2" d="M1258.38 347.37L1257.79 346.88C1255.32 344.88 1243 334.44 1243 329.88C1243 325 1246.66 321.03 1251.16 321.03C1252.69 321.057 1254.18 321.517 1255.46 322.356C1256.73 323.195 1257.75 324.379 1258.38 325.77C1259.01 324.368 1260.03 323.176 1261.32 322.331C1262.6 321.486 1264.1 321.025 1265.64 321C1270.13 321 1273.79 325 1273.79 329.85C1273.79 334.44 1261.48 344.85 1259.01 346.85L1258.38 347.37ZM1251.16 322.86C1247.69 322.86 1244.87 326 1244.87 329.86C1244.87 332.63 1252.87 340.37 1258.38 344.96C1263.85 340.37 1271.9 332.63 1271.9 329.86C1271.9 326.01 1269.08 322.86 1265.61 322.86C1262.14 322.86 1259.31 326 1259.31 329.86H1257.45C1257.45 326 1254.64 322.86 1251.16 322.86Z" fill="#2AB6C5"/>
<path opacity="0.2" d="M547.229 59.076H546.699C541.01 58.9559 535.544 56.8355 531.263 53.087C526.981 49.3385 524.157 44.2015 523.285 38.5778C522.414 32.9542 523.552 27.2034 526.499 22.335C529.445 17.4667 534.013 13.7919 539.399 11.956L540.669 11.526L540.489 19.916L539.979 20.166C536.715 21.7678 534.076 24.4087 532.477 27.6738C530.877 30.9389 530.408 34.6429 531.143 38.2037C531.878 41.7645 533.775 44.9801 536.537 47.345C539.298 49.71 542.767 51.0903 546.399 51.2689C550.03 51.4475 553.618 50.4143 556.598 48.3317C559.579 46.2491 561.782 43.2352 562.863 39.7637C563.944 36.2922 563.84 32.56 562.569 29.1538C561.298 25.7475 558.93 22.8603 555.839 20.946L555.389 20.666L555.569 12.086L556.849 12.646C561.957 14.8614 566.146 18.7689 568.71 23.7107C571.274 28.6526 572.058 34.327 570.928 39.7788C569.799 45.2306 566.826 50.1269 562.509 53.6434C558.193 57.16 552.797 59.082 547.229 59.086V59.076ZM538.739 14.186C534.001 16.1436 530.08 19.6706 527.633 24.1757C525.187 28.6809 524.363 33.8902 525.301 38.9304C526.238 43.9705 528.88 48.5351 532.784 51.8588C536.687 55.1826 541.614 57.0634 546.739 57.186C551.8 57.296 556.749 55.6847 560.774 52.6159C564.8 49.5471 567.665 45.2025 568.9 40.2933C570.135 35.3841 569.666 30.2011 567.572 25.5927C565.477 20.9843 561.88 17.2235 557.369 14.926L557.269 19.616C559.833 21.321 561.927 23.6433 563.358 26.3694C564.789 29.0954 565.512 32.1375 565.459 35.216C565.392 38.4294 564.478 41.5683 562.809 44.3149C561.139 47.0616 558.774 49.3187 555.953 50.8579C553.131 52.3971 549.953 53.1638 546.74 53.0804C543.527 52.997 540.393 52.0665 537.655 50.3831C534.916 48.6996 532.672 46.3229 531.147 43.4933C529.622 40.6638 528.872 37.4817 528.972 34.2691C529.072 31.0565 530.019 27.9273 531.716 25.1979C533.414 22.4686 535.802 20.236 538.639 18.726L538.739 14.186ZM547.959 27.956H547.859C546.625 27.9297 545.452 27.4148 544.597 26.5242C543.742 25.6337 543.275 24.4402 543.299 23.206L543.689 4.56597C543.714 3.33006 544.23 2.15477 545.121 1.29867C546.013 0.442565 547.208 -0.0242261 548.444 0.000969465C549.68 0.026165 550.855 0.541302 551.712 1.43304C552.568 2.32477 553.034 3.52007 553.009 4.75597L552.619 23.396C552.598 24.6161 552.097 25.7789 551.225 26.6324C550.353 27.4859 549.18 27.9614 547.959 27.956ZM548.349 1.86596C547.618 1.86584 546.916 2.15291 546.394 2.66537C545.872 3.17783 545.572 3.8747 545.559 4.60595L545.159 23.246C545.148 23.989 545.428 24.707 545.939 25.246C546.198 25.516 546.508 25.7313 546.852 25.8791C547.195 26.0268 547.565 26.104 547.939 26.106C548.308 26.1167 548.675 26.0532 549.018 25.9192C549.362 25.7852 549.675 25.5834 549.939 25.326C550.208 25.0662 550.422 24.7557 550.57 24.4123C550.718 24.069 550.796 23.6997 550.799 23.326L551.189 4.68597C551.203 3.94503 550.922 3.22897 550.408 2.69476C549.895 2.16054 549.19 1.85172 548.449 1.83596L548.349 1.86596Z" fill="#2AB6C5"/>
</svg>
