<svg width="387" height="356" viewBox="0 0 387 356" fill="none" xmlns="http://www.w3.org/2000/svg">
<path d="M241.605 90.9396C241.724 90.9396 241.809 91.4247 241.792 92.0118C241.775 92.599 241.664 93.0671 241.545 93.0671C241.426 93.0671 241.332 92.5905 241.349 91.9948C241.366 91.3991 241.477 90.9311 241.605 90.9396Z" fill="#E0E0E0"/>
<path d="M243.23 82.6855C243.202 83.3962 243.058 84.0975 242.805 84.762C242.693 85.4638 242.46 86.1406 242.115 86.7619C242.033 86.0446 242.123 85.3181 242.379 84.6429C242.494 83.9293 242.786 83.256 243.23 82.6855Z" fill="#E0E0E0"/>
<path d="M247.341 75.3673C247.443 75.4439 246.907 76.2183 246.26 77.18C245.613 78.1416 245.068 78.882 244.958 78.882C245.102 78.1747 245.424 77.5157 245.894 76.9672C246.583 75.9545 247.281 75.2907 247.341 75.3673Z" fill="#E0E0E0"/>
<path d="M253.655 69.7754C253.723 69.8775 252.991 70.4732 252.072 71.171C251.153 71.8689 250.37 72.4305 250.302 72.3369C250.234 72.2433 250.864 71.4859 251.8 70.8221C252.327 70.3314 252.962 69.9727 253.655 69.7754Z" fill="#E0E0E0"/>
<path d="M261.178 65.9551C260.643 66.4344 260.014 66.7967 259.331 67.0188C258.708 67.3675 258.023 67.5902 257.314 67.6741C257.255 67.5635 258.08 67.0869 259.152 66.6104C259.776 66.2564 260.465 66.0334 261.178 65.9551Z" fill="#E0E0E0"/>
<path d="M269.246 63.4857C268.643 63.8714 267.968 64.1319 267.263 64.2516C266.595 64.5037 265.882 64.6166 265.169 64.5835C265.77 64.194 266.445 63.9332 267.152 63.8176C267.82 63.5668 268.532 63.4539 269.246 63.4857Z" fill="#E0E0E0"/>
<path d="M277.543 61.9219C276.221 62.4471 274.803 62.685 273.382 62.6197C274.016 62.2918 274.711 62.1005 275.424 62.0581C276.114 61.8691 276.835 61.8227 277.543 61.9219Z" fill="#E0E0E0"/>
<path d="M285.942 61.0887C284.571 61.4649 283.137 61.5547 281.73 61.3525C282.396 61.0909 283.108 60.9692 283.823 60.9951C284.529 60.8832 285.249 60.9151 285.942 61.0887Z" fill="#E0E0E0"/>
<path d="M294.359 61.6411C292.944 61.7855 291.514 61.6289 290.164 61.1815C290.862 61.0358 291.584 61.0358 292.283 61.1815C292.998 61.1957 293.704 61.3519 294.359 61.6411Z" fill="#E0E0E0"/>
<path d="M302.545 63.6646C301.832 63.6752 301.124 63.545 300.46 63.2816C299.754 63.134 299.086 62.8445 298.495 62.4306C299.209 62.4172 299.919 62.5504 300.58 62.8221C301.287 62.961 301.957 63.2481 302.545 63.6646Z" fill="#E0E0E0"/>
<path d="M310.205 67.1812C308.836 66.7951 307.562 66.1318 306.46 65.2324C307.165 65.3531 307.836 65.6167 308.435 66.0068C309.465 66.5175 310.316 67.0706 310.205 67.1812Z" fill="#E0E0E0"/>
<path d="M316.987 72.1853C316.355 71.8786 315.779 71.4672 315.285 70.9683C314.391 70.228 313.685 69.5982 313.762 69.4961C314.439 69.7326 315.055 70.1162 315.566 70.6194C316.442 71.3683 317.072 72.0917 316.987 72.1853Z" fill="#E0E0E0"/>
<path d="M322.459 78.5825C322.357 78.6506 321.753 77.9187 321.055 76.9996C320.357 76.0805 319.821 75.2976 319.915 75.221C320.008 75.1444 320.706 75.7912 321.412 76.7358C321.898 77.2631 322.256 77.8949 322.459 78.5825Z" fill="#E0E0E0"/>
<path d="M326.331 86.0895C325.571 84.8987 324.997 83.5987 324.629 82.2344C325.531 83.3442 326.119 84.6754 326.331 86.0895Z" fill="#E0E0E0"/>
<path d="M328.399 94.2362C328.098 93.5924 327.911 92.9014 327.846 92.1938C327.64 91.5132 327.557 90.8015 327.599 90.0918C328.234 91.3762 328.51 92.808 328.399 94.2362Z" fill="#E0E0E0"/>
<path d="M328.433 102.658C328.314 101.249 328.4 99.8297 328.689 98.4453C328.906 99.1325 328.962 99.8607 328.85 100.573C328.88 101.291 328.737 102.006 328.433 102.658Z" fill="#E0E0E0"/>
<path d="M326.187 110.769C326.237 110.06 326.431 109.368 326.757 108.735C326.915 108.041 327.204 107.382 327.608 106.795C327.62 107.514 327.471 108.226 327.174 108.88C326.979 109.571 326.643 110.214 326.187 110.769Z" fill="#E0E0E0"/>
<path d="M321.6 117.817C321.506 117.732 322.068 116.966 322.774 116.064C323.481 115.162 324.059 114.405 324.17 114.473C323.976 115.167 323.617 115.804 323.123 116.328C322.408 117.264 321.685 117.903 321.6 117.817Z" fill="#E0E0E0"/>
<path d="M315.004 123.032C314.953 122.922 315.736 122.402 316.706 121.764C317.258 121.319 317.875 120.963 318.536 120.709C318.613 120.803 317.932 121.492 316.953 122.139C316.392 122.6 315.72 122.908 315.004 123.032Z" fill="#E0E0E0"/>
<path d="M306.954 125.338C307.615 125.09 308.309 124.939 309.013 124.887C309.694 124.697 310.4 124.611 311.107 124.632C310.505 125.032 309.81 125.27 309.09 125.321C308.392 125.515 307.655 125.521 306.954 125.338Z" fill="#E0E0E0"/>
<path d="M298.81 123.535C299.506 123.646 300.18 123.864 300.809 124.182C301.496 124.371 302.153 124.657 302.758 125.033C301.315 125.004 299.923 124.488 298.81 123.569V123.535Z" fill="#E0E0E0"/>
<path d="M292.495 118.038C292.606 117.97 293.21 118.684 293.984 119.535C294.759 120.386 295.414 121.059 295.329 121.161C295.244 121.263 294.478 120.71 293.627 119.833C293.102 119.341 292.713 118.723 292.495 118.038Z" fill="#E0E0E0"/>
<path d="M289.695 110.189C289.928 110.853 290.085 111.541 290.163 112.24C290.372 112.914 290.492 113.612 290.521 114.317C290.079 113.742 289.805 113.055 289.729 112.334C289.51 111.638 289.498 110.892 289.695 110.189Z" fill="#E0E0E0"/>
<path d="M292.206 102.303C291.985 102.969 291.679 103.604 291.295 104.192C291.037 104.848 290.696 105.468 290.282 106.039C290.286 105.309 290.502 104.596 290.904 103.988C291.448 102.932 292.112 102.26 292.206 102.303Z" fill="#E0E0E0"/>
<path d="M298.716 97.043C298.776 97.1621 297.967 97.6472 297.014 98.2599C296.453 98.691 295.831 99.0352 295.167 99.2811C295.091 99.1875 295.771 98.5067 296.784 97.8855C297.348 97.449 298.012 97.1595 298.716 97.043Z" fill="#E0E0E0"/>
<path d="M306.767 94.5998C306.128 94.9064 305.444 95.1076 304.741 95.1955C304.066 95.4169 303.358 95.5233 302.648 95.5104C303.907 94.8229 305.335 94.5072 306.767 94.5998Z" fill="#E0E0E0"/>
<path d="M315.192 94.4233C314.506 94.619 313.788 94.6711 313.081 94.5765C312.367 94.6185 311.653 94.5173 310.979 94.2786C311.664 94.0808 312.383 94.0286 313.09 94.1255C313.803 94.0789 314.519 94.1803 315.192 94.4233Z" fill="#E0E0E0"/>
<path d="M323.455 96.0905C322.743 96.0898 322.037 95.963 321.37 95.7161C320.667 95.6094 319.989 95.3759 319.37 95.0267C320.087 94.9496 320.813 95.0399 321.489 95.2905C322.198 95.3999 322.871 95.6738 323.455 96.0905Z" fill="#E0E0E0"/>
<path d="M331.097 99.6215C330.411 99.453 329.76 99.1649 329.174 98.7705C328.517 98.5005 327.912 98.1174 327.387 97.6387C328.101 97.7253 328.784 97.9821 329.378 98.3876C330.416 98.9237 331.165 99.5194 331.097 99.6215Z" fill="#E0E0E0"/>
<path d="M337.547 105.025C337.454 105.11 336.696 104.515 335.905 103.698C335.114 102.881 334.424 102.2 334.509 102.098C335.176 102.372 335.761 102.811 336.211 103.374C337.045 104.208 337.641 104.949 337.547 105.025Z" fill="#E0E0E0"/>
<path d="M342.262 111.994C342.152 112.054 341.65 111.254 341.071 110.25C340.655 109.675 340.341 109.033 340.143 108.352C340.237 108.284 340.867 109.016 341.454 110.054C341.866 110.631 342.143 111.295 342.262 111.994Z" fill="#E0E0E0"/>
<path d="M345.079 119.936C344.713 119.325 344.459 118.653 344.33 117.953C344.067 117.294 343.92 116.594 343.896 115.885C344.332 116.456 344.624 117.125 344.747 117.834C345.021 118.499 345.135 119.219 345.079 119.936Z" fill="#E0E0E0"/>
<path d="M346.134 128.3C345.871 127.634 345.741 126.923 345.751 126.207C345.631 125.504 345.651 124.783 345.811 124.088C346.088 124.747 346.218 125.458 346.194 126.173C346.326 126.878 346.306 127.604 346.134 128.3Z" fill="#E0E0E0"/>
<path d="M345.641 136.717C345.501 136.018 345.501 135.297 345.641 134.598C345.641 133.882 345.792 133.175 346.083 132.521C346.229 133.935 346.082 135.363 345.649 136.717H345.641Z" fill="#E0E0E0"/>
<path d="M343.734 144.936C343.703 144.221 343.822 143.508 344.083 142.842C344.204 142.135 344.467 141.461 344.858 140.859C344.889 141.574 344.771 142.287 344.509 142.953C344.384 143.658 344.121 144.332 343.734 144.936Z" fill="#E0E0E0"/>
<path d="M340.483 152.716C340.59 152.011 340.836 151.334 341.207 150.724C341.709 149.678 342.151 148.844 342.27 148.895C342.203 149.608 341.976 150.298 341.607 150.912C341.096 151.967 340.594 152.775 340.483 152.716Z" fill="#E0E0E0"/>
<path d="M336.194 159.985C336.377 159.294 336.698 158.649 337.139 158.087C337.76 157.1 338.347 156.385 338.45 156.385C338.273 157.076 337.955 157.722 337.513 158.283C336.884 159.278 336.296 160.053 336.194 159.985Z" fill="#E0E0E0"/>
<path d="M331.131 166.732C331.385 166.067 331.77 165.459 332.263 164.945C332.986 164.026 333.65 163.345 333.744 163.422C333.837 163.498 333.335 164.273 332.612 165.218C331.889 166.162 331.225 166.817 331.131 166.732Z" fill="#E0E0E0"/>
<path d="M325.514 173.029C325.421 172.943 325.991 172.178 326.782 171.326C327.574 170.475 328.289 169.846 328.382 169.922C328.476 169.999 327.906 170.773 327.106 171.624C326.306 172.475 325.634 173.114 325.514 173.029Z" fill="#E0E0E0"/>
<path d="M319.515 178.977C319.43 178.884 320.042 178.126 320.876 177.343C321.71 176.56 322.468 175.956 322.578 176.041C322.689 176.126 322.051 176.892 321.208 177.667C320.366 178.441 319.6 179.062 319.515 178.977Z" fill="#E0E0E0"/>
<path d="M313.285 184.671C313.2 184.586 313.838 183.88 314.706 183.097C315.574 182.314 316.34 181.753 316.408 181.846C316.477 181.94 315.855 182.646 314.996 183.429C314.136 184.212 313.37 184.808 313.285 184.671Z" fill="#E0E0E0"/>
<path d="M308.528 188.875C308.443 188.79 308.741 188.399 309.183 188.024C309.626 187.65 310.034 187.395 310.128 187.488C310.221 187.582 309.915 187.973 309.473 188.339C309.03 188.705 308.613 188.969 308.528 188.875Z" fill="#E0E0E0"/>
<path d="M63.182 171.091C63.2842 171.022 63.6246 171.371 63.9394 171.865C64.2543 172.359 64.433 172.81 64.3309 172.878C64.2288 172.946 63.8884 172.597 63.565 172.103C63.2416 171.61 63.0799 171.193 63.182 171.091Z" fill="#E0E0E0"/>
<path d="M59.0374 163.637C59.5465 164.148 59.9486 164.755 60.2203 165.424C60.6184 166.026 60.8878 166.704 61.0117 167.415C60.5008 166.905 60.0984 166.298 59.8288 165.628C59.4291 165.027 59.1596 164.348 59.0374 163.637Z" fill="#E0E0E0"/>
<path d="M55.6418 155.814C56.0977 156.375 56.4389 157.02 56.646 157.712C56.9826 158.351 57.1853 159.052 57.2417 159.772C56.7836 159.212 56.4422 158.567 56.2376 157.874C55.8992 157.236 55.6964 156.535 55.6418 155.814Z" fill="#E0E0E0"/>
<path d="M53.0376 147.695C53.4536 148.291 53.7432 148.966 53.8886 149.678C54.1567 150.349 54.2869 151.067 54.2716 151.789C53.5969 150.52 53.1886 149.127 53.0716 147.695H53.0376Z" fill="#E0E0E0"/>
<path d="M51.2764 139.355C51.8218 140.682 52.0855 142.108 52.0508 143.542C51.7095 142.908 51.5038 142.21 51.4466 141.492C51.2472 140.798 51.1893 140.072 51.2764 139.355Z" fill="#E0E0E0"/>
<path d="M50.3997 130.871C50.6632 131.542 50.7849 132.261 50.7571 132.982C50.8893 133.693 50.869 134.424 50.6975 135.126C50.2958 133.746 50.1856 132.297 50.3741 130.871H50.3997Z" fill="#E0E0E0"/>
<path d="M50.4592 122.344C50.6541 123.038 50.7033 123.765 50.6039 124.48C50.6516 125.201 50.5532 125.925 50.3145 126.607C50.1177 125.913 50.0656 125.186 50.1613 124.471C50.1165 123.749 50.2178 123.026 50.4592 122.344Z" fill="#E0E0E0"/>
<path d="M51.4976 113.883C51.6085 114.594 51.5738 115.321 51.3955 116.019C51.3564 116.74 51.1741 117.446 50.8593 118.095C50.7422 117.384 50.777 116.656 50.9615 115.959C50.9973 115.238 51.1798 114.531 51.4976 113.883Z" fill="#E0E0E0"/>
<path d="M53.557 105.611C53.5776 106.332 53.4531 107.05 53.1911 107.722C53.0658 108.433 52.7965 109.11 52.3997 109.713C52.4979 108.281 52.892 106.884 53.557 105.611Z" fill="#E0E0E0"/>
<path d="M56.6034 97.6465C56.3384 99.0579 55.7788 100.398 54.9609 101.578C55.0221 100.859 55.2338 100.16 55.5822 99.5272C55.7901 98.8369 56.1377 98.1968 56.6034 97.6465Z" fill="#E0E0E0"/>
<path d="M60.5947 90.1087C60.4473 90.8149 60.1578 91.4837 59.7437 92.0745C59.165 93.0957 58.6119 93.8787 58.5012 93.8191C58.6491 93.113 58.9386 92.4443 59.3522 91.8533C59.9309 90.8235 60.4841 90.0491 60.5947 90.1087Z" fill="#E0E0E0"/>
<path d="M65.454 83.1131C65.2206 83.7946 64.8532 84.4226 64.3732 84.9598C63.6754 85.8959 63.0286 86.6023 62.9265 86.5342C63.1573 85.8521 63.5284 85.226 64.0158 84.696C64.7051 83.7429 65.3519 83.0365 65.454 83.1131Z" fill="#E0E0E0"/>
<path d="M71.1816 76.7277C71.2667 76.8128 70.6795 77.5787 69.871 78.4297C69.0626 79.2807 68.3307 79.9019 68.2371 79.8253C68.1435 79.7487 68.7307 78.9743 69.5477 78.1233C70.3646 77.2723 71.0539 76.6766 71.1816 76.7277Z" fill="#E0E0E0"/>
<path d="M77.5892 71.1866C77.6573 71.2803 76.9765 71.9611 76.0659 72.7014C75.5521 73.2072 74.9413 73.6038 74.2703 73.8673C74.1937 73.7737 74.8745 73.1014 75.7936 72.3525C76.7127 71.6036 77.5126 71.0845 77.5892 71.1866Z" fill="#E0E0E0"/>
<path d="M84.7125 66.5176C84.772 66.6197 84.0061 67.1984 83.0104 67.8111C82.433 68.2464 81.7727 68.5591 81.0701 68.7302C81.002 68.6281 81.768 68.0494 82.7721 67.4367C83.3465 66.9963 84.0079 66.683 84.7125 66.5176Z" fill="#E0E0E0"/>
<path d="M92.4564 62.8652C91.9096 63.3373 91.2727 63.6934 90.5842 63.912C89.9547 64.2633 89.2593 64.4807 88.5417 64.5502C89.0838 64.076 89.7184 63.7196 90.4055 63.5035C91.0391 63.1548 91.7367 62.9377 92.4564 62.8652Z" fill="#E0E0E0"/>
<path d="M100.55 60.3128C99.946 60.7126 99.2643 60.9795 98.5497 61.0957C97.878 61.3576 97.1597 61.4792 96.4392 61.4532C97.0403 61.0545 97.7189 60.7876 98.4306 60.6702C99.1067 60.4135 99.8267 60.2921 100.55 60.3128Z" fill="#E0E0E0"/>
<path d="M108.941 58.8589C108.29 59.1659 107.584 59.3395 106.864 59.3695C106.161 59.5374 105.432 59.5606 104.72 59.4376C105.373 59.1283 106.082 58.9547 106.805 58.927C107.504 58.7539 108.232 58.7307 108.941 58.8589Z" fill="#E0E0E0"/>
<path d="M117.459 58.5345C116.773 58.755 116.05 58.8361 115.332 58.7728C114.613 58.8464 113.887 58.777 113.196 58.5686C113.88 58.3397 114.605 58.2585 115.323 58.3303C116.042 58.2549 116.768 58.3243 117.459 58.5345Z" fill="#E0E0E0"/>
<path d="M125.944 59.3173C124.504 59.4425 123.054 59.2627 121.689 58.7897C122.396 58.6404 123.126 58.6404 123.834 58.7897C124.566 58.8165 125.285 58.9963 125.944 59.3173Z" fill="#E0E0E0"/>
<path d="M134.25 61.2403C133.528 61.2729 132.806 61.1571 132.131 60.8999C131.418 60.7866 130.737 60.5257 130.131 60.134C130.85 60.1025 131.568 60.2183 132.241 60.4744C132.956 60.591 133.639 60.8516 134.25 61.2403Z" fill="#E0E0E0"/>
<path d="M142.19 64.3212C140.781 64.0313 139.448 63.4517 138.275 62.6191C138.995 62.6916 139.692 62.9087 140.326 63.2574C141.015 63.4785 141.649 63.8408 142.19 64.3212Z" fill="#E0E0E0"/>
<path d="M149.602 68.5338C148.901 68.357 148.244 68.0384 147.67 67.5977C146.675 66.9764 145.917 66.3892 145.968 66.2871C146.672 66.4565 147.331 66.7758 147.9 67.2232C148.913 67.8445 149.67 68.4317 149.602 68.5338Z" fill="#E0E0E0"/>
<path d="M156.35 73.7343C155.683 73.4656 155.078 73.063 154.572 72.5513C153.661 71.8025 152.989 71.1217 153.066 71.0195C153.734 71.2947 154.341 71.6996 154.853 72.2109C155.763 72.9598 156.436 73.6406 156.35 73.7343Z" fill="#E0E0E0"/>
<path d="M162.41 79.7332C162.316 79.8183 161.559 79.1885 160.776 78.346C159.993 77.5035 159.38 76.7376 159.465 76.644C159.55 76.5504 160.316 77.1801 161.099 78.0396C161.882 78.8992 162.503 79.6566 162.41 79.7332Z" fill="#E0E0E0"/>
<path d="M167.788 86.356C167.686 86.4241 167.022 85.7347 166.307 84.7986C165.593 83.8625 165.082 83.0966 165.184 82.9775C165.286 82.8583 165.933 83.5987 166.656 84.5348C167.154 85.0586 167.539 85.6783 167.788 86.356Z" fill="#E0E0E0"/>
<path d="M172.52 93.4421C172.418 93.5016 171.822 92.7527 171.192 91.74C170.743 91.1717 170.416 90.5171 170.23 89.8168C170.333 89.7487 170.928 90.5061 171.558 91.5188C172.007 92.0869 172.335 92.7417 172.52 93.4421Z" fill="#E0E0E0"/>
<path d="M176.707 100.882C176.596 100.941 176.06 100.15 175.507 99.1118C175.105 98.513 174.829 97.8382 174.698 97.1289C175.211 97.6338 175.619 98.2355 175.898 98.899C176.298 99.4992 176.573 100.173 176.707 100.882Z" fill="#E0E0E0"/>
<path d="M179.464 106.65C179.353 106.701 179.064 106.309 178.817 105.799C178.57 105.288 178.46 104.786 178.57 104.735C178.681 104.684 178.97 105.075 179.217 105.586C179.464 106.097 179.574 106.599 179.464 106.65Z" fill="#E0E0E0"/>
<path d="M75.1557 209.638C75.0961 209.536 75.4875 209.246 76.0067 209C76.5258 208.753 77.0194 208.651 77.0619 208.761C77.1045 208.872 76.713 209.161 76.2109 209.408C75.7088 209.655 75.2067 209.748 75.1557 209.638Z" fill="#E0E0E0"/>
<path d="M68.2112 214.244C68.1346 214.15 68.7814 213.452 69.709 212.754C70.2282 212.27 70.8555 211.917 71.5387 211.725C71.6068 211.827 70.8834 212.414 69.9728 213.112C69.0622 213.81 68.2963 214.337 68.2112 214.244Z" fill="#E0E0E0"/>
<path d="M62.5518 220.346C62.818 219.693 63.2114 219.1 63.7091 218.601C64.4495 217.75 65.1218 217.052 65.2154 217.129C64.9453 217.772 64.5521 218.356 64.058 218.848C63.3262 219.758 62.6709 220.414 62.5518 220.346Z" fill="#E0E0E0"/>
<path d="M58.3394 227.527C58.4556 226.831 58.7165 226.167 59.1053 225.579C59.6329 224.549 60.152 223.766 60.2626 223.825C60.1421 224.523 59.8815 225.189 59.4967 225.783C59.2341 226.437 58.8402 227.031 58.3394 227.527Z" fill="#E0E0E0"/>
<path d="M55.6846 235.425C55.7712 234.022 56.1541 232.653 56.8079 231.408C56.7212 232.811 56.3384 234.18 55.6846 235.425Z" fill="#E0E0E0"/>
<path d="M54.7058 243.699C54.5331 243.014 54.5041 242.301 54.6207 241.605C54.5902 240.899 54.7091 240.194 54.9696 239.537C55.1453 240.221 55.1771 240.934 55.0633 241.631C55.0836 242.337 54.962 243.04 54.7058 243.699Z" fill="#E0E0E0"/>
<path d="M55.5654 251.976C55.2101 251.359 55.0006 250.67 54.9526 249.959C54.7643 249.273 54.7467 248.552 54.9016 247.857C55.1823 248.502 55.3493 249.19 55.3952 249.891C55.5796 250.57 55.6373 251.277 55.5654 251.976Z" fill="#E0E0E0"/>
<path d="M58.3566 259.824C57.474 258.716 56.9066 257.39 56.7141 255.986C57.1436 256.542 57.4694 257.17 57.6758 257.842C58.0235 258.455 58.2543 259.127 58.3566 259.824Z" fill="#E0E0E0"/>
<path d="M62.8587 266.826C62.7651 266.912 62.1353 266.205 61.4545 265.269C60.9878 264.739 60.6344 264.119 60.4163 263.448C60.5184 263.38 61.1481 264.078 61.8119 265.005C62.2809 265.535 62.6371 266.155 62.8587 266.826Z" fill="#E0E0E0"/>
<path d="M68.7135 272.751C68.6369 272.853 67.8625 272.291 67.0115 271.508C66.1605 270.725 65.5308 270.027 65.6159 269.942C65.701 269.857 66.4669 270.41 67.3179 271.185C68.1689 271.959 68.7901 272.657 68.7135 272.751Z" fill="#E0E0E0"/>
<path d="M75.6152 277.432C74.9276 277.265 74.2818 276.958 73.7174 276.53C72.7302 275.926 72.0154 275.356 72.0154 275.254C72.7032 275.421 73.3492 275.728 73.9131 276.156C74.9258 276.718 75.6747 277.322 75.6152 277.432Z" fill="#E0E0E0"/>
<path d="M83.2655 280.725C82.5607 280.695 81.8703 280.515 81.2401 280.198C80.5562 280.017 79.9163 279.698 79.3594 279.262C80.0665 279.289 80.7597 279.466 81.3933 279.781C82.0751 279.965 82.7122 280.286 83.2655 280.725Z" fill="#E0E0E0"/>
<path d="M91.4099 282.495C90.0065 282.558 88.6058 282.323 87.2996 281.806C87.9988 281.706 88.7111 281.75 89.393 281.934C90.0974 281.977 90.7848 282.168 91.4099 282.495Z" fill="#E0E0E0"/>
<path d="M99.741 282.571C99.0767 282.813 98.3703 282.917 97.6645 282.877C96.9656 282.984 96.2518 282.94 95.571 282.749C96.2349 282.506 96.9412 282.399 97.6475 282.435C98.3471 282.331 99.0607 282.377 99.741 282.571Z" fill="#E0E0E0"/>
<path d="M107.894 280.887C107.298 281.263 106.632 281.515 105.937 281.627C105.273 281.872 104.566 281.976 103.86 281.934C104.457 281.553 105.126 281.301 105.826 281.193C106.486 280.947 107.191 280.843 107.894 280.887Z" fill="#E0E0E0"/>
<path d="M115.562 277.617C115.621 277.728 114.821 278.221 113.783 278.723C113.182 279.096 112.509 279.339 111.809 279.438C111.758 279.319 112.558 278.826 113.587 278.324C114.192 277.96 114.863 277.72 115.562 277.617Z" fill="#E0E0E0"/>
<path d="M122.497 272.998C122.574 273.092 121.885 273.73 120.948 274.411C120.012 275.092 119.246 275.568 119.136 275.466C119.025 275.364 119.757 274.734 120.685 274.053C121.213 273.585 121.829 273.226 122.497 272.998Z" fill="#E0E0E0"/>
<path d="M128.523 267.244C128.608 267.321 128.038 268.095 127.238 268.903C126.438 269.712 125.714 270.342 125.629 270.248C125.544 270.154 126.123 269.397 126.914 268.597C127.706 267.797 128.429 267.159 128.523 267.244Z" fill="#E0E0E0"/>
<path d="M133.467 260.548C133.272 261.227 132.939 261.859 132.488 262.403C131.841 263.365 131.237 264.105 131.135 264.011C131.334 263.332 131.67 262.701 132.122 262.156C132.76 261.186 133.365 260.463 133.467 260.548Z" fill="#E0E0E0"/>
<path d="M137.16 253.061C137.088 253.764 136.871 254.445 136.522 255.06C136.303 255.732 135.95 256.351 135.484 256.882C135.551 256.178 135.766 255.497 136.113 254.882C136.332 254.209 136.689 253.588 137.16 253.061Z" fill="#E0E0E0"/>
<path d="M138.998 247.04C139.118 247.04 139.092 247.559 138.947 248.129C138.803 248.7 138.59 249.142 138.471 249.108C138.352 249.074 138.377 248.589 138.522 248.019C138.666 247.449 138.879 247.015 138.998 247.04Z" fill="#E0E0E0"/>
<path d="M225.801 0.717249L187.747 10.9351C186.272 11.3312 185.397 12.8483 185.793 14.3235L192.86 40.6407C193.256 42.1159 194.773 42.9907 196.248 42.5946L234.302 32.3767C235.777 31.9806 236.652 30.4636 236.256 28.9883L229.19 2.67118C228.793 1.19594 227.276 0.321131 225.801 0.717249Z" fill="#F5F5F5"/>
<path d="M227.512 4.0625C227.433 4.21894 227.339 4.36717 227.231 4.50503L226.38 5.71346L223.138 10.1217C221.751 11.9939 220.108 14.1895 218.287 16.6319L215.41 20.4615L213.887 22.4869C213.328 23.2247 212.544 23.7602 211.653 24.0121C210.762 24.2639 209.814 24.2184 208.951 23.8825L206.611 22.8869L202.237 20.9891L194.791 17.7638L189.787 15.5596L188.442 14.9299C188.282 14.8648 188.128 14.785 187.982 14.6916C188.152 14.727 188.318 14.7813 188.476 14.8533L189.855 15.398L194.961 17.4744L202.441 20.6147L206.849 22.4869L209.181 23.4655C209.954 23.7671 210.805 23.8081 211.604 23.5824C212.402 23.3566 213.105 22.8763 213.606 22.2146L215.138 20.1977L218.032 16.3851L222.959 9.93447L226.312 5.61134C226.686 5.13477 226.993 4.76033 227.24 4.45396C227.315 4.31321 227.406 4.18181 227.512 4.0625Z" fill="#E0E0E0"/>
<path d="M205.309 22.0947C205.411 22.1543 203.284 25.8392 200.552 30.307C197.82 34.7748 195.531 38.366 195.446 38.2979C195.361 38.2299 197.471 34.5535 200.203 30.0772C202.935 25.6009 205.198 22.0266 205.309 22.0947Z" fill="#E0E0E0"/>
<path d="M216.049 19.2086C216.108 19.1065 219.793 21.234 224.261 23.9572C228.729 26.6805 232.32 28.9867 232.252 29.0633C232.184 29.1399 228.508 27.0464 224.031 24.3147C219.555 21.5829 215.981 19.3107 216.049 19.2086Z" fill="#E0E0E0"/>
<path d="M362.848 107.365C357.273 107.365 351.925 105.152 347.979 101.213C344.033 97.2734 341.812 91.9291 341.803 86.3534C341.805 80.7732 344.023 75.4224 347.97 71.4775C351.916 67.5325 357.268 65.3164 362.848 65.3164C368.428 65.3164 373.778 67.5328 377.724 71.478C381.669 75.4232 383.885 80.774 383.885 86.3534C383.876 91.9276 381.656 97.2706 377.712 101.21C373.768 105.149 368.422 107.363 362.848 107.365Z" fill="#EBEBEB"/>
<path d="M359.674 99.0773H364.78V86.2526H368.354L368.737 81.955H364.78V79.5126C364.78 78.4999 364.984 78.0999 365.963 78.0999H368.737V73.6406H365.188C361.376 73.6406 359.657 75.3426 359.657 78.5339V81.938H356.993V86.2866H359.674V99.0773Z" fill="white"/>
<path d="M100.303 333.528C100.51 334.432 100.445 335.377 100.115 336.244C99.7848 337.111 99.2052 337.86 98.4492 338.397C97.6933 338.935 96.7949 339.236 95.8678 339.263C94.9407 339.289 94.0265 339.041 93.2408 338.548C92.4551 338.055 91.8332 337.34 91.4538 336.494C91.0744 335.648 90.9544 334.708 91.1092 333.793C91.2639 332.879 91.6864 332.031 92.3231 331.356C92.9598 330.682 93.7823 330.212 94.6864 330.005C95.2866 329.866 95.9082 329.847 96.5156 329.95C97.123 330.052 97.7043 330.273 98.2261 330.6C98.7479 330.928 99.2 331.355 99.5564 331.857C99.9128 332.359 100.167 332.927 100.303 333.528Z" fill="#EBEBEB"/>
<path d="M78.1765 338.689L113.323 330.612L110.26 328.383C108.365 327.002 107.032 324.983 106.507 322.698L104.32 313.167C103.934 311.484 103.221 309.894 102.22 308.487C101.22 307.079 99.952 305.883 98.4891 304.967C97.0262 304.05 95.397 303.43 93.6946 303.144C91.9922 302.857 90.2499 302.908 88.5674 303.295C85.1714 304.078 82.225 306.176 80.3756 309.13C78.5261 312.083 77.9249 315.651 78.7041 319.047L80.8061 328.213C81.2994 330.336 81.0625 332.564 80.1338 334.536L78.1765 338.689Z" fill="#EBEBEB"/>
<path d="M87.4538 299.211L87.0059 299.314C86.1768 299.504 85.6589 300.33 85.8493 301.159L86.8414 305.481C87.0318 306.31 87.8582 306.828 88.6873 306.637L89.1352 306.535C89.9644 306.344 90.4822 305.518 90.2918 304.689L89.2997 300.367C89.1094 299.538 88.2829 299.02 87.4538 299.211Z" fill="#EBEBEB"/>
<path d="M113.349 330.688C113.349 330.765 105.562 332.611 95.9205 334.824C86.2785 337.037 78.4577 338.764 78.4407 338.696C78.4237 338.628 86.2189 336.773 95.8609 334.56C105.503 332.347 113.332 330.611 113.349 330.688Z" fill="#E0E0E0"/>
<path d="M91.2058 335.769C92.7013 336.455 94.3749 336.651 95.9885 336.331C97.7028 335.979 99.2406 335.04 100.337 333.676L91.2058 335.769Z" fill="#E0E0E0"/>
<path d="M102.184 311.906C102.101 311.496 101.923 311.111 101.664 310.782C101.528 310.623 101.343 310.514 101.137 310.474C100.932 310.434 100.719 310.465 100.533 310.561C100.326 310.655 100.159 310.817 100.058 311.02C99.9575 311.223 99.9297 311.455 99.9794 311.676C100.32 313.182 101.069 316.518 101.435 318.484C101.741 320.126 101.911 321.888 101.145 323.411C100.499 324.545 99.4749 325.415 98.2519 325.871C97.0378 326.321 95.7842 326.658 94.5074 326.875C92.8985 327.177 91.3324 327.674 89.8439 328.356C89.437 328.524 89.0818 328.797 88.8142 329.147C88.6876 329.328 88.627 329.546 88.6425 329.766C88.658 329.986 88.7487 330.194 88.8993 330.355C89.0684 330.462 89.2579 330.532 89.4558 330.562C89.6536 330.591 89.8553 330.579 90.0481 330.526C94.1498 330.088 98.1961 329.232 102.124 327.973C102.963 327.753 103.713 327.277 104.269 326.611C104.726 325.744 104.87 324.746 104.677 323.786C104.204 319.759 103.37 315.783 102.184 311.906Z" fill="#E0E0E0"/>
<path d="M96.5416 303.888C96.5416 303.939 95.7502 303.607 94.4311 303.344C93.6602 303.188 92.8771 303.099 92.0908 303.08C91.1302 303.069 90.1705 303.143 89.2229 303.301C88.2782 303.478 87.3522 303.743 86.4571 304.093C85.7272 304.379 85.0238 304.73 84.3551 305.139C83.2063 305.846 82.5935 306.424 82.5595 306.382C82.5255 306.339 82.6956 306.22 82.968 305.956C83.1126 305.829 83.2829 305.675 83.5041 305.514C83.7431 305.321 83.9932 305.142 84.253 304.978C84.9178 304.537 85.6248 304.164 86.3635 303.863C87.2705 303.483 88.2145 303.197 89.1804 303.012C90.1441 302.846 91.1219 302.778 92.0993 302.808C92.8995 302.836 93.6949 302.944 94.4736 303.131C94.7617 303.194 95.0458 303.273 95.3246 303.369C95.5479 303.435 95.7667 303.514 95.9799 303.607C96.1798 303.673 96.369 303.768 96.5416 303.888Z" fill="#E0E0E0"/>
<path d="M80.9425 333.819C80.8659 333.819 81.317 332.688 81.4872 331.266C81.6574 329.845 81.4872 328.654 81.5637 328.637C82.0283 330.383 81.8059 332.241 80.9425 333.828V333.819Z" fill="white"/>
<path d="M97.1034 338.126C96.9007 338.296 96.6573 338.411 96.397 338.458C95.7761 338.63 95.1202 338.63 94.4993 338.458C93.8785 338.289 93.3143 337.957 92.8653 337.497C92.5249 337.139 92.4058 336.858 92.4313 336.85C92.4568 336.841 92.6441 337.054 93.0015 337.36C93.4539 337.758 93.9913 338.047 94.5724 338.204C95.1536 338.362 95.7631 338.385 96.3545 338.271C96.5998 338.203 96.8502 338.154 97.1034 338.126Z" fill="white"/>
<path d="M86.8229 299.812C86.6823 300.229 86.5742 300.656 86.4995 301.089C86.5181 301.526 86.5693 301.961 86.6527 302.391C86.3556 302.022 86.2083 301.554 86.2398 301.081C86.2713 300.608 86.4794 300.165 86.8229 299.838V299.812Z" fill="white"/>
<path d="M14.8189 105.323C15.7767 104.744 16.8069 104.295 17.8825 103.986L18.5123 100.948L23.6184 100.863L24.3758 103.876C25.4638 104.144 26.5113 104.556 27.4905 105.101L30.0435 103.399L33.7369 106.965L32.1285 109.612C32.7106 110.571 33.16 111.604 33.4646 112.684L36.5027 113.314L36.5878 118.42L33.5752 119.16C33.3072 120.244 32.898 121.288 32.3582 122.266L34.0603 124.862L30.4945 128.555L27.8819 126.938C26.9219 127.518 25.8887 127.968 24.8098 128.274L24.18 131.312L19.074 131.398L18.3336 128.385C17.2478 128.118 16.203 127.706 15.2274 127.159L12.6744 128.862L8.98098 125.296L10.5213 122.683C9.94292 121.722 9.49369 120.689 9.18522 119.611L6.15562 118.981L6.06201 113.875L9.07459 113.135C9.34288 112.047 9.75499 110.999 10.3 110.02L8.59802 107.467L12.1638 103.774L14.8189 105.382V105.323ZM17.5507 112.131C16.7944 112.914 16.2874 113.904 16.0938 114.976C15.9002 116.047 16.0286 117.152 16.463 118.151C16.8973 119.149 17.6179 119.997 18.5338 120.586C19.4497 121.175 20.5196 121.479 21.6084 121.46C22.6971 121.441 23.7558 121.099 24.6505 120.479C25.5452 119.858 26.2358 118.986 26.6349 117.973C27.034 116.96 27.1238 115.851 26.8929 114.787C26.6619 113.723 26.1206 112.751 25.3374 111.994C24.2843 110.988 22.8754 110.44 21.4191 110.471C19.9629 110.501 18.578 111.107 17.5677 112.156L17.5507 112.131Z" fill="#EBEBEB"/>
<path d="M361.69 228.261C362.622 227.7 363.623 227.265 364.669 226.967L365.282 224.023L370.26 223.938L370.975 226.856C372.034 227.116 373.053 227.516 374.005 228.048L376.558 226.397L380.149 229.861L378.583 232.414C379.146 233.344 379.581 234.346 379.877 235.392L382.83 236.005L382.915 240.983L379.987 241.707C379.729 242.762 379.332 243.778 378.804 244.728L380.447 247.281L376.992 250.863L374.439 249.298C373.506 249.862 372.501 250.297 371.452 250.591L370.839 253.544L365.86 253.629L365.146 250.702C364.09 250.445 363.074 250.048 362.124 249.519L359.571 251.17L355.989 247.706L357.546 245.153C356.987 244.221 356.552 243.22 356.252 242.175L353.308 241.562L353.214 236.575L356.142 235.86C356.401 234.804 356.802 233.788 357.333 232.839L355.682 230.286L359.137 226.703L361.69 228.261ZM364.346 234.898C363.612 235.659 363.12 236.621 362.933 237.661C362.745 238.701 362.87 239.774 363.292 240.743C363.714 241.712 364.414 242.534 365.304 243.105C366.193 243.677 367.232 243.971 368.288 243.952C369.345 243.933 370.373 243.601 371.241 242.998C372.109 242.395 372.779 241.548 373.166 240.565C373.553 239.581 373.639 238.505 373.414 237.472C373.189 236.439 372.663 235.496 371.903 234.762C371.397 234.275 370.801 233.892 370.148 233.635C369.495 233.378 368.798 233.253 368.096 233.265C367.394 233.278 366.702 233.429 366.058 233.709C365.415 233.989 364.833 234.393 364.346 234.898Z" fill="#EBEBEB"/>
<path d="M382.217 355.68C382.217 355.799 298.205 355.902 194.586 355.902C90.9672 355.902 6.93848 355.799 6.93848 355.68C6.93848 355.561 90.9332 355.459 194.586 355.459C298.239 355.459 382.217 355.553 382.217 355.68Z" fill="#263238"/>
<path d="M240.899 91.6907L98.1926 104.567C79.1725 106.269 65.2415 124.14 67.0711 144.487L74.5941 227.886C76.4237 248.226 93.3163 263.314 112.353 261.603L167.746 256.608C168.586 256.542 169.43 256.687 170.2 257.031C170.969 257.374 171.641 257.905 172.154 258.574L187.821 278.522C188.327 279.199 188.998 279.735 189.771 280.079C190.543 280.423 191.39 280.564 192.232 280.488C193.074 280.412 193.883 280.122 194.581 279.645C195.279 279.168 195.843 278.521 196.22 277.764L208.067 255.34C208.449 254.588 209.013 253.943 209.709 253.466C210.405 252.989 211.21 252.694 212.049 252.608L255.059 248.736C274.079 247.034 288.01 229.163 286.172 208.807L278.658 125.408C276.82 105.077 259.919 89.9802 240.899 91.6907Z" fill="white"/>
<path d="M240.898 91.6906L242.711 91.6055H243.724C244.134 91.5717 244.547 91.5717 244.958 91.6055C245.809 91.6736 246.881 91.7162 248.055 91.8353L249.893 92.1587C250.577 92.2566 251.254 92.3987 251.919 92.5842L254.106 93.2139C254.88 93.4182 255.621 93.8011 256.429 94.0649C260.096 95.5803 263.478 97.71 266.428 100.362C270.12 103.706 273.101 107.757 275.194 112.277L276.045 114.166C276.343 114.787 276.513 115.476 276.76 116.14C277.007 116.804 277.236 117.493 277.441 118.183C277.645 118.872 277.772 119.604 277.943 120.319C278.556 123.319 278.957 126.359 279.143 129.416C280.291 142.036 281.602 156.41 283.049 172.29C283.764 180.233 284.518 188.547 285.312 197.233C285.508 199.395 285.704 201.59 285.908 203.794C286.002 204.901 286.104 206.015 286.206 207.13L286.359 208.832L286.436 210.534C286.667 215.166 286.074 219.803 284.683 224.227C283.244 228.806 280.932 233.063 277.875 236.762C274.707 240.587 270.754 243.687 266.284 245.851C263.999 246.941 261.598 247.769 259.127 248.319C258.504 248.464 257.873 248.575 257.238 248.651L255.34 248.923C254.063 249.059 252.787 249.162 251.51 249.281L235.962 250.685L220.014 252.132L211.913 252.872C211.261 252.964 210.636 253.189 210.075 253.533C209.514 253.877 209.03 254.333 208.653 254.872C208.291 255.444 207.959 256.035 207.658 256.642L206.696 258.472L198.833 273.237L196.858 276.981C196.547 277.633 196.171 278.252 195.735 278.828C195.265 279.393 194.686 279.859 194.033 280.198C193.36 280.52 192.625 280.693 191.879 280.704C191.133 280.716 190.393 280.567 189.71 280.266C189.03 279.958 188.424 279.508 187.931 278.947C187.429 278.394 187.029 277.824 186.57 277.245L175.847 263.629L173.132 260.182C172.681 259.612 172.23 259.008 171.779 258.48C171.304 257.952 170.725 257.529 170.077 257.238C169.434 256.945 168.732 256.806 168.026 256.829C167.32 256.829 166.571 256.957 165.839 257.016L161.422 257.416L125.518 260.65L116.455 261.501C113.452 261.874 110.424 262.005 107.4 261.893C106.643 261.833 105.885 261.799 105.136 261.714L102.915 261.314C102.541 261.237 102.166 261.186 101.801 261.101L100.72 260.786L98.5582 260.148L96.4647 259.297L95.4265 258.872L94.4308 258.353L92.4564 257.255L90.5927 256.021C85.6672 252.674 81.633 248.175 78.8403 242.915C78.6616 242.592 78.4658 242.277 78.3126 241.954L77.8616 240.949L77.0106 238.941C76.7383 238.26 76.534 237.562 76.2958 236.873C76.0403 236.19 75.8215 235.494 75.6405 234.788C74.9207 231.984 74.4508 229.122 74.2363 226.235C72.1769 203.369 70.194 181.319 68.2792 160.308C67.8027 155.054 67.3346 149.869 66.8751 144.751C66.387 139.665 66.8898 134.532 68.3558 129.637C69.7392 124.949 72.0607 120.59 75.1796 116.826C78.2985 113.062 82.1496 109.971 86.4994 107.741L88.0737 106.958L89.7247 106.345C90.2693 106.141 90.814 105.92 91.3671 105.741L93.0692 105.307C93.6308 105.162 94.184 105.009 94.7712 104.881L96.4732 104.634L98.1752 104.388L99.8772 104.235L113.144 103.052L138.088 100.813L213.3 94.099L233.724 92.2948L239.043 91.8353L240.864 91.6906C240.864 91.6906 240.251 91.7672 239.051 91.8779L233.733 92.3799L213.308 94.2692L138.062 101.128L113.127 103.392L99.8602 104.592L98.1582 104.745L96.4562 104.992L94.7542 105.239C94.1925 105.366 93.6478 105.52 93.0521 105.656L91.3501 106.09C90.8055 106.268 90.2693 106.49 89.7332 106.685L88.1078 107.29L86.5419 108.073C82.2512 110.288 78.4548 113.351 75.3829 117.077C72.311 120.803 70.0275 125.113 68.6707 129.748C67.2128 134.595 66.7184 139.68 67.2155 144.717C67.675 149.823 68.1431 155.009 68.6196 160.274C70.5174 181.276 72.5173 203.335 74.5767 226.193C74.7931 229.065 75.2601 231.912 75.9724 234.703C76.1085 235.409 76.4149 236.073 76.6191 236.762C76.8234 237.452 77.0702 238.133 77.334 238.805L78.185 240.788L78.6275 241.783C78.7807 242.107 78.9764 242.413 79.1466 242.736C81.9016 247.923 85.8729 252.365 90.7204 255.68L92.5671 256.897L94.5244 257.927L95.5031 258.446L96.5328 258.872L98.5922 259.723L100.728 260.344L101.792 260.659C102.158 260.744 102.524 260.795 102.89 260.871L105.085 261.263C105.826 261.357 106.575 261.382 107.315 261.442C110.316 261.557 113.322 261.426 116.302 261.05L125.374 260.199L161.388 256.948L165.805 256.557C166.545 256.489 167.26 256.412 168.026 256.361C168.796 256.344 169.561 256.498 170.264 256.812C170.965 257.126 171.592 257.584 172.102 258.157C172.596 258.744 173.022 259.314 173.481 259.859L176.187 263.263C179.796 267.853 183.37 272.406 186.91 276.922C187.361 277.466 187.761 278.07 188.246 278.581C188.702 279.095 189.262 279.507 189.889 279.789C190.513 280.068 191.19 280.207 191.874 280.197C192.557 280.186 193.23 280.027 193.846 279.73C194.454 279.427 194.993 279.001 195.429 278.479C195.849 277.926 196.208 277.33 196.501 276.7L198.475 272.956C201.113 267.975 203.72 263.044 206.296 258.165L207.258 256.336C207.598 255.731 207.87 255.11 208.279 254.514C208.69 253.929 209.217 253.434 209.828 253.06C210.438 252.687 211.119 252.443 211.828 252.344L219.946 251.604L235.894 250.174L251.451 248.77C252.727 248.651 254.004 248.557 255.272 248.421L257.152 248.149C257.78 248.08 258.402 247.972 259.016 247.825C261.458 247.28 263.83 246.461 266.088 245.383C270.511 243.255 274.422 240.195 277.551 236.413C280.605 232.759 282.917 228.544 284.359 224.006C285.75 219.625 286.343 215.031 286.112 210.441L286.044 208.739L285.891 207.037C285.789 205.913 285.695 204.807 285.593 203.701C285.4 201.488 285.205 199.298 285.006 197.131C284.223 188.462 283.477 180.15 282.768 172.196C281.347 156.308 280.062 141.934 278.938 129.314C278.752 126.266 278.357 123.235 277.755 120.242C277.585 119.527 277.424 118.821 277.253 118.115C277.083 117.408 276.802 116.761 276.59 116.089C276.377 115.417 276.181 114.744 275.883 114.115C275.585 113.485 275.322 112.864 275.032 112.243C272.961 107.743 270.003 103.708 266.335 100.379C263.405 97.7281 260.047 95.593 256.404 94.0649C255.604 93.7671 254.863 93.3841 254.097 93.2139L251.919 92.5757C251.254 92.384 250.577 92.2362 249.893 92.1332L248.064 91.8013C246.898 91.6821 245.868 91.6311 244.983 91.5545C244.572 91.5209 244.16 91.5209 243.749 91.5545H242.745C241.511 91.6906 240.898 91.6906 240.898 91.6906Z" fill="#263238"/>
<path d="M315.045 61.9134C317.88 46.0627 307.329 30.915 291.478 28.0802C275.627 25.2453 260.48 35.7967 257.645 51.6474C254.81 67.4981 265.361 82.6458 281.212 85.4806C297.063 88.3155 312.21 77.7641 315.045 61.9134Z" fill="#2AB6C5"/>
<g opacity="0.3">
<path d="M315.045 61.9153C317.88 46.0646 307.329 30.917 291.478 28.0821C275.627 25.2473 260.48 35.7987 257.645 51.6494C254.81 67.5001 265.361 82.6477 281.212 85.4826C297.063 88.3174 312.21 77.766 315.045 61.9153Z" fill="black"/>
</g>
<path d="M301.862 78.3051C315.523 69.7817 319.689 51.7975 311.165 38.1361C302.642 24.4747 284.658 20.3094 270.996 28.8328C257.335 37.3561 253.17 55.3404 261.693 69.0018C270.216 82.6632 288.201 86.8284 301.862 78.3051Z" fill="#2AB6C5"/>
<path d="M305.838 55.7122C307.019 44.9906 299.286 35.341 288.564 34.1593C277.843 32.9775 268.193 40.711 267.011 51.4326C265.83 62.1542 273.563 71.8037 284.285 72.9855C295.006 74.1673 304.656 66.4338 305.838 55.7122Z" fill="white"/>
<path d="M295.985 53.8022C295.939 55.6902 295.335 57.5223 294.249 59.0672C293.162 60.612 291.643 61.8005 289.882 62.4825C288.121 63.1645 286.197 63.3094 284.354 62.8989C282.51 62.4885 280.83 61.5411 279.524 60.1764C278.219 58.8117 277.347 57.0908 277.019 55.231C276.691 53.3713 276.921 51.4559 277.681 49.7269C278.44 47.9979 279.695 46.5326 281.287 45.5161C282.878 44.4996 284.735 43.9775 286.624 44.0156C287.881 44.0421 289.121 44.3165 290.273 44.8229C291.424 45.3294 292.465 46.058 293.334 46.9671C294.204 47.8761 294.885 48.9478 295.34 50.1207C295.795 51.2935 296.014 52.5446 295.985 53.8022Z" fill="#2AB6C5"/>
<path d="M307.277 32.7416L306.639 26.5037L313.132 19.8828L313.422 26.6058L307.277 32.7416Z" fill="#455A64"/>
<path d="M320.987 28.13L314.571 27.4492L307.984 33.4829L314.409 34.3254L320.987 28.13Z" fill="#455A64"/>
<g opacity="0.3">
<path d="M287.704 53.4658L310.418 37.0073C309.611 35.7786 308.706 34.6174 307.712 33.5352L287.747 51.951L287.704 53.4658Z" fill="black"/>
</g>
<path d="M313.72 25.6686L304.41 34.5191L289.653 48.5607L286.249 51.7861C285.168 52.8073 286.768 54.4668 287.849 53.4881L297.142 44.6376L311.898 30.6044L315.302 27.3706C315.528 27.1607 315.661 26.8697 315.672 26.5617C315.684 26.2537 315.572 25.9538 315.362 25.7281C315.152 25.5024 314.861 25.3694 314.553 25.3582C314.245 25.347 313.945 25.4587 313.72 25.6686Z" fill="#263238"/>
<g opacity="0.2">
<path d="M258.905 162.152C258.392 153.684 257.137 145.278 255.152 137.03C254.721 135.181 254.29 133.337 253.859 131.499C253.399 129.669 252.88 127.865 252.404 126.052C251.459 122.427 250.395 118.87 249.306 115.355C247.212 108.283 244.013 99.7304 241.545 93.067C237.213 91.5096 231.673 91.2884 225.12 92.216L177.251 99.1262C168.996 107.262 160.18 114.809 150.87 121.712C150.767 121.057 150.665 120.401 150.572 119.729L109.502 138.451C101.783 143.268 97.8091 153.267 102.439 164.833L106.983 177.402L110.132 183.87C113.791 191.376 121.101 195.163 127.935 193.648L127.509 193.818L128.028 193.622C129.259 193.348 130.447 192.911 131.56 192.32L134.028 191.384L167.788 234.786C168.338 235.516 169.053 236.106 169.876 236.506C170.698 236.905 171.604 237.104 172.518 237.085C173.433 237.066 174.329 236.829 175.134 236.396C175.939 235.962 176.63 235.343 177.149 234.59L188.016 219.442C189.018 218.067 189.462 216.363 189.258 214.673C189.054 212.984 188.218 211.434 186.918 210.336C179.872 204.711 167.345 193.937 162.724 185.206C162.007 183.69 161.456 182.101 161.082 180.466L167.694 177.743C170.188 177.232 172.741 176.73 175.353 176.262C180.983 175.223 186.665 174.487 192.373 174.058C198.538 173.732 204.719 174.003 210.832 174.866C223.597 176.44 236.805 179.751 250.829 182.951L251.51 183.07H252.293C252.801 182.988 253.293 182.825 253.748 182.585C254.148 182.27 254.599 181.972 254.948 181.623L255.85 180.381C256.928 178.608 257.68 176.657 258.071 174.619C258.89 170.517 259.17 166.326 258.905 162.152Z" fill="black"/>
</g>
<path d="M119.059 133.362C119.059 133.362 136.241 126.826 162.92 104.257C182.425 87.7479 197.267 68.6427 203.837 59.5709C204.55 58.534 205.466 57.6525 206.53 56.9796C207.593 56.3067 208.782 55.8564 210.025 55.656C211.267 55.4555 212.537 55.509 213.758 55.8133C214.98 56.1176 216.126 56.6664 217.13 57.4264C223.657 62.4303 233.077 75.4678 244.651 109.423C265.075 169.292 254.106 181.665 249.128 181.078C244.149 180.491 211.045 171.496 189.693 171.972C168.341 172.449 136.326 181.206 136.326 181.206L119.059 133.362Z" fill="#E0E0E0"/>
<path d="M119.059 133.363C119.059 133.363 119.169 133.644 119.374 134.214L120.267 136.639L123.671 146C126.65 154.187 130.981 166.118 136.436 181.156L136.266 181.062C145.627 178.586 156.29 176.092 168.154 174.084C174.349 173.009 180.599 172.279 186.876 171.897C193.635 171.63 200.404 171.963 207.104 172.892C214.04 173.743 221.12 175.02 228.38 176.475C231.996 177.198 235.647 177.99 239.341 178.807L244.906 180.032C245.842 180.237 246.778 180.432 247.715 180.62C248.183 180.713 248.659 180.773 249.127 180.858C249.575 180.903 250.027 180.854 250.455 180.713C251.334 180.391 252.11 179.838 252.701 179.113C253.307 178.375 253.816 177.563 254.216 176.696C254.994 174.914 255.535 173.037 255.825 171.114C256.379 167.19 256.499 163.217 256.182 159.268C255.513 151.153 254.152 143.11 252.114 135.227C250.336 128.019 248.191 120.981 245.987 114.173C243.783 107.365 241.349 100.556 238.779 94.1058C236.287 87.7142 233.446 81.4641 230.269 75.3835C228.715 72.4605 227.011 69.62 225.163 66.8734C223.384 64.1633 221.315 61.655 218.993 59.3931C218.423 58.8314 217.81 58.3293 217.197 57.8272C216.899 57.5634 216.559 57.3762 216.244 57.1464C215.929 56.9166 215.572 56.7549 215.214 56.6017C213.808 55.9542 212.253 55.6956 210.713 55.8529C209.188 55.9954 207.723 56.5224 206.458 57.3847L205.989 57.6996L205.555 58.0655C205.255 58.3075 204.971 58.569 204.704 58.8484C204.202 59.4162 203.733 60.0129 203.3 60.6355C199.701 65.5544 196.033 70.2009 192.365 74.5836C185.566 82.7309 178.277 90.4555 170.536 97.7141C159.248 108.157 146.996 117.506 133.943 125.636C129.296 128.461 125.552 130.435 122.973 131.678C121.688 132.308 120.693 132.742 120.012 133.031C119.331 133.32 118.982 133.439 118.982 133.439L119.995 132.988C120.667 132.691 121.697 132.24 122.939 131.601C125.492 130.325 129.228 128.333 133.849 125.483C138.47 122.632 144.002 118.921 150.172 114.275C151.704 113.109 153.303 111.917 154.912 110.615C156.52 109.313 158.197 108.062 159.865 106.607C163.269 103.85 166.732 100.786 170.298 97.4843C178.015 90.221 185.282 82.4937 192.058 74.3453C195.718 69.9626 199.369 65.3161 202.96 60.4058C203.401 59.772 203.879 59.164 204.39 58.5846C204.655 58.2833 204.939 57.9991 205.241 57.7336L205.692 57.3591L206.177 57.0187C207.498 56.1239 209.022 55.574 210.61 55.4188C212.223 55.2617 213.848 55.5287 215.325 56.1933C215.691 56.355 216.048 56.5677 216.397 56.7634C216.746 56.9592 217.087 57.2145 217.393 57.4783C218.014 57.9804 218.636 58.4995 219.214 59.0612C221.558 61.3436 223.649 63.8715 225.452 66.6011C227.297 69.3756 229.002 72.2415 230.558 75.1878C233.735 81.2682 236.576 87.5183 239.068 93.91C241.621 100.412 244.047 107.126 246.293 114.002C248.54 120.879 250.651 127.899 252.412 135.116C254.457 143.024 255.824 151.093 256.497 159.234C256.816 163.221 256.691 167.231 256.123 171.19C255.827 173.151 255.278 175.065 254.489 176.884C254.065 177.782 253.533 178.625 252.906 179.394C252.262 180.173 251.417 180.762 250.463 181.096C249.976 181.26 249.459 181.315 248.949 181.258C248.463 181.173 247.978 181.105 247.51 181.011C246.566 180.824 245.621 180.637 244.693 180.424L239.119 179.198C235.522 178.398 231.908 177.627 228.277 176.884C221.052 175.428 213.972 174.16 207.062 173.284C200.381 172.357 193.632 172.021 186.893 172.28C180.64 172.656 174.412 173.377 168.239 174.441C156.393 176.424 145.712 178.892 136.368 181.343H136.241V181.224L123.586 145.941L120.233 136.58L119.382 134.163C119.144 133.635 119.059 133.363 119.059 133.363Z" fill="#263238"/>
<g opacity="0.3">
<path d="M241.043 112.955C251.697 144.893 254.88 172.772 248.14 175.223C241.4 177.674 227.299 153.778 216.653 121.839C206.006 89.9007 202.815 62.0301 209.555 59.5707C216.295 57.1113 230.379 80.9821 241.043 112.955Z" fill="black"/>
</g>
<path d="M211.019 103.041C211.019 103.041 227.052 94.5738 233.63 117.058C240.209 139.541 223.895 141.55 223.895 141.55C217.896 129.349 213.566 116.397 211.019 103.041Z" fill="white"/>
<path d="M102.864 157.958L109.46 180.936C109.871 182.371 110.768 183.618 111.997 184.464C113.227 185.31 114.713 185.703 116.2 185.574C117.233 185.484 118.273 185.647 119.231 186.047C120.188 186.447 121.034 187.073 121.697 187.872L159.525 233.332C160.142 234.075 160.918 234.669 161.796 235.07C162.674 235.472 163.631 235.67 164.597 235.652C165.562 235.633 166.511 235.397 167.373 234.962C168.234 234.526 168.987 233.903 169.575 233.137L181.208 217.997C181.728 217.321 182.108 216.548 182.326 215.723C182.544 214.898 182.596 214.038 182.479 213.193C182.362 212.349 182.078 211.535 181.644 210.801C181.209 210.067 180.633 209.426 179.949 208.917C171.439 202.543 155.269 189.539 152.572 180.408C150.87 174.587 151.082 171.745 151.797 170.358C152.291 169.48 152.582 168.504 152.648 167.499C152.714 166.495 152.554 165.488 152.18 164.554L146.342 150.938C145.81 149.693 144.897 148.649 143.736 147.953C142.575 147.258 141.223 146.947 139.875 147.066L108.489 149.772C107.543 149.853 106.626 150.142 105.805 150.62C104.984 151.098 104.279 151.752 103.741 152.535C103.203 153.318 102.845 154.21 102.694 155.148C102.542 156.086 102.6 157.046 102.864 157.958Z" fill="#2AB6C5"/>
<path opacity="0.3" d="M121.816 188.041L128.837 196.483L154.078 183.863C154.078 183.863 152.129 179.897 152.291 178.697L121.816 188.041Z" fill="black"/>
<path d="M89.5885 163.395L94.4562 175.973L97.8603 182.432C102.481 191.299 112.574 195.01 120.838 190.865L164.239 174.526C151.253 158.357 144.266 139.277 141.16 118.359L97.2135 137.082C88.8906 141.847 84.6356 151.855 89.5885 163.395Z" fill="#2AB6C5"/>
<path d="M137.143 138.239C137.271 138.545 129.28 142.323 119.272 146.681C109.264 151.038 101.077 154.34 100.95 154.008C100.822 153.676 108.804 149.923 118.821 145.574C128.837 141.226 137.007 137.932 137.143 138.239Z" fill="#263238"/>
<path d="M139.858 144.808C139.985 145.115 131.994 148.893 121.986 153.25C111.978 157.607 103.792 160.909 103.664 160.577C103.536 160.246 111.519 156.493 121.535 152.144C131.552 147.795 139.721 144.459 139.858 144.808Z" fill="#263238"/>
<path d="M142.572 151.293C142.7 151.6 134.709 155.378 124.701 159.735C114.693 164.092 106.507 167.394 106.379 167.062C106.251 166.731 114.234 162.986 124.25 158.629C134.267 154.272 142.445 150.987 142.572 151.293Z" fill="#263238"/>
<path d="M145.287 157.821C145.415 158.127 137.424 161.905 127.416 166.263C117.408 170.62 109.221 173.922 109.094 173.59C108.966 173.258 116.948 169.513 126.965 165.156C136.981 160.799 145.159 157.514 145.287 157.821Z" fill="#263238"/>
<path d="M164.179 174.527C164.031 174.62 163.875 174.697 163.711 174.757L162.333 175.327L157.226 177.344C152.929 179.046 147.014 181.361 140.419 183.871C133.824 186.382 127.858 188.569 123.492 190.075C121.314 190.824 119.544 191.42 118.31 191.777L116.897 192.22C116.73 192.276 116.56 192.318 116.386 192.347C116.538 192.26 116.697 192.189 116.863 192.135L118.259 191.616C119.518 191.148 121.263 190.518 123.365 189.743C127.696 188.161 133.662 185.939 140.24 183.42L157.133 177.046L162.239 175.166L163.643 174.672C163.818 174.61 163.997 174.562 164.179 174.527Z" fill="#263238"/>
<path d="M240.353 171.282C240.298 171.215 240.247 171.144 240.2 171.07L239.775 170.423L238.175 167.929C236.813 165.751 234.881 162.559 232.626 158.568C226.767 148.096 221.759 137.171 217.648 125.898C215.257 119.294 213.317 112.877 211.802 106.971C211.411 105.508 211.07 104.061 210.747 102.657C210.423 101.253 210.117 99.8826 209.811 98.5635C209.223 95.9254 208.662 93.4574 208.185 91.2193C207.224 86.7174 206.628 83.0325 206.339 80.471C206.185 79.1945 206.1 78.1988 206.049 77.518C206.049 77.2031 206.049 76.9478 206.007 76.7521C205.995 76.6645 205.995 76.5758 206.007 76.4883C206.028 76.572 206.042 76.6574 206.049 76.7436L206.143 77.5095C206.219 78.1818 206.33 79.2115 206.509 80.4455C206.849 82.9985 207.496 86.6664 208.492 91.1512C209.002 93.3979 209.564 95.8488 210.194 98.4869C210.509 99.7975 210.823 101.159 211.155 102.563C211.487 103.967 211.828 105.406 212.228 106.869C213.751 112.758 215.7 119.149 218.091 125.745C222.174 137 227.116 147.925 232.873 158.424C235.086 162.457 236.975 165.666 238.294 167.87C238.941 168.959 239.451 169.81 239.817 170.423L240.2 171.087C240.26 171.145 240.311 171.211 240.353 171.282Z" fill="#263238"/>
<path d="M149.789 71.4088C143.921 71.4088 138.293 69.0776 134.143 64.9282C129.994 60.7787 127.663 55.1508 127.663 49.2825C127.663 43.4143 129.994 37.7864 134.143 33.6369C138.293 29.4874 143.921 27.1563 149.789 27.1562C155.657 27.1562 161.285 29.4874 165.435 33.6369C169.584 37.7864 171.915 43.4143 171.915 49.2825C171.915 55.1508 169.584 60.7787 165.435 64.9282C161.285 69.0776 155.657 71.4088 149.789 71.4088Z" fill="#455A64"/>
<path d="M149.789 39.3609C153.031 39.3609 153.414 39.3609 154.691 39.429C155.458 39.4383 156.218 39.5793 156.938 39.846C157.46 40.0496 157.934 40.3587 158.331 40.7541C158.727 41.1495 159.038 41.6226 159.244 42.1437C159.517 42.8623 159.667 43.6219 159.686 44.3904C159.746 45.6669 159.754 46.0499 159.754 49.2922C159.754 52.5346 159.754 52.909 159.686 54.1855C159.676 54.9554 159.535 55.718 159.269 56.4407C159.072 56.9673 158.761 57.4438 158.359 57.8364C157.967 58.2383 157.49 58.5466 156.963 58.7384C156.245 59.0093 155.484 59.1505 154.716 59.1554C153.44 59.215 153.057 59.232 149.815 59.232C146.572 59.232 146.198 59.232 144.921 59.1554C144.151 59.1503 143.388 59.0091 142.666 58.7384C142.142 58.5399 141.667 58.2324 141.271 57.8363C140.874 57.4402 140.567 56.9645 140.368 56.4407C140.098 55.7194 139.957 54.9559 139.951 54.1855C139.892 52.909 139.875 52.4835 139.875 49.2922C139.875 46.1009 139.875 45.6669 139.951 44.3904C139.958 43.6201 140.099 42.8568 140.368 42.1352C140.562 41.6116 140.871 41.1378 141.271 40.7481C141.664 40.3486 142.14 40.0407 142.666 39.846C143.389 39.5805 144.151 39.4395 144.921 39.429C146.198 39.3694 146.581 39.3609 149.815 39.3609M149.815 37.1738C146.521 37.1738 146.113 37.1738 144.819 37.2504C143.813 37.2713 142.818 37.4612 141.875 37.8121C141.069 38.1243 140.337 38.6011 139.726 39.2121C139.115 39.8232 138.638 40.555 138.326 41.3608C137.975 42.3009 137.785 43.2935 137.764 44.2968C137.705 45.5903 137.696 45.9988 137.696 49.3007C137.696 52.6026 137.696 53.0026 137.764 54.2962C137.785 55.3022 137.975 56.2976 138.326 57.2407C138.631 58.0499 139.11 58.7821 139.73 59.3852C140.336 60.0023 141.067 60.4813 141.875 60.7894C142.818 61.1403 143.813 61.3301 144.819 61.351C146.113 61.4106 146.521 61.4191 149.815 61.4191C153.108 61.4191 153.525 61.4191 154.819 61.351C155.822 61.3302 156.814 61.1403 157.755 60.7894C158.565 60.4814 159.299 60.0025 159.908 59.3852C160.525 58.7818 161.002 58.0495 161.303 57.2407C161.654 56.2976 161.844 55.3022 161.865 54.2962C161.925 53.0026 161.942 52.5941 161.942 49.3007C161.942 46.0073 161.942 45.5903 161.865 44.2968C161.844 43.2935 161.654 42.3009 161.303 41.3608C160.995 40.5529 160.519 39.8191 159.908 39.2076C159.296 38.5961 158.563 38.1205 157.755 37.8121C156.814 37.4612 155.822 37.2713 154.819 37.2504C153.525 37.1909 153.117 37.1738 149.815 37.1738Z" fill="white"/>
<path d="M149.789 43.0684C148.557 43.0684 147.353 43.4337 146.328 44.1182C145.304 44.8027 144.505 45.7756 144.034 46.9139C143.562 48.0522 143.439 49.3047 143.679 50.5131C143.92 51.7214 144.513 52.8314 145.384 53.7026C146.255 54.5738 147.365 55.1671 148.574 55.4075C149.782 55.6478 151.035 55.5245 152.173 55.053C153.311 54.5815 154.284 53.7831 154.969 52.7586C155.653 51.7342 156.018 50.5298 156.018 49.2978C156.019 48.4794 155.859 47.6688 155.546 46.9126C155.234 46.1563 154.775 45.4691 154.196 44.8904C153.618 44.3117 152.93 43.8529 152.174 43.5403C151.418 43.2276 150.607 43.0672 149.789 43.0684ZM149.789 53.3401C148.989 53.3401 148.208 53.103 147.543 52.6588C146.878 52.2146 146.36 51.5833 146.054 50.8447C145.748 50.1061 145.668 49.2933 145.824 48.5092C145.98 47.725 146.365 47.0047 146.931 46.4394C147.496 45.8741 148.216 45.4891 149 45.3331C149.784 45.1772 150.597 45.2572 151.336 45.5632C152.075 45.8691 152.706 46.3872 153.15 47.052C153.594 47.7167 153.831 48.4983 153.831 49.2978C153.831 50.3698 153.405 51.398 152.647 52.1561C151.889 52.9142 150.861 53.3401 149.789 53.3401Z" fill="white"/>
<path d="M157.72 42.8225C157.72 43.1111 157.634 43.3931 157.474 43.6327C157.313 43.8724 157.085 44.0589 156.818 44.1685C156.551 44.2781 156.258 44.306 155.975 44.2484C155.692 44.1909 155.433 44.0506 155.23 43.8453C155.027 43.6401 154.89 43.3792 154.836 43.0958C154.782 42.8124 154.813 42.5193 154.926 42.2537C155.038 41.9881 155.227 41.7621 155.469 41.6042C155.711 41.4464 155.994 41.3639 156.282 41.3673C156.668 41.3673 157.038 41.5206 157.311 41.7935C157.584 42.0664 157.737 42.4366 157.737 42.8225" fill="white"/>
<path opacity="0.1" d="M227.767 225.468L222.432 213.919C222.217 213.439 222.131 212.911 222.183 212.387C222.234 211.864 222.421 211.363 222.725 210.933C223.029 210.504 223.44 210.161 223.917 209.939C224.393 209.716 224.92 209.622 225.444 209.664L238.124 210.813L250.745 211.928C251.273 211.978 251.779 212.165 252.212 212.472C252.644 212.778 252.989 213.193 253.212 213.675C253.434 214.156 253.526 214.688 253.478 215.216C253.431 215.744 253.245 216.251 252.94 216.685L245.639 227.085L238.303 237.492C237.996 237.925 237.581 238.269 237.099 238.49C236.617 238.712 236.086 238.803 235.557 238.755C235.029 238.707 234.523 238.521 234.09 238.215C233.656 237.91 233.31 237.497 233.086 237.016L227.767 225.468Z" fill="black"/>
<path d="M221.07 218.847L215.734 207.299C215.519 206.818 215.433 206.289 215.485 205.765C215.537 205.24 215.725 204.739 216.03 204.309C216.335 203.879 216.747 203.537 217.225 203.315C217.703 203.093 218.23 203 218.755 203.044L231.427 204.193L244.098 205.231C244.626 205.281 245.132 205.468 245.565 205.775C245.998 206.081 246.343 206.496 246.565 206.978C246.788 207.459 246.879 207.991 246.832 208.519C246.784 209.048 246.599 209.554 246.294 209.988L238.967 220.388L231.631 230.795C231.324 231.228 230.909 231.572 230.427 231.793C229.945 232.015 229.414 232.106 228.886 232.058C228.358 232.01 227.851 231.824 227.418 231.518C226.984 231.213 226.638 230.8 226.414 230.319L221.07 218.847Z" fill="#455A64"/>
<path d="M63.5591 170.973L13.8959 158.258C12.4161 157.879 10.9094 158.772 10.5306 160.252L1.62588 195.034C1.24704 196.514 2.13953 198.02 3.6193 198.399L53.2825 211.114C54.7623 211.493 56.269 210.6 56.6478 209.12L65.5525 174.338C65.9314 172.858 65.0389 171.351 63.5591 170.973Z" fill="#2AB6C5"/>
<path d="M62.6713 175.555C62.4871 175.671 62.2935 175.77 62.0926 175.853L60.3906 176.645L54.0846 179.47L44.7235 183.615L39.1834 186.048L36.1793 187.359C35.1169 187.819 33.9338 187.92 32.8086 187.648C31.6834 187.377 30.6771 186.746 29.9414 185.853L27.9841 183.3C26.7161 181.598 25.4821 180.023 24.3077 178.491L18.1039 170.339L13.9509 164.816L12.8361 163.301C12.6895 163.108 12.564 162.9 12.4617 162.68C12.6193 162.832 12.7644 162.997 12.8957 163.173C13.185 163.539 13.5765 164.024 14.0701 164.637L18.3251 170.083L24.6056 178.185L28.3075 182.985C28.9457 183.836 29.601 184.687 30.2563 185.538C30.9324 186.357 31.8546 186.936 32.8859 187.189C35.039 187.802 36.9708 186.338 38.9111 185.648L44.4682 183.24L53.8889 179.189L60.2544 176.483L61.9564 175.777C62.1845 175.673 62.4247 175.599 62.6713 175.555Z" fill="#263238"/>
<path d="M26.997 181.634C27.0565 181.745 22.4185 184.451 16.6402 187.685C10.8618 190.918 6.12166 193.454 6.06209 193.318C6.00252 193.182 10.6405 190.501 16.4274 187.268C22.2143 184.034 26.9289 181.532 26.997 181.634Z" fill="#263238"/>
<path d="M40.6132 185.12C40.7238 185.06 43.43 189.698 46.6639 195.477C49.8977 201.255 52.4592 205.995 52.3316 206.08C52.2039 206.165 49.5147 201.502 46.2809 195.723C43.0471 189.945 40.5451 185.179 40.6132 185.12Z" fill="#263238"/>
<path d="M354.381 203.119L386.634 155.062L327.276 156.739L336.62 172.525L334.067 183.759L344.619 186.678L354.381 203.119Z" fill="white"/>
<path opacity="0.3" d="M336.62 172.525L386.634 155.062L344.62 186.678L334.067 183.759L336.62 172.525Z" fill="black"/>
<path d="M334.067 183.758C334.007 183.656 345.726 177.137 360.244 169.214C374.762 161.291 386.574 154.951 386.625 155.062C386.676 155.173 374.966 161.683 360.448 169.606C345.93 177.529 334.143 183.869 334.067 183.758Z" fill="#263238"/>
<path d="M344.619 186.676C344.677 186.609 344.743 186.549 344.815 186.497L345.436 186.004L347.836 184.14L356.729 177.332L386.174 155.018L386.378 155.41L386.2 155.469L351.164 167.613L340.534 171.247L337.633 172.217L336.875 172.455C336.79 172.488 336.701 172.511 336.611 172.524L336.858 172.413L337.607 172.132L340.475 171.085L351.061 167.324L386.055 155.018L386.234 154.959C386.283 154.944 386.335 154.947 386.383 154.966C386.43 154.986 386.469 155.021 386.493 155.066C386.517 155.112 386.525 155.164 386.515 155.214C386.505 155.264 386.478 155.309 386.438 155.342L356.916 177.553L347.938 184.242L345.487 186.038L344.841 186.497C344.774 186.565 344.7 186.625 344.619 186.676Z" fill="#263238"/>
<path d="M354.38 203.116L354.21 202.853L353.717 202.044L351.785 198.853C350.083 196.019 347.606 191.917 344.5 186.743L344.577 186.811L334.024 183.918L333.871 183.875V183.722C334.645 180.318 335.496 176.497 336.424 172.48V172.616C333.565 167.799 330.399 162.472 327.063 156.838L326.884 156.532H327.233L355.887 155.681L386.6 154.83H387L386.778 155.17L363.427 189.747L356.729 199.619C355.963 200.751 355.368 201.619 354.959 202.231L354.5 202.895L354.346 203.108C354.392 203.022 354.443 202.94 354.5 202.861L354.959 202.163C355.368 201.534 355.963 200.64 356.729 199.483C358.278 197.142 360.533 193.755 363.367 189.492C369.052 180.982 377.06 168.974 386.429 154.932L386.608 155.256L355.895 156.107L327.25 156.898L327.42 156.583L336.782 172.386V172.446V172.523C335.854 176.531 334.986 180.318 334.229 183.756L334.109 183.56L344.653 186.505H344.704V186.556L351.802 198.657C352.653 200.07 353.257 201.159 353.691 201.916C353.904 202.274 354.066 202.555 354.185 202.767L354.38 203.116Z" fill="#263238"/>
<path d="M73.8534 137.515L24.3672 63.8086L115.417 66.3701L101.086 90.5899L105 107.831L88.8227 112.308L73.8534 137.515Z" fill="white"/>
<path opacity="0.3" d="M101.086 90.5899L24.3672 63.8086L88.8227 112.308L105 107.831L101.086 90.5899Z" fill="black"/>
<path d="M105 107.83C104.941 107.932 86.8483 98.1624 64.5858 86.01C42.3234 73.8575 24.3075 63.8837 24.3671 63.8071C24.4267 63.7305 42.5277 73.4661 64.7986 85.6185C87.0695 97.7709 105.06 107.719 105 107.83Z" fill="#263238"/>
<path d="M88.823 112.299C88.823 112.299 88.7038 112.231 88.4826 112.069L87.4954 111.354L83.7509 108.58L70.0071 98.2912L24.7419 64.1912C24.7213 64.1714 24.7049 64.1476 24.6937 64.1213C24.6825 64.095 24.6768 64.0667 24.6768 64.0381C24.6768 64.0095 24.6825 63.9812 24.6937 63.9548C24.7049 63.9285 24.7213 63.9047 24.7419 63.8849C24.7698 63.8479 24.8086 63.8206 24.8529 63.8068C24.8972 63.7931 24.9447 63.7936 24.9887 63.8083L25.261 63.9019L78.9002 82.6837L95.146 88.4195L99.5542 90.0024L100.703 90.4279C100.958 90.5215 101.086 90.5811 101.086 90.5811C100.951 90.5517 100.817 90.5148 100.686 90.4704L99.5287 90.0875L95.0949 88.5812L78.8406 82.9901L25.0738 64.3189L24.8014 64.2253L25.0057 63.8423L70.1943 98.0444L83.8105 108.444L87.5124 111.286C87.9124 111.61 88.2358 111.856 88.4655 112.035L88.823 112.299Z" fill="#263238"/>
<path d="M73.845 137.514L74.1089 137.063L74.8577 135.769L77.7767 130.799L88.7037 112.23V112.188H88.7633L104.932 107.686L104.813 107.881L100.882 90.6485V90.5804V90.5123C105.256 83.117 110.09 74.9303 115.196 66.2841L115.374 66.5989L71.4282 65.3735L24.3758 64.0119L24.5545 63.6885L59.9906 116.723C64.3478 123.259 67.8114 128.442 70.2027 132.042L72.9174 136.135C73.2238 136.595 73.4536 136.943 73.6153 137.199C73.777 137.454 73.8536 137.565 73.8536 137.565L73.6238 137.233C73.4536 136.995 73.2238 136.646 72.9174 136.203C72.2962 135.275 71.3771 133.931 70.1942 132.178L59.9821 117.004L24.1971 63.9608L23.9758 63.6289H24.3758L71.4792 64.948L115.434 66.1649H115.791L115.604 66.4713L101.256 90.6825V90.5379C102.643 96.6992 103.962 102.512 105.145 107.779V107.933H105.001L88.8313 112.383L88.9164 112.324L77.8193 130.935L74.8663 135.846C74.5344 136.39 74.2791 136.807 74.1089 137.105C73.9387 137.403 73.845 137.514 73.845 137.514Z" fill="#263238"/>
<path d="M49.1483 236.248L7.29565 292.117L78.8912 293.81L68.628 274.203L72.4065 260.834L59.8796 256.664L49.1483 236.248Z" fill="white"/>
<path opacity="0.3" d="M68.628 274.201L7.29565 292.115L59.8796 256.662L72.4065 260.832L68.628 274.201Z" fill="black"/>
<path d="M72.4066 260.833C72.4577 260.944 57.9395 268.033 39.9491 276.671C21.9587 285.308 7.35541 292.227 7.29584 292.116C7.23627 292.006 21.763 284.908 39.7534 276.271C57.7437 267.633 72.3471 260.723 72.4066 260.833Z" fill="#263238"/>
<path d="M59.8797 256.656L59.6244 256.861L58.8415 257.414L55.863 259.507L44.7232 267.166L7.82342 292.152L7.6362 291.752L7.84895 291.692L50.7994 279.268L63.8284 275.54L67.3771 274.553L68.3047 274.306C68.4108 274.274 68.5188 274.248 68.6281 274.23C68.5307 274.28 68.4279 274.32 68.3218 274.349L67.4027 274.638L63.8795 275.71L50.8845 279.565L7.9766 292.118L7.75534 292.177C7.72798 292.187 7.69905 292.19 7.67031 292.188C7.64157 292.185 7.61361 292.177 7.58814 292.164C7.56267 292.15 7.54022 292.131 7.52215 292.109C7.50407 292.086 7.49076 292.061 7.48302 292.033C7.47004 291.987 7.47213 291.938 7.48899 291.894C7.50585 291.849 7.53658 291.812 7.57663 291.786L44.5105 266.868L55.7353 259.362L58.7989 257.337L59.5989 256.826C59.6878 256.762 59.7817 256.705 59.8797 256.656Z" fill="#263238"/>
<path d="M49.1486 236.248C49.1486 236.248 49.2167 236.359 49.3359 236.58C49.455 236.801 49.6422 237.159 49.8805 237.593L51.9995 241.567C53.8717 245.073 56.5865 250.171 59.999 256.596L59.9224 256.528L72.4578 260.672L72.6025 260.723V260.876C71.4536 264.961 70.1941 269.48 68.8495 274.254V274.118L79.1382 293.691L79.2999 294.006H78.951L44.3915 293.206L7.347 292.313H6.94702L7.1853 291.989L37.4387 251.805L46.1105 240.316L48.4168 237.278C48.6721 236.946 48.8678 236.682 49.0125 236.503C49.1571 236.325 49.2082 236.248 49.2082 236.248L49.004 236.537C48.8678 236.733 48.6721 236.997 48.4082 237.346L46.1105 240.452L37.4217 252.034C30.052 261.932 19.6356 275.863 7.45763 292.219L7.29594 291.887L44.3404 292.738L78.9 293.589L78.7042 293.895C75.0534 286.9 71.5898 280.279 68.4921 274.322V274.254V274.178C69.8537 269.403 71.1302 264.893 72.2961 260.817L72.3982 261.012L59.8884 256.817H59.8373V256.766L52.0336 241.746C51.123 239.992 50.4251 238.639 49.9486 237.712C49.7103 237.261 49.5401 236.912 49.4039 236.665C49.2678 236.418 49.1486 236.248 49.1486 236.248Z" fill="#263238"/>
<path d="M249.042 268.131L243.775 268.361L224.823 309.49L194.859 324.434L196.28 339.863C196.28 339.863 233.18 333.054 242.379 327.906C251.578 322.757 263.314 289.295 263.314 289.295C263.365 289.534 250.847 268.131 250.847 268.131" fill="#FFBF9D"/>
<path d="M196.603 305.729L192.756 301.695C192.017 301.219 191.151 300.979 190.272 301.006L178.102 301.372C176.969 301.485 175.875 301.849 174.901 302.438C173.926 303.027 173.095 303.825 172.468 304.776L168.043 312.307C168.043 312.307 165.065 317.465 165.49 318.716C165.657 319.236 166.009 319.677 166.48 319.954C166.951 320.232 167.507 320.327 168.043 320.222C168.043 320.222 168.46 322.605 169.26 323.09C169.713 323.321 170.209 323.457 170.717 323.49C171.225 323.522 171.734 323.449 172.213 323.277C172.427 323.727 172.769 324.105 173.195 324.364C173.622 324.623 174.114 324.751 174.613 324.732C174.827 324.716 175.038 324.676 175.243 324.613C176.689 324.17 177.345 321.379 177.345 321.379L183.514 320.23C183.514 320.23 192.374 326.187 195.497 330.042C198.62 333.898 206.807 330.953 206.807 330.953L209.87 316.316L196.603 305.729Z" fill="#FFBF9D"/>
<path d="M187.633 307.481C186.77 307.749 185.874 307.898 184.97 307.924C183.268 308.111 180.91 308.179 178.238 308.519L178.528 308.307C178.064 309.311 177.538 310.286 176.953 311.226C175.332 313.793 173.362 316.121 171.098 318.144C170.212 319.042 169.179 319.782 168.043 320.332C167.975 320.229 169.107 319.37 170.724 317.778C172.835 315.682 174.705 313.356 176.298 310.843C176.87 309.934 177.39 308.993 177.855 308.026L177.949 307.839H178.145C180.893 307.524 183.251 307.558 184.953 307.507C185.843 307.403 186.742 307.394 187.633 307.481Z" fill="#FF9A6C"/>
<path d="M187.914 313.311C187.196 313.664 186.415 313.872 185.617 313.924C183.633 314.195 181.618 314.123 179.66 313.711L180.094 313.464C179.858 314.219 179.574 314.959 179.243 315.677C178.145 317.972 176.586 320.018 174.664 321.685C173.917 322.423 173.029 323.002 172.051 323.387C171.983 323.285 172.954 322.596 174.298 321.268C176.048 319.541 177.487 317.526 178.553 315.311C178.876 314.621 179.16 313.913 179.404 313.192L179.515 312.877L179.838 312.945C184.366 313.975 187.889 313.064 187.914 313.311Z" fill="#FF9A6C"/>
<path d="M203.36 316.289L192.51 311.242C191.054 310.434 189.439 309.955 187.778 309.838C186 309.838 184.374 310.689 182.749 311.54L176.911 314.561C176.575 314.69 176.299 314.939 176.136 315.259C176.101 315.491 176.129 315.728 176.218 315.945C176.306 316.162 176.451 316.351 176.638 316.493C178.148 317.926 180.127 318.763 182.207 318.847C184.287 318.932 186.327 318.258 187.948 316.952C188.884 319.505 189.855 322.109 191.608 324.186C193.361 326.262 196.093 327.726 198.765 327.233" fill="#FFBF9D"/>
<path d="M198.765 327.2C198.765 327.2 198.671 327.251 198.475 327.294C198.196 327.358 197.911 327.392 197.624 327.396C196.486 327.406 195.364 327.134 194.356 326.604C192.791 325.79 191.466 324.581 190.51 323.098C189.326 321.197 188.369 319.163 187.659 317.039L188.204 317.184C187.332 317.913 186.325 318.463 185.239 318.802C184.154 319.141 183.013 319.262 181.881 319.158C180.652 319.07 179.453 318.734 178.357 318.171C177.796 317.871 177.271 317.508 176.792 317.09C176.536 316.875 176.302 316.636 176.094 316.375C175.958 316.213 175.861 316.023 175.808 315.818C175.755 315.613 175.748 315.4 175.787 315.192C175.831 315.014 175.911 314.846 176.023 314.7C176.134 314.553 176.274 314.431 176.434 314.341C176.689 314.188 176.911 314.086 177.141 313.967L178.494 313.26L181.14 311.899C182.788 310.933 184.545 310.168 186.374 309.618C188.13 309.298 189.942 309.574 191.523 310.401C192.995 311.065 194.314 311.72 195.548 312.307L201.326 315.124C202.048 315.438 202.74 315.817 203.394 316.256C202.64 316.033 201.906 315.749 201.199 315.405L195.318 312.809L191.276 310.997C189.812 310.25 188.142 310.011 186.527 310.316C184.765 310.871 183.075 311.631 181.489 312.58L178.843 313.95L177.489 314.656C177.03 314.886 176.553 315.116 176.528 315.345C176.502 315.575 176.851 316.128 177.302 316.486C177.732 316.87 178.207 317.201 178.715 317.473C179.72 317.987 180.815 318.299 181.94 318.392C184.036 318.595 186.127 317.966 187.761 316.639L188.136 316.316L188.306 316.784C188.966 318.865 189.862 320.864 190.978 322.741C191.855 324.177 193.082 325.369 194.544 326.204C195.828 326.93 197.292 327.276 198.765 327.2Z" fill="#FF9A6C"/>
<path d="M348.815 178.852C349.47 170.589 351.368 162.444 351.572 154.173C351.776 145.901 350.227 137.152 344.866 130.821C339.505 124.489 329.659 121.57 322.587 125.894L320.731 132.829C321.216 164.878 318.663 197.242 319.149 229.283C319.217 233.495 322.357 237.521 324.008 241.393C325.659 245.265 329.267 248.618 333.48 248.643C338.986 248.643 342.96 243.358 345.019 238.252C352.491 219.7 347.223 198.714 348.815 178.852Z" fill="#263238"/>
<path d="M331.845 134.599C330.885 132.429 329.596 130.419 328.024 128.642C327.231 127.753 326.247 127.057 325.146 126.604C324.045 126.151 322.855 125.955 321.667 126.029C321.108 126.059 320.567 126.231 320.093 126.529C319.619 126.826 319.23 127.24 318.961 127.731C318.527 128.752 319.216 130.216 320.331 130.199L320.552 130.42C322.884 132.775 325.258 135.084 327.675 137.347C328.246 137.957 328.932 138.449 329.692 138.794C330.074 138.964 330.496 139.022 330.91 138.964C331.324 138.905 331.713 138.731 332.032 138.462C333.02 137.484 332.441 135.841 331.845 134.599Z" fill="#2AB6C5"/>
<path d="M335.964 143.032C328.407 132.411 317.744 125.867 304.749 124.769C297.422 124.148 294.282 125.467 288.904 126.531C283.525 127.594 278.564 130.113 275.109 134.368C270.998 139.475 267.45 145.168 266.301 151.584C265.201 157.714 265.129 163.983 266.088 170.136C267.186 176.74 270.973 186.978 274.521 192.646L285.695 194.782C295.056 195.735 304.494 196.688 313.779 195.173C323.063 193.658 332.228 189.352 337.658 181.693C345.206 171.056 343.504 153.661 335.964 143.032Z" fill="#263238"/>
<path d="M320.893 141.901L298.92 131.391L292.963 131.68C279.679 130.829 269.535 144.845 268.718 155.593C267.807 167.508 267.169 182.145 268.471 191.08C271.084 209.045 286.095 211.505 286.095 211.505C286.095 211.505 285.151 220.925 284.632 226.823L319.378 226.678L326.442 148.3C326.476 146.735 325.927 145.213 324.902 144.03C323.876 142.847 322.447 142.088 320.893 141.901Z" fill="#FFBF9D"/>
<path d="M295.32 188.733C295.245 187.816 294.836 186.959 294.171 186.324C293.567 185.729 292.784 185.349 291.943 185.243C291.102 185.137 290.249 185.311 289.516 185.737C288.751 186.25 288.136 186.957 287.734 187.785C287.332 188.613 287.157 189.534 287.227 190.452C287.579 191.022 288.049 191.511 288.606 191.885C289.162 192.259 289.791 192.51 290.452 192.622C290.661 192.657 290.871 192.68 291.082 192.69C292.138 192.751 293.178 192.418 294.001 191.754C294.436 191.383 294.781 190.919 295.009 190.395C295.238 189.872 295.344 189.303 295.32 188.733Z" fill="#FF9A6C"/>
<path d="M272.462 171.916C272.45 172.515 272.672 173.095 273.08 173.533C273.488 173.971 274.051 174.234 274.649 174.264C274.942 174.291 275.236 174.259 275.516 174.171C275.796 174.082 276.055 173.938 276.279 173.748C276.502 173.558 276.686 173.325 276.818 173.063C276.95 172.801 277.029 172.515 277.049 172.222C277.063 171.623 276.842 171.041 276.434 170.603C276.025 170.164 275.461 169.902 274.862 169.873C274.569 169.845 274.274 169.876 273.994 169.965C273.714 170.053 273.454 170.196 273.23 170.387C273.006 170.577 272.823 170.811 272.691 171.073C272.559 171.336 272.481 171.622 272.462 171.916Z" fill="#263238"/>
<path d="M272.368 161.831C272.649 162.129 274.402 160.87 276.879 160.904C279.355 160.938 281.134 162.206 281.423 161.899C281.559 161.772 281.27 161.227 280.487 160.64C279.425 159.884 278.156 159.474 276.853 159.465C275.568 159.447 274.311 159.837 273.262 160.58C272.488 161.159 272.224 161.704 272.368 161.831Z" fill="#263238"/>
<path d="M286.895 182.257C286.895 182.112 285.372 181.831 282.887 181.474C282.257 181.406 281.661 181.27 281.559 180.836C281.512 180.184 281.667 179.533 282.002 178.972C282.614 177.449 283.261 175.857 283.933 174.181C286.614 167.373 288.571 161.756 288.291 161.654C288.01 161.552 285.618 166.99 282.938 173.806L281.083 178.623C280.675 179.38 280.548 180.258 280.725 181.099C280.815 181.322 280.953 181.521 281.13 181.683C281.307 181.845 281.517 181.965 281.746 182.035C282.096 182.132 282.456 182.186 282.819 182.197C285.329 182.359 286.887 182.384 286.895 182.257Z" fill="#263238"/>
<path d="M286.078 211.523C294.518 211.757 302.857 209.648 310.17 205.43C310.17 205.43 303.618 217.769 285.695 215.863L286.078 211.523Z" fill="#FF9A6C"/>
<path d="M294.146 184.051C293.746 184.051 293.704 186.706 291.38 188.587C289.057 190.468 286.198 190.127 286.172 190.502C286.172 190.672 286.81 191.029 288.01 191.08C289.585 191.128 291.126 190.615 292.359 189.634C293.538 188.69 294.307 187.327 294.504 185.83C294.631 184.706 294.342 184.034 294.146 184.051Z" fill="#263238"/>
<path d="M273.79 153.26C274.198 153.873 276.096 153.49 278.309 153.703C280.521 153.916 282.351 154.554 282.845 153.984C283.057 153.72 282.845 153.133 282.07 152.512C281.031 151.737 279.789 151.282 278.496 151.201C277.212 151.072 275.919 151.323 274.777 151.924C273.934 152.418 273.611 152.963 273.79 153.26Z" fill="#263238"/>
<path d="M297.711 172.579C297.687 173.178 297.43 173.744 296.994 174.156C296.558 174.567 295.979 174.793 295.38 174.783C295.087 174.791 294.795 174.741 294.522 174.635C294.249 174.528 293.999 174.369 293.789 174.165C293.578 173.961 293.41 173.718 293.294 173.448C293.179 173.179 293.118 172.889 293.116 172.596C293.14 171.997 293.397 171.43 293.833 171.017C294.268 170.604 294.848 170.376 295.448 170.384C295.741 170.376 296.034 170.427 296.308 170.533C296.581 170.64 296.831 170.8 297.042 171.005C297.253 171.209 297.421 171.454 297.536 171.724C297.651 171.995 297.71 172.285 297.711 172.579Z" fill="#263238"/>
<path d="M305.787 163.152C305.49 163.433 303.813 162.062 301.345 161.943C298.877 161.824 296.996 162.964 296.741 162.65C296.622 162.513 296.937 161.986 297.754 161.45C298.861 160.762 300.155 160.434 301.456 160.514C302.741 160.573 303.974 161.038 304.979 161.841C305.702 162.471 305.941 163.024 305.787 163.152Z" fill="#263238"/>
<path d="M304.843 155.151C304.332 155.687 302.452 155.007 300.162 154.862C297.873 154.717 295.907 155.024 295.49 154.419C295.312 154.122 295.644 153.568 296.52 153.092C297.71 152.487 299.047 152.233 300.375 152.36C301.702 152.439 302.978 152.897 304.052 153.679C304.834 154.292 305.073 154.887 304.843 155.151Z" fill="#263238"/>
<path d="M321.378 178.181C321.378 176.845 322.987 173.722 324.306 173.526C327.837 173.024 334.177 173.39 334.126 182.334C334.041 194.554 321.787 191.959 321.77 191.61C321.753 191.261 321.276 182.793 321.378 178.181Z" fill="#FFBF9D"/>
<path d="M325.131 187.157C325.191 187.157 325.344 187.31 325.701 187.48C326.21 187.697 326.782 187.712 327.301 187.523C328.595 187.055 329.692 185.013 329.769 182.808C329.801 181.76 329.603 180.717 329.19 179.753C329.077 179.371 328.873 179.023 328.596 178.737C328.319 178.451 327.977 178.236 327.599 178.111C327.354 178.044 327.094 178.066 326.864 178.172C326.634 178.277 326.448 178.461 326.339 178.69C326.169 179.03 326.246 179.277 326.178 179.294C326.11 179.311 325.922 179.089 326.025 178.579C326.094 178.278 326.265 178.01 326.51 177.821C326.676 177.696 326.865 177.604 327.066 177.551C327.268 177.499 327.478 177.486 327.684 177.515C328.185 177.617 328.652 177.846 329.039 178.179C329.427 178.513 329.722 178.941 329.897 179.421C330.413 180.48 330.662 181.649 330.62 182.825C330.526 185.293 329.25 187.591 327.48 188.085C327.151 188.179 326.805 188.198 326.468 188.141C326.13 188.083 325.81 187.951 325.531 187.753C325.157 187.455 325.088 187.183 325.131 187.157Z" fill="#FF9A6C"/>
<path d="M324.782 173.593L321.472 176.597C308.987 162.904 285.057 129.119 286.385 131.128C286.385 131.128 295.788 127.987 305.6 130.353C315.413 132.719 333.922 138.965 332.833 150.658C331.743 162.351 324.782 173.593 324.782 173.593Z" fill="#263238"/>
<path d="M342.653 172.112C342.64 171.866 342.594 171.623 342.517 171.389C342.341 170.712 342.108 170.052 341.819 169.415C340.713 167.075 339.11 165.004 337.122 163.347C334.162 160.921 330.809 159.018 327.208 157.722C323.225 156.122 318.697 154.777 314.332 152.539C310.195 150.479 306.314 147.943 302.767 144.982C299.869 142.563 297.194 139.889 294.776 136.991C293.156 135.025 291.65 132.968 290.265 130.83L289.159 129.068C289.041 128.854 288.898 128.654 288.733 128.473C288.816 128.701 288.921 128.921 289.048 129.128C289.27 129.553 289.593 130.175 290.052 130.958C291.368 133.157 292.832 135.264 294.435 137.264C296.821 140.231 299.486 142.964 302.392 145.425C305.961 148.431 309.875 151.002 314.051 153.084C318.485 155.348 323.038 156.684 327.003 158.241C330.559 159.488 333.881 161.32 336.833 163.662C338.807 165.258 340.43 167.246 341.598 169.5C342.373 171.134 342.577 172.129 342.653 172.112Z" fill="#455A64"/>
<path d="M338.969 173.788C339.061 172.877 338.96 171.958 338.671 171.09C337.914 168.703 336.459 166.598 334.492 165.048C332.075 162.98 328.535 161.559 324.603 160.376C320.318 159.216 316.174 157.586 312.247 155.516C308.348 153.401 304.727 150.811 301.465 147.806C298.804 145.346 296.392 142.63 294.265 139.696C292.838 137.711 291.536 135.639 290.367 133.492L289.448 131.714C289.352 131.5 289.232 131.297 289.091 131.109C289.148 131.339 289.231 131.562 289.338 131.773L290.146 133.603C291.24 135.81 292.498 137.932 293.908 139.951C298.585 146.652 304.763 152.169 311.949 156.061C315.911 158.156 320.099 159.789 324.433 160.929C328.356 162.078 331.837 163.422 334.211 165.388C336.161 166.86 337.639 168.868 338.466 171.166C338.713 172.023 338.882 172.9 338.969 173.788Z" fill="#455A64"/>
<path d="M322.97 194.169C322.97 194.084 324.016 194.024 325.846 193.676C328.426 193.108 330.843 191.965 332.918 190.331C335.955 187.849 338.352 184.674 339.905 181.072C341.878 176.69 343.095 172.006 343.505 167.218C343.978 162.43 343.397 157.596 341.803 153.057C340.502 149.365 338.599 145.914 336.169 142.845C331.973 137.585 328.331 135.33 328.51 135.186C328.747 135.282 328.968 135.414 329.165 135.577C329.565 135.875 330.195 136.266 330.927 136.871C333.028 138.54 334.945 140.429 336.645 142.504C339.191 145.596 341.185 149.102 342.543 152.87C344.196 157.502 344.794 162.444 344.296 167.337C343.879 172.205 342.62 176.965 340.577 181.404C338.95 185.073 336.449 188.287 333.292 190.765C331.13 192.406 328.606 193.503 325.931 193.965C325.211 194.084 324.483 194.149 323.753 194.161C323.494 194.204 323.23 194.207 322.97 194.169Z" fill="#455A64"/>
<path d="M284.912 222.688L319.404 218.961L325.718 224.705L301.099 239.181L290.231 244.806L279.509 241.547L276.104 235.156L284.912 222.688Z" fill="#FFBF9D"/>
<path d="M238.43 264.676C238.43 264.676 249.238 243.929 251.918 239.401C256.48 231.674 264.99 227.292 264.99 227.292L284.912 222.688C284.912 222.688 282.853 232.67 295.252 233.359C311.021 234.21 320.782 219.113 320.782 219.113C320.782 219.113 338.773 220.96 343.759 223.053C348.746 225.147 362.78 231.019 364.848 249.707L369.656 280.216L331.641 283.109L332.169 323.728L350.891 355.726H259.144C260.573 356.117 265.628 334.749 262.318 317.856L256.054 302.657C253.504 296.576 251.997 290.108 251.595 283.526C251.357 279.203 251.467 275.927 251.467 275.927C251.467 275.927 241.749 272.608 238.43 264.676Z" fill="#2AB6C5"/>
<path d="M268.377 337.99L332.109 318.859L331.658 283.116L364.116 280.648C364.116 280.648 361.563 299.183 361.146 308.681C360.601 322.348 354.031 341.453 349.631 345.504C345.232 349.555 266.692 353.972 266.692 353.972L268.377 337.99Z" fill="#FFBF9D"/>
<path d="M232.235 349.255C232.488 349.692 232.867 350.042 233.323 350.259C233.779 350.476 234.289 350.551 234.788 350.472C235.001 350.438 235.209 350.381 235.409 350.302C236.805 349.723 236.447 346.821 236.447 346.821L243.256 345.162C243.256 345.162 252.617 350.268 256.106 353.808C259.595 357.348 267.45 353.655 267.45 353.655L269.152 338.796L255.621 328.337C255.621 328.337 256.472 328.959 255.416 326.891C254.361 324.823 250.464 325.938 250.464 325.938C249.766 324.925 247.145 324.746 247.145 324.746L236.064 326.925C234.947 327.145 233.893 327.611 232.979 328.29C232.065 328.968 231.314 329.842 230.78 330.848L226.661 338.635C226.661 338.635 224.601 344.175 225.095 345.383C225.31 345.889 225.705 346.297 226.203 346.529C226.701 346.762 227.267 346.802 227.793 346.643C227.793 346.643 228.644 350.115 229.537 350.166C230.482 350.052 231.396 349.763 232.235 349.315V349.255Z" fill="#FFBF9D"/>
<path d="M254.999 336.911C254.999 337.03 253.51 337.005 251.153 337.294C248.083 337.68 245.082 338.488 242.234 339.694C240.668 340.356 239.157 341.141 237.715 342.043C236.439 342.894 235.085 343.634 234.737 344.647C234.656 344.866 234.634 345.102 234.673 345.332C234.711 345.561 234.81 345.777 234.958 345.957C235.173 346.249 235.469 346.47 235.809 346.596C236.129 346.673 236.46 346.696 236.787 346.664C236.787 346.664 236.473 346.996 235.732 346.868C235.297 346.771 234.903 346.539 234.609 346.204C234.401 345.979 234.255 345.704 234.185 345.406C234.115 345.107 234.123 344.796 234.209 344.502C234.451 343.823 234.889 343.23 235.468 342.8C236.047 342.358 236.643 341.907 237.324 341.473C238.775 340.515 240.31 339.692 241.911 339.013C244.818 337.774 247.908 337.016 251.059 336.766C252.372 336.611 253.701 336.66 254.999 336.911Z" fill="#FF9A6C"/>
<path d="M256.352 343.948C256.352 344.161 251.825 344.322 246.302 345.08C240.779 345.837 236.371 346.858 236.32 346.654C237.218 346.218 238.171 345.906 239.153 345.727C243.808 344.562 248.577 343.92 253.374 343.812C254.368 343.723 255.37 343.768 256.352 343.948Z" fill="#FF9A6C"/>
<path d="M232.277 348.968C232.156 348.589 232.078 348.198 232.047 347.802C231.895 346.724 231.807 345.639 231.784 344.551C231.769 343.791 231.815 343.032 231.92 342.279C232.058 341.395 232.364 340.546 232.822 339.777C233.784 338.013 235.085 336.457 236.651 335.198C238.196 333.929 239.916 332.889 241.757 332.109C243.282 331.543 244.872 331.172 246.489 331.003C247.859 330.85 248.966 330.799 249.731 330.765C250.126 330.701 250.528 330.701 250.923 330.765C249.486 331.086 248.031 331.322 246.566 331.471C245.005 331.702 243.475 332.107 242.004 332.679C240.244 333.468 238.599 334.49 237.111 335.718C235.611 336.92 234.352 338.396 233.401 340.066C232.632 341.424 232.25 342.966 232.294 344.526C232.235 347.266 232.43 348.959 232.277 348.968Z" fill="#FF9A6C"/>
<path d="M246.736 327.607C246.736 327.718 245.093 327.888 242.481 328.399C239.868 328.91 235.894 329.488 233.835 333.19C231.562 336.594 229.656 339.768 228.916 342.321C228.534 343.713 228.288 345.138 228.184 346.577C228.058 346.201 228.006 345.806 228.031 345.411C228.01 344.33 228.145 343.253 228.431 342.211C229.077 339.53 230.984 336.254 233.247 332.85C233.808 331.985 234.477 331.196 235.239 330.501C235.981 329.875 236.832 329.39 237.749 329.071C239.257 328.548 240.814 328.178 242.396 327.965C243.821 327.661 245.28 327.541 246.736 327.607Z" fill="#FF9A6C"/>
<path d="M253.442 351.606C253.193 351.483 252.959 351.331 252.744 351.155L250.744 349.836C248.279 348.204 245.722 346.715 243.085 345.377H243.247L236.439 347.079L236.651 346.772C236.717 347.338 236.717 347.909 236.651 348.475C236.61 349.094 236.385 349.686 236.005 350.177C235.772 350.416 235.477 350.587 235.154 350.67C234.844 350.774 234.518 350.817 234.192 350.798C233.515 350.74 232.883 350.437 232.413 349.947C232.292 349.829 232.181 349.701 232.082 349.564L232.013 349.462V349.411L232.43 349.53L232.218 349.64C231.934 349.777 231.65 349.904 231.367 350.023C231.066 350.142 230.759 350.244 230.448 350.33C230.282 350.371 230.115 350.402 229.945 350.423C229.727 350.461 229.502 350.434 229.299 350.347C228.976 350.137 228.716 349.843 228.55 349.496C228.393 349.199 228.256 348.892 228.141 348.577C227.906 347.95 227.707 347.311 227.546 346.662L227.971 346.909C227.513 347.048 227.026 347.059 226.562 346.941C226.098 346.822 225.676 346.579 225.341 346.236C224.996 345.87 224.791 345.394 224.763 344.892C224.758 344.439 224.806 343.988 224.908 343.547C225.286 341.811 225.79 340.105 226.414 338.441L228.601 334.288L229.997 331.65C230.421 330.746 230.94 329.891 231.545 329.097C232.2 328.327 233.005 327.699 233.911 327.25C234.792 326.84 235.73 326.567 236.694 326.442L247.059 324.459H247.136C247.77 324.51 248.397 324.624 249.008 324.799C249.67 324.934 250.268 325.284 250.71 325.795L250.319 325.701C250.865 325.401 251.477 325.237 252.101 325.224C252.724 325.21 253.342 325.348 253.901 325.625C254.876 326.232 255.582 327.188 255.876 328.297L255.782 328.161L265.101 335.318L267.654 337.301C267.959 337.518 268.244 337.763 268.505 338.033C268.175 337.857 267.861 337.652 267.569 337.42L264.973 335.556L255.51 328.578L255.442 328.535V328.442C255.181 327.484 254.575 326.656 253.74 326.118C253.266 325.894 252.745 325.786 252.221 325.804C251.697 325.821 251.185 325.964 250.727 326.221L250.489 326.348L250.327 326.135C249.96 325.759 249.489 325.501 248.974 325.395C248.404 325.236 247.82 325.133 247.229 325.089H247.315L236.958 327.131C236.056 327.245 235.178 327.498 234.354 327.88C233.536 328.3 232.809 328.878 232.218 329.582C231.644 330.342 231.153 331.16 230.754 332.024L229.367 334.663L227.171 338.816V338.773C226.557 340.392 226.059 342.053 225.682 343.743C225.597 344.135 225.551 344.534 225.546 344.934C225.569 345.275 225.711 345.597 225.946 345.845C226.194 346.093 226.504 346.269 226.845 346.354C227.185 346.44 227.542 346.431 227.878 346.33L228.218 346.245L228.295 346.577C228.446 347.197 228.633 347.808 228.856 348.406C229.013 348.948 229.306 349.44 229.707 349.836C229.8 349.858 229.896 349.858 229.988 349.836C230.129 349.821 230.268 349.796 230.405 349.76C230.695 349.686 230.979 349.592 231.256 349.479C231.546 349.377 231.83 349.261 232.107 349.13L232.311 349.028L232.728 349.147L232.779 349.232C232.858 349.342 232.946 349.444 233.043 349.538C233.411 349.911 233.9 350.14 234.422 350.185C234.679 350.206 234.937 350.171 235.179 350.083C235.406 350.041 235.616 349.935 235.783 349.777C236.301 348.894 236.488 347.857 236.311 346.849V346.594L236.541 346.534L243.349 344.934H243.434L243.502 344.977C246.144 346.357 248.688 347.915 251.119 349.64C251.97 350.253 252.608 350.747 253.025 351.096C253.177 351.255 253.316 351.426 253.442 351.606Z" fill="#FF9A6C"/>
<path d="M152.376 353.387L128.284 290.123C128.074 289.572 128.001 288.978 128.072 288.393C128.143 287.808 128.355 287.249 128.69 286.764C129.025 286.279 129.473 285.883 129.995 285.609C130.518 285.336 131.099 285.194 131.688 285.195H209.045C209.736 285.195 210.413 285.392 210.996 285.762C211.58 286.133 212.045 286.663 212.338 287.289L235.511 347.634L284.104 348.485C285.068 348.485 285.992 348.868 286.673 349.549C287.355 350.231 287.738 351.155 287.738 352.119C287.738 353.083 287.355 354.007 286.673 354.688C285.992 355.37 285.068 355.753 284.104 355.753H155.772C155.032 355.752 154.31 355.525 153.703 355.102C153.096 354.679 152.633 354.08 152.376 353.387Z" fill="#455A64"/>
<path d="M185.114 320.46C185.114 321.469 184.815 322.457 184.254 323.296C183.693 324.136 182.895 324.79 181.962 325.177C181.029 325.563 180.003 325.665 179.012 325.468C178.022 325.271 177.112 324.784 176.398 324.07C175.684 323.356 175.197 322.446 175 321.456C174.803 320.465 174.904 319.439 175.291 318.506C175.677 317.573 176.332 316.775 177.171 316.214C178.011 315.653 178.998 315.354 180.008 315.354C181.362 315.354 182.661 315.891 183.619 316.849C184.576 317.807 185.114 319.105 185.114 320.46Z" fill="white"/>
<path d="M261.339 241.758C261.45 241.826 260.42 243.758 258.965 246.974C255.177 255.368 252.692 264.29 251.595 273.432C251.17 276.939 251.05 279.126 250.923 279.117C250.833 278.609 250.81 278.091 250.855 277.577C250.855 276.581 250.914 275.143 251.059 273.373C251.863 264.113 254.382 255.083 258.488 246.745C259.28 245.153 259.961 243.894 260.488 243.043C260.718 242.581 261.004 242.15 261.339 241.758Z" fill="#263238"/>
<path d="M369.673 280.216C369.418 280.291 369.155 280.331 368.89 280.335L366.609 280.565L358.099 281.28L328.969 283.475H328.594V283.101C328.348 279.229 328.092 275.144 327.828 270.948C327.411 263.63 327.063 256.66 326.977 250.303C326.595 244.6 327.894 238.91 330.713 233.938C332.629 230.597 335.461 227.874 338.875 226.092C339.801 225.625 340.77 225.249 341.768 224.968C342.11 224.848 342.464 224.763 342.823 224.713C342.823 224.815 341.377 225.113 339.019 226.355C335.732 228.2 333.019 230.919 331.181 234.21C328.487 239.121 327.272 244.708 327.684 250.294C327.828 256.626 328.203 263.587 328.62 270.897C328.875 275.101 329.131 279.178 329.369 283.05L328.969 282.701L358.116 280.769L366.626 280.284L368.924 280.182C369.174 280.165 369.425 280.176 369.673 280.216Z" fill="#263238"/>
<path d="M298.205 305.065C297.763 304.969 297.336 304.811 296.937 304.597C296.443 304.395 295.965 304.156 295.507 303.882C294.887 303.55 294.287 303.181 293.712 302.776C292.192 301.741 290.786 300.549 289.516 299.219C286.393 295.936 284.12 291.939 282.895 287.577C282.394 285.806 282.086 283.985 281.976 282.147C281.935 281.444 281.935 280.74 281.976 280.037C281.973 279.504 282.009 278.972 282.087 278.445C282.105 277.99 282.191 277.54 282.342 277.109C282.495 277.109 282.24 279.041 282.547 282.105C282.732 283.89 283.086 285.654 283.602 287.373C284.244 289.471 285.099 291.499 286.155 293.423C287.263 295.32 288.56 297.099 290.027 298.734C291.245 300.055 292.584 301.26 294.027 302.333C296.495 304.154 298.273 304.92 298.205 305.065Z" fill="#263238"/>
</svg>
