<svg width="442" height="264" viewBox="0 0 442 264" fill="none" xmlns="http://www.w3.org/2000/svg">
<path d="M431.64 166.634C433.785 131.953 413.369 99.185 379.479 81.4651C341.061 61.3371 263.858 24.2061 226.985 29.8554C176.766 37.496 8.09525 118.29 5.91395 149.539C3.73266 180.788 75.262 262.978 201.875 263.965C328.488 264.951 414.76 220.7 426.769 189.451C429.544 182.138 431.187 174.443 431.64 166.634Z" fill="#2AB6C5"/>
<path opacity="0.7" d="M431.64 166.634C433.785 131.953 413.369 99.185 379.479 81.4651C341.061 61.3371 263.858 24.2061 226.985 29.8554C176.766 37.496 8.09525 118.29 5.91395 149.539C3.73266 180.788 75.262 262.978 201.875 263.965C328.488 264.951 414.76 220.7 426.769 189.451C429.544 182.138 431.187 174.443 431.64 166.634Z" fill="white"/>
<path d="M440.96 257.93H1" stroke="#263238" stroke-linecap="round" stroke-linejoin="round"/>
<path d="M388.86 229.542C389.926 230.007 392.537 229.946 392.537 229.946C392.537 229.946 391.973 228.236 391.924 228.108C391.348 226.882 389.534 224.922 388.058 225.124C387.813 225.163 387.579 225.254 387.371 225.389C387.164 225.525 386.988 225.704 386.854 225.913C386.72 226.121 386.632 226.356 386.596 226.602C386.559 226.847 386.575 227.097 386.642 227.336C386.899 228.384 387.947 229.143 388.86 229.542Z" fill="#263238"/>
<path d="M414.595 257.252C414.708 257.03 414.772 256.787 414.784 256.538C414.796 256.289 414.754 256.041 414.663 255.809C414.571 255.577 414.432 255.367 414.253 255.194C414.074 255.02 413.861 254.886 413.626 254.802C412.211 254.324 410.054 255.929 409.264 257.001C409.227 257.05 408.964 257.504 408.725 257.92H414.098C414.304 257.731 414.472 257.504 414.595 257.252Z" fill="#263238"/>
<path d="M406.58 250.296C407.303 250.939 409.111 251.558 409.73 251.76C409.625 252.275 409.515 252.79 409.386 253.286C409.288 253.617 409.221 253.948 409.105 254.279L408.792 255.259C408.565 255.872 408.339 256.484 408.106 257.097C407.996 257.385 407.885 257.655 407.781 257.924H408.657C408.725 257.747 408.792 257.569 408.86 257.379C409.086 256.766 409.295 256.154 409.515 255.48C409.613 255.155 409.711 254.824 409.815 254.493C409.92 254.162 409.987 253.807 410.079 253.458C410.269 252.655 410.428 251.828 410.563 251.007C411.102 251.203 413.014 251.871 414.025 251.803C415.036 251.736 416.261 251.368 416.837 250.486C416.978 250.281 417.075 250.05 417.12 249.805C417.166 249.561 417.159 249.31 417.102 249.069C417.044 248.827 416.936 248.6 416.785 248.403C416.634 248.206 416.443 248.043 416.224 247.925C414.895 247.245 412.548 248.501 411.58 249.444C411.519 249.499 410.918 250.253 410.594 250.67C410.673 250.167 410.759 249.665 410.82 249.15C411.004 247.673 411.145 246.172 411.286 244.671L411.433 243.299C411.623 243.372 413.884 244.218 415.005 244.138C415.998 244.071 417.242 243.703 417.818 242.821C417.959 242.617 418.056 242.386 418.102 242.142C418.149 241.898 418.142 241.647 418.085 241.406C418.027 241.164 417.918 240.938 417.767 240.741C417.615 240.545 417.424 240.383 417.205 240.266C415.881 239.579 413.528 240.842 412.56 241.779C412.493 241.853 411.629 242.931 411.421 243.219C411.531 242.208 411.641 241.209 411.794 240.223C411.999 238.892 412.287 237.577 412.658 236.283C412.744 236.32 415.109 237.208 416.255 237.128C417.248 237.061 418.492 236.7 419.061 235.817C419.203 235.613 419.301 235.381 419.347 235.137C419.393 234.893 419.387 234.641 419.329 234.399C419.271 234.158 419.162 233.931 419.011 233.734C418.859 233.537 418.668 233.374 418.449 233.256C417.119 232.576 414.772 233.832 413.804 234.769C413.731 234.843 412.799 235.995 412.646 236.234C412.646 236.154 412.683 236.075 412.707 236.001C413.117 234.717 413.638 233.47 414.264 232.276C414.607 231.614 414.968 230.995 415.33 230.407C415.753 230.621 417.701 231.565 418.737 231.602C419.772 231.638 421.01 231.418 421.678 230.603C421.84 230.417 421.962 230.198 422.035 229.962C422.108 229.726 422.131 229.477 422.101 229.231C422.072 228.986 421.991 228.749 421.864 228.537C421.737 228.325 421.567 228.141 421.365 227.999C420.14 227.172 417.628 228.164 416.586 228.991C416.525 229.041 416.004 229.561 415.624 229.947C415.796 229.684 415.961 229.408 416.133 229.157C416.745 228.219 417.358 227.398 417.971 226.706C418.295 226.295 418.583 225.934 418.878 225.597C419.405 225.597 421.512 225.523 422.437 225.088C423.363 224.653 424.368 223.863 424.582 222.846C424.642 222.605 424.65 222.355 424.607 222.111C424.563 221.867 424.469 221.635 424.329 221.431C424.19 221.226 424.009 221.053 423.798 220.923C423.587 220.793 423.351 220.709 423.105 220.677C421.623 220.518 419.864 222.546 419.319 223.74C419.276 223.845 418.706 225.579 418.761 225.579H418.792C418.51 225.897 418.179 226.24 417.897 226.626C417.284 227.337 416.672 228.146 416.022 229.077C415.314 230.07 414.663 231.104 414.074 232.172C413.412 233.369 412.857 234.621 412.413 235.915C412.413 235.915 412.413 235.915 412.413 235.958C412.413 235.523 412.413 234.304 412.413 234.206C412.242 232.888 411.139 230.438 409.668 230.168C409.424 230.13 409.175 230.143 408.936 230.208C408.697 230.273 408.475 230.386 408.283 230.542C408.091 230.698 407.934 230.893 407.823 231.113C407.711 231.334 407.647 231.575 407.634 231.822C407.548 232.876 408.308 233.924 409.049 234.586C409.889 235.333 412.211 236.056 412.395 236.117C411.976 237.443 411.648 238.797 411.415 240.168C411.274 240.964 411.151 241.773 411.047 242.582C411.047 242.202 411.047 241.865 411.047 241.822C410.875 240.498 409.772 238.048 408.302 237.778C408.057 237.74 407.807 237.754 407.568 237.819C407.329 237.883 407.106 237.998 406.915 238.155C406.723 238.311 406.566 238.506 406.454 238.728C406.343 238.949 406.279 239.191 406.268 239.438C406.182 240.486 406.942 241.534 407.683 242.196C408.425 242.857 410.404 243.525 410.931 243.697C410.888 244.003 410.851 244.31 410.814 244.628C410.63 246.123 410.459 247.618 410.244 249.077C410.171 249.591 410.079 250.1 409.987 250.602C409.987 250.265 409.987 249.99 409.987 249.941C409.815 248.623 408.712 246.172 407.242 245.897C406.997 245.859 406.748 245.874 406.509 245.939C406.27 246.004 406.048 246.119 405.856 246.275C405.665 246.432 405.508 246.627 405.396 246.847C405.285 247.068 405.22 247.31 405.208 247.557C405.079 248.586 405.839 249.634 406.58 250.296Z" fill="#263238"/>
<path d="M389.761 237.121C390.87 237.28 393.211 236.606 393.394 236.551C393.779 237.888 394.252 239.198 394.81 240.473C395.128 241.214 395.478 241.955 395.833 242.691C395.625 242.378 395.429 242.078 395.398 242.078C394.528 241.073 392.255 239.627 390.882 240.24C390.656 240.342 390.455 240.491 390.29 240.676C390.126 240.862 390.002 241.08 389.928 241.317C389.854 241.554 389.831 241.803 389.86 242.05C389.89 242.296 389.971 242.533 390.098 242.746C390.607 243.665 391.82 244.124 392.8 244.265C393.78 244.406 395.802 243.873 396.329 243.726L396.752 244.572C397.426 245.914 398.106 247.256 398.731 248.591C398.958 249.063 399.154 249.535 399.344 250.007C399.154 249.731 398.995 249.498 398.964 249.467C398.094 248.456 395.821 247.017 394.448 247.629C394.223 247.733 394.022 247.883 393.858 248.069C393.694 248.255 393.571 248.474 393.497 248.711C393.423 248.948 393.4 249.197 393.429 249.444C393.457 249.69 393.538 249.928 393.664 250.141C394.173 251.061 395.386 251.52 396.372 251.661C397.359 251.802 399.179 251.318 399.804 251.146C400 251.636 400.19 252.127 400.355 252.605C400.465 252.935 400.588 253.217 400.674 253.591L400.949 254.584C401.103 255.196 401.262 255.877 401.397 256.502C401.495 256.937 401.58 257.347 401.666 257.77C401.446 257.298 401.011 256.385 400.962 256.312C400.257 255.184 398.223 253.426 396.777 253.793C396.539 253.861 396.317 253.978 396.128 254.137C395.938 254.296 395.784 254.493 395.675 254.716C395.566 254.938 395.506 255.181 395.497 255.429C395.488 255.676 395.532 255.923 395.625 256.152C395.844 256.597 396.154 256.99 396.535 257.306C396.916 257.623 397.36 257.856 397.837 257.99H402.567C402.567 257.886 402.518 257.788 402.5 257.684C403.195 257.4 403.874 257.079 404.534 256.722C405.06 257.222 405.652 257.649 406.292 257.99H407.671C407.751 257.476 407.836 256.839 407.836 256.765C407.819 255.594 407.503 254.446 406.917 253.432C406.927 253.301 406.927 253.17 406.917 253.04C406.887 252.794 406.805 252.557 406.677 252.345C406.549 252.133 406.377 251.95 406.174 251.809C405.97 251.668 405.739 251.571 405.495 251.526C405.252 251.48 405.001 251.487 404.761 251.545C403.321 251.924 402.402 254.455 402.31 255.785C402.31 255.864 402.359 256.716 402.401 257.261C402.328 256.943 402.261 256.649 402.181 256.318C402.028 255.705 401.862 255.049 401.678 254.369L401.384 253.383C401.292 253.052 401.152 252.715 401.035 252.378C400.747 251.594 400.422 250.822 400.079 250.043C400.637 249.915 402.61 249.431 403.4 248.818C404.191 248.205 405.024 247.225 405.018 246.171C405.025 245.923 404.979 245.677 404.885 245.448C404.79 245.219 404.648 245.013 404.468 244.842C404.289 244.672 404.075 244.541 403.841 244.458C403.608 244.376 403.359 244.344 403.112 244.363C401.629 244.523 400.343 246.888 400.049 248.193C400.049 248.273 399.945 249.228 399.908 249.755C399.693 249.296 399.485 248.83 399.258 248.365C398.597 247.035 397.886 245.705 397.181 244.37C396.961 243.965 396.752 243.555 396.538 243.144C396.74 243.095 399.099 242.531 399.987 241.87C400.772 241.257 401.611 240.27 401.605 239.223C401.612 238.975 401.566 238.729 401.472 238.5C401.377 238.271 401.235 238.064 401.055 237.894C400.876 237.723 400.662 237.593 400.428 237.51C400.195 237.428 399.946 237.395 399.699 237.415C398.217 237.574 396.93 239.933 396.636 241.239C396.636 241.337 396.489 242.715 396.476 243.077C396.011 242.176 395.551 241.275 395.141 240.369C394.573 239.15 394.085 237.895 393.682 236.613C393.774 236.613 396.238 236 397.15 235.332C397.941 234.719 398.774 233.739 398.768 232.685C398.775 232.437 398.729 232.191 398.635 231.962C398.54 231.733 398.398 231.527 398.219 231.356C398.039 231.186 397.825 231.055 397.591 230.972C397.358 230.89 397.109 230.858 396.862 230.877C395.38 231.037 394.093 233.402 393.799 234.707C393.799 234.805 393.646 236.288 393.64 236.545C393.64 236.472 393.584 236.398 393.566 236.325C393.195 235.026 392.941 233.697 392.806 232.354C392.727 231.613 392.69 230.902 392.665 230.21C393.137 230.148 395.282 229.866 396.17 229.327C397.059 228.788 397.959 227.918 398.07 226.876C398.103 226.631 398.085 226.381 398.016 226.142C397.946 225.904 397.828 225.683 397.668 225.494C397.508 225.304 397.31 225.151 397.087 225.043C396.864 224.935 396.62 224.875 396.372 224.867C394.877 224.867 393.309 227.072 392.929 228.341C392.929 228.408 392.757 229.131 392.659 229.664C392.659 229.352 392.659 229.052 392.659 228.727C392.659 227.599 392.733 226.564 392.806 225.663C392.849 225.142 392.898 224.677 392.953 224.235C393.382 223.941 395.11 222.722 395.637 221.852C396.164 220.982 396.581 219.781 396.195 218.788C396.112 218.552 395.98 218.336 395.808 218.155C395.635 217.973 395.426 217.83 395.195 217.736C394.963 217.641 394.713 217.597 394.463 217.607C394.213 217.616 393.968 217.678 393.744 217.79C392.42 218.476 392.071 221.141 392.292 222.452C392.292 222.569 392.812 224.291 392.837 224.291C392.776 224.707 392.72 225.161 392.665 225.657C392.573 226.57 392.482 227.599 392.457 228.721C392.413 229.947 392.442 231.174 392.543 232.397C392.648 233.758 392.873 235.107 393.217 236.429V236.478C392.984 236.11 392.292 235.099 392.23 235.032C391.36 234.021 389.081 232.581 387.708 233.194C387.483 233.298 387.283 233.448 387.12 233.634C386.956 233.821 386.834 234.04 386.761 234.277C386.687 234.513 386.665 234.763 386.694 235.009C386.723 235.255 386.804 235.493 386.93 235.706C387.567 236.521 388.781 236.98 389.761 237.121Z" fill="#263238"/>
<path d="M415.324 230.12C415.324 230.12 415.802 228.38 415.82 228.282C416.004 226.964 415.581 224.305 414.239 223.662C414.014 223.559 413.769 223.505 413.521 223.504C413.273 223.503 413.028 223.554 412.801 223.654C412.574 223.754 412.371 223.901 412.205 224.085C412.039 224.269 411.914 224.486 411.837 224.722C411.476 225.715 411.935 226.928 412.45 227.786C413.112 228.723 415.324 230.114 415.324 230.12Z" fill="#263238"/>
<path d="M31.2258 229.542C32.2981 230.007 34.9021 229.946 34.9021 229.946C34.9021 229.946 34.3384 228.236 34.2894 228.108C33.7134 226.882 31.8998 224.922 30.4231 225.124C30.1787 225.164 29.9454 225.255 29.7385 225.391C29.5316 225.527 29.3556 225.706 29.2221 225.914C29.0886 226.123 29.0005 226.357 28.9636 226.602C28.9266 226.847 28.9417 227.097 29.0077 227.336C29.2651 228.384 30.3128 229.143 31.2258 229.542Z" fill="#263238"/>
<path d="M56.9663 257.252C57.0772 257.03 57.1399 256.786 57.1503 256.537C57.1606 256.289 57.1185 256.041 57.0266 255.809C56.9346 255.578 56.795 255.369 56.6168 255.195C56.4385 255.022 56.2257 254.887 55.9921 254.802C54.5767 254.324 52.4199 255.929 51.6295 257.001C51.5928 257.05 51.3293 257.504 51.0903 257.92H56.47C56.6771 257.732 56.8457 257.505 56.9663 257.252Z" fill="#263238"/>
<path d="M48.9518 250.296C49.6686 250.939 51.4762 251.558 52.095 251.76C51.9909 252.275 51.8806 252.79 51.7519 253.286C51.66 253.617 51.5865 253.948 51.4762 254.279C51.3659 254.609 51.2617 254.934 51.1576 255.259C50.9309 255.872 50.7042 256.484 50.4713 257.097C50.361 257.385 50.2569 257.655 50.1466 257.924H51.0228C51.0902 257.747 51.1576 257.569 51.225 257.379C51.4517 256.766 51.66 256.154 51.8867 255.48L52.1808 254.493C52.285 254.162 52.3524 253.807 52.4443 253.458C52.6342 252.655 52.7935 251.828 52.9283 251.007C53.4675 251.203 55.3792 251.871 56.3902 251.803C57.4012 251.736 58.6267 251.368 59.2026 250.486C59.3436 250.281 59.44 250.05 59.4855 249.805C59.531 249.561 59.5247 249.31 59.4669 249.069C59.4091 248.827 59.3012 248.6 59.1501 248.403C58.999 248.206 58.8081 248.043 58.5899 247.925C57.2664 247.245 54.9136 248.501 53.9455 249.444C53.8842 249.499 53.2837 250.253 52.959 250.67C53.0386 250.167 53.1244 249.665 53.1857 249.15C53.3695 247.673 53.5104 246.172 53.6575 244.671C53.7004 244.212 53.7494 243.758 53.7984 243.299C53.9884 243.372 56.2493 244.218 57.3767 244.138C58.3693 244.071 59.6132 243.703 60.183 242.821C60.3239 242.617 60.4202 242.385 60.4656 242.142C60.5111 241.898 60.5048 241.647 60.4469 241.406C60.3891 241.165 60.2812 240.939 60.1301 240.743C59.9791 240.546 59.7883 240.383 59.5703 240.266C58.2407 239.579 55.8939 240.842 54.9258 241.779C54.8523 241.853 53.9884 242.931 53.78 243.219C53.8903 242.208 54.0067 241.209 54.1599 240.223C54.3593 238.892 54.6458 237.576 55.0177 236.283C55.1035 236.32 57.4686 237.208 58.6144 237.128C59.607 237.061 60.8509 236.7 61.4268 235.817C61.5678 235.613 61.6642 235.381 61.7097 235.137C61.7552 234.893 61.7489 234.642 61.6911 234.4C61.6333 234.159 61.5254 233.932 61.3743 233.735C61.2232 233.538 61.0323 233.375 60.8141 233.256C59.4906 232.576 57.1377 233.832 56.1696 234.769C56.0961 234.843 55.1648 235.995 55.0116 236.234C55.0116 236.154 55.0484 236.075 55.0729 236.001C55.4828 234.717 56.0035 233.47 56.6292 232.276C56.9723 231.614 57.3338 230.995 57.6953 230.407C58.1181 230.621 60.0666 231.565 61.1021 231.602C62.1376 231.638 63.3753 231.418 64.0431 230.603C64.2059 230.417 64.3277 230.198 64.4006 229.962C64.4736 229.726 64.4961 229.477 64.4666 229.231C64.4371 228.986 64.3564 228.749 64.2296 228.537C64.1028 228.325 63.9328 228.141 63.7307 227.999C62.5052 227.172 59.993 228.164 58.9514 228.991C58.8963 229.041 58.3387 229.561 57.9894 229.947L58.498 229.157C59.1107 228.219 59.7234 227.398 60.3362 226.706C60.6609 226.295 60.9489 225.934 61.243 225.597C61.7699 225.597 63.8777 225.523 64.8029 225.088C65.7281 224.653 66.733 223.863 66.9475 222.846C67.0074 222.605 67.0159 222.355 66.9724 222.111C66.9288 221.867 66.8343 221.635 66.6948 221.431C66.5554 221.226 66.3743 221.053 66.1634 220.923C65.9524 220.793 65.7164 220.709 65.4708 220.677C63.988 220.518 62.2295 222.546 61.6903 223.74C61.6413 223.845 61.0776 225.579 61.1266 225.579H61.1695C60.8876 225.897 60.5935 226.24 60.2749 226.626C59.6622 227.337 59.0494 228.146 58.4 229.077C57.6916 230.07 57.0411 231.104 56.4515 232.172C55.7899 233.369 55.2343 234.621 54.791 235.915C54.7937 235.929 54.7937 235.944 54.791 235.958C54.791 235.523 54.791 234.304 54.791 234.206C54.6195 232.888 53.5166 230.438 52.046 230.168C51.8018 230.13 51.5522 230.143 51.3136 230.208C51.075 230.273 50.8526 230.386 50.6608 230.542C50.469 230.698 50.3121 230.893 50.2003 231.113C50.0885 231.334 50.0243 231.575 50.0118 231.822C49.926 232.876 50.6858 233.924 51.4272 234.586C52.2666 235.333 54.5888 236.056 54.7726 236.117C54.3561 237.444 54.0286 238.797 53.7923 240.168C53.6514 240.964 53.5288 241.773 53.4246 242.582C53.4246 242.202 53.4246 241.865 53.4246 241.822C53.2531 240.498 52.1441 238.048 50.6796 237.778C50.4348 237.739 50.1844 237.752 49.9449 237.816C49.7055 237.881 49.4824 237.995 49.2903 238.152C49.0982 238.309 48.9414 238.505 48.8303 238.726C48.7191 238.948 48.6561 239.191 48.6454 239.438C48.5535 240.486 49.3194 241.534 50.0608 242.196C50.8022 242.857 52.7813 243.525 53.3021 243.697C53.2653 244.003 53.2224 244.31 53.1857 244.628C53.008 246.123 52.8303 247.618 52.622 249.077C52.5423 249.591 52.4504 250.1 52.3585 250.602C52.3585 250.265 52.3585 249.99 52.3585 249.941C52.1869 248.623 51.084 246.172 49.6196 245.897C49.3747 245.859 49.1247 245.874 48.8858 245.939C48.6468 246.004 48.4241 246.119 48.232 246.275C48.0398 246.432 47.8825 246.626 47.7701 246.847C47.6577 247.068 47.5927 247.31 47.5793 247.557C47.4445 248.586 48.2104 249.634 48.9518 250.296Z" fill="#263238"/>
<path d="M32.1263 237.127C33.2414 237.286 35.5759 236.612 35.7597 236.557C36.1442 237.894 36.6171 239.204 37.1751 240.478C37.4998 241.22 37.843 241.961 38.2045 242.696C37.99 242.384 37.7939 242.084 37.7633 242.084C36.8932 241.079 34.62 239.633 33.2475 240.246C33.0216 240.348 32.8198 240.497 32.6554 240.682C32.4909 240.868 32.3677 241.086 32.2936 241.323C32.2195 241.559 32.1964 241.809 32.2256 242.055C32.2548 242.302 32.3358 242.539 32.4633 242.752C32.9718 243.671 34.185 244.13 35.1715 244.271C36.158 244.412 38.1677 243.879 38.7008 243.732C38.8356 244.014 38.9765 244.296 39.1174 244.578C39.7914 245.919 40.4715 247.261 41.1027 248.597C41.3232 249.069 41.5254 249.541 41.7154 250.012L41.3355 249.473C40.4593 248.462 38.1861 247.022 36.8136 247.635C36.5939 247.741 36.3983 247.891 36.2392 248.075C36.0802 248.26 35.9609 248.476 35.889 248.709C35.8171 248.942 35.7941 249.187 35.8214 249.429C35.8487 249.671 35.9257 249.905 36.0477 250.117C36.5562 251.036 37.7694 251.495 38.7559 251.636C39.7424 251.777 41.5622 251.293 42.1933 251.121C42.3832 251.612 42.5793 252.102 42.7448 252.58C42.8489 252.911 42.9715 253.192 43.0572 253.566L43.333 254.559C43.4861 255.172 43.6516 255.852 43.7803 256.477C43.8783 256.912 43.9641 257.322 44.0499 257.745C43.8354 257.273 43.3942 256.36 43.3452 256.287C42.6406 255.159 40.6063 253.401 39.1603 253.768C38.9222 253.836 38.701 253.954 38.5112 254.112C38.3214 254.271 38.1671 254.469 38.0585 254.691C37.9498 254.914 37.8892 255.156 37.8806 255.404C37.872 255.651 37.9155 255.898 38.0084 256.127C38.2286 256.571 38.5392 256.964 38.9201 257.28C39.301 257.597 39.7439 257.83 40.2203 257.966H44.9506C44.9506 257.861 44.9077 257.763 44.8832 257.659C45.5787 257.377 46.2578 257.056 46.9174 256.697C47.445 257.196 48.0363 257.622 48.6759 257.966H50.0545C50.1342 257.451 50.22 256.814 50.22 256.74C50.2029 255.569 49.8865 254.421 49.3009 253.407C49.3133 253.276 49.3133 253.145 49.3009 253.015C49.2706 252.769 49.1888 252.532 49.0606 252.32C48.9325 252.108 48.761 251.925 48.5573 251.784C48.3537 251.643 48.1225 251.546 47.879 251.501C47.6354 251.455 47.385 251.462 47.1441 251.52C45.7042 251.9 44.7912 254.43 44.6932 255.76C44.6932 255.839 44.7422 256.691 44.7851 257.236C44.7116 256.918 44.6442 256.624 44.5645 256.293C44.4175 255.68 44.2459 255.024 44.0682 254.344C43.9702 254.02 43.866 253.689 43.768 253.358C43.67 253.027 43.5352 252.69 43.4187 252.353C43.1369 251.569 42.806 250.797 42.4629 250.019C43.0205 249.89 44.9934 249.406 45.7839 248.793C46.5743 248.18 47.4137 247.2 47.4014 246.146C47.4083 245.898 47.3629 245.652 47.2682 245.423C47.1735 245.194 47.0317 244.988 46.8519 244.817C46.6721 244.647 46.4585 244.516 46.2249 244.434C45.9912 244.351 45.7428 244.319 45.4959 244.339C44.0131 244.498 42.7264 246.863 42.4323 248.168C42.4323 248.248 42.322 249.204 42.2852 249.731C42.0769 249.271 41.8686 248.805 41.6357 248.34C40.974 247.01 40.2632 245.68 39.5586 244.345C39.338 243.94 39.1297 243.53 38.9459 243.119C39.1481 243.07 41.5071 242.507 42.3955 241.845C43.1859 241.232 44.0192 240.246 44.0131 239.198C44.0199 238.95 43.9745 238.704 43.8798 238.475C43.7851 238.246 43.6433 238.039 43.4635 237.869C43.2838 237.698 43.0701 237.568 42.8365 237.485C42.6029 237.403 42.3545 237.37 42.1075 237.39C40.6247 237.55 39.338 239.909 39.0439 241.214C39.0439 241.312 38.903 242.69 38.8846 243.052C38.4189 242.151 37.9594 241.25 37.5489 240.344C36.9834 239.124 36.4963 237.869 36.0906 236.588C36.1825 236.588 38.6518 235.975 39.5586 235.307C40.349 234.694 41.1823 233.714 41.1762 232.66C41.183 232.412 41.1376 232.166 41.0429 231.937C40.9482 231.708 40.8064 231.502 40.6266 231.331C40.4469 231.161 40.2332 231.03 39.9996 230.947C39.766 230.865 39.5176 230.833 39.2706 230.853C37.7878 231.012 36.5011 233.377 36.207 234.682C36.207 234.78 36.0538 236.263 36.0477 236.52C36.0477 236.447 35.9925 236.373 35.9742 236.3C35.6052 235.001 35.353 233.672 35.2205 232.329C35.1347 231.588 35.098 230.877 35.0735 230.185C35.5453 230.123 37.6898 229.842 38.5782 229.302C39.4667 228.763 40.3674 227.893 40.4777 226.851C40.5113 226.606 40.4929 226.356 40.4237 226.118C40.3545 225.879 40.2361 225.659 40.0761 225.469C39.9161 225.28 39.7181 225.126 39.4949 225.018C39.2717 224.91 39.0283 224.85 38.7804 224.842C37.2915 224.842 35.7536 227.048 35.3431 228.316C35.3431 228.383 35.1715 229.106 35.0673 229.639C35.0673 229.327 35.0673 229.027 35.0673 228.702C35.0673 227.574 35.1409 226.539 35.2083 225.638C35.2511 225.117 35.3063 224.652 35.3553 224.211C35.7842 223.917 37.5121 222.697 38.039 221.827C38.566 220.957 38.9826 219.756 38.5966 218.763C38.5149 218.527 38.3836 218.31 38.2113 218.128C38.039 217.946 37.8298 217.803 37.5977 217.708C37.3656 217.614 37.116 217.57 36.8656 217.579C36.6152 217.589 36.3697 217.652 36.1457 217.765C34.8161 218.451 34.4669 221.116 34.6874 222.428C34.6874 222.544 35.2083 224.266 35.2328 224.266C35.1715 224.682 35.1163 225.136 35.0612 225.632C34.9754 226.545 34.8774 227.574 34.8529 228.696C34.8091 229.922 34.8377 231.149 34.9387 232.372C35.0458 233.733 35.2734 235.083 35.6188 236.404C35.616 236.42 35.616 236.437 35.6188 236.453C35.3859 236.085 34.6936 235.074 34.6323 235.007C33.7622 233.996 31.489 232.556 30.1165 233.169C29.891 233.272 29.6898 233.422 29.5259 233.608C29.362 233.795 29.2391 234.013 29.1652 234.25C29.0912 234.487 29.0679 234.737 29.0967 234.983C29.1254 235.23 29.2057 235.467 29.3322 235.681C29.9204 236.526 31.1459 236.986 32.1263 237.127Z" fill="#263238"/>
<path d="M57.6954 230.122C57.6954 230.122 58.1733 228.381 58.1917 228.283C58.3755 226.966 57.9527 224.307 56.6109 223.664C56.3851 223.562 56.1404 223.509 55.8928 223.508C55.6452 223.507 55.4001 223.558 55.1736 223.658C54.9471 223.758 54.7441 223.905 54.5779 224.088C54.4117 224.272 54.286 224.488 54.209 224.724C53.8475 225.716 54.307 226.929 54.8217 227.787C55.4835 228.725 57.6954 230.115 57.6954 230.122Z" fill="#263238"/>
<path d="M196.68 205.77C198.646 206.628 203.42 206.524 203.456 206.524C203.493 206.524 202.421 203.375 202.329 203.185C201.275 200.979 197.942 197.333 195.227 197.67C194.778 197.743 194.349 197.91 193.969 198.16C193.588 198.41 193.265 198.737 193.019 199.12C192.773 199.504 192.611 199.934 192.543 200.384C192.475 200.834 192.502 201.294 192.623 201.733C193.077 203.644 195.001 205.041 196.68 205.77Z" fill="#263238"/>
<path d="M243.969 256.681C244.171 256.273 244.285 255.826 244.303 255.371C244.321 254.916 244.243 254.463 244.074 254.04C243.905 253.617 243.65 253.234 243.323 252.916C242.997 252.599 242.608 252.353 242.18 252.196C239.582 251.326 235.618 254.273 234.166 256.246C234.099 256.332 233.614 257.159 233.179 257.931H243.063C243.439 257.574 243.747 257.15 243.969 256.681Z" fill="#263238"/>
<path d="M229.239 243.906C230.563 245.082 233.884 246.228 235.024 246.596C234.827 247.539 234.625 248.489 234.411 249.396C234.233 250.009 234.111 250.621 233.896 251.234C233.682 251.847 233.51 252.46 233.314 253.036C232.904 254.163 232.487 255.333 232.058 256.43C231.856 256.951 231.66 257.447 231.445 257.943H233.057C233.185 257.613 233.308 257.288 233.43 256.945C233.847 255.811 234.227 254.671 234.656 253.452C234.84 252.839 235.017 252.227 235.201 251.614C235.385 251.001 235.52 250.352 235.685 249.715C236.041 248.232 236.329 246.712 236.58 245.174C237.572 245.536 241.108 246.767 242.934 246.633C244.76 246.498 247.045 245.836 248.099 244.218C248.361 243.846 248.542 243.423 248.629 242.976C248.716 242.529 248.708 242.068 248.605 241.625C248.502 241.181 248.307 240.764 248.032 240.401C247.756 240.038 247.408 239.738 247.008 239.519C244.558 238.263 240.213 240.579 238.479 242.301C238.369 242.411 237.254 243.79 236.672 244.555C236.819 243.63 236.966 242.717 237.082 241.768C237.419 239.053 237.695 236.29 237.946 233.539C238.026 232.693 238.118 231.854 238.21 231.014C238.559 231.149 242.725 232.699 244.778 232.558C246.616 232.43 248.889 231.762 249.943 230.138C250.205 229.765 250.384 229.342 250.471 228.895C250.558 228.448 250.549 227.988 250.446 227.545C250.344 227.102 250.149 226.685 249.874 226.322C249.599 225.959 249.251 225.658 248.853 225.438C246.402 224.182 242.051 226.498 240.317 228.22C240.189 228.355 238.602 230.34 238.222 230.861C238.418 229.023 238.632 227.185 238.914 225.347C239.281 222.902 239.809 220.485 240.495 218.11C240.654 218.172 244.999 219.808 247.1 219.66C248.939 219.538 251.212 218.864 252.266 217.246C252.527 216.874 252.707 216.45 252.793 216.003C252.88 215.557 252.872 215.097 252.769 214.653C252.666 214.21 252.471 213.793 252.196 213.43C251.922 213.067 251.574 212.766 251.175 212.547C248.724 211.291 244.374 213.607 242.64 215.329C242.505 215.463 240.802 217.602 240.52 218.012C240.556 217.871 240.587 217.724 240.63 217.589C241.378 215.227 242.336 212.937 243.491 210.745C244.104 209.52 244.778 208.392 245.452 207.308C246.23 207.7 249.802 209.434 251.708 209.508C253.614 209.581 255.881 209.171 257.106 207.669C257.407 207.328 257.633 206.927 257.768 206.493C257.904 206.058 257.946 205.6 257.893 205.148C257.84 204.696 257.692 204.26 257.46 203.869C257.227 203.478 256.914 203.14 256.542 202.878C254.257 201.358 249.668 203.184 247.75 204.716C247.646 204.802 246.684 205.764 245.991 206.469C246.304 205.984 246.604 205.476 246.917 205.023C248.062 203.295 249.22 201.787 250.256 200.458C250.869 199.704 251.402 199.036 251.922 198.417C252.884 198.417 256.763 198.283 258.46 197.486C260.157 196.689 262.002 195.262 262.406 193.369C262.514 192.927 262.528 192.467 262.447 192.019C262.366 191.572 262.192 191.146 261.936 190.77C261.681 190.394 261.348 190.076 260.962 189.836C260.575 189.597 260.142 189.441 259.692 189.38C256.971 189.086 253.73 192.817 252.737 195.054C252.652 195.25 251.653 198.423 251.702 198.423H251.763C251.248 199.006 250.697 199.649 250.115 200.341C249.049 201.653 247.86 203.141 246.671 204.851C245.371 206.677 244.178 208.578 243.099 210.543C241.874 212.736 240.849 215.035 240.036 217.412C240.038 217.44 240.038 217.469 240.036 217.498C240.036 216.695 240.036 214.434 239.993 214.275C239.68 211.824 237.646 207.351 234.95 206.848C234.499 206.778 234.039 206.804 233.599 206.924C233.159 207.044 232.749 207.255 232.396 207.544C232.043 207.833 231.755 208.194 231.551 208.602C231.348 209.01 231.232 209.456 231.212 209.912C231.053 211.836 232.438 213.766 233.81 214.985C235.348 216.358 239.619 217.687 239.938 217.792C239.171 220.23 238.57 222.717 238.136 225.236C237.873 226.701 237.658 228.183 237.456 229.672C237.456 228.98 237.456 228.361 237.419 228.275C237.107 225.824 235.073 221.345 232.377 220.849C231.926 220.778 231.465 220.803 231.024 220.922C230.584 221.042 230.174 221.253 229.821 221.543C229.468 221.832 229.18 222.193 228.976 222.601C228.772 223.01 228.658 223.457 228.639 223.913C228.48 225.843 229.864 227.773 231.243 228.986C232.622 230.199 236.237 231.437 237.199 231.737C237.131 232.307 237.052 232.883 236.984 233.453C236.653 236.204 236.341 238.967 235.949 241.633C235.808 242.576 235.636 243.502 235.471 244.427C235.471 243.814 235.471 243.293 235.44 243.201C235.122 240.75 233.087 236.271 230.397 235.775C229.947 235.705 229.486 235.73 229.046 235.85C228.606 235.97 228.196 236.182 227.843 236.471C227.491 236.76 227.203 237.12 226.999 237.528C226.795 237.937 226.679 238.383 226.66 238.839C226.482 240.757 227.879 242.687 229.239 243.906Z" fill="#263238"/>
<path d="M198.34 219.698C200.374 219.999 204.669 218.755 205.013 218.657C205.716 221.112 206.584 223.518 207.61 225.856C208.223 227.223 208.836 228.583 209.498 229.937C209.106 229.361 208.75 228.852 208.695 228.785C207.09 226.947 202.911 224.3 200.393 225.372C199.978 225.561 199.608 225.835 199.307 226.177C199.006 226.519 198.78 226.92 198.644 227.354C198.508 227.789 198.465 228.248 198.518 228.7C198.572 229.152 198.72 229.589 198.953 229.98C199.884 231.671 202.114 232.51 203.922 232.774C205.729 233.037 209.436 232.051 210.411 231.781C210.668 232.296 210.919 232.817 211.177 233.331C212.402 235.782 213.67 238.27 214.822 240.721C215.227 241.585 215.594 242.455 215.968 243.319C215.619 242.81 215.325 242.388 215.27 242.326C213.67 240.488 209.492 237.841 206.967 238.913C206.554 239.103 206.186 239.377 205.885 239.719C205.585 240.06 205.36 240.461 205.225 240.895C205.09 241.329 205.048 241.786 205.101 242.238C205.154 242.689 205.301 243.124 205.533 243.515C206.465 245.212 208.695 246.052 210.503 246.315C212.31 246.579 215.656 245.702 216.814 245.365C217.169 246.266 217.524 247.167 217.825 248.049C218.021 248.662 218.247 249.232 218.407 249.857C218.566 250.482 218.75 251.082 218.915 251.695C219.197 252.865 219.491 254.066 219.736 255.218C219.914 256.014 220.067 256.78 220.226 257.546C219.828 256.682 219.001 255.003 218.94 254.869C217.635 252.798 213.903 249.562 211.25 250.243C210.812 250.367 210.406 250.582 210.057 250.874C209.708 251.165 209.424 251.527 209.224 251.936C209.024 252.344 208.912 252.791 208.896 253.245C208.88 253.7 208.96 254.153 209.13 254.575C209.743 256.247 211.55 257.362 213.192 257.945H221.881C221.838 257.755 221.801 257.571 221.758 257.381C223.039 256.869 224.289 256.284 225.502 255.628C226.47 256.545 227.556 257.328 228.731 257.957H231.268C231.403 257.007 231.562 255.837 231.562 255.714C231.535 253.561 230.955 251.451 229.877 249.587C229.884 249.347 229.87 249.107 229.834 248.87C229.777 248.418 229.626 247.984 229.391 247.594C229.155 247.205 228.84 246.869 228.466 246.61C228.092 246.35 227.667 246.172 227.22 246.088C226.773 246.003 226.313 246.014 225.87 246.119C223.223 246.824 221.544 251.474 221.415 253.913C221.415 254.06 221.501 255.635 221.581 256.621C221.446 256.045 221.323 255.488 221.176 254.893C220.9 253.723 220.563 252.565 220.257 251.315C220.079 250.702 219.896 250.089 219.712 249.477C219.528 248.864 219.283 248.251 219.068 247.639C218.548 246.211 217.947 244.783 217.31 243.349C218.333 243.104 221.96 242.179 223.437 241.058C224.914 239.937 226.421 238.129 226.409 236.193C226.422 235.738 226.338 235.286 226.164 234.866C225.991 234.446 225.73 234.067 225.4 233.754C225.07 233.441 224.677 233.201 224.248 233.051C223.819 232.9 223.363 232.841 222.91 232.878C220.184 233.172 217.818 237.51 217.328 239.906C217.298 240.053 217.132 241.812 217.065 242.78C216.673 241.928 216.293 241.076 215.87 240.231C214.645 237.78 213.346 235.329 212.047 232.878L210.876 230.629C211.244 230.544 215.576 229.539 217.206 228.289C218.658 227.174 220.196 225.354 220.177 223.424C220.19 222.969 220.107 222.516 219.933 222.096C219.759 221.675 219.499 221.296 219.169 220.983C218.839 220.67 218.447 220.429 218.018 220.278C217.588 220.126 217.132 220.066 216.679 220.103C213.952 220.397 211.593 224.741 211.097 227.137C211.06 227.315 210.833 229.845 210.803 230.495C209.945 228.84 209.106 227.186 208.352 225.525C207.314 223.283 206.419 220.976 205.674 218.62C205.846 218.577 210.374 217.548 212.047 216.267C213.499 215.158 215.031 213.338 215.018 211.402C215.031 210.947 214.948 210.495 214.774 210.074C214.6 209.654 214.34 209.274 214.01 208.961C213.68 208.648 213.287 208.408 212.858 208.256C212.429 208.104 211.973 208.045 211.52 208.081C208.793 208.381 206.428 212.719 205.938 215.115C205.895 215.305 205.656 218.026 205.644 218.522C205.601 218.387 205.546 218.246 205.503 218.111C204.826 215.727 204.363 213.287 204.118 210.82C203.965 209.46 203.897 208.149 203.854 206.874C204.718 206.77 208.658 206.261 210.288 205.256C211.918 204.252 213.578 202.671 213.774 200.747C213.836 200.297 213.802 199.839 213.674 199.403C213.547 198.967 213.33 198.562 213.036 198.216C212.743 197.869 212.38 197.588 211.971 197.391C211.562 197.194 211.116 197.084 210.662 197.07C207.923 197.07 205.098 201.121 204.339 203.449C204.302 203.571 204.026 204.907 203.842 205.9C203.842 205.324 203.812 204.73 203.812 204.178C203.812 202.101 203.946 200.208 204.075 198.529C204.161 197.573 204.253 196.691 204.345 195.906C205.141 195.361 208.309 193.125 209.283 191.525C210.257 189.926 211.011 187.714 210.3 185.919C210.149 185.489 209.909 185.097 209.595 184.766C209.282 184.436 208.902 184.175 208.481 184.002C208.06 183.828 207.607 183.746 207.152 183.759C206.697 183.773 206.25 183.882 205.84 184.081C203.389 185.306 202.776 190.208 203.168 192.659C203.205 192.867 204.124 196.066 204.161 196.041L204.21 196.004C204.106 196.776 203.995 197.61 203.904 198.517C203.732 200.195 203.56 202.095 203.511 204.178C203.432 206.426 203.485 208.676 203.671 210.918C203.861 213.42 204.271 215.901 204.896 218.332C204.91 218.359 204.92 218.388 204.927 218.418C204.498 217.738 203.229 215.887 203.089 215.752C201.489 213.914 197.311 211.273 194.786 212.34C194.373 212.53 194.004 212.805 193.704 213.147C193.404 213.489 193.179 213.89 193.044 214.324C192.909 214.759 192.866 215.217 192.919 215.669C192.973 216.12 193.12 216.556 193.352 216.947C194.302 218.602 196.532 219.435 198.34 219.698Z" fill="#263238"/>
<path d="M245.317 206.829C245.36 206.829 246.187 203.63 246.218 203.422C246.555 201.002 245.783 196.118 243.32 194.93C242.905 194.743 242.455 194.646 242 194.645C241.544 194.643 241.094 194.738 240.678 194.922C240.262 195.107 239.889 195.377 239.584 195.715C239.279 196.053 239.049 196.451 238.908 196.884C238.247 198.722 239.086 200.928 240.079 202.466C241.243 204.261 245.311 206.829 245.317 206.829Z" fill="#263238"/>
<path d="M86.0217 1L128.214 25.7173" stroke="#263238" stroke-width="2" stroke-linecap="round" stroke-linejoin="round"/>
<path d="M29.7676 73.0195L105.2 87.0815" stroke="#263238" stroke-width="2" stroke-linecap="round" stroke-linejoin="round"/>
<path d="M127.362 177.859L103.068 196.609" stroke="#263238" stroke-width="2" stroke-linecap="round" stroke-linejoin="round"/>
<path d="M436.683 133.621H397.138V158.994H436.683V133.621Z" fill="white" stroke="#263238" stroke-linecap="round" stroke-linejoin="round"/>
<path d="M397.138 133.621L416.579 150.097L436.401 133.848" fill="white"/>
<path d="M397.138 133.621L416.579 150.097L436.401 133.848" stroke="#263238" stroke-linecap="round" stroke-linejoin="round"/>
<path d="M397.138 158.993L411.31 146.145" stroke="#263238" stroke-linecap="round" stroke-linejoin="round"/>
<path d="M436.683 158.993L421.855 146.145" stroke="#263238" stroke-linecap="round" stroke-linejoin="round"/>
<path d="M400.373 139.953C404.845 139.224 407.88 135.007 407.15 130.535C406.421 126.063 402.205 123.029 397.733 123.758C393.261 124.487 390.226 128.703 390.955 133.176C391.685 137.648 395.901 140.682 400.373 139.953Z" fill="#263238"/>
<path d="M395.655 136.231V129.179L395.379 129.307L395.054 129.442L394.73 129.583L394.436 129.712V128.358L394.779 128.174C394.926 128.1 395.079 128.014 395.25 127.916C395.422 127.818 395.569 127.726 395.716 127.628C395.834 127.553 395.945 127.467 396.047 127.371H397.481V136.231H395.655Z" fill="#2AB6C5"/>
<path d="M401.231 136.398C400.717 136.432 400.204 136.31 399.76 136.048C399.424 135.819 399.184 135.475 399.086 135.08C398.961 134.611 398.902 134.126 398.908 133.64H400.673C400.669 133.915 400.687 134.19 400.728 134.461C400.746 134.63 400.817 134.789 400.93 134.915C400.988 134.962 401.055 134.997 401.126 135.018C401.198 135.039 401.273 135.046 401.347 135.037C401.429 135.042 401.51 135.023 401.582 134.982C401.654 134.942 401.712 134.883 401.751 134.811C401.844 134.619 401.894 134.41 401.899 134.198C401.899 133.928 401.899 133.585 401.899 133.211C401.9 132.951 401.883 132.691 401.85 132.433C401.829 132.239 401.761 132.051 401.653 131.888C401.601 131.822 401.534 131.77 401.457 131.736C401.38 131.702 401.296 131.687 401.212 131.692C401.127 131.689 401.042 131.704 400.963 131.738C400.885 131.772 400.815 131.823 400.759 131.888C400.623 132.067 400.536 132.278 400.508 132.501H398.933L399.098 127.391H403.234V128.922H400.618L400.52 130.761C400.631 130.634 400.775 130.54 400.937 130.491C401.148 130.416 401.369 130.366 401.592 130.344C401.991 130.282 402.399 130.369 402.738 130.589C403.066 130.836 403.31 131.178 403.436 131.569C403.603 132.088 403.681 132.63 403.669 133.175C403.671 133.613 403.642 134.051 403.584 134.486C403.536 134.847 403.421 135.196 403.247 135.515C403.072 135.805 402.816 136.037 402.511 136.183C402.107 136.353 401.668 136.427 401.231 136.398Z" fill="#2AB6C5"/>
<path d="M162.894 196.152H134.757C133.187 196.152 131.914 197.425 131.914 198.995V219.803C131.914 221.374 133.187 222.647 134.757 222.647H162.894C164.464 222.647 165.737 221.374 165.737 219.803V198.995C165.737 197.425 164.464 196.152 162.894 196.152Z" fill="#263238"/>
<path d="M156.656 207.452L145.394 200.951C145.144 200.811 144.862 200.74 144.576 200.742C144.29 200.745 144.009 200.822 143.762 200.966C143.515 201.11 143.309 201.316 143.166 201.564C143.022 201.812 142.945 202.092 142.943 202.379V215.381C142.944 215.667 143.019 215.949 143.162 216.198C143.305 216.447 143.511 216.654 143.759 216.798C144.007 216.942 144.288 217.019 144.575 217.021C144.862 217.023 145.145 216.949 145.394 216.808L156.656 210.283C156.901 210.136 157.104 209.929 157.245 209.681C157.386 209.433 157.46 209.153 157.46 208.867C157.46 208.582 157.386 208.302 157.245 208.053C157.104 207.805 156.901 207.598 156.656 207.452Z" fill="#2AB6C5"/>
<path d="M56.8191 127.664V165.224H12.6602V127.664H18.5546V130.961H23.2113V127.664H47.0278V130.961H51.6906V127.664H56.8191Z" stroke="#263238" stroke-linecap="round" stroke-linejoin="round"/>
<path d="M23.0337 136.234H17.1699V142.098H23.0337V136.234Z" stroke="#263238" stroke-linecap="round" stroke-linejoin="round"/>
<path d="M32.9658 136.234H27.1021V142.098H32.9658V136.234Z" fill="#2AB6C5" stroke="#263238" stroke-linecap="round" stroke-linejoin="round"/>
<path d="M42.8918 136.234H37.0281V142.098H42.8918V136.234Z" stroke="#263238" stroke-linecap="round" stroke-linejoin="round"/>
<path d="M52.8181 136.234H46.9543V142.098H52.8181V136.234Z" stroke="#263238" stroke-linecap="round" stroke-linejoin="round"/>
<path d="M23.0337 145.48H17.1699V151.344H23.0337V145.48Z" stroke="#263238" stroke-linecap="round" stroke-linejoin="round"/>
<path d="M32.9658 145.48H27.1021V151.344H32.9658V145.48Z" stroke="#263238" stroke-linecap="round" stroke-linejoin="round"/>
<path d="M42.8918 145.48H37.0281V151.344H42.8918V145.48Z" fill="#2AB6C5" stroke="#263238" stroke-linecap="round" stroke-linejoin="round"/>
<path d="M52.8181 145.48H46.9543V151.344H52.8181V145.48Z" stroke="#263238" stroke-linecap="round" stroke-linejoin="round"/>
<path d="M23.0337 154.734H17.1699V160.598H23.0337V154.734Z" fill="#2AB6C5" stroke="#263238" stroke-linecap="round" stroke-linejoin="round"/>
<path d="M32.9658 154.734H27.1021V160.598H32.9658V154.734Z" stroke="#263238" stroke-linecap="round" stroke-linejoin="round"/>
<path d="M42.8918 154.734H37.0281V160.598H42.8918V154.734Z" stroke="#263238" stroke-linecap="round" stroke-linejoin="round"/>
<path d="M52.8181 154.734H46.9543V160.598H52.8181V154.734Z" stroke="#263238" stroke-linecap="round" stroke-linejoin="round"/>
<path d="M23.2114 125.004H18.5547V130.96H23.2114V125.004Z" stroke="#263238" stroke-linecap="round" stroke-linejoin="round"/>
<path d="M51.6907 125.004H47.0278V130.96H51.6907V125.004Z" stroke="#263238" stroke-linecap="round" stroke-linejoin="round"/>
<path d="M358.469 63.6055H325.645C324.228 63.6071 322.869 64.1714 321.867 65.1744C320.865 66.1774 320.302 67.537 320.302 68.9546V85.2837C320.304 86.7002 320.868 88.0583 321.869 89.0599C322.871 90.0616 324.229 90.625 325.645 90.6266H345.583L352.213 98.1141L351.441 90.6144H358.5C359.916 90.6128 361.274 90.0493 362.276 89.0477C363.278 88.046 363.841 86.688 363.843 85.2714V68.9546C363.843 68.2501 363.703 67.5525 363.433 66.9019C363.163 66.2513 362.767 65.6606 362.267 65.1635C361.768 64.6665 361.175 64.273 360.524 64.0056C359.872 63.7383 359.174 63.6023 358.469 63.6055Z" fill="#2AB6C5" stroke="#263238" stroke-linecap="round" stroke-linejoin="round"/>
<path d="M335.608 77.8274C335.608 78.2664 335.478 78.6955 335.234 79.0604C334.99 79.4252 334.643 79.7095 334.238 79.8772C333.832 80.0449 333.386 80.0885 332.955 80.0024C332.525 79.9163 332.13 79.7045 331.82 79.3937C331.51 79.0828 331.299 78.6871 331.214 78.2564C331.129 77.8257 331.174 77.3796 331.343 76.9744C331.512 76.5692 331.797 76.2232 332.162 75.9802C332.528 75.7372 332.957 75.6082 333.396 75.6094C333.687 75.6094 333.975 75.6668 334.244 75.7783C334.513 75.8899 334.757 76.0534 334.963 76.2594C335.168 76.4654 335.331 76.71 335.442 76.9791C335.552 77.2482 335.609 77.5364 335.608 77.8274Z" fill="#263238" stroke="#263238" stroke-linecap="round" stroke-linejoin="round"/>
<path d="M345.02 77.8274C345.019 78.2646 344.888 78.6917 344.644 79.0546C344.401 79.4176 344.055 79.7001 343.65 79.8666C343.246 80.0331 342.802 80.076 342.373 79.99C341.944 79.9039 341.551 79.6928 341.242 79.3832C340.933 79.0736 340.723 78.6795 340.638 78.2506C340.553 77.8217 340.598 77.3772 340.765 76.9734C340.933 76.5696 341.216 76.2245 341.58 75.9817C341.944 75.7389 342.371 75.6094 342.808 75.6094C343.099 75.6094 343.387 75.6668 343.656 75.7783C343.925 75.8899 344.169 76.0533 344.374 76.2594C344.58 76.4654 344.743 76.71 344.853 76.9791C344.964 77.2481 345.021 77.5364 345.02 77.8274Z" fill="#263238" stroke="#263238" stroke-linecap="round" stroke-linejoin="round"/>
<path d="M354.437 77.8274C354.437 78.2661 354.307 78.695 354.064 79.0597C353.82 79.4245 353.473 79.7088 353.068 79.8766C352.663 80.0445 352.217 80.0885 351.787 80.0029C351.356 79.9173 350.961 79.706 350.651 79.3958C350.341 79.0856 350.129 78.6904 350.044 78.2601C349.958 77.8299 350.002 77.3839 350.17 76.9786C350.338 76.5733 350.622 76.2269 350.987 75.9832C351.352 75.7395 351.781 75.6094 352.219 75.6094C352.808 75.6094 353.372 75.8431 353.788 76.259C354.204 76.675 354.437 77.2392 354.437 77.8274Z" fill="#263238" stroke="#263238" stroke-linecap="round" stroke-linejoin="round"/>
<path d="M68.7674 124.047C68.7674 124.047 65.8263 125.916 65.3791 127.723C64.9318 129.531 59.9871 145.253 59.9871 145.253L49.0071 164.634L51.6479 166.815L65.33 152.251L69.8764 141.491L68.7674 124.047Z" fill="white" stroke="#263238" stroke-linecap="round" stroke-linejoin="round"/>
<path d="M49.0071 164.633C49.0071 164.633 44.5648 167.696 44.2217 168.107C43.8786 168.517 42.5735 172.764 42.4877 173.542C42.4019 174.32 41.538 175.607 42.4877 175.784C43.4374 175.962 44.3933 172.592 44.3933 172.592L44.8283 171.471C44.8283 171.471 44.7425 174.314 44.9999 175.006C45.2572 175.699 45.4349 175.956 45.778 175.178C46.1212 174.4 46.2989 171.385 46.2989 171.385C46.2989 171.385 46.9116 174.663 47.5243 175.178C48.137 175.692 48.3025 175.092 48.2167 174.492C48.1309 173.891 48.0451 171.9 48.0451 171.9C48.0451 171.9 48.8233 174.4 49.2706 174.057C49.7179 173.713 48.8355 170.864 48.8355 170.864L51.6724 166.814L49.0071 164.633Z" fill="white" stroke="#263238" stroke-linecap="round" stroke-linejoin="round"/>
<path d="M46.5624 167.328C46.5624 167.328 44.7242 169.742 44.6568 170.006C44.5894 170.269 42.0833 172.273 41.8811 172.849C41.6789 173.425 42.2304 173.884 43.1066 173.541C44.0646 173.026 44.975 172.428 45.8271 171.752C46.1545 171.505 46.5337 171.335 46.9361 171.256L47.316 171.176C47.7765 171.081 48.2058 170.872 48.5645 170.568C48.9232 170.264 49.1997 169.875 49.3686 169.436L49.7792 168.364" fill="white"/>
<path d="M46.5624 167.328C46.5624 167.328 44.7242 169.742 44.6568 170.006C44.5894 170.269 42.0833 172.273 41.8811 172.849C41.6789 173.425 42.2304 173.884 43.1066 173.541C44.0646 173.026 44.975 172.428 45.8271 171.752C46.1545 171.505 46.5337 171.335 46.9361 171.256L47.316 171.176C47.7765 171.081 48.2058 170.872 48.5645 170.568C48.9232 170.264 49.1997 169.875 49.3686 169.436L49.7792 168.364" stroke="#263238" stroke-linecap="round" stroke-linejoin="round"/>
<path d="M67.2417 146.02L62.1316 149.102" stroke="#263238" stroke-linecap="round" stroke-linejoin="round"/>
<path d="M65.3053 148.922L59.8398 151.655" stroke="#263238" stroke-linecap="round" stroke-linejoin="round"/>
<path d="M105.041 233.044L107.234 238.424C107.234 238.424 109.924 245.096 109.826 247.388C109.728 249.679 110.819 250.482 111.719 250.58C112.62 250.678 114.507 248.288 115.108 245.501C115.708 242.713 114.109 236.31 114.109 235.532C114.109 234.753 114.808 230.948 113.215 229.656C112.064 228.821 110.729 228.275 109.324 228.062L105.041 233.044Z" fill="white" stroke="#263238" stroke-linecap="round" stroke-linejoin="round"/>
<path d="M102.651 229.562L105.715 234.715L106.805 237.197C106.805 237.197 107.204 235.61 108.196 235.212C109.038 234.94 109.916 234.799 110.8 234.795L109.33 228.055L107.026 226.664L102.651 229.562Z" fill="white" stroke="#263238" stroke-linecap="round" stroke-linejoin="round"/>
<path d="M115.089 245.496C115.702 242.702 114.09 236.305 114.09 235.527C114.09 234.748 114.789 230.943 113.196 229.651C112.87 229.395 112.521 229.169 112.154 228.977C111.983 230.502 112.896 233.529 113.294 235.527C113.79 238.02 114.587 242.003 113.992 244.993C113.447 247.708 111.021 249.68 110.58 250.017C110.88 250.325 111.275 250.521 111.701 250.575C112.638 250.673 114.507 248.271 115.089 245.496Z" fill="white" stroke="#263238" stroke-linecap="round" stroke-linejoin="round"/>
<path d="M67.7565 157.652C67.7565 157.652 66.7823 166.733 66.5801 174.159C66.0532 194.048 76.3469 218.888 76.3469 218.888L79.9313 240.21L86.8061 239.598L85.9115 216.486L82.9214 188.104C82.9214 188.104 89.6001 209.629 90.8868 211.817C92.1736 214.004 102.645 229.586 102.645 229.586C102.645 229.586 104.937 229.788 106.432 228.691C107.374 227.93 108.04 226.879 108.325 225.701C108.325 225.701 106.229 215.897 103.245 210.818C100.262 205.738 98.1599 203.974 98.1599 203.974C98.1599 203.974 97.927 194.054 97.927 192.657C97.9512 187.079 97.6053 181.505 96.8915 175.972C96.1992 170.826 95.421 165.556 92.6392 161.034C92.2103 160.336 89.7472 156.132 88.6994 156.212L67.7565 157.652Z" fill="#2AB6C5" stroke="#263238" stroke-linecap="round" stroke-linejoin="round"/>
<path d="M82.0021 167.797C81.7509 168.483 81.5303 169.126 81.3894 169.69L82.0021 167.797Z" fill="white"/>
<path d="M82.0021 167.797C81.7509 168.483 81.5303 169.126 81.3894 169.69" stroke="#263238" stroke-linecap="round" stroke-linejoin="round"/>
<path d="M84.9617 160.98C84.9617 160.98 83.7362 163.56 82.6333 166.189L84.9617 160.98Z" fill="white"/>
<path d="M84.9617 160.98C84.9617 160.98 83.7362 163.56 82.6333 166.189" stroke="#263238" stroke-linecap="round" stroke-linejoin="round"/>
<path d="M81.3406 185.285L82.0268 186.811" stroke="#263238" stroke-linecap="round" stroke-linejoin="round"/>
<path d="M77.7439 177.246L80.6605 183.759" stroke="#263238" stroke-linecap="round" stroke-linejoin="round"/>
<path d="M80.8319 241.808C80.8319 241.808 80.7277 247.188 80.6297 247.788C80.5317 248.389 75.7279 255.754 72.4621 256.226C72.2225 256.225 71.9862 256.282 71.7735 256.392C71.5608 256.502 71.3779 256.662 71.2406 256.859C71.1033 257.055 71.0156 257.282 70.985 257.519C70.9545 257.757 70.9819 257.998 71.0651 258.223C71.2673 259.02 76.1384 258.738 78.4178 258.438C80.6971 258.137 83.2093 256.054 84.1038 255.46C84.9984 254.865 89.6735 254.547 89.6735 252.157C89.6735 249.768 87.3942 244.994 87.3942 244.994L86.6957 241.012L80.8319 241.808Z" fill="white" stroke="#263238" stroke-linecap="round" stroke-linejoin="round"/>
<path d="M79.0369 238.119C79.0369 238.119 79.4351 242.604 80.0356 242.702C80.6361 242.8 87.8049 242.506 87.903 241.605C88.001 240.705 88.0071 238.615 87.6089 237.819C87.2106 237.022 79.4351 236.728 79.0369 238.119Z" fill="#2AB6C5" stroke="#263238" stroke-linecap="round" stroke-linejoin="round"/>
<path d="M100.929 226.217C98.7233 225.782 101.738 229.795 103.037 230.592C104.336 231.388 106.419 231.413 108.294 229.538C109.587 228.245 109.887 225.862 109.452 224.887C108.913 223.686 108.205 222.568 107.35 221.566C107.35 221.566 106.511 227.338 100.929 226.217Z" fill="#2AB6C5" stroke="#263238" stroke-linecap="round" stroke-linejoin="round"/>
<path d="M118.214 124.461L117.381 119.774C117.84 118.879 118.18 117.927 118.392 116.943C118.539 115.81 118.263 114.388 119.041 114.609C119.819 114.829 119.654 115.675 119.74 116.171C119.773 116.526 119.748 116.884 119.666 117.231L120.365 119.069L124.973 114.897C125.03 114.844 125.098 114.804 125.172 114.778C125.246 114.753 125.324 114.743 125.402 114.748C125.48 114.754 125.556 114.776 125.626 114.812C125.695 114.848 125.756 114.898 125.806 114.958C125.898 115.062 125.948 115.196 125.948 115.335C125.948 115.474 125.898 115.608 125.806 115.712L122.938 118.775L123.367 119.204L127.172 116.484C127.247 116.421 127.334 116.374 127.428 116.348C127.522 116.321 127.621 116.315 127.717 116.331C127.814 116.346 127.906 116.381 127.987 116.435C128.069 116.489 128.138 116.56 128.189 116.643C128.272 116.774 128.307 116.929 128.289 117.083C128.271 117.237 128.201 117.38 128.091 117.489L124.599 120.454L128.532 118.892C128.595 118.861 128.663 118.844 128.732 118.84C128.802 118.836 128.871 118.847 128.937 118.871C129.002 118.895 129.062 118.932 129.112 118.98C129.163 119.028 129.203 119.085 129.231 119.149C129.277 119.255 129.286 119.373 129.256 119.484C129.225 119.596 129.158 119.694 129.065 119.762L125.757 122.176L128.091 121.839C128.159 121.826 128.229 121.826 128.297 121.84C128.365 121.855 128.429 121.882 128.487 121.921C128.544 121.961 128.592 122.011 128.63 122.07C128.667 122.128 128.692 122.193 128.704 122.262C128.726 122.379 128.707 122.5 128.65 122.605C128.593 122.71 128.502 122.792 128.392 122.838L125.414 124.063L120.849 126.765L118.214 124.461Z" fill="white" stroke="#263238" stroke-linecap="round" stroke-linejoin="round"/>
<path d="M120.659 119.895C120.659 119.895 121.431 121.347 121.272 121.959C121.171 122.322 121.038 122.675 120.873 123.013" fill="white"/>
<path d="M120.659 119.895C120.659 119.895 121.431 121.347 121.272 121.959C121.171 122.322 121.038 122.675 120.873 123.013" stroke="#263238" stroke-linecap="round" stroke-linejoin="round"/>
<path d="M118.214 124.463L104.06 133.696C104.06 133.696 98.178 124.849 96.7074 123.893C95.2369 122.937 91.4319 122.055 91.4319 122.055L91.6463 124.818L70.7034 123.819C70.7034 123.819 70.2991 123.923 69.717 124.113L67.0884 135.253C66.7457 136.701 66.7019 138.204 66.9597 139.67L68.5222 148.53C68.6202 148.126 67.4499 156.845 67.7501 157.654L68.0565 158.463C68.0565 158.463 86.9835 157.348 88.2764 156.845C89.5692 156.343 89.7959 155.834 89.5018 155.123C89.4222 154.933 88.3928 151.245 88.7298 149.284C89.6489 143.935 92.8166 136.76 92.8166 136.76L101.266 143.819C101.862 144.316 102.627 144.565 103.401 144.514C104.176 144.462 104.901 144.115 105.426 143.543L120.781 126.846L118.214 124.463Z" fill="white" stroke="#263238" stroke-linecap="round" stroke-linejoin="round"/>
<path d="M104.018 133.898C103.405 133.898 101.407 135.994 100.88 137.232" stroke="#263238" stroke-linecap="round" stroke-linejoin="round"/>
<path d="M80.7766 153.234C79.9862 153.847 79.3306 154.374 78.9385 154.65" stroke="#263238" stroke-linecap="round" stroke-linejoin="round"/>
<path d="M87.7741 147.602C87.7741 147.602 84.5451 150.23 81.9165 152.332" stroke="#263238" stroke-linecap="round" stroke-linejoin="round"/>
<path d="M81.6957 150.598C81.6957 150.598 78.0806 153.857 75.7891 154.562" stroke="#263238" stroke-linecap="round" stroke-linejoin="round"/>
<path d="M73.3813 144.941L74.5578 145.664" stroke="#263238" stroke-linecap="round" stroke-linejoin="round"/>
<path d="M69.0063 142.223L72.2783 144.251" stroke="#263238" stroke-linecap="round" stroke-linejoin="round"/>
<path d="M72.8725 103.522C72.9316 104.247 73.036 104.967 73.185 105.679C73.4668 107.162 74.0611 107.517 73.0992 108.926C72.1372 110.336 69.1716 112.56 69.7047 115.262C70.2378 117.964 72.3333 120.409 71.0956 120.74C69.8579 121.071 66.8065 122.645 65.7649 125.194C64.7232 127.743 67.3273 131.144 70.2194 130.274C71.7451 129.82 71.9105 125.758 72.9521 125.145C73.9937 124.532 74.7903 125.102 76.3098 123.068C77.8294 121.034 77.9826 119.392 78.5892 117.259C79.1958 115.127 78.1358 103.326 76.2057 102.854C75.6347 102.72 75.0415 102.711 74.4665 102.826C73.8914 102.941 73.3478 103.179 72.8725 103.522Z" fill="#263238" stroke="#263238" stroke-linecap="round" stroke-linejoin="round"/>
<path d="M77.4252 118.241C77.5762 118.978 77.6623 119.726 77.6826 120.478C77.6152 121.054 77.7622 122.886 76.1691 124.154C74.5761 125.422 73.5957 125.122 73.5957 125.122C73.5957 125.122 73.9817 126.348 78.957 127.42C83.9323 128.492 88.7422 123.033 88.7422 123.033C88.7422 123.033 88.8832 124.307 87.7986 120.735C86.8638 118.037 85.6437 115.447 84.1591 113.009L82.3393 111.023C82.3393 111.023 81.1138 114.087 79.8516 115.368C78.978 116.269 78.1673 117.229 77.4252 118.241Z" fill="white" stroke="#263238" stroke-linecap="round" stroke-linejoin="round"/>
<path d="M77.8479 120.004C77.8479 120.004 78.3503 121.131 77.9092 123.264" stroke="#263238" stroke-linecap="round" stroke-linejoin="round"/>
<path d="M76.2059 102.857C76.2059 102.857 75.293 102.986 74.3188 106.754C74.1962 107.244 74.4536 110.222 74.2697 110.62C73.3078 112.698 73.7367 113.917 74.2697 115.767C74.7722 117.428 76.1569 119.977 77.2476 119.94C78.4719 119.891 79.6635 119.53 80.7095 118.892C81.73 118.292 82.613 117.484 83.3013 116.521C84.0488 115.295 84.8699 111.294 84.0549 107.06C83.24 102.827 79.2696 99.524 76.2059 102.857Z" fill="white" stroke="#263238" stroke-linecap="round" stroke-linejoin="round"/>
<path d="M75.5623 114.594C75.5623 114.594 77.523 114.771 78.5585 113.613C78.5585 113.613 77.9886 115.549 77.045 115.697C76.1015 115.844 75.5623 114.594 75.5623 114.594Z" stroke="#263238" stroke-linecap="round" stroke-linejoin="round"/>
<path d="M75.2009 111.68L76.0159 112.544" stroke="#263238" stroke-linecap="round" stroke-linejoin="round"/>
<path d="M74.6128 106.935C74.6128 106.935 75.44 106.065 76.0649 106.843" stroke="#263238" stroke-linecap="round" stroke-linejoin="round"/>
<path d="M78.3259 106.21C78.3259 106.21 79.9864 104.788 81.0648 106.21" stroke="#263238" stroke-linecap="round" stroke-linejoin="round"/>
<path d="M79.968 108.713C79.8638 109.228 79.4839 109.589 79.1163 109.516C78.7487 109.442 78.5465 108.958 78.6568 108.437C78.7671 107.916 79.1408 107.561 79.5023 107.635C79.8638 107.708 80.0722 108.192 79.968 108.713Z" fill="#263238"/>
<path d="M75.7524 109.138C75.6605 109.579 75.3358 109.892 75.0294 109.824C74.7231 109.757 74.5393 109.352 74.6312 108.905C74.7231 108.458 75.0478 108.158 75.3542 108.219C75.6605 108.28 75.875 108.697 75.7524 109.138Z" fill="#263238"/>
<path d="M99.5448 129.167C99.6673 125.742 98.2642 124.584 97.0448 123.224C95.8255 121.863 89.7657 117.544 91.1749 113.206C92.8967 107.93 90.9544 101.159 85.3479 99.1987C83.2601 98.5489 81.015 98.6158 78.9695 99.3887C78.0259 98.8372 76.4451 98.0958 74.9807 98.2674C72.7013 98.5431 71.3043 101.454 71.9844 102.63C72.493 103.923 74.3802 104.732 74.9684 104.143C74.9684 104.143 77.2906 101.821 79.57 101.833C79.57 101.833 83.2769 103.353 83.6201 107.072C83.9632 110.791 80.4707 115.467 83.9816 121.569C85.8197 124.731 85.3541 126.067 81.5674 129.259C77.7808 132.451 77.8421 137.181 79.5516 140.594C81.2611 144.007 86.7878 143.125 89.827 140.686C92.8661 138.248 92.8906 135.913 92.0695 133.266C91.2485 130.619 91.3036 131.183 92.2901 132.102C93.2766 133.021 99.4283 132.598 99.5448 129.167Z" fill="#263238" stroke="#263238" stroke-linecap="round" stroke-linejoin="round"/>
<path d="M72.4621 256.239C72.2225 256.238 71.9862 256.295 71.7735 256.405C71.5608 256.516 71.3779 256.676 71.2406 256.872C71.1033 257.069 71.0156 257.295 70.985 257.533C70.9545 257.771 70.9819 258.012 71.0651 258.237C71.2673 259.033 76.1384 258.751 78.4178 258.451C80.6971 258.151 83.2093 256.068 84.1038 255.473C84.9984 254.879 89.6735 254.56 89.6735 252.171C89.6735 250.688 88.7973 248.28 88.1294 246.656C85.9481 247.808 83.3992 249.015 83.3992 249.015L80.6175 247.79C80.5317 248.384 75.7218 255.78 72.4621 256.239Z" fill="white" stroke="#263238" stroke-linecap="round" stroke-linejoin="round"/>
<path d="M89.5572 251.008C86.9286 252.098 81.8798 255.401 78.9693 256.522C76.5736 257.423 72.9892 257.644 71.0039 257.699C71.003 257.886 71.0235 258.073 71.0652 258.256C71.2674 259.053 76.1386 258.771 78.4179 258.471C80.6972 258.171 83.2094 256.087 84.104 255.493C84.9985 254.899 89.6736 254.58 89.6736 252.19C89.6721 251.793 89.6332 251.397 89.5572 251.008Z" fill="white" stroke="#263238" stroke-linecap="round" stroke-linejoin="round"/>
<path d="M204.847 105.308C190.828 148.48 170.933 162.083 170.933 162.083C159.291 172.432 146.816 176.947 136.008 173.326C113.122 165.661 106.321 124.351 120.812 81.0622C135.303 37.7733 165.639 8.89566 188.53 16.5608C199.559 20.2372 206.838 31.738 209.804 47.4972C215.227 73.3542 204.847 105.308 204.847 105.308Z" fill="#2AB6C5" stroke="#263238" stroke-linecap="round" stroke-linejoin="round"/>
<path d="M196.76 106.511C210.264 66.1966 204.853 28.0353 184.673 21.2754C164.494 14.5156 137.187 41.717 123.682 82.0315C110.178 122.346 115.589 160.507 135.769 167.267C155.948 174.027 183.255 146.826 196.76 106.511Z" fill="#CFCFCF" stroke="#263238" stroke-linecap="round" stroke-linejoin="round"/>
<path d="M196.759 106.5C185.896 138.895 166.123 162.834 148.317 167.466C159.837 152.148 170.933 130.605 179.266 105.704C189.609 74.8286 193.451 45.5036 191.061 24.8242C205.852 36.8826 208.695 70.8459 196.759 106.5Z" fill="#263238" stroke="#263238" stroke-linecap="round" stroke-linejoin="round"/>
<path d="M170.208 97.6169C173.9 86.5949 172.422 76.1619 166.906 74.3142C161.39 72.4665 153.926 79.9037 150.234 90.9257C146.541 101.948 148.02 112.381 153.536 114.228C159.051 116.076 166.516 108.639 170.208 97.6169Z" fill="#2AB6C5" stroke="#263238" stroke-linecap="round" stroke-linejoin="round"/>
<path d="M166.901 74.3086C172.416 76.1468 173.899 86.5631 170.204 97.5921C166.509 108.621 159.052 116.053 153.532 114.203L186.993 129.227C190.877 121.932 194.142 114.324 196.753 106.483C199.648 97.9119 201.744 89.0921 203.015 80.1356L166.901 74.3086Z" fill="#2AB6C5" stroke="#263238" stroke-linecap="round" stroke-linejoin="round"/>
<path d="M208.45 91.414C208.922 89.1224 209.338 86.8676 209.675 84.625C209.35 86.8614 208.922 89.1224 208.45 91.414Z" stroke="#263238" stroke-linecap="round" stroke-linejoin="round"/>
<path d="M338.519 116.835C342.961 123.195 343.819 131.736 342.575 139.34C340.087 154.505 329.095 175.491 311.608 176.612C309.996 176.714 308.378 176.614 306.792 176.312C286.229 174.302 262.425 165.283 227.824 161.447C205.441 157.948 172.722 161.122 170.933 162.06C201.06 133.348 215.171 87.5281 209.804 47.4805C232.904 76.8912 272.222 90.3711 311.332 102.975C316.847 104.752 327.753 107.184 334.383 112.417C335.97 113.68 337.363 115.168 338.519 116.835Z" fill="white" stroke="#263238" stroke-linecap="round" stroke-linejoin="round"/>
<path d="M306.792 176.315C308.378 176.617 309.996 176.717 311.608 176.615C329.07 175.512 340.087 154.508 342.575 139.343C343.8 131.739 342.961 123.198 338.519 116.838C337.362 115.178 335.968 113.695 334.383 112.438C327.753 107.206 316.834 104.773 311.332 102.996C305.536 101.127 299.733 99.2342 293.98 97.2734C297.576 107.383 296.798 124.123 293.177 135.177C286.529 155.439 276.505 163.104 266.977 168.264C282.246 171.732 295.052 175.169 306.792 176.315Z" fill="#2AB6C5" stroke="#263238" stroke-linecap="round" stroke-linejoin="round"/>
<path d="M184.817 146.914C183.592 148.654 182.407 150.225 181.263 151.626L287.099 166.129L184.817 146.914Z" fill="#263238" stroke="#263238" stroke-linecap="round" stroke-linejoin="round"/>
<path d="M194.743 130.105C192.106 135.142 189.142 140.001 185.871 144.652C228.486 150.307 301.192 165.962 325.131 171.219C327.289 169.525 329.25 167.593 330.976 165.46L194.743 130.105Z" fill="#263238" stroke="#263238" stroke-linecap="round" stroke-linejoin="round"/>
<path d="M189.578 151.889C187.783 149.402 188.745 143.667 190.859 137.043C185.359 146.239 178.658 154.66 170.933 162.085C172.722 161.123 205.441 157.949 227.824 161.472C239.068 162.698 249.165 164.536 258.387 166.435L255.188 165.633C255.188 165.633 214.822 157.906 201.986 157.055C189.149 156.203 189.578 151.889 189.578 151.889Z" fill="#263238" stroke="#263238" stroke-linecap="round" stroke-linejoin="round"/>
<path d="M266.328 191.933L264.177 195.039L268.239 199.102C265.02 205.63 262.381 212.429 260.354 219.42C257.247 230.412 254.619 236.147 254.619 236.147C254.619 236.147 246.255 241.662 246.733 244.511C247.211 247.36 259.398 255.264 262.051 257.415C264.704 259.565 269.22 261.961 273.043 260.043C276.867 258.125 276.628 255.754 276.628 253.113C276.628 250.473 276.867 247.378 276.867 247.378C276.867 247.378 290.016 223.482 292.185 216.068C294.354 208.654 295.291 195.995 298.637 194.562C301.982 193.128 311.302 193.336 312.729 189.543C314.157 185.751 320.879 170.347 320.879 170.347L285.212 163.711C285.212 163.711 276.848 170.451 263.938 167.553L274.93 177.356L266.328 191.933Z" fill="white" stroke="#263238" stroke-linecap="round" stroke-linejoin="round"/>
<path d="M263.938 167.554L274.93 177.357L266.352 191.934L264.202 195.041L265.709 196.548L270.654 196.235C270.654 196.235 283.38 180.219 284.808 176.739C286.235 173.258 285.237 163.73 285.237 163.73C285.237 163.73 276.848 170.452 263.938 167.554Z" fill="#EDEDED" stroke="#263238" stroke-linecap="round" stroke-linejoin="round"/>
<path d="M274.214 172.336C274.294 173.541 274.099 174.749 273.643 175.868C273.188 176.987 272.484 177.987 271.585 178.794C268.479 181.662 263.221 188.83 263.938 189.308C264.813 190.11 265.613 190.99 266.328 191.937L269.434 192.893C269.434 192.893 277.32 181.423 277.559 178.555C277.798 175.688 274.214 172.336 274.214 172.336Z" fill="#EDEDED" stroke="#263238" stroke-linecap="round" stroke-linejoin="round"/>
<path d="M264.177 195.047L270.629 196.242L276.364 201.021L268.239 199.109L264.177 195.047Z" fill="#263238" stroke="#263238" stroke-linecap="round" stroke-linejoin="round"/>
<path d="M259.637 239.974C262.265 237.823 262.743 233.044 266.328 224.656C269.912 216.268 276.364 200.993 276.364 200.993L268.27 199.105C265.05 205.634 262.411 212.432 260.384 219.423C257.278 230.416 254.649 236.151 254.649 236.151C254.649 236.151 246.285 241.665 246.763 244.514C247.241 247.364 259.428 255.268 262.081 257.418C263.725 258.793 265.633 259.815 267.688 260.421C264.538 258.007 253.865 248.877 253.24 245.948C252.468 242.603 257.008 242.143 259.637 239.974Z" fill="#EDEDED" stroke="#263238" stroke-linecap="round" stroke-linejoin="round"/>
<path d="M274.213 172.337L272.559 170.664H270.169L273.993 175.204C274.005 174.245 274.079 173.287 274.213 172.337Z" fill="#263238" stroke="#263238" stroke-linecap="round" stroke-linejoin="round"/>
<path d="M253.338 246.389L246.733 244.238C246.724 244.33 246.724 244.422 246.733 244.514C247.211 247.382 259.398 255.267 262.051 257.418C263.694 258.792 265.603 259.814 267.657 260.42C264.624 258.116 254.79 249.698 253.338 246.389Z" fill="#263238" stroke="#263238" stroke-linecap="round" stroke-linejoin="round"/>
<path d="M263.938 189.305L268.626 190.352L269.434 192.889L266.328 191.933L263.938 189.305Z" fill="#263238" stroke="#263238" stroke-linecap="round" stroke-linejoin="round"/>
<path d="M268.625 190.354C268.625 190.354 275.672 181.929 275.825 178.559L268.625 190.354Z" fill="#263238"/>
<path d="M268.625 190.354C268.625 190.354 275.672 181.929 275.825 178.559" stroke="#263238" stroke-linecap="round" stroke-linejoin="round"/>
<path d="M350.504 178.055C350.504 178.055 348.948 188.196 348.905 191.21C348.862 194.225 346.595 215.511 348.145 217.937C349.695 220.364 349.272 222.637 350.204 224.12C351.135 225.602 351.754 226.57 351.754 226.57C351.754 226.57 354.119 240.02 354.879 243.335C355.638 246.649 355.357 246.533 355.173 248.083C354.989 249.633 356.87 250.644 356.87 250.644C355.962 251.806 355.142 253.035 354.419 254.321C353.806 255.62 349.781 256.422 347.857 257.102C345.933 257.783 345.89 259.327 346.337 259.719C346.785 260.111 348.329 260.16 348.329 260.16L367.593 258.983C368.083 258.953 368.544 258.734 368.876 258.372C369.209 258.01 369.388 257.533 369.376 257.041C369.376 256.147 369.321 255.117 369.278 254.394C369.194 253.08 368.974 251.778 368.622 250.51C368.235 249.442 368.028 248.318 368.009 247.182C367.893 245.228 365.209 242.593 365.001 241.484C364.793 240.375 365.001 234.891 363.733 229.928C362.464 224.965 358.616 212.717 358.592 212.3C358.567 211.883 362.452 200.456 362.452 200.456C362.452 200.456 370.491 189.213 371.171 188.814C371.851 188.416 376.214 180.849 376.116 179.532C376.018 178.214 375.074 175.659 367.611 173.772C360.148 171.885 356.245 174.795 355.357 175.433C354.468 176.07 350.504 178.055 350.504 178.055Z" fill="#263238" stroke="#263238" stroke-linecap="round" stroke-linejoin="round"/>
<path d="M356.87 250.629C355.962 251.791 355.142 253.02 354.419 254.305C353.806 255.604 349.781 256.407 347.857 257.087C345.933 257.767 345.89 259.311 346.337 259.703C346.785 260.095 348.329 260.145 348.329 260.145L355.436 261.008L367.77 259.109C368.226 259.038 368.641 258.804 368.938 258.45C369.234 258.096 369.392 257.647 369.382 257.185C369.382 256.26 369.327 255.145 369.278 254.379C369.278 254.017 369.216 253.637 369.167 253.264L367.519 253.086C363.908 252.558 360.347 251.736 356.87 250.629Z" fill="#2AB6C5" stroke="#263238" stroke-linecap="round" stroke-linejoin="round"/>
<path d="M380.429 244.683L380.178 250.198C380.178 250.198 376.232 256.833 375.729 257.55C375.227 258.267 376.391 258.776 377.568 259.088C378.744 259.401 386.274 255.712 387.69 254.186C389.105 252.661 391.789 249.364 391.789 249.364C391.789 249.364 396.115 245.639 395.618 244.695C395.122 243.752 389.791 240.406 389.791 240.406L380.429 244.683Z" fill="#2AB6C5" stroke="#263238" stroke-linecap="round" stroke-linejoin="round"/>
<path d="M356.631 180.258C356.631 180.258 355.357 193.836 355.332 195.246C355.308 196.655 354.609 212.145 356.263 215.239C357.918 218.333 366.416 231.249 366.416 231.249C366.416 231.249 375.558 240.048 376.152 240.44C376.747 240.832 376.404 241.825 376.728 242.358C377.053 242.891 378.775 243.314 378.775 243.314C379.034 244.145 379.334 244.963 379.676 245.765C380.013 246.439 381.753 245.458 384.498 244.668C387.243 243.877 389.767 240.446 389.767 240.446C389.481 239.514 389.125 238.604 388.701 237.726C388.389 237.334 389.516 237.383 388.088 235.275C387.383 234.17 386.546 233.156 385.595 232.254L372.243 216.642L370.405 212.861C370.405 212.861 370.595 206.673 370.405 205.705C370.215 204.737 369.327 202.849 369.29 202.427C369.253 202.004 374.296 188.126 374.486 186.986C374.676 185.846 376.851 181.6 376.875 180.191C376.9 178.782 374.78 176.858 374.78 176.858C374.78 176.858 368.242 174.162 365.871 174.358C363.5 174.554 362.807 174.468 361.331 175.43C359.854 176.392 357.489 178.267 357.489 178.267L356.631 180.258Z" fill="#5E5E5E" stroke="#263238" stroke-linecap="round" stroke-linejoin="round"/>
<path d="M369.29 211.386C367.691 211.007 366.074 210.714 364.443 210.51C363.163 210.455 363.218 211.331 366.796 212.067" stroke="#263238" stroke-linecap="round" stroke-linejoin="round"/>
<path d="M367.384 180.348C367.384 180.348 367.568 188.448 366.263 191.897C364.988 195.587 364.073 199.392 363.53 203.257C363.016 206.646 364.541 205.88 364.462 206.842C364.382 207.804 362.758 209.372 362.758 209.372" stroke="#263238" stroke-linecap="round" stroke-linejoin="round"/>
<path d="M366.49 214.16C367.775 217.671 369.603 220.958 371.906 223.902C375.822 228.994 382.175 234.68 382.439 235.93C382.54 236.915 382.401 237.909 382.035 238.828C382.035 238.828 384.565 238.62 384.804 239.558C385.002 240.25 385.269 240.921 385.601 241.561" stroke="#263238" stroke-linecap="round" stroke-linejoin="round"/>
<path d="M377.948 112.861C377.948 112.861 376.459 116.807 376.263 117.683C376.07 118.748 376.053 119.836 376.214 120.906C376.373 121.556 376.661 123.584 376.661 123.584L365.424 129.098L365.632 124.723C364.443 122.383 363.965 121.366 362.979 120.992C361.992 120.618 359.952 120.931 359.235 119.809C358.892 119.276 359.027 115.949 359.168 114.607C359.252 113.814 359.427 113.033 359.689 112.279C359.689 112.279 358.463 111.458 358.567 110.594C358.671 109.73 359.584 109.442 360.32 109.179C360.895 109.054 361.424 108.769 361.845 108.358C362.182 107.947 361.943 107.494 362.844 106.078C363.745 104.663 365.846 103.971 365.846 103.971C367.312 103.669 368.82 103.642 370.295 103.891C373.083 104.265 377.139 109.632 377.611 110.527C377.906 111.267 378.021 112.067 377.948 112.861Z" fill="#C9C9C9" stroke="#263238" stroke-linecap="round" stroke-linejoin="round"/>
<path d="M360.369 114.45L362.979 113.531C362.931 114.179 362.736 114.808 362.409 115.369C361.9 116.166 360.847 115.841 360.369 114.45Z" fill="#263238" stroke="#263238" stroke-linecap="round" stroke-linejoin="round"/>
<path d="M362.899 108.413C362.746 108.781 362.813 109.149 363.04 109.241C363.267 109.332 363.567 109.112 363.714 108.75C363.861 108.389 363.8 108.015 363.573 107.923C363.346 107.831 363.046 108.052 362.899 108.413Z" fill="#263238"/>
<path d="M364.835 107.344C364.835 107.344 363.922 106.161 363.15 106.933" stroke="#263238" stroke-linecap="round" stroke-linejoin="round"/>
<path d="M377.635 110.493C377.927 111.245 378.034 112.056 377.948 112.858C377.948 112.858 377.212 114.806 376.722 116.271C376.489 116.124 376.109 118.587 375.858 118.336C374.896 117.331 372.795 113.189 372.654 112.956C372.513 112.723 371.428 110.199 371.428 110.199C371.428 110.199 369.59 110.67 369.124 110.29C368.659 109.911 369.075 108.636 369.081 108.085C369.088 107.533 367.856 106.093 367.439 105.401C367.023 104.709 367.77 103.832 367.77 103.832L367.88 103.74C368.686 103.727 369.491 103.776 370.288 103.887C373.107 104.231 377.163 109.598 377.635 110.493Z" fill="#A6A6A6" stroke="#263238" stroke-linecap="round" stroke-linejoin="round"/>
<path d="M370.105 110.406C370.105 110.406 372.697 108.512 373.077 111.319C373.456 114.125 371.496 115.118 370.301 115.43C370.149 115.477 369.988 115.49 369.83 115.469C369.672 115.448 369.52 115.393 369.385 115.308C369.25 115.224 369.135 115.111 369.048 114.977C368.961 114.844 368.903 114.693 368.879 114.536" fill="#C9C9C9"/>
<path d="M370.105 110.406C370.105 110.406 372.697 108.512 373.077 111.319C373.456 114.125 371.496 115.118 370.301 115.43C370.149 115.477 369.988 115.49 369.83 115.469C369.672 115.448 369.52 115.393 369.385 115.308C369.25 115.224 369.135 115.111 369.048 114.977C368.961 114.844 368.903 114.693 368.879 114.536" stroke="#263238" stroke-linecap="round" stroke-linejoin="round"/>
<path d="M375.968 102.613C375.968 102.613 376.832 101.761 378.481 103.961C380.129 106.161 379.633 106.878 379.633 106.878C379.633 106.878 380.68 106.957 381.14 108.618C381.388 109.37 381.355 110.186 381.046 110.916C380.737 111.645 380.174 112.237 379.461 112.582C378.009 113.195 377.96 112.735 376.606 111.546C375.252 110.358 375.723 107.564 373.193 106.032C371.333 104.882 369.213 104.221 367.029 104.108C365.497 103.979 364.492 103.416 364.841 102.27C365.191 101.124 367.488 99.439 368.892 100.15C369.498 100.48 370.129 100.762 370.779 100.995C370.779 100.995 375.056 100.144 375.968 102.613Z" fill="#263238" stroke="#263238" stroke-linecap="round" stroke-linejoin="round"/>
<path d="M365.111 130.012L348.273 134.914L343.408 133.431C343.408 133.633 343.341 133.835 343.323 134.043C343.064 136.884 342.655 139.708 342.097 142.505L347.9 146.286L366.343 147.897L365.111 130.012Z" fill="#263238" stroke="#263238" stroke-linecap="round" stroke-linejoin="round"/>
<path d="M364.253 125.398L361.52 131.636C361.177 132.414 357.158 139.19 356.698 144.987C356.239 150.783 353.439 163.644 353.439 163.644L348.88 179.373C348.88 179.373 350.718 181.278 355.938 179.428C361.159 177.578 362.734 174.796 365.448 175.482C368.162 176.168 371.575 179.195 373.34 180.218C375.104 181.242 378.321 183.356 378.321 183.356C378.321 183.356 380.129 167.076 380.159 161.88C380.19 156.684 382.757 142.481 381.624 136.145C380.49 129.81 378.462 126.397 377.445 125.276C376.992 124.675 376.341 124.254 375.607 124.087C375.607 124.087 367.213 122.825 364.253 125.398Z" fill="white" stroke="#263238" stroke-linecap="round" stroke-linejoin="round"/>
<path d="M366.091 150.234C366.091 150.234 371.165 159.75 376.557 162.287L366.091 150.234Z" fill="white"/>
<path d="M366.091 150.234C366.091 150.234 371.165 159.75 376.557 162.287" stroke="#263238" stroke-linecap="round" stroke-linejoin="round"/>
<path d="M362.599 149.887L367.678 156.547" stroke="#263238" stroke-linecap="round" stroke-linejoin="round"/>
<path d="M378.56 125.727C378.56 125.727 378.603 121.805 377.102 121.046C375.601 120.286 369.382 122.455 367.298 123.227C365.215 123.999 362.439 125.065 362.439 125.065L362.66 130.224C362.66 130.224 367.733 127.522 369.369 126.101C370.515 125.114 376.863 124.734 378.56 125.727Z" fill="white" stroke="#263238" stroke-linecap="round" stroke-linejoin="round"/>
<path d="M322.19 128.79C321.132 128.139 320.185 127.325 319.384 126.376C317.956 124.722 317.594 126.682 317.882 127.258C318.297 127.888 318.771 128.477 319.298 129.017L322.19 128.79Z" fill="#C9C9C9" stroke="#263238" stroke-linecap="round" stroke-linejoin="round"/>
<path d="M335.198 134.22C335.198 134.22 326.552 130.954 325.921 130.654C325.29 130.354 321.969 128.736 320.928 128.515C318.778 128.302 316.618 128.21 314.457 128.24C313.606 128.24 312.834 128.705 313.41 129.465C313.985 130.225 316.43 129.575 316.43 129.575L319.831 130.188C319.831 130.188 313.465 131.181 312.564 131.646C311.663 132.112 312.564 132.933 314.592 132.523C315.604 132.339 316.602 132.092 317.582 131.781L319.255 132.302C319.255 132.302 315.413 133.785 314.237 134.306C313.06 134.827 313.109 135.813 314.237 135.733C315.364 135.654 316.21 134.912 316.62 134.826C317.031 134.741 319.751 134.771 319.751 134.771C319.751 134.771 315.934 135.678 315.689 136.61C315.444 137.541 316.302 137.621 317.196 137.02C317.685 136.616 318.273 136.352 318.9 136.254C319.445 136.144 322.165 136.168 322.165 136.168C322.165 136.168 325.511 135.782 325.921 135.703C326.332 135.623 335.725 141.162 335.725 141.162L335.198 134.22Z" fill="#C9C9C9" stroke="#263238" stroke-linecap="round" stroke-linejoin="round"/>
<path d="M371.912 128.02C371.912 128.02 366.753 128.687 365.111 129.999C363.469 131.31 362.66 132.75 362.317 132.946C361.974 133.142 354.051 136.065 354.051 136.065L338.354 135.391L337.091 142.039C337.091 142.039 351.472 147.786 352.03 147.719C352.587 147.651 364.995 147.988 366.33 147.866C367.666 147.743 374.982 144.918 374.982 144.918" fill="white"/>
<path d="M371.912 128.02C371.912 128.02 366.753 128.687 365.111 129.999C363.469 131.31 362.66 132.75 362.317 132.946C361.974 133.142 354.051 136.065 354.051 136.065L338.354 135.391L337.091 142.039C337.091 142.039 351.472 147.786 352.03 147.719C352.587 147.651 364.995 147.988 366.33 147.866C367.666 147.743 374.982 144.918 374.982 144.918" stroke="#263238" stroke-linecap="round" stroke-linejoin="round"/>
<path d="M354.051 139.625C354.051 139.625 359.008 142.542 364.363 143.265L354.051 139.625Z" fill="white"/>
<path d="M354.051 139.625C354.051 139.625 359.008 142.542 364.363 143.265" stroke="#263238" stroke-linecap="round" stroke-linejoin="round"/>
<path d="M371.275 142.527C372.047 142.613 372.831 142.687 373.597 142.723L371.275 142.527Z" fill="white"/>
<path d="M371.275 142.527C372.047 142.613 372.831 142.687 373.597 142.723" stroke="#263238" stroke-linecap="round" stroke-linejoin="round"/>
<path d="M360.73 140.43C363.415 141.162 366.137 141.747 368.886 142.182L360.73 140.43Z" fill="white"/>
<path d="M360.73 140.43C363.415 141.162 366.137 141.747 368.886 142.182" stroke="#263238" stroke-linecap="round" stroke-linejoin="round"/>
<path d="M339.119 134.587C339.119 134.587 335.333 132.063 334.732 132.608C334.132 133.154 334.291 140.402 334.812 141.579C335.333 142.755 336.485 143.527 337.195 143.527C337.906 143.527 340.161 136.946 339.119 134.587Z" fill="white" stroke="#263238" stroke-linecap="round" stroke-linejoin="round"/>
<path d="M367.782 259.085C368.239 259.014 368.653 258.78 368.95 258.426C369.246 258.072 369.404 257.623 369.394 257.162C369.394 256.904 369.394 256.641 369.394 256.371C366.771 257.204 359.486 259.398 356.043 259.263C353.083 259.153 348.733 258.577 346.374 258.24C346.222 258.449 346.14 258.701 346.14 258.96C346.14 259.218 346.222 259.47 346.374 259.68C346.821 260.072 348.365 260.121 348.365 260.121L355.473 260.985L367.782 259.085Z" fill="white" stroke="#263238" stroke-linecap="round" stroke-linejoin="round"/>
<path d="M386.397 253.124C384.957 254.49 377.28 257.836 375.938 258.418C376.43 258.735 376.973 258.965 377.543 259.098C378.689 259.423 386.25 255.722 387.666 254.196C389.081 252.671 391.765 249.374 391.765 249.374C391.765 249.374 396.09 245.649 395.594 244.705C395.065 244.08 394.445 243.537 393.756 243.094C392.267 245.269 387.708 251.874 386.397 253.124Z" fill="white" stroke="#263238" stroke-linecap="round" stroke-linejoin="round"/>
</svg>
