<svg width="20" height="18" viewBox="0 0 20 18" fill="none" xmlns="http://www.w3.org/2000/svg">
<path d="M18.364 10.8961C17.3903 9.72018 16.0691 8.87315 14.5845 8.47298C14.5364 8.46028 14.4856 8.46082 14.4378 8.47455C14.3899 8.48828 14.3468 8.51466 14.3131 8.55084C13.7365 9.171 13.0785 9.53189 12.5563 9.51874H12.5413C12.0306 9.53104 11.4123 9.20261 10.8437 8.61343C10.8088 8.57729 10.7643 8.55146 10.7154 8.53883C10.6664 8.52621 10.6149 8.52728 10.5665 8.54193C9.40712 8.89547 8.35448 9.52661 7.50245 10.3791H1.16858C1.03248 10.3792 0.901975 10.4326 0.805733 10.5275C0.709491 10.6225 0.655372 10.7512 0.655258 10.8855V16.3326H0.272469C0.200205 16.3326 0.130902 16.3609 0.0798042 16.4113C0.0287064 16.4617 0 16.5301 0 16.6014V17.2706C0.00159126 17.4653 0.0814428 17.6515 0.22203 17.7883C0.362618 17.925 0.552455 18.0012 0.74988 18H12.7772C12.9746 18.0011 13.1643 17.9249 13.3048 17.7881C13.4453 17.6514 13.5251 17.4653 13.5267 17.2706V16.6014C13.5267 16.5301 13.4979 16.4617 13.4468 16.4113C13.3958 16.3609 13.3264 16.3326 13.2542 16.3326H12.8714V15.3861H19.7274C19.7643 15.3862 19.8009 15.3788 19.8348 15.3645C19.8688 15.3502 19.8994 15.3292 19.9249 15.3028C19.9503 15.2764 19.9701 15.2452 19.983 15.2111C19.9958 15.1769 20.0015 15.1405 19.9997 15.1042C19.9291 13.5641 19.3553 12.0878 18.364 10.8961ZM1.19998 10.9173H12.3271V16.5221H1.19998V10.9173ZM12.9824 17.2706C12.9802 17.3226 12.9576 17.3718 12.9193 17.4077C12.881 17.4435 12.83 17.4632 12.7772 17.4626H0.74988C0.697075 17.4632 0.646095 17.4435 0.607783 17.4077C0.56947 17.3718 0.546846 17.3226 0.544722 17.2706V16.87H0.768804C0.816792 16.9291 0.877634 16.9768 0.946832 17.0096C1.01603 17.0424 1.09181 17.0595 1.16858 17.0595H12.3585C12.4353 17.0595 12.5111 17.0424 12.5803 17.0096C12.6494 16.9768 12.7103 16.9291 12.7583 16.87H12.9824V17.2706ZM16.9913 14.8479V12.408C16.9893 12.338 16.9598 12.2716 16.9089 12.2228C16.858 12.174 16.7899 12.1467 16.719 12.1467C16.648 12.1467 16.5799 12.174 16.529 12.2228C16.4782 12.2716 16.4486 12.338 16.4466 12.408V14.8479H12.8718V10.8855C12.8717 10.7512 12.8175 10.6225 12.7213 10.5276C12.6251 10.4326 12.4946 10.3792 12.3585 10.3791H8.30093C8.96717 9.81393 9.73816 9.38162 10.5712 9.10608C11.2131 9.72645 11.9273 10.0723 12.5497 10.0568C13.1972 10.0721 13.9385 9.70162 14.5991 9.03606C15.8991 9.42225 17.0534 10.1812 17.915 11.2164C18.7766 12.2515 19.3067 13.5161 19.4377 14.8494L16.9913 14.8479ZM12.512 7.86577H12.5488C12.5613 7.86577 12.5733 7.86577 12.5858 7.86577C13.7114 7.86577 15.0563 6.71648 15.7313 5.16917C16.0349 4.50329 16.1673 3.77383 16.1169 3.0454C16.0556 2.278 15.7152 1.55833 15.1585 1.01903C14.4516 0.364384 13.5185 0 12.5489 0C11.5794 0 10.6463 0.364384 9.9394 1.01903C9.38264 1.55833 9.04223 2.278 8.98092 3.0454C8.93051 3.77383 9.06295 4.50329 9.36651 5.16917C10.0428 6.71648 11.3863 7.86577 12.512 7.86577ZM10.3246 1.39922C10.9292 0.84526 11.7238 0.537386 12.5489 0.537386C13.3741 0.537386 14.1687 0.84526 14.7733 1.39922C16.0421 2.65099 15.5159 4.30375 15.2309 4.95679C14.6468 6.29533 13.4925 7.32836 12.5882 7.32836H12.5563H12.5415H12.5095C11.6063 7.32836 10.451 6.29533 9.86693 4.95679C9.58199 4.30396 9.05641 2.65036 10.3246 1.39922ZM7.74073 13.4378C7.55521 13.437 7.3774 13.3646 7.24535 13.236C7.11331 13.1075 7.03755 12.933 7.03429 12.75C7.03338 12.6793 7.0043 12.6119 6.95334 12.5623C6.90238 12.5126 6.83365 12.4848 6.76204 12.4848C6.51461 12.4852 6.27285 12.5579 6.06731 12.6938C5.86178 12.8297 5.70169 13.0227 5.60728 13.2483C5.51286 13.4739 5.48837 13.7221 5.53689 13.9615C5.58541 14.2008 5.70477 14.4206 5.87988 14.5931C6.05498 14.7656 6.27798 14.8829 6.52068 14.9304C6.76339 14.9778 7.01491 14.9533 7.24345 14.8597C7.47199 14.7662 7.6673 14.6079 7.80469 14.4049C7.94208 14.2019 8.01539 13.9633 8.01535 13.7192V13.7041C8.01433 13.633 7.98492 13.5651 7.9335 13.5153C7.88209 13.4654 7.81282 13.4376 7.74073 13.4378ZM6.76354 14.4163C6.59641 14.4165 6.43464 14.3581 6.30699 14.2517C6.17934 14.1452 6.09408 13.9976 6.06635 13.835C6.03862 13.6724 6.07023 13.5054 6.15555 13.3636C6.24087 13.2218 6.37439 13.1144 6.53236 13.0606C6.59115 13.2724 6.70567 13.465 6.86429 13.619C7.02292 13.773 7.22001 13.8829 7.43557 13.9375C7.38879 14.0768 7.29867 14.1981 7.17803 14.2841C7.05739 14.3701 6.91236 14.4163 6.76354 14.4163Z" fill="#848484"/>
</svg>
